<svg width="465" height="39" viewBox="0 0 465 39" fill="none" xmlns="http://www.w3.org/2000/svg">
<g filter="url(#filter0_di_72_1164)">
<path d="M23.5596 1H3C1.89543 1 1 1.89543 1 3V33C1 34.1046 1.89543 35 3 35H23.5596H441.402H460C461.105 35 462 34.1046 462 33V3C462 1.89543 461.105 1 460 1H441.402H23.5596Z" fill="#262B63"/>
<path d="M23.5596 1H3C1.89543 1 1 1.89543 1 3V33C1 34.1046 1.89543 35 3 35H23.5596H441.402H460C461.105 35 462 34.1046 462 33V3C462 1.89543 461.105 1 460 1H441.402H23.5596Z" stroke="#17639A" stroke-width="2"/>
</g>
<defs>
<filter id="filter0_di_72_1164" x="0" y="0" width="465" height="39" filterUnits="userSpaceOnUse" color-interpolation-filters="sRGB">
<feFlood flood-opacity="0" result="BackgroundImageFix"/>
<feColorMatrix in="SourceAlpha" type="matrix" values="0 0 0 0 0 0 0 0 0 0 0 0 0 0 0 0 0 0 127 0" result="hardAlpha"/>
<feOffset dx="2" dy="3"/>
<feComposite in2="hardAlpha" operator="out"/>
<feColorMatrix type="matrix" values="0 0 0 0 0.14902 0 0 0 0 0.168627 0 0 0 0 0.388235 0 0 0 1 0"/>
<feBlend mode="normal" in2="BackgroundImageFix" result="effect1_dropShadow_72_1164"/>
<feBlend mode="normal" in="SourceGraphic" in2="effect1_dropShadow_72_1164" result="shape"/>
<feColorMatrix in="SourceAlpha" type="matrix" values="0 0 0 0 0 0 0 0 0 0 0 0 0 0 0 0 0 0 127 0" result="hardAlpha"/>
<feOffset dy="4"/>
<feComposite in2="hardAlpha" operator="arithmetic" k2="-1" k3="1"/>
<feColorMatrix type="matrix" values="0 0 0 0 0.385543 0 0 0 0 0.426553 0 0 0 0 0.885856 0 0 0 1 0"/>
<feBlend mode="normal" in2="shape" result="effect2_innerShadow_72_1164"/>
</filter>
</defs>
</svg>
