<svg width="152" height="39" viewBox="0 0 152 39" fill="none" xmlns="http://www.w3.org/2000/svg">
<g filter="url(#filter0_di_72_1152)">
<path d="M147.481 1H116.664C115.745 1 115 1.74492 115 2.66383V33.3362C115 34.2551 115.745 35 116.664 35H147.481C148.32 35 149 34.3199 149 33.4809V2.51915C149 1.68015 148.32 1 147.481 1Z" fill="#262B63"/>
<path d="M147.481 1H116.664C115.745 1 115 1.74492 115 2.66383V33.3362C115 34.2551 115.745 35 116.664 35H147.481C148.32 35 149 34.3199 149 33.4809V2.51915C149 1.68015 148.32 1 147.481 1Z" stroke="#17639A" stroke-width="2"/>
</g>
<g filter="url(#filter1_di_72_1152)">
<path d="M38.9149 1H37C35.8954 1 35 1.89543 35 3V33C35 34.1046 35.8954 35 37 35H38.9149H111.426H113C114.105 35 115 34.1046 115 33V3C115 1.89543 114.105 1 113 1H111.426H38.9149Z" fill="#262B63"/>
<path d="M38.9149 1H37C35.8954 1 35 1.89543 35 3V33C35 34.1046 35.8954 35 37 35H38.9149H111.426H113C114.105 35 115 34.1046 115 33V3C115 1.89543 114.105 1 113 1H111.426H38.9149Z" stroke="#17639A" stroke-width="2"/>
</g>
<g filter="url(#filter2_di_72_1152)">
<path d="M33.4809 1H2.66383C1.74492 1 1 1.74492 1 2.66383V33.3362C1 34.2551 1.74492 35 2.66383 35H33.4809C34.3199 35 35 34.3199 35 33.4809V2.51915C35 1.68015 34.3199 1 33.4809 1Z" fill="#262B63"/>
<path d="M33.4809 1H2.66383C1.74492 1 1 1.74492 1 2.66383V33.3362C1 34.2551 1.74492 35 2.66383 35H33.4809C34.3199 35 35 34.3199 35 33.4809V2.51915C35 1.68015 34.3199 1 33.4809 1Z" stroke="#17639A" stroke-width="2"/>
</g>
<defs>
<filter id="filter0_di_72_1152" x="114" y="0" width="38" height="39" filterUnits="userSpaceOnUse" color-interpolation-filters="sRGB">
<feFlood flood-opacity="0" result="BackgroundImageFix"/>
<feColorMatrix in="SourceAlpha" type="matrix" values="0 0 0 0 0 0 0 0 0 0 0 0 0 0 0 0 0 0 127 0" result="hardAlpha"/>
<feOffset dx="2" dy="3"/>
<feComposite in2="hardAlpha" operator="out"/>
<feColorMatrix type="matrix" values="0 0 0 0 0.14902 0 0 0 0 0.168627 0 0 0 0 0.388235 0 0 0 1 0"/>
<feBlend mode="normal" in2="BackgroundImageFix" result="effect1_dropShadow_72_1152"/>
<feBlend mode="normal" in="SourceGraphic" in2="effect1_dropShadow_72_1152" result="shape"/>
<feColorMatrix in="SourceAlpha" type="matrix" values="0 0 0 0 0 0 0 0 0 0 0 0 0 0 0 0 0 0 127 0" result="hardAlpha"/>
<feOffset dy="4"/>
<feComposite in2="hardAlpha" operator="arithmetic" k2="-1" k3="1"/>
<feColorMatrix type="matrix" values="0 0 0 0 0.385543 0 0 0 0 0.426553 0 0 0 0 0.885856 0 0 0 1 0"/>
<feBlend mode="normal" in2="shape" result="effect2_innerShadow_72_1152"/>
</filter>
<filter id="filter1_di_72_1152" x="34" y="0" width="84" height="39" filterUnits="userSpaceOnUse" color-interpolation-filters="sRGB">
<feFlood flood-opacity="0" result="BackgroundImageFix"/>
<feColorMatrix in="SourceAlpha" type="matrix" values="0 0 0 0 0 0 0 0 0 0 0 0 0 0 0 0 0 0 127 0" result="hardAlpha"/>
<feOffset dx="2" dy="3"/>
<feComposite in2="hardAlpha" operator="out"/>
<feColorMatrix type="matrix" values="0 0 0 0 0.14902 0 0 0 0 0.168627 0 0 0 0 0.388235 0 0 0 1 0"/>
<feBlend mode="normal" in2="BackgroundImageFix" result="effect1_dropShadow_72_1152"/>
<feBlend mode="normal" in="SourceGraphic" in2="effect1_dropShadow_72_1152" result="shape"/>
<feColorMatrix in="SourceAlpha" type="matrix" values="0 0 0 0 0 0 0 0 0 0 0 0 0 0 0 0 0 0 127 0" result="hardAlpha"/>
<feOffset dy="4"/>
<feComposite in2="hardAlpha" operator="arithmetic" k2="-1" k3="1"/>
<feColorMatrix type="matrix" values="0 0 0 0 0.385543 0 0 0 0 0.426553 0 0 0 0 0.885856 0 0 0 1 0"/>
<feBlend mode="normal" in2="shape" result="effect2_innerShadow_72_1152"/>
</filter>
<filter id="filter2_di_72_1152" x="0" y="0" width="38" height="39" filterUnits="userSpaceOnUse" color-interpolation-filters="sRGB">
<feFlood flood-opacity="0" result="BackgroundImageFix"/>
<feColorMatrix in="SourceAlpha" type="matrix" values="0 0 0 0 0 0 0 0 0 0 0 0 0 0 0 0 0 0 127 0" result="hardAlpha"/>
<feOffset dx="2" dy="3"/>
<feComposite in2="hardAlpha" operator="out"/>
<feColorMatrix type="matrix" values="0 0 0 0 0.14902 0 0 0 0 0.168627 0 0 0 0 0.388235 0 0 0 1 0"/>
<feBlend mode="normal" in2="BackgroundImageFix" result="effect1_dropShadow_72_1152"/>
<feBlend mode="normal" in="SourceGraphic" in2="effect1_dropShadow_72_1152" result="shape"/>
<feColorMatrix in="SourceAlpha" type="matrix" values="0 0 0 0 0 0 0 0 0 0 0 0 0 0 0 0 0 0 127 0" result="hardAlpha"/>
<feOffset dy="4"/>
<feComposite in2="hardAlpha" operator="arithmetic" k2="-1" k3="1"/>
<feColorMatrix type="matrix" values="0 0 0 0 0.385543 0 0 0 0 0.426553 0 0 0 0 0.885856 0 0 0 1 0"/>
<feBlend mode="normal" in2="shape" result="effect2_innerShadow_72_1152"/>
</filter>
</defs>
</svg>
