<svg width="733" height="404" viewBox="0 0 733 404" fill="none" xmlns="http://www.w3.org/2000/svg">
<g clip-path="url(#clip0_2247_16758)">
<path d="M88.5157 321.231C87.0442 321.231 85.5773 321.03 84.1525 320.634L55.1001 312.544C46.4811 310.142 41.4218 301.19 43.823 292.578L44.6545 289.592L11.8695 280.462C3.25048 278.06 -1.80882 269.103 0.597032 260.496L5.52085 242.857C6.42714 239.615 8.28642 236.778 10.8931 234.651L79.1539 179.024C82.041 176.668 85.6895 175.371 89.4174 175.371C90.8889 175.371 92.3558 175.572 93.7759 175.968L122.324 183.918C126.5 185.079 129.971 187.799 132.101 191.568C134.232 195.338 134.764 199.714 133.596 203.884L116.881 263.747C118.783 265.105 120.385 266.878 121.567 268.972C123.697 272.746 124.23 277.118 123.062 281.288L119.614 293.637C117.778 300.215 111.967 304.922 105.24 305.444L104.142 309.372C102.194 316.351 95.766 321.231 88.5111 321.231H88.5157Z" fill="white"/>
<path d="M88.5157 315.637C87.5533 315.637 86.591 315.507 85.6567 315.246L56.6043 307.156C50.961 305.584 47.6489 299.72 49.2232 294.085L51.5497 285.753C51.5497 285.753 51.5356 285.701 51.517 285.692L13.3784 275.074C7.73512 273.502 4.42298 267.638 5.9973 262.002L10.9211 244.364C11.5144 242.241 12.729 240.384 14.4388 238.994L82.6996 183.367C84.5916 181.828 86.9741 180.979 89.4173 180.979C90.3796 180.979 91.342 181.109 92.2716 181.37L120.82 189.32C123.552 190.08 125.827 191.858 127.22 194.33C128.612 196.798 128.962 199.662 128.201 202.391L110.257 266.663C110.257 266.663 110.266 266.714 110.29 266.724C113.023 267.484 115.298 269.261 116.69 271.734C118.082 274.202 118.432 277.066 117.671 279.795L114.223 292.144C112.948 296.716 108.739 299.907 103.993 299.907C103.03 299.907 102.068 299.776 101.138 299.515C101.138 299.515 101.134 299.515 101.129 299.515C101.11 299.515 101.087 299.524 101.082 299.547L98.7557 307.879C97.4804 312.451 93.2713 315.642 88.525 315.642L88.5157 315.637Z" fill="#000072"/>
<path d="M54.3198 295.502L56.6462 287.17C57.4357 284.334 55.7773 281.395 52.937 280.607L14.7984 269.989C11.9581 269.2 10.2997 266.261 11.0892 263.425L16.013 245.786C16.3073 244.727 16.924 243.785 17.7789 243.09L86.0397 187.463C87.3851 186.366 89.1743 185.993 90.8467 186.46L119.395 194.409C122.235 195.197 123.893 198.136 123.104 200.973L105.156 265.244C104.366 268.081 106.025 271.02 108.865 271.808C111.705 272.597 113.364 275.536 112.574 278.372L109.127 290.721C108.337 293.557 105.394 295.213 102.554 294.425C99.7133 293.636 96.7703 295.292 95.9808 298.129L93.6543 306.461C92.8648 309.297 89.9218 310.953 87.0814 310.165L58.029 302.076C55.1887 301.287 53.5303 298.348 54.3198 295.512V295.502ZM53.4929 256.39L59.253 257.995C62.0933 258.783 65.0364 257.127 65.8259 254.291L68.0869 246.197C69.4837 241.196 63.6255 237.356 59.5893 240.626L51.5683 247.116C48.2001 249.84 49.3212 255.228 53.4929 256.39Z" fill="white"/>
<path opacity="0.3" d="M52.9367 280.607C55.777 281.395 57.4354 284.334 56.6459 287.171L54.3195 295.503C53.53 298.339 55.1884 301.278 58.0287 302.067L87.0811 310.156C89.9214 310.944 92.8645 309.288 93.654 306.452L95.9804 298.12C96.7699 295.283 99.713 293.627 102.553 294.416C105.394 295.204 108.337 293.548 109.126 290.712L112.574 278.363C113.363 275.527 111.705 272.588 108.865 271.799C106.024 271.011 104.366 268.072 105.155 265.235L123.103 200.964C123.893 198.127 122.235 195.188 119.394 194.4L118.843 194.246C104.758 219.251 88.0294 239.852 65.9376 253.871L65.8208 254.286C65.0313 257.123 62.0883 258.779 59.2479 257.99L59.0517 257.934C47.555 264.204 34.6662 268.795 20.0723 271.454L52.932 280.602L52.9367 280.607Z" fill="#000072"/>
<path d="M680.935 216.611C680.935 284.102 650.032 344.38 601.579 384.099H326.471C278.022 344.38 247.115 284.102 247.115 216.611C247.12 96.9787 344.232 0 464.03 0C583.827 0 680.939 96.9787 680.939 216.611H680.935Z" fill="#1FAB5E"/>
<g opacity="0.3">
<path d="M395.064 215.785L392.453 217.703L380.55 226.454L370.076 234.142C369.488 234.576 368.801 234.786 368.123 234.786C367.521 234.786 366.923 234.614 366.404 234.301C366.334 235.038 366.498 235.794 366.941 236.452C367.586 237.389 368.619 237.898 369.679 237.898C370.356 237.898 371.038 237.688 371.632 237.254L382.105 229.566L394.009 220.814L397.816 218.02C396.882 217.427 395.961 216.672 395.064 215.79V215.785Z" fill="#000072"/>
</g>
<g opacity="0.3">
<path d="M399.961 219.056L396.906 224.575L390.641 235.916L383.129 249.5C382.882 249.958 382.55 250.335 382.162 250.639C382.312 250.755 382.466 250.872 382.639 250.97C383.223 251.296 383.858 251.45 384.479 251.45C385.811 251.45 387.109 250.751 387.791 249.5L395.303 235.916L401.568 224.575L404.726 218.869C403.235 219.634 401.605 219.625 399.956 219.056H399.961Z" fill="#000072"/>
</g>
<path d="M247.741 398.071C239.388 398.071 232.596 391.288 232.596 382.947C232.596 374.605 239.388 367.813 247.741 367.813H457.05C457.344 352.917 458.508 338.53 460.516 324.964C457.653 322.165 454.499 317.602 451.299 310.32C449.375 305.953 446.086 300.766 441.797 295.317C437.929 290.409 433.225 286.341 427.825 283.229C412.012 274.132 407.588 261.495 406.401 254.04C402.598 252.43 399.52 250.606 397.063 248.801L394.601 253.256C392.597 256.923 388.71 259.218 384.482 259.218C382.515 259.218 380.563 258.709 378.843 257.748C374.242 255.183 372.07 249.981 373.219 245.078C372.088 245.461 370.897 245.656 369.683 245.656C366.025 245.656 362.605 243.856 360.536 240.842C357.322 236.093 358.251 229.716 362.591 226.105C361.811 224.397 361.218 222.517 360.83 220.502C358.746 209.66 364.908 202.765 370.327 199.458C372.822 194.088 377.031 190.552 380.077 188.555C382.959 180.265 390.691 175.437 401.477 175.437C403.607 175.437 405.901 175.619 408.33 175.983L426.605 140.635C428.852 136.297 433.276 133.609 438.163 133.609C440.26 133.609 442.353 134.127 444.217 135.107C445.301 135.681 446.273 136.385 447.118 137.197C468.463 84.7982 520.219 76.7275 550.033 76.7275C551.42 76.7275 552.784 76.7462 554.111 76.7742C575.455 77.264 596.043 82.8808 613.65 93.0088C641.044 108.768 657.712 132.191 663.229 162.664C666.775 163.802 671.175 166.205 675.791 171.108C683.938 179.762 690.843 194.181 696.318 213.971C703.152 238.668 710.692 240.585 712.841 240.585C715.686 240.585 718.568 238.3 719.484 237.376C720.97 235.734 723.02 234.861 725.151 234.861C725.954 234.861 726.767 234.987 727.566 235.239C730.486 236.168 732.532 238.789 732.873 241.831C733.022 243.17 734.111 255.197 726.038 264.55C721.441 269.878 715.041 273.069 706.983 274.067C708.45 275.434 709.973 276.502 711.542 277.258C714.056 278.471 715.719 280.939 715.91 283.719C716.097 286.5 714.78 289.168 712.458 290.712C711.173 291.566 699.555 299.035 687.003 299.035C678.407 299.035 671.241 295.527 666.275 288.893C661.365 282.334 659.128 272.406 657.777 261.037C653.825 268.805 647.397 275.467 638.577 280.957C648.822 291.921 661.907 316.025 662.328 367.817H680.327C688.68 367.817 695.472 374.601 695.472 382.942C695.472 391.283 688.68 398.075 680.327 398.075H247.755L247.741 398.071Z" fill="white"/>
<path d="M402.432 378.081C399.33 378.081 396.438 376.55 394.7 373.989C394.14 373.168 393.724 372.273 393.458 371.344C386.193 369.548 380.718 366.707 377.144 362.872C374.061 359.56 373.575 354.727 375.935 350.85C377.766 347.813 380.994 345.989 384.568 345.989H448.194C451.796 345.989 455.033 347.827 456.86 350.906C459.2 354.727 458.715 359.565 455.617 362.882C452.053 366.712 446.578 369.553 439.314 371.349C439.043 372.277 438.627 373.173 438.071 373.994C436.328 376.555 433.441 378.085 430.34 378.085H402.436L402.432 378.081Z" fill="white"/>
<path d="M680.314 375.58H247.747C243.675 375.58 240.375 378.876 240.375 382.942V382.946C240.375 387.012 243.675 390.308 247.747 390.308H680.314C684.386 390.308 687.686 387.012 687.686 382.946V382.942C687.686 378.876 684.386 375.58 680.314 375.58Z" fill="#FFB871"/>
<path d="M624.928 184.925C624.694 185.639 624.424 186.325 624.129 186.973C622.106 191.429 618.934 194.41 618.934 194.41C618.28 194.162 617.636 193.92 616.991 193.687C525.858 160.13 466.366 188.499 456.789 193.64V193.649C455.878 194.13 455.421 194.41 455.421 194.41L448.254 186.423C448.007 185.42 447.797 184.375 447.619 183.302V183.293C447.572 183.013 447.526 182.733 447.488 182.448C446.951 178.917 446.736 175.087 446.713 171.322C446.619 159.972 448.259 149.242 448.259 149.242C449.427 148.514 450.59 147.796 451.767 147.105C517.767 108.03 588.915 131.276 614.8 142.17C621.294 144.908 624.937 146.867 624.937 146.867C625.685 149.522 626.203 152.218 626.563 154.877C628.647 170.426 624.937 184.925 624.937 184.925H624.928Z" fill="#F9F9F9"/>
<path d="M404.725 218.869L401.567 224.575L395.302 235.916L387.79 249.501C387.108 250.751 385.81 251.451 384.478 251.451C383.857 251.451 383.217 251.297 382.638 250.97C380.858 249.976 380.19 247.765 381.115 245.955L388.127 232.268L394.003 220.81L397.811 218.016C400.165 219.508 402.585 219.966 404.72 218.869H404.725Z" fill="#FFB133"/>
<path d="M442.813 148.948L419.698 191.765L409.21 199.705C408.565 198.165 407.795 196.724 407.01 195.436L412.461 184.902L433.507 144.199C434.441 142.398 436.258 141.372 438.155 141.372C438.977 141.372 439.809 141.568 440.598 141.979C443.116 143.308 444.107 146.41 442.813 148.948Z" fill="#FFB133"/>
<path d="M397.816 218.016L394.008 220.81L382.105 229.562L371.632 237.25C371.043 237.684 370.356 237.894 369.679 237.894C368.623 237.894 367.586 237.39 366.941 236.448C365.97 235.011 366.283 233.061 367.647 231.997L373.463 227.477H373.472L381.339 221.361L392.448 212.726C394.079 214.97 395.933 216.817 397.811 218.011L397.816 218.016Z" fill="#FFB133"/>
<path d="M447.484 182.449L425.804 197.83L425.196 198.259L410.901 208.406H410.892C411.102 205.392 410.35 202.406 409.215 199.71L419.702 191.77L446.704 171.327H446.713C446.737 175.092 446.956 178.922 447.489 182.453L447.484 182.449Z" fill="#FFB133"/>
<path d="M616.991 193.692C616.911 194.359 613.351 226.096 606.353 245.96C524.653 274.165 460.783 241.062 460.783 241.062C454.509 219.247 456.733 194.205 456.789 193.655V193.645C466.366 188.504 525.858 160.136 616.991 193.692Z" fill="#FFCFAE"/>
<path d="M549.323 291.851C549.15 292.051 546.44 295.196 541.9 300.197C538.447 303.994 533.93 308.86 528.674 314.304C524.788 309.965 520.443 303.15 517.323 297.901C514.865 293.777 513.165 290.619 513.053 290.409C521.681 291.37 531.361 291.907 542.213 291.907C544.632 291.907 547.001 291.893 549.318 291.851H549.323Z" fill="#FFCFAE"/>
<path d="M423.766 218.87C416.38 233.878 401.996 224.846 401.576 224.575H401.566L401.576 224.566L404.724 218.865C405.215 218.618 405.687 218.282 406.149 217.862C409.345 214.928 410.681 211.653 410.891 208.397H410.9L420.58 201.525L425.2 198.25C425.2 198.25 431.273 203.638 423.77 218.861L423.766 218.87Z" fill="#FFCFAE"/>
<path d="M409.209 199.71C410.344 202.402 411.096 205.392 410.886 208.406C410.676 211.657 409.34 214.937 406.144 217.871C405.686 218.291 405.21 218.622 404.719 218.874C402.58 219.971 400.165 219.509 397.81 218.021C395.927 216.826 394.078 214.979 392.447 212.735C391.163 210.967 390.013 208.961 389.079 206.843C387.182 202.532 386.178 197.774 386.795 193.659C387.729 187.431 392.368 182.682 403.192 183.256C405.71 183.382 408.555 183.806 411.773 184.562L412.455 184.912L407.004 195.446C407.789 196.734 408.559 198.18 409.204 199.715L409.209 199.71Z" fill="#FFCFAE"/>
<path d="M392.447 212.73L381.338 221.365C380.053 220.362 378.811 218.655 377.661 216C377.512 215.651 377.372 215.31 377.25 214.969C375.797 211.102 375.779 207.804 376.535 205.023C378.61 197.415 386.519 193.78 386.799 193.659C386.187 197.774 387.187 202.532 389.083 206.843C390.018 208.961 391.167 210.967 392.451 212.735L392.447 212.73Z" fill="#FFCFAE"/>
<path d="M381.338 221.36L373.471 227.476H373.462C371.504 226.263 369.893 224.061 368.954 221.024C368.758 220.395 368.594 219.727 368.454 219.028C366.455 208.634 376.531 205.014 376.531 205.014C375.779 207.794 375.793 211.092 377.246 214.96C377.372 215.3 377.512 215.641 377.657 215.991C378.806 218.645 380.053 220.353 381.333 221.356L381.338 221.36Z" fill="#FFCFAE"/>
<path d="M413.773 248.479C405.476 245.876 400.594 242.074 397.96 239.34C396.558 237.89 395.792 236.737 395.47 236.219C395.353 236.023 395.297 235.916 395.297 235.916L395.741 235.118L401.487 224.725L401.566 224.575C401.566 224.575 401.575 224.585 401.599 224.589C402.323 225.046 415.291 232.968 422.794 220.647C422.794 220.647 422.797 220.643 422.803 220.633C423.139 220.092 423.457 219.5 423.765 218.87C429.745 206.74 427.101 200.858 425.788 198.964C425.587 198.674 425.414 198.483 425.312 198.376L425.195 198.259L425.802 197.83C432.207 199.621 435.141 205.742 435.141 205.742C435.141 205.742 442.76 226.689 413.778 248.484L413.773 248.479Z" fill="#FFCFAE"/>
<path d="M394.003 220.81L388.126 232.268C386.477 230.453 382.1 229.557 382.1 229.557L394.003 220.806V220.81Z" fill="#60607F"/>
<path d="M651.55 227.505V227.514C651.769 227.948 667.526 261.117 624.151 279.689H624.142C623.147 280.118 622.128 280.529 621.072 280.93C608.912 285.642 592.525 289.262 570.531 290.913C563.977 291.413 556.918 291.73 549.322 291.851C547.005 291.888 544.632 291.907 542.217 291.907C531.365 291.907 521.685 291.371 513.057 290.41C513.047 290.41 513.047 290.4 513.047 290.4C507.203 289.747 501.831 288.893 496.916 287.862C490.152 286.449 484.238 284.718 479.057 282.74C458.479 274.889 449.631 263.207 446.146 252.617C441.769 239.289 445.922 227.687 445.922 227.687C445.31 221.202 445.137 215.054 445.216 209.512C445.436 194.378 447.524 183.788 447.617 183.308C447.795 184.381 448.005 185.426 448.253 186.429L455.419 194.415C455.419 194.415 455.877 194.135 456.788 193.655C456.732 194.205 454.508 219.243 460.782 241.062C460.782 241.062 462.529 241.972 465.827 243.362C481.967 250.154 535.12 268.446 600.723 247.812C602.587 247.229 604.46 246.618 606.352 245.965C613.35 226.105 616.91 194.369 616.989 193.697C617.634 193.93 618.279 194.173 618.933 194.42C618.933 194.42 622.105 191.439 624.128 186.984C624.128 186.984 644.145 194.079 656.656 200.405C656.562 201.329 656.459 202.243 656.352 203.144C655.207 212.544 653.353 220.913 651.55 227.505Z" fill="#60607F"/>
<path d="M656.071 167.031C645.77 161.992 631.373 156.637 626.552 154.883C626.192 152.219 625.673 149.527 624.926 146.873C624.926 146.873 534.307 98.2341 451.756 147.115C469.83 91.6796 521.904 83.7956 553.918 84.5373C573.501 84.9898 592.781 89.9722 609.753 99.741C639.973 117.123 652.301 142.488 656.066 167.035L656.071 167.031Z" fill="#60607F"/>
<path d="M656.655 200.4C644.145 194.075 624.127 186.979 624.127 186.979C624.421 186.326 624.692 185.645 624.926 184.931C624.926 184.931 628.635 170.436 626.551 154.883C631.373 156.637 645.77 161.992 656.071 167.031C656.202 167.871 656.319 168.706 656.431 169.545C656.515 170.198 656.594 170.852 656.674 171.5C657.809 181.567 657.585 191.406 656.66 200.396L656.655 200.4Z" fill="#60607F"/>
<path d="M570.532 290.908C570.359 291.118 567.58 294.51 562.852 299.935C548.973 315.843 518.304 349.236 487.322 371.2C485.183 372.721 483.048 374.181 480.908 375.58H464.754C464.754 373.374 464.768 371.209 464.81 369.082C465.011 368.956 465.216 368.834 465.417 368.709C483.151 357.829 502.72 340.223 518.5 324.609C522.116 321.031 525.526 317.56 528.675 314.299C533.93 308.855 538.448 303.989 541.9 300.192C546.441 295.191 549.155 292.046 549.323 291.846C556.919 291.72 563.978 291.403 570.532 290.908Z" fill="#60607F"/>
<path d="M518.495 324.614C502.714 340.229 483.145 357.835 465.412 368.714C465.211 368.84 465.006 368.961 464.805 369.087C464.805 368.933 464.814 368.774 464.814 368.63C465.155 349.857 466.851 334.075 468.958 321.358C472.583 299.488 477.432 286.71 478.731 283.533C478.941 283.011 479.058 282.75 479.058 282.75V282.74C484.234 284.718 490.153 286.449 496.917 287.863C496.917 287.863 497.968 290.176 499.739 293.764C503.625 301.653 511.011 315.648 518.5 324.619L518.495 324.614Z" fill="#60607F"/>
<path d="M654.513 375.581H480.908C483.048 374.181 485.183 372.726 487.322 371.2C518.304 349.237 548.973 315.844 562.852 299.936C567.58 294.51 570.364 291.114 570.532 290.909C594.432 289.108 611.712 284.993 624.143 279.685H624.152C625.091 280.034 655.835 292.038 654.513 375.581Z" fill="#60607F"/>
<path d="M528.673 314.299C525.525 317.56 522.11 321.031 518.499 324.609C511.01 315.643 503.624 301.643 499.738 293.754C497.967 290.166 496.916 287.853 496.916 287.853C501.83 288.884 507.203 289.737 513.047 290.39C513.047 290.39 513.047 290.4 513.056 290.4C513.164 290.61 514.869 293.768 517.326 297.892C520.442 303.14 524.791 309.956 528.678 314.294L528.673 314.299Z" fill="#60607F"/>
<path d="M479.057 282.735V282.745C479.057 282.745 473.18 295.882 468.957 321.353C468.957 321.353 464.417 320.85 458.423 307.209C455.816 301.303 451.719 295.359 447.912 290.526C443.455 284.872 437.952 280.109 431.711 276.512C412.408 265.409 413.777 248.484 413.777 248.484C417.837 245.433 421.172 242.396 423.914 239.438C440.779 221.24 435.14 205.742 435.14 205.742C441.007 206.092 445.217 209.507 445.217 209.507C445.137 215.049 445.31 221.198 445.922 227.682C445.922 227.682 440.666 242.377 448.23 257.707C452.724 266.804 461.735 276.13 479.057 282.735Z" fill="#60607F"/>
<path d="M708.145 284.247C708.145 284.247 684.325 300.052 672.492 284.247C660.668 268.442 667.017 218.114 656.352 203.139C656.459 202.239 656.562 201.324 656.655 200.401C657.076 196.295 657.356 192.008 657.426 187.614C657.505 182.379 657.286 176.977 656.674 171.505C656.674 171.505 673.165 187.096 677.159 210.053C679.21 221.837 681.886 238.454 686.791 253.182V253.191C691.44 267.145 698.101 279.395 708.15 284.256L708.145 284.247Z" fill="#60607F"/>
<path d="M702.815 266.618C702.815 266.618 691.931 262.783 686.792 253.187V253.177C681.887 238.45 679.21 221.837 677.159 210.048C673.165 187.091 656.675 171.5 656.675 171.5C656.595 170.847 656.52 170.194 656.432 169.546C656.432 169.546 674.828 165.464 688.82 216.034C702.816 266.613 725.141 242.695 725.141 242.695C725.141 242.695 727.724 265.699 702.811 266.613L702.815 266.618Z" fill="#60607F"/>
<path d="M452.173 353.673C451.93 353.883 446.707 358.128 416.379 358.128C386.052 358.128 380.586 353.664 380.586 353.664C381.371 352.358 382.786 351.42 384.566 351.42H448.193C449.982 351.42 451.397 352.358 452.173 353.673Z" fill="#A54434"/>
<path d="M451.636 359.168C448.861 362.149 443.62 365.247 433.809 366.94C429.119 367.738 423.392 368.228 416.38 368.228C409.368 368.228 403.645 367.738 398.955 366.94C389.145 365.247 383.903 362.149 381.128 359.168C379.596 357.521 379.587 355.301 380.586 353.663C380.586 353.663 385.281 358.128 416.38 358.128C447.478 358.128 451.93 353.882 452.173 353.672C453.178 355.31 453.168 357.53 451.636 359.168Z" fill="#009EFF"/>
<path d="M430.333 372.646H402.43C399.678 372.646 397.786 369.875 398.805 367.318L398.954 366.936C403.645 367.733 409.372 368.223 416.379 368.223C423.387 368.223 429.123 367.733 433.809 366.936L433.958 367.318C434.977 369.875 433.089 372.646 430.333 372.646Z" fill="#009EFF"/>
<g opacity="0.3">
<path d="M465.832 243.357L464.805 251.726L460.787 241.057C460.787 241.057 462.534 241.966 465.832 243.357Z" fill="#000072"/>
</g>
<g opacity="0.3">
<path d="M606.358 245.955L601.943 255.799L600.729 247.802C602.592 247.219 604.466 246.608 606.358 245.955Z" fill="#000072"/>
</g>
<g opacity="0.3">
<path d="M448.193 351.42H441.966C441.125 352.036 434.828 355.8 406.271 355.8C395.204 355.8 387.491 355.236 382.133 354.504C385.221 355.796 393.9 358.128 416.375 358.128C446.703 358.128 451.926 353.883 452.169 353.673C451.393 352.362 449.978 351.42 448.189 351.42H448.193Z" fill="#000072"/>
</g>
<g opacity="0.3">
<path d="M594.993 98.9568C622.686 114.888 635.35 137.519 640.171 160.089C645.427 162.197 651.21 164.651 656.078 167.03C652.317 142.482 639.984 117.118 609.764 99.7359C592.792 89.9671 573.513 84.9847 553.93 84.5322C552.692 84.5042 551.421 84.4902 550.127 84.4902C565.889 86.2443 581.207 91.0214 594.997 98.9568H594.993Z" fill="#000072"/>
</g>
<g opacity="0.3">
<path d="M624.928 184.926C624.694 185.64 624.423 186.325 624.129 186.974C622.106 191.429 618.934 194.41 618.934 194.41C618.28 194.163 617.635 193.92 616.991 193.687C525.858 160.131 466.366 188.499 456.789 193.64V193.65C455.878 194.13 455.42 194.41 455.42 194.41L448.254 186.423C448.254 186.423 473.583 164.46 561.207 169.955C607.853 172.876 616.71 157.341 614.79 142.17C621.284 144.908 624.928 146.868 624.928 146.868C625.675 149.522 626.194 152.219 626.553 154.878C628.637 170.427 624.928 184.926 624.928 184.926Z" fill="#000072"/>
</g>
<g opacity="0.3">
<path d="M656.354 203.138C656.461 202.238 656.564 201.323 656.657 200.4C651.411 197.745 644.852 194.96 638.994 192.618L636.532 209.333C636.032 212.72 636.196 216.177 637.093 219.485C639.555 228.558 641.339 250.671 607.326 265.236H607.316C594.885 270.544 577.601 274.659 553.706 276.46C547.151 276.959 540.093 277.276 532.497 277.398C530.18 277.435 527.807 277.453 525.391 277.453C514.539 277.453 504.86 276.917 496.231 275.956C496.222 275.956 496.222 275.947 496.222 275.947C496.208 275.947 496.189 275.947 496.175 275.942C492.845 275.569 489.537 274.948 486.29 274.118C464.409 268.492 452.562 260.099 446.152 252.612C447.316 256.143 449.077 259.796 451.665 263.388C451.683 263.411 451.702 263.435 451.716 263.458C452.328 264.307 452.992 265.147 453.697 265.987C453.758 266.057 453.818 266.131 453.879 266.201C454.178 266.551 454.491 266.901 454.809 267.251C454.879 267.326 454.949 267.405 455.019 267.479C455.776 268.296 456.589 269.108 457.448 269.91C457.537 269.994 457.63 270.078 457.724 270.162C458.074 270.484 458.434 270.806 458.803 271.123C458.906 271.212 459.004 271.296 459.107 271.384C460.022 272.163 460.994 272.933 462.022 273.689C462.148 273.782 462.274 273.871 462.4 273.964C462.806 274.258 463.218 274.547 463.638 274.836C463.773 274.93 463.909 275.023 464.049 275.116C465.138 275.849 466.282 276.567 467.487 277.267C467.651 277.365 467.819 277.458 467.987 277.551C468.445 277.813 468.917 278.074 469.393 278.331C469.571 278.429 469.748 278.522 469.926 278.62C471.201 279.296 472.533 279.949 473.929 280.588C474.135 280.682 474.341 280.775 474.551 280.868C475.074 281.102 475.607 281.335 476.148 281.563C476.363 281.657 476.578 281.745 476.798 281.839C477.536 282.142 478.288 282.445 479.063 282.739C484.24 284.717 490.158 286.448 496.923 287.861C501.837 288.892 507.21 289.746 513.054 290.399C513.054 290.399 513.054 290.409 513.063 290.409C521.691 291.37 531.371 291.906 542.223 291.906C544.643 291.906 547.011 291.892 549.328 291.85C556.924 291.724 563.983 291.407 570.537 290.912C571.995 290.805 573.42 290.684 574.83 290.558C575.12 290.53 575.4 290.502 575.69 290.474C576.797 290.371 577.895 290.264 578.974 290.152C579.329 290.115 579.67 290.073 580.02 290.035C581.02 289.928 582.011 289.816 582.982 289.699C583.347 289.657 583.706 289.606 584.066 289.564C585.005 289.448 585.935 289.326 586.85 289.2C587.215 289.149 587.574 289.098 587.939 289.046C588.831 288.92 589.709 288.79 590.578 288.654C590.943 288.598 591.302 288.543 591.657 288.482C592.503 288.347 593.339 288.207 594.166 288.062C594.526 288.001 594.881 287.936 595.236 287.875C596.044 287.731 596.838 287.581 597.623 287.432C597.973 287.367 598.324 287.297 598.665 287.232C599.44 287.078 600.202 286.919 600.954 286.76C601.29 286.69 601.631 286.616 601.967 286.546C602.706 286.383 603.434 286.219 604.154 286.051C604.481 285.977 604.817 285.897 605.139 285.823C605.845 285.655 606.532 285.478 607.218 285.305C607.541 285.221 607.868 285.142 608.185 285.058C608.849 284.885 609.498 284.703 610.143 284.526C610.46 284.437 610.792 284.353 611.105 284.26C611.666 284.101 612.208 283.933 612.749 283.77C613.815 283.448 614.856 283.122 615.875 282.79C616.029 282.739 616.188 282.692 616.342 282.641C617.043 282.408 617.725 282.165 618.402 281.927C618.533 281.881 618.668 281.834 618.799 281.787C619.504 281.535 620.191 281.274 620.869 281.013C620.934 280.985 621.004 280.962 621.074 280.938C622.125 280.532 623.158 280.117 624.148 279.697H624.157C667.533 261.126 651.771 227.961 651.556 227.523V227.513C653.359 220.921 655.219 212.552 656.358 203.152L656.354 203.138Z" fill="#000072"/>
</g>
<g opacity="0.3">
<path d="M656.671 171.504C656.592 170.851 656.517 170.198 656.428 169.549C656.321 168.71 656.204 167.875 656.068 167.035C647.249 162.72 635.425 158.171 629.184 155.853C631.772 156.977 634.308 158.134 636.635 159.267C636.766 160.107 636.882 160.942 636.994 161.782C637.079 162.435 637.158 163.088 637.237 163.737C638.345 173.547 638.153 183.134 637.284 191.933C643.544 194.405 650.892 197.479 656.657 200.395C657.582 191.405 657.806 181.567 656.671 171.499V171.504Z" fill="#000072"/>
</g>
<g opacity="0.3">
<path d="M613.698 192.506C524.429 160.825 466.254 188.569 456.789 193.645V193.654C456.775 193.78 456.649 195.231 456.537 197.633C471.154 190.584 523.041 170.435 599.935 194.386C605.877 196.238 609.545 202.191 608.48 208.316C608.167 210.103 607.835 211.95 607.475 213.826C604.28 230.564 591.284 243.692 574.569 247.121C517.833 258.76 473.467 242.918 459.732 237.04C460.055 238.388 460.405 239.727 460.784 241.056C460.784 241.056 524.653 274.16 606.354 245.955C613.352 226.095 616.912 194.358 616.991 193.686C615.889 193.281 614.791 192.889 613.698 192.502V192.506Z" fill="#000072"/>
</g>
<g opacity="0.3">
<path d="M624.153 279.684H624.144C611.713 284.993 594.428 289.108 570.533 290.909C569.687 290.974 568.837 291.035 567.977 291.091C567.889 291.095 567.795 291.1 567.706 291.109C566.922 291.161 566.132 291.212 565.333 291.259C565.324 291.259 565.31 291.259 565.301 291.259C563.539 291.361 561.746 291.454 559.914 291.534C556.504 291.683 552.982 291.786 549.329 291.846C547.011 291.884 544.638 291.902 542.223 291.902C531.371 291.902 521.692 291.366 513.063 290.405C513.054 290.405 513.054 290.395 513.054 290.395C510.405 290.102 507.859 289.761 505.407 289.383C504.673 289.271 503.944 289.155 503.225 289.033C503.216 289.033 503.206 289.033 503.197 289.033C502.515 288.921 501.842 288.805 501.174 288.683C501.123 288.674 501.071 288.665 501.015 288.655C500.408 288.548 499.815 288.431 499.221 288.32C499.119 288.301 499.011 288.282 498.908 288.259C498.236 288.128 497.572 287.993 496.914 287.858C490.149 286.444 484.235 284.713 479.054 282.735V282.745C479.054 282.745 478.938 283.011 478.727 283.528C481.675 285.842 488.197 290.111 499.735 293.759C503.622 301.648 511.008 315.643 518.496 324.614C520.001 323.126 521.458 321.661 522.888 320.22C518.337 313.908 514.026 306.336 510.742 300.099C509.929 298.559 511.269 296.773 512.979 297.109C514.376 297.384 515.824 297.65 517.324 297.897C524.392 299.068 532.539 299.908 541.901 300.197C543.835 300.258 545.82 300.295 547.857 300.304C549.637 300.314 550.576 302.413 549.399 303.742C536.416 318.372 513.507 342.78 489.056 362.266C482.432 367.543 473.944 369.894 465.549 368.728L465.413 368.709C465.217 368.676 465.016 368.648 464.815 368.625C464.815 368.774 464.806 368.928 464.806 369.082C464.769 371.209 464.75 373.374 464.75 375.581H592.195C592.195 375.581 584.15 343.018 594.035 315.76C593.75 316.1 585.79 325.678 583.534 346.074C582.599 354.527 577.054 361.753 569.085 364.753C555.537 369.852 530.484 374.988 487.314 371.2C516.735 350.342 545.876 319.179 560.62 302.469C562.04 300.859 564.03 299.88 566.174 299.744C577.213 299.054 589.495 297.678 603.126 295.41C614.576 293.507 625.671 300.356 629.035 311.445C635.407 332.428 640.774 364.282 619.734 375.576H654.499C655.821 292.028 625.083 280.025 624.139 279.68L624.153 279.684Z" fill="#000072"/>
</g>
<g opacity="0.3">
<path d="M479.059 282.735V282.744C479.059 282.744 473.182 295.881 468.959 321.352C468.959 321.352 464.419 320.849 458.425 307.208C455.818 301.302 451.721 295.358 447.914 290.525C443.457 284.871 437.954 280.108 431.713 276.511C412.41 265.408 413.779 248.483 413.779 248.483C417.839 245.432 421.174 242.395 423.916 239.438C426.107 244.956 429.83 250.937 436.044 253.638C439.323 255.066 443.537 256.325 448.232 257.706C452.726 266.803 461.737 276.129 479.059 282.735Z" fill="#000072"/>
</g>
<g opacity="0.3">
<path d="M420.579 201.533C418.836 210.929 412.586 220.805 401.58 224.57L404.728 218.869C402.589 219.965 400.174 219.503 397.819 218.015C395.936 216.821 394.087 214.974 392.456 212.73L381.347 221.365L373.48 227.481H373.471C371.514 226.268 369.902 224.066 368.963 221.029C371.28 220.464 375.017 218.958 377.26 214.964C377.26 214.964 384.145 213.877 388.658 206.516C388.658 206.516 388.812 206.632 389.093 206.833C391.186 208.349 400.216 214.535 403.411 211.125C406.475 207.855 395.871 189.516 403.201 183.246C405.719 183.372 408.564 183.797 411.782 184.552L412.464 184.902L407.013 195.436C407.798 196.724 408.568 198.17 409.213 199.705C410.348 202.396 411.1 205.387 410.89 208.4H410.899L420.579 201.529V201.533Z" fill="#000072"/>
</g>
<g opacity="0.3">
<path d="M422.794 220.646C418.421 233.816 410.382 233.672 406.252 232.58C404.593 232.141 402.828 232.72 401.814 234.101L397.965 239.344C396.563 237.893 395.797 236.741 395.475 236.223L395.746 235.122L401.492 224.728L401.599 224.598C402.323 225.055 415.291 232.976 422.794 220.656V220.646Z" fill="#000072"/>
</g>
<g opacity="0.3">
<path d="M446.707 171.322H446.698L445.31 172.372C445.432 174.485 445.623 176.575 445.927 178.567L424.246 193.948L423.639 194.377L410.498 203.703C410.839 205.238 410.998 206.819 410.89 208.405H410.9L425.195 198.259L425.802 197.83L447.483 182.449C446.946 178.917 446.731 175.087 446.707 171.322Z" fill="#000072"/>
</g>
<g opacity="0.3">
<path d="M440.598 141.979C439.813 141.568 438.982 141.372 438.155 141.372C437.188 141.372 436.244 141.643 435.427 142.137C437.739 143.541 438.613 146.504 437.37 148.948L414.255 191.765L407.738 196.7C408.261 197.647 408.766 198.655 409.21 199.709L419.697 191.769L442.812 148.953C444.102 146.415 443.116 143.308 440.598 141.983V141.979Z" fill="#000072"/>
</g>
<g opacity="0.3">
<path d="M680.315 375.58H671.261C671.322 375.953 671.359 376.336 671.359 376.727V376.737C671.359 380.795 668.056 384.098 663.987 384.098H240.469C241.025 387.611 244.066 390.308 247.738 390.308H680.31C684.374 390.308 687.682 387.009 687.682 382.946V382.937C687.682 378.878 684.379 375.575 680.31 375.575L680.315 375.58Z" fill="#000072"/>
</g>
<g opacity="0.3">
<path d="M452.174 353.673C452.053 353.78 450.67 354.9 445.485 355.996C442.556 358.749 437.403 361.501 428.368 363.059C423.678 363.857 417.951 364.347 410.939 364.347C403.927 364.347 398.204 363.857 393.514 363.059C388.202 362.145 384.236 360.811 381.27 359.313C384.077 362.252 389.3 365.275 398.956 366.94C403.646 367.738 409.374 368.228 416.381 368.228C423.388 368.228 429.125 367.738 433.811 366.94C443.621 365.247 448.862 362.149 451.637 359.168C453.169 357.531 453.179 355.31 452.174 353.673Z" fill="#000072"/>
</g>
<g opacity="0.3">
<path d="M433.959 367.318L433.81 366.936C430.376 367.519 426.382 367.939 421.738 368.121C422.126 370.42 420.36 372.641 417.898 372.641H430.339C433.09 372.641 434.982 369.87 433.964 367.313L433.959 367.318Z" fill="#000072"/>
</g>
<g opacity="0.3">
<path d="M708.147 284.247C708.147 284.247 684.327 300.052 672.494 284.247C660.67 268.441 667.019 218.114 656.354 203.139C656.461 202.238 656.564 201.324 656.657 200.4C657.078 196.295 657.358 192.008 657.428 187.613C661.885 193.183 668.294 205.672 672.171 233.22C672.905 238.426 673.409 243.66 673.811 248.904C674.573 258.831 679.263 290.148 708.152 284.251L708.147 284.247Z" fill="#000072"/>
</g>
<g opacity="0.3">
<path d="M724.367 243.441C723.334 247.392 721.111 251.894 716.397 255.015C709.474 259.596 700.345 258.85 693.857 253.681C691.278 251.624 688.657 248.904 686.798 245.424V245.414C681.893 230.686 679.216 214.074 677.165 202.285C674.787 188.621 667.981 177.569 662.861 170.856C658.965 168.985 656.438 169.545 656.438 169.545C656.522 170.198 656.601 170.852 656.68 171.5C656.68 171.5 673.171 187.091 677.165 210.048C679.216 221.832 681.893 238.449 686.798 253.177V253.186C691.937 262.782 702.821 266.617 702.821 266.617C727.73 265.703 725.151 242.699 725.151 242.699C725.151 242.699 724.876 242.993 724.371 243.446L724.367 243.441Z" fill="#000072"/>
</g>
<g opacity="0.3">
<path d="M464.03 404C593.449 404 698.365 400.111 698.365 395.313C698.365 390.516 593.449 386.627 464.03 386.627C334.611 386.627 229.695 390.516 229.695 395.313C229.695 400.111 334.611 404 464.03 404Z" fill="#000072"/>
</g>
<g opacity="0.6">
<path d="M599.668 375.581H592.199C592.199 375.581 583.64 344.278 594.039 315.76C594.039 315.76 593.792 352.787 599.668 375.581Z" fill="white"/>
</g>
<g opacity="0.6">
<path d="M609.764 99.7356C592.793 89.9668 573.513 84.9845 553.93 84.532C521.916 83.7855 469.842 91.6743 451.768 147.11C455.056 145.165 458.359 143.387 461.667 141.74C467.628 128.697 475.723 118.821 484.945 111.375C488.341 112.803 496.881 111.198 506.079 107.148C516.385 102.614 523.873 96.6193 523.658 93.2511C536.552 90.2747 549.188 89.5843 559.681 89.8315C579.264 90.2841 598.543 95.2664 615.515 105.035C621.261 108.338 626.353 111.935 630.87 115.756C625.064 109.934 618.098 104.536 609.769 99.7449L609.764 99.7356Z" fill="white"/>
</g>
<g opacity="0.6">
<path d="M624.928 146.867C624.928 146.867 621.279 144.913 614.79 142.17C588.91 131.276 517.757 108.03 451.758 147.105C450.585 147.796 449.417 148.509 448.249 149.242C448.249 149.242 446.61 159.972 446.703 171.322C446.726 175.087 446.946 178.917 447.479 182.448C447.516 182.737 447.563 183.013 447.609 183.293V183.302C447.787 184.375 447.997 185.42 448.245 186.423L455.411 194.41C455.411 194.41 455.808 194.172 456.555 193.771L449.469 185.513C449.221 184.51 449.646 186.586 449.469 185.513C449.469 185.504 452.533 186.171 452.533 186.171C452.486 185.891 452.571 186.46 452.533 186.171C451.996 182.64 451.781 178.809 451.758 175.045C451.697 167.538 452.393 160.303 452.87 156.263C453.117 154.173 454.322 152.312 456.13 151.234C456.359 151.099 456.583 150.963 456.812 150.828C458.63 149.75 460.456 148.729 462.283 147.744C464.516 148.71 470.005 147.94 475.984 145.664C483.211 142.911 488.429 138.993 487.743 136.856C543.815 118.676 597.982 136.688 619.845 145.892C621.985 146.797 623.807 147.609 625.297 148.3C625.175 147.819 625.058 147.343 624.923 146.863L624.928 146.867Z" fill="white"/>
</g>
<g opacity="0.6">
<path d="M518.495 290.405L518.486 290.395C512.642 289.742 507.269 288.889 502.355 287.858C495.59 286.444 489.676 284.713 484.496 282.735C463.917 274.884 455.069 263.202 451.584 252.613C448.011 241.733 450.122 232.007 451.014 228.797C451.234 228.004 451.309 227.178 451.239 226.362C450.72 220.367 450.58 214.676 450.65 209.507C450.762 201.735 451.37 195.166 451.944 190.543L448.249 186.424C448.001 185.421 447.791 184.376 447.614 183.303C447.52 183.783 445.427 194.373 445.212 209.507C445.133 215.049 445.306 221.198 445.918 227.682C445.918 227.682 441.765 239.28 446.142 252.613C449.627 263.202 458.47 274.889 479.053 282.735C484.229 284.713 490.148 286.444 496.913 287.858C501.827 288.889 507.199 289.742 513.043 290.395C513.043 290.395 513.043 290.405 513.053 290.405C521.681 291.366 531.361 291.902 542.213 291.902C543.381 291.902 544.539 291.902 545.688 291.888C535.635 291.828 526.596 291.305 518.495 290.4V290.405Z" fill="white"/>
</g>
<g opacity="0.6">
<path d="M475.176 321.353C478.469 301.471 482.776 289.103 484.509 284.634C482.608 284.032 480.786 283.398 479.058 282.735V282.745C479.058 282.745 478.941 283.011 478.731 283.528C477.432 286.705 472.583 299.483 468.958 321.353C466.851 334.07 465.155 349.853 464.814 368.625C464.814 368.774 464.805 368.928 464.805 369.082C465.006 368.956 465.211 368.835 465.412 368.709C467.295 367.557 469.201 366.311 471.116 365.014C471.597 347.819 473.204 333.245 475.176 321.349V321.353Z" fill="white"/>
</g>
<g opacity="0.6">
<path d="M421.821 367.453C414.819 367.453 409.087 366.964 404.397 366.166C394.586 364.472 389.345 361.375 386.57 358.394C385.78 357.545 385.402 356.542 385.351 355.548C381.529 354.559 380.581 353.668 380.581 353.668C379.586 355.305 379.595 357.526 381.123 359.173C383.898 362.154 389.139 365.251 398.95 366.945C403.64 367.743 409.367 368.233 416.374 368.233C423.382 368.233 429.118 367.743 433.804 366.945C434.019 366.908 434.22 366.866 434.43 366.828C430.767 367.225 426.596 367.458 421.812 367.458L421.821 367.453Z" fill="white"/>
</g>
<g opacity="0.6">
<path d="M465.455 161.712C467.174 159.869 469.155 158.512 471.215 157.331C473.284 156.17 475.461 155.228 477.713 154.495C479.96 153.749 482.3 153.259 484.678 153.002C487.061 152.769 489.513 152.802 491.956 153.389C492.069 153.417 492.139 153.529 492.111 153.641C492.097 153.697 492.064 153.739 492.022 153.767C489.901 155.12 487.808 156.072 485.711 157C483.613 157.919 481.501 158.703 479.357 159.435C477.213 160.163 475.036 160.798 472.803 161.334C470.561 161.852 468.272 162.295 465.8 162.416H465.791C465.557 162.43 465.361 162.249 465.352 162.02C465.347 161.903 465.389 161.791 465.464 161.712H465.455Z" fill="white"/>
</g>
<g opacity="0.6">
<path d="M590.2 155.321C587.869 153.581 585.341 152.447 582.758 151.528C580.165 150.633 577.503 150.012 574.793 149.644C572.088 149.256 569.332 149.182 566.576 149.382C563.82 149.606 561.045 150.147 558.391 151.318C558.27 151.374 558.214 151.514 558.27 151.636C558.298 151.696 558.345 151.738 558.401 151.762H558.405C561.091 152.863 563.661 153.511 566.24 154.136C568.809 154.747 571.369 155.204 573.952 155.596C576.536 155.979 579.138 156.254 581.786 156.403C584.44 156.534 587.131 156.567 589.962 156.193H589.976C590.242 156.156 590.429 155.914 590.396 155.648C590.377 155.512 590.307 155.396 590.205 155.321H590.2Z" fill="white"/>
</g>
<path d="M680.313 392.636H247.746C242.397 392.636 238.043 388.288 238.043 382.946C238.043 377.605 242.397 373.257 247.746 373.257H680.313C685.662 373.257 690.016 377.605 690.016 382.946C690.016 388.288 685.662 392.636 680.313 392.636ZM247.746 377.913C244.966 377.913 242.705 380.171 242.705 382.946C242.705 385.722 244.966 387.98 247.746 387.98H680.313C683.093 387.98 685.354 385.722 685.354 382.946C685.354 380.171 683.093 377.913 680.313 377.913H247.746Z" fill="#000072"/>
<path d="M618.934 196.738C618.658 196.738 618.378 196.692 618.111 196.589C566.617 177.224 525.456 178.204 499.996 182.44C472.41 187.025 456.784 196.309 456.63 196.402C455.672 196.981 454.434 196.799 453.687 195.964L446.525 187.977C446.268 187.693 446.086 187.347 445.997 186.974C442.428 172.386 445.81 149.84 445.96 148.888C446.063 148.221 446.45 147.628 447.025 147.269C490.769 119.801 537.125 120.603 568.308 126.108C602.023 132.061 625.081 144.298 626.044 144.815C626.604 145.114 627.015 145.632 627.184 146.238C632.374 164.801 627.413 184.66 627.198 185.495C627.184 185.547 627.17 185.598 627.156 185.645C625.161 191.714 620.728 195.922 620.541 196.099C620.102 196.514 619.527 196.734 618.943 196.734L618.934 196.738ZM531.468 175.265C555.027 175.265 584.467 179.165 618.298 191.686C619.513 190.291 621.578 187.595 622.69 184.278C623.003 182.995 627.216 165.011 622.947 148.468C618.406 146.182 596.748 135.84 567.336 130.671C537.219 125.371 492.582 124.583 450.412 150.642C449.805 155.167 447.656 173.315 450.389 185.313L455.91 191.467C460.722 188.896 475.522 181.819 498.963 177.891C507.961 176.384 518.874 175.265 531.468 175.265Z" fill="#000072"/>
<path d="M542.218 294.23C494.666 294.23 463.474 284.191 449.502 264.387C437.907 247.952 442.532 230.663 443.555 227.416C441.312 202.962 445.167 183.639 445.335 182.822L449.908 183.751C449.866 183.947 445.979 203.507 448.25 227.468C448.282 227.808 448.24 228.149 448.124 228.471C448.063 228.638 442.144 245.932 453.365 261.766C466.254 279.955 496.979 289.57 542.223 289.57C613.151 289.57 638.522 272.939 647.314 258.99C656.727 244.052 649.757 229.138 649.454 228.508L653.653 226.479C654.004 227.197 662.062 244.248 651.304 261.397C637.639 283.178 600.94 294.225 542.223 294.225L542.218 294.23Z" fill="#000072"/>
<path d="M646.547 242.699C646.981 238.957 647.635 235.393 648.354 231.843C649.06 228.297 649.896 224.803 650.714 221.304C652.349 214.307 653.54 207.211 654.245 200.078C655.637 185.831 655.091 171.336 651.498 157.588C647.985 143.849 641.296 130.974 631.738 120.542C622.217 110.083 610.066 102.082 597.051 96.4143C583.98 90.7835 569.807 87.7372 555.54 87.1867C541.222 86.6595 526.754 87.9471 513.01 91.7772C506.162 93.7365 499.463 96.2323 493.207 99.6006C486.919 102.894 481.117 107.06 475.918 111.87C470.723 116.689 466.267 122.287 462.529 128.328C458.773 134.365 455.77 140.892 453.476 147.675C453.153 148.626 452.121 149.135 451.173 148.813C450.234 148.496 449.725 147.488 450.019 146.55C452.238 139.487 455.2 132.62 459.007 126.206C462.838 119.815 467.458 113.843 472.877 108.674C483.687 98.2523 497.351 91.096 511.641 86.9814C526.002 82.9134 540.927 81.5372 555.727 82.0084C570.592 82.5169 585.424 85.6285 599.168 91.4739C606.054 94.3663 612.617 98.0051 618.774 102.236C621.853 104.359 624.805 106.668 627.655 109.094C630.467 111.571 633.163 114.184 635.699 116.95C645.809 128.063 652.961 141.811 656.525 156.31C658.356 163.555 659.379 170.968 659.744 178.381C660.113 185.798 659.847 193.225 659.062 200.573C658.272 207.925 656.992 215.212 655.254 222.382C654.395 225.97 653.33 229.51 651.91 232.93C651.209 234.642 650.429 236.321 649.55 237.964C648.663 239.596 647.714 241.21 646.542 242.703L646.547 242.699Z" fill="#000072"/>
<path d="M655.6 202.476C643.37 196.295 623.544 189.241 623.348 189.171L624.908 184.781C625.73 185.075 645.206 192.003 657.707 198.319L655.6 202.476Z" fill="#000072"/>
<path d="M655.05 169.125C644.75 164.082 630.025 158.624 625.76 157.07L627.357 152.694C632.898 154.71 646.885 159.939 657.106 164.94L655.05 169.125Z" fill="#000072"/>
<path d="M447.166 184.819C448.801 183.764 450.356 182.962 451.987 182.141C453.598 181.32 455.247 180.601 456.901 179.911C458.56 179.225 460.227 178.563 461.914 177.97C463.596 177.354 465.31 176.841 467.01 176.3C468.73 175.81 470.435 175.292 472.168 174.868C473.887 174.397 475.629 174.028 477.372 173.669C480.857 172.96 484.393 172.493 487.93 172.2C488 172.195 488.061 172.246 488.07 172.316C488.075 172.377 488.037 172.428 487.981 172.447C486.29 172.993 484.594 173.478 482.903 173.972L480.38 174.761C479.535 175.003 478.699 175.26 477.867 175.544C474.518 176.589 471.201 177.718 467.935 178.955C466.314 179.603 464.689 180.238 463.096 180.947C461.489 181.614 459.905 182.341 458.345 183.088C456.784 183.844 455.238 184.627 453.725 185.448C452.225 186.26 450.683 187.156 449.361 188.024L449.296 188.066C448.399 188.653 447.194 188.401 446.605 187.506C446.016 186.61 446.269 185.406 447.166 184.819Z" fill="#000072"/>
<path d="M624.157 186.708C619.196 184.758 614.02 182.971 608.867 181.319C603.705 179.649 598.487 178.133 593.226 176.766C590.606 176.034 587.948 175.479 585.308 174.812L581.323 173.935C579.997 173.617 578.665 173.351 577.329 173.085C571.999 171.938 566.617 171.051 561.203 170.072C561.137 170.062 561.095 170.002 561.105 169.937C561.114 169.881 561.166 169.839 561.222 169.834C566.72 169.75 572.251 169.927 577.726 170.585C580.478 170.837 583.197 171.299 585.929 171.705C587.289 171.933 588.644 172.194 590.003 172.446C591.362 172.689 592.713 172.974 594.063 173.267C599.468 174.406 604.817 175.796 610.1 177.419C615.393 179.057 620.569 180.881 625.717 183.143C626.698 183.577 627.147 184.72 626.712 185.7C626.292 186.656 625.189 187.104 624.227 186.726L624.166 186.703L624.157 186.708Z" fill="#000072"/>
<path d="M459.111 193.86C458.984 198.627 459.003 203.544 459.101 208.382C459.223 213.234 459.494 218.076 459.909 222.905C460.19 225.307 460.405 227.719 460.764 230.108C461.035 232.52 461.577 234.866 461.965 237.255C462.885 242.008 463.899 246.683 464.749 251.726C463.175 249.743 461.727 247.607 460.652 245.321C459.456 243.067 458.662 240.67 457.849 238.272C457.499 237.059 457.205 235.836 456.892 234.614C456.56 233.392 456.317 232.16 456.069 230.929C455.831 229.692 455.532 228.466 455.35 227.22L454.789 223.493C454.135 218.51 453.776 213.5 453.701 208.489C453.659 205.984 453.692 203.479 453.818 200.974C453.925 198.459 454.131 195.996 454.462 193.435C454.626 192.157 455.798 191.257 457.078 191.424C458.274 191.578 459.139 192.609 459.111 193.785V193.864V193.86Z" fill="#000072"/>
<path d="M619.308 193.944C618.86 199.35 618.15 204.669 617.3 209.996L616.641 213.985L615.894 217.96C615.38 220.605 614.852 223.25 614.221 225.881C613.049 231.153 611.591 236.373 609.886 241.533C609.437 242.82 609.054 244.117 608.498 245.372C607.966 246.636 607.41 247.882 606.807 249.109C606.144 250.322 605.425 251.502 604.7 252.664C603.874 253.788 603 254.875 602.056 255.868C602.005 255.92 601.926 255.924 601.874 255.873C601.841 255.84 601.827 255.794 601.837 255.752V255.738C602.145 254.366 602.566 253.107 602.949 251.842C603.276 250.541 603.603 249.258 603.995 248.012C604.327 246.734 604.64 245.451 605.013 244.192C605.392 242.937 605.682 241.64 606.046 240.376C607.401 235.277 608.503 230.094 609.498 224.883C609.76 223.586 609.989 222.275 610.218 220.969C610.456 219.662 610.717 218.361 610.928 217.05L612.24 209.185L614.674 193.435V193.398C614.875 192.124 616.066 191.256 617.342 191.452C618.556 191.639 619.407 192.74 619.308 193.948V193.944Z" fill="#000072"/>
<path d="M539.003 259.624C524.914 259.624 512.548 258.192 502.523 256.372C476.297 251.614 460.381 243.464 459.713 243.119L461.862 238.985C462.021 239.069 477.951 247.205 503.541 251.824C527.114 256.078 563.959 258.131 605.601 243.753L607.124 248.157C582.154 256.778 558.867 259.624 539.003 259.624Z" fill="#000072"/>
<path d="M502.348 226.276C503.036 217.661 498.555 210.277 492.339 209.782C486.122 209.287 480.525 215.869 479.837 224.483C479.15 233.097 483.631 240.481 489.847 240.977C496.063 241.472 501.66 234.89 502.348 226.276Z" fill="#000072"/>
<path d="M491.198 227.598C491.42 224.814 489.972 222.427 487.964 222.267C485.955 222.107 484.146 224.235 483.924 227.019C483.702 229.803 485.15 232.189 487.158 232.349C489.167 232.509 490.976 230.382 491.198 227.598Z" fill="white"/>
<path d="M568.491 226.275C569.179 217.661 564.697 210.276 558.481 209.781C552.265 209.286 546.668 215.868 545.98 224.482C545.292 233.096 549.774 240.48 555.99 240.976C562.206 241.471 567.803 234.889 568.491 226.275Z" fill="#000072"/>
<path d="M557.341 227.596C557.563 224.814 556.117 222.43 554.111 222.27C552.105 222.111 550.298 224.236 550.076 227.017C549.854 229.799 551.3 232.183 553.306 232.343C555.312 232.503 557.118 230.377 557.341 227.596Z" fill="white"/>
<path d="M481.458 205.625C482.014 203.283 483.402 201.277 485.284 199.676C487.167 198.1 489.75 197.017 492.474 197.017C495.202 196.966 497.814 198.053 499.692 199.63C501.602 201.207 502.952 203.213 503.597 205.527C503.648 205.713 503.536 205.909 503.349 205.96C503.27 205.984 503.19 205.974 503.12 205.946C500.925 205.074 499.084 204.15 497.328 203.511C495.576 202.858 493.997 202.476 492.427 202.42C490.858 202.364 489.218 202.653 487.447 203.283C485.667 203.898 483.822 204.803 481.776 205.853L481.757 205.862C481.655 205.914 481.524 205.876 481.472 205.769C481.449 205.722 481.444 205.671 481.454 205.625H481.458Z" fill="#000072"/>
<path d="M546.169 207.089C546.725 204.747 548.113 202.741 549.995 201.141C551.878 199.565 554.461 198.482 557.185 198.482C559.913 198.431 562.524 199.518 564.402 201.095C566.313 202.671 567.663 204.678 568.308 206.991C568.359 207.178 568.247 207.374 568.06 207.425C567.981 207.449 567.901 207.439 567.831 207.411C565.636 206.539 563.795 205.615 562.039 204.976C560.287 204.323 558.708 203.94 557.138 203.884C555.569 203.828 553.929 204.118 552.158 204.747C550.378 205.363 548.533 206.268 546.487 207.318L546.468 207.327C546.366 207.379 546.235 207.341 546.183 207.234C546.16 207.187 546.155 207.136 546.165 207.089H546.169Z" fill="#000072"/>
<path d="M464.749 377.912C463.46 377.912 462.418 376.872 462.418 375.584C462.418 314.896 476.335 283.112 476.928 281.787C477.451 280.612 478.834 280.085 480.011 280.612C481.188 281.139 481.712 282.515 481.188 283.686C481.048 284.003 467.085 315.997 467.085 375.58C467.085 376.867 466.038 377.908 464.754 377.908L464.749 377.912Z" fill="#000072"/>
<path d="M654.516 377.913C654.516 377.913 654.493 377.913 654.479 377.913C653.189 377.894 652.162 376.835 652.185 375.547C652.862 332.745 644.916 309.499 638.128 297.542C630.878 284.764 623.418 281.9 623.343 281.872C622.142 281.429 621.512 280.099 621.946 278.895C622.376 277.692 623.689 277.057 624.898 277.477C626.258 277.953 658.202 290.073 656.847 375.617C656.829 376.891 655.787 377.908 654.516 377.908V377.913Z" fill="#000072"/>
<path d="M589.948 376.191C589.224 373.602 588.682 371.125 588.233 368.568C587.99 367.299 587.822 366.021 587.616 364.747C587.439 363.469 587.304 362.191 587.149 360.908C586.607 355.781 586.43 350.617 586.612 345.462C586.724 340.302 587.42 335.157 588.387 330.095C588.672 328.835 588.962 327.576 589.294 326.33C589.653 325.089 590.088 323.867 590.527 322.654C590.746 322.048 590.957 321.441 591.195 320.839C591.457 320.247 591.737 319.664 592.022 319.081C592.601 317.924 593.18 316.771 593.834 315.661C593.9 315.549 594.045 315.512 594.161 315.577C594.245 315.628 594.287 315.722 594.278 315.815V315.824C593.573 320.933 592.559 325.752 592.045 330.701C591.424 335.618 591.106 340.568 591.172 345.527C591.223 350.482 591.517 355.436 592.073 360.367C592.372 362.83 592.69 365.289 593.092 367.733C593.479 370.164 593.942 372.65 594.456 374.964L594.474 375.053C594.75 376.308 593.956 377.553 592.699 377.829C591.485 378.094 590.284 377.362 589.952 376.182L589.948 376.191Z" fill="#000072"/>
<path d="M466.019 371.069L463.6 367.09C500.715 344.576 547.099 290.866 547.566 290.325L551.107 293.358C550.64 293.903 503.78 348.168 466.024 371.069H466.019Z" fill="#000072"/>
<path d="M482.188 377.53L479.633 373.634C522.798 345.387 568.28 289.989 568.733 289.434L572.349 292.377C571.891 292.937 525.965 348.886 482.193 377.535L482.188 377.53Z" fill="#000072"/>
<path d="M526.932 315.857C519.78 307.865 511.343 292.163 510.988 291.5L515.104 289.308C515.188 289.466 523.63 305.183 530.413 312.759L526.932 315.862V315.857Z" fill="#000072"/>
<path d="M516.706 326.101C505.733 312.964 495.231 289.793 494.787 288.813L499.043 286.9C499.15 287.134 509.731 310.473 520.289 323.116L516.706 326.101Z" fill="#000072"/>
<path d="M468.697 323.672C467.319 323.518 462.354 321.946 456.285 308.146C454.155 303.294 450.721 297.855 446.082 291.967C441.775 286.5 436.548 281.979 430.545 278.527C410.196 266.822 411.387 249.044 411.448 248.293C411.504 247.63 411.835 247.019 412.368 246.618C439.477 226.236 433.222 207.319 432.941 206.521C432.684 205.784 432.806 204.963 433.278 204.342C433.75 203.722 434.497 203.363 435.277 203.414C441.827 203.801 446.494 207.538 446.69 207.697L443.751 211.317C443.723 211.293 441.486 209.53 438.15 208.597C439.136 215.781 438.374 232.459 416.082 249.645C416.152 253.233 417.553 265.675 432.871 274.483C439.393 278.233 445.069 283.141 449.745 289.08C454.627 295.275 458.261 301.055 460.555 306.266C465.642 317.84 469.38 319.058 469.412 319.067C469.281 319.03 469.211 319.035 469.211 319.035L468.693 323.662L468.697 323.672Z" fill="#000072"/>
<path d="M402.487 189.213C403.613 189.601 404.566 190.198 405.439 190.874C406.313 191.551 407.093 192.325 407.78 193.169C408.467 194.019 409.069 194.933 409.602 195.894C410.144 196.85 410.653 197.83 411.101 198.852C412.008 200.886 412.704 203.069 412.998 205.397C413.32 207.706 413.148 210.179 412.414 212.511C411.695 214.853 410.359 216.971 408.738 218.688L408.121 219.322L407.813 219.639L407.416 219.98C407.154 220.209 406.874 220.423 406.561 220.619C406.266 220.824 405.944 221.002 405.603 221.16C404.267 221.813 402.669 222.075 401.244 221.897C399.81 221.739 398.53 221.263 397.4 220.68C396.269 220.092 395.274 219.383 394.363 218.622C392.565 217.083 391.065 215.343 389.79 213.481C387.253 209.759 385.408 205.639 384.464 201.17C384.006 198.936 383.82 196.594 384.039 194.196C384.296 191.812 384.983 189.311 386.454 187.147C387.174 186.069 388.061 185.089 389.07 184.273C390.084 183.466 391.187 182.822 392.317 182.304C394.597 181.325 396.956 180.868 399.236 180.718C403.818 180.452 408.14 181.236 412.307 182.286C413.554 182.598 414.315 183.867 413.998 185.113C413.694 186.321 412.494 187.072 411.284 186.83L411.237 186.82C407.322 186.036 403.347 185.5 399.619 185.827C397.769 185.995 395.998 186.391 394.471 187.077C393.723 187.441 393.036 187.865 392.429 188.36C391.831 188.868 391.327 189.447 390.892 190.09C390.014 191.373 389.552 192.992 389.369 194.714C389.21 196.449 389.369 198.282 389.724 200.111C390.448 203.769 392.018 207.389 394.125 210.533C395.185 212.101 396.386 213.551 397.717 214.746C399.039 215.917 400.548 216.794 401.819 216.962C402.454 217.055 402.992 216.962 403.529 216.728C403.664 216.672 403.8 216.607 403.931 216.514C404.066 216.444 404.197 216.346 404.328 216.234L404.529 216.075L404.767 215.842L405.248 215.375C406.486 214.102 407.49 212.665 408.046 211.051C409.233 207.841 408.728 204.016 407.285 200.47C406.607 198.67 405.594 196.99 404.678 195.231C403.781 193.449 402.922 191.621 402.328 189.381C402.31 189.307 402.352 189.232 402.422 189.213C402.45 189.209 402.473 189.209 402.501 189.213H402.487Z" fill="#000072"/>
<path d="M384.474 253.788C383.442 253.788 382.423 253.522 381.498 253.009C378.616 251.4 377.532 247.835 379.041 244.896L391.93 219.751L396.083 221.874L383.194 247.019C382.839 247.714 383.091 248.563 383.778 248.946C384.119 249.132 384.511 249.179 384.885 249.076C385.259 248.969 385.567 248.722 385.759 248.381L402.684 217.75L406.767 219.999L389.842 250.63C389.047 252.067 387.744 253.102 386.165 253.55C385.609 253.709 385.039 253.788 384.474 253.788Z" fill="#000072"/>
<path d="M409.083 196.504L404.939 194.368L431.437 143.126C432.371 141.321 433.955 139.996 435.893 139.385C437.832 138.778 439.892 138.965 441.691 139.916C445.311 141.829 446.745 146.354 444.895 150.002L421.752 192.875L417.646 190.664L440.761 147.847C441.443 146.504 440.892 144.768 439.504 144.036C438.818 143.672 438.028 143.602 437.285 143.835C436.543 144.068 435.935 144.577 435.58 145.267L409.083 196.509V196.504Z" fill="#000072"/>
<path d="M446.146 180.578L409.551 206.53L412.253 210.33L448.848 184.378L446.146 180.578Z" fill="#000072"/>
<path d="M369.692 240.222C369.37 240.222 369.048 240.194 368.721 240.138C367.198 239.876 365.88 239.027 365.016 237.749C363.358 235.305 363.885 231.969 366.221 230.154L391.032 210.878L393.896 214.554L369.085 233.83C368.683 234.143 368.594 234.712 368.879 235.132C369.08 235.426 369.365 235.514 369.515 235.542C369.664 235.566 369.963 235.58 370.253 235.37L396.446 216.126L399.212 219.877L373.018 239.121C372.037 239.839 370.888 240.217 369.697 240.217L369.692 240.222Z" fill="#000072"/>
<path d="M445.297 169.487L407.803 197.866L410.619 201.577L448.113 173.197L445.297 169.487Z" fill="#000072"/>
<path d="M379.894 223.194C378.199 221.864 376.769 219.811 375.517 216.914C369.556 203.101 379.675 194.26 385.855 191.513L387.752 195.767L386.804 193.64L387.757 195.767C387.201 196.019 374.19 202.065 379.801 215.072C380.707 217.176 381.735 218.715 382.772 219.527L379.89 223.189L379.894 223.194Z" fill="#000072"/>
<path d="M372.252 229.464C369.211 227.602 367.048 224.057 366.17 219.471C364.292 209.698 371.612 204.309 375.746 202.821L377.335 207.202C376.998 207.328 369.159 210.327 370.748 218.589C371.369 221.822 372.803 224.337 374.686 225.489L372.247 229.459L372.252 229.464Z" fill="#000072"/>
<path d="M411.438 229.841C405.5 229.841 400.553 226.688 400.301 226.524L402.842 222.615L401.571 224.57L402.837 222.61C402.898 222.648 408.761 226.343 414.292 224.808C417.333 223.959 419.819 221.617 421.678 217.838C428.148 204.696 423.649 199.999 423.603 199.952L426.746 196.514C427.05 196.78 434.048 203.269 425.864 219.895C423.388 224.929 419.903 228.097 415.507 229.305C414.129 229.683 412.76 229.841 411.442 229.841H411.438Z" fill="#000072"/>
<path d="M413.072 250.7C397.988 245.969 393.41 237.348 393.223 236.984L397.371 234.857L395.297 235.92L397.362 234.843C397.399 234.917 401.393 242.158 414.464 246.258L413.067 250.704L413.072 250.7Z" fill="#000072"/>
<path d="M433.039 206.754C433.015 206.703 430.441 201.548 425.172 200.069L426.433 195.586C433.772 197.643 437.103 204.445 437.243 204.734L433.039 206.754Z" fill="#000072"/>
<path d="M386.403 233.835C385.632 232.986 383.1 232.141 381.629 231.838L382.563 227.275C383.418 227.448 387.795 228.437 389.856 230.704L386.399 233.835H386.403Z" fill="#000072"/>
<path d="M687.101 293.549C680.977 293.549 674.997 291.482 670.63 285.641C664.15 276.983 662.833 259.307 661.562 242.214C660.432 226.982 659.259 211.237 654.447 204.487L658.245 201.786C663.814 209.595 664.982 225.275 666.215 241.873C667.434 258.299 668.696 275.285 674.367 282.856C682.28 293.432 696.935 287.615 703.513 284.219C685.42 271.567 679.183 235.435 675.362 213.309L674.867 210.454C671.045 188.509 655.227 173.352 655.069 173.203L658.273 169.82C658.969 170.478 675.376 186.209 679.459 209.656L679.954 212.52C683.869 235.179 690.418 273.102 709.161 282.161C709.913 282.525 710.412 283.267 710.473 284.102C710.529 284.937 710.137 285.739 709.436 286.201C704.288 289.616 695.557 293.563 687.097 293.563L687.101 293.549Z" fill="#000072"/>
<path d="M702.816 268.94C702.549 268.94 702.288 268.893 702.04 268.809C701.559 268.642 690.231 264.555 684.732 254.273L688.848 252.08C692.973 259.801 701.298 263.505 703.199 264.266C709.931 263.934 715.027 261.826 718.353 257.991C721.203 254.707 722.287 250.681 722.675 247.62C719.465 249.636 714.672 251.576 709.202 250.238C699.709 247.914 692.095 236.615 686.568 216.658C673.516 169.484 657.049 171.807 656.88 171.831L655.918 167.273C656.754 167.086 676.646 163.308 691.062 215.417C697.336 238.099 704.993 244.416 710.309 245.712C717.41 247.453 723.366 241.173 723.427 241.108C724.048 240.441 725.001 240.198 725.865 240.483C726.729 240.767 727.351 241.532 727.449 242.433C727.5 242.871 728.579 253.261 721.904 260.995C717.62 265.959 711.225 268.632 702.895 268.935C702.867 268.935 702.839 268.935 702.811 268.935L702.816 268.94Z" fill="#000072"/>
<path d="M416.386 369.782C398.139 369.782 385.894 366.567 379.99 360.227C378.303 358.417 377.873 355.884 378.868 353.608C379.873 351.303 382.059 349.866 384.572 349.866H448.199C450.712 349.866 452.894 351.298 453.903 353.608C454.893 355.884 454.468 358.422 452.782 360.227C446.877 366.567 434.633 369.782 416.386 369.782ZM384.572 352.973C383.073 352.973 382.115 353.944 381.723 354.849C381.223 355.992 381.428 357.209 382.269 358.114C385.908 362.019 394.78 366.679 416.386 366.679C437.992 366.679 446.863 362.024 450.502 358.114C451.343 357.214 451.549 355.992 451.049 354.849C450.652 353.944 449.699 352.973 448.199 352.973H384.572Z" fill="#000072"/>
<path d="M416.385 359.682C385.553 359.682 380.041 355.292 379.518 354.788L380.592 353.664L381.61 352.488C381.821 352.656 387.114 356.575 416.39 356.575V359.682H416.385Z" fill="#000072"/>
<path d="M416.385 359.682V356.575C445.661 356.575 450.954 352.656 451.165 352.488L453.253 354.788C452.725 355.287 447.217 359.682 416.385 359.682Z" fill="#000072"/>
<path d="M416.386 374.2H402.437C400.629 374.2 398.942 373.309 397.924 371.811C396.906 370.318 396.7 368.424 397.363 366.745L397.513 366.362L400.405 367.505L400.255 367.888C399.966 368.62 400.054 369.413 400.498 370.066C400.942 370.72 401.647 371.093 402.437 371.093H416.386V374.2Z" fill="#000072"/>
<path d="M430.334 374.2H416.385V371.093H430.334C431.124 371.093 431.829 370.72 432.273 370.067C432.717 369.414 432.805 368.62 432.516 367.888L432.366 367.51L435.258 366.367L435.407 366.75C436.075 368.429 435.865 370.323 434.847 371.821C433.828 373.314 432.142 374.205 430.334 374.205V374.2Z" fill="#000072"/>
<path d="M523.503 164.101C531.447 164.101 537.887 157.67 537.887 149.737C537.887 141.804 531.447 135.373 523.503 135.373C515.559 135.373 509.119 141.804 509.119 149.737C509.119 157.67 515.559 164.101 523.503 164.101Z" fill="#1FAB5E"/>
<path d="M328.943 375.505C327.471 375.505 326.004 375.305 324.579 374.908L295.527 366.819C286.908 364.421 281.849 355.464 284.25 346.852L285.081 343.866L252.296 334.737C243.673 332.334 238.618 323.377 241.019 314.77L245.943 297.131C246.849 293.889 248.709 291.053 251.315 288.925L319.576 233.298C322.463 230.942 326.107 229.646 329.84 229.646C331.311 229.646 332.778 229.846 334.198 230.243L362.746 238.192C366.922 239.354 370.393 242.073 372.524 245.843C374.654 249.612 375.186 253.988 374.018 258.159L357.304 318.017C359.205 319.375 360.803 321.147 361.989 323.242C364.119 327.011 364.652 331.387 363.484 335.558L360.036 347.906C358.201 354.48 352.389 359.191 345.662 359.714L344.564 363.642C342.616 370.621 336.188 375.501 328.933 375.501L328.943 375.505Z" fill="white"/>
<path d="M328.943 369.907C327.981 369.907 327.019 369.776 326.084 369.515L297.032 361.426C291.389 359.854 288.077 353.99 289.651 348.354L291.977 340.022C291.977 340.022 291.963 339.971 291.945 339.961L253.806 329.344C248.163 327.772 244.851 321.907 246.425 316.272L251.349 298.633C251.942 296.511 253.157 294.654 254.867 293.264L323.127 237.637C325.019 236.097 327.402 235.248 329.845 235.248C330.807 235.248 331.77 235.379 332.699 235.64L361.247 243.589C363.98 244.35 366.255 246.127 367.647 248.6C369.039 251.068 369.39 253.932 368.628 256.661L350.685 320.932C350.685 320.932 350.694 320.984 350.718 320.993C353.45 321.754 355.725 323.531 357.118 326.003C358.51 328.471 358.86 331.336 358.099 334.065L354.651 346.413C353.376 350.985 349.167 354.176 344.42 354.176C343.458 354.176 342.496 354.046 341.566 353.784C341.566 353.784 341.561 353.784 341.557 353.784C341.538 353.784 341.515 353.794 341.51 353.817L339.183 362.149C337.908 366.721 333.699 369.912 328.953 369.912L328.943 369.907Z" fill="#000072"/>
<path d="M294.748 349.773L297.074 341.441C297.863 338.605 296.205 335.665 293.365 334.877L255.226 324.259C252.386 323.471 250.727 320.532 251.517 317.695L256.441 300.057C256.735 298.998 257.352 298.055 258.207 297.36L326.467 241.733C327.813 240.637 329.602 240.264 331.274 240.73L359.822 248.68C362.663 249.468 364.321 252.407 363.532 255.243L345.583 319.515C344.794 322.351 346.452 325.29 349.293 326.079C352.133 326.867 353.791 329.806 353.002 332.642L349.554 344.991C348.765 347.827 345.822 349.484 342.981 348.695C340.141 347.907 337.198 349.563 336.408 352.399L334.082 360.731C333.293 363.568 330.349 365.224 327.509 364.435L298.457 356.346C295.616 355.558 293.958 352.619 294.748 349.782V349.773ZM293.921 310.66L299.681 312.265C302.521 313.054 305.464 311.397 306.254 308.561L308.515 300.467C309.911 295.466 304.053 291.627 300.017 294.897L291.996 301.386C288.628 304.111 289.749 309.499 293.921 310.66Z" fill="white"/>
<path opacity="0.3" d="M293.368 334.876C296.209 335.665 297.867 338.604 297.078 341.44L294.751 349.772C293.962 352.609 295.62 355.548 298.46 356.336L327.513 364.425C330.353 365.214 333.296 363.558 334.086 360.721L336.412 352.389C337.202 349.553 340.145 347.897 342.985 348.685C345.825 349.474 348.768 347.817 349.558 344.981L353.005 332.633C353.795 329.796 352.137 326.857 349.296 326.069C346.456 325.28 344.797 322.341 345.587 319.505L363.535 255.233C364.325 252.397 362.666 249.458 359.826 248.67L359.275 248.516C345.19 273.521 328.461 294.122 306.369 308.141L306.252 308.556C305.463 311.392 302.52 313.048 299.68 312.26L299.483 312.204C287.987 318.474 275.098 323.064 260.504 325.723L293.364 334.872L293.368 334.876Z" fill="#000072"/>
<path d="M241.187 343.843C236.282 343.843 231.082 340.671 227.906 338.329C223.029 337.928 218.17 337.471 213.443 336.972C184.175 333.86 162.495 329.33 149.466 326.083C143.253 324.544 138.875 323.256 136.427 322.496C133.414 323.284 128.075 324.46 123.02 324.46C110.435 324.46 107.716 317.014 107.132 313.814C106.282 309.153 107.366 302.431 116.578 295.811C118.306 285.758 121.946 276.246 124.375 270.647C119.353 264.83 119.923 259.586 120.908 256.671C122.207 252.85 125.118 250.252 128.766 249.51C128.789 246.869 129.808 244.397 131.653 242.517C133.554 240.581 136.194 239.47 138.899 239.47C139.646 239.47 140.389 239.554 141.113 239.718C141.505 238.985 141.944 238.271 142.421 237.576C144.397 234.717 147.634 233.019 151.087 233.019C153.184 233.019 155.212 233.653 156.917 234.791C169.941 224.22 183.274 220.073 190.659 218.487C192.561 218.076 194.513 217.866 196.462 217.866C203.791 217.866 210.939 220.861 216.073 226.091C221.015 231.125 227.485 238.976 232.876 249.771C233.745 249.524 234.666 249.379 235.633 249.379C237.758 249.379 239.786 250.07 241.491 251.376C244.298 253.536 245.592 256.825 245.41 261.728C245.975 261.76 246.545 261.821 247.101 261.905C250.628 262.437 253.394 264.671 254.487 267.876C254.898 269.089 255.711 271.473 253.866 275.798C255.977 276.74 257.416 278.037 258.374 279.213C260.322 281.615 261.032 284.582 260.378 287.573C259.462 291.743 255.982 295.443 249.255 299.287C249.119 306.756 248.003 312.983 246.713 317.765C249.671 321.217 252.833 326.806 251.763 334.256C250.937 340.074 246.784 343.839 241.187 343.839V343.843Z" fill="white"/>
<path d="M241.8 294.85C242.216 306.097 240.151 314.658 238.278 319.953C239.002 320.471 245.551 325.341 244.421 333.207C243.234 341.538 230.724 331.126 230.724 331.126C224.978 330.673 219.479 330.165 214.224 329.61C221.175 318.362 218.755 298.549 218.755 298.549C218.531 298.428 218.321 298.297 218.096 298.19C195.472 285.622 162.939 284.54 162.939 284.54C159.057 288.934 155.273 302.202 153.115 310.903C151.985 315.456 151.288 318.759 151.26 318.908C141.595 316.51 136.568 314.77 136.568 314.77C136.568 314.77 116.018 321.222 114.425 312.493C113.823 309.181 115.845 306.163 118.578 303.69C120.078 302.337 121.802 301.152 123.427 300.173C125.357 284.54 133.354 268.898 133.354 268.898C130.22 266.528 126.646 262.852 127.931 259.04C130.117 252.598 139.848 261.522 139.848 261.522C136.984 257.394 136.241 252.934 136.176 249.663C136.129 247.322 138.871 245.997 140.623 247.545C143.749 250.293 146.248 253.829 146.248 253.829C144.968 248.469 146.766 244.331 148.528 241.77C149.742 240.011 152.316 239.974 153.568 241.695C154.577 243.095 155.339 244.424 155.895 245.665C168.62 232.958 182.976 227.709 192.207 225.727C198.943 224.276 205.941 226.366 210.771 231.278C214.34 234.917 218.666 240.025 222.717 246.706C225.323 250.984 227.804 255.915 229.911 261.513C229.911 261.513 234.054 255.014 236.965 257.244C239.828 259.446 235.788 272.266 235.703 272.565C235.946 272.331 240.254 268.352 245.972 269.224C251.746 270.097 239.819 282.721 239.352 283.201C239.73 283.08 249.344 279.87 252.596 283.877C255.413 287.348 247.406 292.088 241.781 294.855L241.8 294.85Z" fill="white"/>
<path d="M214.223 329.605C185.507 326.55 164.219 322.127 151.26 318.894C151.288 318.745 151.984 315.442 153.114 310.889C155.273 302.189 159.057 288.926 162.939 284.526C162.939 284.526 195.471 285.609 218.096 298.177C218.32 298.288 218.53 298.419 218.754 298.536C218.754 298.536 221.174 318.353 214.223 329.596V329.605Z" fill="#000072"/>
<g opacity="0.3">
<path d="M241.8 294.85C242.216 306.098 240.151 314.658 238.278 319.953C239.002 320.471 245.551 325.341 244.421 333.207C243.234 341.539 230.724 331.126 230.724 331.126C224.978 330.674 219.479 330.165 214.224 329.61C185.508 326.554 164.219 322.132 151.26 318.899C141.595 316.501 136.568 314.761 136.568 314.761C136.568 314.761 116.018 321.213 114.425 312.484C113.823 309.172 115.845 306.154 118.578 303.681C127.151 306.06 139.647 309.088 153.115 310.894C177.22 314.122 204.474 313.45 218.096 298.186C227.005 288.226 230.098 272.056 222.731 246.706C225.337 250.984 227.818 255.915 229.925 261.513C229.925 261.513 234.068 255.015 236.979 257.245C239.842 259.447 235.802 272.266 235.717 272.565C235.96 272.332 240.268 268.352 245.986 269.225C251.76 270.097 239.833 282.721 239.366 283.201C239.744 283.08 249.358 279.87 252.61 283.878C255.427 287.349 247.42 292.088 241.795 294.855L241.8 294.85Z" fill="#000072"/>
</g>
<g opacity="0.6">
<path d="M155.903 313.898L164.779 292.583C165.521 290.796 167.367 289.728 169.291 289.975C179.396 291.286 209.999 295.69 217.81 301.736V298.494L162.938 284.526L154.959 309.513L155.903 313.903V313.898Z" fill="white"/>
</g>
<path d="M235.557 326.121C235.627 324.623 235.86 323.312 236.169 322.02C236.496 320.742 236.893 319.496 237.173 318.213C237.762 315.662 238.21 313.086 238.528 310.502C238.808 307.908 239.028 305.324 239.07 302.725C239.13 301.433 239.093 300.131 239.116 298.839C239.098 297.542 239.018 296.245 239.014 294.953L244.573 294.743C244.638 297.524 244.545 300.309 244.246 303.08C243.979 305.851 243.438 308.589 242.807 311.295C242.111 313.987 241.27 316.641 240.2 319.198C239.939 319.837 239.668 320.476 239.373 321.101C239.093 321.731 238.789 322.356 238.43 322.953C237.701 324.138 236.818 325.281 235.557 326.116V326.121Z" fill="#000072"/>
<path d="M153.94 243.697C159.957 237.712 166.95 232.683 174.588 228.965C178.409 227.113 182.366 225.531 186.449 224.337C187.468 224.029 188.495 223.758 189.528 223.493C190.579 223.245 191.555 222.993 192.751 222.797C195.049 222.401 197.409 222.406 199.716 222.732C204.332 223.385 208.737 225.499 212.115 228.708L212.745 229.31L213.301 229.884C213.67 230.266 214.035 230.644 214.394 231.036C215.119 231.81 215.815 232.604 216.511 233.401C217.893 235.001 219.201 236.662 220.467 238.356C225.508 245.139 229.544 252.645 232.525 260.529V260.538L227.582 260.021C228.325 258.962 229.026 258.131 229.89 257.24C230.764 256.382 231.703 255.519 233.16 254.828L233.725 254.586C233.94 254.516 234.178 254.455 234.403 254.404C234.828 254.273 235.412 254.268 235.94 254.278C236.477 254.343 237.089 254.478 237.561 254.721C238.042 254.992 238.481 255.211 238.948 255.724C239.794 256.671 240.009 257.553 240.177 258.276C240.322 259.013 240.364 259.671 240.364 260.291C240.34 262.75 239.882 264.858 239.397 266.976C238.883 269.08 238.289 271.096 237.584 273.153V273.172L234.342 271.166C234.949 270.606 235.435 270.246 236.014 269.85C236.57 269.463 237.159 269.127 237.757 268.81C238.962 268.189 240.261 267.704 241.62 267.419C242.98 267.125 244.414 267.051 245.815 267.219C246.381 267.279 247.721 267.359 248.74 268.548C248.959 268.842 249.193 269.169 249.291 269.486C249.352 269.649 249.403 269.813 249.45 269.976C249.487 270.13 249.496 270.27 249.52 270.419C249.534 270.564 249.553 270.718 249.557 270.853L249.539 271.226C249.529 271.487 249.492 271.711 249.45 271.917C249.277 272.77 249.006 273.447 248.712 274.072C248.417 274.706 248.095 275.28 247.763 275.835C247.091 276.941 246.367 277.967 245.624 278.961C244.12 280.944 242.55 282.782 240.849 284.606L240.835 284.62L238.701 281.298C240.284 280.64 241.784 280.197 243.419 279.857C245.045 279.558 246.736 279.329 248.572 279.497C249.492 279.586 250.445 279.735 251.44 280.123L252.178 280.421C252.421 280.547 252.668 280.71 252.907 280.86C253.397 281.135 253.836 281.55 254.257 281.989L254.565 282.31L254.869 282.749L255.149 283.202C255.233 283.365 255.303 283.556 255.373 283.733C255.443 283.915 255.504 284.102 255.56 284.289C255.598 284.48 255.626 284.68 255.654 284.876C255.719 285.282 255.7 285.655 255.654 286.024C255.457 287.507 254.799 288.487 254.187 289.276C252.925 290.824 251.571 291.79 250.216 292.732C248.847 293.637 247.455 294.403 246.044 295.102C244.619 295.774 243.241 296.511 241.723 296.926C240.2 297.332 238.588 297.533 236.776 297.127C237.776 295.573 238.929 294.533 240.149 293.633C241.368 292.742 242.695 292.103 243.923 291.296C245.161 290.516 246.376 289.723 247.488 288.874C248.586 288.049 249.655 287.125 250.263 286.271C250.562 285.856 250.697 285.478 250.683 285.45C250.683 285.441 250.697 285.441 250.683 285.469C250.683 285.478 250.692 285.487 250.702 285.492C250.692 285.501 250.688 285.506 250.692 285.515C250.692 285.52 250.706 285.525 250.706 285.525C250.692 285.52 250.683 285.511 250.678 285.501C250.674 285.492 250.669 285.483 250.669 285.469L250.571 285.394C250.165 284.965 249.268 284.55 248.067 284.41C245.68 284.121 242.69 284.582 240.023 285.142L239.761 285.198C238.668 285.427 237.598 284.732 237.364 283.64C237.22 282.964 237.444 282.287 237.888 281.821L237.897 281.811C239.462 280.146 241.013 278.354 242.4 276.54C243.092 275.625 243.75 274.702 244.32 273.769C244.601 273.302 244.867 272.836 245.077 272.388C245.301 271.94 245.456 271.492 245.521 271.175C245.544 271.086 245.554 271.016 245.549 270.979C245.549 270.956 245.554 270.932 245.558 270.904C245.558 270.89 245.549 270.895 245.549 270.895C245.549 270.895 245.558 270.881 245.558 270.895C245.558 270.918 245.558 270.942 245.572 270.96C245.605 270.979 245.614 271.086 245.68 271.128C245.918 271.361 245.955 271.212 245.357 271.184C244.39 271.063 243.4 271.1 242.424 271.31C241.447 271.511 240.48 271.861 239.56 272.327C239.102 272.57 238.649 272.826 238.224 273.12C237.813 273.395 237.341 273.759 237.07 274.007C236.262 274.739 235.01 274.683 234.272 273.871C233.8 273.353 233.655 272.658 233.823 272.033L233.833 272.001V271.991C234.351 270.079 234.804 268.073 235.145 266.118C235.477 264.172 235.725 262.157 235.617 260.459C235.594 260.039 235.529 259.661 235.449 259.386C235.384 259.106 235.239 258.971 235.365 259.157C235.491 259.265 235.435 259.283 235.477 259.288C235.491 259.269 235.505 259.321 235.533 259.325C235.552 259.344 235.599 259.321 235.603 259.335C235.613 259.381 235.669 259.325 235.599 259.381C235.575 259.395 235.557 259.395 235.524 259.405C235.477 259.437 235.43 259.465 235.384 259.489C234.491 259.965 233.09 261.639 232.258 263.03C231.483 264.326 229.801 264.751 228.503 263.977C227.961 263.655 227.573 263.174 227.358 262.633L227.311 262.516V262.507C224.504 255.094 220.715 248.045 215.987 241.687C214.801 240.1 213.577 238.547 212.283 237.049C211.634 236.303 210.98 235.561 210.307 234.838C209.975 234.474 209.634 234.115 209.288 233.761L208.775 233.229L208.293 232.771C205.738 230.341 202.403 228.745 198.913 228.251C197.17 228.008 195.381 227.999 193.643 228.302C192.816 228.438 191.807 228.685 190.864 228.909C189.911 229.151 188.962 229.403 188.019 229.688C184.244 230.793 180.568 232.263 177.022 233.98C169.931 237.432 163.451 242.092 157.859 247.649L153.926 243.721L153.94 243.697Z" fill="#000072"/>
<path d="M157.267 253.793C156.51 252.435 155.931 251.334 155.375 250.252C154.824 249.179 154.371 248.13 153.862 247.089C153.338 246.054 152.694 245.074 152.007 244.127L151.474 243.422C151.437 243.376 151.372 243.273 151.362 243.278C151.348 243.273 151.339 243.268 151.334 243.259C151.32 243.241 151.292 243.25 151.283 243.231C151.213 243.227 151.166 243.217 151.101 243.231C151.035 243.231 150.993 243.292 150.965 243.306C150.961 243.329 150.933 243.329 150.919 243.366C150.933 243.334 150.83 243.492 150.76 243.6C150.685 243.712 150.61 243.828 150.545 243.945C149.989 244.873 149.54 245.848 149.185 246.847C148.531 248.862 148.34 250.989 148.606 253.247V253.261L148.634 253.471C148.802 254.796 147.863 256.004 146.541 256.172C145.644 256.284 144.794 255.888 144.29 255.211C143.066 253.55 141.608 251.852 140.113 250.392C139.753 250.042 139.319 249.636 139.001 249.37C138.931 249.319 138.931 249.333 138.903 249.333C138.843 249.315 138.67 249.431 138.684 249.492C138.674 249.496 138.674 249.506 138.679 249.52C138.67 249.529 138.674 249.548 138.679 249.566C138.679 249.58 138.674 249.571 138.674 249.608L138.684 249.8L138.698 250.182C138.73 250.691 138.768 251.199 138.833 251.703C138.959 252.711 139.151 253.704 139.426 254.67C139.968 256.601 140.814 258.421 141.944 260.04L141.954 260.054C142.753 261.197 142.468 262.769 141.323 263.566C140.464 264.164 139.361 264.154 138.525 263.627L138.132 263.38C136.189 262.148 133.984 260.781 132.2 260.161C131.765 260.012 131.363 259.928 131.116 259.904C130.854 259.886 130.835 259.946 130.971 259.876C131.111 259.811 131.172 259.671 131.069 259.83C130.971 259.998 130.887 260.273 130.831 260.501C130.765 260.968 130.831 261.64 131.247 262.47C131.62 263.296 132.274 264.168 132.998 265.036C134.442 266.823 136.077 268.721 137.553 271.357C137.609 271.465 137.572 271.595 137.474 271.651C137.446 271.665 137.413 271.674 137.385 271.679C135.82 271.791 134.391 271.497 133.031 271.031C131.672 270.559 130.406 269.855 129.238 268.936C128.654 268.479 128.103 267.956 127.575 267.378C127.047 266.804 126.524 266.184 126.07 265.451C125.15 264.047 124.407 262.12 124.534 259.974C124.608 258.901 124.884 257.908 125.365 256.909C125.837 255.902 126.804 254.731 128.131 254.101C129.443 253.457 130.779 253.41 131.807 253.536C132.858 253.662 133.718 253.956 134.498 254.274C136.054 254.922 137.278 255.766 138.436 256.653C139.595 257.558 140.58 258.486 141.575 259.624L137.754 262.946L137.745 262.927C136.292 260.809 135.227 258.435 134.568 255.99C134.236 254.768 134.007 253.527 133.867 252.282C133.793 251.656 133.751 251.036 133.718 250.411L133.704 249.944V249.711L133.708 249.328C133.727 248.806 133.835 248.256 134.035 247.747C134.82 245.652 136.923 244.29 139.146 244.416C140.253 244.463 141.36 244.929 142.155 245.61C142.701 246.086 143.094 246.464 143.542 246.907C145.275 248.647 146.77 250.42 148.223 252.426L143.906 254.376V254.362C142.916 251.507 142.841 248.195 143.729 245.177C144.163 243.665 144.813 242.228 145.644 240.927C145.742 240.759 145.85 240.6 145.957 240.441C146.069 240.273 146.139 240.157 146.364 239.868C146.737 239.368 147.223 238.939 147.742 238.571C148.807 237.866 150.092 237.526 151.344 237.605C152.596 237.661 153.829 238.174 154.787 238.991C155.015 239.2 155.249 239.415 155.436 239.658L155.721 240.022C155.819 240.152 155.833 240.19 155.894 240.278L156.468 241.206C157.202 242.466 157.87 243.782 158.351 245.181C158.865 246.562 159.211 248.036 159.14 249.548C159.056 251.041 158.706 252.599 157.58 253.854C157.51 253.933 157.389 253.938 157.309 253.868C157.295 253.854 157.281 253.835 157.272 253.821L157.258 253.793H157.267Z" fill="#000072"/>
<path d="M126.187 300.509L120.67 299.828C122.632 283.883 130.541 268.278 130.877 267.62L135.829 270.144C135.75 270.298 128.028 285.553 126.187 300.505V300.509Z" fill="#000072"/>
<path d="M129.424 297.113C128.794 298.158 128.112 298.956 127.392 299.66C126.678 300.365 125.93 300.971 125.15 301.507C123.566 302.524 122.001 303.551 120.637 304.74C119.268 305.916 118.063 307.232 117.325 308.603C116.956 309.289 116.722 309.975 116.634 310.632C116.592 310.964 116.582 311.286 116.61 311.607C116.638 311.939 116.704 312.251 116.793 312.48C116.975 312.96 117.241 313.292 117.717 313.613C118.189 313.931 118.867 314.187 119.633 314.351C121.174 314.682 122.996 314.686 124.809 314.542C128.443 314.234 132.265 313.352 135.787 312.279C136.329 312.111 136.885 312.13 137.385 312.289L137.427 312.303C141.071 313.464 144.939 314.5 148.755 315.456C152.586 316.427 156.449 317.29 160.317 318.12C168.068 319.748 175.86 321.199 183.689 322.463C187.609 323.07 191.523 323.686 195.457 324.199C199.381 324.777 203.319 325.248 207.257 325.729C211.191 326.228 215.147 326.583 219.09 327.016L230.947 328.131H230.956C231.596 328.192 232.175 328.444 232.638 328.822C234.488 330.324 236.693 331.84 238.739 332.778C239.729 333.244 240.822 333.538 241.257 333.496C241.481 333.478 241.374 333.468 241.299 333.548C241.233 333.622 241.336 333.538 241.425 333.221C241.5 332.95 241.584 332.353 241.603 331.845C241.635 331.327 241.617 330.809 241.556 330.301C241.453 329.279 241.173 328.267 240.729 327.287C240.29 326.312 239.697 325.365 238.982 324.493C238.627 324.054 238.239 323.634 237.833 323.242C237.632 323.042 237.421 322.855 237.211 322.673C237.02 322.505 236.744 322.291 236.646 322.221L239.748 317.612C240.206 317.924 240.458 318.129 240.79 318.395C241.098 318.647 241.397 318.908 241.682 319.174C242.257 319.706 242.798 320.271 243.312 320.868C244.335 322.062 245.232 323.396 245.933 324.87C246.638 326.335 247.129 327.949 247.339 329.606C247.447 330.436 247.479 331.271 247.442 332.101C247.4 332.941 247.339 333.692 247.087 334.733C246.821 335.712 246.33 336.902 245.256 337.891C244.186 338.894 242.714 339.328 241.593 339.374C240.444 339.435 239.496 339.253 238.645 339.029C237.791 338.801 237.029 338.507 236.305 338.189C234.866 337.55 233.581 336.804 232.348 336.015C231.106 335.208 229.984 334.411 228.774 333.44L230.466 334.131L218.478 333.123C214.493 332.68 210.499 332.316 206.519 331.803C198.554 330.86 190.608 329.708 182.694 328.36C174.785 326.988 166.895 325.486 159.065 323.653C155.151 322.734 151.245 321.782 147.359 320.723C143.453 319.664 139.632 318.573 135.698 317.234L137.338 317.257C135.287 317.859 133.344 318.293 131.307 318.675C129.284 319.044 127.229 319.328 125.117 319.44C123.006 319.538 120.829 319.524 118.521 318.969C117.372 318.68 116.162 318.241 115.013 317.43C113.863 316.636 112.854 315.34 112.42 313.94C111.56 311.239 112.228 308.487 113.429 306.439C114.634 304.372 116.227 302.809 117.872 301.456C119.535 300.122 121.268 298.956 123.094 297.995C124.024 297.542 125.014 297.216 126.061 297.038C127.107 296.861 128.21 296.824 129.406 297.113H129.424Z" fill="#000072"/>
<path d="M216.591 331.061L211.859 328.145C217.212 319.482 216.497 304.806 216.128 300.262C197.031 289.929 170.609 287.755 164.26 287.372C159.986 293.735 155.454 312.405 153.992 319.464L148.545 318.339C149.148 315.438 154.59 289.784 160.854 282.688C161.406 282.068 162.205 281.713 163.031 281.751C164.414 281.797 197.157 283.034 220.132 296.133C220.893 296.567 221.407 297.337 221.515 298.209C221.617 299.058 223.963 319.132 216.591 331.061Z" fill="#000072"/>
<path d="M168.254 256.317C169.076 251.143 172.645 247.411 176.228 247.975C179.811 248.54 182.049 253.191 181.231 258.365C180.409 263.534 176.84 267.27 173.257 266.706C169.674 266.141 167.432 261.49 168.254 256.321V256.317Z" fill="#000072"/>
<path d="M174.321 255.351C174.625 253.447 175.886 252.062 177.138 252.258C178.39 252.454 179.161 254.156 178.862 256.064C178.558 257.968 177.297 259.353 176.045 259.153C174.793 258.957 174.022 257.249 174.326 255.346L174.321 255.351Z" fill="white"/>
<path d="M176.28 259.377C176.191 259.377 176.102 259.372 176.013 259.358C174.654 259.143 173.804 257.333 174.121 255.318C174.439 253.307 175.808 251.842 177.167 252.057C177.844 252.164 178.41 252.654 178.765 253.438C179.106 254.194 179.209 255.136 179.059 256.097C178.76 257.977 177.546 259.377 176.28 259.377ZM174.523 255.379C174.238 257.17 174.934 258.775 176.074 258.952C177.214 259.125 178.372 257.823 178.657 256.032C178.797 255.15 178.704 254.287 178.396 253.601C178.101 252.948 177.639 252.542 177.106 252.454C175.971 252.276 174.808 253.582 174.523 255.374V255.379Z" fill="#000072"/>
<path d="M184.524 264.71C183.291 270.975 185.229 278.281 189.555 279.125C193.886 279.974 198.964 274.04 200.197 267.775L184.524 264.705V264.71Z" fill="#000072"/>
<path d="M184.57 272.495C186.322 271.492 188.555 271.101 190.844 271.576C193.381 272.104 195.436 273.573 196.604 275.453C194.535 278.01 191.933 279.591 189.555 279.125C187.018 278.63 185.308 275.915 184.57 272.495Z" fill="#ED2E7A"/>
<path d="M190.415 281.028C190.013 281.028 189.607 280.991 189.205 280.911C186.5 280.384 184.374 278.108 183.221 274.506C182.244 271.464 182.067 267.765 182.735 264.359C182.931 263.375 183.884 262.727 184.874 262.923L200.547 265.992C201.024 266.086 201.44 266.361 201.711 266.762C201.982 267.163 202.08 267.653 201.986 268.129C200.716 274.581 195.661 281.028 190.415 281.028ZM186.056 266.86C185.855 269.127 186.075 271.469 186.692 273.391C187.411 275.64 188.583 277.077 189.906 277.338C192.624 277.865 196.399 273.89 197.945 269.188L186.056 266.86Z" fill="#000072"/>
<path d="M220.379 267.792C221.547 262.689 219.623 257.893 216.086 257.086C212.55 256.279 208.738 259.759 207.57 264.867C206.402 269.971 208.327 274.767 211.863 275.574C215.4 276.381 219.212 272.896 220.379 267.792Z" fill="#000072"/>
<path d="M215.003 265.139C215.432 263.259 214.778 261.505 213.54 261.225C212.302 260.94 210.952 262.237 210.523 264.117C210.093 265.997 210.747 267.751 211.985 268.031C213.223 268.311 214.573 267.019 215.003 265.139Z" fill="white"/>
<path d="M212.326 268.269C212.2 268.269 212.069 268.255 211.943 268.227C210.597 267.919 209.873 266.053 210.326 264.07C210.541 263.123 210.99 262.283 211.588 261.709C212.209 261.112 212.915 260.87 213.583 261.024C214.923 261.332 215.647 263.198 215.194 265.18C214.783 266.976 213.545 268.269 212.317 268.269H212.326ZM213.199 261.383C212.756 261.383 212.298 261.593 211.873 261.999C211.331 262.516 210.924 263.286 210.724 264.154C210.322 265.922 210.906 267.569 212.032 267.825C213.153 268.077 214.4 266.85 214.807 265.087C215.208 263.319 214.624 261.672 213.498 261.411C213.4 261.388 213.298 261.378 213.199 261.378V261.383Z" fill="#000072"/>
</g>
<defs>
<clipPath id="clip0_2247_16758">
<rect width="733" height="404" fill="white"/>
</clipPath>
</defs>
</svg>
