<svg width="210" height="210" viewBox="0 0 210 210" fill="none" xmlns="http://www.w3.org/2000/svg">
<g id="Outline">
<path id="Vector" opacity="0.6" d="M206.5 112C205.572 112 204.682 112.369 204.025 113.025C203.369 113.682 203 114.572 203 115.5V150.5C203 153.285 201.894 155.955 199.925 157.925C197.955 159.894 195.285 161 192.5 161H21C17.287 161 13.726 159.525 11.1005 156.899C8.475 154.274 7 150.713 7 147V38.5C7 35.7152 8.10625 33.0445 10.0754 31.0754C12.0445 29.1062 14.7152 28 17.5 28H77C77.9283 28 78.8185 27.6313 79.4749 26.9749C80.1313 26.3185 80.5 25.4283 80.5 24.5C80.5 23.5717 80.1313 22.6815 79.4749 22.0251C78.8185 21.3687 77.9283 21 77 21H17.5C12.8604 21.0056 8.41245 22.8511 5.13177 26.1318C1.85109 29.4125 0.0055575 33.8604 0 38.5V147C0.0055595 152.568 2.21984 157.906 6.1569 161.843C10.094 165.78 15.4322 167.994 21 168H64.9075C61.2543 175.999 54.656 182.28 46.487 185.535L37.828 189H31.5C28.7152 189 26.0445 190.106 24.0754 192.075C22.1062 194.045 21 196.715 21 199.5V206.5C21 207.428 21.3687 208.318 22.0251 208.975C22.6815 209.631 23.5717 210 24.5 210H80.5C81.4283 210 82.3185 209.631 82.9749 208.975C83.6313 208.318 84 207.428 84 206.5C84 205.572 83.6313 204.682 82.9749 204.025C82.3185 203.369 81.4283 203 80.5 203H28V199.5C28 198.572 28.3687 197.682 29.0251 197.025C29.6815 196.369 30.5717 196 31.5 196H178.5C179.428 196 180.318 196.369 180.975 197.025C181.631 197.682 182 198.572 182 199.5V203H94.5C93.5717 203 92.6815 203.369 92.0251 204.025C91.3687 204.682 91 205.572 91 206.5C91 207.428 91.3687 208.318 92.0251 208.975C92.6815 209.631 93.5717 210 94.5 210H185.5C186.428 210 187.318 209.631 187.975 208.975C188.631 208.318 189 207.428 189 206.5V199.5C189 196.715 187.894 194.045 185.925 192.075C183.955 190.106 181.285 189 178.5 189H172.172L163.513 185.535C155.344 182.28 148.746 175.999 145.092 168H192.5C197.14 167.994 201.588 166.149 204.868 162.868C208.149 159.588 209.994 155.14 210 150.5V115.5C210 114.572 209.631 113.682 208.975 113.025C208.318 112.369 207.428 112 206.5 112ZM154.812 189H55.188C63.1836 184.173 69.2965 176.766 72.52 168H137.48C140.703 176.766 146.816 184.173 154.812 189Z" fill="#1FAB5E"/>
<path id="Vector_2" opacity="0.6" d="M192.5 21H126C125.072 21 124.182 21.3687 123.525 22.0251C122.869 22.6815 122.5 23.5717 122.5 24.5C122.5 25.4283 122.869 26.3185 123.525 26.9749C124.182 27.6313 125.072 28 126 28H192.5C195.285 28 197.955 29.1062 199.925 31.0754C201.894 33.0445 203 35.7152 203 38.5V101.5C203 102.428 203.369 103.318 204.025 103.975C204.682 104.631 205.572 105 206.5 105C207.428 105 208.318 104.631 208.975 103.975C209.631 103.318 210 102.428 210 101.5V38.5C209.994 33.8604 208.149 29.4125 204.868 26.1318C201.588 22.8511 197.14 21.0056 192.5 21Z" fill="#1FAB5E"/>
<path id="Vector_3" opacity="0.8" d="M63.2205 40.7715L54.9115 62.9265C54.4635 64.1247 54.2614 65.4008 54.3174 66.6788C54.3733 67.9568 54.6862 69.2104 55.2373 70.3648C55.7883 71.5192 56.5663 72.5508 57.5248 73.3979C58.4833 74.2451 59.6026 74.8904 60.816 75.2955C62.8699 75.9694 65.0915 75.928 67.1189 75.178C69.1463 74.4281 70.86 73.0138 71.981 71.1655L78.981 59.5H84C84 60.4283 84.3687 61.3185 85.0251 61.9749C85.6815 62.6313 86.5717 63 87.5 63C88.4283 63 89.3185 62.6313 89.9749 61.9749C90.6313 61.3185 91 60.4283 91 59.5V56C91 55.0717 90.6313 54.1815 89.9749 53.5251C89.3185 52.8687 88.4283 52.5 87.5 52.5H77C76.3961 52.5001 75.8024 52.6565 75.2768 52.954C74.7512 53.2514 74.3115 53.6798 74.0005 54.1975L65.982 67.55C65.6865 68.0391 65.2335 68.4132 64.6974 68.611C64.1613 68.8088 63.5739 68.8185 63.0315 68.6385C62.7104 68.5319 62.4141 68.3617 62.1603 68.138C61.9066 67.9143 61.7005 67.6417 61.5544 67.3365C61.4084 67.0314 61.3254 66.6999 61.3104 66.3619C61.2953 66.0239 61.3486 65.6864 61.467 65.3695L69.0655 45.108L87.7905 42H114.271L130.812 55.2335C131.186 55.5325 131.617 55.7517 132.079 55.8775C132.541 56.0033 133.023 56.0331 133.497 55.965L150.146 53.585C150.625 53.5159 151.113 53.5511 151.577 53.6882C152.041 53.8254 152.47 54.0612 152.835 54.3795C153.203 54.694 153.498 55.0854 153.7 55.5262C153.901 55.9669 154.004 56.4464 154 56.931C153.999 57.7535 153.698 58.5474 153.153 59.1639C152.609 59.7805 151.859 60.1775 151.042 60.2805L130.267 62.8775L117.317 55.1005C116.785 54.7779 116.178 54.6026 115.556 54.5927C114.934 54.5827 114.322 54.7385 113.78 55.0439C113.239 55.3493 112.789 55.7934 112.476 56.3305C112.163 56.8677 111.999 57.4784 112 58.1V70H87.5C86.672 70.0002 85.871 70.294 85.2391 70.8291C84.6073 71.3641 84.1856 72.1059 84.049 72.9225L80.948 91.525L65.548 94.5H52.5C51.5717 94.5 50.6815 94.8687 50.0251 95.5251C49.3687 96.1815 49 97.0717 49 98V122.5C49 123.428 49.3687 124.318 50.0251 124.975C50.6815 125.631 51.5717 126 52.5 126C56.002 125.993 59.4213 124.936 62.3159 122.965C65.2105 120.994 67.4471 118.199 68.7365 114.943L98.35 111.982C98.938 111.924 99.5015 111.717 99.9881 111.382C100.475 111.046 100.868 110.593 101.132 110.064L110.064 92.197L119.35 96.8345L122.556 116.085C122.694 116.899 123.115 117.638 123.745 118.171C124.376 118.705 125.174 118.998 126 119H136.5C138.671 119.003 140.788 119.677 142.561 120.93C144.333 122.183 145.675 123.954 146.401 126H126C125.072 126 124.182 126.369 123.525 127.025C122.869 127.682 122.5 128.572 122.5 129.5C122.5 130.428 122.869 131.318 123.525 131.975C124.182 132.631 125.072 133 126 133H150.5C151.428 133 152.318 132.631 152.975 131.975C153.631 131.318 154 130.428 154 129.5C153.992 125.988 152.928 122.56 150.945 119.661C148.963 116.762 146.154 114.527 142.884 113.246L139.979 87.115C139.923 86.6072 139.756 86.1178 139.491 85.6812C139.225 85.2447 138.868 84.8715 138.443 84.588L119 71.6275V64.2775L127.698 69.496C128.368 69.9014 129.157 70.068 129.934 69.9685L151.91 67.2245C153.275 67.0605 154.594 66.6269 155.79 65.9491C156.985 65.2712 158.035 64.3625 158.876 63.2758C159.718 62.1891 160.336 60.9459 160.693 59.6186C161.05 58.2913 161.14 56.9062 160.958 55.5438C160.775 54.1814 160.324 52.8688 159.63 51.6822C158.936 50.4957 158.013 49.4588 156.915 48.6318C155.817 47.8048 154.566 47.2042 153.234 46.8649C151.902 46.5255 150.516 46.4542 149.156 46.655L134.004 48.818L117.688 35.763C117.066 35.2677 116.295 34.9986 115.5 35H113.554C114.814 32.8813 115.485 30.4649 115.5 28V3.5C115.5 2.57174 115.131 1.6815 114.475 1.02513C113.818 0.368749 112.928 0 112 0H105C100.36 0.0055575 95.9124 1.85109 92.6318 5.13177C89.3511 8.41245 87.5056 12.8604 87.5 17.5V28C87.5145 30.4649 88.1863 32.8813 89.446 35H87.5C87.3076 34.9988 87.1154 35.0152 86.926 35.049L65.926 38.549C65.3196 38.6493 64.7503 38.9075 64.2754 39.2976C63.8004 39.6878 63.4366 40.1961 63.2205 40.7715ZM63 108.5C62.9974 110.671 62.3232 112.788 61.0699 114.561C59.8167 116.333 58.0458 117.675 56 118.401V101.5H63V108.5ZM135.702 112H128.965L125.951 93.9225C125.86 93.378 125.642 92.8627 125.314 92.4187C124.986 91.9747 124.558 91.6144 124.064 91.3675L110.064 84.3675C109.653 84.1618 109.205 84.0393 108.747 84.0068C108.288 83.9743 107.827 84.0325 107.391 84.1781C106.955 84.3238 106.552 84.5539 106.204 84.8555C105.857 85.157 105.573 85.524 105.368 85.9355L95.7355 105.21L70 107.8V100.8L84.6615 97.965C85.3646 97.8318 86.0099 97.4862 86.5105 96.9749C87.0112 96.4637 87.3431 95.8112 87.4615 95.1055L90.4645 77H114.45L133.214 89.509L135.702 112ZM105 7H108.5V14H95.0985C95.825 11.9542 97.1667 10.1833 98.9394 8.93005C100.712 7.67682 102.829 7.00265 105 7ZM94.5 28V21H108.5V28C108.5 29.8565 107.763 31.637 106.45 32.9497C105.137 34.2625 103.357 35 101.5 35C99.6435 35 97.863 34.2625 96.5503 32.9497C95.2375 31.637 94.5 29.8565 94.5 28Z" fill="#1FAB5E"/>
<path id="Vector_4" opacity="0.4" d="M70 133C67.8361 133.009 65.7278 133.686 63.9636 134.939C62.1993 136.192 60.8653 137.96 60.144 140H38.5C37.5717 140 36.6815 140.369 36.0251 141.025C35.3687 141.682 35 142.572 35 143.5C35 144.428 35.3687 145.318 36.0251 145.975C36.6815 146.631 37.5717 147 38.5 147H60.144C60.8568 149.046 62.1885 150.819 63.9546 152.074C65.7207 153.329 67.8335 154.003 70 154.003C72.1665 154.003 74.2793 153.329 76.0454 152.074C77.8115 150.819 79.1432 149.046 79.856 147H178.5C179.428 147 180.318 146.631 180.975 145.975C181.631 145.318 182 144.428 182 143.5C182 142.572 181.631 141.682 180.975 141.025C180.318 140.369 179.428 140 178.5 140H79.856C79.1347 137.96 77.8007 136.192 76.0364 134.939C74.2722 133.686 72.1639 133.009 70 133ZM70 147C69.3078 147 68.6311 146.795 68.0555 146.41C67.4799 146.026 67.0313 145.479 66.7664 144.839C66.5015 144.2 66.4322 143.496 66.5673 142.817C66.7023 142.138 67.0356 141.515 67.5251 141.025C68.0146 140.536 68.6382 140.202 69.3172 140.067C69.9961 139.932 70.6998 140.002 71.3394 140.266C71.9789 140.531 72.5256 140.98 72.9101 141.556C73.2947 142.131 73.5 142.808 73.5 143.5C73.5 144.428 73.1313 145.318 72.4749 145.975C71.8185 146.631 70.9283 147 70 147Z" fill="#1FAB5E"/>
<path id="Vector_5" opacity="0.4" d="M192.5 129.5C193.428 129.5 194.318 129.131 194.975 128.475C195.631 127.819 196 126.928 196 126V70C196 69.0717 195.631 68.1815 194.975 67.5251C194.318 66.8687 193.428 66.5 192.5 66.5H178.5C177.572 66.5 176.682 66.8687 176.025 67.5251C175.369 68.1815 175 69.0717 175 70V126C175 126.928 175.369 127.819 176.025 128.475C176.682 129.131 177.572 129.5 178.5 129.5H192.5ZM182 101.5H189V108.5H182V101.5ZM189 94.5H182V87.5H189V94.5ZM189 122.5H182V115.5H189V122.5ZM182 73.5H189V80.5H182V73.5Z" fill="#1FAB5E"/>
<path id="Vector_6" opacity="0.6" d="M17.5 66.5H31.5C32.4283 66.5 33.3185 66.1313 33.9749 65.4749C34.6313 64.8185 35 63.9283 35 63C35 62.0717 34.6313 61.1815 33.9749 60.5251C33.3185 59.8687 32.4283 59.5 31.5 59.5H17.5C16.5717 59.5 15.6815 59.8687 15.0251 60.5251C14.3687 61.1815 14 62.0717 14 63C14 63.9283 14.3687 64.8185 15.0251 65.4749C15.6815 66.1313 16.5717 66.5 17.5 66.5Z" fill="#1FAB5E"/>
<path id="Vector_7" opacity="0.5" d="M17.5 80.5H31.5C32.4283 80.5 33.3185 80.1313 33.9749 79.4749C34.6313 78.8185 35 77.9283 35 77C35 76.0717 34.6313 75.1815 33.9749 74.5251C33.3185 73.8687 32.4283 73.5 31.5 73.5H17.5C16.5717 73.5 15.6815 73.8687 15.0251 74.5251C14.3687 75.1815 14 76.0717 14 77C14 77.9283 14.3687 78.8185 15.0251 79.4749C15.6815 80.1313 16.5717 80.5 17.5 80.5Z" fill="#1FAB5E"/>
<path id="Vector_8" opacity="0.4" d="M35 91C35 90.0717 34.6313 89.1815 33.9749 88.5251C33.3185 87.8687 32.4283 87.5 31.5 87.5H17.5C16.5717 87.5 15.6815 87.8687 15.0251 88.5251C14.3687 89.1815 14 90.0717 14 91C14 91.9283 14.3687 92.8185 15.0251 93.4749C15.6815 94.1313 16.5717 94.5 17.5 94.5H31.5C32.4283 94.5 33.3185 94.1313 33.9749 93.4749C34.6313 92.8185 35 91.9283 35 91Z" fill="#1FAB5E"/>
<path id="Vector_9" opacity="0.3" d="M31.5 105C31.5 104.072 31.1313 103.182 30.4749 102.525C29.8185 101.869 28.9283 101.5 28 101.5H17.5C16.5717 101.5 15.6815 101.869 15.0251 102.525C14.3687 103.182 14 104.072 14 105C14 105.928 14.3687 106.818 15.0251 107.475C15.6815 108.131 16.5717 108.5 17.5 108.5H28C28.9283 108.5 29.8185 108.131 30.4749 107.475C31.1313 106.818 31.5 105.928 31.5 105Z" fill="#1FAB5E"/>
<path id="Vector_10" opacity="0.2" d="M17.5 115.5C16.5717 115.5 15.6815 115.869 15.0251 116.525C14.3687 117.182 14 118.072 14 119C14 119.928 14.3687 120.818 15.0251 121.475C15.6815 122.131 16.5717 122.5 17.5 122.5H24.5C25.4283 122.5 26.3185 122.131 26.9749 121.475C27.6313 120.818 28 119.928 28 119C28 118.072 27.6313 117.182 26.9749 116.525C26.3185 115.869 25.4283 115.5 24.5 115.5H17.5Z" fill="#1FAB5E"/>
</g>
</svg>
