<svg width="210" height="210" viewBox="0 0 210 210" fill="none" xmlns="http://www.w3.org/2000/svg">
<g id="platform 1">
<path id="Vector" opacity="0.2" d="M9.84361 206.719H200.156C200.699 206.719 201.234 206.584 201.712 206.327C202.19 206.069 202.597 205.697 202.896 205.244C203.194 204.79 203.376 204.27 203.424 203.729C203.472 203.188 203.386 202.644 203.172 202.145L183.484 156.207C183.231 155.617 182.811 155.114 182.275 154.76C181.739 154.407 181.111 154.219 180.469 154.219H144.375C142.563 154.219 141.094 155.688 141.094 157.5C141.094 159.312 142.563 160.781 144.375 160.781H175.009C177.009 160.781 178.817 161.973 179.604 163.812L192.193 193.187C193.607 196.486 191.187 200.156 187.597 200.156H22.4025C18.8129 200.156 16.3928 196.486 17.8067 193.187L30.3953 163.812C31.1832 161.973 32.9909 160.781 34.9911 160.781H65.6249C67.437 160.781 68.9061 159.312 68.9061 157.5C68.9061 155.688 67.437 154.219 65.6249 154.219H29.5311C28.889 154.219 28.261 154.407 27.7249 154.76C27.1889 155.114 26.7684 155.617 26.5156 156.207L6.82814 202.145C6.61409 202.644 6.52726 203.188 6.57544 203.729C6.62362 204.27 6.80529 204.79 7.10418 205.244C7.40306 205.697 7.80981 206.069 8.28792 206.327C8.76604 206.584 9.30059 206.719 9.84361 206.719Z" fill="#1FAB5E"/>
<path id="Vector_2" opacity="0.4" d="M95.1562 127.969C95.1562 126.157 96.6253 124.688 98.4375 124.688C100.25 124.688 101.719 126.157 101.719 127.969V141.094C101.719 142.906 100.25 144.375 98.4375 144.375C96.6253 144.375 95.1562 142.906 95.1562 141.094V127.969Z" fill="#1FAB5E"/>
<path id="Vector_3" opacity="0.3" d="M95.1562 154.219C95.1562 152.407 96.6253 150.938 98.4375 150.938C100.25 150.938 101.719 152.407 101.719 154.219C101.719 156.031 100.25 157.5 98.4375 157.5C96.6253 157.5 95.1562 156.031 95.1562 154.219Z" fill="#1FAB5E"/>
<path id="Vector_4" opacity="0.15" d="M95.1562 167.344C95.1562 165.532 96.6253 164.062 98.4375 164.062C100.25 164.062 101.719 165.532 101.719 167.344V177.188C101.719 179 100.25 180.469 98.4375 180.469C96.6253 180.469 95.1562 179 95.1562 177.188V167.344Z" fill="#1FAB5E"/>
<path id="Vector_5" opacity="0.4" d="M108.281 127.969C108.281 126.157 109.75 124.688 111.562 124.688C113.375 124.688 114.844 126.157 114.844 127.969V144.375C114.844 146.187 113.375 147.656 111.562 147.656C109.75 147.656 108.281 146.187 108.281 144.375V127.969Z" fill="#1FAB5E"/>
<path id="Vector_6" opacity="0.15" d="M108.281 157.5C108.281 155.688 109.75 154.219 111.562 154.219C113.375 154.219 114.844 155.688 114.844 157.5V177.188C114.844 179 113.375 180.469 111.562 180.469C109.75 180.469 108.281 179 108.281 177.188V157.5Z" fill="#1FAB5E"/>
<path id="Vector_7" opacity="0.4" d="M121.406 134.531C121.406 132.719 122.875 131.25 124.688 131.25C126.5 131.25 127.969 132.719 127.969 134.531V157.5C127.969 159.312 126.5 160.781 124.688 160.781C122.875 160.781 121.406 159.312 121.406 157.5V134.531Z" fill="#1FAB5E"/>
<path id="Vector_8" opacity="0.3" d="M82.0312 170.625C82.0312 168.813 83.5003 167.344 85.3125 167.344C87.1247 167.344 88.5938 168.813 88.5938 170.625C88.5938 172.437 87.1247 173.906 85.3125 173.906C83.5003 173.906 82.0312 172.437 82.0312 170.625Z" fill="#1FAB5E"/>
<path id="Vector_9" opacity="0.4" d="M82.0312 131.25C82.0312 129.438 83.5003 127.969 85.3125 127.969C87.1247 127.969 88.5938 129.438 88.5938 131.25V157.5C88.5938 159.312 87.1247 160.781 85.3125 160.781C83.5003 160.781 82.0312 159.312 82.0312 157.5V131.25Z" fill="#1FAB5E"/>
<path id="Vector_10" opacity="0.3" d="M121.406 170.625C121.406 168.813 122.875 167.344 124.688 167.344C126.5 167.344 127.969 168.813 127.969 170.625C127.969 172.437 126.5 173.906 124.688 173.906C122.875 173.906 121.406 172.437 121.406 170.625Z" fill="#1FAB5E"/>
<path id="Vector_11" opacity="0.3" d="M157.5 13.125C156.63 13.125 155.795 13.4707 155.18 14.0861C154.564 14.7014 154.219 15.536 154.219 16.4062V36.0938C154.219 36.964 154.564 37.7986 155.18 38.4139C155.795 39.0293 156.63 39.375 157.5 39.375H167.344V45.9375H160.781C159.911 45.9375 159.076 46.2832 158.461 46.8986C157.846 47.5139 157.5 48.3485 157.5 49.2188V65.625C157.5 66.4952 157.846 67.3298 158.461 67.9452C159.076 68.5606 159.911 68.9062 160.781 68.9062H177.188C178.058 68.9062 178.892 68.5606 179.508 67.9452C180.123 67.3298 180.469 66.4952 180.469 65.625V59.0625H196.875C197.745 59.0625 198.58 58.7168 199.195 58.1014C199.811 57.4861 200.156 56.6515 200.156 55.7812V29.5312C200.156 28.661 199.811 27.8264 199.195 27.2111C198.58 26.5957 197.745 26.25 196.875 26.25H180.469V16.4062C180.469 15.536 180.123 14.7014 179.508 14.0861C178.892 13.4707 178.058 13.125 177.188 13.125H157.5ZM160.781 32.8125V19.6875H173.906V26.25H170.625C169.755 26.25 168.92 26.5957 168.305 27.2111C167.689 27.8264 167.344 28.661 167.344 29.5312V32.8125H160.781ZM173.906 62.3438H164.062V52.5H167.344V55.7812C167.344 56.6515 167.689 57.4861 168.305 58.1014C168.92 58.7168 169.755 59.0625 170.625 59.0625H173.906V62.3438ZM193.594 32.8125V52.5H173.906V32.8125H193.594Z" fill="#1FAB5E"/>
<path id="Vector_12" opacity="0.1" d="M114.844 29.5312C115.714 29.5312 116.549 29.1855 117.164 28.5702C117.779 27.9548 118.125 27.1202 118.125 26.25V6.5625C118.125 5.69226 117.779 4.85766 117.164 4.24231C116.549 3.62695 115.714 3.28125 114.844 3.28125H95.1562C94.286 3.28125 93.4514 3.62695 92.8361 4.24231C92.2207 4.85766 91.875 5.69226 91.875 6.5625V26.25C91.875 27.1202 92.2207 27.9548 92.8361 28.5702C93.4514 29.1855 94.286 29.5312 95.1562 29.5312H114.844ZM98.4375 9.84375H111.562V22.9688H98.4375V9.84375Z" fill="#1FAB5E"/>
<path id="Vector_13" opacity="0.1" d="M13.125 117.938H32.8125C33.6827 117.938 34.5173 117.592 35.1327 116.976C35.748 116.361 36.0938 115.526 36.0938 114.656V104.812H52.5C53.3702 104.812 54.2048 104.467 54.8202 103.851C55.4356 103.236 55.7812 102.401 55.7812 101.531V75.2812C55.7812 74.411 55.4356 73.5764 54.8202 72.9611C54.2048 72.3457 53.3702 72 52.5 72H26.25C25.3798 72 24.5452 72.3457 23.9298 72.9611C23.3145 73.5764 22.9688 74.411 22.9688 75.2812V91.6875H13.125C12.2548 91.6875 11.4202 92.0332 10.8048 92.6486C10.1895 93.2639 9.84375 94.0985 9.84375 94.9688V114.656C9.84375 115.526 10.1895 116.361 10.8048 116.976C11.4202 117.592 12.2548 117.938 13.125 117.938ZM29.5312 78.5625H49.2188V98.25H29.5312V78.5625ZM16.4062 98.25H22.9688V101.531C22.9688 102.401 23.3145 103.236 23.9298 103.851C24.5452 104.467 25.3798 104.812 26.25 104.812H29.5312V111.375H16.4062V98.25Z" fill="#1FAB5E"/>
<path id="Vector_14" opacity="0.3" d="M32.8125 45.9375H49.2188C50.089 45.9375 50.9236 45.5918 51.5389 44.9764C52.1543 44.3611 52.5 43.5265 52.5 42.6562V26.25C52.5 25.3798 52.1543 24.5452 51.5389 23.9298C50.9236 23.3145 50.089 22.9688 49.2188 22.9688H32.8125C31.9423 22.9688 31.1077 23.3145 30.4923 23.9298C29.877 24.5452 29.5312 25.3798 29.5312 26.25V42.6562C29.5312 43.5265 29.877 44.3611 30.4923 44.9764C31.1077 45.5918 31.9423 45.9375 32.8125 45.9375ZM36.0938 29.5312H45.9375V39.375H36.0938V29.5312Z" fill="#1FAB5E"/>
<path id="Vector_15" opacity="0.15" d="M154.219 101.719C153.349 101.719 152.514 102.064 151.899 102.68C151.283 103.295 150.938 104.13 150.938 105V118.125C150.938 118.995 151.283 119.83 151.899 120.445C152.514 121.061 153.349 121.406 154.219 121.406H167.344C168.214 121.406 169.049 121.061 169.664 120.445C170.279 119.83 170.625 118.995 170.625 118.125V105C170.625 104.13 170.279 103.295 169.664 102.68C169.049 102.064 168.214 101.719 167.344 101.719H154.219ZM164.062 114.844H157.5V108.281H164.062V114.844Z" fill="#1FAB5E"/>
<path id="Vector_16" opacity="0.4" d="M37.1509 173.869C37.8827 171.918 39.7483 170.625 41.8325 170.625H59.0628C60.875 170.625 62.3441 169.156 62.3441 167.344C62.3441 165.532 60.875 164.062 59.0628 164.062H36.0941C35.426 164.063 34.774 164.267 34.2249 164.647C33.6758 165.027 33.2558 165.566 33.0211 166.192L23.1774 192.442C22.9914 192.938 22.9284 193.472 22.9939 193.999C23.0594 194.525 23.2513 195.027 23.5534 195.463C23.8554 195.899 24.2585 196.255 24.7282 196.501C25.1979 196.746 25.7201 196.875 26.2503 196.875H183.75C184.281 196.875 184.803 196.746 185.272 196.501C185.742 196.255 186.145 195.899 186.447 195.463C186.749 195.027 186.941 194.525 187.007 193.999C187.072 193.472 187.009 192.938 186.823 192.442L176.98 166.192C176.745 165.566 176.325 165.027 175.776 164.647C175.227 164.267 174.575 164.063 173.907 164.062H150.938C149.126 164.062 147.657 165.532 147.657 167.344C147.657 169.156 149.126 170.625 150.938 170.625H168.168C170.252 170.625 172.118 171.918 172.85 173.869L176.483 183.557C177.708 186.826 175.292 190.312 171.801 190.312H38.1997C34.7087 190.312 32.2923 186.826 33.5181 183.557L37.1509 173.869Z" fill="#1FAB5E"/>
<g id="_215540600">
<path id="_215541680" fill-rule="evenodd" clip-rule="evenodd" d="M139.66 112.592C139.66 115.358 137.396 117.621 134.63 117.621H75.1664C72.3999 117.621 70.1367 115.358 70.1367 112.592V40.2589C70.1367 37.9166 72.0533 36 74.3958 36H134.63C137.396 36 139.66 38.2632 139.66 41.0295V42.5562L134.273 47.9421V42.855H75.5227V107.828H134.273V64.3913L139.66 59.0051V112.592ZM100.551 111.818H109.245C109.744 111.818 110.152 112.225 110.152 112.725C110.152 113.224 109.744 113.632 109.245 113.632H100.551C100.052 113.632 99.6446 113.224 99.6446 112.725C99.6446 112.225 100.052 111.818 100.551 111.818Z" fill="#1FAB5E"/>
<path id="_215541344" fill-rule="evenodd" clip-rule="evenodd" d="M111.828 72.9527L144.293 40.4876C145.85 38.9312 148.396 38.9312 149.953 40.4876C151.509 42.0438 151.509 44.5908 149.953 46.1471L117.487 78.6122L111.828 72.9527Z" fill="#1FAB5E"/>
<path id="_215541368" fill-rule="evenodd" clip-rule="evenodd" d="M110.546 74.2358L116.206 79.8952L106.965 83.4768L110.546 74.2358Z" fill="#1FAB5E"/>
<path id="_215541800" d="M108.777 85.925C108.777 84.9232 107.965 84.1111 106.963 84.1111C105.962 84.1111 105.149 84.9232 105.149 85.925V92.6324C105.149 94.0545 103.979 95.2246 102.557 95.2246C101.135 95.2246 99.9652 94.0545 99.9652 92.6324V87.8823C99.9652 84.4577 97.1698 81.6626 93.7453 81.6626C90.3207 81.6626 87.5254 84.4579 87.5254 87.8823V97.0383C87.5254 98.0402 88.3375 98.8523 89.3394 98.8523C90.341 98.8523 91.1531 98.0402 91.1531 97.0383V87.8823C91.1531 86.4603 92.3231 85.2901 93.7453 85.2901C95.1672 85.2901 96.3374 86.4602 96.3374 87.8823V92.6324C96.3374 96.057 99.1327 98.8523 102.557 98.8523C105.982 98.8523 108.777 96.057 108.777 92.6324V85.925Z" fill="#1FAB5E"/>
</g>
</g>
</svg>
