<svg width="216" height="217" viewBox="0 0 216 217" fill="none" xmlns="http://www.w3.org/2000/svg">
<g id="Group">
<g id="Group_2">
<g id="Group_3">
<g id="Group_4">
<g id="Group_5">
<g id="Group_6">
<g id="Group_7">
<path id="Vector" d="M61.5413 103.169C78.6881 103.169 92.5884 89.2682 92.5884 72.1214C92.5884 54.9745 78.6881 41.0742 61.5413 41.0742C44.3944 41.0742 30.4941 54.9745 30.4941 72.1214C30.4941 89.2682 44.3944 103.169 61.5413 103.169Z" fill="white"/>
<path id="Vector_2" opacity="0.4" d="M61.5393 95.4071C74.3994 95.4071 84.8246 84.9819 84.8246 72.1218C84.8246 59.2616 74.3994 48.8364 61.5393 48.8364C48.6791 48.8364 38.2539 59.2616 38.2539 72.1218C38.2539 84.9819 48.6791 95.4071 61.5393 95.4071Z" fill="#1FAB5E"/>
<path id="Vector_3" d="M61.5413 103.169C78.6881 103.169 92.5884 89.2682 92.5884 72.1214C92.5884 54.9745 78.6881 41.0742 61.5413 41.0742C44.3944 41.0742 30.4941 54.9745 30.4941 72.1214C30.4941 89.2682 44.3944 103.169 61.5413 103.169Z" stroke="#1FAB5E" stroke-width="5" stroke-miterlimit="10" stroke-linecap="round" stroke-linejoin="round"/>
</g>
</g>
</g>
<g id="Group_8">
<g id="Group_9">
<path id="Vector_4" d="M54.6947 80.9555H69.5823L67.3986 72.1215H55.7032L53.5195 63.2876H68.4072" stroke="white" stroke-width="5" stroke-miterlimit="10" stroke-linecap="round" stroke-linejoin="round"/>
<path id="Vector_5" d="M61.5508 80.9556V85.0579" stroke="white" stroke-width="5" stroke-miterlimit="10" stroke-linecap="round" stroke-linejoin="round"/>
<path id="Vector_6" d="M61.5508 59.1851V63.2874" stroke="white" stroke-width="5" stroke-miterlimit="10" stroke-linecap="round" stroke-linejoin="round"/>
</g>
</g>
</g>
<g id="Group_10">
<g id="Group_11">
<g id="Group_12">
<path id="Vector_7" d="M157.361 90.9334L146.546 85.7837C141.933 83.5871 137.068 81.9644 132.061 80.9518L104.906 75.4595C102.815 75.0367 101.354 73.1418 101.475 71.0125L101.509 70.4211C101.888 63.8023 107.785 58.8839 114.364 59.6995L141.862 63.1079L105.793 33.4543L70.8609 25.3706C64.7456 23.9554 61.1628 17.5969 63.1209 11.6333C63.9048 9.24475 66.3808 7.84763 68.8309 8.41113L106.07 16.9776L140.75 31.3312L190.471 61.716L184.343 88.2054L173.431 91.8886C168.154 93.6707 162.39 93.3282 157.361 90.9334Z" fill="white"/>
<path id="Vector_8" d="M157.361 90.9334L146.546 85.7837C141.933 83.5871 137.068 81.9644 132.06 80.9517L104.906 75.4595C102.815 75.0367 101.354 73.1418 101.475 71.0125L101.509 70.4211C101.888 63.8023 107.785 58.8839 114.364 59.6995L141.862 63.1079L105.793 33.4543L70.8609 25.3706C64.7456 23.9554 61.1628 17.5969 63.1209 11.6333C63.9048 9.24475 66.3808 7.84763 68.8309 8.41113L106.07 16.9776L140.75 31.3312L190.471 61.716L184.343 88.2054L173.431 91.8886C168.154 93.6707 162.39 93.3282 157.361 90.9334Z" stroke="#1FAB5E" stroke-width="5" stroke-miterlimit="10" stroke-linecap="round" stroke-linejoin="round"/>
<path id="Vector_9" d="M101.44 20.1213L96.8697 18.0996L83.4102 30.4786C79.2245 34.6643 72.4387 34.6643 68.253 30.4786C66.5511 28.7767 66.5511 26.0177 68.253 24.3158L87.4272 5.14054C89.5922 2.97552 92.8775 2.38976 95.6573 3.67305L110.866 10.6954L101.44 20.1213Z" fill="white"/>
<path id="Vector_10" d="M101.44 20.1213L96.8697 18.0996L83.4102 30.4786C79.2245 34.6643 72.4387 34.6643 68.253 30.4786C66.5511 28.7767 66.5511 26.0177 68.253 24.3158L87.4272 5.14054C89.5922 2.97552 92.8775 2.38976 95.6573 3.67305L110.866 10.6954L101.44 20.1213Z" stroke="#1FAB5E" stroke-width="5" stroke-miterlimit="10" stroke-linecap="round" stroke-linejoin="round"/>
<g id="Group_13">
<path id="Vector_11" d="M152.461 28.5376L111.71 5.07161C108.93 3.78833 105.645 4.37356 103.48 6.5391L84.3057 25.7143C82.6038 27.4162 82.6038 30.1753 84.3057 31.8772C88.4914 36.0629 95.2773 36.0629 99.4629 31.8772L109.116 22.2241L131.076 35.7167L152.461 28.5376Z" fill="white"/>
<path id="Vector_12" d="M152.461 28.5376L111.71 5.07161C108.93 3.78833 105.645 4.37356 103.48 6.5391L84.3057 25.7143C82.6038 27.4162 82.6038 30.1753 84.3057 31.8772C88.4914 36.0629 95.2773 36.0629 99.4629 31.8772L109.116 22.2241L131.076 35.7167L152.461 28.5376Z" fill="white" stroke="#1FAB5E" stroke-width="5" stroke-miterlimit="10" stroke-linecap="round" stroke-linejoin="round"/>
</g>
<g id="Group_14">
<path id="Vector_13" d="M106.798 38.2648L122.092 22.9704C122.937 22.1254 124.049 21.6054 125.242 21.5029L141.63 20.0872C143.028 19.9702 144.411 20.4313 145.457 21.3679L169.373 42.8018L197.613 38.5727C198.84 38.389 200.023 39.1041 200.44 40.2725C207.09 58.9184 205.898 76.0936 203.987 86.5679C203.77 87.7586 202.763 88.6408 201.553 88.6936L188.425 89.2669C183.354 89.4863 178.345 88.0556 174.181 85.1579C169.589 81.9636 163.248 76.6323 155.919 67.9717C147.112 57.5621 145.059 39.5931 145.059 39.5931L131.074 35.7148L121.953 44.8364C117.734 49.0552 110.873 49.0221 106.702 44.7412C104.946 42.941 105.02 40.0433 106.798 38.2648Z" fill="white"/>
</g>
<g id="Group_15">
<path id="Vector_14" d="M187.818 40.04L197.612 38.5736C198.839 38.3899 200.022 39.105 200.439 40.2734C207.089 58.9193 205.897 76.0946 203.986 86.5688C203.769 87.7595 202.762 88.6418 201.552 88.6945L188.424 89.2679C183.353 89.4873 178.344 88.0565 174.18 85.1588" stroke="#1FAB5E" stroke-width="5" stroke-miterlimit="10" stroke-linecap="round" stroke-linejoin="round"/>
<path id="Vector_15" d="M155.919 67.9717C147.112 57.5621 145.059 39.5931 145.059 39.5931L131.074 35.7148L121.953 44.8364C117.734 49.0552 110.874 49.0221 106.702 44.7412C104.946 42.941 105.019 40.0433 106.798 38.2648L122.092 22.9704C122.937 22.1254 124.05 21.6054 125.242 21.5029L141.631 20.0872C143.028 19.9702 144.411 20.4313 145.458 21.3679L169.373 42.8018" stroke="#1FAB5E" stroke-width="5" stroke-miterlimit="10" stroke-linecap="round" stroke-linejoin="round"/>
</g>
</g>
<path id="Vector_16" d="M169.373 42.8018L179.365 51.9332C180.805 53.2491 182.028 54.7927 182.926 56.5241C184.767 60.0723 186.776 66.2796 184.395 74.1542" stroke="#1FAB5E" stroke-width="5" stroke-miterlimit="10" stroke-linecap="round" stroke-linejoin="round"/>
</g>
<g id="Group_16">
<path id="Vector_17" d="M167.133 137.387C164.3 131.785 157.271 129.823 151.946 133.146L121.53 152.131L93.1116 150.967L86.0732 148.08L96.9112 139.633C102.14 135.558 102.832 127.91 98.4196 122.962L98.0253 122.52C96.6059 120.928 94.2324 120.622 92.4555 121.801L69.3704 137.119C65.1133 139.943 60.5261 142.236 55.7112 143.944L44.4224 147.951C39.1729 149.813 34.8542 153.647 32.3824 158.639L27.2715 168.959L41.6691 192.023L98.3125 178.35L132.984 163.978L165.374 143.703C167.505 142.369 168.267 139.63 167.133 137.387Z" fill="white"/>
<path id="Vector_18" d="M167.133 137.387C164.3 131.785 157.271 129.823 151.946 133.146L121.53 152.131L93.1116 150.967L86.0732 148.08L96.9113 139.633C102.14 135.558 102.832 127.91 98.4196 122.962L98.0253 122.52C96.6059 120.928 94.2324 120.622 92.4555 121.801L69.3704 137.119C65.1133 139.943 60.5261 142.236 55.7112 143.944L44.4224 147.951C39.1729 149.813 34.8542 153.647 32.3824 158.639L27.2715 168.959L41.6691 192.023L98.3125 178.35L132.984 163.978L165.374 143.703C167.505 142.369 168.267 139.63 167.133 137.387Z" stroke="#1FAB5E" stroke-width="5" stroke-miterlimit="10" stroke-linecap="round" stroke-linejoin="round"/>
<g id="Group_17">
<g id="Group_18">
<g id="Group_19">
<g id="Group_20">
<path id="Vector_19" opacity="0.8" d="M94.4122 155.253C88.6514 155.253 83.2834 152.074 80.4032 146.958L66.8144 122.82C63.9343 117.704 63.9343 111.347 66.8144 106.231L80.4037 82.0931C83.2834 76.977 88.6514 73.7983 94.4122 73.7983H121.59C127.351 73.7983 132.719 76.977 135.599 82.0931L149.188 106.231C152.068 111.347 152.068 117.704 149.188 122.82L135.599 146.958C132.719 152.074 127.351 155.253 121.59 155.253H94.4122Z" fill="white"/>
<path id="Vector_20" d="M94.4122 155.253C88.6514 155.253 83.2834 152.074 80.4032 146.958L66.8144 122.82C63.9343 117.704 63.9343 111.347 66.8144 106.231L80.4037 82.0931C83.2834 76.977 88.6514 73.7983 94.4122 73.7983H121.59C127.351 73.7983 132.719 76.977 135.599 82.0931L149.188 106.231C152.068 111.347 152.068 117.704 149.188 122.82L135.599 146.958C132.719 152.074 127.351 155.253 121.59 155.253H94.4122Z" stroke="#1FAB5E" stroke-width="5" stroke-miterlimit="10" stroke-linecap="round" stroke-linejoin="round"/>
</g>
<path id="Vector_21" opacity="0.9" d="M122.558 83.6167H93.4407C91.6849 83.6167 90.0658 84.5631 89.2048 86.0932L74.5412 112.14C73.7076 113.621 73.7076 115.429 74.5412 116.91L89.2048 142.957C90.0658 144.486 91.6849 145.433 93.4407 145.433H122.558C124.313 145.433 125.933 144.487 126.794 142.957L141.457 116.91C142.291 115.429 142.291 113.621 141.457 112.14L126.794 86.0932C125.932 84.5631 124.313 83.6167 122.558 83.6167Z" fill="#1FAB5E"/>
<path id="Vector_22" d="M119.944 94.5278H105.557V134.522" stroke="white" stroke-width="5" stroke-miterlimit="10" stroke-linecap="round" stroke-linejoin="round"/>
<path id="Vector_23" d="M96.7416 134.522L85.4844 114.525L96.7416 119.148V94.5278" stroke="white" stroke-width="5" stroke-miterlimit="10" stroke-linecap="round" stroke-linejoin="round"/>
<path id="Vector_24" d="M105.557 113.831H111.014" stroke="white" stroke-width="5" stroke-miterlimit="10" stroke-linecap="round" stroke-linejoin="round"/>
<g id="Group_21">
<path id="Vector_25" d="M119.945 104.078V134.522" stroke="white" stroke-width="5" stroke-miterlimit="10" stroke-linecap="round" stroke-linejoin="round"/>
<path id="Vector_26" d="M114.295 103.8H125.596L130.737 113.183" stroke="white" stroke-width="5" stroke-miterlimit="10" stroke-linecap="round" stroke-linejoin="round"/>
</g>
</g>
<path id="Vector_27" d="M134.027 158.482L138.689 156.68L139.452 138.409C139.452 132.49 144.251 127.691 150.17 127.691C152.577 127.691 154.528 129.642 154.528 132.049L154.529 159.166C154.529 162.228 152.62 164.965 149.748 166.023L134.028 171.811V158.482H134.027Z" fill="white"/>
<path id="Vector_28" d="M134.027 158.482L138.689 156.68L139.452 138.409C139.452 132.49 144.251 127.691 150.17 127.691C152.577 127.691 154.528 129.642 154.528 132.049L154.529 159.166C154.529 162.228 152.62 164.965 149.748 166.023L134.028 171.811V158.482H134.027Z" stroke="#1FAB5E" stroke-width="5" stroke-miterlimit="10" stroke-linecap="round" stroke-linejoin="round"/>
<g id="Group_22">
<path id="Vector_29" d="M92.0039 188.605L137.412 176.383C140.286 175.325 142.195 172.588 142.194 169.526L142.193 142.409C142.193 140.003 140.242 138.052 137.835 138.052C131.916 138.052 127.117 142.85 127.117 148.77V162.421L102.049 168.408L92.0039 188.605Z" fill="white"/>
<path id="Vector_30" d="M92.0039 188.605L137.412 176.383C140.286 175.325 142.195 172.588 142.194 169.526L142.193 142.409C142.193 140.003 140.242 138.052 137.835 138.052C131.916 138.052 127.117 142.85 127.117 148.77V162.421L102.049 168.408L92.0039 188.605Z" stroke="#1FAB5E" stroke-width="5" stroke-miterlimit="10" stroke-linecap="round" stroke-linejoin="round"/>
</g>
<g id="Group_23">
<path id="Vector_31" d="M117.411 149.438V171.068C117.411 172.263 116.992 173.417 116.221 174.333L105.634 186.922C104.728 187.994 103.424 188.646 102.022 188.723L69.9556 190.477L52.977 213.437C52.2396 214.434 50.8968 214.766 49.776 214.234C31.8898 205.751 20.5871 192.764 14.5318 184.007C13.8436 183.011 13.9321 181.675 14.7502 180.782L23.6281 171.094C27.0589 167.352 31.6124 164.822 36.6058 163.927C42.1115 162.939 50.3649 162.224 61.6712 163.166C75.2595 164.299 89.417 175.554 89.417 175.554L102.048 168.408V155.508C102.048 149.542 106.922 144.714 112.899 144.791C115.414 144.822 117.411 146.923 117.411 149.438Z" fill="white"/>
</g>
<path id="Vector_32" d="M33.4141 204.088C38.1063 207.771 43.5406 211.277 49.7769 214.235C50.8977 214.766 52.2405 214.435 52.9779 213.438L69.9565 190.478L102.023 188.724C103.425 188.647 104.729 187.995 105.635 186.923L116.222 174.334C116.993 173.418 117.412 172.264 117.412 171.069V149.439C117.412 146.924 115.415 144.823 112.9 144.792C106.923 144.715 102.049 149.543 102.049 155.509V168.409L89.4179 175.555C89.4179 175.555 75.2604 164.3 61.6721 163.167" stroke="#1FAB5E" stroke-width="5" stroke-miterlimit="10" stroke-linecap="round" stroke-linejoin="round"/>
<path id="Vector_33" d="M36.6057 163.928C31.6123 164.823 27.0587 167.353 23.628 171.094L14.75 180.783C13.9325 181.676 13.8435 183.012 14.5317 184.007C16.5032 186.859 19.0345 190.159 22.1646 193.606" stroke="#1FAB5E" stroke-width="5" stroke-miterlimit="10" stroke-linecap="round" stroke-linejoin="round"/>
</g>
<path id="Vector_34" d="M69.9614 190.477L56.4393 191.085C54.4906 191.173 52.5346 190.946 50.6749 190.357C46.8644 189.15 41.0544 186.181 37.1699 178.93" stroke="#1FAB5E" stroke-width="5" stroke-miterlimit="10" stroke-linecap="round" stroke-linejoin="round"/>
</g>
</g>
</g>
<g id="Group_24">
<path id="Vector_35" d="M151.35 114.522H182.25" stroke="#1FAB5E" stroke-width="5" stroke-miterlimit="10" stroke-linecap="round" stroke-linejoin="round"/>
<g id="Group_25">
<g id="Group_26">
<g id="Group_27">
<path id="Vector_36" d="M200.64 110.596L197.654 131.269H197.63C197.417 131.269 197.208 131.22 197.014 131.128L183.095 124.617C182.585 124.38 182.256 123.866 182.256 123.298V105.743C182.256 105.437 182.353 105.146 182.528 104.904L200.64 110.596Z" fill="#1FAB5E"/>
</g>
<path id="Vector_37" d="M213.001 105.744V123.299C213.001 123.866 212.671 124.38 212.162 124.618L198.243 131.129C198.049 131.222 197.84 131.27 197.627 131.27V107.989L212.71 104.876C212.894 105.123 213.001 105.423 213.001 105.744Z" fill="#DEDEDE"/>
<g id="Group_28">
<g id="Group_29">
<path id="Vector_38" d="M212.749 104.933L197.623 112.007L182.496 104.933C182.641 104.715 182.845 104.541 183.088 104.424L197.007 97.9131C197.395 97.7288 197.85 97.7288 198.239 97.9131L212.158 104.424C212.401 104.541 212.604 104.715 212.749 104.933Z" fill="white"/>
</g>
</g>
</g>
<path id="Vector_39" d="M212.746 104.937L212.751 104.935C212.744 104.924 212.734 104.918 212.727 104.908C212.72 104.898 212.714 104.887 212.707 104.877L212.701 104.878C212.559 104.689 212.378 104.531 212.159 104.426L198.24 97.915C197.852 97.7308 197.396 97.7308 197.008 97.915L183.089 104.426C182.859 104.537 182.667 104.703 182.523 104.906L182.522 104.906C182.521 104.907 182.52 104.909 182.518 104.911C182.512 104.92 182.503 104.926 182.497 104.935L182.503 104.938C182.342 105.174 182.25 105.452 182.25 105.745V123.301C182.25 123.868 182.58 124.382 183.089 124.62L197.008 131.131C197.202 131.223 197.411 131.272 197.624 131.272H197.648L197.649 131.269C197.853 131.265 198.054 131.22 198.24 131.131L212.159 124.62C212.668 124.383 212.998 123.869 212.998 123.301V105.746C212.998 105.449 212.904 105.173 212.746 104.937Z" stroke="#1FAB5E" stroke-width="5" stroke-miterlimit="10" stroke-linecap="round" stroke-linejoin="round"/>
</g>
</g>
<g id="Group_30">
<path id="Vector_40" d="M64.6566 114.523H33.7559" stroke="#1FAB5E" stroke-width="5" stroke-miterlimit="10" stroke-linecap="round" stroke-linejoin="round"/>
<g id="Group_31">
<g id="Group_32">
<g id="Group_33">
<path id="Vector_41" d="M21.3865 110.598L18.4003 131.27H18.376C18.1628 131.27 17.9543 131.222 17.7602 131.13L3.84074 124.619C3.33157 124.381 3.00195 123.867 3.00195 123.3V105.744C3.00195 105.439 3.09872 105.148 3.27362 104.905L21.3865 110.598Z" fill="#1FAB5E"/>
</g>
<path id="Vector_42" d="M33.7529 105.745V123.301C33.7529 123.868 33.4233 124.382 32.9141 124.62L18.9947 131.131C18.8006 131.223 18.5921 131.272 18.3789 131.272V107.99L33.4616 104.878C33.6463 105.124 33.7529 105.425 33.7529 105.745Z" fill="#DEDEDE"/>
<g id="Group_34">
<g id="Group_35">
<path id="Vector_43" d="M33.5053 104.935L18.3786 112.009L3.25195 104.935C3.39736 104.717 3.60123 104.543 3.8434 104.426L17.7629 97.915C18.151 97.7308 18.6063 97.7308 18.9944 97.915L32.9139 104.426C33.156 104.543 33.3599 104.717 33.5053 104.935Z" fill="white"/>
</g>
</g>
</g>
<path id="Vector_44" d="M33.5014 104.938L33.5066 104.935C33.4998 104.925 33.4895 104.918 33.4828 104.908C33.4755 104.899 33.4703 104.887 33.4631 104.877L33.4564 104.879C33.3151 104.689 33.134 104.532 32.9151 104.427L18.9957 97.9155C18.6076 97.7313 18.1522 97.7313 17.7641 97.9155L3.84465 104.427C3.61438 104.537 3.42241 104.703 3.27856 104.907L3.27752 104.906C3.27649 104.908 3.27545 104.91 3.2739 104.912C3.26769 104.921 3.25889 104.927 3.2532 104.936L3.25838 104.938C3.09745 105.174 3.00586 105.453 3.00586 105.746V123.301C3.00586 123.868 3.33548 124.382 3.84465 124.62L17.7641 131.131C17.9582 131.223 18.1667 131.272 18.3799 131.272H18.4042L18.4047 131.269C18.6091 131.266 18.8094 131.22 18.9957 131.132L32.9151 124.621C33.4243 124.383 33.7539 123.869 33.7539 123.302V105.746C33.7539 105.45 33.6597 105.173 33.5014 104.938Z" stroke="#1FAB5E" stroke-width="5" stroke-miterlimit="10" stroke-linecap="round" stroke-linejoin="round"/>
</g>
</g>
</g>
</g>
<path id="Vector_45" opacity="0.2" d="M191.433 179.634L185.482 173.684L179.532 179.634L185.482 185.585L191.433 179.634Z" stroke="#1FAB5E" stroke-width="5" stroke-miterlimit="10" stroke-linecap="round" stroke-linejoin="round"/>
<path id="Vector_46" opacity="0.4" d="M14.9407 151.225L8.99023 145.275L3.03976 151.225L8.99023 157.176L14.9407 151.225Z" stroke="#1FAB5E" stroke-width="5" stroke-miterlimit="10" stroke-linecap="round" stroke-linejoin="round"/>
<path id="Vector_47" opacity="0.3" d="M42.3919 22.201L36.4414 16.2505L30.4909 22.201L36.4414 28.1514L42.3919 22.201Z" stroke="#1FAB5E" stroke-width="5" stroke-miterlimit="10" stroke-linecap="round" stroke-linejoin="round"/>
<path id="Vector_48" opacity="0.4" d="M174.095 15.6089C176.81 15.6089 179.011 13.4081 179.011 10.6931C179.011 7.97822 176.81 5.77734 174.095 5.77734C171.381 5.77734 169.18 7.97822 169.18 10.6931C169.18 13.4081 171.381 15.6089 174.095 15.6089Z" stroke="#1FAB5E" stroke-width="5" stroke-miterlimit="10" stroke-linecap="round" stroke-linejoin="round"/>
<path id="Vector_49" opacity="0.6" d="M154.826 199.206C157.541 199.206 159.742 197.005 159.742 194.29C159.742 191.575 157.541 189.374 154.826 189.374C152.111 189.374 149.91 191.575 149.91 194.29C149.91 197.005 152.111 199.206 154.826 199.206Z" stroke="#1FAB5E" stroke-width="5" stroke-miterlimit="10" stroke-linecap="round" stroke-linejoin="round"/>
</g>
</svg>
