<svg width="280" height="280" viewBox="0 0 280 280" fill="none" xmlns="http://www.w3.org/2000/svg">
<rect width="280" height="280" fill="#B9C4E1"/>
<path fill-rule="evenodd" clip-rule="evenodd" d="M280 232.184V280H0V234.073C11.119 226.461 22.8828 219.721 35.1926 213.953C50.5637 205.884 69.1871 199.597 89.9197 195.692C96.8399 194.247 103.865 193.088 110.982 192.227V184.168C101.146 175.456 93.4424 162.476 89.1772 147.098C88.8073 147.274 88.4591 147.428 88.0674 147.494C83.0842 148.33 77.7092 139.046 76.0771 126.748C74.4233 114.45 77.1217 103.78 82.1049 102.922C83.2147 102.724 84.3681 103.076 85.4779 103.824L81.822 79.4045C81.1692 74.9385 80.5164 70.2305 82.1267 66.0286C83.737 61.8046 88.4591 58.4606 92.6373 60.0446C90.9834 51.4866 100.319 45.1727 108.479 42.3347C122.145 37.5827 136.79 35.1627 151.109 37.0327C165.428 38.9027 179.42 45.3047 189.082 56.1726C192.128 59.6046 194.761 63.5206 196.219 67.8985C199.027 76.3245 197.242 85.5204 195.436 94.2324C195.153 95.5965 194.87 96.9552 194.587 98.3138L194.586 98.3195C194.304 99.6759 194.021 101.032 193.739 102.394L194.065 104.572C195.48 103.274 196.938 102.658 198.396 102.9C203.357 103.736 206.055 114.428 204.423 126.726C202.77 139.046 197.416 148.33 192.433 147.472C192.041 147.406 191.671 147.252 191.323 147.076C187.058 162.454 179.355 175.434 169.519 184.146V191.959C210.053 196.485 247.667 210.68 280 232.184Z" fill="white"/>
</svg>
