<svg width="24" height="24" viewBox="0 0 24 24" fill="none" xmlns="http://www.w3.org/2000/svg">
<g clip-path="url(#clip0_9714_36462)">
<mask id="mask0_9714_36462" style="mask-type:luminance" maskUnits="userSpaceOnUse" x="0" y="0" width="24" height="24">
<path d="M24 12C24 5.37258 18.6274 0 12 0C5.37258 0 0 5.37258 0 12C0 18.6274 5.37258 24 12 24C18.6274 24 24 18.6274 24 12Z" fill="white"/>
</mask>
<g mask="url(#mask0_9714_36462)">
<path d="M24 12C24 5.37258 18.6274 0 12 0C5.37258 0 0 5.37258 0 12C0 18.6274 5.37258 24 12 24C18.6274 24 24 18.6274 24 12Z" fill="white"/>
<mask id="mask1_9714_36462" style="mask-type:luminance" maskUnits="userSpaceOnUse" x="0" y="0" width="24" height="24">
<path d="M12 24C18.6274 24 24 18.6274 24 12C24 5.37258 18.6274 0 12 0C5.37258 0 0 5.37258 0 12C0 18.6274 5.37258 24 12 24Z" fill="white"/>
</mask>
<g mask="url(#mask1_9714_36462)">
<path d="M0 0H24V24H0V0Z" fill="white"/>
<path d="M12 0H0V12.9338H12V0Z" fill="#231D9A"/>
<path d="M7.75134 3.16859L8.6543 2.26562L7.75134 1.36266L6.84837 2.26563L7.75134 3.16859Z" fill="white"/>
<path d="M7.75134 6.82484L8.6543 5.92188L7.75134 5.01891L6.84837 5.92188L7.75134 6.82484Z" fill="white"/>
<path d="M7.75134 10.4733L8.6543 9.57031L7.75134 8.66735L6.84837 9.57031L7.75134 10.4733Z" fill="white"/>
<path d="M2.93493 3.16859L3.83789 2.26562L2.93493 1.36266L2.03197 2.26562L2.93493 3.16859Z" fill="white"/>
<path d="M2.93493 6.82484L3.83789 5.92188L2.93493 5.01891L2.03197 5.92187L2.93493 6.82484Z" fill="white"/>
<path d="M2.93493 10.4733L3.83789 9.57031L2.93493 8.66735L2.03197 9.57031L2.93493 10.4733Z" fill="white"/>
<path d="M10.1595 4.99671L11.0625 4.09375L10.1595 3.19079L9.25658 4.09375L10.1595 4.99671Z" fill="white"/>
<path d="M10.1595 1.34827L11.0625 0.445312L10.1595 -0.457649L9.25658 0.445313L10.1595 1.34827Z" fill="white"/>
<path d="M10.1595 8.64515L11.0625 7.74219L10.1595 6.83923L9.25658 7.74219L10.1595 8.64515Z" fill="white"/>
<path d="M10.1595 12.3014L11.0625 11.3984L10.1595 10.4955L9.25658 11.3984L10.1595 12.3014Z" fill="white"/>
<path d="M5.34313 4.99671L6.24609 4.09375L5.34313 3.19079L4.44017 4.09375L5.34313 4.99671Z" fill="white"/>
<path d="M5.34313 8.64515L6.24609 7.74219L5.34313 6.83923L4.44017 7.74219L5.34313 8.64515Z" fill="white"/>
<path d="M5.34313 12.3014L6.24609 11.3984L5.34313 10.4955L4.44017 11.3984L5.34313 12.3014Z" fill="white"/>
<path d="M0.528679 4.99671L1.43164 4.09375L0.52868 3.19079L-0.374282 4.09375L0.528679 4.99671Z" fill="white"/>
<path d="M0.528679 8.64515L1.43164 7.74219L0.528679 6.83923L-0.374282 7.74219L0.528679 8.64515Z" fill="white"/>
<path d="M0.528679 12.3014L1.43164 11.3984L0.52868 10.4955L-0.374282 11.3984L0.528679 12.3014Z" fill="white"/>
<path d="M29.7182 -0.125H12V1.74008H29.7182V-0.125Z" fill="#F0263C"/>
<path d="M25.0555 3.60938H12V5.47445H25.0555V3.60938Z" fill="#F0263C"/>
<path d="M25.0555 7.33594H12V9.20101H25.0555V7.33594Z" fill="#F0263C"/>
<path d="M29.7182 11.0703H12V12.9354H29.7182V11.0703Z" fill="#F0263C"/>
<path d="M29.625 14.7969H0.25V16.662H29.625V14.7969Z" fill="#F0263C"/>
<path d="M29.625 18.5312H0.25V20.3963H29.625V18.5312Z" fill="#F0263C"/>
<path d="M29.625 22.2578H0.25V24.1229H29.625V22.2578Z" fill="#F0263C"/>
</g>
</g>
</g>
<defs>
<clipPath id="clip0_9714_36462">
<rect width="24" height="24" fill="white"/>
</clipPath>
</defs>
</svg>
