<svg width="25" height="24" viewBox="0 0 25 24" fill="none" xmlns="http://www.w3.org/2000/svg">
<g id="us.svg" clip-path="url(#clip0_1915_4089)">
<g id="Clip path group">
<mask id="mask0_1915_4089" style="mask-type:luminance" maskUnits="userSpaceOnUse" x="0" y="0" width="25" height="24">
<g id="clip0_197_6941">
<path id="Vector" d="M24.8242 12C24.8242 5.37258 19.4516 0 12.8242 0C6.1968 0 0.824219 5.37258 0.824219 12C0.824219 18.6274 6.1968 24 12.8242 24C19.4516 24 24.8242 18.6274 24.8242 12Z" fill="white"/>
</g>
</mask>
<g mask="url(#mask0_1915_4089)">
<g id="Group">
<path id="Vector_2" d="M24.8242 12C24.8242 5.37258 19.4516 0 12.8242 0C6.1968 0 0.824219 5.37258 0.824219 12C0.824219 18.6274 6.1968 24 12.8242 24C19.4516 24 24.8242 18.6274 24.8242 12Z" fill="white"/>
<g id="Clip path group_2">
<mask id="mask1_1915_4089" style="mask-type:luminance" maskUnits="userSpaceOnUse" x="0" y="0" width="25" height="24">
<g id="mask0_197_6941">
<path id="Vector_3" d="M12.8242 24C19.4516 24 24.8242 18.6274 24.8242 12C24.8242 5.37258 19.4516 0 12.8242 0C6.1968 0 0.824219 5.37258 0.824219 12C0.824219 18.6274 6.1968 24 12.8242 24Z" fill="white"/>
</g>
</mask>
<g mask="url(#mask1_1915_4089)">
<g id="Group_2">
<path id="Vector_4" d="M0.824219 0H24.8242V24H0.824219V0Z" fill="white"/>
<path id="Vector_5" d="M12.8242 0H0.824219V12.9338H12.8242V0Z" fill="#231D9A"/>
<path id="Vector_6" d="M8.57751 3.16999L9.48047 2.26703L8.57751 1.36407L7.67455 2.26703L8.57751 3.16999Z" fill="white"/>
<path id="Vector_7" d="M8.57751 6.82203L9.48047 5.91907L8.57751 5.01611L7.67455 5.91907L8.57751 6.82203Z" fill="white"/>
<path id="Vector_8" d="M8.57751 10.4741L9.48047 9.57111L8.57751 8.66814L7.67455 9.57111L8.57751 10.4741Z" fill="white"/>
<path id="Vector_9" d="M3.7611 3.16999L4.66406 2.26703L3.7611 1.36407L2.85814 2.26703L3.7611 3.16999Z" fill="white"/>
<path id="Vector_10" d="M3.7611 6.82203L4.66406 5.91907L3.7611 5.01611L2.85814 5.91907L3.7611 6.82203Z" fill="white"/>
<path id="Vector_11" d="M3.7611 10.4741L4.66406 9.57111L3.7611 8.66814L2.85814 9.57111L3.7611 10.4741Z" fill="white"/>
<path id="Vector_12" d="M10.9838 4.99592L11.8867 4.09296L10.9838 3.19L10.0808 4.09296L10.9838 4.99592Z" fill="white"/>
<path id="Vector_13" d="M10.9838 1.34425L11.8867 0.441284L10.9838 -0.461677L10.0808 0.441285L10.9838 1.34425Z" fill="white"/>
<path id="Vector_14" d="M10.9838 8.64796L11.8867 7.745L10.9838 6.84203L10.0808 7.745L10.9838 8.64796Z" fill="white"/>
<path id="Vector_15" d="M10.9838 12.3L11.8867 11.397L10.9838 10.4941L10.0808 11.397L10.9838 12.3Z" fill="white"/>
<path id="Vector_16" d="M6.16735 4.99592L7.07031 4.09296L6.16735 3.19L5.26439 4.09296L6.16735 4.99592Z" fill="white"/>
<path id="Vector_17" d="M6.16735 8.64796L7.07031 7.745L6.16735 6.84203L5.26439 7.745L6.16735 8.64796Z" fill="white"/>
<path id="Vector_18" d="M6.16735 12.3L7.07031 11.397L6.16735 10.4941L5.26439 11.397L6.16735 12.3Z" fill="white"/>
<path id="Vector_19" d="M1.35095 4.99592L2.25391 4.09296L1.35095 3.19L0.447984 4.09296L1.35095 4.99592Z" fill="white"/>
<path id="Vector_20" d="M1.35095 8.64796L2.25391 7.745L1.35094 6.84203L0.447984 7.74499L1.35095 8.64796Z" fill="white"/>
<path id="Vector_21" d="M1.35095 12.3L2.25391 11.397L1.35095 10.4941L0.447984 11.397L1.35095 12.3Z" fill="white"/>
<path id="Vector_22" d="M30.5424 -0.123047H12.8242V1.74203H30.5424V-0.123047Z" fill="#F0263C"/>
<path id="Vector_23" d="M25.8798 3.60718H12.8242V5.47226H25.8798V3.60718Z" fill="#F0263C"/>
<path id="Vector_24" d="M25.8798 7.33722H12.8242V9.2023H25.8798V7.33722Z" fill="#F0263C"/>
<path id="Vector_25" d="M30.5424 11.0674H12.8242V12.9325H30.5424V11.0674Z" fill="#F0263C"/>
<path id="Vector_26" d="M30.4492 14.7977H1.07422V16.6627H30.4492V14.7977Z" fill="#F0263C"/>
<path id="Vector_27" d="M30.4492 18.5277H1.07422V20.3928H30.4492V18.5277Z" fill="#F0263C"/>
<path id="Vector_28" d="M30.4492 22.2579H1.07422V24.123H30.4492V22.2579Z" fill="#F0263C"/>
</g>
</g>
</g>
</g>
</g>
</g>
</g>
<defs>
<clipPath id="clip0_1915_4089">
<rect width="24" height="24" fill="white" transform="translate(0.824219)"/>
</clipPath>
</defs>
</svg>
