<svg class="icon" style="width: 1em;height: 1em;vertical-align: middle;fill: currentColor;overflow: hidden;" viewBox="0 0 1024 1024" version="1.1" xmlns="http://www.w3.org/2000/svg" p-id="532">
<path d="M878.592 144.384h-0.0512c-5.376-37.2224-29.0816-45.4656-62.9248-46.3872-183.9616-4.9152-327.6288 68.4032-434.7392 217.7024-16.3328 22.784-40.3456 43.4688-65.3824 55.9616-81.3568 40.704-142.08 100.5056-181.1968 181.8624-4.9152 10.2912-3.4816 28.8256 3.0208 37.632 4.7104 6.4 23.5008 6.4512 34.5088 3.5328 32.1024-8.5504 63.0272-22.1696 95.3856-29.2352 11.4176-2.5088 28.2112 5.12 38.2464 13.3632 53.6064 43.9808 100.6592 98.7648 159.8464 132.4032 74.9568 42.5984 91.5968 96.1536 70.5536 172.8-3.2256 11.8272 2.6112 34.1504 11.264 38.9632 8.96 5.0176 29.5424-1.5872 39.8336-9.6768 66.816-52.48 111.5136-121.1904 130.6112-203.4688 9.1648-39.6288 28.6208-68.7616 54.528-98.4064 50.3808-57.7024 83.0464-109.8752 101.3248-174.1824 0.1024-0.1024 0.1536-0.2048 0.256-0.256 43.2128-126.7712 4.9152-292.608 4.9152-292.608z m-239.2576 353.1264c-56.8832 6.7072-102.656-30.464-109.1072-88.6784-6.1952-55.9104 31.6928-106.0352 85.9648-113.664 54.0672-7.6288 107.8272 34.6624 114.4832 90.0608 6.7584 56.9856-32.5632 105.3696-91.3408 112.2816z" fill="#505587" p-id="533"></path><path d="M409.9584 807.7824c22.5792-27.9552 9.472-82.9952-21.8624-108.288-0.1024-0.1024-0.256-0.1536-0.3584-0.256l-0.3072-0.3072c-31.3344-25.2928-87.9104-26.5728-110.4896 1.3824-24.7808 30.6688-50.7392 106.1888-65.6896 162.9184-8.0384 30.5664 25.8048 57.7536 53.9136 43.264 52.736-27.136 121.1904-69.5296 144.7936-98.7136z" fill="#505587" p-id="534"></path>
</svg>