<svg width="493" height="240" viewBox="0 0 493 240" fill="none" xmlns="http://www.w3.org/2000/svg">
<path d="M300.057 52.3291C308.476 18.4031 337.8 3.56126 365.553 19.1789C393.306 34.7965 408.979 74.9595 400.56 108.885C392.14 142.811 362.817 157.653 335.064 142.036C307.31 126.418 291.637 86.2551 300.057 52.3291Z" fill="url(#paint0_radial_5702_6828)" fill-opacity="0.5"/>
<path d="M300.418 52.4089C304.601 35.5512 313.966 23.4737 325.696 17.5368C337.425 11.5998 351.572 11.7772 365.363 19.5375C392.971 35.0735 408.574 75.057 400.199 108.806C396.015 125.663 386.65 137.741 374.921 143.678C363.191 149.615 349.044 149.437 335.253 141.677C307.645 126.141 292.042 86.1576 300.418 52.4089Z" stroke="url(#paint1_linear_5702_6828)" stroke-opacity="0.2" stroke-width="0.776366"/>
<g style="mix-blend-mode:lighten" filter="url(#filter0_f_5702_6828)">
<ellipse cx="83.1617" cy="105.946" rx="83.1617" ry="105.946" transform="matrix(0.363538 0.931579 -0.892225 0.451592 415.957 -41.2188)" fill="url(#paint2_radial_5702_6828)" fill-opacity="0.4"/>
</g>
<path d="M313.28 57.9748C318.839 32.3056 339.928 21.6317 360.383 34.1339C380.839 46.6361 392.914 77.5802 387.355 103.249C381.796 128.919 360.707 139.592 340.252 127.09C319.796 114.588 307.721 83.644 313.28 57.9748Z" fill="url(#paint3_radial_5702_6828)"/>
<path d="M458.46 -55.3242C502.957 -55.34 531.015 -40.1148 540.568 -15.6367C550.114 8.82572 541.244 42.7028 511.444 80.2699C481.637 117.846 436.589 151.914 387.826 176.595C339.066 201.275 286.66 216.533 242.166 216.549C197.669 216.565 169.611 201.339 160.058 176.861C150.512 152.399 159.382 118.522 189.182 80.9547C218.989 43.3786 264.037 9.31046 312.8 -15.3705C361.56 -40.05 413.966 -55.3083 458.46 -55.3242Z" stroke="url(#paint4_linear_5702_6828)" stroke-width="1.29394"/>
<path d="M460.995 -49.7096C505.597 -49.7255 533.83 -34.4626 543.453 -9.80321C553.074 14.8531 544.104 48.9383 514.211 86.6229C484.316 124.309 439.168 158.443 390.335 183.16C341.502 207.876 288.998 223.168 244.397 223.184C199.795 223.2 171.562 207.937 161.939 183.278C152.317 158.622 161.287 124.536 191.18 86.8517C221.075 49.1653 266.223 15.0316 315.057 -9.68501C363.89 -34.4013 416.394 -49.6938 460.995 -49.7096Z" stroke="url(#paint5_linear_5702_6828)" stroke-width="0.258789"/>
<path d="M476.134 -73.5264C527.835 -72.6131 560.72 -53.8287 572.232 -24.3281C583.739 5.15871 573.952 45.5028 539.93 89.7801C505.901 134.069 454.111 173.837 397.861 202.307C341.614 230.776 280.974 247.914 229.274 247.001C177.573 246.088 144.689 227.303 133.176 197.803C121.669 168.316 131.457 127.972 165.478 83.6945C199.508 39.4059 251.297 -0.36243 307.547 -28.8328C363.794 -57.3018 424.435 -74.4397 476.134 -73.5264Z" stroke="url(#paint6_linear_5702_6828)" stroke-width="1.29394"/>
<path d="M476.134 -73.5264C527.835 -72.6131 560.72 -53.8287 572.232 -24.3281C583.739 5.15871 573.952 45.5028 539.93 89.7801C505.901 134.069 454.111 173.837 397.861 202.307C341.614 230.776 280.974 247.914 229.274 247.001C177.573 246.088 144.689 227.303 133.176 197.803C121.669 168.316 131.457 127.972 165.478 83.6945C199.508 39.4059 251.297 -0.36243 307.547 -28.8328C363.794 -57.3018 424.435 -74.4397 476.134 -73.5264Z" stroke="url(#paint7_linear_5702_6828)" stroke-opacity="0.2" stroke-width="1.29394"/>
<path d="M478.275 -67.9538C530.924 -64.5956 565.091 -42.6126 577.866 -9.87602C590.637 22.8509 582.069 66.4267 549.007 113.14C515.934 159.868 464.632 200.851 408.395 229.315C352.16 257.778 291.051 273.691 238.4 270.332C185.752 266.974 151.585 244.991 138.81 212.255C126.038 179.528 134.606 135.952 167.669 89.2383C200.742 42.5107 252.044 1.52724 308.281 -26.9366C364.516 -55.3993 425.624 -71.3121 478.275 -67.9538Z" stroke="url(#paint8_linear_5702_6828)" stroke-width="1.29394"/>
<rect width="2.05646" height="2.05646" transform="matrix(-0.487994 0.924568 -0.929601 -0.207065 405.473 126.93)" fill="#00F0FF" fill-opacity="0.5"/>
<rect width="0.845265" height="0.845265" transform="matrix(-0.487994 0.924568 -0.929601 -0.207065 371.074 204.75)" fill="#00F0FF"/>
<rect width="1.11006" height="1.11006" transform="matrix(0.487994 -0.924568 -0.929601 -0.207065 203.242 197.016)" fill="#00F0FF"/>
<rect width="1.28242" height="1.28242" transform="matrix(-0.487994 0.924568 -0.929601 -0.207065 332.383 221.516)" fill="#00F0FF"/>
<rect width="0.757622" height="0.757622" transform="matrix(-0.487994 0.924568 -0.929601 -0.207065 336.555 203.492)" fill="#00F0FF"/>
<rect width="2.05646" height="2.05646" transform="matrix(-0.487994 0.924568 -0.929601 -0.207065 383.672 89.1406)" fill="#00F0FF"/>
<rect width="2.05646" height="2.05646" transform="matrix(-0.487994 0.924568 -0.929601 -0.207065 456.379 62.8438)" fill="#0500FF" fill-opacity="0.5"/>
<rect width="1.43726" height="1.43726" transform="matrix(-0.487994 0.924568 -0.929601 -0.207065 446.266 124.336)" fill="#3DFFFB"/>
<rect width="2.6734" height="2.6734" transform="matrix(-0.487994 0.924568 -0.929601 -0.207065 321.508 15.7109)" fill="#0500FF" fill-opacity="0.5"/>
<rect width="2.85441" height="2.85441" transform="matrix(-0.487998 0.924566 -0.929602 -0.20706 184.922 45.9844)" fill="#0066FF" fill-opacity="0.5"/>
<rect width="5.76403" height="5.76403" transform="matrix(-0.487993 0.92457 -0.929601 -0.207068 137.391 99.0859)" fill="#0066FF" fill-opacity="0.5"/>
<rect width="2.6825" height="2.6825" transform="matrix(0.487994 -0.924569 -0.929601 -0.207065 166.254 185.586)" fill="#0066FF" fill-opacity="0.5"/>
<rect width="2.85441" height="2.85441" transform="matrix(-0.487998 0.924566 -0.929602 -0.20706 101.512 175.922)" fill="#0066FF" fill-opacity="0.5"/>
<rect width="1.99835" height="1.99835" transform="matrix(-0.487989 0.924572 -0.929599 -0.207072 230.531 19.0391)" fill="#0500FF" fill-opacity="0.5"/>
<rect width="2.44476" height="2.44476" transform="matrix(0.806637 0.39629 -0.672059 0.860596 248.594 115.242)" fill="#0066FF" fill-opacity="0.5"/>
<rect width="2.00406" height="1.81631" transform="matrix(0.887125 0.197611 -0.513828 0.973529 280.269 151.992)" fill="#00D1FF"/>
<rect width="2.29751" height="2.29751" transform="matrix(-0.806628 -0.396307 -0.672047 0.860607 375.113 123.422)" fill="#001AFF" fill-opacity="0.5"/>
<rect width="2.44475" height="2.44475" transform="matrix(0.806628 0.396307 -0.672047 0.860607 339.617 174.516)" fill="#0066FF" fill-opacity="0.5"/>
<rect width="2.44476" height="2.44476" transform="matrix(0.806637 0.39629 -0.672059 0.860596 191.789 127.766)" fill="#0066FF" fill-opacity="0.5"/>
<rect width="1.85208" height="1.67857" transform="matrix(0.887127 0.197604 -0.513834 0.973526 250.82 201)" fill="#0500FF" fill-opacity="0.5"/>
<rect width="1.71039" height="1.71039" transform="matrix(0.80664 0.396283 -0.672063 0.860592 241.187 80.8047)" fill="#0500FF" fill-opacity="0.5"/>
<rect width="3.18099" height="3.18099" transform="matrix(0.806628 0.396307 -0.672047 0.860607 218.621 80.0547)" fill="#0500FF" fill-opacity="0.5"/>
<rect width="1.35681" height="1.3823" transform="matrix(-0.492701 0.933464 -0.920911 -0.205119 389.582 122.5)" fill="#00FFF0" fill-opacity="0.6"/>
<rect width="1.5286" height="1.55732" transform="matrix(-0.492691 0.933466 -0.920906 -0.205129 438.558 39.3984)" fill="#00FFF0"/>
<rect width="1.68735" height="1.7194" transform="matrix(0.492691 -0.933466 -0.920906 -0.205129 443.785 147.594)" fill="#00FFF0"/>
<rect width="1.79548" height="1.82959" transform="matrix(-0.492691 0.933466 -0.920906 -0.205129 400.925 165.664)" fill="#00FFF0"/>
<rect width="1.79548" height="1.82959" transform="matrix(-0.492684 0.933468 -0.920902 -0.205136 302.324 81.3281)" fill="#00FFF0" fill-opacity="0.5"/>
<rect width="0.981125" height="1.00009" transform="matrix(-0.492691 0.933466 -0.920906 -0.205129 356.789 67.3281)" fill="#00FFF0" fill-opacity="0.5"/>
<rect width="1.81287" height="1.81287" transform="matrix(0.139086 0.874166 -1.04065 0.365426 413.578 14.1875)" fill="#0500FF" fill-opacity="0.5"/>
<rect width="1.25388" height="1.27744" transform="matrix(-0.492691 0.933466 -0.920906 -0.205129 414.301 55.6406)" fill="#00D1FF" fill-opacity="0.6"/>
<rect width="3.3781" height="3.44229" transform="matrix(-0.492691 0.933466 -0.920906 -0.205129 406.5 44.4688)" fill="#6100FF" fill-opacity="0.5"/>
<g opacity="0.5">
<rect width="1.35682" height="1.3823" transform="matrix(-0.492691 0.933466 -0.920906 -0.205129 435.503 177.188)" fill="#00FFF0" fill-opacity="0.6"/>
<rect width="1.5286" height="1.55732" transform="matrix(-0.492699 0.933464 -0.92091 -0.20512 484.48 94.0781)" fill="#00FFF0"/>
<rect width="1.68735" height="1.7194" transform="matrix(0.492691 -0.933466 -0.920906 -0.205129 489.707 202.273)" fill="#00FFF0"/>
<rect width="1.79548" height="1.82959" transform="matrix(-0.492683 0.933468 -0.920902 -0.205136 446.847 220.352)" fill="#00FFF0"/>
<rect width="1.79548" height="1.82959" transform="matrix(-0.492691 0.933466 -0.920906 -0.205129 348.238 136.016)" fill="#00FFF0" fill-opacity="0.5"/>
<rect width="0.981125" height="1.00009" transform="matrix(-0.492691 0.933466 -0.920906 -0.205129 402.71 122.016)" fill="#00FFF0" fill-opacity="0.5"/>
<rect width="1.81287" height="1.81287" transform="matrix(0.139086 0.874166 -1.04065 0.365426 459.5 68.875)" fill="#0500FF" fill-opacity="0.5"/>
<rect width="1.25388" height="1.27743" transform="matrix(-0.492691 0.933466 -0.920906 -0.205129 460.222 110.328)" fill="#00D1FF" fill-opacity="0.6"/>
<rect width="3.3781" height="3.44228" transform="matrix(-0.492687 0.933467 -0.920904 -0.205133 452.421 99.1562)" fill="#6100FF" fill-opacity="0.5"/>
</g>
<path d="M374.077 135.855L372.26 143.53L366.04 139.923L367.857 132.248L374.077 135.855Z" fill="url(#paint9_linear_5702_6828)"/>
<path d="M366.036 139.923L372.257 143.531L384.223 130.719L366.036 139.923Z" fill="url(#paint10_linear_5702_6828)" fill-opacity="0.6"/>
<path d="M366.032 139.923L367.84 132.247L384.218 130.719L366.032 139.923Z" fill="url(#paint11_linear_5702_6828)"/>
<path d="M390.002 68.9325L393.243 63.3714L391.029 57.9648L385.512 57.7636L384.93 64.49L390.002 68.9325Z" fill="url(#paint12_linear_5702_6828)" fill-opacity="0.7"/>
<path d="M414.311 49.8391L396.523 51.8009L388.895 51.7626L414.311 49.8391Z" fill="url(#paint13_linear_5702_6828)" fill-opacity="0.8"/>
<path d="M414.309 49.8359L400.716 62.1216L396.188 69.7665L414.309 49.8359Z" fill="url(#paint14_linear_5702_6828)"/>
<path d="M396.175 69.7734L400.701 62.1255L393.224 63.3742L389.983 68.9364L396.175 69.7734Z" fill="url(#paint15_linear_5702_6828)" fill-opacity="0.6"/>
<path d="M396.524 51.8054L400.719 62.1242L393.241 63.373L391.028 57.9669L396.524 51.8054Z" fill="url(#paint16_linear_5702_6828)" fill-opacity="0.6"/>
<path d="M396.532 51.8024L388.902 51.7657L385.517 57.7643L391.035 57.9652L396.532 51.8024Z" fill="url(#paint17_linear_5702_6828)" fill-opacity="0.8"/>
<path d="M414.311 49.8391L388.021 62.6101L388.895 51.7627L414.311 49.8391Z" fill="url(#paint18_linear_5702_6828)"/>
<path d="M414.303 49.8453L388.014 62.6165L396.183 69.776L414.303 49.8453Z" fill="url(#paint19_linear_5702_6828)"/>
<path d="M388.898 51.7656L388.023 62.6139L384.932 64.4917L385.515 57.762L388.898 51.7656Z" fill="url(#paint20_linear_5702_6828)" fill-opacity="0.6"/>
<path d="M396.196 69.7674L388.023 62.6097L384.93 64.4873L390.005 68.9304L396.196 69.7674Z" fill="url(#paint21_linear_5702_6828)" fill-opacity="0.6"/>
<path d="M231.222 139.264L234.086 127.102L260.039 124.68L231.222 139.264Z" fill="url(#paint22_linear_5702_6828)"/>
<path d="M243.954 132.804L241.074 144.968L231.217 139.251L234.097 127.088L243.954 132.804Z" fill="url(#paint23_linear_5702_6828)"/>
<path d="M231.214 139.248L241.072 144.965L260.031 124.664L231.214 139.248Z" fill="url(#paint24_linear_5702_6828)"/>
<defs>
<filter id="filter0_f_5702_6828" x="232.391" y="-26.9688" width="238.542" height="222.133" filterUnits="userSpaceOnUse" color-interpolation-filters="sRGB">
<feFlood flood-opacity="0" result="BackgroundImageFix"/>
<feBlend mode="normal" in="SourceGraphic" in2="BackgroundImageFix" result="shape"/>
<feGaussianBlur stdDeviation="10" result="effect1_foregroundBlur_5702_6828"/>
</filter>
<radialGradient id="paint0_radial_5702_6828" cx="0" cy="0" r="1" gradientUnits="userSpaceOnUse" gradientTransform="translate(328.079 132.277) rotate(-39.0403) scale(101.316 131.125)">
<stop stop-color="white"/>
<stop offset="0.298196" stop-color="#5EF5FF"/>
<stop offset="0.538073" stop-color="#3432BD"/>
<stop offset="0.914407" stop-color="#171940"/>
</radialGradient>
<linearGradient id="paint1_linear_5702_6828" x1="328.314" y1="138.135" x2="366.756" y2="41.916" gradientUnits="userSpaceOnUse">
<stop stop-color="white"/>
<stop offset="1" stop-color="white" stop-opacity="0"/>
</linearGradient>
<radialGradient id="paint2_radial_5702_6828" cx="0" cy="0" r="1" gradientUnits="userSpaceOnUse" gradientTransform="translate(83.1616 113.455) rotate(82.924) scale(83.7713 66.5043)">
<stop offset="0.0729167" stop-color="#8995FF"/>
<stop offset="0.507801" stop-color="#C173FF" stop-opacity="0.9"/>
<stop offset="1" stop-color="#0E26FF" stop-opacity="0"/>
</radialGradient>
<radialGradient id="paint3_radial_5702_6828" cx="0" cy="0" r="1" gradientUnits="userSpaceOnUse" gradientTransform="translate(411.648 40.1699) rotate(141.706) scale(103.599 137.513)">
<stop stop-color="#3330B1"/>
<stop offset="1" stop-color="#0A0926"/>
</radialGradient>
<linearGradient id="paint4_linear_5702_6828" x1="406.09" y1="223.544" x2="331.123" y2="75.4286" gradientUnits="userSpaceOnUse">
<stop stop-color="#8FBCFF" stop-opacity="0.6"/>
<stop offset="1" stop-color="#8FBCFF" stop-opacity="0"/>
</linearGradient>
<linearGradient id="paint5_linear_5702_6828" x1="393.64" y1="191.659" x2="296.438" y2="-0.387311" gradientUnits="userSpaceOnUse">
<stop stop-color="#8FBCFF" stop-opacity="0.6"/>
<stop offset="1" stop-color="#8FBCFF" stop-opacity="0"/>
</linearGradient>
<linearGradient id="paint6_linear_5702_6828" x1="422.507" y1="265.61" x2="319.747" y2="62.5832" gradientUnits="userSpaceOnUse">
<stop stop-color="white" stop-opacity="0.6"/>
<stop offset="0.34375" stop-color="#8FBCFF" stop-opacity="0.6"/>
<stop offset="1" stop-color="#8FBCFF" stop-opacity="0"/>
</linearGradient>
<linearGradient id="paint7_linear_5702_6828" x1="270.865" y1="242.695" x2="265.626" y2="175.453" gradientUnits="userSpaceOnUse">
<stop stop-color="#FF48D7"/>
<stop offset="0.234164" stop-color="white" stop-opacity="0.765836"/>
<stop offset="1" stop-color="#FF48D7" stop-opacity="0"/>
</linearGradient>
<linearGradient id="paint8_linear_5702_6828" x1="412.915" y1="241.048" x2="338.519" y2="94.0603" gradientUnits="userSpaceOnUse">
<stop stop-color="#8FBCFF" stop-opacity="0.6"/>
<stop offset="1" stop-color="#8FBCFF" stop-opacity="0"/>
</linearGradient>
<linearGradient id="paint9_linear_5702_6828" x1="374.692" y1="138.921" x2="366.591" y2="134.646" gradientUnits="userSpaceOnUse">
<stop stop-color="#6083FF"/>
<stop offset="1" stop-color="#0C1E5E" stop-opacity="0"/>
</linearGradient>
<linearGradient id="paint10_linear_5702_6828" x1="369.935" y1="144.241" x2="382.484" y2="129.294" gradientUnits="userSpaceOnUse">
<stop offset="0.170794" stop-color="#3D3BA9"/>
<stop offset="0.537799" stop-color="#FF7BE2" stop-opacity="0.8"/>
<stop offset="0.791667" stop-color="white"/>
</linearGradient>
<linearGradient id="paint11_linear_5702_6828" x1="384.192" y1="130.652" x2="368.505" y2="129.076" gradientUnits="userSpaceOnUse">
<stop stop-color="#3DDCFF"/>
<stop offset="0.427083" stop-color="#9D50FF" stop-opacity="0.5"/>
<stop offset="0.977116" stop-color="#3DDCFF"/>
</linearGradient>
<linearGradient id="paint12_linear_5702_6828" x1="394.488" y1="65.4929" x2="385.712" y2="61.0355" gradientUnits="userSpaceOnUse">
<stop stop-color="#6587FF"/>
<stop offset="1" stop-color="#D8E0FF" stop-opacity="0.9"/>
</linearGradient>
<linearGradient id="paint13_linear_5702_6828" x1="394.523" y1="59.8548" x2="390.093" y2="46.4581" gradientUnits="userSpaceOnUse">
<stop offset="0.135417" stop-color="white"/>
<stop offset="0.28125" stop-color="#89F8FF" stop-opacity="0.934673"/>
<stop offset="0.645833" stop-color="#71F6FF" stop-opacity="0.921354"/>
<stop offset="1" stop-color="#4A72FF" stop-opacity="0.9"/>
</linearGradient>
<linearGradient id="paint14_linear_5702_6828" x1="407.635" y1="64.8265" x2="403.574" y2="53.2272" gradientUnits="userSpaceOnUse">
<stop offset="0.170794" stop-color="#3D3BA9"/>
<stop offset="0.537799" stop-color="#FF7BE2" stop-opacity="0.8"/>
<stop offset="0.791667" stop-color="white"/>
</linearGradient>
<linearGradient id="paint15_linear_5702_6828" x1="392.302" y1="71.7334" x2="390.395" y2="63.8938" gradientUnits="userSpaceOnUse">
<stop offset="0.135417" stop-color="white"/>
<stop offset="0.28125" stop-color="#89F8FF" stop-opacity="0.934673"/>
<stop offset="0.645833" stop-color="#71F6FF" stop-opacity="0.921354"/>
<stop offset="1" stop-color="#4A72FF" stop-opacity="0.9"/>
</linearGradient>
<linearGradient id="paint16_linear_5702_6828" x1="397.212" y1="63.8993" x2="402.206" y2="55.0333" gradientUnits="userSpaceOnUse">
<stop offset="0.135417" stop-color="white"/>
<stop offset="0.28125" stop-color="#89F8FF" stop-opacity="0.934673"/>
<stop offset="0.645833" stop-color="#71F6FF" stop-opacity="0.921354"/>
<stop offset="1" stop-color="#4A72FF" stop-opacity="0.9"/>
</linearGradient>
<linearGradient id="paint17_linear_5702_6828" x1="386.669" y1="57.7612" x2="384.87" y2="51.7605" gradientUnits="userSpaceOnUse">
<stop offset="0.135417" stop-color="white"/>
<stop offset="0.28125" stop-color="#89F8FF" stop-opacity="0.934673"/>
<stop offset="0.645833" stop-color="#71F6FF" stop-opacity="0.921354"/>
<stop offset="1" stop-color="#4A72FF" stop-opacity="0.9"/>
</linearGradient>
<linearGradient id="paint18_linear_5702_6828" x1="410.627" y1="40.7131" x2="403.01" y2="62.8052" gradientUnits="userSpaceOnUse">
<stop stop-color="#3DDCFF"/>
<stop offset="0.427083" stop-color="#9D50FF" stop-opacity="0"/>
<stop offset="0.977116" stop-color="#3DDCFF"/>
</linearGradient>
<linearGradient id="paint19_linear_5702_6828" x1="387.135" y1="71.0185" x2="393.082" y2="40.0337" gradientUnits="userSpaceOnUse">
<stop offset="0.170794" stop-color="#3D3BA9"/>
<stop offset="0.537799" stop-color="#FF7BE2" stop-opacity="0.8"/>
<stop offset="0.791667" stop-color="white"/>
</linearGradient>
<linearGradient id="paint20_linear_5702_6828" x1="384.009" y1="64.6452" x2="383.791" y2="52.0457" gradientUnits="userSpaceOnUse">
<stop offset="0.135417" stop-color="white"/>
<stop offset="0.28125" stop-color="#89F8FF" stop-opacity="0.934673"/>
<stop offset="0.645833" stop-color="#71F6FF" stop-opacity="0.921354"/>
<stop offset="1" stop-color="#4A72FF" stop-opacity="0.9"/>
</linearGradient>
<linearGradient id="paint21_linear_5702_6828" x1="394.356" y1="65.0517" x2="384.864" y2="68.7558" gradientUnits="userSpaceOnUse">
<stop stop-color="#3E5ABE"/>
<stop offset="1" stop-color="#3E5ABE" stop-opacity="0"/>
</linearGradient>
<linearGradient id="paint22_linear_5702_6828" x1="259.998" y1="124.574" x2="235.141" y2="122.076" gradientUnits="userSpaceOnUse">
<stop stop-color="#3DDCFF"/>
<stop offset="0.427083" stop-color="#9D50FF" stop-opacity="0"/>
<stop offset="0.977116" stop-color="#3DDCFF"/>
</linearGradient>
<linearGradient id="paint23_linear_5702_6828" x1="244.93" y1="137.664" x2="232.091" y2="130.887" gradientUnits="userSpaceOnUse">
<stop stop-color="#6083FF"/>
<stop offset="1" stop-color="#0C1E5E" stop-opacity="0"/>
</linearGradient>
<linearGradient id="paint24_linear_5702_6828" x1="237.392" y1="146.092" x2="257.276" y2="122.406" gradientUnits="userSpaceOnUse">
<stop offset="0.170794" stop-color="#3D3BA9"/>
<stop offset="0.537799" stop-color="#FF7BE2" stop-opacity="0.8"/>
<stop offset="0.791667" stop-color="white"/>
</linearGradient>
</defs>
</svg>
