<svg width="117" height="60" viewBox="0 0 117 60" fill="none" xmlns="http://www.w3.org/2000/svg">
<path d="M116.61 28.906V9.66545C116.61 8.62783 116.17 7.63145 115.408 6.93055C113.669 5.65243 111.401 5.35007 109.457 4.44989C106.11 3.1649 102.798 1.78371 99.5342 0.285697C98.1805 -0.662585 89.9277 1.05532 88.3129 1.0347C87.0897 1.17214 86.0246 1.92801 85.4474 3.01373C84.128 2.54646 82.8774 1.65315 81.4138 1.84555L72.2195 2.93127C71.017 3.0687 69.9794 3.79709 69.3884 4.84845C68.0485 4.42928 66.7841 3.56346 65.3273 3.74212C64.008 4.02385 59.5071 4.05134 58.4969 5.04085C57.8991 4.79347 57.2532 4.6904 56.5935 4.76599C55.762 4.92404 51.0756 5.25387 50.409 5.67991C49.6188 5.42566 45.0629 6.18154 44.1834 6.22964C43.5237 6.30523 42.919 6.55948 42.4105 6.93055C41.8058 6.69691 41.1599 6.58009 40.5071 6.66255C39.6756 6.8206 34.9892 7.15044 34.3226 7.57648C33.5324 7.32223 28.9765 8.0781 28.0969 8.12621C27.4373 8.20179 26.8394 8.44917 26.3378 8.82024C25.0253 8.13995 20.7855 9.0951 19.3631 9.15695C18.2224 9.29438 17.2535 9.93344 16.6694 10.8474C15.2676 10.5588 13.9208 9.84411 12.464 9.9678L3.2698 11.0535C1.42133 11.2665 0.0195239 12.847 0.0195239 14.723V38.5881C0.0195239 39.0897 0.115726 39.5638 0.30126 40.0036C-0.220982 40.9313 0.115726 45.2398 0.0195239 46.3049C0.0195239 48.1808 1.42133 49.7613 3.29041 49.9812C4.13562 50.0087 8.76709 50.8058 9.51609 50.5309C10.2101 50.9638 14.8553 51.2868 15.7005 51.4448C16.6832 51.5891 17.5834 51.1769 18.5042 50.9157C19.0814 51.5204 19.8647 51.9396 20.758 52.0427C21.6101 52.0839 26.2278 52.8467 26.9837 52.5924C28.9284 53.0459 41.7439 54.915 43.6543 54.3172C46.0799 53.4376 48.5262 52.6062 50.9794 51.8228C53.4051 54.4821 56.7034 56.2481 60.208 56.6879L87.5913 59.9107C88.0723 59.9725 88.5465 60 89.0275 60C92.4702 60 97.7407 57.9316 101.774 56.1313L108.996 53.0597C116.858 49.9125 119.201 38.8492 113.181 32.596C115.098 32.4586 116.617 30.8575 116.617 28.906H116.61Z" fill="black"/>
<path d="M88.2101 37.0693C87.894 36.4577 87.3168 36.0111 86.6434 35.8462C85.97 35.6881 85.2622 35.8256 84.6987 36.231C81.8745 38.265 79.009 40.244 76.1848 42.1062C75.3396 42.6628 74.9342 43.7004 75.1884 44.6831C75.3327 45.2534 75.477 45.8306 75.6213 46.401C75.642 46.4903 75.6694 46.5796 75.7038 46.6621C76.4322 49.1977 78.5761 50.8812 81.0293 50.8812C81.2354 50.8812 81.4416 50.8675 81.6546 50.8469C84.3689 50.5308 86.2655 48.2082 86.2723 45.2053C86.2723 44.4288 86.1349 43.6661 85.8807 42.9583C86.6434 42.3811 87.3993 41.797 88.1552 41.2129C89.0622 40.5051 89.344 39.2545 88.8148 38.2306C88.6156 37.8389 88.4163 37.4541 88.2101 37.0693Z" fill="#23FF81"/>
<path d="M72.632 41.7903C69.7528 39.5776 66.8392 37.4268 63.9669 35.3928C63.4241 35.008 62.7506 34.8706 62.1047 35.0011C61.4588 35.1386 60.8953 35.5371 60.5517 36.1006C60.3524 36.4304 60.1532 36.7534 59.9539 37.0832C59.3148 38.1277 59.576 39.4814 60.5448 40.2236C61.2732 40.7802 62.0085 41.3436 62.7369 41.914C62.249 43.1577 62.249 44.5389 62.7575 45.8858C63.6508 48.2221 65.8703 49.8576 68.1655 49.8576H68.1723C70.2063 49.8576 71.938 48.5726 72.8519 46.4218C72.9344 46.2637 73.0031 46.0988 73.0512 45.9201C73.1955 45.3841 73.3398 44.8482 73.4841 44.3122C73.7383 43.3776 73.4016 42.3881 72.632 41.7972V41.7903Z" fill="#23FF81"/>
<path d="M97.9606 31.0156C99.2731 31.0019 100.324 29.9368 100.324 28.6312V3.67348C100.324 2.99319 100.036 2.34039 99.5274 1.89373C99.0189 1.44021 98.3386 1.22719 97.6652 1.30965L88.4709 2.39536C87.7288 2.48469 87.076 2.91073 86.6981 3.55666C85.8872 4.93786 85.0626 6.31218 84.2449 7.67963V5.58379C84.2449 4.9035 83.9563 4.2507 83.4478 3.80404C82.9393 3.35739 82.259 3.1375 81.5856 3.21996L72.3914 4.30567C71.6767 4.38813 71.0377 4.79355 70.6528 5.39826C69.8283 6.70386 68.9899 8.00947 68.1585 9.29446V7.48723C68.1585 6.80694 67.8698 6.15413 67.3613 5.70748C66.8528 5.26082 66.1726 5.04093 65.4991 5.12339L60.4416 5.72122C59.7064 5.81055 59.0811 6.22285 58.7031 6.81381C58.6756 6.78632 58.655 6.76571 58.6275 6.74509C58.119 6.29157 57.4387 6.07855 56.7653 6.16101L51.7078 6.75883C51.2955 6.80694 50.9107 6.96498 50.5946 7.19175C50.2235 7.04057 49.8181 6.97873 49.4127 7.02683L44.3552 7.62466C43.6199 7.71399 42.9946 8.12629 42.6167 8.71724C42.5892 8.68976 42.5686 8.66914 42.5411 8.64853C42.0326 8.195 41.3523 7.98198 40.6789 8.06444L35.6214 8.66227C35.2091 8.71037 34.8243 8.86842 34.5082 9.09518C34.1371 8.94401 33.7317 8.88216 33.3263 8.93026L28.2687 9.52809C27.5335 9.61742 26.9082 10.0297 26.5302 10.6207C26.5027 10.5932 26.4821 10.5726 26.4546 10.5451C25.9461 10.0916 25.2659 9.87855 24.5924 9.96101L19.5349 10.5588C18.3324 10.7031 17.4253 11.7201 17.4253 12.9295V14.6955C16.4564 13.7679 15.4875 12.8608 14.5255 11.9813C14.017 11.514 13.323 11.2941 12.6358 11.3697L3.44162 12.4554C2.23908 12.5997 1.33203 13.6167 1.33203 14.8261V38.6912C1.33203 39.2203 1.50382 39.7082 1.7993 40.1068C1.49695 40.5122 1.33203 41.0069 1.33203 41.5223V46.408C1.33203 47.6174 2.23908 48.6344 3.43474 48.7787L8.49225 49.3766C8.58845 49.3903 8.67778 49.3903 8.77399 49.3903C9.08321 49.3903 9.39243 49.3285 9.68104 49.2116C9.99713 49.4453 10.3819 49.5965 10.7942 49.6446L15.8517 50.2424C16.5252 50.3248 17.2055 50.1118 17.714 49.6583C18.2225 49.2048 18.5111 48.5588 18.5111 47.8786V46.8547C18.5111 46.8547 18.5385 46.8547 18.5523 46.8547C18.6347 46.8547 18.7172 46.8547 18.7997 46.8547V48.4764C18.7997 49.6858 19.7067 50.7028 20.9093 50.8471L25.9668 51.4449C26.063 51.4587 26.1523 51.4587 26.2485 51.4587C26.5577 51.4587 26.8669 51.3968 27.1555 51.28C27.4716 51.5136 27.8565 51.6648 28.2687 51.7129L42.0601 53.3346C42.1563 53.3484 42.2456 53.3484 42.3418 53.3484C42.9259 53.3484 43.4894 53.1353 43.9292 52.7437C44.4377 52.2901 44.7263 51.6442 44.7263 50.9639V44.6695C44.7263 43.4258 43.7711 42.395 42.5342 42.2919L40.2047 42.0995C40.3834 41.6391 40.4109 41.1444 40.2941 40.6702L42.2387 40.7596C42.8847 40.7871 43.5237 40.5534 43.991 40.0999C44.4583 39.6532 44.7263 39.0279 44.7263 38.3751V32.0807C44.7263 31.8952 44.7056 31.7097 44.6644 31.5379L49.715 31.4966C50.1342 31.4966 50.519 31.3798 50.8626 31.1943C51.2062 31.3798 51.5979 31.4829 51.9964 31.4829C51.9964 31.4829 52.0102 31.4829 52.017 31.4829L54.587 31.4623C50.8695 33.565 48.3613 37.5299 48.3613 42.0652C48.3613 45.2673 49.6051 48.4283 51.8727 50.957C54.1266 53.472 57.1364 55.0869 60.3523 55.4992C60.3592 55.4992 60.366 55.4992 60.3729 55.4992L87.77 58.7288C87.77 58.7288 87.7906 58.7288 87.8044 58.7288C88.2373 58.7769 88.6633 58.7975 89.0825 58.7975C92.6626 58.7975 95.693 57.169 97.7064 54.1248C100.867 49.3422 100.977 41.6323 97.9606 36.1831C96.6688 33.8536 94.9371 32.1494 92.8963 31.1393C92.9031 31.1393 92.91 31.1393 92.9237 31.1393L97.9812 31.0981L97.9606 31.0156Z" fill="#23FF81"/>
<path fill-rule="evenodd" clip-rule="evenodd" d="M84.1551 28.6998V12.3591C85.6875 9.85779 87.2198 7.30843 88.7522 4.71096C90.2845 4.52887 91.8168 4.3485 93.3491 4.16813L93.3495 4.16808C94.8818 3.98771 96.4141 3.80734 97.9464 3.62524V28.5898L92.8889 28.631V24.563C91.6658 24.5974 90.4357 24.6318 89.2126 24.6592V28.6585L84.1551 28.6998ZM89.2126 15.5681V16.6607C89.8239 16.6229 90.4368 16.5834 91.0498 16.5439L91.0509 16.5439C91.6641 16.5044 92.2774 16.4648 92.8889 16.4271V12.3591C92.5955 12.3821 92.3021 12.4068 92.0079 12.4315L92.0078 12.4315L92.0073 12.4316L92.0069 12.4316C91.6882 12.4584 91.3687 12.4852 91.0473 12.5102C90.4357 13.541 89.8242 14.558 89.2057 15.5681H89.2126ZM73.1267 21.3884V16.6676C73.7452 15.7262 74.3567 14.7779 74.9683 13.8227C77.1037 13.6437 79.245 13.4706 81.3812 13.298L81.3817 13.298L81.8605 13.2593V5.52182C80.3283 5.7039 78.796 5.88427 77.2638 6.06463L77.2631 6.06471C75.7309 6.24508 74.1986 6.42544 72.6663 6.60753C71.134 9.03321 69.6016 11.4039 68.0692 13.7265V28.8509C70.3678 28.8303 72.6663 28.8114 74.9649 28.7925L74.9725 28.7925C77.2685 28.7736 79.5645 28.7547 81.8605 28.7341V17.1348C80.9904 17.1879 80.122 17.2428 79.2546 17.2976L79.2522 17.2978L79.2517 17.2978C78.435 17.3494 77.619 17.401 76.803 17.4509V21.2234L74.9649 21.3059L73.1267 21.3884ZM60.7166 12.4415V8.01622C61.5585 7.91656 62.4022 7.81691 63.2458 7.71726C64.0891 7.61763 64.9325 7.51801 65.7742 7.41839V14.5649C64.9289 15.8224 64.0906 17.0661 63.2454 18.2961C64.0906 19.4162 64.9289 20.5569 65.7742 21.7113V28.8578L60.7166 28.899V24.4669C60.1051 23.6423 59.4935 22.8245 58.8751 22.0137L58.8528 22.0147L58.8515 22.0147L58.8513 22.0148L58.848 22.0149C58.2454 22.042 57.6428 22.0691 57.0335 22.0961V28.9265L51.976 28.9678V9.04009L57.0335 8.44226V15.2726C57.3269 15.2496 57.6203 15.2249 57.9145 15.2002C58.2335 15.1734 58.5533 15.1465 58.8751 15.1215C59.2939 14.5144 59.7127 13.9041 60.1337 13.2906L60.1339 13.2903L60.1362 13.287C60.3291 13.0059 60.5226 12.724 60.7166 12.4415ZM49.6874 9.30808C47.997 9.50736 46.3135 9.70663 44.6299 9.90591V12.5171C43.4068 14.1938 42.1768 15.8292 40.9536 17.4372V10.3388C40.1139 10.4382 39.2726 10.5376 38.4312 10.637L38.4256 10.6377L38.4196 10.6384L38.4193 10.6384L38.419 10.6384L38.4186 10.6385L38.4183 10.6385L38.418 10.6385C37.5768 10.7379 36.7356 10.8373 35.8961 10.9367V29.1052L40.9536 29.064V26.5077C42.1768 24.9685 43.4068 23.3949 44.6299 21.7869V29.0365L49.6874 28.9952V9.30808ZM19.8096 12.8332L19.8164 12.8324V24.2676C21.3488 25.8618 22.8812 27.5041 24.4135 29.2014C27.4774 29.1808 30.5413 29.1533 33.6052 29.1258L33.6078 29.1258V11.1978C31.9173 11.3971 30.2338 11.5963 28.5503 11.7956V23.3811C27.9357 23.4085 27.3279 23.4358 26.7202 23.4631L26.7201 23.4631L26.72 23.4631L26.7198 23.4631L26.7197 23.4631L26.7196 23.4631L26.7194 23.4631L26.7087 23.4636C26.0902 22.7971 25.4786 22.1443 24.8671 21.4914V12.2354C23.179 12.4344 21.4977 12.6334 19.8164 12.8324V12.8263L19.8096 12.8332ZM13.1413 26.6932H13.1414H13.1414H13.1415H13.1416H13.1416H13.1417H13.1418H13.1418C14.5965 26.6537 16.0512 26.6142 17.5076 26.5764V26.5695V17.9937C15.9753 16.4889 14.4429 15.039 12.9105 13.6371C11.378 13.8193 9.84557 13.9996 8.31309 14.18C6.78083 14.3604 5.24857 14.5408 3.71631 14.7229V38.5948C5.39985 38.691 7.09027 38.7941 8.77381 38.8972V26.81C10.2308 26.7722 11.6861 26.7327 13.1413 26.6932ZM10.6085 19.052C11.227 19.6292 11.8386 20.2064 12.4501 20.7974H12.4433V21.5051C11.8318 21.5429 11.2186 21.5824 10.6054 21.6219C9.99199 21.6615 9.37861 21.701 8.76694 21.7388V19.2031C9.08848 19.1781 9.40816 19.1513 9.72694 19.1245L9.72717 19.1245L9.72734 19.1244C10.0216 19.0997 10.3151 19.0751 10.6085 19.052ZM60.6407 32.1218C69.7731 32.2043 78.9054 32.2798 88.0378 32.3554C100.537 32.0393 101.444 57.6292 88.0378 56.2343C83.4718 55.6949 78.9057 55.1572 74.3397 54.6195C69.7734 54.0818 65.207 53.5441 60.6407 53.0046C55.164 52.3106 50.7318 47.3562 50.7318 41.9413C50.7387 36.5265 55.1709 32.1287 60.6407 32.1218ZM70.7282 45.2397C70.7351 45.2466 70.742 45.2466 70.742 45.2466L71.1749 43.6386C68.3094 41.4397 65.4439 39.3232 62.5785 37.2961L61.9806 38.2856C63.3 39.2958 64.6193 40.3196 65.9387 41.3641C62.0837 44.7862 68.6942 50.627 70.7282 45.2397ZM77.9503 45.7688C78.8367 49.5138 83.8873 49.3627 83.8873 45.1572C83.8873 44.0166 83.4407 42.9789 82.7398 42.2849C84.0591 41.3023 85.3785 40.3059 86.6978 39.282C86.4989 38.891 86.2999 38.5067 86.1009 38.1225L86.1 38.1207C83.2345 40.1822 80.3691 42.1612 77.5036 44.0509C77.5758 44.3395 77.6479 44.6264 77.7201 44.9133C77.7922 45.2002 77.8644 45.4871 77.9365 45.7757C77.9434 45.7688 77.9503 45.7688 77.9503 45.7688ZM8.77382 46.9027V41.8314C7.0834 41.694 5.39985 41.5565 3.71631 41.4191V46.3048C4.55802 46.4044 5.40145 46.5041 6.24488 46.6037L6.24506 46.6037C7.08855 46.7034 7.93204 46.803 8.77382 46.9027ZM16.1333 31.7507V33.6954C16.9572 34.5796 17.7746 35.4834 18.5982 36.3941L18.662 36.4647C19.5072 35.592 20.3456 34.7055 21.1908 33.8054V31.7988L26.2483 31.8401V48.9641C25.4064 48.8645 24.5628 48.7648 23.7192 48.6652C22.8758 48.5655 22.0324 48.4659 21.1908 48.3663V41.8383C20.3456 42.6972 19.5072 43.5356 18.662 44.367C17.8168 43.3844 16.9785 42.4155 16.1333 41.4603V47.7685C15.2919 47.6689 14.4487 47.5693 13.6056 47.4697L13.5986 47.4689L13.5572 47.464C12.7295 47.3662 11.9018 47.2684 11.0758 47.1706V31.7095L16.1333 31.7507ZM38.8814 38.1104C40.0308 38.1619 41.1802 38.2135 42.328 38.265V31.9706C40.0291 31.95 37.7302 31.9311 35.4314 31.9122C33.1331 31.8933 30.8349 31.8744 28.5366 31.8538V37.6466C29.3401 38.6002 30.1373 39.5725 30.9401 40.5517L31.0654 40.7044C30.2202 41.6321 29.3819 42.546 28.5366 43.4393V49.2321C33.1336 49.7681 37.7306 50.3109 42.3275 50.8537L42.328 50.8538V44.5594C40.1915 44.3803 38.049 44.2071 35.9117 44.0344L35.4357 43.9959C36.281 43.0614 37.1193 42.1062 37.9645 41.1373C37.1193 40.0585 36.281 39.0003 35.4357 37.9558C36.5831 38.0073 37.7323 38.0588 38.8814 38.1104Z" fill="black"/>
</svg>
