<svg width="107" height="61" viewBox="0 0 107 61" fill="none" xmlns="http://www.w3.org/2000/svg">
<g clip-path="url(#clip0_3580_2689)">
<path d="M2.52887 54.6621C2.06106 54.4943 1.62546 54.2384 1.24918 53.8977C0.454247 53.1757 0 52.1503 0 51.0757V46.2928C0 45.9827 0.0372889 45.6793 0.108477 45.3895C0.0372889 45.0962 0 44.7946 0 44.4895V10.7023C0 9.62775 0.454247 8.60236 1.24918 7.88034C1.64749 7.51764 2.1136 7.24816 2.61531 7.08376L16.7698 1.28731C17.4343 0.95681 18.1868 0.82461 18.9377 0.917828L27.5124 1.98729C28.5345 2.1144 29.4549 2.64998 30.0718 3.45674C30.0922 3.44826 30.1142 3.43979 30.1345 3.43132C30.1701 3.41606 30.2057 3.40081 30.243 3.38555C30.282 3.36861 30.3227 3.35166 30.3617 3.33471C30.3956 3.31945 30.4311 3.3042 30.465 3.29064C30.5023 3.27369 30.5413 3.25674 30.5803 3.24149C30.6193 3.22454 30.6583 3.20759 30.6973 3.19234C30.7312 3.17709 30.7651 3.16183 30.799 3.14827C30.8379 3.12963 30.8786 3.11268 30.9193 3.09743C30.9549 3.08217 30.9905 3.06692 31.0261 3.05167C31.0634 3.03472 31.1023 3.01777 31.1413 3.00251C31.7719 2.71947 32.4753 2.60761 33.177 2.69574L37.8923 3.28386C38.5076 3.36013 39.072 3.58046 39.5568 3.90757C40.1161 3.70588 40.7195 3.63639 41.3229 3.71097L46.0382 4.29909C46.2722 4.3279 46.501 4.37875 46.7196 4.44824C46.9484 4.43468 47.1807 4.44146 47.4129 4.47027L52.1282 5.05839C52.7435 5.13466 53.3079 5.35499 53.7927 5.6821C54.352 5.48041 54.9554 5.41092 55.5588 5.4855L60.2741 6.07361C60.508 6.10243 60.7369 6.15327 60.9555 6.22276C61.1843 6.2092 61.4165 6.21598 61.6488 6.2448L66.3641 6.83291C66.9794 6.90918 67.5438 7.12952 68.0285 7.45663C68.5879 7.25494 69.1913 7.18545 69.7947 7.26002L74.51 7.84814C75.5117 7.97356 76.3813 8.48033 76.983 9.21081C76.9982 9.20573 77.0135 9.20234 77.0287 9.19726C77.0609 9.18709 77.0948 9.17522 77.1287 9.16505C77.1711 9.15149 77.2135 9.13624 77.2559 9.12438C77.2897 9.11251 77.3237 9.10234 77.3576 9.09217C77.3965 9.07861 77.4338 9.06675 77.4728 9.05489C77.5101 9.04302 77.5457 9.03116 77.583 9.01929C77.6203 9.00743 77.6576 8.99387 77.6948 8.9837C77.7321 8.97184 77.7694 8.95828 77.8067 8.94811C77.844 8.93624 77.8813 8.92269 77.9186 8.91082C77.9593 8.89726 77.9982 8.8837 78.0389 8.87184C78.0711 8.86167 78.1033 8.84981 78.1355 8.83964C78.1745 8.82608 78.2152 8.81252 78.2542 8.80066C78.2915 8.7871 78.3305 8.77523 78.3677 8.76337C78.405 8.7515 78.4423 8.73795 78.4796 8.72608C79.0169 8.54473 79.5932 8.48202 80.1712 8.55321L88.7442 9.62267C89.729 9.7447 90.5849 10.2362 91.185 10.9464C91.1917 10.9447 91.2002 10.943 91.207 10.9396C91.2443 10.9277 91.2799 10.9175 91.3172 10.9074C91.3545 10.8955 91.3934 10.8853 91.4324 10.8735C91.4697 10.8616 91.507 10.8514 91.5443 10.8413C91.5799 10.8294 91.6172 10.8192 91.6545 10.8091C91.6917 10.7972 91.729 10.787 91.7663 10.7769C91.8019 10.765 91.8392 10.7548 91.8765 10.7447C91.9155 10.7328 91.9562 10.7209 91.9968 10.7091C92.0324 10.6989 92.0663 10.6887 92.1019 10.6786C92.1392 10.6667 92.1765 10.6565 92.2138 10.6464C92.2511 10.6345 92.2901 10.6243 92.3274 10.6125C92.3646 10.6006 92.4019 10.5904 92.4392 10.5803C92.4765 10.5684 92.5138 10.5582 92.5528 10.5464C92.5884 10.5345 92.6223 10.526 92.6579 10.5159C92.6985 10.5023 92.7409 10.4904 92.7816 10.4786C93.3003 10.3142 93.8528 10.2599 94.4054 10.3294L102.98 11.3989C104.889 11.6362 106.323 13.2599 106.323 15.1835V29.7712C106.323 30.7882 105.916 31.7644 105.194 32.4796C104.889 32.783 104.536 33.0288 104.155 33.2118C105.553 35.0016 105.568 37.51 105.568 39.6981C105.568 45.5996 100.814 50.5859 93.7816 51.5384C93.7681 51.5401 93.7545 51.5418 93.7409 51.5435L70.9066 54.3892C68.932 54.6536 67.0082 54.4536 65.2454 53.8248C65.2065 53.8112 65.1675 53.7994 65.1302 53.7858C65.0929 53.7723 65.0539 53.7604 65.0166 53.7468C64.9776 53.7333 64.937 53.7197 64.898 53.7062C64.8573 53.6926 64.8166 53.679 64.7759 53.6655C64.7386 53.6536 64.703 53.6418 64.6658 53.6282C64.6268 53.6146 64.5878 53.6028 64.5505 53.5892C64.5098 53.5757 64.4675 53.5621 64.4268 53.5468C64.3895 53.535 64.3539 53.5231 64.3166 53.5096C64.2776 53.496 64.2369 53.4841 64.1963 53.4689C64.1556 53.4553 64.1149 53.4418 64.0759 53.4282C64.0403 53.4163 64.003 53.4045 63.9657 53.3909C63.9251 53.3774 63.8844 53.3655 63.8454 53.3502C63.8064 53.3367 63.7674 53.3248 63.7301 53.3113C63.6912 53.2977 63.6505 53.2858 63.6115 53.2723C63.5742 53.2587 63.5352 53.2486 63.4979 53.235C63.459 53.2214 63.42 53.2096 63.381 53.196C63.3403 53.1824 63.3013 53.1706 63.2607 53.1553C63.2234 53.1418 63.1861 53.1316 63.1488 53.118C63.1098 53.1045 63.0691 53.0926 63.0301 53.0791C62.9911 53.0655 62.9522 53.0536 62.9132 53.0401C62.8759 53.0265 62.8369 53.0164 62.8013 53.0028C62.7623 52.9892 62.7217 52.9774 62.6827 52.9638C62.6437 52.9503 62.603 52.9384 62.564 52.9248C62.525 52.9113 62.4844 52.8994 62.4471 52.8858C62.4098 52.8723 62.3708 52.8621 62.3335 52.8486C62.2996 52.8384 62.2674 52.8265 62.2335 52.8164C62.1945 52.8045 62.1555 52.7909 62.1166 52.7791C61.8403 52.6977 61.5674 52.6028 61.2996 52.5011C61.264 52.4909 61.2284 52.4774 61.1945 52.4672C61.1538 52.4554 61.1131 52.4418 61.0725 52.4282C61.0335 52.4164 60.9945 52.4028 60.9555 52.3909C60.9182 52.3808 60.8826 52.3672 60.847 52.3571C60.8064 52.3452 60.7674 52.3316 60.7267 52.3198C60.6894 52.3096 60.6538 52.296 60.6165 52.2842C60.5742 52.2723 60.5335 52.2587 60.4928 52.2452C60.4555 52.2333 60.4182 52.2215 60.3809 52.2096C60.3402 52.1977 60.3013 52.1842 60.2623 52.1723C60.225 52.1604 60.1877 52.1486 60.1504 52.1367C60.1131 52.1249 60.0758 52.113 60.0385 52.1011C59.9962 52.0893 59.9538 52.074 59.9114 52.0621C59.8724 52.0503 59.8352 52.0384 59.7962 52.0266C59.7589 52.0164 59.7233 52.0028 59.686 51.9926C59.6453 51.9808 59.6046 51.9672 59.5657 51.9554C59.5267 51.9435 59.4894 51.9316 59.4504 51.9198C59.4419 51.9164 59.4318 51.9147 59.4233 51.913V52.452C59.4233 54.3756 57.991 55.9976 56.0808 56.2366L43.3212 57.8264C42.9653 57.8705 42.6094 57.8637 42.2636 57.8111C41.9433 57.9467 41.6009 58.0416 41.2398 58.0874L36.5245 58.6755C35.8465 58.7603 35.1668 58.6569 34.5516 58.3942C34.5126 58.3789 34.4753 58.362 34.438 58.345C34.4007 58.3298 34.3651 58.3145 34.3278 58.2976C34.2889 58.2823 34.2516 58.2654 34.2126 58.2484C34.1753 58.2348 34.1397 58.2179 34.1041 58.2026C34.0804 58.1942 34.0566 58.184 34.0329 58.1738C33.4515 58.7552 32.6803 59.1535 31.8091 59.2619L27.0938 59.8501C26.4921 59.9246 25.887 59.8551 25.3276 59.6535C24.8429 59.9806 24.2785 60.2009 23.6632 60.2772L18.9479 60.8653C18.7902 60.8856 18.6326 60.8941 18.4767 60.8941C17.8851 60.8941 17.3054 60.7551 16.78 60.4941L2.53904 54.6672L2.52887 54.6621Z" fill="#23FF81"/>
<path d="M18.4674 59.5329C17.8725 59.5329 17.2928 59.3159 16.8403 58.9176C16.3115 58.4516 16.0098 57.7804 16.0098 57.0753V50.8704C16.0098 50.4484 16.1165 50.0484 16.3064 49.6993C16.1132 49.3433 16.0098 48.9417 16.0098 48.5298V4.70222C16.0098 3.99716 16.3132 3.32599 16.8403 2.8599C17.3674 2.39382 18.0725 2.17518 18.7708 2.26331L27.3456 3.33277C28.1185 3.42938 28.7999 3.8853 29.1829 4.56494C29.5355 5.19035 29.8914 5.81575 30.2457 6.43946C30.2558 5.74796 30.5575 5.09374 31.0762 4.63443C31.605 4.16834 32.3067 3.9497 33.0067 4.03784L37.7221 4.62596C38.3865 4.709 38.9611 5.05137 39.3492 5.54457C39.8594 5.15136 40.5069 4.9734 41.151 5.05306L45.8663 5.64118C46.1053 5.67169 46.3307 5.7344 46.5426 5.82592C46.7714 5.78863 47.007 5.78355 47.2409 5.81236L51.9563 6.40048C52.6207 6.48353 53.1953 6.82589 53.5834 7.3191C54.0936 6.92589 54.7411 6.74793 55.3852 6.82759L60.1005 7.41571C60.3395 7.44621 60.5649 7.50892 60.7768 7.60045C61.0056 7.56316 61.2412 7.55808 61.4751 7.58689L66.1905 8.17501C66.8549 8.25806 67.4295 8.60042 67.8176 9.09363C68.3295 8.70042 68.9753 8.52246 69.6211 8.60211L74.3364 9.19023C75.5669 9.34277 76.4907 10.3885 76.4907 11.6291V12.2105C76.9551 11.6919 77.4195 11.18 77.8806 10.6749C78.4179 10.0868 79.2077 9.797 79.9976 9.8953L88.5706 10.9648C89.8011 11.1173 90.7249 12.163 90.7249 13.4037V13.8206C91.2215 13.324 91.7181 12.8325 92.2114 12.3512C92.747 11.8291 93.4911 11.5783 94.2334 11.6698L102.808 12.7393C104.039 12.8918 104.962 13.9376 104.962 15.1782V29.7659C104.962 30.4218 104.7 31.0506 104.235 31.5116C103.769 31.9726 103.139 32.2336 102.483 32.2235L101.223 32.2116C101.252 32.2336 101.281 32.2557 101.31 32.2794C103.63 34.0912 104.208 37.0369 104.208 39.6928C104.208 44.9299 99.9691 49.3264 93.5944 50.1891C93.586 50.1891 93.5775 50.1908 93.569 50.1925L70.7279 53.0398C67.6346 53.4551 64.6871 52.5941 62.4243 50.6162C60.0683 48.5569 58.7157 45.4417 58.7157 42.069C58.7157 38.6962 60.0005 35.5471 62.3345 33.2184C62.8345 32.7201 63.3684 32.2726 63.9328 31.8794L61.1514 31.854C60.9124 31.8523 60.6819 31.815 60.4649 31.7506C60.2429 31.8133 60.0107 31.8438 59.7785 31.8421L57.9852 31.8269C58.0361 32.0235 58.0615 32.2269 58.0615 32.4336V39.1046C58.0615 40.4165 57.031 41.4978 55.7208 41.5588L53.8529 41.6469C54.1224 42.2113 54.1648 42.8571 53.9767 43.4486L55.3936 43.3266C56.0801 43.2672 56.7581 43.4994 57.2666 43.9638C57.775 44.4282 58.0632 45.0858 58.0632 45.7739V52.4449C58.0632 53.6839 57.1394 54.7296 55.9089 54.8839L43.1493 56.4736C42.7849 56.5194 42.4205 56.4821 42.0798 56.3703C41.7815 56.5601 41.4391 56.6872 41.0679 56.733L36.3526 57.3211C35.6525 57.4092 34.9508 57.1906 34.422 56.7245C34.1322 56.4686 33.9101 56.1499 33.7695 55.7991C33.622 56.8906 32.7576 57.7685 31.6372 57.9075L26.9219 58.4956C26.2778 58.577 25.6303 58.3973 25.1184 58.0041C24.7303 58.4973 24.1557 58.8397 23.4913 58.9227L18.7759 59.5108C18.6742 59.5227 18.5725 59.5295 18.4725 59.5295L18.4674 59.5329ZM76.2144 42.213C76.2144 42.2639 76.2195 42.3164 76.2297 42.3706C76.2331 42.391 76.2364 42.4079 76.2398 42.4249C76.2924 42.3927 76.3466 42.3452 76.3958 42.2791C76.3348 42.2571 76.2754 42.2351 76.2144 42.2113V42.213Z" fill="black"/>
<path d="M23.2054 56.7427C21.6264 56.9403 20.0458 57.1362 18.4668 57.3337V51.0982C20.0458 50.9483 21.6264 50.7984 23.2054 50.6468C23.2054 52.6788 23.2054 54.7108 23.2054 56.7427ZM27.0839 5.77689L18.4668 4.70215V48.746C20.0458 48.6132 21.6264 48.4803 23.2054 48.3475C23.2054 40.6301 23.2054 32.9128 23.2054 25.1954C25.9341 25.2721 28.6628 25.3487 31.3916 25.4271C31.3916 21.3734 31.3916 17.318 31.3916 13.2643C29.9557 10.8185 28.5198 8.32322 27.0839 5.77689ZM26.6529 17.4662C25.5049 17.3895 24.3552 17.3129 23.2071 17.2362C23.2071 15.9094 23.2071 14.5826 23.2071 13.2558C23.7811 13.3052 24.3552 13.3546 24.9309 13.404C25.5049 14.4106 26.0806 15.4087 26.6546 16.3982V17.4662H26.6529ZM32.773 22.3613C34.2088 24.7253 35.6447 27.0383 37.0806 29.3019L45.6977 29.3786V8.09669L40.9591 7.50567C40.9591 12.3565 40.9591 17.2073 40.9591 22.0581C40.3851 22.0308 39.8094 22.0036 39.2353 21.9763C38.6613 21.0583 38.0873 20.1334 37.5116 19.2001V7.07645C35.9326 6.87888 34.3519 6.68301 32.773 6.48543V22.3596V22.3613ZM47.0774 8.26872V29.3905C48.6564 29.4041 50.2371 29.4195 51.816 29.4331V21.6408C52.9641 23.3645 54.1138 25.0541 55.2618 26.713V29.4637C56.8408 29.4774 58.4215 29.4927 60.0005 29.5063V9.87997C58.4215 9.6824 56.8408 9.48653 55.2618 9.28895V16.9314C54.1138 15.2077 52.9641 13.4534 51.816 11.665V8.85974C50.2371 8.66216 48.6564 8.46629 47.0774 8.26872ZM67.8442 17.0966C67.2702 17.0472 66.6962 16.9978 66.1205 16.9484V10.643C64.5415 10.4454 62.9608 10.2496 61.3819 10.052V29.5182C62.9608 29.5319 64.5415 29.5472 66.1205 29.5608V23.2555C66.6945 23.2827 67.2685 23.31 67.8442 23.3372C68.4183 24.1207 68.994 24.8957 69.568 25.6638V29.5915C71.147 29.6051 72.7276 29.6204 74.3066 29.6341V23.6438C73.5163 22.6082 72.7276 21.5573 71.9373 20.4911C72.7276 19.5305 73.5163 18.5852 74.3066 17.6535V11.6633C72.7276 11.4657 71.147 11.2698 69.568 11.0722V14.9999C68.994 15.6914 68.4183 16.3897 67.8442 17.0966ZM82.1487 18.328C84.3034 18.5137 86.4564 18.6993 88.6111 18.885V13.4465C85.7393 13.0889 82.8675 12.7312 79.994 12.3718C78.5581 13.9422 77.1222 15.562 75.6863 17.2328C75.6863 21.37 75.6863 25.5088 75.6863 29.646C79.994 29.6852 84.3034 29.7226 88.6111 29.7618V21.605C87.0321 21.4994 85.4514 21.3938 83.8724 21.2882V24.0986C82.7244 24.0441 81.5747 23.9895 80.4266 23.935C80.4266 22.7138 80.4266 21.4943 80.4266 20.2731C81.0006 19.6174 81.5747 18.9684 82.1504 18.3297L82.1487 18.328ZM94.3001 14.1551C92.8642 15.5568 91.4283 17.0097 89.9925 18.5137C89.9925 22.2676 89.9925 26.0198 89.9925 29.7737C91.5714 29.7874 93.1521 29.8027 94.7311 29.8163V27.2155C95.8791 27.2478 97.0288 27.2802 98.1769 27.3126V29.847C99.7559 29.8606 101.337 29.8759 102.916 29.8895V15.2298L94.2984 14.1551H94.3001ZM98.1769 22.242C97.0288 22.1654 95.8791 22.0887 94.7311 22.0121V21.3018C95.3051 20.7125 95.8791 20.1317 96.4548 19.5577C97.0289 19.6071 97.6046 19.6565 98.1786 19.7059V22.2403L98.1769 22.242ZM26.6512 32.8276V56.3135C28.2302 56.1159 29.8109 55.92 31.3899 55.7225C31.3899 52.7112 31.3899 49.6981 31.3899 46.6868C32.1802 47.8978 32.9688 49.0952 33.7592 50.2772C34.5495 48.9402 35.3381 47.6185 36.1285 46.3121V55.1314C37.7075 54.9339 39.2881 54.738 40.8671 54.5404V32.6999C39.2881 32.7135 37.7075 32.7288 36.1285 32.7425V35.4557C35.3381 36.7178 34.5495 37.9952 33.7592 39.288C32.9688 38.0617 32.1802 36.8217 31.3899 35.5647C31.3899 34.6382 31.3899 33.7116 31.3899 32.785C29.8109 32.7987 28.2302 32.814 26.6512 32.8276ZM55.7831 32.567C51.5094 32.6045 47.2358 32.6437 42.9605 32.6811V39.8807C43.7508 41.0423 44.5395 42.1903 45.3298 43.3229C44.5395 44.5595 43.7508 45.8131 42.9605 47.0803V54.2798C47.2341 53.7467 51.5077 53.2136 55.7831 52.6822V45.9783C53.6624 46.1605 51.5435 46.3428 49.4229 46.525C50.2132 45.2987 51.0018 44.0877 51.7922 42.892C51.0018 41.802 50.2132 40.6966 49.4229 39.5758C51.5435 39.4753 53.6624 39.3748 55.7831 39.2744V32.5704V32.567ZM93.6324 32.2298C85.9777 32.2979 78.323 32.366 70.6666 32.4342C65.5379 32.424 61.3819 36.8183 61.3819 42.2499C61.3819 47.6815 65.5379 51.5206 70.6666 50.8257C78.3213 49.8719 85.976 48.9181 93.6324 47.9625C98.7611 47.2676 102.159 43.8543 102.159 39.862C102.159 35.8696 98.7594 32.2383 93.6324 32.2298ZM79.3399 41.5431C79.3195 41.7849 79.3007 42.0268 79.2803 42.2703C79.2769 42.2686 79.2735 42.2669 79.2718 42.2669C79.2718 42.2669 79.2701 42.2669 79.2684 42.2669C79.0572 45.3992 74.7001 46.4535 74.0835 42.9874C73.9166 42.0489 74.1465 41.1019 74.6473 40.3951C73.3698 39.8432 72.0923 39.2641 70.8097 38.6442C70.9238 38.2763 71.0379 37.9152 71.1521 37.5541C73.9131 38.777 76.664 39.8603 79.3995 40.8107C79.3808 41.0542 79.3604 41.2978 79.3399 41.5397V41.5431ZM90.2173 41.7457C89.6007 44.9274 85.2436 44.8627 85.0324 41.836C85.0324 41.836 85.0324 41.836 85.029 41.836C85.0273 41.836 85.0239 41.8377 85.0205 41.8394C85.0017 41.6078 84.9813 41.3778 84.9609 41.1479C84.9404 40.9163 84.9217 40.6863 84.9012 40.453C87.6385 39.1875 90.3876 37.9135 93.1487 36.648C93.2628 36.9494 93.3769 37.2509 93.4911 37.5558C92.2085 38.2013 90.9293 38.8417 89.6535 39.4873C90.1526 40.0681 90.3842 40.8805 90.2173 41.7457Z" fill="#23FF81"/>
</g>
<defs>
<clipPath id="clip0_3580_2689">
<rect width="106.316" height="60" fill="white" transform="translate(0 0.888672)"/>
</clipPath>
</defs>
</svg>
