<svg width="71" height="40" viewBox="0 0 71 40" fill="none" xmlns="http://www.w3.org/2000/svg">
<g clip-path="url(#clip0_10103_21267)">
<path d="M1.68591 35.8489C1.37404 35.7371 1.08364 35.5665 0.832786 35.3393C0.302831 34.858 0 34.1744 0 33.458V30.2694C0 30.0627 0.0248593 29.8604 0.0723179 29.6672C0.0248593 29.4717 0 29.2706 0 29.0672V6.54242C0 5.82605 0.302831 5.14246 0.832786 4.66111C1.09833 4.41931 1.40907 4.23966 1.74354 4.13006L11.1799 0.265758C11.6228 0.0454252 12.1245 -0.0427079 12.6251 0.0194372L18.3416 0.732411C19.023 0.817155 19.6366 1.17421 20.0479 1.71204C20.0614 1.7064 20.0761 1.70075 20.0897 1.6951C20.1134 1.68493 20.1371 1.67476 20.162 1.66459C20.188 1.65329 20.2151 1.64199 20.2411 1.63069C20.2637 1.62052 20.2874 1.61035 20.31 1.60131C20.3349 1.59001 20.3609 1.57872 20.3869 1.56855C20.4129 1.55725 20.4388 1.54595 20.4648 1.53578C20.4874 1.52561 20.51 1.51544 20.5326 1.5064C20.5586 1.49397 20.5857 1.48267 20.6129 1.4725C20.6366 1.46233 20.6603 1.45217 20.684 1.442C20.7089 1.4307 20.7349 1.4194 20.7609 1.40923C21.1812 1.22053 21.6502 1.14596 22.118 1.20471L25.2615 1.59679C25.6717 1.64764 26.048 1.79453 26.3712 2.0126C26.7441 1.87814 27.1463 1.83182 27.5486 1.88153L30.6922 2.27361C30.8481 2.29282 31.0007 2.32672 31.1464 2.37304C31.299 2.364 31.4538 2.36852 31.6086 2.38773L34.7521 2.77981C35.1623 2.83066 35.5386 2.97755 35.8618 3.19562C36.2347 3.06116 36.6369 3.01483 37.0392 3.06455L40.1828 3.45663C40.3387 3.47584 40.4912 3.50973 40.637 3.55606C40.7896 3.54702 40.9444 3.55154 41.0992 3.57075L44.2427 3.96283C44.6529 4.01367 45.0292 4.16056 45.3524 4.37864C45.7252 4.24418 46.1275 4.19785 46.5298 4.24757L49.6734 4.63965C50.3412 4.72326 50.9208 5.0611 51.322 5.54809C51.3321 5.5447 51.3423 5.54245 51.3525 5.53906C51.374 5.53228 51.3966 5.52437 51.4192 5.51759C51.4474 5.50855 51.4757 5.49838 51.5039 5.49047C51.5265 5.48256 51.5491 5.47578 51.5717 5.469C51.5977 5.45996 51.6225 5.45205 51.6485 5.44414C51.6734 5.43623 51.6971 5.42832 51.722 5.42041C51.7468 5.41251 51.7717 5.40347 51.7966 5.39669C51.8214 5.38878 51.8463 5.37974 51.8711 5.37296C51.896 5.36505 51.9209 5.35601 51.9457 5.3481C51.9728 5.33906 51.9988 5.33002 52.0259 5.32211C52.0474 5.31533 52.0689 5.30742 52.0904 5.30064C52.1163 5.2916 52.1435 5.28257 52.1695 5.27466C52.1943 5.26562 52.2203 5.25771 52.2452 5.2498C52.27 5.24189 52.2949 5.23285 52.3197 5.22494C52.6779 5.10404 53.0621 5.06223 53.4474 5.10969L59.1628 5.82266C59.8193 5.90402 60.39 6.23169 60.79 6.70512C60.7945 6.70399 60.8001 6.70286 60.8047 6.7006C60.8295 6.69269 60.8533 6.68592 60.8781 6.67914C60.903 6.67123 60.929 6.66445 60.9549 6.65654C60.9798 6.64863 61.0047 6.64185 61.0295 6.63507C61.0532 6.62716 61.0781 6.62038 61.103 6.6136C61.1278 6.60569 61.1527 6.59891 61.1775 6.59213C61.2013 6.58422 61.2261 6.57744 61.251 6.57066C61.277 6.56276 61.3041 6.55485 61.3312 6.54694C61.355 6.54016 61.3776 6.53338 61.4013 6.5266C61.4261 6.51869 61.451 6.51191 61.4759 6.50513C61.5007 6.49722 61.5267 6.49044 61.5516 6.48253C61.5764 6.47462 61.6013 6.46784 61.6261 6.46106C61.651 6.45315 61.6759 6.44637 61.7019 6.43846C61.7256 6.43056 61.7482 6.42491 61.7719 6.41813C61.799 6.40909 61.8273 6.40118 61.8544 6.39327C62.2002 6.28367 62.5685 6.24751 62.9369 6.29384L68.6534 7.00681C69.9258 7.165 70.8817 8.24745 70.8817 9.5299V19.2551C70.8817 19.933 70.6105 20.5838 70.1292 21.0606C69.9258 21.2629 69.6907 21.4267 69.4365 21.5488C70.3687 22.742 70.3789 24.4142 70.3789 25.8729C70.3789 29.8073 67.2093 33.1315 62.5211 33.7665C62.512 33.7676 62.503 33.7688 62.494 33.7699L47.271 35.667C45.9546 35.8433 44.6721 35.7099 43.497 35.2908C43.471 35.2817 43.445 35.2738 43.4201 35.2648C43.3953 35.2557 43.3693 35.2478 43.3444 35.2388C43.3184 35.2297 43.2913 35.2207 43.2653 35.2117C43.2382 35.2026 43.2111 35.1936 43.184 35.1845C43.1591 35.1766 43.1354 35.1687 43.1105 35.1597C43.0845 35.1506 43.0585 35.1427 43.0337 35.1337C43.0065 35.1247 42.9783 35.1156 42.9512 35.1054C42.9263 35.0975 42.9026 35.0896 42.8777 35.0806C42.8517 35.0716 42.8246 35.0636 42.7975 35.0535C42.7704 35.0444 42.7433 35.0354 42.7173 35.0264C42.6936 35.0184 42.6687 35.0105 42.6438 35.0015C42.6167 34.9925 42.5896 34.9846 42.5636 34.9744C42.5376 34.9653 42.5116 34.9574 42.4868 34.9484C42.4608 34.9394 42.4337 34.9314 42.4077 34.9224C42.3828 34.9134 42.3568 34.9066 42.332 34.8975C42.306 34.8885 42.28 34.8806 42.254 34.8716C42.2269 34.8625 42.2009 34.8546 42.1738 34.8444C42.1489 34.8354 42.124 34.8286 42.0992 34.8196C42.0732 34.8105 42.0461 34.8026 42.0201 34.7936C41.9941 34.7846 41.9681 34.7766 41.9421 34.7676C41.9173 34.7586 41.8913 34.7518 41.8675 34.7427C41.8416 34.7337 41.8144 34.7258 41.7884 34.7168C41.7625 34.7077 41.7353 34.6998 41.7093 34.6908C41.6834 34.6817 41.6562 34.6738 41.6314 34.6648C41.6065 34.6557 41.5805 34.649 41.5557 34.6399C41.5331 34.6331 41.5116 34.6252 41.489 34.6185C41.463 34.6105 41.437 34.6015 41.411 34.5936C41.2269 34.5394 41.0449 34.4761 40.8664 34.4083C40.8427 34.4015 40.8189 34.3925 40.7963 34.3857C40.7692 34.3778 40.7421 34.3687 40.715 34.3597C40.689 34.3518 40.663 34.3428 40.637 34.3349C40.6121 34.3281 40.5884 34.319 40.5647 34.3123C40.5376 34.3043 40.5116 34.2953 40.4845 34.2874C40.4596 34.2806 40.4359 34.2716 40.411 34.2637C40.3828 34.2558 40.3556 34.2467 40.3285 34.2377C40.3037 34.2298 40.2788 34.2219 40.2539 34.2139C40.2268 34.206 40.2008 34.197 40.1749 34.1891C40.15 34.1812 40.1251 34.1733 40.1003 34.1654C40.0754 34.1575 40.0506 34.1495 40.0257 34.1416C39.9974 34.1337 39.9692 34.1236 39.9409 34.1156C39.915 34.1077 39.8901 34.0998 39.8641 34.0919C39.8393 34.0851 39.8155 34.0761 39.7907 34.0693C39.7635 34.0614 39.7364 34.0524 39.7104 34.0445C39.6844 34.0366 39.6596 34.0286 39.6336 34.0207C39.6279 34.0185 39.6212 34.0173 39.6155 34.0162V34.3755C39.6155 35.658 38.6607 36.7393 37.3872 36.8986L28.8808 37.9585C28.6435 37.9879 28.4062 37.9833 28.1757 37.9483C27.9622 38.0387 27.7339 38.102 27.4932 38.1325L24.3497 38.5246C23.8977 38.5811 23.4446 38.5121 23.0344 38.337C23.0084 38.3268 22.9835 38.3155 22.9587 38.3042C22.9338 38.2941 22.9101 38.2839 22.8852 38.2726C22.8592 38.2624 22.8344 38.2511 22.8084 38.2398C22.7835 38.2308 22.7598 38.2195 22.7361 38.2093C22.7202 38.2037 22.7044 38.1969 22.6886 38.1901C22.301 38.5777 21.7869 38.8432 21.2061 38.9155L18.0625 39.3076C17.6614 39.3573 17.258 39.311 16.8851 39.1765C16.5619 39.3946 16.1856 39.5415 15.7755 39.5923L12.6319 39.9844C12.5268 39.998 12.4217 40.0036 12.3178 40.0036C11.9234 40.0036 11.537 39.911 11.1867 39.737L1.69269 35.8523L1.68591 35.8489Z" fill="black"/>
<path d="M12.3123 39.0987C11.9157 39.0987 11.5292 38.9541 11.2275 38.6886C10.875 38.3779 10.6738 37.9304 10.6738 37.4604V33.3238C10.6738 33.0424 10.745 32.7758 10.8716 32.543C10.7428 32.3057 10.6738 32.0379 10.6738 31.7634V2.54497C10.6738 2.07493 10.8761 1.62748 11.2275 1.31676C11.5789 1.00603 12.049 0.860274 12.5145 0.91903L18.231 1.632C18.7463 1.69641 19.2006 2.00036 19.4559 2.45345C19.691 2.87039 19.9283 3.28732 20.1644 3.70313C20.1712 3.24213 20.3723 2.80598 20.7181 2.49978C21.0707 2.18905 21.5385 2.04329 22.0051 2.10205L25.1487 2.49413C25.5917 2.54949 25.9747 2.77773 26.2335 3.10654C26.5736 2.8444 27.0052 2.72576 27.4346 2.77886L30.5782 3.17094C30.7375 3.19128 30.8878 3.23309 31.0291 3.2941C31.1816 3.26925 31.3387 3.26586 31.4946 3.28506L34.6382 3.67714C35.0811 3.73251 35.4642 3.96075 35.7229 4.28956C36.0631 4.02742 36.4947 3.90878 36.9241 3.96188L40.0677 4.35396C40.227 4.3743 40.3773 4.41611 40.5185 4.47712C40.6711 4.45226 40.8281 4.44887 40.9841 4.46808L44.1276 4.86016C44.5706 4.91553 44.9536 5.14377 45.2124 5.47257C45.5537 5.21043 45.9842 5.09179 46.4147 5.1449L49.5583 5.53698C50.3786 5.63867 50.9944 6.33583 50.9944 7.16292V7.55048C51.3041 7.20473 51.6137 6.86349 51.921 6.52678C52.2792 6.1347 52.8058 5.94149 53.3324 6.00702L59.0477 6.72C59.8681 6.82169 60.4839 7.51884 60.4839 8.34594V8.6239C60.815 8.29283 61.1461 7.96516 61.4749 7.64426C61.832 7.29625 62.328 7.12902 62.8229 7.19004L68.5394 7.90301C69.3598 8.0047 69.9756 8.70186 69.9756 9.52896V19.2541C69.9756 19.6914 69.8005 20.1106 69.4909 20.4179C69.1801 20.7252 68.7598 20.8993 68.3225 20.8925L67.4829 20.8846C67.5021 20.8993 67.5214 20.9139 67.5406 20.9298C69.0875 22.1376 69.4728 24.1014 69.4728 25.872C69.4728 29.3634 66.6468 32.2944 62.3969 32.8695C62.3913 32.8695 62.3856 32.8707 62.38 32.8718L47.1526 34.7701C45.0904 35.0469 43.1254 34.4729 41.6169 33.1543C40.0462 31.7814 39.1445 29.7047 39.1445 27.4561C39.1445 25.2076 40.001 23.1082 41.557 21.5557C41.8903 21.2235 42.2462 20.9252 42.6225 20.6631L40.7682 20.6462C40.6089 20.645 40.4552 20.6202 40.3106 20.5772C40.1626 20.619 40.0078 20.6394 39.853 20.6382L38.6575 20.6281C38.6914 20.7591 38.7083 20.8947 38.7083 21.0326V25.4799C38.7083 26.3545 38.0213 27.0754 37.1478 27.116L35.9026 27.1748C36.0823 27.551 36.1105 27.9815 35.9851 28.3759L36.9297 28.2945C37.3874 28.255 37.8394 28.4098 38.1784 28.7194C38.5173 29.029 38.7094 29.4674 38.7094 29.9261V34.3735C38.7094 35.1994 38.0936 35.8966 37.2733 35.9994L28.7669 37.0592C28.5239 37.0898 28.281 37.0649 28.0539 36.9903C27.855 37.1169 27.6267 37.2016 27.3793 37.2321L24.2357 37.6242C23.769 37.683 23.3012 37.5372 22.9487 37.2265C22.7554 37.0559 22.6074 36.8434 22.5136 36.6095C22.4153 37.3372 21.839 37.9225 21.0921 38.0152L17.9486 38.4072C17.5192 38.4615 17.0875 38.3417 16.7463 38.0796C16.4875 38.4084 16.1045 38.6366 15.6615 38.692L12.5179 39.0841C12.4501 39.092 12.3823 39.0965 12.3157 39.0965L12.3123 39.0987ZM50.8103 27.5522C50.8103 27.5861 50.8137 27.6211 50.8204 27.6573C50.8227 27.6708 50.825 27.6821 50.8272 27.6934C50.8622 27.6719 50.8984 27.6403 50.9312 27.5962C50.8905 27.5816 50.8509 27.5669 50.8103 27.551V27.5522Z" fill="#23FF81"/>
<path d="M15.4696 37.2328C14.417 37.3645 13.3632 37.4951 12.3105 37.6268V33.4698C13.3632 33.3698 14.417 33.2699 15.4696 33.1689C15.4696 34.5235 15.4696 35.8781 15.4696 37.2328ZM18.0553 3.25556L12.3105 2.53906V31.9016C13.3632 31.8131 14.417 31.7245 15.4696 31.6359C15.4696 26.491 15.4696 21.3462 15.4696 16.2013C17.2888 16.2524 19.1079 16.3034 20.9271 16.3557C20.9271 13.6532 20.9271 10.9496 20.9271 8.24716C19.9698 6.6166 19.0125 4.95311 18.0553 3.25556ZM17.768 11.0484C17.0026 10.9973 16.2361 10.9462 15.4708 10.8951C15.4708 10.0106 15.4708 9.12603 15.4708 8.24148C15.8534 8.27441 16.2361 8.30734 16.6199 8.34027C17.0026 9.01134 17.3864 9.67674 17.7691 10.3365V11.0484H17.768ZM21.848 14.3118C22.8052 15.8879 23.7625 17.4299 24.7198 18.9389L30.4645 18.99V4.80209L27.3054 4.40808C27.3054 7.64195 27.3054 10.8758 27.3054 14.1097C26.9227 14.0915 26.5389 14.0733 26.1562 14.0552C25.7736 13.4432 25.3909 12.8266 25.0071 12.2043V4.12193C23.9544 3.99022 22.9006 3.85964 21.848 3.72792V14.3107V14.3118ZM31.3843 4.91677V18.998C32.4369 19.007 33.4907 19.0173 34.5434 19.0263V13.8315C35.3087 14.9806 36.0752 16.107 36.8406 17.213V19.0468C37.8932 19.0559 38.947 19.0661 39.9997 19.0752V5.99095C38.947 5.85923 37.8932 5.72865 36.8406 5.59693V10.6919C36.0752 9.54275 35.3087 8.3732 34.5434 7.18094V5.31079C33.4907 5.17907 32.4369 5.04849 31.3843 4.91677ZM45.2288 10.802C44.8462 10.7691 44.4635 10.7362 44.0797 10.7032V6.49964C43.027 6.36793 41.9732 6.23735 40.9206 6.10563V19.0831C41.9732 19.0922 43.027 19.1024 44.0797 19.1115V14.9079C44.4623 14.9261 44.845 14.9443 45.2288 14.9624C45.6115 15.4848 45.9953 16.0014 46.378 16.5135V19.132C47.4307 19.141 48.4844 19.1513 49.5371 19.1603V15.1668C49.0102 14.4764 48.4844 13.7759 47.9575 13.065C48.4844 12.4246 49.0102 11.7944 49.5371 11.1733V7.1798C48.4844 7.04809 47.4307 6.9175 46.378 6.78579V9.40422C45.9953 9.86523 45.6115 10.3308 45.2288 10.802ZM54.7651 11.623C56.2016 11.7467 57.6369 11.8705 59.0734 11.9943V8.36866C57.1589 8.13021 55.2443 7.89175 53.3287 7.65217C52.3714 8.69909 51.4141 9.77893 50.4569 10.8928C50.4569 13.6509 50.4569 16.4102 50.4569 19.1683C53.3287 19.1944 56.2016 19.2194 59.0734 19.2455V13.8076C58.0207 13.7372 56.967 13.6668 55.9143 13.5964V15.47C55.1489 15.4337 54.3825 15.3973 53.6171 15.361C53.6171 14.5468 53.6171 13.7338 53.6171 12.9197C53.9998 12.4825 54.3825 12.0499 54.7663 11.6241L54.7651 11.623ZM62.8661 8.84102C61.9088 9.77553 60.9516 10.7441 59.9943 11.7467C59.9943 14.2494 59.9943 16.7508 59.9943 19.2534C61.047 19.2625 62.1007 19.2728 63.1534 19.2818V17.5479C63.9188 17.5695 64.6852 17.5911 65.4506 17.6127V19.3023C66.5033 19.3114 67.557 19.3216 68.6097 19.3307V9.55751L62.865 8.84102H62.8661ZM65.4506 14.2323C64.6852 14.1812 63.9188 14.1301 63.1534 14.079V13.6055C63.5361 13.2127 63.9188 12.8254 64.3026 12.4428C64.6852 12.4757 65.0691 12.5086 65.4517 12.5416V14.2312L65.4506 14.2323ZM17.7668 21.2894V36.9466C18.8195 36.8149 19.8733 36.6843 20.9259 36.5526C20.9259 34.5451 20.9259 32.5364 20.9259 30.5288C21.4528 31.3362 21.9786 32.1344 22.5055 32.9225C23.0324 32.0311 23.5581 31.15 24.085 30.279V36.1586C25.1377 36.0269 26.1914 35.8963 27.2441 35.7646V21.2042C26.1914 21.2133 25.1377 21.2235 24.085 21.2326V23.0414C23.5581 23.8828 23.0324 24.7344 22.5055 25.5963C21.9786 24.7787 21.4528 23.9521 20.9259 23.1141C20.9259 22.4964 20.9259 21.8787 20.9259 21.261C19.8733 21.2701 18.8195 21.2803 17.7668 21.2894ZM37.188 21.1156C34.339 21.1406 31.4899 21.1667 28.6397 21.1917V25.9914C29.1666 26.7658 29.6923 27.5312 30.2192 28.2863C29.6923 29.1106 29.1666 29.9463 28.6397 30.7911V35.5908C31.4888 35.2354 34.3378 34.88 37.188 34.5258V30.0565C35.7743 30.178 34.3617 30.2995 32.9479 30.421C33.4748 29.6034 34.0006 28.7961 34.5275 27.999C34.0006 27.2723 33.4748 26.5353 32.9479 25.7882C34.3617 25.7212 35.7743 25.6542 37.188 25.5872V21.1179V21.1156ZM62.421 20.8908C57.3178 20.9362 52.2147 20.9817 47.1104 21.0271C43.6913 21.0203 40.9206 23.9498 40.9206 27.5709C40.9206 31.192 43.6913 33.7514 47.1104 33.2881C52.2136 32.6522 57.3167 32.0163 62.421 31.3793C65.8401 30.916 68.1055 28.6405 68.1055 25.9789C68.1055 23.3174 65.839 20.8965 62.421 20.8908ZM52.8926 27.0997C52.879 27.2609 52.8665 27.4221 52.8529 27.5845C52.8506 27.5834 52.8483 27.5823 52.8472 27.5823C52.8472 27.5823 52.8461 27.5823 52.8449 27.5823C52.7041 29.6704 49.7994 30.3733 49.3883 28.0626C49.2771 27.4369 49.4304 26.8056 49.7642 26.3344C48.9125 25.9665 48.0609 25.5804 47.2058 25.1671C47.2819 24.9218 47.358 24.6811 47.4341 24.4404C49.2748 25.2556 51.1087 25.9778 52.9324 26.6114C52.9199 26.7738 52.9062 26.9362 52.8926 27.0974V27.0997ZM60.1442 27.2348C59.7331 29.3559 56.8284 29.3127 56.6876 27.295C56.6876 27.295 56.6876 27.295 56.6853 27.295C56.6842 27.295 56.6819 27.2961 56.6797 27.2972C56.6672 27.1428 56.6535 26.9895 56.6399 26.8362C56.6263 26.6818 56.6138 26.5285 56.6002 26.373C58.425 25.5293 60.2578 24.6799 62.0985 23.8363C62.1746 24.0373 62.2506 24.2382 62.3267 24.4415C61.4717 24.8718 60.6189 25.2988 59.7683 25.7291C60.1011 26.1163 60.2555 26.658 60.1442 27.2348Z" fill="black"/>
</g>
<defs>
<clipPath id="clip0_10103_21267">
<rect width="70.8772" height="40" fill="white"/>
</clipPath>
</defs>
</svg>
