<svg width="107" height="60" viewBox="0 0 107 60" fill="none" xmlns="http://www.w3.org/2000/svg">
<g clip-path="url(#clip0_1148_3359)">
<path d="M2.52887 53.773C2.06106 53.6052 1.62546 53.3493 1.24918 53.0086C0.454247 52.2866 0 51.2612 0 50.1867V45.4038C0 45.0936 0.0372889 44.7902 0.108477 44.5004C0.0372889 44.2072 0 43.9055 0 43.6004V9.81326C0 8.73871 0.454247 7.71332 1.24918 6.9913C1.64749 6.6286 2.1136 6.35912 2.61531 6.19472L16.7698 0.398271C17.4343 0.0677715 18.1868 -0.0644281 18.9377 0.0287896L27.5124 1.09825C28.5345 1.22537 29.4549 1.76094 30.0718 2.5677C30.0922 2.55923 30.1142 2.55075 30.1345 2.54228C30.1701 2.52702 30.2057 2.51177 30.243 2.49652C30.282 2.47957 30.3227 2.46262 30.3617 2.44567C30.3956 2.43042 30.4311 2.41516 30.465 2.4016C30.5023 2.38465 30.5413 2.36771 30.5803 2.35245C30.6193 2.3355 30.6583 2.31856 30.6973 2.3033C30.7312 2.28805 30.7651 2.27279 30.799 2.25923C30.8379 2.24059 30.8786 2.22364 30.9193 2.20839C30.9549 2.19314 30.9905 2.17788 31.0261 2.16263C31.0634 2.14568 31.1023 2.12873 31.1413 2.11348C31.7719 1.83043 32.4753 1.71857 33.177 1.80671L37.8923 2.39482C38.5076 2.47109 39.072 2.69143 39.5568 3.01854C40.1161 2.81685 40.7195 2.74736 41.3229 2.82193L46.0382 3.41005C46.2722 3.43886 46.501 3.48971 46.7196 3.5592C46.9484 3.54564 47.1807 3.55242 47.4129 3.58123L52.1282 4.16935C52.7435 4.24562 53.3079 4.46595 53.7927 4.79306C54.352 4.59137 54.9554 4.52188 55.5588 4.59646L60.2741 5.18458C60.508 5.21339 60.7369 5.26423 60.9555 5.33372C61.1843 5.32017 61.4165 5.32694 61.6488 5.35576L66.3641 5.94388C66.9794 6.02015 67.5438 6.24048 68.0285 6.56759C68.5879 6.3659 69.1913 6.29641 69.7947 6.37098L74.51 6.9591C75.5117 7.08452 76.3813 7.59129 76.983 8.32178C76.9982 8.31669 77.0135 8.3133 77.0287 8.30822C77.0609 8.29805 77.0948 8.28618 77.1287 8.27601C77.1711 8.26246 77.2135 8.2472 77.2559 8.23534C77.2897 8.22347 77.3237 8.2133 77.3576 8.20314C77.3965 8.18958 77.4338 8.17771 77.4728 8.16585C77.5101 8.15398 77.5457 8.14212 77.583 8.13026C77.6203 8.11839 77.6576 8.10483 77.6948 8.09466C77.7321 8.0828 77.7694 8.06924 77.8067 8.05907C77.844 8.04721 77.8813 8.03365 77.9186 8.02178C77.9593 8.00823 77.9982 7.99467 78.0389 7.9828C78.0711 7.97263 78.1033 7.96077 78.1355 7.9506C78.1745 7.93704 78.2152 7.92348 78.2542 7.91162C78.2915 7.89806 78.3305 7.88619 78.3677 7.87433C78.405 7.86247 78.4423 7.84891 78.4796 7.83704C79.0169 7.65569 79.5932 7.59298 80.1712 7.66417L88.7442 8.73363C89.729 8.85566 90.5849 9.34717 91.185 10.0573C91.1917 10.0556 91.2002 10.0539 91.207 10.0505C91.2443 10.0387 91.2799 10.0285 91.3172 10.0183C91.3545 10.0065 91.3934 9.9963 91.4324 9.98444C91.4697 9.97258 91.507 9.96241 91.5443 9.95224C91.5799 9.94037 91.6172 9.9302 91.6545 9.92004C91.6917 9.90817 91.729 9.898 91.7663 9.88783C91.8019 9.87597 91.8392 9.8658 91.8765 9.85563C91.9155 9.84377 91.9562 9.8319 91.9968 9.82004C92.0324 9.80987 92.0663 9.7997 92.1019 9.78953C92.1392 9.77767 92.1765 9.7675 92.2138 9.75733C92.2511 9.74546 92.2901 9.73529 92.3274 9.72343C92.3646 9.71157 92.4019 9.7014 92.4392 9.69123C92.4765 9.67936 92.5138 9.6692 92.5528 9.65733C92.5884 9.64547 92.6223 9.63699 92.6579 9.62682C92.6985 9.61326 92.7409 9.6014 92.7816 9.58954C93.3003 9.42513 93.8528 9.3709 94.4054 9.44039L102.98 10.5098C104.889 10.7471 106.323 12.3708 106.323 14.2945V28.8822C106.323 29.8991 105.916 30.8754 105.194 31.5906C104.889 31.894 104.536 32.1397 104.155 32.3228C105.553 34.1126 105.568 36.621 105.568 38.809C105.568 44.7106 100.814 49.6969 93.7816 50.6494C93.7681 50.6511 93.7545 50.6528 93.7409 50.6545L70.9066 53.5002C68.932 53.7646 67.0082 53.5646 65.2454 52.9358C65.2065 52.9222 65.1675 52.9103 65.1302 52.8968C65.0929 52.8832 65.0539 52.8714 65.0166 52.8578C64.9776 52.8442 64.937 52.8307 64.898 52.8171C64.8573 52.8036 64.8166 52.79 64.7759 52.7765C64.7386 52.7646 64.703 52.7527 64.6658 52.7392C64.6268 52.7256 64.5878 52.7137 64.5505 52.7002C64.5098 52.6866 64.4675 52.6731 64.4268 52.6578C64.3895 52.6459 64.3539 52.6341 64.3166 52.6205C64.2776 52.607 64.2369 52.5951 64.1963 52.5798C64.1556 52.5663 64.1149 52.5527 64.0759 52.5392C64.0403 52.5273 64.003 52.5154 63.9657 52.5019C63.9251 52.4883 63.8844 52.4765 63.8454 52.4612C63.8064 52.4476 63.7674 52.4358 63.7301 52.4222C63.6912 52.4087 63.6505 52.3968 63.6115 52.3832C63.5742 52.3697 63.5352 52.3595 63.4979 52.346C63.459 52.3324 63.42 52.3205 63.381 52.307C63.3403 52.2934 63.3013 52.2815 63.2607 52.2663C63.2234 52.2527 63.1861 52.2426 63.1488 52.229C63.1098 52.2154 63.0691 52.2036 63.0301 52.19C62.9911 52.1765 62.9522 52.1646 62.9132 52.151C62.8759 52.1375 62.8369 52.1273 62.8013 52.1138C62.7623 52.1002 62.7217 52.0883 62.6827 52.0748C62.6437 52.0612 62.603 52.0493 62.564 52.0358C62.525 52.0222 62.4844 52.0104 62.4471 51.9968C62.4098 51.9833 62.3708 51.9731 62.3335 51.9595C62.2996 51.9494 62.2674 51.9375 62.2335 51.9273C62.1945 51.9155 62.1555 51.9019 62.1166 51.89C61.8403 51.8087 61.5674 51.7138 61.2996 51.6121C61.264 51.6019 61.2284 51.5883 61.1945 51.5782C61.1538 51.5663 61.1131 51.5528 61.0725 51.5392C61.0335 51.5273 60.9945 51.5138 60.9555 51.5019C60.9182 51.4917 60.8826 51.4782 60.847 51.468C60.8064 51.4562 60.7674 51.4426 60.7267 51.4307C60.6894 51.4206 60.6538 51.407 60.6165 51.3951C60.5742 51.3833 60.5335 51.3697 60.4928 51.3562C60.4555 51.3443 60.4182 51.3324 60.3809 51.3206C60.3402 51.3087 60.3013 51.2951 60.2623 51.2833C60.225 51.2714 60.1877 51.2595 60.1504 51.2477C60.1131 51.2358 60.0758 51.2239 60.0385 51.2121C59.9962 51.2002 59.9538 51.185 59.9114 51.1731C59.8724 51.1612 59.8352 51.1494 59.7962 51.1375C59.7589 51.1273 59.7233 51.1138 59.686 51.1036C59.6453 51.0917 59.6046 51.0782 59.5657 51.0663C59.5267 51.0545 59.4894 51.0426 59.4504 51.0307C59.4419 51.0273 59.4318 51.0257 59.4233 51.024V51.5629C59.4233 53.4866 57.991 55.1086 56.0808 55.3476L43.3212 56.9373C42.9653 56.9814 42.6094 56.9746 42.2636 56.9221C41.9433 57.0577 41.6009 57.1526 41.2398 57.1984L36.5245 57.7865C35.8465 57.8712 35.1668 57.7678 34.5516 57.5051C34.5126 57.4899 34.4753 57.4729 34.438 57.456C34.4007 57.4407 34.3651 57.4255 34.3278 57.4085C34.2889 57.3933 34.2516 57.3763 34.2126 57.3594C34.1753 57.3458 34.1397 57.3289 34.1041 57.3136C34.0804 57.3051 34.0566 57.295 34.0329 57.2848C33.4515 57.8661 32.6803 58.2644 31.8091 58.3729L27.0938 58.961C26.4921 59.0356 25.887 58.9661 25.3276 58.7644C24.8429 59.0915 24.2785 59.3119 23.6632 59.3881L18.9479 59.9762C18.7902 59.9966 18.6326 60.0051 18.4767 60.0051C17.8851 60.0051 17.3054 59.8661 16.78 59.6051L2.53904 53.7781L2.52887 53.773Z" fill="black"/>
<path d="M18.4674 58.6441C17.8725 58.6441 17.2928 58.4271 16.8403 58.0288C16.3115 57.5628 16.0098 56.8916 16.0098 56.1865V49.9816C16.0098 49.5596 16.1165 49.1596 16.3064 48.8105C16.1132 48.4545 16.0098 48.0529 16.0098 47.641V3.81343C16.0098 3.10837 16.3132 2.4372 16.8403 1.97111C17.3674 1.50502 18.0725 1.28638 18.7708 1.37452L27.3456 2.44398C28.1185 2.54059 28.7999 2.9965 29.1829 3.67615C29.5355 4.30155 29.8914 4.92696 30.2457 5.55067C30.2558 4.85916 30.5575 4.20494 31.0762 3.74564C31.605 3.27955 32.3067 3.06091 33.0067 3.14904L37.7221 3.73716C38.3865 3.82021 38.9611 4.16257 39.3492 4.65578C39.8594 4.26257 40.5069 4.08461 41.151 4.16427L45.8663 4.75239C46.1053 4.78289 46.3307 4.8456 46.5426 4.93713C46.7714 4.89984 47.007 4.89476 47.2409 4.92357L51.9563 5.51169C52.6207 5.59474 53.1953 5.9371 53.5834 6.43031C54.0936 6.0371 54.7411 5.85914 55.3852 5.93879L60.1005 6.52691C60.3395 6.55742 60.5649 6.62013 60.7768 6.71165C61.0056 6.67437 61.2412 6.66928 61.4751 6.69809L66.1905 7.28621C66.8549 7.36926 67.4295 7.71163 67.8176 8.20483C68.3295 7.81162 68.9753 7.63366 69.6211 7.71332L74.3364 8.30144C75.5669 8.45398 76.4907 9.49971 76.4907 10.7404V11.3217C76.9551 10.8031 77.4195 10.2912 77.8806 9.78614C78.4179 9.19802 79.2077 8.9082 79.9976 9.0065L88.5706 10.076C89.8011 10.2285 90.7249 11.2742 90.7249 12.5149V12.9318C91.2215 12.4352 91.7181 11.9437 92.2114 11.4624C92.747 10.9403 93.4911 10.6895 94.2334 10.781L102.808 11.8505C104.039 12.003 104.962 13.0488 104.962 14.2894V28.8771C104.962 29.533 104.7 30.1618 104.235 30.6228C103.769 31.0838 103.139 31.3449 102.483 31.3347L101.223 31.3228C101.252 31.3449 101.281 31.3669 101.31 31.3906C103.63 33.2024 104.208 36.1481 104.208 38.804C104.208 44.0411 99.9691 48.4376 93.5944 49.3003C93.586 49.3003 93.5775 49.302 93.569 49.3037L70.7279 52.1511C67.6346 52.5663 64.6871 51.7053 62.4243 49.7274C60.0683 47.6681 58.7157 44.553 58.7157 41.1802C58.7157 37.8074 60.0005 34.6583 62.3345 32.3296C62.8345 31.8313 63.3684 31.3838 63.9328 30.9906L61.1514 30.9652C60.9124 30.9635 60.6819 30.9262 60.4649 30.8618C60.2429 30.9245 60.0107 30.955 59.7785 30.9533L57.9852 30.9381C58.0361 31.1347 58.0615 31.3381 58.0615 31.5448V38.2158C58.0615 39.5277 57.031 40.609 55.7208 40.67L53.8529 40.7581C54.1224 41.3225 54.1648 41.9683 53.9767 42.5598L55.3936 42.4378C56.0801 42.3784 56.7581 42.6106 57.2666 43.075C57.775 43.5394 58.0632 44.197 58.0632 44.8852V51.5561C58.0632 52.7951 57.1394 53.8408 55.9089 53.9951L43.1493 55.5848C42.7849 55.6306 42.4205 55.5933 42.0798 55.4815C41.7815 55.6713 41.4391 55.7984 41.0679 55.8442L36.3526 56.4323C35.6525 56.5204 34.9508 56.3018 34.422 55.8357C34.1322 55.5798 33.9101 55.2611 33.7695 54.9103C33.622 56.0018 32.7576 56.8797 31.6372 57.0187L26.9219 57.6068C26.2778 57.6882 25.6303 57.5085 25.1184 57.1153C24.7303 57.6085 24.1557 57.9509 23.4913 58.0339L18.7759 58.6221C18.6742 58.6339 18.5725 58.6407 18.4725 58.6407L18.4674 58.6441ZM76.2144 41.3242C76.2144 41.3751 76.2195 41.4276 76.2297 41.4819C76.2331 41.5022 76.2364 41.5191 76.2398 41.5361C76.2924 41.5039 76.3466 41.4564 76.3958 41.3903C76.3348 41.3683 76.2754 41.3463 76.2144 41.3225V41.3242Z" fill="#23FF81"/>
<path d="M23.2054 55.854C21.6264 56.0516 20.0458 56.2475 18.4668 56.4451V50.2095C20.0458 50.0596 21.6264 49.9098 23.2054 49.7582C23.2054 51.7901 23.2054 53.8221 23.2054 55.854ZM27.0839 4.88822L18.4668 3.81348V47.8574C20.0458 47.7245 21.6264 47.5917 23.2054 47.4588C23.2054 39.7415 23.2054 32.0241 23.2054 24.3068C25.9341 24.3834 28.6628 24.4601 31.3916 24.5384C31.3916 20.4847 31.3916 16.4293 31.3916 12.3756C29.9557 9.92978 28.5198 7.43455 27.0839 4.88822ZM26.6529 16.5775C25.5049 16.5009 24.3552 16.4242 23.2071 16.3476C23.2071 15.0207 23.2071 13.6939 23.2071 12.3671C23.7811 12.4165 24.3552 12.4659 24.9309 12.5153C25.5049 13.5219 26.0806 14.52 26.6546 15.5096V16.5775H26.6529ZM32.773 21.4726C34.2088 23.8367 35.6447 26.1497 37.0806 28.4133L45.6977 28.4899V7.20802L40.9591 6.617C40.9591 11.4678 40.9591 16.3186 40.9591 21.1694C40.3851 21.1422 39.8094 21.1149 39.2353 21.0877C38.6613 20.1696 38.0873 19.2448 37.5116 18.3114V6.18778C35.9326 5.99021 34.3519 5.79434 32.773 5.59676V21.4709V21.4726ZM47.0774 7.38004V28.5018C48.6564 28.5155 50.2371 28.5308 51.816 28.5444V20.7521C52.9641 22.4758 54.1138 24.1654 55.2618 25.8243V28.5751C56.8408 28.5887 58.4215 28.604 60.0005 28.6176V8.9913C58.4215 8.79373 56.8408 8.59786 55.2618 8.40028V16.0427C54.1138 14.319 52.9641 12.5647 51.816 10.7763V7.97107C50.2371 7.77349 48.6564 7.57762 47.0774 7.38004ZM67.8442 16.2079C67.2702 16.1585 66.6962 16.1091 66.1205 16.0597V9.75435C64.5415 9.55678 62.9608 9.3609 61.3819 9.16333V28.6296C62.9608 28.6432 64.5415 28.6585 66.1205 28.6721V22.3668C66.6945 22.394 67.2685 22.4213 67.8442 22.4485C68.4183 23.232 68.994 24.007 69.568 24.7752V28.7028C71.147 28.7164 72.7276 28.7318 74.3066 28.7454V22.7551C73.5163 21.7196 72.7276 20.6687 71.9373 19.6024C72.7276 18.6418 73.5163 17.6965 74.3066 16.7649V10.7746C72.7276 10.577 71.147 10.3811 69.568 10.1836V14.1112C68.994 14.8027 68.4183 15.5011 67.8442 16.2079ZM82.1487 17.4393C84.3034 17.625 86.4564 17.8106 88.6111 17.9963V12.5579C85.7393 12.2002 82.8675 11.8425 79.994 11.4831C78.5581 13.0535 77.1222 14.6733 75.6863 16.3442C75.6863 20.4813 75.6863 24.6202 75.6863 28.7573C79.994 28.7965 84.3034 28.834 88.6111 28.8731V20.7164C87.0321 20.6108 85.4514 20.5052 83.8724 20.3996V23.2099C82.7244 23.1554 81.5747 23.1009 80.4266 23.0464C80.4266 21.8252 80.4266 20.6056 80.4266 19.3844C81.0006 18.7287 81.5747 18.0798 82.1504 17.441L82.1487 17.4393ZM94.3001 13.2664C92.8642 14.6682 91.4283 16.121 89.9925 17.625C89.9925 21.3789 89.9925 25.1311 89.9925 28.8851C91.5714 28.8987 93.1521 28.914 94.7311 28.9276V26.3268C95.8791 26.3592 97.0288 26.3915 98.1769 26.4239V28.9583C99.7559 28.9719 101.337 28.9872 102.916 29.0009V14.3412L94.2984 13.2664H94.3001ZM98.1769 21.3534C97.0288 21.2767 95.8791 21.2001 94.7311 21.1234V20.4132C95.3051 19.8239 95.8791 19.2431 96.4548 18.6691C97.0289 18.7185 97.6046 18.7679 98.1786 18.8172V21.3517L98.1769 21.3534ZM26.6512 31.939V55.4248C28.2302 55.2272 29.8109 55.0314 31.3899 54.8338C31.3899 51.8225 31.3899 48.8095 31.3899 45.7981C32.1802 47.0091 32.9688 48.2065 33.7592 49.3886C34.5495 48.0515 35.3381 46.7298 36.1285 45.4234V54.2428C37.7075 54.0452 39.2881 53.8493 40.8671 53.6518V31.8112C39.2881 31.8248 37.7075 31.8402 36.1285 31.8538V34.567C35.3381 35.8291 34.5495 37.1066 33.7592 38.3993C32.9688 37.173 32.1802 35.933 31.3899 34.676C31.3899 33.7495 31.3899 32.8229 31.3899 31.8964C29.8109 31.91 28.2302 31.9253 26.6512 31.939ZM55.7831 31.6784C51.5094 31.7158 47.2358 31.755 42.9605 31.7925V38.992C43.7508 40.1536 44.5395 41.3016 45.3298 42.4343C44.5395 43.6708 43.7508 44.9244 42.9605 46.1916V53.3912C47.2341 52.858 51.5077 52.3249 55.7831 51.7935V45.0896C53.6624 45.2719 51.5435 45.4541 49.4229 45.6363C50.2132 44.41 51.0018 43.199 51.7922 42.0033C51.0018 40.9133 50.2132 39.8079 49.4229 38.6872C51.5435 38.5867 53.6624 38.4862 55.7831 38.3857V31.6818V31.6784ZM93.6324 31.3411C85.9777 31.4092 78.323 31.4774 70.6666 31.5455C65.5379 31.5353 61.3819 35.9296 61.3819 41.3612C61.3819 46.7928 65.5379 50.6319 70.6666 49.937C78.3213 48.9832 85.976 48.0294 93.6324 47.0739C98.7611 46.379 102.159 42.9657 102.159 38.9733C102.159 34.9809 98.7594 31.3496 93.6324 31.3411ZM79.3399 40.6544C79.3195 40.8962 79.3007 41.1381 79.2803 41.3817C79.2769 41.38 79.2735 41.3783 79.2718 41.3783C79.2718 41.3783 79.2701 41.3783 79.2684 41.3783C79.0572 44.5105 74.7001 45.5648 74.0835 42.0987C73.9166 41.1602 74.1465 40.2133 74.6473 39.5064C73.3698 38.9546 72.0923 38.3755 70.8097 37.7555C70.9238 37.3876 71.0379 37.0265 71.1521 36.6654C73.9131 37.8883 76.664 38.9716 79.3995 39.922C79.3808 40.1656 79.3604 40.4091 79.3399 40.651V40.6544ZM90.2173 40.8571C89.6007 44.0387 85.2436 43.974 85.0324 40.9473C85.0324 40.9473 85.0324 40.9473 85.029 40.9473C85.0273 40.9473 85.0239 40.949 85.0205 40.9508C85.0017 40.7191 84.9813 40.4892 84.9609 40.2592C84.9404 40.0276 84.9217 39.7977 84.9012 39.5643C87.6385 38.2988 90.3876 37.0248 93.1487 35.7593C93.2628 36.0608 93.3769 36.3622 93.4911 36.6671C92.2085 37.3126 90.9293 37.9531 89.6535 38.5986C90.1526 39.1794 90.3842 39.9918 90.2173 40.8571Z" fill="black"/>
</g>
<defs>
<clipPath id="clip0_1148_3359">
<rect width="106.316" height="60" fill="white"/>
</clipPath>
</defs>
</svg>
