<svg width="57" height="26" viewBox="0 0 57 26" fill="none" xmlns="http://www.w3.org/2000/svg">
<path fill-rule="evenodd" clip-rule="evenodd" d="M56.5832 6.48094H56.5882V4.08413C56.5882 3.54194 56.3704 3.03015 55.9905 2.6501L53.9035 0.587735C53.5235 0.212759 53.017 0.00500195 52.4851 0.00500195H47.0091V0.00506724H2.08704V0C0.932077 0 0 0.8817 0 1.97116V5.69555V20.3095V24.0288C0 25.1183 1.02832 26 2.2998 26H54.2834C55.5548 26 56.5832 25.1183 56.5832 24.0288V6.48094Z" fill="#00E160"/>
<path fill-rule="evenodd" clip-rule="evenodd" d="M37.4569 13.6768H33.0129C32.8913 13.6768 32.7748 13.7274 32.6785 13.8186L30.556 15.8962C30.4446 16.0026 30.3838 16.1648 30.3838 16.3269V23.8163C30.3838 24.1305 30.6117 24.3889 30.8904 24.3889H54.5621H54.5671C54.8457 24.3889 55.0737 24.1305 55.0737 23.8163V16.3269C55.0737 16.1597 55.0078 16.0026 54.9015 15.8962L52.779 13.8186C52.6878 13.7274 52.5662 13.6768 52.4446 13.6768H48.0008L47.0954 15.0956C46.9283 15.3591 46.5889 15.5212 46.214 15.5212H39.2437C38.8688 15.5212 38.5295 15.354 38.3623 15.0956L37.4569 13.6768ZM38.9802 19.0329H36.0016C35.8505 19.0329 35.728 19.1554 35.728 19.3065V21.1915C35.728 21.3426 35.8505 21.4651 36.0016 21.4651H38.9802C39.1312 21.4651 39.2537 21.3426 39.2537 21.1915V19.3065C39.2537 19.1554 39.1312 19.0329 38.9802 19.0329ZM46.4824 19.0329H49.461C49.612 19.0329 49.7345 19.1554 49.7345 19.3065V21.1915C49.7345 21.3426 49.612 21.4651 49.461 21.4651H46.4824C46.3313 21.4651 46.2088 21.3426 46.2088 21.1915V19.3065C46.2088 19.1554 46.3313 19.0329 46.4824 19.0329Z" fill="#0B0B0B"/>
<path d="M10.7494 9.93707C10.6532 9.84079 10.6025 9.71411 10.6025 9.5773V2.05751C10.6025 1.77881 10.8305 1.55078 11.1091 1.55078H13.3886C13.6672 1.55078 13.8952 1.77881 13.8952 2.05751V7.93044C13.8952 8.06726 13.9509 8.19394 14.0421 8.29022L14.6753 8.92362C14.9944 9.24286 15.5415 9.01483 15.5415 8.56385V2.05751C15.5415 1.77881 15.7695 1.55078 16.0481 1.55078H18.3276C18.6062 1.55078 18.8342 1.77881 18.8342 2.05751V11.7562C18.8342 12.0349 18.6062 12.2629 18.3276 12.2629H13.2772C13.1404 12.2629 13.0138 12.2072 12.9175 12.116L10.7444 9.94214L10.7494 9.93707Z" fill="#0B0B0B"/>
<path d="M27.7449 3.87665C27.8412 3.97292 27.8918 4.09961 27.8918 4.23642V11.7562C27.8918 12.0349 27.6639 12.2629 27.3853 12.2629H25.1057C24.8271 12.2629 24.5992 12.0349 24.5992 11.7562V5.88328C24.5992 5.74646 24.5434 5.61978 24.4522 5.5235L23.819 4.8901C23.4999 4.57086 22.9528 4.79888 22.9528 5.24987V11.7562C22.9528 12.0349 22.7249 12.2629 22.4463 12.2629H20.1667C19.8881 12.2629 19.6602 12.0349 19.6602 11.7562V2.05751C19.6602 1.77881 19.8881 1.55078 20.1667 1.55078H25.2172C25.3539 1.55078 25.4806 1.60652 25.5768 1.69773L27.75 3.87158L27.7449 3.87665Z" fill="#0B0B0B"/>
<path d="M33.6617 2.05751C33.6617 1.77881 33.8896 1.55078 34.1682 1.55078H36.4478C36.7264 1.55078 36.9543 1.77881 36.9543 2.05751V7.10955C36.9543 7.24636 36.8986 7.37304 36.8074 7.46932L35.6676 8.60945C35.4701 8.80708 35.4701 9.12631 35.6676 9.32393L36.8074 10.4641C36.9037 10.5603 36.9543 10.687 36.9543 10.8238V11.7562C36.9543 12.0349 36.7264 12.2629 36.4478 12.2629H34.1682C33.8896 12.2629 33.6617 12.0349 33.6617 11.7562V11.6498C33.6617 11.513 33.6059 11.3863 33.5147 11.29L32.8815 10.6566C32.5624 10.3374 32.0153 10.5654 32.0153 11.0164V11.7562C32.0153 12.0349 31.7874 12.2629 31.5088 12.2629H29.2292C28.9506 12.2629 28.7227 12.0349 28.7227 11.7562V2.05751C28.7227 1.77881 28.9506 1.55078 29.2292 1.55078H31.5088C31.7874 1.55078 32.0153 1.77881 32.0153 2.05751V6.28359C32.0153 6.4204 32.071 6.54708 32.1622 6.64336L32.7954 7.27677C33.1146 7.596 33.6617 7.36798 33.6617 6.91699V2.05751Z" fill="#0B0B0B"/>
<path d="M50.9958 10.6566C50.6767 10.3374 50.1296 10.5654 50.1296 11.0164V11.7562C50.1296 12.0349 49.9016 12.2629 49.623 12.2629H47.3435C47.0649 12.2629 46.8369 12.0349 46.8369 11.7562V2.05751C46.8369 1.77881 47.0649 1.55078 47.3435 1.55078H52.3939C52.5256 1.55078 52.6573 1.60652 52.7536 1.69773L54.9267 3.87158C55.023 3.96786 55.0736 4.09454 55.0736 4.23135V11.7511C55.0736 12.0298 54.8457 12.2579 54.5671 12.2579H52.2875C52.0089 12.2579 51.781 12.0298 51.781 11.7511V11.6447C51.781 11.5079 51.7303 11.3812 51.6341 11.285L51.0009 10.6516L50.9958 10.6566ZM50.9148 7.27677C51.2339 7.596 51.781 7.36798 51.781 6.91699V5.87821C51.781 5.74139 51.7303 5.61471 51.6341 5.51843L51.0009 4.88503C50.6817 4.56579 50.1346 4.79382 50.1346 5.2448V6.28359C50.1346 6.4204 50.1904 6.54708 50.2815 6.64336L50.9148 7.27677Z" fill="#0B0B0B"/>
<path d="M13.0292 13.8742C13.1254 13.7526 13.2723 13.6816 13.4294 13.6816H18.4444C18.723 13.6816 18.9509 13.9097 18.9509 14.1884V23.8871C18.9509 24.1658 18.723 24.3938 18.4444 24.3938H16.1648C15.8862 24.3938 15.6583 24.1658 15.6583 23.8871V17.3807C15.6583 16.9297 15.1112 16.7017 14.792 17.021L14.1588 17.6544C14.0626 17.7506 14.0119 17.8773 14.0119 18.0141V23.8871C14.0119 24.1658 13.784 24.3938 13.5054 24.3938H11.2258C10.9472 24.3938 10.7193 24.1658 10.7193 23.8871V18.0141C10.7193 17.8773 10.6635 17.7506 10.5724 17.6544L9.93916 17.021C9.62003 16.7017 9.07294 16.9297 9.07294 17.3807V23.8871C9.07294 24.1658 8.84498 24.3938 8.56637 24.3938H6.28684C6.00823 24.3938 5.78027 24.1658 5.78027 23.8871V14.1884C5.78027 13.9097 6.00823 13.6816 6.28684 13.6816H11.3018C11.4589 13.6816 11.6058 13.7526 11.702 13.8742L11.9755 14.2238C12.1782 14.4823 12.5682 14.4823 12.7709 14.2238L13.0444 13.8742H13.0292Z" fill="#0B0B0B"/>
<path d="M24.7154 17.3147C24.7154 16.884 24.1936 16.6711 23.8897 16.9752L23.2159 17.6491C23.1197 17.7454 23.069 17.8721 23.069 18.0089V21.4141C23.069 21.6928 23.297 21.9208 23.5756 21.9208H27.5065C27.7851 21.9208 28.0131 22.1488 28.0131 22.4275V23.8869C28.0131 24.1656 27.7851 24.3936 27.5065 24.3936H20.2829C20.0043 24.3936 19.7764 24.1656 19.7764 23.8869V16.3671C19.7764 16.2303 19.8321 16.1036 19.9233 16.0073L22.0964 13.8335C22.1927 13.7372 22.3193 13.6865 22.4561 13.6865H27.5065C27.7851 13.6865 28.0131 13.9145 28.0131 14.1932V17.2995C28.0131 17.5782 27.7851 17.8062 27.5065 17.8062H25.2017C24.9332 17.8062 24.7204 17.5883 24.7204 17.3248L24.7154 17.3147ZM28.008 20.5881C28.008 20.8668 27.7801 21.0948 27.5015 21.0948H24.3962C24.1176 21.0948 23.8897 20.8668 23.8897 20.5881V19.1287C23.8897 18.85 24.1176 18.622 24.3962 18.622H27.5015C27.7801 18.622 28.008 18.85 28.008 19.1287V20.5881Z" fill="#0B0B0B"/>
<path d="M9.2702 1.55078H2.0466C1.76799 1.55078 1.54004 1.77881 1.54004 2.05751V19.1341C1.54004 19.4128 1.76799 19.6408 2.0466 19.6408H4.31094C4.58955 19.6408 4.81751 19.4128 4.81751 19.1341L4.8327 11.7562C4.8327 11.7562 4.8327 11.7562 4.8327 11.7511V10.1854C4.8327 9.73438 5.37979 9.50635 5.69893 9.82559L6.12444 10.2512C6.322 10.4489 6.64113 10.4489 6.83869 10.2512L9.62479 7.46425C9.72104 7.36798 9.7717 7.2413 9.7717 7.10448V2.05751C9.7717 1.77881 9.54374 1.55078 9.26513 1.55078H9.2702ZM6.47903 6.0961C6.47903 6.54708 5.93195 6.77511 5.61281 6.45587L4.97961 5.82247C4.88336 5.72619 4.8327 5.59951 4.8327 5.46269V4.53032C4.8327 4.25162 5.06066 4.0236 5.33927 4.0236H5.97247C6.25108 4.0236 6.47903 4.25162 6.47903 4.53032V6.0961Z" fill="#0B0B0B"/>
<path d="M1.54004 21.6373C1.54004 21.3485 1.77306 21.1104 2.06687 21.1104H4.29575C4.58449 21.1104 4.82257 21.3434 4.82257 21.6373V23.8669C4.82257 24.1558 4.58955 24.3939 4.29575 24.3939H2.06687C1.77812 24.3939 1.54004 24.1608 1.54004 23.8669V21.6373Z" fill="#0B0B0B"/>
<path d="M41.8571 8.92362C42.1763 9.24286 42.7234 9.01483 42.7234 8.56385V7.82403C42.7234 7.54533 42.9513 7.31731 43.2299 7.31731H45.5095C45.7881 7.31731 46.016 7.54533 46.016 7.82403V11.7562C46.016 12.0349 45.7881 12.2629 45.5095 12.2629H40.459C40.3222 12.2629 40.1956 12.2072 40.0994 12.116L37.9262 9.94214C37.83 9.84586 37.7793 9.71918 37.7793 9.58236V2.05751C37.7793 1.77881 38.0073 1.55078 38.2859 1.55078H45.5095C45.7881 1.55078 46.016 1.77881 46.016 2.05751V3.51687C46.016 3.79557 45.7881 4.0236 45.5095 4.0236H41.5785C41.2999 4.0236 41.072 4.25162 41.072 4.53032V7.93551C41.072 8.07232 41.1277 8.19901 41.2189 8.29528L41.8521 8.92869L41.8571 8.92362Z" fill="#0B0B0B"/>
</svg>
