<svg width="321" height="320" viewBox="0 0 321 320" fill="none" xmlns="http://www.w3.org/2000/svg">
<g opacity="0.1">
<path fill-rule="evenodd" clip-rule="evenodd" d="M172.88 293.745C91.6426 296.508 25.7598 304.414 25.7598 311.403C25.7598 318.392 91.6426 321.804 172.88 319.042C254.118 316.27 320.001 308.37 320.001 301.39C320.001 294.41 254.118 290.983 172.88 293.748" fill="#E2E3E4"/>
<path fill-rule="evenodd" clip-rule="evenodd" d="M283.015 191.318C280.927 181.756 274.631 169.536 266.672 160.671C256.893 181.728 240.305 199.744 216.74 211.113C218.08 212.992 219.274 215.015 220.283 217.143C242.68 212.469 264.126 205.293 283.015 191.318Z" fill="black"/>
<path fill-rule="evenodd" clip-rule="evenodd" d="M273.909 189.875C272.325 182.618 267.546 173.345 261.501 166.617C254.079 182.6 241.489 196.272 223.6 204.906C224.617 206.331 225.52 207.867 226.29 209.481C243.291 205.934 259.572 200.487 273.909 189.875Z" fill="#4C5455"/>
<path fill-rule="evenodd" clip-rule="evenodd" d="M184.218 220.673C131.867 220.673 89.413 180.099 89.413 130.071C89.413 113.403 93.0621 96.6525 100.219 82.0999C85.2888 82.647 70.5977 87.3546 52.8062 97.0613L67.4501 79.0968L51.0332 67.7547C75.365 63.7446 87.2978 63.8257 107.786 67.9892C83.274 51.3113 77.2913 39.3229 68.8484 16.8432L85.0027 21.5989L92.0562 0C93.4575 26.3275 101.47 37.6726 121.07 54.9577C132.92 44.9865 148.03 38.6796 166.255 38.1806C303.437 34.432 315.623 220.673 184.221 220.673" fill="black"/>
<path fill-rule="evenodd" clip-rule="evenodd" d="M94.9504 213.163C105.14 207.238 111.476 198.53 123.229 197.165C116.362 191.068 110.308 184.154 105.228 176.585C87.3718 178.93 77.3654 187.227 75.2207 201.47C80.0174 203.108 89.6345 210.59 94.0566 213.163L94.502 213.416L94.9504 213.163Z" fill="black"/>
<path fill-rule="evenodd" clip-rule="evenodd" d="M185.817 170.717C188.34 169.767 190.688 168.526 193.054 167.317C195.234 166.193 197.912 164.777 200.352 164.389C202.744 164.732 205.349 166.079 207.417 167.125C209.636 168.231 211.81 169.355 214.081 170.167C223.873 173.63 234.381 174.4 242.779 168.045C248.119 164.007 251.594 157.902 253.818 151.168C256.022 144.495 257.078 137.133 257.547 130.516C257.739 127.901 257.916 125.271 258.122 122.655C255.966 123.347 253.806 124.035 251.65 124.73C244.119 127.153 236.059 128.644 227.649 129.386C218.952 130.156 209.813 130.126 200.443 129.494C200.435 129.494 200.417 129.494 200.405 129.488H200.352C190.62 129.019 180.445 127.898 170.032 125.863C159.211 123.75 148.087 120.638 136.932 116.255C133.558 114.936 130.168 113.598 126.752 112.239C127.026 115.624 127.304 119.009 127.593 122.385C128.304 130.874 129.935 140.346 133.407 148.902C136.841 157.361 142.054 164.846 149.78 169.542C161.247 176.495 174.483 174.944 185.814 170.711" fill="black"/>
<path fill-rule="evenodd" clip-rule="evenodd" d="M134.678 122.369C145.292 126.434 156.239 129.533 167.441 131.697C178.226 133.784 189.23 135.016 200.401 135.425C211.119 136.026 220.851 135.816 229.704 134.845C238.256 133.901 246.038 132.232 253.086 129.87C252.136 143.31 249.109 154.306 243.383 160.845C237.515 167.542 228.633 169.734 215.824 165.017C210.803 163.168 205.823 159.254 200.366 158.725C194.764 159.233 189.451 163.295 183.896 165.315C168.618 170.879 157.086 168.739 148.979 160.977C140.637 152.984 136.082 139.231 134.678 122.369Z" fill="#23FF81"/>
<path fill-rule="evenodd" clip-rule="evenodd" d="M156.59 158.885C152.688 156.221 150.215 151.992 148.932 147.287C147.646 142.558 147.531 137.382 148.245 132.852C156.464 133.239 165.237 132.984 173.692 132.81C167.06 131.733 160.511 130.339 154.089 128.637C147.513 126.891 141.035 124.798 134.678 122.369C136.085 139.228 140.637 152.981 148.979 160.977C157.083 168.742 168.618 170.879 183.896 165.315C189.451 163.295 194.761 159.233 200.366 158.725C205.823 159.254 210.803 163.168 215.824 165.017C223.102 167.696 229.075 168.143 233.943 166.839C238.725 165.552 242.483 162.552 245.383 158.235C239.637 162.585 234.672 164.593 229.524 164.753C224.261 164.915 218.795 163.168 212.036 160.033C209.287 158.755 206.455 157.499 203.331 156.612C195.366 154.351 188.563 158.118 181.447 160.908C174.143 163.77 166.444 165.615 156.585 158.888" fill="#1FAB5E"/>
<path fill-rule="evenodd" clip-rule="evenodd" d="M181.736 127.793C199.135 90.3698 171.183 49.7482 148.601 50.0458C141.53 50.3344 134.754 54.0439 128.278 61.1774C127.656 61.8628 127.036 62.5813 126.414 63.3358L116.726 58.9078L107.953 54.9007L111.779 64.2617L116.753 74.3653L109.416 76.2411L114.502 80.7773C114.112 81.7873 113.738 82.7974 113.372 83.8044C107.761 99.325 102.554 112.813 102.737 129.56C103.168 169.533 128.697 201.803 171.319 205.874C200.722 209.89 210.401 196.062 200.353 164.392C197.914 164.78 195.235 166.193 193.055 167.32C190.689 168.529 188.341 169.77 185.819 170.72C174.488 174.953 161.251 176.501 149.784 169.551C142.058 164.855 136.845 157.37 133.411 148.911C129.942 140.352 128.308 130.88 127.597 122.394C127.308 119.018 127.031 115.633 126.756 112.248C130.169 113.607 133.559 114.945 136.937 116.264C148.091 120.647 159.215 123.762 170.036 125.872C173.968 126.642 177.871 127.282 181.733 127.799" fill="#4C5455"/>
<path fill-rule="evenodd" clip-rule="evenodd" d="M229.026 208.928C216.064 215.147 200.364 218.764 181.879 218.764C170.554 218.764 159.68 216.906 149.576 213.479L153.718 218.19L154.01 218.394C160.592 223.032 163.795 232.291 165.551 239.365L165.675 239.338L170.802 246.02H157.763C143.287 246.24 127.799 242.737 114.642 241.809C95.414 252.808 77.8407 264.285 61.3413 279.388C45.4731 285.058 34.7527 293.983 30.425 300.494C21.457 310.471 32.4517 317.139 56.0548 313.249C72.4245 309.873 81.3483 310.393 83.2009 300.524C132.074 285.92 173.442 275.549 209.028 277.35C201.193 284.222 198.299 292.585 200.346 302.448C226.404 305.177 246.275 305.177 259.972 302.448C268.84 295.089 265.12 288.806 248.818 283.594C283.906 258.739 277.637 229.913 235.257 233.034C237.514 224.466 234.44 215.22 229.017 208.928" fill="black"/>
<path d="M73.1454 295.588C72.1217 299.914 70.511 302.364 68.3103 302.938C54.1473 306.897 46.5569 306.103 45.5332 300.566" stroke="#231F20" stroke-width="0.5" stroke-miterlimit="2.61"/>
<path d="M45.5332 300.566C49.8019 295.804 58.8673 291.052 72.7206 286.29" stroke="#231F20" stroke-width="0.5" stroke-miterlimit="2.61"/>
<path fill-rule="evenodd" clip-rule="evenodd" d="M180.474 271.079C183.542 266.005 186.205 261 188.483 256.049C182.193 255.67 171.974 255.793 157.826 256.415C169.986 254.293 180.742 252.952 190.085 252.405C194.315 242.389 196.893 232.628 197.828 223.123C204.422 221.166 210.077 219.067 214.8 216.819C217.523 215.532 219.93 214.191 222.03 212.809C218.243 213.792 214.36 214.696 210.384 215.523V215.529C206.493 216.473 202.425 217.222 198.18 217.766C193.014 218.421 187.577 218.764 181.878 218.764C171.175 218.764 160.882 217.104 151.262 214.032C150.696 213.855 150.135 213.668 149.578 213.479L150.817 214.889L153.723 218.19L154.015 218.394C154.628 218.827 155.21 219.296 155.767 219.804C156.363 220.345 156.923 220.928 157.46 221.544C159.393 223.772 160.933 226.426 162.172 229.195C162.602 230.16 162.998 231.137 163.363 232.111C164.284 234.6 164.995 237.095 165.558 239.362L165.682 239.335L170.809 246.017H157.77C149.135 246.149 140.147 244.956 131.512 243.778C131.152 244.159 130.769 244.55 130.361 244.956C121.671 253.608 96.8434 266.197 67.1131 285.097C53.2568 289.858 38.2589 300.121 33.9902 304.883C35.0109 310.42 54.7938 310.997 68.3167 302.935C70.5174 302.361 72.1281 299.911 73.1518 295.585C98.8317 283.696 134.607 275.525 180.474 271.073" fill="#4C5455"/>
<path fill-rule="evenodd" clip-rule="evenodd" d="M88.3223 205.901C95.6118 201.659 107.356 197.847 115.766 196.867C110.855 192.508 108.713 190.66 105.084 185.243C92.9715 183.147 83.3574 188.736 80.248 201.794C83.6819 202.97 84.5226 204.061 87.685 205.901L88.0007 206.084L88.3223 205.901Z" fill="#4C5455"/>
<path fill-rule="evenodd" clip-rule="evenodd" d="M88.405 234.323C109.389 224.578 133.245 220.54 159.978 222.224C164.545 225.443 168.026 231.97 170.416 241.8C149.972 243.952 131.11 236.701 111.097 240.104C103.648 241.367 98.6563 244.274 90.9981 244.274H86.2604C78.6021 244.274 73.6136 241.367 66.1678 240.104C46.0132 236.677 27.021 244.057 6.40625 241.758C8.79872 231.952 12.2738 225.44 16.8346 222.227C43.5706 220.543 67.4245 224.581 88.408 234.326" fill="#1FAB5E"/>
<path fill-rule="evenodd" clip-rule="evenodd" d="M169.85 241.4C169.37 241.463 168.889 241.526 168.411 241.58C154.864 242.617 141.878 239.711 128.426 238.947C123.65 238.676 118.901 238.7 114.181 239.254C112.248 239.401 110.316 239.629 108.366 239.957C102.378 240.976 97.982 243.05 92.5008 243.829C92.0052 243.853 91.5067 243.868 90.9993 243.868H86.2645C82.9752 243.868 80.0222 243.306 76.907 242.455C73.3257 241.472 69.9656 240.339 66.2545 239.711C60.4902 238.728 54.6845 238.619 48.8405 238.947C34.7483 239.744 21.19 242.888 6.9591 241.406C8.48131 235.307 11.3576 226.685 17.0128 222.609C38.8311 221.256 60.4725 223.661 80.5857 231.438C83.164 232.436 85.701 233.518 88.1909 234.672L88.4062 234.771L88.6186 234.672C91.1114 233.518 93.6454 232.436 96.2238 231.444C116.337 223.661 137.984 221.256 159.803 222.609C165.455 226.679 168.331 235.286 169.853 241.397M88.4092 231.552C90.5479 230.59 92.7162 229.685 94.914 228.831C115.523 220.856 137.819 218.367 160.183 219.771L161.053 219.831L161.735 220.309C168.184 224.86 171.331 233.936 173.057 240.874L173.178 240.856L178.205 247.409H165.419C144.867 247.722 127.246 241.929 107.985 244.292C100.967 245.155 95.4037 247.409 88.2705 247.409H83.5328C76.4026 247.409 70.8418 245.155 63.8237 244.292C47.9555 242.344 33.2025 245.936 17.001 247.081C11.3369 247.487 5.67584 247.409 0 247.409L3.67278 241.174L3.69048 241.18C5.39559 234.209 8.53441 224.932 15.0835 220.312L15.7649 219.834L16.6352 219.774C38.9993 218.37 61.2926 220.859 81.9044 228.834C84.1051 229.688 86.2733 230.59 88.4092 231.555V231.552Z" fill="black"/>
<path fill-rule="evenodd" clip-rule="evenodd" d="M30.9746 226.977C24.5878 225.612 18.2807 225.176 12.0443 225.669C11.4779 226.423 10.9351 227.214 10.4277 228.035C16.5107 227.178 23.3577 226.826 30.9776 226.977" fill="black"/>
<path fill-rule="evenodd" clip-rule="evenodd" d="M169.31 232.279C160.885 230.99 150.223 230.121 137.795 231.212C148.804 229.33 158.849 228.672 167.941 229.249C168.339 230.01 168.95 231.525 169.31 232.279Z" fill="black"/>
<path fill-rule="evenodd" clip-rule="evenodd" d="M37.6993 194.988L36.7583 196.056L14.3027 221.571C15.5447 221.496 16.7955 221.436 18.0375 221.385L39.1921 197.348L39.49 197.321C54.8006 196.113 70.1909 197.736 83.6223 204.611C85.3068 205.474 86.9411 206.406 88.5164 207.41C90.0947 206.406 91.729 205.474 93.4134 204.611C106.848 197.736 122.235 196.113 137.546 197.321L137.844 197.348L158.998 221.385C160.24 221.436 161.485 221.496 162.736 221.571L162.352 221.135L139.339 194.988L137.802 194.865C120.654 193.509 103.432 195.722 88.8969 204.178L88.5164 204.397L88.1358 204.178C73.607 195.725 56.3848 193.512 39.2334 194.865L37.6964 194.988H37.6993Z" fill="black"/>
<path fill-rule="evenodd" clip-rule="evenodd" d="M39.4877 197.321L39.1897 197.348L19.5957 219.615C40.9597 218.602 62.2029 221.214 81.9001 228.837C84.1008 229.691 86.2691 230.593 88.4049 231.558C90.5437 230.596 92.712 229.691 94.9097 228.837C114.675 221.187 136.001 218.589 157.441 219.627L137.838 197.351L137.54 197.324C122.23 196.116 106.84 197.739 93.4082 204.614C91.7237 205.477 90.0894 206.409 88.5111 207.413C86.9358 206.409 85.3045 205.477 83.617 204.614C70.1826 197.739 54.7953 196.116 39.4847 197.324" fill="#23FF81"/>
<path d="M89.496 205.35H87.5312V233.415H89.496V205.35Z" fill="black"/>
<path fill-rule="evenodd" clip-rule="evenodd" d="M304.904 213.335L302.615 207.407L309.35 204.704L311.639 210.635C312.005 211.579 311.542 212.655 310.616 213.028L307.244 214.378C306.323 214.748 305.267 214.279 304.902 213.335" fill="white"/>
<path fill-rule="evenodd" clip-rule="evenodd" d="M288.21 155.852C286.679 154.439 284.629 154.168 282.06 155.055C277.316 156.645 274.201 159.029 272.702 162.198C270.313 167.257 272.46 174.027 274.991 178.635C278.761 185.489 284.821 187.644 294.293 184.461C302.108 181.84 308.321 178.316 307.828 168.88C307.58 164.08 305.698 158.729 302.686 155.058C299.736 151.46 295.588 149.121 291.11 150.787C288.889 151.607 287.921 153.297 288.21 155.852Z" fill="#23FF81"/>
<path fill-rule="evenodd" clip-rule="evenodd" d="M293.007 167.6C295.464 162.58 294.246 157.761 289.343 153.146C289.727 152.434 290.385 151.89 291.37 151.523C295.591 149.957 299.426 152.302 302.096 155.56C305.014 159.117 306.819 164.314 307.067 168.923C307.539 177.959 301.527 181.218 294.054 183.722C286.443 186.28 279.841 185.859 275.664 178.256C273.269 173.901 271.124 167.341 273.392 162.538C275.074 158.975 278.77 156.985 282.304 155.801C284.172 155.155 286.151 155.007 287.697 156.435L289.213 157.83L288.971 155.762L289.207 157.812C291.756 160.454 293.019 163.722 293.004 167.603M285.591 150.958C286.526 149.245 288.063 148.063 289.889 147.387C295.886 145.159 301.533 148.009 305.412 152.738C308.931 157.027 311.085 163.124 311.38 168.688C311.967 179.898 304.863 184.732 295.405 187.912C285.85 191.117 277.142 189.971 271.888 180.412C268.743 174.691 266.542 166.869 269.492 160.632C271.711 155.927 276.227 153.201 280.924 151.622C282.422 151.105 284.012 150.826 285.591 150.955V150.958Z" fill="black"/>
<path fill-rule="evenodd" clip-rule="evenodd" d="M306.955 167.567C295.181 176.384 283.72 173.54 278.614 157.379C276.425 158.578 274.49 160.226 273.398 162.537C271.13 167.341 273.274 173.903 275.67 178.256C279.847 185.859 286.449 186.28 294.06 183.721C301.532 181.217 307.542 177.959 307.073 168.922C307.049 168.477 307.011 168.024 306.958 167.567" fill="#1FAB5E"/>
<path fill-rule="evenodd" clip-rule="evenodd" d="M300.308 213.518L274 105.19L290.119 117.443L312.504 210.47C312.908 212.144 311.89 213.852 310.247 214.26L304.025 215.812C302.385 216.223 300.712 215.189 300.308 213.518Z" fill="black"/>
<path fill-rule="evenodd" clip-rule="evenodd" d="M303.581 199.747L292.158 152.272L296.026 151.31L307.448 198.782L303.581 199.747Z" fill="#4C5455"/>
<path fill-rule="evenodd" clip-rule="evenodd" d="M289.029 117.894L285.447 114.963L286.167 118.185C286.875 117.632 287.828 117.533 289.026 117.894" fill="white"/>
<path fill-rule="evenodd" clip-rule="evenodd" d="M95.8109 222.665C83.4709 219.241 65.3283 216.984 62.2455 233.833C58.6937 253.259 86.2145 249.738 97.8139 248.007C107.974 246.486 114.287 246.447 114.431 234.053C114.464 231.326 114.166 228.206 113.538 224.704C109.015 214.892 98.6783 213.797 95.8109 222.662" fill="#23FF81"/>
<path fill-rule="evenodd" clip-rule="evenodd" d="M117.99 223.528L117.798 223.108C116.232 219.723 113.565 215.998 110.355 214.11C104.992 210.954 97.0419 213.19 93.8499 218.466C82.6959 215.893 72.1584 213.494 63.7361 221.454C60.8274 224.208 57.7948 229.213 57.075 233.178C52.6824 257.179 82.3862 256.175 98.0006 253.839C102.845 253.115 112.529 252.748 116.432 249.456C120.403 246.104 119.049 229.438 118.073 223.994L117.987 223.531L117.99 223.528ZM62.2434 233.836C65.0961 218.229 80.0969 219.037 92.903 221.938C91.9678 226.703 92.6198 231.122 94.8618 235.186C94.437 228.305 94.7526 224.133 95.8058 222.666C98.6732 213.801 109.01 214.895 113.532 224.707C114.161 228.212 114.459 231.332 114.426 234.056C114.282 246.447 107.969 246.489 97.8089 248.01C86.2094 249.742 58.6886 253.262 62.2405 233.836H62.2434Z" fill="black"/>
<path fill-rule="evenodd" clip-rule="evenodd" d="M81.0948 220.279C78.0651 233.59 81.2689 243.122 90.6942 248.87C92.889 248.68 95.2401 248.389 97.8126 248.007C107.972 246.486 114.285 246.447 114.43 234.053C114.462 231.326 114.165 228.206 113.536 224.704C109.014 214.892 98.6769 213.797 95.8095 222.662C94.7534 224.129 94.4407 228.302 94.8655 235.183C92.6235 231.116 91.9715 226.697 92.9067 221.935C89.0392 221.057 84.9652 220.372 81.0948 220.276" fill="#1FAB5E"/>
<path d="M185.962 148.917L159.335 132.025L157.344 134.683L170.079 143.187C167.849 144.639 166.397 146.975 166.368 149.674C166.318 154.34 170.513 158.2 175.655 158.344C179.785 158.458 183.269 156.122 184.505 152.822L184.537 152.843L185.959 148.914L185.962 148.917Z" fill="black"/>
<path d="M214.484 150.194L237.91 137.569L239.179 140.082L228.565 146.298C230.229 147.795 231.181 149.993 230.969 152.392C230.603 156.543 226.88 159.784 222.591 159.664C219.042 159.564 216.204 157.186 215.417 153.997L215.387 154.015L214.484 150.194Z" fill="black"/>
</g>
</svg>
