<svg width="112" height="32" viewBox="0 0 112 32" fill="none" xmlns="http://www.w3.org/2000/svg">
<g clip-path="url(#clip0_1235_48825)">
<path d="M68.4576 8.35101C68.6883 8.60845 68.8036 8.95014 68.8036 9.37375V30.5261C68.8036 30.952 68.6883 31.2914 68.4576 31.5488C68.227 31.8063 67.9019 31.935 67.4821 31.935C67.0624 31.935 66.7326 31.8063 66.4905 31.5488C66.2484 31.2914 66.1261 30.952 66.1261 30.5261V20.961C66.1261 20.9493 66.1169 20.9399 66.1054 20.9399H52.2086C52.197 20.9399 52.1878 20.9493 52.1878 20.961V30.5261C52.1878 30.952 52.0656 31.2914 51.8234 31.5488C51.5813 31.8063 51.2515 31.935 50.8318 31.935C50.4121 31.935 50.0892 31.8063 49.8586 31.5488C49.628 31.2914 49.5127 30.952 49.5127 30.5261V9.37375C49.5127 8.95014 49.628 8.60845 49.8586 8.35101C50.0892 8.09356 50.4144 7.96484 50.8318 7.96484C51.2492 7.96484 51.5813 8.09356 51.8234 8.35101C52.0656 8.60845 52.1878 8.95014 52.1878 9.37375V18.5714C52.1878 18.5831 52.197 18.5925 52.2086 18.5925H66.1054C66.1169 18.5925 66.1261 18.5831 66.1261 18.5714V9.37375C66.1261 8.95014 66.246 8.60845 66.4905 8.35101C66.7326 8.09356 67.0624 7.96484 67.4821 7.96484C67.9019 7.96484 68.2247 8.09356 68.4576 8.35101Z" fill="#A5EC0C"/>
<path d="M86.2195 21.4763V30.5944C86.2195 30.9969 86.1042 31.3199 85.8736 31.5657C85.6429 31.8114 85.3293 31.9354 84.9327 31.9354C84.536 31.9354 84.2178 31.8114 83.9756 31.5657C83.7335 31.3199 83.6112 30.9969 83.6112 30.5944V29.0802C83.6112 29.0568 83.5813 29.0521 83.572 29.0732C83.1523 29.9929 82.5273 30.7067 81.6948 31.2146C80.8369 31.7388 79.8453 32.0033 78.7222 32.0033C77.6868 32.0033 76.7343 31.7903 75.8649 31.3667C75.0762 30.9829 74.4374 30.4587 73.9462 29.7987C73.3143 28.9444 72.9546 27.346 73.0883 26.2881C73.1967 25.4315 73.4873 24.7388 73.967 24.2122C74.5827 23.5311 75.5974 23.0397 77.0065 22.7377C78.4155 22.4358 80.3757 22.2861 82.8871 22.2861H83.5928C83.6043 22.2861 83.6135 22.2767 83.6135 22.265V21.1791C83.6135 19.838 83.3437 18.8551 82.8041 18.2302C82.2644 17.6053 81.3881 17.2917 80.1774 17.2917C78.6807 17.2917 77.161 17.7059 75.6205 18.5321C75.0255 18.9112 74.6081 19.1008 74.3659 19.1008C74.1007 19.1008 73.8816 19.0002 73.7064 18.7989C73.5288 18.5976 73.4412 18.3402 73.4412 18.0289C73.4412 17.7176 73.5334 17.4415 73.7225 17.2074C73.9093 16.9734 74.2114 16.7323 74.6311 16.4866C75.4014 16.0396 76.2777 15.6885 77.2578 15.4311C78.2379 15.1736 79.2111 15.0449 80.182 15.0449C84.2131 15.0449 86.2264 17.191 86.2264 21.481L86.2195 21.4763ZM82.3382 28.4998C83.1846 27.594 83.6089 26.4262 83.6089 24.9962V24.046C83.6089 24.0343 83.5997 24.025 83.5882 24.025H83.0139C81.0768 24.025 79.6009 24.1092 78.5885 24.2754C77.5761 24.4439 76.8542 24.7224 76.4253 25.1132C75.9964 25.5041 75.7819 26.0798 75.7819 26.8404C75.7819 27.7111 76.0955 28.4319 76.7228 29.0029C77.3501 29.574 78.1365 29.8572 79.0843 29.8572C80.4057 29.8572 81.4896 29.4055 82.3382 28.4998Z" fill="#A5EC0C"/>
<path d="M90.9357 31.5816C90.682 31.3476 90.5552 31.0176 90.5552 30.5916V9.30588C90.5552 8.88227 90.682 8.55228 90.9357 8.3159C91.1894 8.08186 91.5145 7.96484 91.9089 7.96484C92.2825 7.96484 92.5961 8.08186 92.8498 8.3159C93.1035 8.54994 93.2303 8.87993 93.2303 9.30588V30.594C93.2303 31.0199 93.1035 31.3476 92.8498 31.5839C92.5961 31.818 92.2825 31.935 91.9089 31.935C91.5122 31.935 91.1871 31.818 90.9357 31.5839V31.5816Z" fill="#A5EC0C"/>
<path d="M100.324 30.961C99.1684 30.2683 98.2759 29.2807 97.6487 27.9934C97.0214 26.7086 96.7078 25.2178 96.7078 23.5186C96.7078 21.8195 97.0214 20.3287 97.6487 19.0438C98.2759 17.759 99.1684 16.769 100.324 16.0762C101.479 15.3835 102.817 15.0371 104.336 15.0371C105.856 15.0371 107.198 15.3835 108.368 16.0762C109.535 16.769 110.432 17.759 111.059 19.0438C111.686 20.3287 112 21.8219 112 23.5186C112 25.2154 111.686 26.7086 111.059 27.9934C110.432 29.2783 109.535 30.2683 108.368 30.961C107.201 31.6538 105.856 32.0002 104.336 32.0002C102.817 32.0002 101.479 31.6538 100.324 30.961ZM107.987 28.162C108.833 27.1018 109.258 25.5524 109.258 23.5186C109.258 21.4849 108.829 19.994 107.969 18.9081C107.111 17.8245 105.898 17.2815 104.334 17.2815C102.771 17.2815 101.56 17.8245 100.7 18.9081C99.8418 19.9917 99.4106 21.5293 99.4106 23.5186C99.4106 25.508 99.8349 27.0713 100.681 28.1456C101.53 29.2175 102.745 29.7558 104.332 29.7558C105.918 29.7558 107.134 29.2245 107.982 28.1643L107.987 28.162Z" fill="#A5EC0C"/>
<path d="M18.4952 19.774L4.99965 8.98719C4.51075 8.60103 3.78431 8.66656 3.37613 9.20485C3.15013 9.50442 3.1017 9.90462 3.20778 10.2674L4.53842 18.1779C4.60991 18.4166 4.7552 18.6272 4.95122 18.777L11.0071 23.666C11.5145 24.0475 12.2317 23.9399 12.6099 23.4297C12.9881 22.9171 12.882 22.1916 12.3747 21.8101L6.62317 17.1504L5.74914 12.6265L18.4929 22.7112L21.1173 24.8199L22.976 23.3524L18.4929 19.774H18.4952Z" fill="#A5EC0C"/>
<path d="M43.9064 10.249C44.0494 9.76686 43.8649 9.2473 43.4544 8.96411C43.0439 8.68093 42.4974 8.69965 42.1053 9.00858L32.1843 16.8582V19.7954L41.0514 12.7298L40.4103 17.2327L34.7326 21.8105C34.2253 22.1919 34.1192 22.9175 34.4974 23.43C34.8756 23.9425 35.5928 24.0479 36.1002 23.6664L42.0846 18.8569C42.2829 18.7071 42.4282 18.4988 42.4974 18.2578L43.9111 10.2466L43.9064 10.249Z" fill="#A5EC0C"/>
<path d="M17.9303 28.23V23.1256L15.6218 21.3025V30.5517C15.6218 30.898 15.7487 31.2421 16.0093 31.4691C16.233 31.6657 16.5051 31.7593 16.7749 31.7593C17.0286 31.7593 17.2799 31.675 17.4852 31.5135L28.4716 22.6973L28.4763 19.7695L17.928 28.23H17.9303Z" fill="#A5EC0C"/>
<path d="M32.429 10.9487C36.4025 5.81625 42.214 3.37524 44.7968 2.54908C45.0759 3.67246 44.5178 4.79585 44.0981 5.67817C43.8375 6.22114 44.1027 6.91155 44.6377 7.17601C45.2143 7.46154 45.9061 7.21346 46.1782 6.63304C47.5112 3.79885 47.0107 1.1472 46.9877 0.985709C46.9416 0.669758 46.7663 0.388913 46.508 0.206363C46.2497 0.0238136 45.9269 -0.0393767 45.6178 0.0261539C45.205 0.115088 35.9159 2.19335 30.2105 10.0781C29.544 11.0002 29.1981 12.1189 29.1981 13.2587V28.2301L25.8934 25.6205L24.0347 27.088L29.6363 31.5136C29.8415 31.6751 30.0906 31.7594 30.342 31.7594C30.6095 31.7594 30.8793 31.6634 31.103 31.4691C31.3613 31.2421 31.4881 30.8981 31.4881 30.5517V13.7501C31.4881 12.7368 31.8133 11.7468 32.4313 10.9487H32.429Z" fill="#A5EC0C"/>
<path d="M15.6123 16.6636L17.9184 18.5429L17.9 13.256C17.9 12.1139 17.5541 10.9952 16.8876 10.0754C11.1845 2.19066 1.89305 0.114747 1.48256 0.0258127C1.17354 -0.0397179 0.852983 0.0258127 0.592389 0.206022C0.331795 0.386231 0.158835 0.669417 0.110406 0.985368C0.0873443 1.14685 -0.415394 3.7985 0.919861 6.6327C1.19199 7.21078 1.88383 7.45886 2.46036 7.17567C2.99539 6.91121 3.25829 6.2208 3 5.67783C2.57798 4.79551 2.0222 3.67212 2.30124 2.54874C4.88412 3.37724 10.6956 5.81591 14.6691 10.9484C15.2871 11.7464 15.6123 12.7364 15.6123 13.7498V16.6659V16.6636Z" fill="#A5EC0C"/>
</g>
<defs>
<clipPath id="clip0_1235_48825">
<rect width="112" height="32" fill="white"/>
</clipPath>
</defs>
</svg>
