<svg width="84" height="54" viewBox="0 0 84 54" fill="none" xmlns="http://www.w3.org/2000/svg">
<mask id="mask0_1635_14990" style="mask-type:alpha" maskUnits="userSpaceOnUse" x="0" y="0" width="84" height="54">
<path d="M72 0H12C5.37258 0 0 5.37258 0 12V41.7084C0 48.3358 5.37258 53.7084 12 53.7084H72C78.6274 53.7084 84 48.3358 84 41.7084V12C84 5.37258 78.6274 0 72 0Z" fill="black"/>
</mask>
<g mask="url(#mask0_1635_14990)">
<g filter="url(#filter0_ii_1635_14990)">
<path d="M72.6679 0H10.9492C4.32181 0 -1.05078 5.37258 -1.05078 12V41.7084C-1.05078 48.3358 4.32181 53.7084 10.9492 53.7084H72.6679C79.2953 53.7084 84.6679 48.3358 84.6679 41.7084V12C84.6679 5.37258 79.2953 0 72.6679 0Z" fill="url(#paint0_linear_1635_14990)"/>
<path d="M72.6679 0H10.9492C4.32181 0 -1.05078 5.37258 -1.05078 12V41.7084C-1.05078 48.3358 4.32181 53.7084 10.9492 53.7084H72.6679C79.2953 53.7084 84.6679 48.3358 84.6679 41.7084V12C84.6679 5.37258 79.2953 0 72.6679 0Z" fill="url(#paint1_radial_1635_14990)" fill-opacity="0.12"/>
<g style="mix-blend-mode:overlay">
<path d="M72.6679 0H10.9492C4.32181 0 -1.05078 5.37258 -1.05078 12V41.7084C-1.05078 48.3358 4.32181 53.7084 10.9492 53.7084H72.6679C79.2953 53.7084 84.6679 48.3358 84.6679 41.7084V12C84.6679 5.37258 79.2953 0 72.6679 0Z" fill="white" fill-opacity="0.2"/>
</g>
</g>
<g style="mix-blend-mode:hard-light" filter="url(#filter1_f_1635_14990)">
<path d="M60.029 31.9582C60.909 31.2343 61.659 30.4723 62.298 29.6884C68.207 22.4395 58.756 14.8237 49.404 14.8237H34.5943C25.6741 14.8237 16.3968 21.7507 21.6165 28.9842C22.3591 30.0132 23.2895 31.0158 24.4485 31.9582C32.9803 38.8956 36.2409 42.3225 42.239 42.3225C48.237 42.3225 51.998 38.8185 60.029 31.9582Z" fill="white"/>
</g>
<g style="mix-blend-mode:hard-light" filter="url(#filter2_f_1635_14990)">
<path d="M60.029 31.9582C60.909 31.2343 61.659 30.4723 62.298 29.6884C68.207 22.4395 58.756 14.8237 49.404 14.8237H34.5943C25.6741 14.8237 16.3968 21.7507 21.6165 28.9842C22.3591 30.0132 23.2895 31.0158 24.4485 31.9582C32.9803 38.8956 36.2409 42.3225 42.239 42.3225C48.237 42.3225 51.998 38.8185 60.029 31.9582Z" fill="white"/>
</g>
<g style="mix-blend-mode:hard-light" filter="url(#filter3_f_1635_14990)">
<path d="M60.029 31.9582C60.909 31.2343 61.659 30.4723 62.298 29.6884C68.207 22.4395 58.756 14.8237 49.404 14.8237H34.5943C25.6741 14.8237 16.3968 21.7507 21.6165 28.9842C22.3591 30.0132 23.2895 31.0158 24.4485 31.9582C32.9803 38.8956 36.2409 42.3225 42.239 42.3225C48.237 42.3225 51.998 38.8185 60.029 31.9582Z" fill="white"/>
</g>
<g opacity="0.3" filter="url(#filter4_f_1635_14990)">
<path d="M51.895 19.5498L84.104 54.1226L83.659 54.1379L50.375 19.7799L51.895 19.5498Z" fill="black"/>
</g>
<g filter="url(#filter5_di_1635_14990)">
<path d="M84.1061 52.8312L51.8945 20.624L50.3751 22.1432L82.5867 54.3504L84.1061 52.8312Z" fill="#1FAB5E"/>
</g>
<g opacity="0.3" filter="url(#filter6_f_1635_14990)">
<path d="M32.1038 19.5498L-0.105469 54.1226L0.339432 54.1379L33.6231 19.7799L32.1038 19.5498Z" fill="black"/>
</g>
<g filter="url(#filter7_di_1635_14990)">
<path d="M-0.106077 52.8312L32.1055 20.624L33.6249 22.1432L1.41334 54.3504L-0.106077 52.8312Z" fill="#1FAB5E"/>
</g>
<g style="mix-blend-mode:multiply" filter="url(#filter8_df_1635_14990)">
<path d="M57.5937 22.5794C58.4367 21.6808 59.1427 20.7297 59.7307 19.7509C64.8257 11.28 55.0237 3.43701 45.1387 3.43701H38.9616C29.4296 3.43701 19.8324 10.7165 24.3783 19.0947C25.0328 20.3011 25.8632 21.4771 26.9097 22.5794C34.2674 30.3298 37.0793 34.1582 42.2517 34.1582C47.4247 34.1582 50.6677 30.2436 57.5937 22.5794Z" fill="black"/>
</g>
<g filter="url(#filter9_i_1635_14990)">
<path d="M61.0091 24.5984C69.8171 15.7819 83.996 1.50376 83.996 1.50376V-0.214844H-0.21875V1.28896C-0.21875 1.28896 14.398 15.6828 23.4131 24.5984C32.4281 33.514 35.8733 37.9181 42.211 37.9181C48.549 37.9181 52.5231 33.415 61.0091 24.5984Z" fill="#1FAB5E"/>
</g>
<g filter="url(#filter10_i_1635_14990)">
<path d="M83.57 -1.28906H0C0 -1.28906 14.4018 12.6751 23.4169 21.5907C32.4319 30.5063 36.0921 35.5549 42.215 35.5549C48.338 35.5549 52.527 30.4073 61.013 21.5907C69.176 12.7742 83.57 -1.28906 83.57 -1.28906Z" fill="url(#paint2_linear_1635_14990)"/>
</g>
</g>
<defs>
<filter id="filter0_ii_1635_14990" x="-1.05078" y="-6" width="85.7188" height="67.7085" filterUnits="userSpaceOnUse" color-interpolation-filters="sRGB">
<feFlood flood-opacity="0" result="BackgroundImageFix"/>
<feBlend mode="normal" in="SourceGraphic" in2="BackgroundImageFix" result="shape"/>
<feColorMatrix in="SourceAlpha" type="matrix" values="0 0 0 0 0 0 0 0 0 0 0 0 0 0 0 0 0 0 127 0" result="hardAlpha"/>
<feOffset dy="8"/>
<feGaussianBlur stdDeviation="4"/>
<feComposite in2="hardAlpha" operator="arithmetic" k2="-1" k3="1"/>
<feColorMatrix type="matrix" values="0 0 0 0 1 0 0 0 0 1 0 0 0 0 1 0 0 0 1 0"/>
<feBlend mode="color-dodge" in2="shape" result="effect1_innerShadow_1635_14990"/>
<feColorMatrix in="SourceAlpha" type="matrix" values="0 0 0 0 0 0 0 0 0 0 0 0 0 0 0 0 0 0 127 0" result="hardAlpha"/>
<feOffset dy="-6"/>
<feGaussianBlur stdDeviation="8"/>
<feComposite in2="hardAlpha" operator="arithmetic" k2="-1" k3="1"/>
<feColorMatrix type="matrix" values="0 0 0 0 0 0 0 0 0 0 0 0 0 0 0 0 0 0 0.2 0"/>
<feBlend mode="normal" in2="effect1_innerShadow_1635_14990" result="effect2_innerShadow_1635_14990"/>
</filter>
<filter id="filter1_f_1635_14990" x="-11.8945" y="-17.1763" width="108.027" height="91.499" filterUnits="userSpaceOnUse" color-interpolation-filters="sRGB">
<feFlood flood-opacity="0" result="BackgroundImageFix"/>
<feBlend mode="normal" in="SourceGraphic" in2="BackgroundImageFix" result="shape"/>
<feGaussianBlur stdDeviation="16" result="effect1_foregroundBlur_1635_14990"/>
</filter>
<filter id="filter2_f_1635_14990" x="-11.8945" y="-17.1763" width="108.027" height="91.499" filterUnits="userSpaceOnUse" color-interpolation-filters="sRGB">
<feFlood flood-opacity="0" result="BackgroundImageFix"/>
<feBlend mode="normal" in="SourceGraphic" in2="BackgroundImageFix" result="shape"/>
<feGaussianBlur stdDeviation="16" result="effect1_foregroundBlur_1635_14990"/>
</filter>
<filter id="filter3_f_1635_14990" x="-11.8945" y="-17.1763" width="108.027" height="91.499" filterUnits="userSpaceOnUse" color-interpolation-filters="sRGB">
<feFlood flood-opacity="0" result="BackgroundImageFix"/>
<feBlend mode="normal" in="SourceGraphic" in2="BackgroundImageFix" result="shape"/>
<feGaussianBlur stdDeviation="16" result="effect1_foregroundBlur_1635_14990"/>
</filter>
<filter id="filter4_f_1635_14990" x="42.375" y="11.5498" width="49.7305" height="50.5879" filterUnits="userSpaceOnUse" color-interpolation-filters="sRGB">
<feFlood flood-opacity="0" result="BackgroundImageFix"/>
<feBlend mode="normal" in="SourceGraphic" in2="BackgroundImageFix" result="shape"/>
<feGaussianBlur stdDeviation="4" result="effect1_foregroundBlur_1635_14990"/>
</filter>
<filter id="filter5_di_1635_14990" x="47.375" y="19.624" width="37.7305" height="38.7266" filterUnits="userSpaceOnUse" color-interpolation-filters="sRGB">
<feFlood flood-opacity="0" result="BackgroundImageFix"/>
<feColorMatrix in="SourceAlpha" type="matrix" values="0 0 0 0 0 0 0 0 0 0 0 0 0 0 0 0 0 0 127 0" result="hardAlpha"/>
<feOffset dx="-1" dy="1"/>
<feGaussianBlur stdDeviation="1"/>
<feColorMatrix type="matrix" values="0 0 0 0 1 0 0 0 0 1 0 0 0 0 1 0 0 0 0.25 0"/>
<feBlend mode="normal" in2="BackgroundImageFix" result="effect1_dropShadow_1635_14990"/>
<feBlend mode="normal" in="SourceGraphic" in2="effect1_dropShadow_1635_14990" result="shape"/>
<feColorMatrix in="SourceAlpha" type="matrix" values="0 0 0 0 0 0 0 0 0 0 0 0 0 0 0 0 0 0 127 0" result="hardAlpha"/>
<feOffset dx="-2" dy="4"/>
<feGaussianBlur stdDeviation="2"/>
<feComposite in2="hardAlpha" operator="arithmetic" k2="-1" k3="1"/>
<feColorMatrix type="matrix" values="0 0 0 0 0 0 0 0 0 0 0 0 0 0 0 0 0 0 0.04 0"/>
<feBlend mode="normal" in2="shape" result="effect2_innerShadow_1635_14990"/>
</filter>
<filter id="filter6_f_1635_14990" x="-8.10547" y="11.5498" width="49.7305" height="50.5879" filterUnits="userSpaceOnUse" color-interpolation-filters="sRGB">
<feFlood flood-opacity="0" result="BackgroundImageFix"/>
<feBlend mode="normal" in="SourceGraphic" in2="BackgroundImageFix" result="shape"/>
<feGaussianBlur stdDeviation="4" result="effect1_foregroundBlur_1635_14990"/>
</filter>
<filter id="filter7_di_1635_14990" x="-3.10547" y="19.624" width="37.7305" height="38.7266" filterUnits="userSpaceOnUse" color-interpolation-filters="sRGB">
<feFlood flood-opacity="0" result="BackgroundImageFix"/>
<feColorMatrix in="SourceAlpha" type="matrix" values="0 0 0 0 0 0 0 0 0 0 0 0 0 0 0 0 0 0 127 0" result="hardAlpha"/>
<feOffset dx="-1" dy="1"/>
<feGaussianBlur stdDeviation="1"/>
<feColorMatrix type="matrix" values="0 0 0 0 1 0 0 0 0 1 0 0 0 0 1 0 0 0 0.25 0"/>
<feBlend mode="normal" in2="BackgroundImageFix" result="effect1_dropShadow_1635_14990"/>
<feBlend mode="normal" in="SourceGraphic" in2="effect1_dropShadow_1635_14990" result="shape"/>
<feColorMatrix in="SourceAlpha" type="matrix" values="0 0 0 0 0 0 0 0 0 0 0 0 0 0 0 0 0 0 127 0" result="hardAlpha"/>
<feOffset dx="-2" dy="4"/>
<feGaussianBlur stdDeviation="2"/>
<feComposite in2="hardAlpha" operator="arithmetic" k2="-1" k3="1"/>
<feColorMatrix type="matrix" values="0 0 0 0 0 0 0 0 0 0 0 0 0 0 0 0 0 0 0.04 0"/>
<feBlend mode="normal" in2="shape" result="effect2_innerShadow_1635_14990"/>
</filter>
<filter id="filter8_df_1635_14990" x="-32.7852" y="-40.563" width="149.91" height="142.721" filterUnits="userSpaceOnUse" color-interpolation-filters="sRGB">
<feFlood flood-opacity="0" result="BackgroundImageFix"/>
<feColorMatrix in="SourceAlpha" type="matrix" values="0 0 0 0 0 0 0 0 0 0 0 0 0 0 0 0 0 0 127 0" result="hardAlpha"/>
<feOffset dy="12"/>
<feGaussianBlur stdDeviation="28"/>
<feColorMatrix type="matrix" values="0 0 0 0 0 0 0 0 0 0 0 0 0 0 0 0 0 0 0.2 0"/>
<feBlend mode="normal" in2="BackgroundImageFix" result="effect1_dropShadow_1635_14990"/>
<feBlend mode="normal" in="SourceGraphic" in2="effect1_dropShadow_1635_14990" result="shape"/>
<feGaussianBlur stdDeviation="10" result="effect2_foregroundBlur_1635_14990"/>
</filter>
<filter id="filter9_i_1635_14990" x="-0.21875" y="-1.21484" width="84.2148" height="39.1328" filterUnits="userSpaceOnUse" color-interpolation-filters="sRGB">
<feFlood flood-opacity="0" result="BackgroundImageFix"/>
<feBlend mode="normal" in="SourceGraphic" in2="BackgroundImageFix" result="shape"/>
<feColorMatrix in="SourceAlpha" type="matrix" values="0 0 0 0 0 0 0 0 0 0 0 0 0 0 0 0 0 0 127 0" result="hardAlpha"/>
<feOffset dy="-1"/>
<feGaussianBlur stdDeviation="3"/>
<feComposite in2="hardAlpha" operator="arithmetic" k2="-1" k3="1"/>
<feColorMatrix type="matrix" values="0 0 0 0 0 0 0 0 0 0 0 0 0 0 0 0 0 0 0.2 0"/>
<feBlend mode="normal" in2="shape" result="effect1_innerShadow_1635_14990"/>
</filter>
<filter id="filter10_i_1635_14990" x="0" y="-3.28906" width="83.5703" height="38.8442" filterUnits="userSpaceOnUse" color-interpolation-filters="sRGB">
<feFlood flood-opacity="0" result="BackgroundImageFix"/>
<feBlend mode="normal" in="SourceGraphic" in2="BackgroundImageFix" result="shape"/>
<feColorMatrix in="SourceAlpha" type="matrix" values="0 0 0 0 0 0 0 0 0 0 0 0 0 0 0 0 0 0 127 0" result="hardAlpha"/>
<feOffset dy="-2"/>
<feGaussianBlur stdDeviation="2"/>
<feComposite in2="hardAlpha" operator="arithmetic" k2="-1" k3="1"/>
<feColorMatrix type="matrix" values="0 0 0 0 1 0 0 0 0 1 0 0 0 0 1 0 0 0 0.8 0"/>
<feBlend mode="normal" in2="shape" result="effect1_innerShadow_1635_14990"/>
</filter>
<linearGradient id="paint0_linear_1635_14990" x1="41.809" y1="0" x2="41.809" y2="53.7084" gradientUnits="userSpaceOnUse">
<stop stop-color="white"/>
<stop offset="0.544355" stop-color="#F9F7FA"/>
<stop offset="0.769841" stop-color="#F7F7F7"/>
<stop offset="1" stop-color="#E6E6E6"/>
</linearGradient>
<radialGradient id="paint1_radial_1635_14990" cx="0" cy="0" r="1" gradientUnits="userSpaceOnUse" gradientTransform="translate(41.809 14.919) rotate(90) scale(38.7894 61.9079)">
<stop offset="0.479167" stop-color="white"/>
<stop offset="1"/>
</radialGradient>
<linearGradient id="paint2_linear_1635_14990" x1="41.785" y1="-1.28906" x2="41.785" y2="35.4475" gradientUnits="userSpaceOnUse">
<stop stop-color="#FCFDFF"/>
<stop offset="1" stop-color="#F7F5F8"/>
</linearGradient>
</defs>
</svg>
