<svg width="723" height="404" viewBox="0 0 723 404" fill="none" xmlns="http://www.w3.org/2000/svg">
<path d="M311.884 248.29L306.213 258.556L305.84 259.235C304.98 260.624 303.635 261.744 301.907 262.293L109.876 323.592C108.844 323.92 107.805 324.147 106.763 324.264C100.095 325.065 93.4556 321.754 90.1469 315.67L3.21908 156.035C2.09924 153.987 2.15396 151.7 3.05687 149.814L3.4751 149.054L8.15383 140.603L8.97857 139.11C9.87171 137.091 11.7127 135.51 14.1439 135.117L206.984 103.898C212.523 102.999 218.077 105.366 221.273 109.972L311.658 240.41C313.375 242.894 313.297 245.968 311.884 248.29Z" fill="#A5B2BF"/>
<path d="M307.917 251.404L115.888 312.7C108.262 315.133 99.9837 311.813 96.1551 304.783L9.22728 145.141C6.97196 140.998 9.48526 135.868 14.1425 135.116L206.983 103.897C212.519 103 218.078 105.364 221.271 109.975L311.658 240.412C314.424 244.401 312.543 249.928 307.919 251.404H307.917Z" fill="#23FF81"/>
<g opacity="0.3">
<path d="M105.69 318.025L104.527 324.038C97.8589 324.839 93.3131 321.98 90.0024 315.896L3.07455 156.26C1.95471 154.212 2.00943 151.926 2.91234 150.04L3.33057 149.28L6.11944 144.247C6.08035 145.41 6.34028 146.614 6.95395 147.743L93.8876 307.387C96.1156 311.479 99.8602 314.317 104.101 315.492C105.213 315.799 105.909 316.895 105.69 318.027V318.025Z" fill="#2A7749"/>
</g>
<g opacity="0.55">
<path d="M311.193 249.248C311.482 247.491 311.128 245.599 309.999 243.969L219.614 113.532C216.422 108.921 210.864 106.558 205.325 107.457L12.485 138.676C10.8394 138.942 9.45961 139.757 8.46289 140.881C8.88112 138.072 11.0309 135.618 14.1442 135.115L206.984 103.897C212.517 102.998 218.077 105.36 221.273 109.971L311.658 240.408C313.626 243.246 313.239 246.866 311.191 249.246L311.193 249.248Z" fill="white"/>
</g>
<g opacity="0.55">
<path d="M293.766 247.043L241.263 263.802L202.242 276.253L145.824 294.265L111.54 305.209C110.956 305.395 110.358 305.488 109.752 305.488C108.245 305.488 106.82 304.914 105.749 303.923C105.282 303.495 104.886 302.985 104.577 302.416L95.6102 285.953L89.8761 275.421L86.9739 270.089L84.9844 266.44L76.2992 250.493L69.2244 237.5L34.476 173.673L29.0253 163.667L21.8665 150.522C21.116 149.136 21.9544 147.424 23.512 147.168L23.8892 147.104L30.5907 159.408L36.0414 169.414L70.7899 233.242L77.8647 246.234L86.5498 262.182L88.5394 265.831L91.4416 271.162L97.1757 281.694L106.142 298.158C106.451 298.726 106.85 299.238 107.315 299.665C108.386 300.657 109.809 301.23 111.317 301.23C111.921 301.23 112.521 301.136 113.106 300.95L147.389 290.006L203.807 271.995L242.828 259.544L295.332 242.785C295.744 242.652 296.121 242.46 296.452 242.22C296.948 244.204 295.867 246.369 293.766 247.042V247.043Z" fill="white"/>
</g>
<path d="M295.333 242.787L147.39 290.008L113.107 300.952C112.522 301.138 111.924 301.232 111.318 301.232C109.812 301.232 108.387 300.657 107.316 299.666C106.849 299.238 106.452 298.728 106.143 298.16L91.4425 271.164L77.8656 246.236L23.4348 146.263C22.6844 144.879 23.5228 143.165 25.0804 142.909L120.494 127.462L144.411 123.593L172.12 119.105L209.216 113.1C209.411 113.07 209.619 113.051 209.816 113.051C210.17 113.051 210.518 113.1 210.848 113.197C211.673 113.428 212.4 113.944 212.9 114.665L297.424 236.642C298.966 238.872 297.92 241.96 295.337 242.785L295.333 242.787Z" fill="#6F706F"/>
<path d="M295.333 242.787L242.829 259.545L203.808 271.997L147.39 290.008L113.107 300.952C112.522 301.138 111.924 301.232 111.318 301.232C109.812 301.232 108.387 300.657 107.316 299.666C106.849 299.238 106.452 298.728 106.143 298.16L97.1766 281.696L91.4406 271.164L88.5384 265.833L86.5488 262.184L77.8637 246.236L70.7889 233.244L36.0404 169.416L30.5897 159.41L23.4309 146.265C22.6805 144.881 23.5189 143.167 25.0765 142.911L68.4085 135.899L77.8891 134.363L120.49 127.464L136.934 124.808L137.558 124.705L144.408 123.595L172.116 119.107L209.212 113.102C209.408 113.072 209.615 113.053 209.812 113.053C210.166 113.053 210.514 113.102 210.844 113.199C211.669 113.43 212.396 113.946 212.896 114.667L225.603 133.001L241.93 156.565L284.064 217.372L288.444 223.691L297.42 236.644C298.962 238.874 297.916 241.962 295.333 242.787Z" fill="#B8FFDF"/>
<path opacity="0.25" d="M144.409 123.593L91.4441 271.162L77.8672 246.235L120.492 127.462L144.409 123.593Z" fill="url(#paint0_linear_2247_17698)"/>
<path opacity="0.25" d="M210.845 113.197L147.39 290.006L113.107 300.95C112.523 301.136 111.925 301.23 111.319 301.23C109.812 301.23 108.387 300.655 107.316 299.664L172.115 119.103L209.211 113.098C209.406 113.068 209.613 113.049 209.811 113.049C210.164 113.049 210.512 113.098 210.843 113.195L210.845 113.197Z" fill="url(#paint1_linear_2247_17698)"/>
<path d="M111.319 302.582C108.667 302.582 106.232 301.134 104.961 298.803L22.247 146.908C21.6841 145.874 21.6568 144.625 22.1747 143.568C22.6926 142.511 23.6971 141.766 24.86 141.578L208.996 111.769C209.263 111.726 209.539 111.702 209.812 111.702C211.483 111.702 213.051 112.523 214.005 113.899L298.529 235.876C299.512 237.295 299.756 239.044 299.201 240.678C298.646 242.31 297.383 243.549 295.74 244.073L113.517 302.24C112.8 302.469 112.059 302.584 111.317 302.584L111.319 302.582ZM209.814 114.401C209.685 114.401 209.558 114.411 209.431 114.432L25.2919 144.244C24.989 144.293 24.7349 144.481 24.6 144.756C24.4652 145.034 24.471 145.346 24.6176 145.616L107.332 297.513C108.127 298.975 109.656 299.881 111.317 299.881C111.78 299.881 112.245 299.809 112.697 299.664L294.917 241.497C295.736 241.235 296.365 240.619 296.641 239.804C296.918 238.989 296.795 238.118 296.306 237.41L211.782 115.433C211.333 114.784 210.596 114.399 209.811 114.399L209.814 114.401Z" fill="#000072"/>
<path d="M104.815 326.003C98.2527 326.003 91.9929 322.458 88.7233 316.449L1.7935 156.809C0.478217 154.401 0.405906 151.597 1.5922 149.113C1.60588 149.083 1.61956 149.056 1.6352 149.029L7.52758 138.383C8.70215 135.79 11.0728 133.972 13.8812 133.517L206.723 102.298C212.839 101.307 219.071 103.959 222.601 109.05L312.988 239.488C314.967 242.353 315.083 246.123 313.285 249.103L307.258 260.017C307.246 260.04 307.232 260.062 307.218 260.085C306.12 261.865 304.41 263.2 302.399 263.841L110.368 325.138C108.533 325.724 106.66 326.005 104.814 326.005L104.815 326.003ZM4.49637 150.551C3.78303 152.074 3.83385 153.786 4.63709 155.257L91.5688 314.901C95.0144 321.239 102.507 324.247 109.383 322.05L301.414 260.753C302.694 260.345 303.74 259.538 304.441 258.416L310.465 247.509C310.476 247.489 310.488 247.47 310.5 247.448C311.653 245.556 311.584 243.154 310.324 241.333L219.937 110.897C217.115 106.824 212.131 104.706 207.241 105.497L14.4011 136.714C12.6519 136.998 11.1803 138.137 10.4611 139.761C10.4415 139.806 10.42 139.849 10.3966 139.89L4.49637 150.549V150.551Z" fill="#000072"/>
<path d="M110.831 314.719C104.409 314.719 98.2802 311.252 95.0789 305.372L8.14916 145.73C6.88079 143.4 6.82216 140.699 7.99086 138.317C9.15761 135.937 11.3289 134.328 13.9458 133.904L206.786 102.685C212.755 101.72 218.837 104.305 222.278 109.275L312.665 239.713C314.207 241.939 314.59 244.683 313.721 247.247C312.849 249.809 310.869 251.752 308.291 252.575L116.262 313.873C114.468 314.446 112.637 314.719 110.829 314.721L110.831 314.719ZM209.282 104.939C208.582 104.939 207.881 104.995 207.179 105.109L14.3386 136.328C12.5172 136.623 11.0064 137.743 10.1954 139.398C9.38236 141.055 9.42341 142.933 10.3048 144.555L97.2346 304.197C100.776 310.699 108.464 313.781 115.516 311.534L307.545 250.235C309.374 249.651 310.777 248.273 311.397 246.456C312.014 244.638 311.743 242.689 310.65 241.112L220.263 110.675C217.76 107.063 213.607 104.941 209.284 104.941L209.282 104.939Z" fill="#000072"/>
<path d="M108.427 249.873C107.614 249.805 106.766 249.59 105.927 249.223C104.154 248.447 102.601 247.085 101.647 245.474L97.4276 238.343C97.154 237.881 96.941 237.418 96.7866 236.961C96.4309 236.556 96.1143 236.123 95.8465 235.669L67.2093 187.279C66.3279 185.79 66.1032 184.199 66.5898 182.898C66.8341 182.247 67.2445 181.698 67.7859 181.277L82.1426 167.951C82.766 167.249 83.6709 166.782 84.7614 166.624L97.2419 164.804C98.7331 164.587 100.431 164.962 101.952 165.824C101.973 165.805 101.995 165.785 102.016 165.766C102.052 165.731 102.087 165.695 102.124 165.662C102.163 165.623 102.202 165.584 102.243 165.547C102.276 165.514 102.312 165.48 102.347 165.447C102.384 165.41 102.421 165.373 102.46 165.336C102.497 165.297 102.536 165.26 102.575 165.224C102.609 165.191 102.642 165.158 102.677 165.125C102.716 165.086 102.755 165.046 102.796 165.009C102.831 164.974 102.865 164.941 102.902 164.906C102.939 164.869 102.976 164.831 103.015 164.794C103.629 164.167 104.487 163.749 105.511 163.598L112.41 162.592C113.311 162.461 114.268 162.543 115.208 162.803C115.793 162.314 116.553 161.988 117.436 161.859L124.359 160.85C124.703 160.8 125.056 160.78 125.414 160.792C125.715 160.686 126.037 160.606 126.377 160.557L133.317 159.545C134.222 159.412 135.188 159.494 136.139 159.754C136.724 159.265 137.484 158.937 138.373 158.806L145.337 157.79C145.683 157.739 146.038 157.72 146.4 157.729C146.701 157.622 147.025 157.544 147.369 157.493L154.35 156.475C155.261 156.342 156.234 156.424 157.196 156.684C157.778 156.193 158.542 155.865 159.435 155.734L166.44 154.712C167.929 154.495 169.59 154.849 171.091 155.615C171.107 155.603 171.124 155.591 171.142 155.58C171.177 155.552 171.212 155.525 171.25 155.498C171.294 155.462 171.339 155.427 171.386 155.392C171.421 155.363 171.459 155.335 171.496 155.308C171.537 155.275 171.578 155.243 171.621 155.212C171.66 155.181 171.699 155.15 171.74 155.12C171.779 155.089 171.82 155.058 171.861 155.026C171.9 154.995 171.939 154.964 171.98 154.935C172.02 154.903 172.059 154.872 172.102 154.841C172.145 154.808 172.186 154.774 172.231 154.741C172.264 154.714 172.299 154.686 172.334 154.661C172.375 154.628 172.418 154.595 172.461 154.561C172.502 154.53 172.541 154.497 172.582 154.466C172.621 154.434 172.661 154.403 172.702 154.372C173.272 153.916 174.007 153.608 174.867 153.483L187.668 151.616C189.14 151.401 190.785 151.737 192.284 152.474C192.292 152.468 192.3 152.462 192.308 152.457C192.347 152.427 192.39 152.398 192.431 152.371C192.472 152.339 192.515 152.31 192.558 152.281C192.599 152.249 192.64 152.222 192.683 152.193C192.722 152.163 192.763 152.134 192.804 152.107C192.845 152.075 192.886 152.048 192.929 152.019C192.968 151.989 193.009 151.96 193.05 151.933C193.093 151.9 193.138 151.868 193.183 151.839C193.22 151.81 193.261 151.784 193.301 151.757C193.34 151.728 193.383 151.698 193.424 151.669C193.465 151.638 193.506 151.608 193.549 151.579C193.588 151.548 193.629 151.52 193.672 151.491C193.713 151.46 193.754 151.43 193.797 151.401C193.834 151.372 193.873 151.344 193.912 151.317C193.957 151.284 194.002 151.251 194.049 151.217C194.608 150.791 195.321 150.502 196.15 150.381L209.027 148.503C211.9 148.085 215.459 149.742 217.331 152.38L231.747 172.698C232.767 174.136 233.171 175.678 232.87 176.98C232.741 177.531 232.491 178.02 232.136 178.43C235.923 180.427 238.487 184.008 240.715 187.152C246.772 195.699 245.087 204.894 235.939 209.102C235.921 209.109 235.904 209.117 235.886 209.125L205.898 222.438C203.322 223.617 200.358 224.084 197.201 223.845C197.133 223.841 197.065 223.837 196.996 223.832C196.93 223.828 196.861 223.824 196.795 223.82C196.725 223.816 196.654 223.812 196.584 223.806C196.512 223.802 196.441 223.798 196.369 223.792C196.304 223.789 196.24 223.785 196.175 223.781C196.107 223.777 196.039 223.773 195.97 223.769C195.898 223.765 195.824 223.761 195.751 223.755C195.687 223.751 195.622 223.749 195.558 223.744C195.487 223.74 195.417 223.736 195.347 223.732C195.276 223.728 195.204 223.724 195.134 223.718C195.069 223.714 195.005 223.712 194.94 223.707C194.87 223.703 194.8 223.699 194.727 223.695C194.659 223.691 194.592 223.689 194.524 223.683C194.454 223.679 194.385 223.677 194.315 223.671C194.248 223.667 194.182 223.665 194.115 223.66C194.047 223.656 193.979 223.654 193.91 223.648C193.84 223.644 193.77 223.642 193.699 223.636C193.633 223.632 193.568 223.63 193.502 223.626C193.431 223.622 193.363 223.62 193.293 223.615C193.224 223.611 193.156 223.609 193.087 223.603C193.021 223.599 192.957 223.597 192.89 223.593C192.82 223.589 192.751 223.587 192.683 223.583C192.613 223.579 192.544 223.578 192.476 223.572C192.407 223.568 192.339 223.566 192.269 223.56C192.202 223.556 192.136 223.554 192.069 223.55C192.011 223.548 191.952 223.544 191.895 223.542C191.827 223.542 191.759 223.535 191.69 223.533C191.213 223.521 190.731 223.488 190.246 223.443C190.185 223.443 190.123 223.437 190.06 223.435C189.99 223.435 189.918 223.429 189.847 223.425C189.781 223.425 189.712 223.419 189.644 223.415C189.581 223.415 189.517 223.409 189.454 223.407C189.384 223.407 189.314 223.402 189.245 223.4C189.181 223.4 189.116 223.394 189.052 223.392C188.979 223.392 188.907 223.386 188.837 223.384C188.772 223.384 188.706 223.378 188.641 223.376C188.573 223.376 188.503 223.37 188.434 223.368C188.37 223.368 188.305 223.363 188.241 223.361C188.176 223.361 188.112 223.355 188.045 223.353C187.973 223.353 187.899 223.347 187.826 223.345C187.76 223.345 187.693 223.339 187.627 223.337C187.564 223.337 187.5 223.331 187.435 223.329C187.365 223.329 187.295 223.323 187.226 223.321C187.16 223.321 187.093 223.316 187.027 223.314C187.011 223.314 186.996 223.314 186.982 223.314L187.508 224.115C189.39 226.982 188.923 229.978 186.413 231.092L169.629 238.544C169.162 238.751 168.644 238.882 168.095 238.939C167.767 239.271 167.364 239.549 166.889 239.76L160.682 242.515C159.789 242.912 158.716 243.025 157.583 242.871C157.512 242.863 157.444 242.853 157.374 242.844C157.307 242.836 157.239 242.826 157.17 242.816C157.1 242.808 157.03 242.799 156.959 242.789C156.893 242.781 156.826 242.771 156.76 242.761C156.717 242.758 156.674 242.752 156.631 242.746C156.349 243.856 155.621 244.763 154.473 245.271L148.262 248.028C147.469 248.38 146.535 248.513 145.546 248.429C145.159 249.117 144.555 249.676 143.746 250.036L137.533 252.793C137.326 252.885 137.109 252.963 136.884 253.024C136.036 253.258 135.076 253.276 134.082 253.084L108.452 249.868L108.427 249.873Z" fill="black"/>
<path d="M135.599 250.968C134.747 251.203 133.717 251.103 132.701 250.677C131.514 250.179 130.463 249.282 129.814 248.214L124.137 238.892C123.754 238.261 123.543 237.624 123.494 237.03C122.898 236.576 122.388 236.019 122.012 235.404L83.9493 172.899C83.363 171.936 83.2145 170.904 83.5409 170.068C83.8672 169.231 84.6353 168.666 85.6535 168.518L98.1516 166.698C99.2793 166.534 100.591 166.896 101.687 167.675C102.699 168.395 103.714 169.114 104.73 169.831C104.153 168.881 104.003 167.871 104.318 167.046C104.636 166.208 105.404 165.643 106.428 165.494L113.337 164.49C114.31 164.347 115.389 164.595 116.343 165.119C116.698 164.386 117.424 163.896 118.369 163.759L125.302 162.75C125.651 162.7 126.017 162.698 126.384 162.743C126.664 162.604 126.978 162.506 127.324 162.457L134.274 161.445C135.253 161.302 136.342 161.548 137.309 162.072C137.659 161.339 138.384 160.847 139.336 160.708L146.309 159.694C146.661 159.643 147.028 159.641 147.399 159.684C147.679 159.545 147.996 159.448 148.343 159.397L155.334 158.379C156.319 158.236 157.419 158.48 158.401 159.004C158.745 158.269 159.47 157.777 160.427 157.636L167.441 156.616C169.275 156.35 171.508 157.421 172.656 159.119L173.195 159.919C173.355 159.027 173.519 158.146 173.688 157.274C173.883 156.262 174.7 155.558 175.88 155.386L188.699 153.52C190.542 153.252 192.807 154.323 193.982 156.024L194.378 156.596C194.593 155.721 194.814 154.855 195.039 154.003C195.283 153.078 196.075 152.447 197.187 152.285L210.083 150.409C211.938 150.139 214.233 151.21 215.436 152.912L229.822 173.236C230.479 174.162 230.737 175.155 230.542 175.993C230.346 176.832 229.715 177.451 228.777 177.695L226.985 178.176C227.047 178.196 227.112 178.217 227.174 178.237C232.275 179.898 236.071 183.879 238.768 187.694C244.128 195.275 242.567 203.387 234.284 207.198C234.273 207.204 234.261 207.208 234.251 207.214L204.293 220.511C200.263 222.356 195.183 222.247 190.001 220.21C184.63 218.1 179.695 214.046 176.459 209.112C173.24 204.202 172.073 199.16 173.152 194.9C173.383 193.991 173.711 193.141 174.133 192.359L170.207 193.412C169.871 193.502 169.513 193.541 169.146 193.533C168.893 193.709 168.594 193.844 168.268 193.932L165.737 194.61C165.991 194.872 166.218 195.154 166.411 195.449L172.706 205.06C173.953 206.964 173.525 208.942 171.729 209.549L169.169 210.413C170.086 211.131 170.76 212.057 171.055 212.997L172.949 212.26C173.865 211.904 175.05 211.975 176.214 212.456C177.379 212.936 178.421 213.786 179.083 214.797L185.543 224.659C186.752 226.505 186.449 228.432 184.833 229.15L168.071 236.59C167.592 236.803 167.033 236.891 166.437 236.858C166.191 237.26 165.821 237.589 165.333 237.804L159.133 240.555C158.215 240.964 156.999 240.915 155.801 240.42C155.145 240.149 154.525 239.76 153.992 239.287C154.812 240.987 154.406 242.654 152.932 243.307L146.729 246.061C145.883 246.438 144.786 246.424 143.688 246.031C143.594 246.93 143.092 247.677 142.218 248.064L136.013 250.818C135.88 250.876 135.74 250.927 135.595 250.966L135.599 250.968ZM201.439 202.422C201.492 202.496 201.551 202.57 201.617 202.645C201.641 202.672 201.664 202.697 201.686 202.721C201.727 202.653 201.76 202.563 201.764 202.447C201.656 202.439 201.549 202.43 201.439 202.422Z" fill="#23FF81"/>
<path d="M139.513 244.499C137.45 245.415 135.386 246.33 133.324 247.246C131.416 244.127 129.517 241.022 127.625 237.928C129.718 237.088 131.813 236.247 133.906 235.407C135.769 238.426 137.637 241.458 139.515 244.5L139.513 244.499ZM99.8067 170.145C95.6263 170.751 91.4499 171.357 87.2793 171.963C99.666 192.216 112.399 213.033 125.493 234.441C127.598 233.628 129.703 232.815 131.809 232.002C124.834 220.692 117.961 209.547 111.187 198.565C115.012 197.623 118.838 196.679 122.667 195.735C119.1 190.035 115.561 184.377 112.049 178.762C107.992 175.946 103.911 173.073 99.8087 170.145H99.8067ZM109.207 186.399C107.571 186.734 105.936 187.068 104.3 187.4C103.162 185.555 102.027 183.716 100.895 181.881C101.718 181.73 102.543 181.578 103.366 181.428C105.009 182.6 106.649 183.763 108.285 184.916L109.205 186.399H109.207ZM121.864 190.887C125.927 193.656 129.966 196.369 133.977 199.021C137.981 197.946 141.988 196.869 145.996 195.792C139.588 185.796 133.263 175.932 127.021 166.197C124.703 166.533 122.387 166.87 120.071 167.206C124.295 173.847 128.555 180.546 132.857 187.308C132.042 187.492 131.227 187.676 130.412 187.857C128.807 186.794 127.201 185.723 125.589 184.642C122.041 179.031 118.52 173.464 115.027 167.937C112.717 168.271 110.409 168.607 108.101 168.941C112.643 176.184 117.23 183.499 121.862 190.887H121.864ZM129.052 165.904C135.261 175.564 141.552 185.354 147.927 195.274C150.133 194.682 152.34 194.088 154.548 193.496C152.168 189.823 149.801 186.169 147.444 182.532C150.593 184.498 153.724 186.425 156.835 188.315L159.368 192.202C161.578 191.608 163.788 191.014 166.001 190.42C159.954 181.216 153.983 172.125 148.085 163.145C145.754 163.483 143.424 163.821 141.094 164.159C143.363 167.641 145.644 171.14 147.935 174.656C144.81 172.719 141.665 170.743 138.503 168.73C137.672 167.45 136.846 166.17 136.019 164.894C133.695 165.23 131.373 165.568 129.052 165.904ZM165.385 170.028C164.549 170.182 163.712 170.335 162.878 170.489C160.955 167.593 159.039 164.706 157.132 161.831C154.795 162.169 152.459 162.509 150.124 162.847C155.989 171.755 161.924 180.771 167.934 189.898C170.146 189.304 172.36 188.709 174.575 188.113C172.605 185.147 170.644 182.192 168.69 179.248C169.511 179.065 170.332 178.879 171.152 178.695C172.679 179.569 174.199 180.431 175.714 181.283C176.941 183.122 178.173 184.967 179.408 186.816C181.624 186.22 183.842 185.625 186.06 185.029C184.167 182.215 182.279 179.411 180.4 176.616C178.333 175.477 176.257 174.32 174.17 173.143C174.367 171.503 174.578 169.889 174.803 168.296C172.952 165.544 171.108 162.802 169.268 160.07C166.923 160.41 164.578 160.75 162.237 161.09C163.431 162.881 164.629 164.675 165.829 166.473C165.672 167.645 165.526 168.83 165.383 170.028H165.385ZM186.262 166.191C189.414 165.613 192.568 165.032 195.727 164.452C194.005 161.954 192.291 159.463 190.581 156.982C186.291 157.604 182.007 158.225 177.729 158.847C177.213 161.55 176.742 164.327 176.316 167.184C180.18 172.914 184.075 178.689 187.999 184.51C194.054 182.884 200.114 181.256 206.178 179.626C203.546 175.803 200.925 172 198.32 168.216C196.028 168.683 193.735 169.152 191.445 169.619C192.334 170.921 193.225 172.224 194.118 173.532C192.469 173.903 190.821 174.275 189.172 174.644C188.015 172.942 186.862 171.243 185.71 169.551C185.886 168.419 186.072 167.299 186.264 166.193L186.262 166.191ZM199.092 155.747C198.443 158.223 197.841 160.776 197.286 163.404C200.872 168.599 204.486 173.833 208.125 179.102C210.351 178.504 212.577 177.906 214.805 177.308C213.957 176.088 213.109 174.871 212.262 173.655C213.9 173.252 215.538 172.848 217.176 172.443C218.004 173.628 218.835 174.814 219.665 176.002C221.895 175.404 224.125 174.804 226.355 174.204C221.532 167.364 216.753 160.586 212.02 153.873C207.705 154.498 203.395 155.124 199.092 155.747ZM212.231 165.376C210.558 165.718 208.885 166.058 207.214 166.4L206.53 165.417C206.761 164.378 206.997 163.352 207.242 162.335C208.086 162.181 208.932 162.025 209.776 161.87C210.593 163.037 211.41 164.208 212.231 165.378V165.376ZM122.665 208.089C129.675 219.387 136.791 230.857 144.014 242.499C146.076 241.585 148.14 240.668 150.202 239.753C147.391 235.26 144.599 230.795 141.82 226.356C144.049 227.83 146.272 229.286 148.484 230.722C148.359 228.438 148.249 226.182 148.154 223.952C150.882 228.279 153.628 232.632 156.387 237.007C158.449 236.093 160.511 235.178 162.573 234.264C155.723 223.491 148.969 212.871 142.31 202.396C140.125 203.029 137.94 203.662 135.757 204.295C136.574 205.589 137.391 206.887 138.212 208.187C138.255 210.309 138.311 212.461 138.382 214.636C136.164 213.17 133.94 211.685 131.706 210.182C130.873 208.849 130.041 207.52 129.21 206.193C127.029 206.824 124.848 207.458 122.667 208.089H122.665ZM162.968 196.41C157.042 198.127 151.12 199.843 145.204 201.557C147.397 204.993 149.6 208.445 151.812 211.912C153.997 213.287 156.172 214.646 158.338 215.984C158.381 218.099 158.439 220.239 158.512 222.408C160.765 225.94 163.03 229.487 165.305 233.052C170.881 230.578 176.455 228.103 182.028 225.629C179.875 222.326 177.729 219.037 175.593 215.764C172.769 216.862 169.945 217.96 167.121 219.059C167.078 216.954 167.05 214.878 167.037 212.826C164.899 211.552 162.751 210.256 160.595 208.943C163.478 207.97 166.358 206.996 169.241 206.023C167.142 202.804 165.051 199.599 162.97 196.408L162.968 196.41ZM215.63 181.148C204.951 184.242 194.286 187.334 183.637 190.42C176.459 192.405 174.786 200.307 179.945 208.142C185.157 216.059 194.798 220.067 201.425 217.02C211.397 212.596 221.364 208.171 231.327 203.75C237.943 200.709 239.313 194.412 235.267 188.666C231.251 182.964 222.845 179.151 215.63 181.148ZM204.623 200.07C204.832 200.428 205.041 200.785 205.252 201.145C205.246 201.145 205.24 201.145 205.238 201.145H205.235C208.018 205.771 202.868 209.023 198.601 204.227C197.45 202.933 196.856 201.473 196.878 200.26C194.54 199.965 192.179 199.632 189.777 199.243C189.584 198.671 189.398 198.106 189.213 197.545C194.278 198.219 199.205 198.698 203.995 198.993C204.206 199.353 204.416 199.711 204.627 200.07H204.623ZM220.224 196.083C222.525 200.93 216.267 202.552 212.968 198.255C212.968 198.255 212.966 198.255 212.964 198.255C212.962 198.255 212.958 198.258 212.956 198.264C212.7 197.938 212.444 197.614 212.19 197.291C211.934 196.967 211.678 196.64 211.422 196.314C214.041 193.417 216.666 190.511 219.312 187.617C219.773 188.002 220.232 188.387 220.695 188.778C219.525 190.205 218.352 191.625 217.187 193.054C218.469 193.691 219.605 194.77 220.228 196.081L220.224 196.083Z" fill="black"/>
<path d="M193.293 160.663C193.67 160.663 193.67 160.077 193.293 160.077C192.915 160.077 192.915 160.663 193.293 160.663Z" fill="#E0E0E0"/>
<path d="M571.528 142.003C571.528 142.003 585.471 145.572 596.853 166.984C608.235 188.395 632.901 182.788 632.901 182.788L622.256 210.319C622.256 210.319 589.829 204.155 579.277 178.432C568.724 152.709 557.346 146.846 557.346 146.846" fill="black"/>
<g opacity="0.3">
<path d="M622.255 210.319L629.232 192.276C621.935 192.905 605.536 192.296 596.852 175.961C585.47 154.549 571.528 150.98 571.528 150.98L564.646 153.33C568.774 158.049 574.121 165.867 579.277 178.431C589.828 204.153 622.255 210.319 622.255 210.319Z" fill="#000072"/>
</g>
<path d="M622.257 213.759C622.044 213.759 621.829 213.739 621.612 213.698C620.213 213.432 587.227 206.874 576.095 179.737C566.294 155.847 555.84 149.943 555.737 149.886C554.048 149.017 553.401 146.951 554.271 145.262C555.141 143.574 557.232 142.917 558.92 143.789C559.43 144.051 571.551 150.537 582.46 177.126C590.426 196.543 612.37 204.134 620.137 206.262L627.661 186.8C618.899 187.14 602.67 185.253 593.815 168.598C583.401 149.005 570.775 145.362 570.648 145.327C568.827 144.829 567.732 142.952 568.215 141.127C568.7 139.3 570.556 138.205 572.38 138.67C573.009 138.831 587.931 142.874 599.887 165.369C609.919 184.24 631.915 179.485 632.136 179.434C633.377 179.149 634.669 179.577 635.502 180.539C636.334 181.5 636.565 182.843 636.108 184.029L625.462 211.56C624.942 212.905 623.652 213.759 622.255 213.759H622.257Z" fill="#000072"/>
<path d="M549.623 138.774C549.623 138.774 578.921 163.657 611.039 142.368C645.842 119.297 662.862 130.958 662.862 130.958C662.862 130.958 667.701 110.905 682.576 101.729C682.576 101.729 656.261 78.2826 617.209 107.211C578.157 136.141 552.156 126.456 552.156 126.456" fill="#23FF81"/>
<g opacity="0.3">
<path d="M615.581 132.127C583.463 153.416 554.165 128.533 554.165 128.533L554.464 127.081C552.949 126.749 552.156 126.454 552.156 126.454L549.623 138.774C549.623 138.774 578.921 163.657 611.039 142.368C645.842 119.297 662.862 130.959 662.862 130.959C662.862 130.959 663.998 126.268 666.847 120.392C663.664 118.666 646.76 111.46 615.581 132.129V132.127Z" fill="#000072"/>
</g>
<g opacity="0.6">
<path d="M552.156 134.227C552.156 134.227 578.157 143.913 617.209 114.984C645.789 93.8129 667.545 100.694 677.16 105.906C678.798 104.37 680.596 102.951 682.578 101.73C682.578 101.73 656.263 78.2836 617.211 107.212C578.159 136.142 552.158 126.455 552.158 126.455L549.625 138.775C549.625 138.775 550.104 139.181 551.003 139.844L552.158 134.227H552.156Z" fill="#F5F5F5"/>
</g>
<path d="M583.609 154.399C577.396 154.399 571.828 153.271 567.257 151.837C555.39 148.112 547.717 141.668 547.396 141.397C545.948 140.167 545.772 137.996 547.002 136.55C548.229 135.104 550.396 134.926 551.845 136.151C551.915 136.21 558.945 142.073 569.551 145.348C583.48 149.65 596.799 147.684 609.138 139.503C636.148 121.597 653.348 123.737 660.704 126.229C662.713 120.391 667.48 109.337 676.658 101.756C668.598 96.9448 647.747 88.8714 619.254 109.978C579.164 139.677 552.087 130.104 550.953 129.68C549.173 129.018 548.268 127.036 548.931 125.258C549.593 123.477 551.571 122.568 553.353 123.235C553.58 123.315 578.318 131.74 615.158 104.45C636.337 88.76 654.055 88.0642 665.195 90.2492C677.439 92.6472 684.563 98.8992 684.862 99.163C685.673 99.8861 686.095 100.949 685.999 102.032C685.904 103.115 685.304 104.088 684.379 104.659C670.923 112.959 666.247 131.586 666.202 131.773C665.934 132.87 665.144 133.769 664.089 134.173C663.034 134.576 661.845 134.439 660.915 133.8C660.796 133.724 645.001 123.985 612.936 145.239C602.541 152.13 592.425 154.403 583.607 154.403L583.609 154.399Z" fill="#000072"/>
<path d="M670.526 214.947C662.114 235.503 686.983 322.722 611.06 353.198C615.874 344.378 618.606 334.335 618.606 323.68C618.606 314.502 616.66 305.653 613.101 297.659C609.757 290.164 604.994 283.404 599.08 277.807L600.864 277.154C635.206 266.398 624.203 208.932 640.518 176.405L662.329 193.627L659.046 230.375L670.527 214.947H670.526Z" fill="#3A5184"/>
<g opacity="0.3">
<path d="M659.042 230.376L661.772 199.821C660.293 201.215 658.745 202.542 657.179 203.837C655.837 229.61 662.208 280.695 628.103 312.74C625.144 315.521 621.522 316.457 618.127 315.998C618.43 318.527 618.602 321.091 618.602 323.683C618.602 334.338 615.87 344.381 611.057 353.201C686.978 322.725 662.11 235.504 670.522 214.95L659.04 230.378L659.042 230.376Z" fill="#000072"/>
</g>
<path d="M682.578 177.863C682.578 194.27 669.159 193.83 668.303 184.236C667.59 176.151 662.481 174.601 660.89 174.316H660.88L660.585 174.275L660.411 174.256L643.148 171.828C652.52 157.859 668.588 156.625 677.031 164.396C680.416 167.505 682.578 172.084 682.578 177.865V177.863Z" fill="#3A5184"/>
<g opacity="0.6">
<path d="M677.029 171.38C679.734 173.864 681.653 177.288 682.318 181.512C682.48 180.4 682.576 179.192 682.576 177.863C682.576 172.082 680.414 167.503 677.029 164.393C668.586 156.623 652.518 157.858 643.146 171.826L648.652 172.6C657.949 164.696 670.076 164.98 677.029 171.378V171.38Z" fill="#F5F5F5"/>
</g>
<path d="M718.803 206.282L680.302 201.795L670.525 214.938V214.947L659.043 230.375L662.326 193.627L640.516 176.405C640.903 175.63 641.311 174.865 641.729 174.121C642.179 173.316 642.648 172.552 643.136 171.826H643.146L660.409 174.254L660.583 174.273L660.878 174.314H660.888C662.479 174.6 667.587 176.149 668.301 184.235C669.157 193.829 682.575 194.268 682.575 177.861C682.575 172.081 680.414 167.501 677.029 164.392L677.039 164.382L692.609 143.531L688.235 182.247L718.803 206.28V206.282Z" fill="#A1A6D1"/>
<g opacity="0.6">
<path d="M685.666 152.832L682.182 183.682L709.556 205.203L718.804 206.282L688.236 182.249L692.61 143.533L685.666 152.832Z" fill="#F5F5F5"/>
<path d="M654.356 175.688L654.529 175.709L654.825 175.751H654.834C656.425 176.036 661.534 177.586 662.247 185.671C662.806 191.927 668.704 194.286 672.742 190.623C670.461 189.849 668.603 187.613 668.302 184.238C667.588 176.153 662.48 174.603 660.889 174.318H660.879L660.584 174.277L660.41 174.257L643.147 171.83H643.138C642.688 172.495 642.258 173.198 641.844 173.931L654.356 175.69V175.688Z" fill="#000072"/>
<path d="M674.248 203.229L664.47 216.371V216.382L659.723 222.757L659.043 230.376L670.525 214.948V214.938L678.839 203.763L674.248 203.229Z" fill="#F5F5F5"/>
</g>
<path d="M667.799 267.586C666.935 267.586 666.069 267.262 665.401 266.613C653.016 254.576 623.761 255.206 623.462 255.211C621.537 255.247 619.984 253.763 619.933 251.866C619.882 249.968 621.379 248.387 623.277 248.336C624.59 248.297 655.725 247.619 670.195 261.682C671.557 263.005 671.589 265.184 670.263 266.545C669.589 267.238 668.694 267.586 667.797 267.586H667.799Z" fill="#000072"/>
<path d="M611.039 356.648C609.675 356.648 608.385 355.831 607.846 354.489C607.138 352.726 607.994 350.723 609.757 350.015C664.643 327.997 664.812 275.519 664.923 240.792C664.962 228.824 664.991 219.372 667.344 213.634C668.066 211.877 670.073 211.037 671.832 211.756C673.589 212.477 674.429 214.487 673.71 216.243C671.867 220.737 671.837 230.041 671.802 240.814C671.693 275.163 671.509 332.657 612.319 356.398C611.899 356.566 611.465 356.646 611.039 356.646V356.648Z" fill="#000072"/>
<path d="M600.865 280.596C599.401 280.596 598.045 279.654 597.584 278.185C597.017 276.373 598.025 274.442 599.839 273.875C619.328 267.772 622.812 244.044 626.504 218.923C628.926 202.438 631.429 185.394 638.738 172.434C646.8 158.14 660.398 154.364 670.303 156.972C680.007 159.522 686.03 167.529 686.026 177.866C686.02 188.927 680.464 194.122 674.96 194.364C669.629 194.609 665.409 190.465 664.886 184.54C664.344 178.417 660.85 177.754 660.154 177.684L660.414 174.254L660.6 170.82C664.067 171.008 670.856 173.99 671.736 183.934C671.927 186.097 673.131 187.551 674.657 187.493C676.885 187.395 679.143 184.055 679.147 177.862C679.151 170.691 675.191 165.368 668.556 163.624C661.21 161.693 650.992 164.713 644.73 175.814C638.05 187.659 635.641 204.06 633.311 219.921C629.475 246.038 625.507 273.043 601.897 280.438C601.555 280.546 601.209 280.596 600.869 280.596H600.865Z" fill="#000072"/>
<path d="M659.043 233.815C658.633 233.815 658.218 233.741 657.818 233.588C656.379 233.039 655.48 231.601 655.617 230.069L658.734 195.173L630.768 173.089C629.55 172.126 629.128 170.466 629.738 169.038C630.347 167.609 631.835 166.767 633.379 166.984L660.974 170.857C661.001 170.861 661.031 170.863 661.058 170.867L661.304 170.902C663.005 171.111 664.326 172.56 664.326 174.315C664.326 176.214 662.79 177.754 660.892 177.754C660.734 177.754 660.564 177.743 660.407 177.721L660.02 177.67C659.991 177.666 659.962 177.664 659.932 177.659L644.997 175.558L664.459 190.925C665.369 191.644 665.856 192.774 665.752 193.931L663.554 218.548L677.545 199.739C678.278 198.752 679.486 198.234 680.703 198.375L707.103 201.451L686.111 184.948C685.175 184.211 684.684 183.043 684.819 181.858L687.766 155.764L679.797 166.439C678.661 167.959 676.505 168.274 674.983 167.136C673.46 165.999 673.148 163.845 674.285 162.323L689.856 141.472C690.786 140.227 692.433 139.762 693.878 140.332C695.322 140.903 696.203 142.373 696.029 143.917L691.871 180.727L720.932 203.575C722.142 204.527 722.573 206.167 721.985 207.59C721.399 209.012 719.937 209.874 718.409 209.694L681.88 205.438L661.807 232.424C661.144 233.315 660.11 233.811 659.047 233.811L659.043 233.815Z" fill="#000072"/>
<path d="M593.759 240.823L570.338 237.265L605.874 3.4375C622.93 26.6142 626.76 45.3076 620.631 87.7133L593.757 240.823H593.759Z" fill="#A1A6D1"/>
<path d="M593.759 240.823L570.338 237.265L605.874 3.4375C622.93 26.6142 626.76 45.3076 620.631 87.7133L593.757 240.823H593.759Z" fill="#A1A6D1"/>
<g opacity="0.6">
<path d="M623.362 55.4873L595.675 70.5417L593.721 83.3994L622.78 69.2128C623.179 64.2917 623.372 59.7458 623.362 55.4854V55.4873Z" fill="#EDEDED"/>
</g>
<g opacity="0.6">
<path d="M592.788 94.0404L592.023 99.0631L621.653 84.5989C621.937 82.3045 622.181 80.0922 622.394 77.9424L592.786 94.0424L592.788 94.0404Z" fill="#EDEDED"/>
</g>
<g opacity="0.6">
<path d="M605.874 3.43652L603.413 19.6284C615.075 39.0371 617.217 57.9748 611.926 94.5916L586.455 239.712L593.759 240.822L620.633 87.7123C626.76 45.3067 622.931 26.6132 605.876 3.43652H605.874Z" fill="#EDEDED"/>
</g>
<path d="M593.761 244.265C593.589 244.265 593.415 244.253 593.241 244.225L569.82 240.667C568.919 240.53 568.108 240.039 567.567 239.304C567.025 238.57 566.799 237.651 566.935 236.748L602.472 2.92107C602.681 1.5452 603.699 0.431216 605.049 0.0989757C606.4 -0.231311 607.819 0.280731 608.643 1.40058C626.539 25.7167 630.135 45.999 624.036 88.2072C624.03 88.2424 624.024 88.2756 624.018 88.3108L597.146 241.421C596.853 243.088 595.405 244.267 593.763 244.267L593.761 244.265ZM574.253 234.381L590.951 236.92L617.235 87.1714C622.468 50.9142 620.481 32.424 607.963 12.5717L574.253 234.381Z" fill="#000072"/>
<path d="M588.883 318.863L586.905 331.883L562.935 328.244L551.789 326.551L553.767 313.529L558.835 314.295L583.409 318.026V318.036L588.883 318.863Z" fill="#E1641C"/>
<g opacity="0.3">
<path d="M588.881 318.862L586.903 331.882L562.933 328.243L551.787 326.55L553.765 313.528L558.833 314.294L583.407 318.025V318.035L588.881 318.862Z" fill="#000072"/>
</g>
<path d="M598.079 369.711C586.21 380.569 570.17 387.238 552.491 387.238C534.812 387.238 519.088 380.702 507.271 370.037C524.902 360.361 534.812 344.588 541.735 328.621C546.875 316.742 550.371 304.762 554.164 295.086C556.142 297.675 558.63 297.758 561.466 296.993L558.835 314.297L553.768 313.533L551.79 326.553L562.934 328.246C562.934 328.246 556.336 367.46 598.081 369.713L598.079 369.711Z" fill="#3A5184"/>
<path d="M585.957 301.305L583.408 318.026L558.834 314.294L561.465 296.99C565.41 295.928 570.009 293.237 574.76 293.431C579.042 293.615 583.08 297.58 585.957 301.303V301.305Z" fill="#E1641C"/>
<g opacity="0.3">
<path d="M585.957 301.304L583.408 318.025L558.834 314.293L561.465 296.989C565.41 295.927 570.009 293.236 574.76 293.43C579.042 293.614 583.08 297.579 585.957 301.302V301.304Z" fill="#000072"/>
</g>
<path d="M618.605 323.686C618.605 341.795 610.723 358.129 598.09 369.713H598.08C556.337 367.459 562.933 328.245 562.933 328.245L586.905 331.884L588.883 318.864L583.407 318.038V318.028L585.956 301.306C583.081 297.585 579.043 293.618 574.759 293.434C570.008 293.241 565.409 295.932 561.464 296.993C558.63 297.757 556.142 297.677 554.162 295.086C557.905 285.49 561.933 278.159 568.132 275.427C582.967 268.87 592.767 272.949 597.875 276.711C610.825 288.314 618.605 305.323 618.605 323.686Z" fill="#3A5184"/>
<g opacity="0.3">
<path d="M592.472 273.716C586.883 271.498 578.817 270.706 568.129 275.428C565.291 276.675 562.901 278.893 560.802 281.852C558.3 285.352 556.194 289.882 554.163 295.085C551.704 301.37 549.357 308.629 546.606 316.204C545.126 320.288 543.535 324.459 541.729 328.62C535.083 343.942 525.694 359.094 509.355 368.835C518.314 373.195 528.444 375.653 539.175 375.653C556.854 375.653 572.89 368.989 584.764 358.129H584.772C597.403 346.547 605.289 330.209 605.289 312.1C605.289 297.86 600.612 284.438 592.468 273.716H592.472ZM586.908 331.886L562.936 328.241L551.792 326.546L553.211 317.208L553.77 313.528L558.834 314.294L561.465 296.994C564.654 296.127 568.275 294.209 572.049 293.615C572.944 293.469 573.847 293.4 574.758 293.436C579.04 293.615 583.082 297.581 585.953 301.304L583.408 318.027V318.037L588.886 318.862L586.908 331.889V331.886Z" fill="#000072"/>
</g>
<path d="M585.957 301.305C588.568 304.69 590.219 307.881 590.219 307.881L585.957 301.305Z" fill="#EDEDED"/>
<path d="M541.735 328.621C534.811 344.588 524.901 360.361 507.272 370.037C502.582 372.617 497.352 374.769 491.489 376.37C448.522 388.125 424.794 361.065 416.414 336.583C412.937 326.406 412.101 316.68 413.651 310.369C432.432 311.409 455.64 310.756 483.353 306.607C487.248 303.773 491.571 300.03 496.189 295.074C496.189 295.074 501.736 327.081 541.726 328.609L541.735 328.619V328.621Z" fill="#3A5184"/>
<path d="M602.964 274.407C602.811 276.895 599.935 278.22 597.927 276.742C597.908 276.732 597.896 276.723 597.877 276.711C592.768 272.949 582.969 268.87 568.133 275.427C561.934 278.159 557.906 285.49 554.163 295.086C550.37 304.762 546.874 316.742 541.734 328.621L541.724 328.611C501.734 327.081 496.188 295.076 496.188 295.076C497.258 293.923 498.359 292.69 499.471 291.396C501.744 288.746 503.997 285.951 506.25 283.117C519.904 265.927 533.852 246.686 555.815 242.088C563.951 240.395 573.189 240.7 583.926 243.872C598.375 248.134 603.861 260.564 602.964 274.411V274.407Z" fill="#3A5184"/>
<g opacity="0.3">
<path d="M582.283 271.964C578.216 272.067 573.504 273.056 568.13 275.429C561.931 278.155 557.907 285.49 554.166 295.086C550.374 304.76 546.874 316.746 541.732 328.62C534.81 344.588 524.905 360.367 507.269 370.039C502.583 372.619 497.355 374.769 491.492 376.367C448.525 388.121 424.791 361.061 416.417 336.582C412.934 326.41 412.1 316.677 413.648 310.365C429.744 311.26 449.1 310.906 471.766 308.172C469.703 311.981 468.585 314.277 468.585 314.277C468.585 314.277 454.468 360.723 496.19 352.649C526.182 346.845 531.81 321.587 552.679 284.845C562.239 268.008 573.213 267.527 582.283 271.964Z" fill="#000072"/>
</g>
<g opacity="0.6">
<path d="M583.926 243.868C573.189 240.696 563.953 240.391 555.815 242.084C533.852 246.682 519.904 265.923 506.25 283.113C503.997 285.949 501.744 288.742 499.471 291.392C498.359 292.688 497.258 293.921 496.188 295.072C496.188 295.072 530.34 256.892 552.303 252.293C560.439 250.601 569.677 250.906 580.414 254.078C592.26 257.572 598.078 266.558 599.295 277.311C601.039 277.592 602.843 276.361 602.964 274.403C603.861 260.556 598.375 248.127 583.926 243.864V243.868Z" fill="#F5F5F5"/>
</g>
<path d="M413.74 310.001C413.709 310.124 413.68 310.236 413.648 310.359L413.74 310.001Z" fill="#EDEDED"/>
<path d="M462.602 315.354C462.602 315.354 470.829 315.69 483.351 306.606L462.602 315.354Z" fill="#EDEDED"/>
<path d="M557.346 123.491C452.547 158.617 335.86 129.282 334.443 128.926C348.055 78.3726 393.266 48.0488 448.072 48.0488C499.624 48.0488 541.939 78.8221 557.346 123.491Z" fill="#3A5184"/>
<g opacity="0.3">
<path d="M547.531 102.51C535.719 120.58 503.564 135.452 451.195 135.929C445.492 135.982 439.836 136.009 434.235 136.017C388.065 136.074 356.979 124.758 341.565 109.768C338.667 115.782 336.265 122.167 334.443 128.929C335.86 129.284 452.547 158.621 557.346 123.494C554.791 116.089 551.482 109.076 547.531 102.512V102.51Z" fill="#000072"/>
</g>
<g opacity="0.6">
<path d="M448.07 58.2887C496.051 58.2887 536.018 84.952 553.748 124.661C554.948 124.276 556.148 123.893 557.344 123.492C541.937 78.8212 499.622 48.0498 448.07 48.0498C393.264 48.0498 348.054 78.3736 334.441 128.927C334.566 128.958 335.618 129.222 337.469 129.644C353.93 84.8308 396.799 58.2887 448.07 58.2887Z" fill="#F5F5F5"/>
</g>
<path d="M506.251 283.113C503.998 285.947 501.745 288.742 499.472 291.392C498.36 292.687 497.259 293.921 496.188 295.072C491.57 300.028 487.247 303.769 483.352 306.604C455.639 310.753 432.431 311.406 413.65 310.367V310.357C372.794 308.094 352.85 297.765 352.85 297.765L352.371 297.622C353.065 295.246 353.452 292.748 353.493 290.168C353.565 285.681 353.186 280.869 352.482 275.771C353.297 276.322 393.379 302.842 506.253 283.111L506.251 283.113Z" fill="#23FF81"/>
<g opacity="0.6">
<path d="M480.913 286.95C387.309 298.825 353.233 276.28 352.482 275.773C352.948 279.139 353.252 282.366 353.397 285.469C370.672 291.731 411.824 296.775 480.915 286.95C480.018 288.103 481.839 285.819 480.915 286.95H480.913Z" fill="#F5F5F5"/>
</g>
<g opacity="0.3">
<path d="M490.075 285.701C490.054 285.726 490.032 285.752 490.013 285.775C488.9 287.071 487.8 288.304 486.729 289.457C486.682 289.506 486.637 289.557 486.59 289.606C479.625 297.052 470.174 301.66 460.044 302.823C438.357 305.313 419.753 305.614 404.189 304.752V304.742C379.49 303.374 362.446 299.059 352.819 295.86C352.686 296.454 352.537 297.042 352.367 297.622L352.846 297.765C352.846 297.765 372.79 308.094 413.646 310.357V310.367C432.427 311.406 455.635 310.754 483.348 306.605C487.243 303.771 491.566 300.028 496.184 295.072C497.255 293.919 498.356 292.686 499.468 291.392C501.741 288.742 503.994 285.947 506.247 283.113C500.677 284.087 495.291 284.945 490.071 285.701H490.075Z" fill="#000072"/>
</g>
<path d="M416.412 336.584C416.412 336.584 380.704 401.678 305.579 375.779C270.992 363.859 258.207 341.478 252.1 319.302C252.1 319.302 261.918 298.369 294.282 297.767C299.8 309.737 308.16 318.393 324.923 318.373C337.872 318.354 348.915 309.553 352.372 297.624L352.851 297.767C352.851 297.767 372.795 308.095 413.651 310.359V310.368C412.101 316.679 412.937 326.408 416.414 336.582L416.412 336.584Z" fill="#3A5184"/>
<path d="M294.279 297.767C261.915 298.369 252.096 319.302 252.096 319.302C242.766 285.531 248.905 252.221 217.022 257.054C216.594 257.115 216.175 257.146 215.747 257.146C213.056 257.146 210.477 255.85 208.825 253.66C206.429 250.468 206.499 246.043 209.009 242.944C211.741 239.559 214.821 236.928 217.899 234.878C228.167 228.077 240.984 226.404 252.872 229.637C283.634 237.997 283.45 274.266 294.279 297.767Z" fill="#3A5184"/>
<path d="M413.649 310.369V310.359C372.793 308.096 352.849 297.767 352.849 297.767L352.37 297.625C348.913 309.554 337.871 318.355 324.921 318.374C308.158 318.394 299.798 309.738 294.281 297.767C283.451 274.264 283.635 237.997 252.874 229.637C240.985 226.404 228.169 228.077 217.9 234.878C214.82 236.928 211.742 239.559 209.01 242.944C206.503 246.043 206.43 250.468 208.826 253.661C210.478 255.854 213.058 257.148 215.749 257.148C216.177 257.148 216.595 257.117 217.023 257.056C248.906 252.223 242.77 285.535 252.098 319.304C258.205 341.481 270.992 363.862 305.577 375.781C380.704 401.681 416.41 336.587 416.41 336.587C412.934 326.41 412.097 316.684 413.647 310.371L413.649 310.369Z" fill="#3A5184"/>
<g opacity="0.3">
<path d="M401.618 355.347C402.113 354.852 402.596 354.364 403.065 353.875C403.092 353.846 403.121 353.817 403.149 353.787C404.614 352.263 405.957 350.776 407.179 349.351C407.192 349.335 407.206 349.318 407.22 349.302C407.607 348.851 407.98 348.407 408.339 347.969C408.367 347.936 408.394 347.903 408.422 347.87C409.551 346.5 410.56 345.208 411.449 344.018C411.464 343.996 411.48 343.976 411.496 343.955C411.767 343.59 412.027 343.236 412.277 342.892C412.309 342.849 412.338 342.808 412.369 342.765C412.623 342.413 412.866 342.073 413.094 341.747C413.098 341.741 413.102 341.735 413.106 341.729C413.587 341.041 414.015 340.412 414.39 339.843C414.412 339.81 414.433 339.779 414.455 339.745C414.611 339.507 414.76 339.28 414.898 339.065C414.928 339.02 414.957 338.975 414.984 338.93C415.119 338.719 415.246 338.52 415.361 338.334C415.375 338.313 415.389 338.289 415.402 338.27C415.662 337.853 415.87 337.51 416.028 337.242C416.045 337.212 416.059 337.189 416.075 337.162C416.133 337.064 416.184 336.976 416.225 336.904C416.239 336.878 416.251 336.859 416.264 336.837C416.301 336.773 416.329 336.724 416.35 336.685C416.362 336.665 416.368 336.655 416.374 336.642C416.393 336.607 416.405 336.585 416.405 336.585C412.928 326.409 412.092 316.682 413.642 310.369V310.36C412.498 310.297 411.376 310.225 410.266 310.149C409.919 310.125 409.575 310.1 409.229 310.074C408.441 310.018 407.661 309.957 406.891 309.894C406.541 309.865 406.19 309.838 405.842 309.808C404.816 309.721 403.801 309.631 402.807 309.533C402.801 309.533 402.793 309.533 402.787 309.533C369.25 306.263 352.842 297.768 352.842 297.768L352.363 297.625C350.791 303.05 347.645 307.825 343.47 311.425C347.207 313.926 352.371 315.761 358.013 317.108C376.294 321.466 379.759 345.9 363.235 354.854C345.003 364.736 320.853 370.134 294.967 361.21C279.452 355.863 268.333 348.407 260.227 339.812C268.31 354.436 281.785 367.583 305.572 375.782C333.929 385.557 356.666 382.366 373.992 374.607C373.994 374.607 373.996 374.605 373.999 374.603C374.84 374.226 375.665 373.837 376.48 373.44C376.597 373.384 376.714 373.325 376.831 373.266C377.564 372.905 378.287 372.537 379.001 372.16C379.096 372.109 379.192 372.061 379.288 372.01C381.723 370.712 384.035 369.33 386.228 367.894C386.298 367.849 386.367 367.802 386.437 367.757C387.105 367.315 387.764 366.87 388.411 366.42C388.471 366.377 388.532 366.336 388.593 366.293C390.713 364.808 392.71 363.28 394.585 361.732C394.622 361.701 394.659 361.671 394.696 361.64C395.284 361.153 395.863 360.665 396.428 360.174C396.465 360.141 396.504 360.108 396.543 360.075C398.341 358.511 400.016 356.944 401.566 355.4C401.583 355.382 401.601 355.365 401.618 355.347Z" fill="#000072"/>
</g>
<g opacity="0.6">
<path d="M212.168 244.522C222.436 237.721 235.253 236.05 247.141 239.281C277.903 247.642 277.719 283.911 288.548 307.412C294.065 319.382 302.426 328.038 319.189 328.018C332.011 327.999 342.959 319.368 346.528 307.615C341.273 313.716 333.518 317.604 324.921 317.617C308.158 317.637 299.797 308.981 294.28 297.011C283.451 273.507 283.635 237.24 252.873 228.88C240.985 225.647 228.168 227.32 217.9 234.121C214.82 236.171 211.742 238.802 209.01 242.187C207.54 244.004 206.913 246.277 207.124 248.49C208.767 246.973 210.466 245.654 212.168 244.522Z" fill="#F5F5F5"/>
</g>
<path d="M563.422 154.732C546.038 160.167 528.684 164.113 511.747 166.896C442.831 178.203 380.704 170.189 350.177 164.509C337.809 162.205 330.619 160.288 330.273 160.196C330.273 158.605 330.314 157.026 330.385 155.445C330.813 146.086 332.2 137.234 334.442 128.924C335.859 129.282 452.546 158.617 557.344 123.489C560.729 133.288 562.82 143.77 563.42 154.732H563.422Z" fill="#23FF81"/>
<g opacity="0.6">
<path d="M557.378 122.828L557.346 122.736C452.548 157.862 335.861 128.527 334.444 128.171C334.436 128.201 334.429 128.23 334.421 128.261C333.113 133.124 336.307 138.064 341.265 138.95C380.809 146.022 467.063 156.582 550.965 134.582C556.098 133.235 559.107 127.845 557.38 122.828H557.378Z" fill="#F5F5F5"/>
</g>
<g opacity="0.3">
<path d="M511.747 157.151C442.831 168.459 380.704 160.444 350.177 154.765C339.326 152.744 332.466 151.02 330.709 150.567C330.576 152.179 330.459 153.801 330.385 155.447C330.313 157.028 330.273 158.607 330.273 160.198C330.619 160.29 337.809 162.207 350.177 164.511C380.704 170.191 442.831 178.205 511.747 166.897C528.684 164.114 546.038 160.169 563.422 154.734C563.246 151.532 562.93 148.38 562.504 145.265C545.427 150.553 528.385 154.417 511.747 157.151Z" fill="#000072"/>
</g>
<path d="M555.817 242.083C533.854 246.682 519.905 265.923 506.252 283.113C393.378 302.842 353.297 276.322 352.482 275.773V275.763C347.965 243.154 330.018 199.168 330.274 160.198C330.62 160.29 337.81 162.207 350.177 164.511L357.233 199.179C359.414 209.958 367.653 218.481 378.359 221.041C399.66 226.14 437.701 232.114 478.794 223.703C488.429 221.735 496.647 215.444 500.991 206.633C506.028 196.428 511.678 181.704 511.748 166.897C528.684 164.114 546.039 160.168 563.423 154.733C563.474 155.64 563.515 156.569 563.546 157.487C564.443 185.456 561.864 216.604 555.817 242.085V242.083Z" fill="#3A5184"/>
<g opacity="0.3">
<path d="M563.509 156.438C563.429 156.444 563.577 156.435 563.497 156.438C562.018 191.132 547.999 224.288 523.926 249.626C523.294 250.291 522.669 250.963 522.051 251.641C510.227 264.612 494.286 273.135 476.857 275.199C386.321 285.922 353.222 264.022 352.482 263.522V263.512C348.436 234.314 333.636 195.997 330.765 160.324C330.489 160.251 330.319 160.206 330.274 160.195C330.02 199.165 347.965 243.151 352.482 275.76V275.77C353.296 276.321 393.378 302.841 506.252 283.11C519.905 265.92 533.854 246.679 555.817 242.08C561.938 216.281 564.506 184.669 563.511 156.435L563.509 156.438Z" fill="#000072"/>
</g>
<g opacity="0.25">
<path d="M511.746 166.895C511.676 181.699 506.026 196.423 500.99 206.631C496.645 215.441 488.427 221.732 478.792 223.7C437.702 232.112 399.658 226.137 378.358 221.039C367.652 218.48 359.412 209.955 357.231 199.177L350.176 164.509C380.703 170.188 442.83 178.203 511.746 166.895Z" fill="url(#paint2_linear_2247_17698)"/>
</g>
<g opacity="0.3">
<path d="M511.514 171.822C511.574 171.091 511.633 170.358 511.67 169.625C511.715 168.717 511.742 167.808 511.746 166.897C510.101 167.167 508.463 167.417 506.825 167.665C505.717 167.831 504.607 167.995 503.501 168.154C437.907 177.556 379.479 169.963 350.176 164.511L352.421 175.543C378.938 180.329 426.72 186.347 481.684 181.322C490.985 180.472 497.669 190.166 493.547 198.548C493.52 198.603 493.493 198.657 493.467 198.712C489.123 207.522 480.905 213.813 471.27 215.781C430.179 224.193 392.136 218.218 370.835 213.119C367.247 212.262 363.944 210.72 361.046 208.662C364.914 214.775 371.062 219.295 378.36 221.041C399.66 226.139 437.702 232.114 478.794 223.702C488.429 221.734 496.647 215.443 500.992 206.633C505.412 197.676 510.3 185.241 511.481 172.324C511.496 172.158 511.502 171.99 511.516 171.824L511.514 171.822Z" fill="#000072"/>
</g>
<path d="M598.091 373.131C598.029 373.131 597.966 373.131 597.904 373.125C584.209 372.39 573.885 367.795 567.216 359.472C556.573 346.178 559.416 328.405 559.542 327.655C559.858 325.781 561.637 324.524 563.505 324.833C565.377 325.147 566.638 326.918 566.327 328.788C566.298 328.974 563.902 344.369 572.618 355.209C578.01 361.913 586.641 365.63 598.271 366.253C600.167 366.355 601.623 367.975 601.521 369.873C601.423 371.706 599.905 373.129 598.089 373.129L598.091 373.131Z" fill="#000072"/>
<path d="M586.905 335.31C586.733 335.31 586.561 335.296 586.389 335.271L551.275 329.933C550.374 329.796 549.563 329.306 549.022 328.571C548.48 327.836 548.254 326.918 548.391 326.015L550.37 312.993C550.656 311.115 552.411 309.821 554.289 310.108L589.403 315.446C591.281 315.731 592.573 317.486 592.287 319.364L590.31 332.386C590.173 333.287 589.682 334.098 588.947 334.639C588.353 335.077 587.638 335.31 586.909 335.31H586.905ZM555.708 323.65L584.02 327.954L584.966 321.733L556.654 317.429L555.708 323.65Z" fill="#000072"/>
<path d="M586.905 335.31C586.733 335.31 586.561 335.296 586.389 335.271L551.275 329.933C550.374 329.796 549.563 329.306 549.022 328.571C548.48 327.836 548.254 326.918 548.391 326.015L550.37 312.993C550.656 311.115 552.411 309.821 554.289 310.108L589.403 315.446C591.281 315.731 592.573 317.486 592.287 319.364L590.31 332.386C590.173 333.287 589.682 334.098 588.947 334.639C588.353 335.077 587.638 335.31 586.909 335.31H586.905ZM555.708 323.65L584.02 327.954L584.966 321.733L556.654 317.429L555.708 323.65Z" fill="#000072"/>
<path d="M552.496 390.665C534.772 390.665 517.892 384.24 504.964 372.576C503.553 371.304 503.442 369.128 504.714 367.717C505.988 366.306 508.163 366.197 509.572 367.467C521.234 377.991 536.478 383.786 552.496 383.786C587.051 383.786 615.162 356.818 615.162 323.668C615.162 306.601 608.025 290.419 595.582 279.273C594.167 278.007 594.048 275.831 595.314 274.416C596.582 273.003 598.756 272.882 600.171 274.149C614.07 286.598 622.042 304.646 622.042 323.668C622.042 360.611 590.844 390.665 552.496 390.665Z" fill="#000072"/>
<path d="M590.224 311.305C588.982 311.305 587.78 310.629 587.168 309.448C585.073 305.422 579.247 297.05 574.613 296.856C572.102 296.745 569.329 297.804 566.655 298.82C562.084 300.562 555.824 302.946 551.417 297.134C550.268 295.621 550.565 293.463 552.077 292.316C553.59 291.167 555.748 291.464 556.895 292.977C557.985 294.411 559.146 294.319 564.204 292.392C567.372 291.187 570.957 289.828 574.896 289.983C584.762 290.395 592.429 304.656 593.271 306.282C594.145 307.969 593.486 310.044 591.8 310.918C591.294 311.18 590.754 311.305 590.221 311.305H590.224Z" fill="#000072"/>
<path d="M252.091 322.714C251.597 322.714 251.096 322.607 250.621 322.382C248.911 321.569 248.176 319.536 248.98 317.822C249.417 316.888 260.106 294.941 294.219 294.315C294.241 294.315 294.262 294.315 294.284 294.315C296.154 294.315 297.686 295.814 297.721 297.693C297.757 299.592 296.246 301.16 294.346 301.195C264.704 301.74 255.576 319.986 255.202 320.762C254.608 321.993 253.375 322.716 252.093 322.716L252.091 322.714Z" fill="#000072"/>
<path d="M541.728 332.035C541.683 332.035 541.638 332.035 541.595 332.031C519.613 331.191 507.521 321.415 501.246 313.365C494.41 304.594 492.862 296.003 492.799 295.641C492.475 293.769 493.729 291.99 495.602 291.666C497.472 291.336 499.248 292.592 499.577 294.461C499.8 295.698 505.297 323.76 541.859 325.16C543.757 325.232 545.236 326.829 545.164 328.728C545.094 330.581 543.569 332.037 541.73 332.037L541.728 332.035Z" fill="#000072"/>
<path d="M429.748 293.862C373.646 293.862 351.743 279.42 350.524 278.583C348.958 277.508 348.56 275.366 349.637 273.801C350.71 272.239 352.844 271.841 354.407 272.904C354.524 272.984 364.468 279.539 387.921 283.639C409.649 287.438 447.714 289.84 505.663 279.713C507.527 279.392 509.315 280.637 509.644 282.509C509.97 284.382 508.719 286.162 506.847 286.49C476.005 291.881 450.526 293.862 429.748 293.862Z" fill="#000072"/>
<path d="M429.432 314.26C378.015 314.26 352.628 301.512 351.268 300.806C349.581 299.932 348.92 297.857 349.794 296.17C350.668 294.486 352.737 293.825 354.426 294.695C354.873 294.925 397.252 315.991 482.847 303.184C484.721 302.905 486.476 304.197 486.757 306.077C487.039 307.955 485.743 309.706 483.865 309.988C463.262 313.072 445.131 314.26 429.434 314.26H429.432Z" fill="#000072"/>
<path d="M471.59 382.637C452.162 382.637 438.822 374.116 430.424 365.783C413.831 349.323 406.682 323.187 410.415 309.106C410.902 307.269 412.788 306.179 414.621 306.661C416.458 307.148 417.55 309.032 417.066 310.867C414.324 321.213 419.227 344.984 435.271 360.899C445.099 370.647 462.673 380.667 490.581 373.029C526.736 363.138 537.683 331.574 546.481 306.212C551.979 290.362 556.726 276.674 566.742 272.255C583.159 265.012 594.218 269.867 599.565 273.66C599.995 265.477 598.283 251.672 582.953 247.143C547.333 236.625 529.15 259.655 511.567 281.929C508.477 285.842 505.283 289.887 502.088 293.614C480.15 319.191 463.163 318.8 462.46 318.774C460.562 318.696 459.086 317.094 459.165 315.196C459.243 313.31 460.839 311.852 462.706 311.899H462.71C463.106 311.899 477.541 311.67 496.87 289.137C499.975 285.515 502.985 281.702 506.173 277.667C524.289 254.718 544.824 228.71 584.906 240.545C599.47 244.847 607.506 257.582 606.404 274.608C606.247 277.014 604.789 279.14 602.597 280.16C600.404 281.178 597.834 280.922 595.891 279.488C591.029 275.896 582.51 272.818 569.523 278.548C562.249 281.757 557.955 294.134 552.983 308.465C544.15 333.934 532.05 368.814 492.398 379.662C484.804 381.74 477.879 382.633 471.596 382.633L471.59 382.637Z" fill="#000072"/>
<path d="M427.557 309.394C427.557 309.394 427.25 329.276 401.59 336.075C375.929 342.872 372.87 351.54 372.87 351.54C372.87 351.54 367.431 340.324 358.426 335.735C358.426 335.735 364.992 327.421 379.668 326.387C403.8 324.689 416.152 305.651 416.152 305.651" fill="#23FF81"/>
<g opacity="0.3">
<path d="M374.35 331.27C374.194 329.885 374.254 328.479 374.5 327.094C363.439 329.384 358.424 335.734 358.424 335.734C367.431 340.323 372.868 351.539 372.868 351.539C372.868 351.539 374.082 348.115 381.348 343.884C377.549 341.042 374.964 336.709 374.35 331.272V331.27Z" fill="#000072"/>
<path d="M418.198 327.57C427.384 319.343 427.558 309.393 427.558 309.393L416.152 305.65C416.152 305.65 412.095 311.889 404.105 317.543C404.158 317.593 404.205 317.65 404.258 317.701C410.484 318.58 415.578 322.122 418.198 327.57Z" fill="#000072"/>
</g>
<path d="M372.868 354.662C371.713 354.662 370.671 353.908 370.159 352.851C370.11 352.751 365.027 342.477 357.057 338.416C356.252 338.005 355.675 337.257 355.482 336.375C355.289 335.494 355.502 334.572 356.061 333.864C356.361 333.483 363.634 324.493 379.454 323.379C401.722 321.812 413.511 304.181 413.628 304.003C414.537 302.614 416.403 302.221 417.793 303.128C419.184 304.035 419.581 305.895 418.676 307.289C418.139 308.117 405.215 327.604 379.876 329.389C371.582 329.973 366.206 333.024 363.331 335.242C367.806 338.521 371.174 342.958 373.233 346.155C376.929 342.561 384.702 337.429 400.815 333.16C423.812 327.069 424.524 310.05 424.543 309.329C424.586 307.693 425.925 306.388 427.553 306.388C427.574 306.388 427.594 306.388 427.615 306.388C429.273 306.423 430.59 307.781 430.565 309.437C430.561 309.659 429.904 331.685 402.357 338.981C380.293 344.826 376.052 351.916 375.69 352.597C375.35 353.779 374.351 354.527 373.12 354.647C373.036 354.655 372.95 354.658 372.866 354.658L372.868 354.662Z" fill="#000072"/>
<path d="M428.102 312.405C428.102 312.405 421.645 353.918 453.253 364.284L466.677 350.349C466.677 350.349 441.186 340.833 441.186 313.132" fill="#23FF81"/>
<g opacity="0.3">
<path d="M440.722 323.778C441.357 323.778 441.982 323.805 442.6 323.858C441.716 320.629 441.187 317.07 441.187 313.132L428.102 312.405C428.102 312.405 426.844 320.514 428.163 330.456C431.239 326.529 435.822 323.778 440.722 323.778Z" fill="#000072"/>
</g>
<g opacity="0.3">
<path d="M458.955 346.109C456.905 352.998 450.388 358.946 443.18 358.946C443.09 358.946 443.002 358.936 442.914 358.936C445.803 361.125 449.215 362.958 453.253 364.283L466.677 350.348C466.677 350.348 463.273 349.07 458.955 346.111V346.109Z" fill="#000072"/>
</g>
<path d="M453.25 367.295C452.937 367.295 452.621 367.247 452.312 367.145C438.295 362.548 429.151 351.449 425.87 335.047C423.456 322.986 425.055 312.386 425.125 311.94C425.381 310.297 426.911 309.167 428.565 309.427C430.208 309.683 431.332 311.221 431.078 312.863C431.062 312.962 429.567 322.988 431.809 334.02C434.561 347.568 441.495 356.564 452.433 360.793L461.636 351.242C454.022 347.048 438.178 335.619 438.178 313.13C438.178 311.467 439.527 310.119 441.19 310.119C442.853 310.119 444.201 311.467 444.201 313.13C444.201 338.334 466.78 347.164 467.74 347.527C468.688 347.885 469.393 348.696 469.616 349.685C469.839 350.672 469.551 351.707 468.85 352.436L455.423 366.371C454.847 366.969 454.059 367.293 453.254 367.293L453.25 367.295Z" fill="#000072"/>
<path d="M339.606 385.246C329.034 385.246 317.31 383.442 304.453 379.008C254.282 361.712 248.126 322.769 243.631 294.337C239.685 269.368 236.924 257.495 217.538 260.435C213.151 261.097 208.759 259.286 206.072 255.701C202.726 251.24 202.832 245.097 206.33 240.76C209.043 237.397 212.295 234.448 215.996 231.995C226.851 224.801 240.619 222.726 253.776 226.3C277.981 232.876 284.528 255.502 290.305 275.464C296.432 296.633 301.726 314.92 324.85 314.92H324.911C338.548 314.903 349.825 303.765 350.046 290.094C350.286 275.124 345.213 255.684 339.838 235.102C333.236 209.813 325.753 181.151 326.947 155.269C328.464 122.422 341.333 94.4201 364.164 74.2941C385.896 55.1375 415.693 44.5879 448.067 44.5879C513.795 44.5879 564.916 93.0677 566.975 157.358C567.919 186.804 565.07 217.971 559.158 242.869C558.72 244.718 556.869 245.859 555.017 245.421C553.17 244.982 552.027 243.129 552.464 241.28C558.241 216.95 561.024 186.441 560.098 157.579C558.159 97.0858 509.994 51.4672 448.063 51.4672C386.131 51.4672 336.645 94.2833 333.815 155.588C332.668 180.425 340.01 208.553 346.489 233.365C351.984 254.413 357.175 274.295 356.917 290.206C356.636 307.603 342.279 321.778 324.915 321.802H324.842C296.543 321.804 290.012 299.219 283.691 277.377C277.907 257.386 272.442 238.503 251.968 232.939C240.723 229.884 228.997 231.63 219.792 237.729C216.68 239.793 213.95 242.265 211.679 245.081C210.161 246.965 210.116 249.635 211.57 251.576C212.735 253.129 214.622 253.919 216.503 253.634C228.754 251.777 237.248 255.062 242.46 263.677C246.905 271.022 248.533 281.329 250.42 293.264C254.878 321.462 260.425 356.556 306.688 372.505C336.635 382.83 363.64 379.709 386.948 363.228C404.496 350.82 413.306 335.068 413.392 334.91C414.309 333.248 416.398 332.639 418.063 333.555C419.726 334.47 420.336 336.557 419.421 338.222C419.04 338.914 409.9 355.34 391.154 368.677C379.34 377.085 362.077 385.244 339.598 385.244L339.606 385.246Z" fill="#000072"/>
<path d="M441.046 144.137C428.321 144.137 416.538 143.623 406.104 142.874C363.743 139.83 333.886 132.319 333.589 132.243C331.748 131.774 330.636 129.901 331.105 128.062C331.574 126.221 333.453 125.107 335.286 125.576C335.577 125.651 364.957 133.032 406.747 136.022C445.214 138.772 502.374 138.266 556.251 120.21C558.051 119.608 560.002 120.577 560.605 122.377C561.209 124.179 560.238 126.128 558.438 126.731C518.098 140.252 476.038 144.135 441.048 144.135L441.046 144.137Z" fill="#000072"/>
<path d="M439.033 176.007C425.626 176.007 413.323 175.458 402.514 174.659C359.092 171.444 329.659 163.583 329.366 163.503C327.533 163.007 326.448 161.119 326.945 159.286C327.441 157.452 329.333 156.37 331.162 156.862C331.449 156.94 360.382 164.656 403.194 167.81C442.629 170.713 502.262 170.234 562.394 151.439C564.205 150.872 566.134 151.882 566.703 153.696C567.27 155.508 566.259 157.439 564.446 158.005C519.732 171.981 475.337 176.007 439.033 176.007Z" fill="#000072"/>
<path d="M436.175 231.293C411.402 231.293 390.353 227.435 377.556 224.373C365.607 221.514 356.304 211.888 353.857 199.849L346.812 165.183C346.433 163.321 347.637 161.505 349.497 161.128C351.364 160.751 353.175 161.953 353.553 163.813L360.598 198.479C362.513 207.905 369.799 215.443 379.157 217.683C398.407 222.287 436.863 228.754 478.11 220.316C486.67 218.564 494.071 212.875 497.909 205.095C502.617 195.554 508.244 181.176 508.312 166.864C508.322 164.97 509.86 163.442 511.752 163.442H511.769C513.669 163.452 515.201 164.997 515.192 166.899C515.115 182.522 509.106 197.95 504.077 208.14C499.307 217.812 490.113 224.883 479.487 227.058C464.431 230.138 449.742 231.297 436.173 231.297L436.175 231.293Z" fill="#000072"/>
<path d="M447.408 200.878C447.408 210.227 453.607 217.814 461.255 217.814C468.902 217.814 475.111 210.227 475.111 200.878C475.111 192.587 470.259 185.706 463.825 184.236L447.817 196.818C447.551 198.114 447.408 199.48 447.408 200.876V200.878Z" fill="#000072"/>
<path d="M454.473 202.924C456.766 202.924 458.624 200.739 458.624 198.044C458.624 195.349 456.766 193.164 454.473 193.164C452.181 193.164 450.322 195.349 450.322 198.044C450.322 200.739 452.181 202.924 454.473 202.924Z" fill="#F5F5F5"/>
<path d="M445.371 197.335C444.046 197.335 442.783 196.565 442.218 195.271C441.458 193.53 442.251 191.503 443.993 190.743L469.654 179.527C471.391 178.765 473.422 179.56 474.182 181.301C474.942 183.043 474.149 185.069 472.407 185.83L446.747 197.046C446.299 197.241 445.832 197.335 445.371 197.335Z" fill="#000072"/>
<path d="M402.213 200.878C402.213 210.227 396.014 217.814 388.366 217.814C380.719 217.814 374.51 210.227 374.51 200.878C374.51 192.587 379.362 185.706 385.796 184.236L401.804 196.818C402.07 198.114 402.213 199.48 402.213 200.876V200.878Z" fill="#000072"/>
<path d="M394.299 202.924C396.592 202.924 398.451 200.739 398.451 198.044C398.451 195.349 396.592 193.164 394.299 193.164C392.007 193.164 390.148 195.349 390.148 198.044C390.148 200.739 392.007 202.924 394.299 202.924Z" fill="#F5F5F5"/>
<path d="M404.252 197.335C403.791 197.335 403.324 197.243 402.876 197.046L377.215 185.83C375.474 185.069 374.681 183.041 375.441 181.301C376.201 179.56 378.232 178.765 379.969 179.527L405.63 190.743C407.371 191.503 408.165 193.532 407.404 195.271C406.84 196.563 405.577 197.335 404.252 197.335Z" fill="#000072"/>
<path d="M447.387 302.655C447.387 310.928 441.661 317.635 434.6 317.635C427.539 317.635 421.812 310.928 421.812 302.655C421.812 294.382 427.539 287.673 434.6 287.673C441.661 287.673 447.387 294.38 447.387 302.655Z" fill="#23FF81"/>
<g opacity="0.3">
<path d="M440.592 299.932C440.592 308.205 434.866 314.912 427.805 314.912C420.744 314.912 415.018 308.205 415.018 299.932C415.018 291.659 420.744 284.95 427.805 284.95C434.866 284.95 440.592 291.658 440.592 299.932Z" fill="#000072"/>
</g>
<path d="M434.6 321.075C425.653 321.075 418.373 312.812 418.373 302.655C418.373 292.498 425.653 284.233 434.6 284.233C443.547 284.233 450.827 292.496 450.827 302.655C450.827 312.814 443.547 321.075 434.6 321.075ZM434.6 291.113C429.446 291.113 425.252 296.29 425.252 302.655C425.252 309.021 429.446 314.196 434.6 314.196C439.754 314.196 443.948 309.019 443.948 302.655C443.948 296.292 439.754 291.113 434.6 291.113Z" fill="#000072"/>
<path d="M434.693 309.386C432.531 311.281 429.84 312.403 426.912 312.403C419.857 312.403 414.137 305.846 414.137 297.751C414.137 289.656 419.857 283.1 426.912 283.1C430.389 283.1 433.54 284.681 435.844 287.26C429.084 293.624 428.88 301.025 434.693 309.386Z" fill="#23FF81"/>
<g opacity="0.6">
<path d="M418.1 302.325C418.1 294.23 423.821 287.673 430.876 287.673C432.23 287.673 433.532 287.919 434.755 288.363C435.099 287.991 435.459 287.624 435.844 287.26C433.54 284.681 430.389 283.1 426.912 283.1C419.857 283.1 414.137 289.656 414.137 297.751C414.137 302.952 416.505 307.508 420.064 310.107C418.827 307.85 418.1 305.188 418.1 302.323V302.325Z" fill="#F5F5F5"/>
</g>
<g opacity="0.3">
<path d="M432.339 311.016C432.609 310.871 432.875 310.719 433.135 310.553C433.195 310.514 433.254 310.471 433.312 310.432C433.518 310.297 433.721 310.162 433.918 310.013C434.184 309.816 434.442 309.607 434.692 309.388C434.364 308.917 434.061 308.448 433.772 307.983C433.6 307.705 433.443 307.432 433.287 307.156C433.191 306.99 433.094 306.826 433.004 306.662C432.808 306.302 432.623 305.945 432.451 305.587C432.421 305.526 432.392 305.468 432.363 305.407C432.171 305.006 431.993 304.606 431.831 304.209C431.778 304.078 431.725 303.949 431.677 303.818C431.534 303.447 431.407 303.077 431.29 302.71C431.282 302.683 431.274 302.655 431.264 302.63C430.922 301.522 430.701 300.435 430.606 299.368C430.606 299.358 430.604 299.347 430.602 299.337C430.574 299.022 430.563 298.711 430.557 298.401C430.557 298.305 430.555 298.209 430.555 298.115C430.555 297.824 430.563 297.533 430.584 297.244C430.59 297.15 430.604 297.058 430.612 296.964C430.66 296.437 430.744 295.917 430.858 295.399C430.883 295.283 430.903 295.168 430.93 295.055C430.985 294.832 431.055 294.613 431.124 294.392C431.18 294.211 431.237 294.029 431.301 293.847C431.374 293.646 431.45 293.446 431.532 293.247C431.62 293.032 431.718 292.821 431.819 292.608C431.899 292.44 431.974 292.272 432.06 292.104C432.249 291.74 432.456 291.379 432.681 291.021C432.755 290.904 432.839 290.788 432.918 290.671C433.097 290.403 433.283 290.136 433.484 289.87C433.586 289.735 433.692 289.602 433.799 289.469C434.006 289.211 434.223 288.953 434.45 288.697C434.553 288.58 434.655 288.463 434.763 288.347C435.103 287.982 435.456 287.618 435.837 287.259C435.55 286.936 435.243 286.637 434.931 286.35C434.831 286.258 434.727 286.17 434.624 286.082C434.391 285.881 434.153 285.692 433.909 285.51C433.803 285.432 433.699 285.349 433.592 285.275C433.271 285.05 432.945 284.839 432.607 284.646C432.605 284.646 432.601 284.648 432.599 284.65C432.153 284.398 431.698 284.169 431.227 283.976C430.482 284.873 429.873 285.791 429.369 286.727C426.333 289.401 424.373 293.597 424.373 298.328C424.373 300.629 424.838 302.802 425.663 304.735C426.148 305.87 425.37 307.174 424.135 307.178C424.125 307.178 424.117 307.178 424.107 307.178C420.466 307.178 417.189 305.423 414.861 302.62C416.612 308.319 421.334 312.41 426.902 312.41C428.513 312.41 430.047 312.06 431.464 311.438C431.753 311.311 432.038 311.174 432.316 311.026C432.32 311.026 432.322 311.022 432.325 311.02L432.339 311.016Z" fill="#000072"/>
</g>
<path d="M426.915 315.845C417.973 315.845 410.699 307.729 410.699 297.754C410.699 287.779 417.973 279.662 426.915 279.662C431.271 279.662 435.353 281.548 438.412 284.97C439.653 286.36 439.561 288.488 438.205 289.766C432.787 294.865 432.576 300.312 437.519 307.424C438.518 308.86 438.279 310.818 436.964 311.972C434.075 314.504 430.6 315.845 426.916 315.845H426.915ZM426.915 286.541C421.767 286.541 417.579 291.57 417.579 297.754C417.579 303.937 421.767 308.966 426.915 308.966C427.976 308.966 429.012 308.755 429.993 308.342C425.029 299.344 427.149 292.44 430.89 287.607C429.658 286.911 428.306 286.543 426.915 286.543V286.541Z" fill="#000072"/>
<path d="M558.835 317.721C558.663 317.721 558.489 317.71 558.313 317.682C556.435 317.397 555.143 315.642 555.428 313.764L558.059 296.456C558.344 294.578 560.105 293.288 561.977 293.571C563.855 293.857 565.147 295.612 564.862 297.49L562.231 314.798C561.973 316.5 560.506 317.721 558.835 317.721Z" fill="#000072"/>
<path d="M583.415 321.458C583.243 321.458 583.069 321.446 582.893 321.419C581.015 321.133 579.723 319.378 580.008 317.5L582.551 300.771C582.836 298.893 584.597 297.605 586.469 297.886C588.347 298.172 589.639 299.927 589.354 301.805L586.811 318.534C586.553 320.236 585.086 321.458 583.415 321.458Z" fill="#000072"/>
<path d="M623.993 232.472L559.531 222.677L557.496 236.073L621.957 245.867L623.993 232.472Z" fill="#E1641C"/>
<path d="M621.946 249.328C621.774 249.328 621.602 249.314 621.43 249.289L556.969 239.491C555.091 239.206 553.799 237.451 554.084 235.573L556.121 222.176C556.258 221.275 556.748 220.464 557.483 219.922C558.218 219.381 559.14 219.156 560.039 219.291L624.5 229.088C626.378 229.374 627.67 231.129 627.385 233.007L625.348 246.404C625.211 247.305 624.721 248.116 623.986 248.657C623.392 249.095 622.676 249.328 621.947 249.328H621.946ZM561.402 233.208L619.061 241.971L620.064 235.376L562.404 226.612L561.402 233.208Z" fill="#000072"/>
<g opacity="0.3">
<path d="M579.227 233.826C573.768 232.998 569.578 229.015 568.202 224.015L559.519 222.696L557.482 236.093L621.943 245.891L622.77 240.446L579.225 233.828L579.227 233.826Z" fill="#000072"/>
</g>
<g opacity="0.22">
<path d="M453.855 403.999C574.526 403.999 672.35 396.9 672.35 388.142C672.35 379.384 574.526 372.284 453.855 372.284C333.183 372.284 235.359 379.384 235.359 388.142C235.359 396.9 333.183 403.999 453.855 403.999Z" fill="#000072"/>
</g>
<g opacity="0.22">
<path d="M168.158 398.651C236.472 398.651 291.851 394.632 291.851 389.675C291.851 384.717 236.472 380.698 168.158 380.698C99.8442 380.698 44.4648 384.717 44.4648 389.675C44.4648 394.632 99.8442 398.651 168.158 398.651Z" fill="#000072"/>
</g>
<defs>
<linearGradient id="paint0_linear_2247_17698" x1="82.9407" y1="262.209" x2="132.284" y2="127.433" gradientUnits="userSpaceOnUse">
<stop stop-color="#F1F2F2"/>
<stop offset="1" stop-color="#E0E0E0"/>
</linearGradient>
<linearGradient id="paint1_linear_2247_17698" x1="124.534" y1="305.428" x2="182.966" y2="137.992" gradientUnits="userSpaceOnUse">
<stop stop-color="#F1F2F2"/>
<stop offset="1" stop-color="#E0E0E0"/>
</linearGradient>
<linearGradient id="paint2_linear_2247_17698" x1="350.176" y1="196.207" x2="511.746" y2="196.207" gradientUnits="userSpaceOnUse">
<stop stop-color="#F1F2F2"/>
<stop offset="1" stop-color="#E0E0E0"/>
</linearGradient>
</defs>
</svg>
