<svg width="115" height="64" viewBox="0 0 115 64" fill="none" xmlns="http://www.w3.org/2000/svg">
<g id="Group 55">
<path id="Vector" d="M2.73543 57.3579C2.22941 57.1789 1.75823 56.9059 1.35122 56.5425C0.491351 55.7724 0 54.6786 0 53.5324V48.4307C0 48.0998 0.0403348 47.7762 0.117338 47.4671C0.0403348 47.1543 0 46.8325 0 46.5071V10.4674C0 9.32126 0.491351 8.2275 1.35122 7.45736C1.78206 7.07047 2.28625 6.78302 2.82894 6.60766L18.1397 0.424785C18.8584 0.072253 19.6724 -0.0687599 20.4846 0.0306723L29.7597 1.17143C30.8653 1.30702 31.8608 1.8783 32.5282 2.73884C32.5502 2.7298 32.574 2.72077 32.596 2.71173C32.6345 2.69546 32.673 2.67919 32.7134 2.66291C32.7555 2.64484 32.7995 2.62676 32.8417 2.60868C32.8784 2.59241 32.9169 2.57614 32.9535 2.56167C32.9939 2.5436 33.036 2.52552 33.0782 2.50925C33.1204 2.49117 33.1625 2.47309 33.2047 2.45682C33.2414 2.44055 33.278 2.42428 33.3147 2.40981C33.3569 2.38993 33.4009 2.37185 33.4449 2.35558C33.4834 2.33931 33.5219 2.32304 33.5604 2.30677C33.6007 2.28869 33.6429 2.27061 33.6851 2.25434C34.3671 1.95243 35.1279 1.83311 35.887 1.92712L40.9875 2.55444C41.653 2.6358 42.2635 2.87082 42.7879 3.21973C43.3929 3.0046 44.0456 2.93048 44.6983 3.01002L49.7988 3.63735C50.0518 3.66808 50.2993 3.72232 50.5358 3.79644C50.7833 3.78198 51.0345 3.78921 51.2857 3.81994L56.3862 4.44727C57.0517 4.52862 57.6623 4.76365 58.1866 5.11256C58.7916 4.89743 59.4443 4.82331 60.097 4.90285L65.1975 5.53018C65.4505 5.56091 65.6981 5.61515 65.9346 5.68927C66.1821 5.67481 66.4332 5.68204 66.6844 5.71277L71.7849 6.3401C72.4505 6.42145 73.061 6.65647 73.5853 7.00539C74.1904 6.79026 74.843 6.71613 75.4957 6.79568L80.5963 7.42301C81.6798 7.55679 82.6203 8.09734 83.2712 8.87652C83.2877 8.8711 83.3042 8.86749 83.3207 8.86206C83.3555 8.85122 83.3922 8.83856 83.4289 8.82771C83.4747 8.81325 83.5205 8.79698 83.5664 8.78432C83.603 8.77167 83.6397 8.76082 83.6764 8.74998C83.7185 8.73551 83.7589 8.72286 83.801 8.7102C83.8414 8.69755 83.8799 8.68489 83.9202 8.67224C83.9605 8.65958 84.0009 8.64512 84.0412 8.63427C84.0816 8.62162 84.1219 8.60715 84.1622 8.59631C84.2026 8.58365 84.2429 8.56919 84.2832 8.55653C84.3272 8.54207 84.3694 8.52761 84.4134 8.51495C84.4482 8.50411 84.4831 8.49145 84.5179 8.4806C84.5601 8.46614 84.6041 8.45168 84.6462 8.43902C84.6866 8.42456 84.7287 8.41191 84.7691 8.39925C84.8094 8.38659 84.8497 8.37213 84.8901 8.35948C85.4713 8.16604 86.0946 8.09915 86.7198 8.17508L95.9931 9.31583C97.0584 9.446 97.9842 9.97028 98.6332 10.7278C98.6406 10.726 98.6497 10.7242 98.6571 10.7205C98.6974 10.7079 98.7359 10.697 98.7763 10.6862C98.8166 10.6735 98.8587 10.6627 98.9009 10.65C98.9413 10.6374 98.9816 10.6265 99.0219 10.6157C99.0604 10.603 99.1008 10.5922 99.1411 10.5813C99.1814 10.5687 99.2218 10.5578 99.2621 10.547C99.3006 10.5343 99.3409 10.5235 99.3813 10.5126C99.4234 10.5 99.4674 10.4873 99.5114 10.4747C99.5499 10.4638 99.5866 10.453 99.6251 10.4421C99.6655 10.4295 99.7058 10.4186 99.7461 10.4078C99.7865 10.3951 99.8286 10.3843 99.8689 10.3716C99.9093 10.359 99.9496 10.3481 99.99 10.3373C100.03 10.3246 100.071 10.3138 100.113 10.3011C100.151 10.2885 100.188 10.2794 100.226 10.2686C100.27 10.2541 100.316 10.2415 100.36 10.2288C100.921 10.0534 101.519 9.99559 102.117 10.0697L111.392 11.2105C113.456 11.4636 115.007 13.1955 115.007 15.2474V30.8077C115.007 31.8924 114.567 32.9337 113.786 33.6966C113.456 34.0202 113.075 34.2824 112.662 34.4776C114.175 36.3867 114.191 39.0623 114.191 41.3963C114.191 47.6912 109.049 53.01 101.442 54.026C101.427 54.0278 101.413 54.0296 101.398 54.0314L76.6984 57.0668C74.5625 57.3488 72.4816 57.1355 70.5749 56.4648C70.5327 56.4503 70.4906 56.4377 70.4502 56.4232C70.4099 56.4087 70.3677 56.3961 70.3274 56.3816C70.2852 56.3672 70.2412 56.3527 70.1991 56.3382C70.155 56.3238 70.111 56.3093 70.067 56.2948C70.0267 56.2822 69.9882 56.2695 69.9479 56.2551C69.9057 56.2406 69.8635 56.228 69.8232 56.2135C69.7792 56.199 69.7334 56.1846 69.6894 56.1683C69.649 56.1556 69.6105 56.143 69.5702 56.1285C69.528 56.1141 69.484 56.1014 69.44 56.0851C69.396 56.0707 69.352 56.0562 69.3099 56.0417C69.2713 56.0291 69.231 56.0164 69.1907 56.002C69.1467 55.9875 69.1027 55.9749 69.0605 55.9586C69.0183 55.9441 68.9762 55.9315 68.9358 55.917C68.8937 55.9025 68.8497 55.8899 68.8075 55.8754C68.7672 55.861 68.725 55.8501 68.6847 55.8357C68.6425 55.8212 68.6003 55.8085 68.5582 55.7941C68.5142 55.7796 68.472 55.767 68.428 55.7507C68.3876 55.7362 68.3473 55.7254 68.307 55.7109C68.2648 55.6964 68.2208 55.6838 68.1786 55.6693C68.1365 55.6549 68.0943 55.6422 68.0521 55.6278C68.0118 55.6133 67.9696 55.6024 67.9311 55.588C67.889 55.5735 67.845 55.5609 67.8028 55.5464C67.7606 55.5319 67.7166 55.5193 67.6745 55.5048C67.6323 55.4903 67.5883 55.4777 67.548 55.4632C67.5076 55.4488 67.4654 55.4379 67.4251 55.4235C67.3884 55.4126 67.3536 55.4 67.3169 55.3891C67.2748 55.3765 67.2326 55.362 67.1904 55.3493C66.8916 55.2626 66.5964 55.1613 66.3067 55.0528C66.2682 55.042 66.2297 55.0275 66.1931 55.0167C66.1491 55.004 66.1051 54.9896 66.0611 54.9751C66.0189 54.9625 65.9767 54.948 65.9346 54.9353C65.8942 54.9245 65.8557 54.91 65.8172 54.8992C65.7732 54.8865 65.731 54.8721 65.687 54.8594C65.6467 54.8486 65.6082 54.8341 65.5679 54.8214C65.522 54.8088 65.478 54.7943 65.434 54.7799C65.3937 54.7672 65.3534 54.7546 65.313 54.7419C65.269 54.7292 65.2269 54.7148 65.1847 54.7021C65.1444 54.6895 65.104 54.6768 65.0637 54.6642C65.0234 54.6515 64.983 54.6389 64.9427 54.6262C64.8969 54.6135 64.851 54.5973 64.8052 54.5846C64.763 54.572 64.7227 54.5593 64.6805 54.5466C64.6402 54.5358 64.6017 54.5213 64.5613 54.5105C64.5173 54.4978 64.4733 54.4834 64.4312 54.4707C64.389 54.4581 64.3487 54.4454 64.3065 54.4328C64.2973 54.4291 64.2863 54.4273 64.2772 54.4255V55.0004C64.2772 57.0523 62.7279 58.7825 60.6617 59.0374L46.8599 60.7331C46.4749 60.7801 46.0898 60.7729 45.7158 60.7169C45.3693 60.8615 44.999 60.9627 44.6085 61.0116L39.5079 61.6389C38.7746 61.7293 38.0394 61.619 37.3739 61.3388C37.3317 61.3225 37.2914 61.3044 37.251 61.2863C37.2107 61.2701 37.1722 61.2538 37.1318 61.2357C37.0897 61.2195 37.0493 61.2014 37.0072 61.1833C36.9668 61.1688 36.9283 61.1508 36.8898 61.1345C36.8642 61.1254 36.8385 61.1146 36.8128 61.1037C36.184 61.7238 35.3498 62.1487 34.4074 62.2644L29.3069 62.8917C28.656 62.9713 28.0015 62.8971 27.3965 62.682C26.8721 63.0309 26.2616 63.2659 25.5961 63.3473L20.4956 63.9746C20.3251 63.9963 20.1546 64.0054 19.9859 64.0054C19.346 64.0054 18.719 63.8571 18.1507 63.5787L2.74643 57.3633L2.73543 57.3579Z" fill="#414141"/>
<path id="Vector_2" d="M19.9748 62.5537C19.3313 62.5537 18.7043 62.3223 18.2148 61.8974C17.6428 61.4002 17.3164 60.6843 17.3164 59.9323V53.3137C17.3164 52.8635 17.4319 52.4369 17.6373 52.0645C17.4282 51.6848 17.3164 51.2564 17.3164 50.817V4.06763C17.3164 3.31557 17.6446 2.59965 18.2148 2.10249C18.785 1.60533 19.5477 1.37212 20.303 1.46613L29.5782 2.60688C30.4142 2.70993 31.1512 3.19625 31.5656 3.9212C31.9469 4.5883 32.3319 5.2554 32.7151 5.92069C32.7261 5.18308 33.0525 4.48525 33.6135 3.99532C34.1855 3.49816 34.9445 3.26495 35.7017 3.35895L40.8023 3.98628C41.5209 4.07487 42.1425 4.44005 42.5623 4.96614C43.1142 4.54672 43.8145 4.35689 44.5112 4.44186L49.6117 5.06919C49.8703 5.10173 50.1141 5.16862 50.3433 5.26624C50.5908 5.22647 50.8456 5.22105 51.0986 5.25178L56.1991 5.87911C56.9178 5.96769 57.5394 6.33288 57.9592 6.85897C58.5111 6.43954 59.2114 6.24972 59.9081 6.33469L65.0086 6.96202C65.2671 6.99456 65.511 7.06145 65.7402 7.15907C65.9877 7.1193 66.2425 7.11388 66.4955 7.14461L71.596 7.77194C72.3147 7.86052 72.9362 8.22571 73.3561 8.7518C73.9098 8.33237 74.6083 8.14255 75.3068 8.22752L80.4073 8.85484C81.7384 9.01755 82.7376 10.133 82.7376 11.4564V12.0764C83.24 11.5232 83.7423 10.9773 84.241 10.4385C84.8222 9.8112 85.6765 9.50206 86.5309 9.60691L95.8042 10.7477C97.1353 10.9104 98.1345 12.0258 98.1345 13.3492V13.7939C98.6717 13.2642 99.2089 12.7399 99.7424 12.2265C100.322 11.6697 101.127 11.4021 101.93 11.4997L111.205 12.6405C112.536 12.8032 113.535 13.9187 113.535 15.242V30.8022C113.535 31.5019 113.251 32.1726 112.749 32.6643C112.244 33.1561 111.562 33.4345 110.853 33.4236L109.491 33.411C109.522 33.4345 109.553 33.458 109.584 33.4833C112.094 35.4159 112.719 38.558 112.719 41.3909C112.719 46.9771 108.134 51.6667 101.238 52.5869C101.229 52.5869 101.22 52.5887 101.211 52.5906L76.504 55.6278C73.1581 56.0707 69.9698 55.1523 67.5222 53.0425C64.9738 50.846 63.5107 47.5231 63.5107 43.9255C63.5107 40.3279 64.9005 36.9688 67.425 34.4849C67.9659 33.9533 68.5434 33.4761 69.1539 33.0566L66.1453 33.0295C65.8868 33.0277 65.6375 32.9879 65.4028 32.9192C65.1626 32.9861 64.9115 33.0187 64.6603 33.0169L62.7205 33.0006C62.7756 33.2103 62.803 33.4273 62.803 33.6478V40.7635C62.803 42.1628 61.6883 43.3162 60.2711 43.3813L58.2507 43.4753C58.5422 44.0773 58.5881 44.7661 58.3846 45.3971L59.9173 45.2669C60.6598 45.2036 61.3932 45.4513 61.9432 45.9467C62.4932 46.442 62.8049 47.1435 62.8049 47.8775V54.9932C62.8049 56.3147 61.8057 57.4302 60.4746 57.5947L46.6728 59.2905C46.2786 59.3393 45.8844 59.2995 45.5159 59.1802C45.1932 59.3827 44.8229 59.5183 44.4214 59.5671L39.3209 60.1944C38.5637 60.2884 37.8046 60.0552 37.2326 59.558C36.9191 59.2851 36.6789 58.9452 36.5268 58.571C36.3673 59.7352 35.4322 60.6717 34.2204 60.8199L29.1198 61.4473C28.4231 61.534 27.7228 61.3424 27.1691 60.923C26.7492 61.4491 26.1277 61.8142 25.409 61.9028L20.3085 62.5302C20.1985 62.5428 20.0885 62.55 19.9803 62.55L19.9748 62.5537ZM82.4388 44.0792C82.4388 44.1334 82.4443 44.1894 82.4553 44.2473C82.4589 44.269 82.4626 44.2871 82.4663 44.3051C82.5231 44.2708 82.5818 44.2202 82.6349 44.1497C82.5689 44.1262 82.5048 44.1027 82.4388 44.0773V44.0792Z" fill="white"/>
<path id="Vector_3" d="M25.1023 59.5776C23.3943 59.7884 21.6845 59.9973 19.9766 60.208V53.5568C21.6845 53.3969 23.3943 53.237 25.1023 53.0754C25.1023 55.2428 25.1023 57.4102 25.1023 59.5776ZM29.2975 5.21408L19.9766 4.06769V51.0478C21.6845 50.9061 23.3943 50.7644 25.1023 50.6227C25.1023 42.3909 25.1023 34.159 25.1023 25.9272C28.0539 26.009 31.0055 26.0907 33.9571 26.1743C33.9571 21.8503 33.9571 17.5246 33.9571 13.2006C32.4039 10.5917 30.8507 7.93016 29.2975 5.21408ZM28.8314 17.6826C27.5896 17.6009 26.3459 17.5191 25.1041 17.4374C25.1041 16.0221 25.1041 14.6068 25.1041 13.1916C25.725 13.2442 26.3459 13.2969 26.9687 13.3496C27.5896 14.4233 28.2123 15.488 28.8332 16.5435V17.6826H28.8314ZM35.4513 22.9041C37.0045 25.4258 38.5577 27.893 40.1108 30.3075L49.4318 30.3892V7.68853L44.3061 7.05811C44.3061 12.2323 44.3061 17.4065 44.3061 22.5807C43.6852 22.5516 43.0624 22.5225 42.4415 22.4935C41.8206 21.5142 41.1997 20.5277 40.577 19.5321V6.60028C38.869 6.38953 37.1592 6.1806 35.4513 5.96986V22.9023V22.9041ZM50.9242 7.87203V30.4019C52.6321 30.4165 54.3419 30.4328 56.0499 30.4473V22.1356C57.2917 23.9742 58.5353 25.7764 59.7771 27.5459V30.4801C61.4851 30.4946 63.1949 30.5109 64.9028 30.5255V9.5907C63.1949 9.37996 61.4851 9.17103 59.7771 8.96028V17.1122C58.5353 15.2736 57.2917 13.4023 56.0499 11.4947V8.50245C54.3419 8.2917 52.6321 8.08277 50.9242 7.87203ZM73.3873 17.2884C72.7664 17.2357 72.1455 17.183 71.5227 17.1303V10.4046C69.8148 10.1939 68.105 9.98494 66.397 9.7742V30.5382C68.105 30.5527 69.8148 30.5691 71.5227 30.5836V23.8579C72.1436 23.887 72.7645 23.916 73.3873 23.9451C74.0082 24.7808 74.631 25.6074 75.2519 26.4268V30.6163C76.9598 30.6308 78.6696 30.6472 80.3775 30.6617V24.2721C79.5227 23.1675 78.6696 22.0466 77.8147 20.9092C78.6696 19.8846 79.5227 18.8763 80.3775 17.8825V11.4929C78.6696 11.2821 76.9598 11.0732 75.2519 10.8624V15.0519C74.631 15.7896 74.0082 16.5344 73.3873 17.2884ZM88.8602 18.6019C91.1909 18.8 93.5197 18.998 95.8504 19.196V13.395C92.7441 13.0135 89.6377 12.632 86.5295 12.2487C84.9763 13.9237 83.4231 15.6515 81.8699 17.4337C81.8699 21.8467 81.8699 26.2615 81.8699 30.6744C86.5295 30.7162 91.1909 30.7562 95.8504 30.798V22.0974C94.1425 21.9848 92.4327 21.8721 90.7247 21.7595V24.7572C89.4829 24.6991 88.2393 24.6409 86.9975 24.5828C86.9975 23.2801 86.9975 21.9793 86.9975 20.6767C87.6184 19.9772 88.2393 19.285 88.862 18.6038L88.8602 18.6019ZM102.004 14.1508C100.451 15.646 98.8978 17.1957 97.3447 18.8C97.3447 22.8041 97.3447 26.8065 97.3447 30.8107C99.0526 30.8252 100.762 30.8416 102.47 30.8561V28.0819C103.712 28.1164 104.956 28.1509 106.198 28.1855V30.8888C107.906 30.9034 109.615 30.9197 111.323 30.9342V15.2972L102.002 14.1508H102.004ZM106.198 22.7769C104.956 22.6951 103.712 22.6134 102.47 22.5316V21.774C103.091 21.1454 103.712 20.5259 104.335 19.9137C104.956 19.9663 105.579 20.019 106.199 20.0717V22.7751L106.198 22.7769ZM28.8295 34.0682V59.1198C30.5375 58.909 32.2473 58.7001 33.9552 58.4894C33.9552 55.2773 33.9552 52.0634 33.9552 48.8513C34.8101 50.1431 35.6632 51.4203 36.5181 52.6811C37.373 51.2549 38.226 49.8451 39.0809 48.4516V57.8589C40.7889 57.6482 42.4987 57.4393 44.2066 57.2285V33.9319C42.4987 33.9465 40.7889 33.9628 39.0809 33.9774V36.8715C38.226 38.2177 37.373 39.5803 36.5181 40.9592C35.6632 39.6512 34.8101 38.3285 33.9552 36.9878C33.9552 35.9994 33.9552 35.0111 33.9552 34.0228C32.2473 34.0373 30.5375 34.0537 28.8295 34.0682ZM60.3409 33.7902C55.7182 33.8302 51.0955 33.872 46.471 33.912V41.5915C47.3259 42.8305 48.1789 44.055 49.0338 45.2632C48.1789 46.5822 47.3259 47.9193 46.471 49.271V56.9505C51.0937 56.3819 55.7164 55.8132 60.3409 55.2464V48.0956C58.0471 48.29 55.7551 48.4843 53.4612 48.6787C54.3161 47.3707 55.1692 46.0789 56.0241 44.8036C55.1692 43.6408 54.3161 42.4617 53.4612 41.2663C55.7551 41.1591 58.0471 41.0519 60.3409 40.9447V33.7939V33.7902ZM101.282 33.4305C93.002 33.5032 84.722 33.5758 76.4402 33.6485C70.8926 33.6376 66.397 38.3249 66.397 44.1186C66.397 49.9123 70.8926 54.0074 76.4402 53.2661C84.7202 52.2487 93.0002 51.2313 101.282 50.2121C106.83 49.4709 110.505 45.83 110.505 41.5715C110.505 37.313 106.828 33.4396 101.282 33.4305ZM85.822 43.3647C85.7999 43.6226 85.7796 43.8806 85.7575 44.1404C85.7538 44.1386 85.7501 44.1368 85.7483 44.1368C85.7483 44.1368 85.7464 44.1368 85.7446 44.1368C85.5161 47.4779 80.8032 48.6024 80.1362 44.9053C79.9556 43.9042 80.2044 42.8941 80.746 42.1402C79.3642 41.5515 77.9824 40.9338 76.595 40.2725C76.7184 39.8801 76.8419 39.4949 76.9653 39.1098C79.9519 40.4142 82.9275 41.5697 85.8865 42.5834C85.8662 42.8432 85.8441 43.103 85.822 43.361V43.3647ZM97.5879 43.5809C96.9209 46.9746 92.2079 46.9056 91.9794 43.6771C91.9794 43.6771 91.9794 43.6771 91.9758 43.6771C91.9739 43.6771 91.9702 43.679 91.9665 43.6808C91.9463 43.4337 91.9242 43.1884 91.9021 42.9432C91.88 42.6961 91.8597 42.4508 91.8376 42.2019C94.7984 40.8521 97.7721 39.4931 100.759 38.1432C100.882 38.4648 101.006 38.7864 101.129 39.1116C99.7417 39.8001 98.358 40.4832 96.978 41.1718C97.5178 41.7913 97.7684 42.6579 97.5879 43.5809Z" fill="#414141"/>
</g>
</svg>
