<svg xmlns="http://www.w3.org/2000/svg" width="103" height="48" viewBox="0 0 103 48" fill="none">
  <path fill-rule="evenodd" clip-rule="evenodd" d="M102.991 11.9648H103V7.53994C103 6.53896 102.604 5.59412 101.912 4.8925L98.1133 1.08505C97.4217 0.392786 96.4997 0.00923438 95.5316 0.00923438H85.5644V0.0093549H3.79876V0C1.69654 0 0 1.62775 0 3.63906V10.5149V37.4945V44.3609C0 46.3722 1.87172 48 4.18602 48H98.8047C101.119 48 102.991 46.3722 102.991 44.3609V11.9648Z" fill="black"/>
  <path fill-rule="evenodd" clip-rule="evenodd" d="M68.178 25.249H60.089C59.8678 25.249 59.6557 25.3426 59.4805 25.511L55.6172 29.3465C55.4144 29.5429 55.3037 29.8423 55.3037 30.1416V43.9682C55.3037 44.5482 55.7186 45.0253 56.2257 45.0253H99.3122H99.3214C99.8285 45.0253 100.243 44.5482 100.243 43.9682V30.1416C100.243 29.8329 100.124 29.5429 99.93 29.3465L96.0667 25.511C95.9007 25.3426 95.6794 25.249 95.4581 25.249H87.3696L85.7217 27.8684C85.4174 28.3549 84.7997 28.6542 84.1174 28.6542H71.4302C70.7479 28.6542 70.1302 28.3455 69.8259 27.8684L68.178 25.249ZM70.9505 35.1372H65.529C65.254 35.1372 65.0311 35.3634 65.0311 35.6424V39.1224C65.0311 39.4014 65.254 39.6276 65.529 39.6276H70.9505C71.2255 39.6276 71.4484 39.4014 71.4484 39.1224V35.6424C71.4484 35.3634 71.2255 35.1372 70.9505 35.1372ZM84.6058 35.1372H90.0273C90.3023 35.1372 90.5252 35.3634 90.5252 35.6424V39.1224C90.5252 39.4014 90.3023 39.6276 90.0273 39.6276H84.6058C84.3308 39.6276 84.1079 39.4014 84.1079 39.1224V35.6424C84.1079 35.3634 84.3308 35.1372 84.6058 35.1372Z" fill="white"/>
  <path d="M19.5652 18.3447C19.3901 18.1669 19.2979 17.9331 19.2979 17.6805V3.7978C19.2979 3.28328 19.7128 2.8623 20.2199 2.8623H24.369C24.8761 2.8623 25.291 3.28328 25.291 3.7978V14.6401C25.291 14.8927 25.3925 15.1266 25.5584 15.3043L26.711 16.4737C27.2919 17.0631 28.2876 16.6421 28.2876 15.8095V3.7978C28.2876 3.28328 28.7026 2.8623 29.2097 2.8623H33.3588C33.8659 2.8623 34.2808 3.28328 34.2808 3.7978V21.7031C34.2808 22.2176 33.8659 22.6386 33.3588 22.6386H24.1662C23.9172 22.6386 23.6867 22.5357 23.5115 22.3673L19.556 18.354L19.5652 18.3447Z" fill="white"/>
  <path d="M50.4998 7.15621C50.675 7.33395 50.7672 7.56783 50.7672 7.82041V21.7031C50.7672 22.2176 50.3523 22.6386 49.8451 22.6386H45.696C45.1889 22.6386 44.774 22.2176 44.774 21.7031V10.8608C44.774 10.6082 44.6725 10.3743 44.5066 10.1966L43.354 9.02719C42.7732 8.43783 41.7774 8.8588 41.7774 9.69139V21.7031C41.7774 22.2176 41.3625 22.6386 40.8553 22.6386H36.7062C36.1991 22.6386 35.7842 22.2176 35.7842 21.7031V3.7978C35.7842 3.28328 36.1991 2.8623 36.7062 2.8623H45.8988C46.1478 2.8623 46.3783 2.96521 46.5535 3.1336L50.509 7.14685L50.4998 7.15621Z" fill="white"/>
  <path d="M61.2691 3.7978C61.2691 3.28328 61.684 2.8623 62.1911 2.8623H66.3403C66.8474 2.8623 67.2623 3.28328 67.2623 3.7978V13.1246C67.2623 13.3772 67.1609 13.6111 66.9949 13.7888L64.9203 15.8937C64.5607 16.2585 64.5607 16.8479 64.9203 17.2127L66.9949 19.3176C67.1701 19.4953 67.2623 19.7292 67.2623 19.9818V21.7031C67.2623 22.2176 66.8474 22.6386 66.3403 22.6386H62.1911C61.684 22.6386 61.2691 22.2176 61.2691 21.7031V21.5066C61.2691 21.2541 61.1677 21.0202 61.0017 20.8424L59.8492 19.6731C59.2683 19.0837 58.2725 19.5047 58.2725 20.3373V21.7031C58.2725 22.2176 57.8576 22.6386 57.3505 22.6386H53.2013C52.6942 22.6386 52.2793 22.2176 52.2793 21.7031V3.7978C52.2793 3.28328 52.6942 2.8623 53.2013 2.8623H57.3505C57.8576 2.8623 58.2725 3.28328 58.2725 3.7978V11.5998C58.2725 11.8524 58.3739 12.0862 58.5399 12.264L59.6924 13.4334C60.2733 14.0227 61.2691 13.6017 61.2691 12.7692V3.7978Z" fill="white"/>
  <path d="M92.8208 19.6731C92.24 19.0837 91.2442 19.5047 91.2442 20.3373V21.7031C91.2442 22.2176 90.8293 22.6386 90.3221 22.6386H86.173C85.6659 22.6386 85.251 22.2176 85.251 21.7031V3.7978C85.251 3.28328 85.6659 2.8623 86.173 2.8623H95.3656C95.6054 2.8623 95.8451 2.96521 96.0203 3.1336L99.9758 7.14685C100.151 7.3246 100.243 7.55847 100.243 7.81105V21.6937C100.243 22.2083 99.8283 22.6292 99.3212 22.6292H95.172C94.6649 22.6292 94.25 22.2083 94.25 21.6937V21.4973C94.25 21.2447 94.1578 21.0108 93.9826 20.8331L92.8301 19.6637L92.8208 19.6731ZM92.6733 13.4334C93.2542 14.0227 94.25 13.6017 94.25 12.7692V10.8514C94.25 10.5988 94.1578 10.3649 93.9826 10.1872L92.8301 9.01784C92.2492 8.42848 91.2534 8.84945 91.2534 9.68204V11.5998C91.2534 11.8524 91.3548 12.0862 91.5208 12.264L92.6733 13.4334Z" fill="white"/>
  <path d="M23.7148 25.6133C23.8899 25.3888 24.1573 25.2578 24.4432 25.2578H33.5713C34.0784 25.2578 34.4933 25.6788 34.4933 26.1933V44.0986C34.4933 44.6131 34.0784 45.0341 33.5713 45.0341H29.4221C28.915 45.0341 28.5001 44.6131 28.5001 44.0986V32.0869C28.5001 31.2543 27.5043 30.8333 26.9234 31.4227L25.7709 32.5921C25.5957 32.7698 25.5035 33.0037 25.5035 33.2563V44.0986C25.5035 44.6131 25.0886 45.0341 24.5815 45.0341H20.4323C19.9252 45.0341 19.5103 44.6131 19.5103 44.0986V33.2563C19.5103 33.0037 19.4089 32.7698 19.2429 32.5921L18.0904 31.4227C17.5095 30.8333 16.5137 31.2543 16.5137 32.0869V44.0986C16.5137 44.6131 16.0988 45.0341 15.5917 45.0341H11.4425C10.9354 45.0341 10.5205 44.6131 10.5205 44.0986V26.1933C10.5205 25.6788 10.9354 25.2578 11.4425 25.2578H20.5706C20.8565 25.2578 21.1239 25.3888 21.299 25.6133L21.7969 26.2588C22.1657 26.7359 22.8757 26.7359 23.2445 26.2588L23.7424 25.6133H23.7148Z" fill="white"/>
  <path d="M44.9859 31.9657C44.9859 31.1705 44.0362 30.7776 43.483 31.3389L42.2567 32.5831C42.0815 32.7609 41.9893 32.9947 41.9893 33.2473V39.5338C41.9893 40.0483 42.4042 40.4693 42.9113 40.4693H50.0663C50.5734 40.4693 50.9883 40.8903 50.9883 41.4048V44.099C50.9883 44.6135 50.5734 45.0345 50.0663 45.0345H36.9181C36.411 45.0345 35.9961 44.6135 35.9961 44.099V30.2163C35.9961 29.9637 36.0975 29.7299 36.2635 29.5521L40.219 25.5389C40.3942 25.3611 40.6247 25.2676 40.8736 25.2676H50.0663C50.5734 25.2676 50.9883 25.6885 50.9883 26.2031V31.9376C50.9883 32.4521 50.5734 32.8731 50.0663 32.8731H45.871C45.3824 32.8731 44.9951 32.4709 44.9951 31.9844L44.9859 31.9657ZM50.9791 38.009C50.9791 38.5235 50.5642 38.9445 50.057 38.9445H44.405C43.8979 38.9445 43.483 38.5235 43.483 38.009V35.3148C43.483 34.8002 43.8979 34.3793 44.405 34.3793H50.057C50.5642 34.3793 50.9791 34.8002 50.9791 35.3148V38.009Z" fill="white"/>
  <path d="M16.8729 2.8623H3.72476C3.21765 2.8623 2.80273 3.28328 2.80273 3.7978V35.3238C2.80273 35.8384 3.21765 36.2593 3.72476 36.2593H7.84624C8.35335 36.2593 8.76827 35.8384 8.76827 35.3238L8.79593 21.7031C8.79593 21.7031 8.79593 21.7031 8.79593 21.6937V18.8031C8.79593 17.9705 9.79172 17.5495 10.3726 18.1389L11.1471 18.9247C11.5067 19.2895 12.0876 19.2895 12.4472 18.9247L17.5183 13.7795C17.6935 13.6017 17.7857 13.3679 17.7857 13.1153V3.7978C17.7857 3.28328 17.3708 2.8623 16.8637 2.8623H16.8729ZM11.7925 11.2537C11.7925 12.0862 10.7967 12.5072 10.2159 11.9179L9.06332 10.7485C8.88813 10.5708 8.79593 10.3369 8.79593 10.0843V8.36299C8.79593 7.84847 9.21084 7.4275 9.71796 7.4275H10.8705C11.3776 7.4275 11.7925 7.84847 11.7925 8.36299V11.2537Z" fill="white"/>
  <path d="M2.80273 39.9456C2.80273 39.4123 3.22687 38.9727 3.76165 38.9727H7.81858C8.34413 38.9727 8.77749 39.403 8.77749 39.9456V44.0617C8.77749 44.595 8.35335 45.0346 7.81858 45.0346H3.76165C3.23609 45.0346 2.80273 44.6043 2.80273 44.0617V39.9456Z" fill="white"/>
  <path d="M76.187 16.4737C76.7679 17.0631 77.7637 16.6421 77.7637 15.8095V14.4437C77.7637 13.9292 78.1786 13.5082 78.6857 13.5082H82.8348C83.3419 13.5082 83.7569 13.9292 83.7569 14.4437V21.7031C83.7569 22.2176 83.3419 22.6386 82.8348 22.6386H73.6422C73.3932 22.6386 73.1627 22.5357 72.9875 22.3673L69.032 18.354C68.8569 18.1763 68.7646 17.9424 68.7646 17.6898V3.7978C68.7646 3.28328 69.1796 2.8623 69.6867 2.8623H82.8348C83.3419 2.8623 83.7569 3.28328 83.7569 3.7978V6.49201C83.7569 7.00653 83.3419 7.4275 82.8348 7.4275H75.6799C75.1728 7.4275 74.7578 7.84847 74.7578 8.36299V14.6495C74.7578 14.9021 74.8593 15.1359 75.0252 15.3137L76.1778 16.4831L76.187 16.4737Z" fill="white"/>
</svg>