<svg width="154" height="185" viewBox="0 0 154 185" fill="none" xmlns="http://www.w3.org/2000/svg">
<path d="M13.9565 64.541L6.15625 70.2087L22.2348 92.6859L30.035 87.0181L13.9565 64.541Z" fill="#FFC470"/>
<path d="M12.3473 59.1984C11.8013 58.4352 10.7454 58.2631 9.98819 58.8128C7.97799 60.2737 4.24283 62.9869 2.15 64.5076C1.746 64.8007 1.47483 65.2443 1.39525 65.739C1.31568 66.2344 1.43443 66.7415 1.7258 67.1481C2.20815 67.823 2.78048 68.6232 3.29282 69.3388C4.06042 70.4116 5.54543 70.6541 6.6099 69.8811C8.84904 68.2542 12.4685 65.6243 14.2902 64.3004C14.9109 63.8494 15.051 62.977 14.6036 62.3515C13.9541 61.444 13.0396 60.1657 12.3473 59.1977V59.1984Z" fill="#FFC470"/>
<path d="M19.2882 89.4112C19.227 89.4112 19.1645 89.4044 19.1015 89.3902C18.6406 89.2866 18.3504 88.8264 18.4526 88.3618L20.8834 77.3583L10.8287 76.6735C10.5673 76.6556 10.328 76.518 10.1798 76.2997C10.0323 76.0813 9.99192 75.8067 10.0709 75.5544L13.6059 64.2819C13.7479 63.8278 14.229 63.5768 14.6789 63.7199C15.1288 63.8636 15.3786 64.3473 15.2366 64.8014L12.0291 75.0288L21.9913 75.7074C22.2398 75.7241 22.4688 75.8499 22.6181 76.051C22.7675 76.2522 22.822 76.5088 22.7681 76.7543L20.1213 88.7375C20.0325 89.1392 19.6793 89.4125 19.2876 89.4125L19.2882 89.4112Z" fill="#39005E"/>
<path d="M22.2364 94.0646C21.8116 94.0646 21.3929 93.8659 21.126 93.4921L5.04747 71.0149C4.60552 70.3974 4.74447 69.5355 5.3572 69.0907L13.1581 63.4224C13.4525 63.2083 13.8191 63.1213 14.1772 63.18C14.5353 63.2386 14.8555 63.4378 15.0679 63.7346L31.1464 86.2117C31.3582 86.5084 31.4451 86.878 31.387 87.2389C31.3288 87.5998 31.1311 87.9225 30.8367 88.1365L23.0358 93.8042C22.7941 93.9801 22.5143 94.0646 22.237 94.0646H22.2364ZM8.06645 70.5208L22.5449 90.7615L28.1262 86.7059L13.6478 66.4651L8.06645 70.5208Z" fill="#39005E"/>
<path d="M5.22278 71.7115C4.05914 71.7115 2.91142 71.168 2.18054 70.1463L0.613518 67.9556C0.106682 67.2474 -0.0959295 66.3825 0.0424096 65.5194C0.181361 64.6569 0.644736 63.9012 1.34745 63.3904L9.18565 57.6955C10.5537 56.701 12.4684 57.0144 13.454 58.3926L15.7102 61.5464C16.5978 62.7876 16.3181 64.5255 15.0865 65.4201L7.40621 71.0008C6.74512 71.4808 5.97997 71.7121 5.22156 71.7121L5.22278 71.7115ZM10.9743 59.8702C10.9088 59.8702 10.8433 59.8899 10.7863 59.9313L2.94814 65.6261C2.8398 65.7051 2.76512 65.8266 2.7437 65.9599C2.72227 66.0931 2.75471 66.2326 2.83306 66.3418L4.4007 68.5331C4.55802 68.7533 4.79124 68.8983 5.05751 68.9421C5.32439 68.9859 5.59005 68.9224 5.80858 68.7632L13.4888 63.1825L12.4305 61.6722L11.2369 60.0034C11.1744 59.9158 11.0759 59.869 10.9755 59.869L10.9743 59.8702Z" fill="#39005E"/>
<path d="M26.6765 83.6591C26.6557 83.6591 26.6343 83.6585 26.6129 83.6567L14.8026 82.7837C14.5449 82.7646 14.3093 82.6289 14.1623 82.4148C14.0154 82.2007 13.972 81.9305 14.0454 81.6806L16.9701 71.6778L6.12154 71.1935C5.64959 71.1725 5.28416 70.7697 5.30558 70.2946C5.32701 69.8196 5.72489 69.4494 6.19744 69.4717L18.1368 70.0047C18.3994 70.0164 18.6418 70.149 18.7949 70.365C18.9479 70.5809 18.9932 70.8548 18.9191 71.109L15.9852 81.1421L26.7383 81.9367C27.2091 81.9712 27.5629 82.3846 27.5286 82.859C27.4955 83.3124 27.1203 83.6573 26.6771 83.6579L26.6765 83.6591Z" fill="#39005E"/>
<path d="M32.6165 79.0244L14.4219 92.2439L17.3025 96.2706L35.4966 83.0505L32.6165 79.0244Z" fill="#FFC470"/>
<path d="M17.3034 97.6495C16.8786 97.6495 16.4599 97.4508 16.193 97.077L13.313 93.0509C13.1006 92.7542 13.0142 92.3846 13.0724 92.0237C13.1305 91.6628 13.3283 91.3402 13.6227 91.1261L31.8167 77.9059C32.4295 77.4605 33.2846 77.6006 33.7259 78.2181L36.606 82.2442C36.8184 82.5409 36.9047 82.9105 36.8465 83.2714C36.7884 83.6323 36.5907 83.9549 36.2962 84.169L18.1022 97.3891C17.8604 97.565 17.5807 97.6495 17.3034 97.6495ZM16.3313 92.5567L17.6119 94.3464L33.587 82.739L32.3064 80.9492L16.3313 92.5567Z" fill="#39005E"/>
<path d="M24.9611 37.291C24.9611 37.291 18.1452 30.5967 13.1313 26.5293C13.1313 26.5293 9.09132 30.0341 6.15865 32.2439C6.15865 32.2439 14.2601 37.1559 18.0981 41.9747C18.0981 41.9747 14.8648 42.6922 12.1464 44.2579C8.92298 46.1143 6.15804 48.6813 2.58815 47.991C2.58815 47.991 1.11539 52.2188 2.58815 56.3701C2.58815 56.3701 15.218 51.9331 24.9599 45.3302V37.2904L24.9611 37.291Z" fill="#23FF81"/>
<path d="M2.58879 57.7498C2.02686 57.7498 1.50044 57.3981 1.30089 56.8349C-0.316334 52.2764 1.23172 47.7272 1.29844 47.5353C1.52309 46.8912 2.18173 46.5093 2.8471 46.6377C5.13092 47.08 7.12337 45.8024 9.42862 44.3236C10.0842 43.9028 10.7624 43.4679 11.4682 43.0613C12.8853 42.2451 14.4156 41.6492 15.6178 41.2513C11.6782 37.224 5.52329 33.4675 5.45351 33.4256C5.06359 33.1887 4.81568 32.7716 4.79303 32.3132C4.77038 31.8549 4.97544 31.415 5.34027 31.1405C8.20132 28.9849 12.1997 25.5196 12.2395 25.4851C12.7396 25.0514 13.4753 25.039 13.9895 25.4561C18.9961 29.5179 25.6357 36.029 25.9161 36.3041C26.1805 36.5639 26.3293 36.9198 26.3293 37.2912V45.331C26.3293 45.79 26.1028 46.2188 25.7245 46.4748C15.9483 53.1006 3.56206 57.4888 3.03931 57.6727C2.89056 57.7251 2.73814 57.7498 2.58879 57.7498ZM3.61042 49.4854C3.37047 50.6181 3.11337 52.5417 3.51003 54.5609C6.92627 53.2585 16.075 49.557 23.5931 44.5919V37.8761C22.1515 36.4756 17.2172 31.7265 13.1497 28.326C12.1091 29.2138 10.296 30.7432 8.54288 32.1356C11.1793 33.8759 16.2691 37.4775 19.165 41.1131C19.4613 41.4851 19.5457 41.9848 19.3884 42.4345C19.2311 42.8843 18.8547 43.2199 18.3925 43.3229C18.3631 43.3291 15.3209 44.0194 12.8259 45.4563C12.1764 45.8301 11.5264 46.2472 10.8977 46.6506C8.66959 48.08 6.3723 49.5576 3.61103 49.4854H3.61042Z" fill="#39005E"/>
<path d="M94.6737 137.753C94.6737 137.753 94.7013 137.801 94.7521 137.894C95.06 138.456 96.2053 140.638 96.6839 142.847C97.1694 145.049 96.9918 147.279 94.6731 147.951C94.6731 147.951 95.1243 149.054 95.8086 150.853C97.7576 155.984 101.591 166.779 102.227 173.82C102.467 176.505 102.244 178.641 101.277 179.713C96.8755 184.583 78.0137 182.484 75.5652 179.713C73.1136 176.943 77.6752 173.717 77.6752 173.717C77.6752 173.717 74.5668 161.027 66.8694 153.604C66.8694 153.604 63.8737 155.155 56.1696 153.604C56.1696 153.604 49.2863 157.054 45.9074 170.512C45.9074 170.512 50.4689 175.361 49.2857 179.714C48.1061 184.067 22.039 185.163 18.3424 175.361C17.6788 173.603 17.4022 171.456 17.3985 169.116C17.3814 160.296 21.2114 148.751 22.5483 144.991C22.8323 144.198 23.0031 143.75 23.0031 143.75C23.0031 143.75 19.4809 141.376 20.6164 136.847C21.0951 134.931 22.4081 132.625 25.1779 129.951C25.3046 129.83 25.4307 129.709 25.5642 129.585L27.6601 117.754L27.7831 117.058C27.7831 117.058 20.9647 114.263 19.6101 107.463C18.8615 103.692 22.1608 93.3262 32.8472 87.619C40.2606 83.6558 51.2304 81.9395 66.8682 86.2198C75.6772 88.632 85.5495 95.449 93.6264 103.779C95.7364 105.954 97.7227 108.232 99.5321 110.562C104.443 116.862 108.081 123.548 109.442 129.586C109.442 129.586 105.143 137.02 94.6725 137.754L94.6737 137.753Z" fill="#6F6F88"/>
<g opacity="0.2">
<path d="M94.6755 137.753C94.6755 137.753 94.703 137.801 94.7539 137.894C56.3317 142.764 32.265 133.31 25.1797 129.95C25.3064 129.829 25.4325 129.709 25.5659 129.585L27.6618 117.753C37.288 118.918 47.3311 114.796 47.3311 114.796C84.4053 134.329 86.8985 106.555 86.8985 106.555C91.9626 117.567 96.8363 112.507 99.5339 110.56C104.444 116.86 108.083 123.547 109.444 129.585C109.444 129.585 105.145 137.019 94.6743 137.753H94.6755Z" fill="#39005E"/>
</g>
<g opacity="0.2">
<path d="M101.281 179.713C96.8794 184.583 78.0175 182.484 75.569 179.713C73.1175 176.942 77.679 173.716 77.679 173.716C77.679 173.716 74.5707 161.027 66.8733 153.603C66.8733 153.603 63.8776 155.154 56.1734 153.603C56.1734 153.603 49.2901 157.053 45.9112 170.511C45.9112 170.511 50.4727 175.36 49.2895 179.714C48.11 184.067 22.0428 185.162 18.3462 175.36C17.6827 173.603 17.406 171.456 17.4023 169.115C19.6488 171.507 24.1118 175.519 29.9998 177.128C38.6478 179.489 42.7515 176.683 42.457 174.171C42.2318 172.247 37.3507 172.149 34.0312 172.373C32.9477 172.446 32.313 171.181 32.9998 170.334C34.2791 168.756 36.6125 166.744 40.6647 165.606C40.6647 165.606 41.4856 162.796 42.8121 159.644C43.9904 156.845 42.4699 153.638 39.555 152.852C34.6904 151.539 27.8378 149.116 22.5509 144.99C22.8349 144.197 23.0057 143.749 23.0057 143.749C23.0057 143.749 19.4836 141.375 20.619 136.846C25.0098 139.413 37.4432 145.603 55.9671 146.024C55.9671 146.024 57.1124 148.933 62.5327 148.778C67.9561 148.619 73.4034 144.483 73.4034 144.483C73.4034 144.483 85.5497 146.444 96.6872 142.846C97.1726 145.048 96.9951 147.278 94.6764 147.95C94.6764 147.95 95.1275 149.053 95.8119 150.852C93.121 151.902 88.7859 153.228 82.95 153.843C79.7241 154.183 77.7029 157.523 78.858 160.578C79.8839 163.292 80.9514 166.328 81.4913 168.519C81.4913 168.519 83.7947 168.735 87.1644 171.282C88.0636 171.962 87.6547 173.401 86.5364 173.514C83.8296 173.789 80.245 174.53 79.9726 176.535C79.6035 179.267 96.2361 179.189 102.231 173.819C102.47 176.504 102.248 178.64 101.28 179.712L101.281 179.713Z" fill="#39005E"/>
</g>
<path d="M37.2095 184.297C28.4445 184.297 19.3013 181.778 17.0646 175.85C13.6239 166.728 19.8136 148.51 21.388 144.167C20.5053 143.291 19.234 141.632 19.0454 139.213C18.7914 135.952 20.558 132.483 24.2974 128.895L26.2537 117.844C24.1493 116.717 19.4372 113.591 18.2717 107.735C17.6027 104.373 19.5492 96.9157 25.9728 90.8637C32.4515 84.7592 44.8683 78.7676 67.2291 84.89C75.7216 87.2152 85.5547 93.5991 94.2076 102.406C102.88 111.233 108.919 121.029 110.778 129.282C110.854 129.623 110.8 129.979 110.625 130.281C110.447 130.589 106.399 137.408 96.7834 138.904C97.7175 140.987 98.8665 144.356 97.9024 146.77C97.5914 147.548 97.0889 148.179 96.4204 148.639C97.3148 150.922 99.2882 156.121 100.935 161.607C105.083 175.423 103.695 179.087 102.289 180.641C99.7351 183.468 93.9818 184.037 89.6198 184.008C83.73 183.975 76.4445 182.78 74.5439 180.63C73.7298 179.709 73.3692 178.614 73.5015 177.463C73.7157 175.601 75.1768 174.037 76.1183 173.207C75.3091 170.4 72.3262 161.199 66.5172 155.189C65.0462 155.606 61.8804 156.088 56.4239 155.056C55.0699 155.959 50.1742 159.839 47.4141 170.155C48.6782 171.694 51.7259 175.954 50.6069 180.078C49.7071 183.392 42.4847 184.096 39.4211 184.244C38.6902 184.28 37.9501 184.298 37.2095 184.298V184.297ZM49.8908 85.0843C38.9057 85.0843 32.0114 88.9475 27.8416 92.8767C22.0479 98.3359 20.4974 104.894 20.9546 107.192C22.1421 113.158 28.2401 115.755 28.3013 115.781C28.8957 116.028 29.2427 116.66 29.1295 117.298L26.9112 129.828C26.8591 130.124 26.7122 130.394 26.4937 130.598C23.2335 133.638 21.5998 136.528 21.7706 138.957C21.9346 141.301 23.6981 142.556 23.7728 142.608C24.2925 142.971 24.5074 143.651 24.2797 144.245C24.1983 144.459 16.1532 165.675 19.622 174.869C21.3635 179.487 29.5739 181.339 36.0752 181.521C43.1642 181.719 47.5898 180.205 47.973 179.336C48.7669 176.408 46.035 172.656 44.9148 171.458C44.5941 171.115 44.468 170.629 44.5831 170.173C48.0764 156.26 55.2572 152.519 55.5614 152.367C55.8332 152.231 56.1417 152.189 56.4392 152.249C63.4211 153.656 66.2411 152.377 66.2687 152.364C66.7871 152.095 67.3968 152.199 67.8179 152.605C75.7124 160.22 78.8746 172.851 79.005 173.385C79.1403 173.937 78.9248 174.517 78.4633 174.844C77.9259 175.228 76.3527 176.597 76.2193 177.783C76.1917 178.029 76.2083 178.367 76.5872 178.795C77.43 179.748 83.064 181.213 89.6357 181.25C94.8742 181.269 98.8463 180.357 100.268 178.783C100.79 178.206 102.193 175.319 98.3229 162.422C96.167 155.236 93.437 148.541 93.4094 148.475C93.2613 148.112 93.2729 147.703 93.4419 147.35C93.6108 146.997 93.9212 146.733 94.2952 146.625C95.012 146.417 95.2433 146.042 95.3645 145.739C96.055 144.014 94.5804 140.348 93.4896 138.442C93.254 138.031 93.2448 137.525 93.4664 137.105C93.6879 136.686 94.1079 136.41 94.5786 136.377C102.834 135.799 106.907 130.855 107.977 129.327C103.951 113.064 83.2446 92.129 66.5129 87.5489C60.137 85.8036 54.6329 85.0831 49.8908 85.0831V85.0843Z" fill="#39005E"/>
<path fill-rule="evenodd" clip-rule="evenodd" d="M78.5103 174.905C78.5103 174.905 79.5441 173.972 81.7955 173.613C82.8826 173.44 84.2073 173.373 85.8086 173.576C86.1973 173.655 86.5774 173.402 86.6564 173.01C86.7353 172.618 86.4837 172.235 86.095 172.155C83.8877 171.524 82.0912 171.452 80.6943 171.562C78.1234 171.765 76.8428 172.719 76.8428 172.719C76.2442 173.183 76.1316 174.049 76.5919 174.652C77.0516 175.255 77.911 175.368 78.5096 174.905H78.5103Z" fill="#39005E"/>
<path fill-rule="evenodd" clip-rule="evenodd" d="M46.5765 169.248C46.5765 169.248 44.696 168.354 41.4518 168.547C39.5646 168.659 37.1927 169.111 34.4516 170.383C34.0825 170.53 33.9007 170.951 34.0464 171.323C34.192 171.695 34.6101 171.878 34.9792 171.732C37.0543 171.04 38.8625 170.79 40.383 170.759C43.5716 170.694 45.3522 171.714 45.3522 171.714C46.0274 172.055 46.8495 171.779 47.188 171.098C47.5259 170.418 47.2522 169.589 46.5771 169.248H46.5765Z" fill="#39005E"/>
<path d="M61.6107 155.564C56.2926 155.564 52.4663 152.319 51.1845 151.062C39.3951 151.251 23.1873 144.928 22.4914 144.654C21.788 144.377 21.4404 143.577 21.7152 142.869C21.99 142.16 22.7833 141.809 23.4867 142.086C23.655 142.152 40.443 148.699 51.6987 148.291C52.1045 148.276 52.503 148.447 52.7742 148.757C52.8078 148.794 56.4169 152.807 61.612 152.807C66.2732 152.807 68.8301 151.444 72.4789 148.581C72.7262 148.387 73.0335 148.282 73.3451 148.29C73.5005 148.293 88.9278 148.56 94.2153 146.653C94.926 146.397 95.7095 146.77 95.9635 147.488C96.2182 148.204 95.8478 148.993 95.1359 149.249C89.8754 151.146 76.536 151.088 73.7766 151.054C69.9778 153.982 66.8352 155.564 61.612 155.564H61.6107Z" fill="#39005E"/>
<path d="M25.4219 129.758C25.4219 129.758 43.4488 143.447 94.9844 137.303L93.773 131.16C93.773 131.16 48.3274 137.303 26.5518 124.209L25.4219 129.759V129.758Z" fill="#23FF81"/>
<g opacity="0.2">
<path d="M94.9817 137.304C43.4455 143.446 25.418 129.757 25.418 129.757L25.9823 126.993C29.3747 129.157 48.4692 139.587 94.377 134.224L94.9823 137.304H94.9817Z" fill="#39005E"/>
</g>
<path d="M35.4962 128.132C35.4436 128.113 55.8933 122.294 84.7921 96.2705L87.8955 98.5069C87.8955 98.5069 71.8016 115.116 45.6464 130.118C45.6464 130.118 40.9263 130.118 35.4962 128.132Z" fill="#6F6F88"/>
<path d="M70.0328 140.254C56.7626 140.254 47.082 138.757 40.558 137.176C29.4609 134.485 24.7929 131.007 24.5994 130.86C24.1777 130.54 23.9763 130.003 24.0828 129.482L25.2128 123.932C25.3015 123.495 25.5953 123.128 26.0012 122.948C26.4064 122.768 26.8728 122.797 27.2536 123.026C48.3662 135.722 93.1428 129.855 93.5927 129.794C94.3064 129.697 94.9754 130.179 95.1162 130.892L96.3276 137.035C96.4023 137.412 96.3166 137.803 96.0926 138.114C95.8685 138.425 95.5251 138.627 95.1468 138.672C85.6535 139.804 77.3042 140.254 70.034 140.254L70.0328 140.254ZM26.9493 129.118C28.5917 130.124 33.1673 132.576 41.4597 134.558C51.1299 136.869 67.9277 138.982 93.3546 136.105L92.6794 132.682C89.3054 133.073 79.6339 134.053 68.3195 133.973C50.4841 133.846 36.7726 131.277 27.5162 126.336L26.9493 129.118Z" fill="#39005E"/>
<path d="M45.6468 131.497C45.4442 131.497 40.6219 131.473 35.0302 129.428C34.4805 129.226 34.1181 128.695 34.1292 128.105C34.1347 127.809 34.2497 127.085 35.1936 126.78C38.7494 125.633 57.8072 118.722 83.881 95.243C84.3585 94.8136 85.0673 94.7747 85.5876 95.1492L88.6911 97.3856C89.0161 97.6194 89.223 97.9846 89.2579 98.3856C89.2934 98.786 89.1526 99.1827 88.8741 99.4701C88.7119 99.6373 72.3444 116.391 46.3226 131.317C46.1163 131.435 45.8831 131.497 45.6462 131.497H45.6468ZM39.8721 127.978C42.4613 128.561 44.5144 128.698 45.301 128.73C66.9296 116.272 81.6939 102.628 85.7749 98.6737L84.8849 98.0327C63.9174 116.743 47.4097 124.897 39.8714 127.979L39.8721 127.978Z" fill="#39005E"/>
<g opacity="0.2">
<path d="M93.6308 103.779C86.2241 106.674 75.7055 107.456 64.4621 105.406C49.2111 102.625 37.0201 95.428 32.8516 87.619C40.2649 83.6558 51.2347 81.9395 66.8726 86.2198C75.6816 88.632 85.5539 95.449 93.6308 103.779V103.779Z" fill="#39005E"/>
</g>
<path d="M64.6836 134.445C64.6836 134.445 68.4004 143.821 73.9946 149.873C74.966 150.892 76.4804 151.162 77.7395 150.539C78.7893 150.013 80.0613 149.22 81.1925 148.096C82.4057 146.907 82.4339 144.953 81.2555 143.73C78.6809 141.079 73.6248 136.251 68.3784 133.112L64.6842 134.445H64.6836Z" fill="#23FF81"/>
<g opacity="0.2">
<path d="M81.1931 148.095C80.0613 149.219 78.7893 150.011 77.7395 150.539C76.481 151.163 74.966 150.891 73.9952 149.874C68.401 143.822 64.6836 134.445 64.6836 134.445L67.1149 133.565C68.7462 136.709 71.1225 140.689 73.9952 143.794C74.9666 144.814 76.481 145.083 77.7395 144.463C78.5291 144.067 79.4424 143.518 80.3312 142.795C80.666 143.129 80.9739 143.442 81.2543 143.729C82.4339 144.952 82.4069 146.906 81.1925 148.095H81.1931Z" fill="#39005E"/>
</g>
<path d="M76.3139 152.252C75.094 152.252 73.8973 151.76 73.0085 150.827C67.2919 144.642 63.5696 135.348 63.4141 134.956C63.2764 134.609 63.2844 134.219 63.4374 133.878C63.5898 133.537 63.8738 133.273 64.2234 133.147L67.9175 131.814C68.3013 131.676 68.7267 131.717 69.0768 131.926C74.537 135.194 79.6635 140.119 82.2331 142.764C83.9385 144.535 83.8975 147.367 82.1462 149.083C81.0897 150.133 79.8098 151.041 78.3492 151.773C77.6973 152.095 77.002 152.252 76.3139 152.252ZM66.517 135.248C67.7394 137.996 70.8624 144.461 74.9961 148.933C75.5433 149.508 76.41 149.661 77.1372 149.301C77.9563 148.891 79.1646 148.174 80.2321 147.113C80.9097 146.449 80.925 145.365 80.2737 144.689C78.3517 142.711 73.4156 137.864 68.226 134.631L66.5164 135.248H66.517Z" fill="#39005E"/>
<path d="M61.1936 133.111C61.1936 133.111 53.0145 136.458 46.6203 142.447C45.8404 143.186 45.4964 144.281 45.7113 145.339C45.9727 146.62 46.687 148.354 48.5466 149.908C49.7617 150.925 51.5503 150.826 52.6472 149.68C55.3663 146.826 60.6048 140.999 63.0777 135.94L61.1936 133.111Z" fill="#23FF81"/>
<g opacity="0.2">
<path d="M63.0764 135.94C60.604 141 55.3655 146.827 52.6465 149.681C51.5489 150.826 49.7603 150.926 48.5465 149.909C46.6862 148.355 45.9713 146.621 45.7117 145.339C45.4963 144.281 45.8385 143.188 46.6214 142.447C46.7377 142.34 46.8503 142.234 46.9666 142.13C47.3669 142.702 47.8829 143.278 48.5465 143.833C49.7603 144.849 51.5489 144.75 52.6465 143.605C54.7938 141.351 58.5142 137.243 61.199 133.121L63.0764 135.94Z" fill="#39005E"/>
</g>
<path d="M50.4685 151.982C49.4768 151.982 48.4822 151.648 47.6717 150.97C45.4699 149.129 44.6607 147.044 44.3699 145.618C44.0571 144.08 44.5474 142.52 45.6811 141.444C52.191 135.348 60.334 131.976 60.6774 131.836C61.2773 131.59 61.9665 131.802 62.3277 132.345L64.2118 135.173C64.4848 135.583 64.5197 136.109 64.303 136.551C61.7817 141.709 56.5352 147.59 53.6325 150.637C52.778 151.529 51.6248 151.983 50.4691 151.983L50.4685 151.982ZM60.6952 134.839C58.3507 135.924 52.382 138.932 47.5499 143.457C47.1183 143.867 46.9292 144.469 47.0498 145.063C47.2518 146.055 47.8272 147.518 49.4181 148.848C50.0798 149.401 51.0647 149.347 51.6615 148.724C54.3181 145.936 59.0106 140.693 61.4903 136.033L60.6946 134.839H60.6952Z" fill="#39005E"/>
<path d="M64.6823 126.56C68.4627 126.56 71.5319 129.322 71.5319 132.724C71.5319 136.126 68.4627 138.889 64.6823 138.889C60.9018 138.889 57.832 136.127 57.832 132.724C57.832 129.321 60.9012 126.56 64.6823 126.56Z" fill="#23FF81"/>
<path d="M64.6823 126.56C68.4627 126.56 71.5319 129.322 71.5319 132.724C71.5319 136.126 68.4627 138.889 64.6823 138.889C60.9018 138.889 57.832 136.127 57.832 132.724C57.832 129.321 60.9012 126.56 64.6823 126.56Z" fill="#23FF81"/>
<g opacity="0.2">
<path d="M71.5313 132.724C71.5313 136.126 68.4639 138.89 64.6817 138.89C60.8994 138.89 57.832 136.126 57.832 132.724C57.832 131.773 58.075 130.87 58.506 130.063C59.6102 132.135 61.9632 133.565 64.6817 133.565C67.4001 133.565 69.7561 132.135 70.861 130.063C71.2919 130.87 71.5313 131.773 71.5313 132.724Z" fill="#39005E"/>
</g>
<path d="M64.6825 140.268C60.151 140.268 56.4648 136.884 56.4648 132.724C56.4648 128.564 60.1516 125.181 64.6825 125.181C69.2135 125.181 72.9003 128.565 72.9003 132.724C72.9003 136.883 69.2141 140.268 64.6825 140.268ZM64.6825 127.938C61.6599 127.938 59.2004 130.085 59.2004 132.724C59.2004 135.364 61.6599 137.511 64.6825 137.511C67.7052 137.511 70.1647 135.364 70.1647 132.724C70.1647 130.085 67.7058 127.938 64.6825 127.938Z" fill="#39005E"/>
<path fill-rule="evenodd" clip-rule="evenodd" d="M93.6162 130.244C93.6162 130.244 94.0018 124.985 91.7211 116.662C90.7184 113.004 89.204 108.744 86.9006 104.073C86.7262 103.696 86.2805 103.533 85.9071 103.71C85.5337 103.886 85.3721 104.335 85.5472 104.711C87.577 109.362 88.86 113.576 89.6698 117.182C91.4444 125.085 90.8922 129.992 90.8922 129.992C90.8231 130.75 91.3777 131.422 92.1293 131.491C92.881 131.56 93.5476 131.002 93.6162 130.245V130.244Z" fill="#39005E"/>
<path d="M23.242 43.5253C27.364 22.8977 42.6884 -5.8499 83.7739 3.03941C120.414 10.9663 120.084 45.1564 116.734 53.9149C114.447 59.896 110.765 69.7718 110.765 78.4576C110.765 84.6823 104.961 105.828 67.2314 99.0123C30.0689 92.2996 17.556 71.981 23.2426 43.5247L23.242 43.5253Z" fill="#6F6F88"/>
<g opacity="0.2">
<path d="M110.797 76.7615C110.78 77.1989 110.77 77.6369 110.77 78.0712C110.77 84.2954 104.963 105.442 67.2355 98.6254C30.0719 91.912 17.5596 71.5953 23.2468 43.1383C24.0058 39.3368 25.148 35.2595 26.7622 31.1934C26.7518 31.2415 26.7414 31.2896 26.7316 31.3383C21.045 59.7953 33.5604 80.112 70.7203 86.8254C94.9034 91.1957 105.972 84.0751 110.798 76.7621L110.797 76.7615Z" fill="#39005E"/>
</g>
<path d="M117.928 48.4053C117.675 50.7009 117.241 52.5961 116.734 53.9163C116.29 55.078 115.794 56.3871 115.281 57.8073C115.975 54.5227 116.943 51.3005 117.928 48.4053Z" fill="#23FF81"/>
<g opacity="0.6">
<path d="M117.492 36.3529C114.233 24.4764 105.322 11.7079 84.7125 7.24809C80.8861 6.42079 77.2819 5.92108 73.8896 5.71071C73.7121 6.94086 71.0169 8.10932 67.6423 8.36781C64.0926 8.64358 61.1348 7.80949 61.0357 6.50654C61.032 6.46521 61.032 6.42387 61.0357 6.38562C37.3858 10.7004 27.3874 31.6753 24.1799 47.7321C22.7335 54.9767 22.4635 61.6932 23.4821 67.7933C21.4646 60.6246 21.4542 52.4775 23.2428 43.524C27.363 22.8983 42.6861 -5.84804 83.7722 3.04003C106.847 8.03405 115.26 23.4431 117.493 36.3529H117.492Z" fill="white"/>
</g>
<path d="M48.5151 40.459C48.5151 40.459 40.7638 59.762 52.003 68.2867C62.862 76.5239 71.013 68.1239 82.3996 70.2331C89.611 71.5688 92.8191 79.8473 101.564 78.1199C109.899 76.474 110.167 62.1181 108.86 55.921C108.86 55.921 82.5123 42.3813 48.5151 40.459Z" fill="#F2C5A9"/>
<path d="M99.2585 79.7328C94.9357 79.7328 91.8775 77.4224 89.1285 75.3452C86.9071 73.6672 84.8094 72.0817 82.1497 71.5894C77.9243 70.8065 74.0765 71.5782 70.356 72.3247C64.4038 73.5185 58.2501 74.753 51.1783 69.3882C39.2371 60.331 46.9124 40.7701 47.2454 39.9416C47.4652 39.395 48.0038 39.0495 48.5903 39.0822C82.4827 40.999 109.213 54.556 109.48 54.6929C109.847 54.8817 110.111 55.2278 110.196 55.6344C111.178 60.2916 111.38 69.7491 107.739 75.3008C106.238 77.5908 104.248 78.9943 101.826 79.4724C100.922 79.6507 100.069 79.7322 99.2597 79.7322L99.2585 79.7328ZM78.4654 68.5004C79.809 68.5004 81.1973 68.6096 82.6443 68.878C85.9357 69.4875 88.3927 71.3444 90.769 73.1397C93.9826 75.5679 96.758 77.6642 101.299 76.7678C102.999 76.4322 104.358 75.4556 105.456 73.7819C108.328 69.4017 108.468 61.5112 107.645 56.8584C103.615 54.9089 79.5103 43.8116 49.4491 41.8966C48.1471 45.716 43.8935 60.4125 52.8231 67.1857C58.9173 71.8084 63.9704 70.7948 69.8216 69.6207C72.5817 69.0674 75.4072 68.5004 78.4648 68.5004H78.4654Z" fill="#39005E"/>
<path d="M81.0142 101.74C76.7287 101.74 72.0521 101.284 66.9905 100.369C47.8085 96.9046 34.3829 89.6662 27.0864 78.8564C20.7895 69.5272 19.0456 57.5489 21.9017 43.2529C23.7559 33.9743 29.0819 16.9452 43.9246 7.13793C54.614 0.0747282 68.1186 -1.75816 84.0613 1.69108C98.2533 4.76153 108.445 11.9018 114.354 22.9146C120.678 34.7004 120.299 48.4276 118.011 54.4106C115.958 59.781 112.134 69.7777 112.134 78.4578C112.134 82.788 110.005 89.6396 104.007 94.6991C98.4473 99.3871 90.7438 101.74 81.0148 101.741L81.0142 101.74ZM69.2309 2.7596C60.1311 2.7596 52.1613 4.99226 45.4243 9.44339C31.4141 18.701 26.3531 34.9404 24.5841 43.797C21.8779 57.3385 23.481 68.6123 29.3488 77.3054C36.2156 87.4791 49.0431 94.3258 67.4735 97.6554C82.9711 100.455 94.9974 98.7011 102.251 92.5842C107.894 87.8265 109.399 81.466 109.399 78.4578C109.399 69.265 113.341 58.9567 115.459 53.4192C117.044 49.2765 118.359 36.1749 111.948 24.2262C106.438 13.9556 96.8626 7.28044 83.4884 4.38705C78.4714 3.30126 73.714 2.7596 69.2321 2.7596H69.2309Z" fill="#39005E"/>
<path d="M23.0039 45.3089C23.0039 45.3089 70.4346 40.4457 113.664 62.1196L116.362 54.3327C116.362 54.3327 81.1174 32.2492 25.1604 36.4492C25.1604 36.4492 23.9539 39.2211 23.0039 45.3089Z" fill="#23FF81"/>
<path d="M113.665 63.4979C113.456 63.4979 113.247 63.4498 113.056 63.3536C90.9402 52.2655 67.687 48.3215 52.0737 46.9655C35.1223 45.4935 23.2606 46.6681 23.1431 46.6799C22.7201 46.7224 22.3032 46.5663 22.0113 46.256C21.7199 45.9457 21.5877 45.5163 21.6532 45.0944C22.6197 38.901 23.8562 36.015 23.9082 35.8947C24.1114 35.4277 24.5546 35.1119 25.059 35.0736C54.1812 32.8885 77.6199 37.9053 92.1547 42.4996C107.944 47.4905 116.718 52.9318 117.085 53.1607C117.628 53.5012 117.864 54.1768 117.654 54.7857L114.956 62.5725C114.827 62.9464 114.544 63.2456 114.181 63.3949C114.015 63.4628 113.84 63.4967 113.665 63.4967L113.665 63.4979ZM35.1657 43.4681C39.8564 43.4681 45.674 43.644 52.2408 44.2122C67.7819 45.5564 90.7805 49.4277 112.882 60.1967L114.7 54.9504C112.042 53.4371 103.846 49.0754 91.2328 45.0981C77.091 40.6389 54.371 35.7744 26.1351 37.7597C25.7978 38.753 25.2059 40.7376 24.6477 43.7945C26.664 43.6569 30.3116 43.4681 35.1657 43.4681Z" fill="#39005E"/>
<path d="M51.3649 116.746L87.8962 123.415L125.855 132.297C126.672 132.489 126.981 133.497 126.413 134.118L123.687 137.101C123.474 137.334 123.173 137.463 122.858 137.456L85.9521 136.628L49.7152 122.095C48.3276 121.538 47.7289 119.888 48.4335 118.561L48.7114 118.037C49.2237 117.072 50.2955 116.55 51.3643 116.745L51.3649 116.746Z" fill="#A6A6A6"/>
<path d="M122.552 138.835C122.533 138.835 122.515 138.835 122.497 138.835L85.7536 138.007C85.5901 138.003 85.4285 137.97 85.2767 137.909L49.1996 123.376C48.1816 122.965 47.3822 122.134 47.0052 121.095C46.6269 120.053 46.7071 118.893 47.2243 117.914L47.501 117.39C48.2937 115.89 49.939 115.085 51.5948 115.39L87.9652 122.06C87.9872 122.064 88.0092 122.068 88.0313 122.073L125.823 130.955C126.682 131.158 127.352 131.786 127.613 132.638C127.874 133.491 127.673 134.393 127.075 135.05L124.362 138.033C123.896 138.545 123.239 138.836 122.552 138.836L122.552 138.835ZM86.0621 135.256L122.43 136.076L124.743 133.533L87.4412 124.766L51.1039 118.103C50.624 118.014 50.1459 118.25 49.9146 118.687L49.6379 119.211C49.483 119.503 49.4604 119.837 49.5736 120.148C49.6856 120.458 49.9133 120.694 50.2145 120.816L86.0615 135.256L86.0621 135.256Z" fill="#39005E"/>
<path d="M152.318 106.615C152.312 107.259 152.058 107.886 151.594 108.359C145.326 114.752 131.159 129.199 125.215 135.261C123.491 137.019 121.108 137.96 118.66 137.846C110.303 137.457 90.8965 136.557 86.7451 136.367C86.2187 136.343 85.7021 136.237 85.2099 136.05C80.5425 134.286 55.2032 124.722 47.9196 121.972C46.8288 121.559 46.254 120.349 46.6237 119.235C46.8018 118.701 46.9898 118.125 47.1605 117.602C47.3215 117.122 47.6668 116.723 48.1216 116.499C48.5727 116.278 49.0961 116.247 49.5717 116.416C56.7665 118.987 83.0216 128.368 83.0216 128.368C83.0216 128.368 106.008 105.136 113.617 97.4473C115.108 95.9376 117.286 95.3417 119.331 95.8827C126.338 97.7335 142.679 102.052 150.439 104.103C151.311 104.333 151.995 105.016 152.234 105.895C152.299 106.132 152.329 106.374 152.32 106.615L152.318 106.615Z" fill="#A6A6A6"/>
<g opacity="0.6">
<path d="M152.316 106.614C152.312 106.938 152.248 107.255 152.124 107.555C151.855 107.345 151.543 107.186 151.204 107.093C143.445 105.043 127.103 100.724 120.097 98.8732C118.051 98.3322 115.874 98.9281 114.382 100.438C107.792 107.098 89.6638 125.42 84.9302 130.204C84.2312 130.91 83.1955 131.147 82.2626 130.814C76.5577 128.776 56.4862 121.604 50.3375 119.406C49.8625 119.237 49.3391 119.269 48.8874 119.489C48.4326 119.713 48.0873 120.113 47.9264 120.592C47.8033 120.975 47.6699 121.381 47.5364 121.781C46.6984 121.26 46.2951 120.21 46.6201 119.234C46.7982 118.7 46.9861 118.124 47.1569 117.601C47.3179 117.121 47.6631 116.722 48.118 116.498C48.5691 116.277 49.0924 116.246 49.5681 116.415C56.7629 118.986 83.018 128.367 83.018 128.367C83.018 128.367 106.004 105.135 113.613 97.4463C115.104 95.9367 117.282 95.3407 119.327 95.8818C126.334 97.7325 142.676 102.051 150.435 104.102C151.307 104.332 151.991 105.015 152.23 105.894C152.295 106.131 152.326 106.373 152.316 106.614Z" fill="white"/>
</g>
<path d="M119.054 139.233C118.901 139.233 118.749 139.229 118.596 139.223L86.6792 137.744C86.0126 137.714 85.3564 137.578 84.729 137.342L47.4399 123.264C45.65 122.588 44.7208 120.627 45.3244 118.799L45.8624 117.169C46.136 116.341 46.739 115.646 47.5176 115.263C48.2968 114.879 49.2113 114.827 50.0273 115.119L82.6625 126.778L112.645 96.4738C114.475 94.6236 117.169 93.8858 119.677 94.549L150.781 102.77C152.123 103.125 153.184 104.182 153.55 105.531C153.917 106.879 153.539 108.334 152.564 109.329L126.185 136.232C124.3 138.153 121.722 139.233 119.053 139.233H119.054ZM48.9426 117.688C48.8655 117.688 48.7883 117.705 48.7186 117.74C48.5968 117.8 48.5019 117.91 48.4584 118.04L47.9204 119.67C47.7832 120.085 47.9938 120.529 48.3997 120.682L85.6882 134.76C86.0475 134.895 86.4227 134.973 86.8047 134.99L118.721 136.469C120.779 136.564 122.791 135.771 124.24 134.295L150.619 107.392C150.91 107.095 151.022 106.662 150.913 106.26C150.804 105.859 150.488 105.543 150.088 105.438L118.984 97.2166C117.415 96.802 115.729 97.2635 114.583 98.4208L83.9895 129.342C83.6168 129.719 83.0616 129.845 82.5639 129.668L49.1134 117.717C49.0583 117.697 49.0008 117.687 48.9432 117.687L48.9426 117.688Z" fill="#39005E"/>
<path d="M88.0393 131.688C87.874 131.688 87.7075 131.658 87.5477 131.596L82.5559 129.658C82.1256 129.49 81.8079 129.117 81.7106 128.662C81.6132 128.208 81.7491 127.735 82.073 127.404C82.3025 127.17 105.088 103.845 112.679 96.4096C114.235 94.8846 116.84 94.1066 118.879 96.0018C119.669 96.7366 120.103 97.7971 120.1 98.9865C120.096 100.464 119.425 101.998 118.347 102.989C110.455 110.245 89.2078 131.088 88.9942 131.297C88.734 131.553 88.39 131.689 88.0399 131.689L88.0393 131.688ZM85.4861 127.84L87.7136 128.705C91.3111 125.18 109.348 107.528 116.503 100.951C117.016 100.479 117.362 99.6861 117.364 98.9785C117.365 98.6898 117.307 98.2906 117.024 98.0278C115.991 97.0666 114.726 98.248 114.586 98.3862C108.138 104.702 90.6653 122.546 85.4867 127.84H85.4861Z" fill="#39005E"/>
<path d="M85.9501 137.294C85.8038 137.294 85.655 137.27 85.5093 137.22C84.7944 136.974 84.4118 136.191 84.6554 135.471L86.5487 129.865C86.7917 129.145 87.5691 128.759 88.2841 129.005C88.999 129.25 89.3816 130.033 89.138 130.754L87.2447 136.359C87.0513 136.932 86.5194 137.294 85.9501 137.294Z" fill="#39005E"/>
<path d="M126.905 134.491C126.873 134.491 126.84 134.49 126.807 134.487L87.7472 131.684C86.9937 131.63 86.4262 130.971 86.4801 130.211C86.534 129.452 87.1908 128.88 87.9418 128.934L127.001 131.737C127.755 131.791 128.322 132.451 128.268 133.21C128.217 133.936 127.616 134.491 126.905 134.491Z" fill="#39005E"/>
<g opacity="0.2">
<path d="M152.318 106.615C152.312 107.26 152.058 107.887 151.594 108.359C145.326 114.752 131.159 129.2 125.215 135.262C123.491 137.019 121.108 137.96 118.66 137.847C110.303 137.457 90.8965 136.558 86.7451 136.368C86.2187 136.344 85.7021 136.237 85.2099 136.051C80.5425 134.286 55.2032 124.723 47.9196 121.972C46.8288 121.559 46.254 120.349 46.6237 119.236C46.8018 118.701 81.1081 131.732 81.1081 131.732L83.6447 132.336C85.6617 132.817 87.7808 132.189 89.2187 130.685L118.595 99.9629C118.595 99.9629 138.155 104.753 146.362 106.973C149.47 107.814 151.276 107.425 152.319 106.615L152.318 106.615Z" fill="#39005E"/>
</g>
<path d="M123.774 120.944C125.543 119.62 126.306 117.634 125.477 116.508C124.647 115.382 122.541 115.542 120.771 116.866C119.001 118.19 118.239 120.176 119.068 121.302C119.897 122.428 122.004 122.268 123.774 120.944Z" fill="white"/>
<path d="M114.27 132.279C114.27 132.279 117.907 127.725 122.065 128.52C126.222 129.315 124.89 145.129 111.241 145.525C97.5911 145.921 97.0562 131.33 101.611 128.52C106.606 125.437 114.27 132.279 114.27 132.279Z" fill="#F2C5A9"/>
<g opacity="0.6">
<path d="M123.775 135.74C123.706 133.607 122.951 132.001 121.699 131.763C118.832 131.214 116.213 133.21 114.864 134.502C114.296 135.046 113.426 135.103 112.8 134.629C110.498 132.885 105.085 129.396 101.247 131.763C100.235 132.387 99.4757 133.593 99.0551 135.085C98.9456 132.19 99.9341 129.554 101.613 128.52C106.609 125.439 114.272 132.28 114.272 132.28C114.272 132.28 117.911 127.724 122.065 128.52C123.902 128.872 124.667 132.152 123.775 135.741V135.74Z" fill="white"/>
</g>
<path d="M110.731 146.911C104.457 146.911 99.7974 143.741 98.2083 138.355C96.8996 133.919 98.081 129.082 100.899 127.345C105.548 124.476 111.713 128.53 114.142 130.4C115.637 128.934 118.749 126.483 122.322 127.166C124.523 127.587 125.762 130.189 125.477 133.795C124.993 139.924 120.345 146.641 111.282 146.904C111.097 146.909 110.913 146.912 110.732 146.912L110.731 146.911ZM104.572 129.107C103.762 129.107 102.998 129.28 102.326 129.695C100.798 130.638 99.8071 134.103 100.83 137.568C101.435 139.619 103.663 144.37 111.202 144.147C119.678 143.9 122.448 137.386 122.749 133.575C122.926 131.341 122.307 129.968 121.812 129.874C118.55 129.25 115.368 133.104 115.337 133.143C115.102 133.437 114.759 133.621 114.386 133.652C114.013 133.683 113.644 133.56 113.364 133.31C111.822 131.938 107.834 129.106 104.573 129.106L104.572 129.107Z" fill="#39005E"/>
<path fill-rule="evenodd" clip-rule="evenodd" d="M70.9843 114.945C68.1018 117.602 66.05 112.284 66.05 112.284C66.05 112.284 59.3099 119.022 48.3163 113.291C48.3163 113.291 48.2238 113.377 48.039 113.521C46.5925 114.673 39.5005 119.639 27.7852 117.058L34.816 99.5776C34.816 99.5776 49.4995 91.7716 60.2024 95.6866C60.7564 95.8902 61.2895 96.1172 61.8025 96.3621C71.1924 100.891 73.7125 112.423 70.9837 114.945H70.9843Z" fill="#6F6F88"/>
<path d="M70.9864 114.945C68.104 117.602 66.0521 112.284 66.0521 112.284C66.0521 112.284 59.3121 119.022 48.3184 113.29C48.3184 113.29 48.226 113.377 48.0411 113.521C47.5863 110.881 46.0989 99.2498 54.3637 95.4551C54.3637 95.4551 57.8277 95.8413 61.8046 96.3613C71.1945 100.89 73.7146 112.422 70.9858 114.944L70.9864 114.945Z" fill="#F2C5A9"/>
<g opacity="0.6">
<path d="M35.4961 99.2347C35.4961 99.2347 48.2117 93.3794 59.0156 96.2709C68.8621 98.9058 71.8756 106.525 70.996 114.058C70.996 114.058 69.1798 101.872 57.8323 99.1026C46.4849 96.3333 35.4961 99.2347 35.4961 99.2347Z" fill="white"/>
</g>
<path d="M69.3665 117.067C69.0977 117.067 68.8529 117.032 68.6386 116.982C67.2461 116.654 66.2287 115.452 65.5829 114.402C62.9637 116.183 56.8927 118.995 48.3701 114.859C48.1008 114.927 47.8131 114.911 47.5456 114.807C47.0975 114.632 46.7731 114.234 46.6911 113.757C46.2565 111.236 44.5572 98.4418 53.7941 94.2004C54.0188 94.0974 54.2661 94.0573 54.5115 94.0844C54.5464 94.0881 58.0343 94.478 61.9782 94.9938C62.122 95.0129 62.2616 95.0542 62.3926 95.1172C69.2997 98.448 72.5544 105.063 73.2424 109.716C73.6629 112.558 73.1891 114.776 71.9086 115.959C71.9086 115.959 71.9074 115.96 71.9074 115.961C70.9769 116.818 70.0863 117.066 69.3671 117.066L69.3665 117.067ZM66.0494 110.906C66.1443 110.906 66.2391 110.915 66.3334 110.936C66.7845 111.032 67.1567 111.352 67.3238 111.785C67.6948 112.734 68.5756 114.138 69.2618 114.297C69.3401 114.315 69.5783 114.371 70.0588 113.929C70.4995 113.521 70.8368 112.156 70.5362 110.123C69.9076 105.874 66.8427 100.415 61.4046 97.6996C58.3367 97.2998 55.5858 96.9815 54.5985 96.8692C48.3867 100.025 48.7949 108.746 49.2283 112.212C59.0528 117.164 65.0265 111.365 65.0859 111.305C65.3448 111.047 65.6919 110.906 66.0494 110.906Z" fill="#39005E"/>
<g opacity="0.2">
<path d="M71.1793 107.707C71.1793 107.707 70.9296 111.695 66.365 107.707C66.365 107.707 57.7758 114.501 48.1367 107.707C48.1367 107.707 34.3622 112.729 27.7837 108.445C21.2053 104.162 23.1622 96.2715 23.1622 96.2715C23.1622 96.2715 11.5326 109.627 28.6793 117.16C28.6793 117.16 35.1273 119.761 48.3173 113.291C48.3173 113.291 53.4469 119.375 66.0498 112.286C66.0498 112.286 71.7651 122.625 71.1793 107.707Z" fill="#39005E"/>
</g>
<path fill-rule="evenodd" clip-rule="evenodd" d="M69.5708 113.819C69.0977 113.894 68.7488 113.551 68.4543 113.214C67.6898 112.338 67.2987 111.129 67.2987 111.129C67.1456 110.661 66.7667 110.305 66.2936 110.184C65.8204 110.062 65.3184 110.192 64.9622 110.529C62.4384 112.92 59.8436 113.88 57.509 114.083C52.991 114.476 49.4731 112.113 49.4731 112.113C48.9975 111.791 48.3756 111.791 47.9006 112.115C44.6325 114.346 41.2799 115.444 38.278 115.921C32.4574 116.848 27.9565 115.454 27.9565 115.454C27.236 115.227 26.4678 115.632 26.2425 116.358C26.0167 117.084 26.4188 117.858 27.1393 118.085C27.1393 118.085 32.1783 119.702 38.7065 118.686C41.8357 118.199 45.3064 117.109 48.7282 114.953C50.2334 115.766 53.6521 117.278 57.749 116.932C60.1619 116.728 62.8149 115.892 65.4458 113.884C65.8081 114.507 66.2807 115.171 66.8591 115.677C67.7939 116.494 68.9587 116.942 70.3213 116.609C71.1783 116.399 71.9801 115.706 72.4582 114.483C73.1217 112.786 73.2062 109.801 72.1895 106.573C70.975 102.717 68.2272 98.4904 63.2581 95.845C60.1528 94.2077 55.7688 93.6741 51.2697 93.9517C48.8971 94.0979 46.497 94.4607 44.2572 94.9468C42.4092 95.3484 40.6763 95.8339 39.1534 96.3472C36.9999 97.0727 35.2799 97.8457 34.2436 98.4824C33.9442 98.6416 33.8298 99.016 33.9883 99.3177C34.1462 99.6194 34.5178 99.7348 34.8171 99.575C35.8577 99.1006 37.5619 98.6194 39.6492 98.1579C41.1599 97.8241 42.8634 97.5212 44.6667 97.2652C46.8294 96.958 49.1266 96.7421 51.3915 96.6754C55.355 96.5588 59.2181 96.8926 61.934 98.3627C65.3288 100.183 67.4896 102.874 68.7316 105.562C69.8793 108.046 70.2497 110.524 70.0483 112.287C69.995 112.754 69.9038 113.162 69.7655 113.489C69.7153 113.607 69.6119 113.76 69.5708 113.819Z" fill="#39005E"/>
<g opacity="0.2">
<path d="M124.149 132.921C124.102 137.876 120.515 145.256 111.244 145.524C99.32 145.869 97.4053 134.781 100.148 130.098C100.418 135.757 105.817 140.275 112.441 140.275C117.912 140.275 122.552 137.187 124.149 132.921Z" fill="#39005E"/>
</g>
<path d="M75.1022 62.9793L62.4544 51.6104L61.1669 52.8502L67.1791 58.5145C65.8699 59.0905 64.8967 60.2067 64.6458 61.6432C64.2127 64.1258 66.1008 66.5559 68.8149 67.0894C70.995 67.5171 73.0461 66.5813 73.9892 64.9315L74.0045 64.9456L75.1009 62.9775L75.1022 62.9793Z" fill="black"/>
<path d="M90.0873 66.1668L103.61 61.5167L104.063 62.969L97.8933 65.3404C98.6451 66.2861 98.9589 67.5421 98.6372 68.802C98.0815 70.9825 95.8249 72.3794 93.5609 71.9344C91.6877 71.5664 90.39 70.0468 90.2503 68.2767L90.2331 68.2837L90.0873 66.1668Z" fill="black"/>
</svg>
