<svg width="184" height="212" viewBox="0 0 184 212" fill="none" xmlns="http://www.w3.org/2000/svg">
<g clip-path="url(#clip0_1819_17211)">
<g opacity="0.2">
<path d="M70.1047 212C107.964 212 138.655 208.766 138.655 204.777C138.655 200.788 107.964 197.555 70.1047 197.555C32.2456 197.555 1.55469 200.788 1.55469 204.777C1.55469 208.766 32.2456 212 70.1047 212Z" fill="#39005E"/>
</g>
<path d="M15.8517 72.7803L6.99219 79.1715L25.2542 104.518L34.1138 98.1268L15.8517 72.7803Z" fill="#FFC470"/>
<path d="M14.0215 66.7549C13.4013 65.8944 12.202 65.7003 11.342 66.3201C9.05882 67.9675 4.81642 71.0271 2.43937 72.742C1.9805 73.0725 1.67251 73.5727 1.58213 74.1306C1.49174 74.6892 1.62662 75.2611 1.95756 75.7195C2.50541 76.4806 3.15547 77.3829 3.73739 78.1899C4.60923 79.3997 6.2959 79.6731 7.50494 78.8014C10.0482 76.9669 14.1592 74.0012 16.2282 72.5083C16.9332 71.9997 17.0924 71.016 16.5842 70.3106C15.8465 69.2872 14.8078 67.8458 14.0215 66.7543V66.7549Z" fill="#FFC470"/>
<path d="M21.9047 100.825C21.8351 100.825 21.7642 100.817 21.6926 100.801C21.1691 100.684 20.8396 100.165 20.9557 99.6414L23.7165 87.2332L12.2964 86.461C11.9995 86.4408 11.7276 86.2857 11.5594 86.0394C11.3918 85.7931 11.346 85.4835 11.4356 85.199L15.4507 72.4874C15.612 71.9754 16.1585 71.6923 16.6695 71.8537C17.1805 72.0158 17.4641 72.5612 17.3028 73.0732L13.6597 84.6063L24.9749 85.3715C25.2572 85.3903 25.5172 85.5322 25.6868 85.759C25.8565 85.9858 25.9183 86.2752 25.8572 86.5521L22.8509 100.065C22.7501 100.518 22.3489 100.826 21.904 100.826L21.9047 100.825Z" fill="#39005E"/>
<path d="M25.2542 106.073C24.7717 106.073 24.2962 105.849 23.9931 105.427L5.731 80.0807C5.22903 79.3843 5.38685 78.4124 6.0828 77.9108L14.943 71.5189C15.2774 71.2775 15.6939 71.1794 16.1006 71.2455C16.5073 71.3116 16.8709 71.5363 17.1122 71.8709L35.3743 97.2174C35.6148 97.5521 35.7135 97.9688 35.6475 98.3758C35.5814 98.7827 35.3569 99.1466 35.0225 99.388L26.1622 105.779C25.8876 105.978 25.5699 106.073 25.2549 106.073H25.2542ZM9.15996 79.5234L25.6046 102.348L31.9439 97.7747L15.4992 74.95L9.15996 79.5234Z" fill="#39005E"/>
<path d="M5.93205 80.8655C4.61038 80.8655 3.30679 80.2526 2.47667 79.1005L0.696835 76.6302C0.12117 75.8315 -0.108957 74.8562 0.0481689 73.8829C0.20599 72.9103 0.732293 72.0581 1.53044 71.4821L10.4331 65.0602C11.987 63.9388 14.1617 64.2922 15.281 65.8464L17.8437 69.4027C18.8518 70.8024 18.5341 72.7622 17.1353 73.7709L8.41199 80.0641C7.66113 80.6053 6.79207 80.8662 5.93066 80.8662L5.93205 80.8655ZM12.4646 67.5125C12.3902 67.5125 12.3158 67.5348 12.2512 67.5814L3.34851 74.0033C3.22545 74.0923 3.14063 74.2294 3.1163 74.3796C3.09196 74.5299 3.12881 74.6871 3.2178 74.8103L4.99833 77.2813C5.17701 77.5297 5.4419 77.6932 5.74433 77.7426C6.04746 77.792 6.3492 77.7203 6.5974 77.5408L15.3207 71.2477L14.1186 69.5446L12.7629 67.6628C12.6919 67.564 12.58 67.5111 12.466 67.5111L12.4646 67.5125Z" fill="#39005E"/>
<path d="M30.2976 94.3388C30.274 94.3388 30.2497 94.3381 30.2253 94.3361L16.8112 93.3517C16.5185 93.3301 16.2508 93.177 16.084 92.9356C15.9171 92.6942 15.8678 92.3895 15.9512 92.1078L19.2731 80.8279L6.95122 80.2818C6.41518 80.2582 6.00012 79.8039 6.02446 79.2682C6.04879 78.7326 6.5007 78.3151 7.03743 78.3402L20.5982 78.9413C20.8965 78.9545 21.1718 79.104 21.3456 79.3475C21.5194 79.591 21.5709 79.8999 21.4868 80.1865L18.1544 91.5004L30.3678 92.3965C30.9025 92.4354 31.3043 92.9015 31.2654 93.4365C31.2279 93.9479 30.8017 94.3367 30.2983 94.3374L30.2976 94.3388Z" fill="#39005E"/>
<path d="M37.0483 89.1128L16.3828 104.02L19.6546 108.561L40.3195 93.6528L37.0483 89.1128Z" fill="#FFC470"/>
<path d="M19.6538 110.115C19.1713 110.115 18.6957 109.891 18.3926 109.469L15.1215 104.929C14.8802 104.595 14.7822 104.178 14.8482 103.771C14.9143 103.364 15.1389 103 15.4733 102.759L36.1381 87.8508C36.834 87.3485 37.8053 87.5064 38.3066 88.2028L41.5777 92.7429C41.819 93.0775 41.917 93.4942 41.851 93.9012C41.7849 94.3082 41.5603 94.672 41.2259 94.9134L20.5611 109.821C20.2865 110.019 19.9687 110.115 19.6538 110.115ZM18.5497 104.372L20.0042 106.39L38.1488 93.3008L36.6943 91.2826L18.5497 104.372Z" fill="#39005E"/>
<path d="M28.3501 42.0513C28.3501 42.0513 20.6085 34.5024 14.9137 29.9158C14.9137 29.9158 10.3251 33.868 6.99414 36.3599C6.99414 36.3599 16.1957 41.8989 20.5549 47.3329C20.5549 47.3329 16.8826 48.142 13.7951 49.9076C10.1339 52.001 6.99345 54.8957 2.93876 54.1172C2.93876 54.1172 1.266 58.8848 2.93876 63.566C2.93876 63.566 17.2838 58.5627 28.3487 51.1167V42.0506L28.3501 42.0513Z" fill="#23FF81"/>
<path d="M2.93765 65.1215C2.29941 65.1215 1.7015 64.7249 1.47485 64.0898C-0.361993 58.9494 1.39629 53.8194 1.47207 53.603C1.72723 52.8767 2.47531 52.4461 3.23105 52.5908C5.82501 53.0896 8.08804 51.6489 10.7063 49.9813C11.451 49.5068 12.2213 49.0164 13.0229 48.5579C14.6324 47.6375 16.3705 46.9655 17.736 46.5168C13.2614 41.9754 6.27067 37.7393 6.19141 37.692C5.74854 37.4249 5.46696 36.9546 5.44124 36.4377C5.41551 35.9208 5.64842 35.4248 6.06279 35.1152C9.31237 32.6845 13.8537 28.7768 13.8989 28.7379C14.4669 28.2488 15.3026 28.2349 15.8866 28.7052C21.5731 33.2856 29.1144 40.6278 29.4328 40.9381C29.7332 41.231 29.9021 41.6324 29.9021 42.0512V51.1174C29.9021 51.6349 29.6449 52.1184 29.2152 52.4072C18.1114 59.8788 4.04309 64.8272 3.44935 65.0345C3.28041 65.0936 3.10729 65.1215 2.93765 65.1215ZM4.09802 55.8021C3.82548 57.0794 3.53348 59.2485 3.984 61.5255C7.86417 60.0569 18.2553 55.8828 26.7944 50.2839V42.7107C25.1571 41.1315 19.5527 35.7761 14.9328 31.9415C13.7508 32.9426 11.6915 34.6672 9.70032 36.2374C12.6948 38.1999 18.4757 42.2613 21.7649 46.361C22.1014 46.7805 22.1974 47.344 22.0187 47.8511C21.84 48.3583 21.4125 48.7367 20.8875 48.8529C20.8542 48.8599 17.3988 49.6383 14.565 51.2586C13.8273 51.6802 13.089 52.1504 12.3749 52.6054C9.84424 54.2173 7.23498 55.8835 4.09871 55.8021H4.09802Z" fill="#39005E"/>
<path d="M107.535 155.338C107.535 155.338 107.566 155.392 107.624 155.497C107.974 156.131 109.275 158.591 109.818 161.082C110.37 163.566 110.168 166.08 107.534 166.837C107.534 166.837 108.047 168.081 108.824 170.11C111.038 175.897 115.392 188.069 116.114 196.009C116.386 199.036 116.134 201.446 115.035 202.655C110.036 208.146 88.6126 205.779 85.8316 202.655C83.0471 199.53 88.2281 195.893 88.2281 195.893C88.2281 195.893 84.6976 181.583 75.9549 173.212C75.9549 173.212 72.5523 174.961 63.802 173.212C63.802 173.212 55.9839 177.102 52.1461 192.279C52.1461 192.279 57.3271 197.747 55.9832 202.655C54.6435 207.564 25.0364 208.8 20.8378 197.747C20.0841 195.765 19.7699 193.344 19.7657 190.704C19.7462 180.759 24.0964 167.74 25.6148 163.499C25.9374 162.606 26.1314 162.1 26.1314 162.1C26.1314 162.1 22.1309 159.423 23.4206 154.316C23.9643 152.155 25.4556 149.555 28.6016 146.539C28.7455 146.403 28.8887 146.267 29.0403 146.128L31.4208 132.786L31.5606 132.001C31.5606 132.001 23.8162 128.849 22.2776 121.181C21.4273 116.929 25.1747 105.239 37.3123 98.8036C45.7325 94.3346 58.192 92.3992 75.9535 97.2258C85.9588 99.946 97.1718 107.633 106.346 117.027C108.742 119.479 110.998 122.049 113.053 124.675C118.631 131.78 122.763 139.32 124.309 146.128C124.309 146.128 119.427 154.511 107.534 155.339L107.535 155.338Z" fill="#6F6F88"/>
<g opacity="0.2">
<path d="M107.535 155.338C107.535 155.338 107.566 155.392 107.624 155.497C63.9841 160.989 36.6491 150.328 28.6016 146.539C28.7455 146.402 28.8887 146.267 29.0403 146.127L31.4208 132.785C42.3543 134.098 53.7612 129.451 53.7612 129.451C95.8702 151.477 98.702 120.157 98.702 120.157C104.454 132.576 109.989 126.87 113.053 124.674C118.631 131.778 122.763 139.318 124.309 146.127C124.309 146.127 119.427 154.51 107.534 155.338H107.535Z" fill="#39005E"/>
</g>
<g opacity="0.2">
<path d="M115.035 202.655C110.036 208.147 88.6125 205.779 85.8315 202.655C83.047 199.53 88.228 195.893 88.228 195.893C88.228 195.893 84.6976 181.583 75.9548 173.212C75.9548 173.212 72.5523 174.961 63.8019 173.212C63.8019 173.212 55.9838 177.102 52.1461 192.279C52.1461 192.279 57.3271 197.747 55.9831 202.655C54.6434 207.564 25.0363 208.8 20.8377 197.747C20.084 195.765 19.7698 193.344 19.7656 190.704C22.3172 193.402 27.3862 197.926 34.0738 199.74C43.8963 202.402 48.5572 199.238 48.2228 196.405C47.9669 194.236 42.423 194.125 38.6527 194.378C37.4221 194.46 36.7012 193.034 37.4812 192.078C38.9343 190.299 41.5846 188.031 46.1871 186.747C46.1871 186.747 47.1194 183.578 48.626 180.024C49.9644 176.867 48.2374 173.252 44.9266 172.365C39.4015 170.884 31.6182 168.152 25.6133 163.499C25.9359 162.605 26.1299 162.1 26.1299 162.1C26.1299 162.1 22.1295 159.422 23.4191 154.315C28.4062 157.211 42.528 164.19 63.5676 164.665C63.5676 164.665 64.8684 167.945 71.0248 167.77C77.1847 167.592 83.3717 162.928 83.3717 162.928C83.3717 162.928 97.1675 165.139 109.818 161.081C110.369 163.565 110.167 166.079 107.534 166.837C107.534 166.837 108.046 168.081 108.823 170.109C105.767 171.294 100.843 172.788 94.2148 173.482C90.5508 173.865 88.2551 177.632 89.5671 181.077C90.7323 184.138 91.9448 187.561 92.558 190.032C92.558 190.032 95.1742 190.276 99.0016 193.148C100.023 193.914 99.5585 195.537 98.2883 195.665C95.2139 195.974 91.1425 196.81 90.8331 199.071C90.4139 202.153 109.305 202.063 116.114 196.008C116.386 199.036 116.133 201.445 115.034 202.654L115.035 202.655Z" fill="#39005E"/>
</g>
<path d="M42.2642 207.824C32.3089 207.824 21.924 204.984 19.3836 198.298C15.4756 188.013 22.5059 167.468 24.2941 162.572C23.2915 161.584 21.8475 159.712 21.6334 156.985C21.3449 153.308 23.3513 149.395 27.5986 145.349L29.8206 132.887C27.4304 131.616 22.0783 128.091 20.7546 121.488C19.9947 117.696 22.2056 109.288 29.5015 102.463C36.86 95.5793 50.9631 88.8228 76.3605 95.7268C86.0063 98.3488 97.1748 105.548 107.003 115.479C116.853 125.432 123.712 136.479 125.823 145.786C125.91 146.17 125.848 146.572 125.65 146.912C125.448 147.26 120.849 154.949 109.928 156.636C110.989 158.985 112.294 162.784 111.199 165.506C110.846 166.383 110.275 167.095 109.516 167.614C110.532 170.188 112.773 176.051 114.644 182.238C119.355 197.817 117.778 201.949 116.182 203.702C113.281 206.889 106.746 207.531 101.792 207.498C95.1023 207.461 86.8274 206.114 84.6687 203.689C83.744 202.651 83.3345 201.416 83.4847 200.118C83.728 198.018 85.3876 196.254 86.4569 195.318C85.5378 192.153 82.1498 181.777 75.5519 175.001C73.8812 175.47 70.2854 176.014 64.088 174.85C62.5501 175.869 56.9895 180.244 53.8546 191.877C55.2903 193.612 58.7519 198.416 57.481 203.066C56.459 206.804 48.2558 207.597 44.7761 207.765C43.946 207.805 43.1054 207.825 42.2642 207.825V207.824ZM56.6676 95.9459C44.1907 95.9459 36.3601 100.302 31.6241 104.733C25.0436 110.889 23.2825 118.284 23.8019 120.876C25.1506 127.604 32.0767 130.533 32.1462 130.561C32.8213 130.839 33.2155 131.553 33.0869 132.272L30.5673 146.402C30.5082 146.735 30.3414 147.04 30.0932 147.27C26.3903 150.698 24.5347 153.957 24.7286 156.697C24.915 159.339 26.918 160.754 27.0028 160.814C27.593 161.222 27.8371 161.989 27.5784 162.659C27.486 162.9 18.3483 186.825 22.2883 197.193C24.2663 202.399 33.5916 204.488 40.9759 204.693C49.0275 204.916 54.0542 203.209 54.4894 202.23C55.3911 198.928 52.2882 194.697 51.0159 193.346C50.6516 192.959 50.5084 192.412 50.6391 191.897C54.6069 176.208 62.7628 171.99 63.1084 171.818C63.4171 171.664 63.7675 171.618 64.1054 171.685C72.0353 173.272 75.2383 171.829 75.2696 171.814C75.8585 171.511 76.551 171.628 77.0293 172.086C85.9959 180.673 89.5876 194.917 89.7356 195.519C89.8893 196.142 89.6446 196.795 89.1204 197.164C88.5099 197.597 86.7231 199.141 86.5716 200.478C86.5403 200.756 86.5591 201.137 86.9894 201.62C87.9468 202.694 94.3458 204.347 101.81 204.388C107.76 204.41 112.271 203.381 113.886 201.606C114.479 200.955 116.072 197.699 111.677 183.156C109.228 175.054 106.127 167.504 106.096 167.429C105.928 167.02 105.941 166.559 106.133 166.161C106.325 165.762 106.677 165.465 107.102 165.342C107.916 165.108 108.179 164.685 108.317 164.343C109.101 162.399 107.426 158.265 106.187 156.116C105.92 155.652 105.909 155.081 106.161 154.608C106.413 154.135 106.889 153.824 107.424 153.787C116.8 153.135 121.426 147.56 122.642 145.836C118.07 127.497 94.5509 103.89 75.547 98.7252C68.3053 96.7571 62.0537 95.9445 56.6676 95.9445V95.9459Z" fill="#39005E"/>
<path fill-rule="evenodd" clip-rule="evenodd" d="M89.1725 197.233C89.1725 197.233 90.3468 196.181 92.9039 195.776C94.1387 195.582 95.6432 195.506 97.462 195.734C97.9034 195.824 98.3352 195.538 98.4249 195.096C98.5146 194.654 98.2288 194.222 97.7873 194.133C95.2803 193.421 93.2397 193.34 91.6532 193.463C88.7331 193.692 87.2787 194.768 87.2787 194.768C86.5987 195.291 86.4708 196.268 86.9936 196.948C87.5158 197.628 88.4919 197.756 89.1718 197.233H89.1725Z" fill="#39005E"/>
<path fill-rule="evenodd" clip-rule="evenodd" d="M52.8982 190.854C52.8982 190.854 50.7624 189.846 47.0776 190.064C44.9341 190.19 42.24 190.7 39.1267 192.134C38.7075 192.299 38.501 192.775 38.6665 193.194C38.8319 193.614 39.3068 193.82 39.726 193.655C42.0829 192.875 44.1367 192.593 45.8637 192.558C49.4852 192.484 51.5077 193.634 51.5077 193.634C52.2746 194.019 53.2083 193.708 53.5927 192.941C53.9765 192.174 53.6657 191.239 52.8989 190.854H52.8982Z" fill="#39005E"/>
<path d="M69.975 175.422C63.9347 175.422 59.5887 171.763 58.1329 170.346C44.7424 170.559 26.3336 163.429 25.5431 163.12C24.7443 162.807 24.3494 161.906 24.6616 161.106C24.9737 160.307 25.8748 159.912 26.6736 160.224C26.8648 160.298 45.9327 167.681 58.7169 167.221C59.1778 167.204 59.6304 167.397 59.9384 167.746C59.9767 167.788 64.0758 172.313 69.9764 172.313C75.2707 172.313 78.1748 170.776 82.3191 167.548C82.6 167.329 82.949 167.21 83.3029 167.22C83.4795 167.223 101.002 167.524 107.007 165.374C107.815 165.085 108.704 165.506 108.993 166.315C109.282 167.123 108.862 168.013 108.053 168.302C102.078 170.44 86.9272 170.375 83.7931 170.337C79.4784 173.638 75.909 175.422 69.9764 175.422H69.975Z" fill="#39005E"/>
<path d="M28.875 146.323C28.875 146.323 49.35 161.759 107.884 154.831L106.508 147.904C106.508 147.904 54.8912 154.831 30.1584 140.065L28.875 146.324V146.323Z" fill="#23FF81"/>
<g opacity="0.2">
<path d="M107.886 154.833C49.3507 161.758 28.875 146.322 28.875 146.322L29.516 143.205C33.3691 145.646 55.0566 157.406 107.199 151.358L107.886 154.833H107.886Z" fill="#39005E"/>
</g>
<path d="M40.3204 144.489C40.2606 144.467 63.4875 137.905 96.3108 108.56L99.8357 111.082C99.8357 111.082 81.5562 129.811 51.849 146.729C51.849 146.729 46.488 146.729 40.3204 144.489Z" fill="#6F6F88"/>
<path d="M79.5424 158.159C64.4701 158.159 53.4748 156.47 46.0648 154.687C33.4607 151.654 28.1587 147.731 27.939 147.566C27.46 147.205 27.2313 146.599 27.3522 146.012L28.6357 139.753C28.7365 139.26 29.0702 138.847 29.5311 138.644C29.9914 138.44 30.5212 138.473 30.9536 138.731C54.9334 153.048 105.791 146.432 106.302 146.364C107.112 146.254 107.872 146.797 108.032 147.601L109.408 154.529C109.493 154.954 109.396 155.395 109.141 155.746C108.887 156.096 108.497 156.324 108.067 156.375C97.2844 157.651 87.8012 158.158 79.5438 158.158L79.5424 158.159ZM30.6081 145.601C32.4734 146.735 37.6704 149.5 47.0889 151.735C58.0724 154.341 77.1514 156.724 106.031 153.48L105.264 149.62C101.432 150.06 90.4473 151.167 77.5964 151.076C57.3389 150.932 41.7654 148.036 31.2519 142.464L30.6081 145.601Z" fill="#39005E"/>
<path d="M51.8477 148.284C51.6176 148.284 46.1404 148.257 39.7893 145.95C39.165 145.723 38.7534 145.124 38.7659 144.459C38.7722 144.125 38.9029 143.309 39.9749 142.965C44.0136 141.672 65.6595 133.878 95.2742 107.402C95.8165 106.918 96.6216 106.874 97.2126 107.296L100.737 109.818C101.107 110.081 101.342 110.493 101.381 110.946C101.422 111.397 101.262 111.844 100.945 112.169C100.761 112.357 82.1709 131.249 52.6152 148.08C52.3809 148.214 52.116 148.284 51.847 148.284H51.8477ZM45.2887 144.316C48.2296 144.973 50.5615 145.127 51.4549 145.163C76.0207 131.115 92.7901 115.73 97.4253 111.27L96.4144 110.548C72.5994 131.646 53.85 140.842 45.288 144.317L45.2887 144.316Z" fill="#39005E"/>
<g opacity="0.2">
<path d="M106.346 117.026C97.9332 120.291 85.9861 121.173 73.2158 118.861C55.8937 115.725 42.0471 107.61 37.3125 98.8036C45.7326 94.3346 58.1922 92.3992 75.9537 97.2258C85.959 99.946 97.1719 107.633 106.346 117.027V117.026Z" fill="#39005E"/>
</g>
<path d="M73.4688 151.607C73.4688 151.607 77.6903 162.18 84.0442 169.005C85.1475 170.154 86.8676 170.458 88.2977 169.756C89.49 169.163 90.9348 168.268 92.2196 167.001C93.5976 165.661 93.6295 163.457 92.2912 162.077C89.367 159.089 83.6242 153.644 77.6653 150.105L73.4694 151.607H73.4688Z" fill="#23FF81"/>
<g opacity="0.2">
<path d="M92.2203 167.001C90.9348 168.268 89.49 169.162 88.2977 169.757C86.8683 170.46 85.1475 170.153 84.0449 169.007C77.691 162.182 73.4688 151.608 73.4688 151.608L76.2303 150.616C78.0831 154.161 80.7821 158.649 84.0449 162.151C85.1482 163.301 86.8683 163.604 88.2977 162.905C89.1946 162.458 90.2319 161.84 91.2414 161.024C91.6217 161.401 91.9714 161.754 92.2898 162.077C93.6295 163.456 93.5989 165.66 92.2196 167.001H92.2203Z" fill="#39005E"/>
</g>
<path d="M86.6767 171.688C85.2911 171.688 83.9319 171.133 82.9224 170.082C76.4295 163.107 72.2016 152.627 72.0251 152.184C71.8686 151.793 71.8777 151.354 72.0515 150.969C72.2246 150.584 72.5472 150.287 72.9442 150.144L77.14 148.641C77.5759 148.485 78.0591 148.531 78.4568 148.768C84.6584 152.452 90.4811 158.007 93.3997 160.99C95.3367 162.986 95.2901 166.18 93.301 168.115C92.101 169.299 90.6473 170.322 88.9884 171.148C88.248 171.511 87.4582 171.688 86.6767 171.688ZM75.5493 152.513C76.9377 155.612 80.4848 162.903 85.1798 167.946C85.8014 168.593 86.7859 168.767 87.6118 168.361C88.542 167.898 89.9145 167.09 91.127 165.893C91.8966 165.145 91.914 163.923 91.1743 163.16C88.9912 160.929 83.3847 155.463 77.4904 151.818L75.5486 152.513H75.5493Z" fill="#39005E"/>
<path d="M69.5 150.104C69.5 150.104 60.2101 153.878 52.9476 160.631C52.0618 161.465 51.6711 162.7 51.9151 163.893C52.212 165.338 53.0234 167.293 55.1355 169.046C56.5156 170.192 58.5471 170.08 59.793 168.788C62.8813 165.57 68.8312 158.999 71.64 153.294L69.5 150.104Z" fill="#23FF81"/>
<g opacity="0.2">
<path d="M71.6384 153.294C68.8303 158.999 62.8804 165.571 59.7921 168.789C58.5455 170.079 56.514 170.192 55.1353 169.045C53.0225 167.293 52.2104 165.338 51.9157 163.892C51.6709 162.699 52.0596 161.467 52.9488 160.631C53.0809 160.511 53.2088 160.39 53.3409 160.274C53.7956 160.918 54.3817 161.568 55.1353 162.194C56.514 163.34 58.5455 163.227 59.7921 161.937C62.231 159.395 66.4568 154.762 69.5061 150.115L71.6384 153.294Z" fill="#39005E"/>
</g>
<path d="M57.321 171.384C56.1947 171.384 55.0649 171.007 54.1444 170.242C51.6436 168.167 50.7245 165.815 50.3942 164.207C50.039 162.473 50.5958 160.713 51.8834 159.501C59.2774 152.626 68.5263 148.823 68.9163 148.665C69.5977 148.388 70.3805 148.628 70.7907 149.239L72.9307 152.429C73.2407 152.891 73.2804 153.484 73.0343 153.982C70.1705 159.799 64.2116 166.431 60.9147 169.866C59.9441 170.872 58.6343 171.385 57.3217 171.385L57.321 171.384ZM68.9365 152.052C66.2737 153.276 59.4943 156.668 54.006 161.771C53.5159 162.233 53.3011 162.912 53.438 163.582C53.6674 164.7 54.321 166.35 56.1279 167.849C56.8795 168.473 57.9981 168.412 58.676 167.709C61.6934 164.565 67.0231 158.653 69.8396 153.399L68.9358 152.052H68.9365Z" fill="#39005E"/>
<path d="M73.468 142.716C77.7619 142.716 81.2478 145.831 81.2478 149.667C81.2478 153.504 77.7619 156.619 73.468 156.619C69.1742 156.619 65.6875 153.505 65.6875 149.667C65.6875 145.83 69.1735 142.716 73.468 142.716Z" fill="#23FF81"/>
<path d="M73.468 142.716C77.7619 142.716 81.2478 145.831 81.2478 149.667C81.2478 153.504 77.7619 156.619 73.468 156.619C69.1742 156.619 65.6875 153.505 65.6875 149.667C65.6875 145.83 69.1735 142.716 73.468 142.716Z" fill="#23FF81"/>
<g opacity="0.2">
<path d="M81.2471 149.668C81.2471 153.504 77.7633 156.621 73.4673 156.621C69.1714 156.621 65.6875 153.504 65.6875 149.668C65.6875 148.595 65.9635 147.577 66.453 146.667C67.7072 149.003 70.3797 150.616 73.4673 150.616C76.5549 150.616 79.2309 149.004 80.4858 146.667C80.9753 147.577 81.2471 148.595 81.2471 149.668Z" fill="#39005E"/>
</g>
<path d="M73.4665 158.174C68.3196 158.174 64.1328 154.358 64.1328 149.667C64.1328 144.976 68.3203 141.161 73.4665 141.161C78.6127 141.161 82.8002 144.977 82.8002 149.667C82.8002 154.358 78.6134 158.174 73.4665 158.174ZM73.4665 144.271C70.0334 144.271 67.2399 146.692 67.2399 149.668C67.2399 152.644 70.0334 155.065 73.4665 155.065C76.8996 155.065 79.6931 152.644 79.6931 149.668C79.6931 146.692 76.9003 144.271 73.4665 144.271Z" fill="#39005E"/>
<path fill-rule="evenodd" clip-rule="evenodd" d="M106.331 146.871C106.331 146.871 106.769 140.941 104.178 131.555C103.04 127.43 101.32 122.626 98.7034 117.358C98.5052 116.934 97.9991 116.75 97.575 116.949C97.1509 117.147 96.9673 117.654 97.1662 118.078C99.4716 123.323 100.929 128.075 101.849 132.141C103.864 141.053 103.237 146.587 103.237 146.587C103.159 147.441 103.788 148.199 104.642 148.277C105.496 148.355 106.253 147.726 106.331 146.871V146.871Z" fill="#39005E"/>
<path d="M26.4001 49.0811C31.0819 25.8202 48.4874 -6.59731 95.1524 3.4268C136.768 12.3656 136.394 50.9205 132.589 60.7971C129.991 67.5417 125.809 78.6783 125.809 88.4728C125.809 95.4922 119.217 119.337 76.3634 111.652C34.1542 104.082 19.942 81.1695 26.4008 49.0804L26.4001 49.0811Z" fill="#6F6F88"/>
<g opacity="0.2">
<path d="M125.841 86.5611C125.822 87.0543 125.81 87.5483 125.81 88.038C125.81 95.0568 119.215 118.903 76.3637 111.216C34.1531 103.646 19.9416 80.7354 26.4011 48.6456C27.2632 44.3588 28.5606 39.761 30.3939 35.1758C30.3821 35.23 30.3703 35.2843 30.3592 35.3393C23.9003 67.4291 38.1154 90.3394 80.3217 97.9098C107.789 102.838 120.361 94.8084 125.842 86.5618L125.841 86.5611Z" fill="#39005E"/>
</g>
<path d="M133.944 54.584C133.657 57.1726 133.163 59.3098 132.588 60.7985C132.083 62.1085 131.52 63.5847 130.938 65.1862C131.726 61.4824 132.825 57.8488 133.944 54.584Z" fill="#23FF81"/>
<g opacity="0.6">
<path d="M133.45 40.9932C129.748 27.6006 119.627 13.202 96.2185 8.17288C91.8725 7.23997 87.7789 6.67646 83.9258 6.43923C83.7242 7.82643 80.663 9.14405 76.8301 9.43555C72.7984 9.74652 69.4389 8.80595 69.3263 7.33667C69.3221 7.29006 69.3221 7.24344 69.3263 7.20031C42.4647 12.0659 31.1085 35.7185 27.4655 53.8251C25.8226 61.9945 25.516 69.5684 26.6729 76.4473C24.3813 68.3635 24.3695 59.1763 26.401 49.0798C31.0807 25.821 48.4849 -6.5951 95.1506 3.42762C121.359 9.05918 130.914 26.4353 133.45 40.9932H133.45Z" fill="white"/>
</g>
<path d="M55.0993 45.6243C55.0993 45.6243 46.2954 67.3915 59.0609 77.0045C71.3946 86.2933 80.6525 76.8208 93.5855 79.1994C101.776 80.7055 105.42 90.0409 115.353 88.093C124.819 86.2369 125.123 70.0483 123.639 63.0602C123.639 63.0602 93.7134 47.792 55.0993 45.6243Z" fill="#F2C5A9"/>
<path d="M112.736 89.9115C107.826 89.9115 104.353 87.3062 101.231 84.9638C98.7075 83.0716 96.3249 81.2836 93.304 80.7285C88.5047 79.8457 84.1344 80.716 79.9087 81.5577C73.1481 82.9039 66.1588 84.296 58.1266 78.2463C44.5637 68.0329 53.2814 45.9749 53.6596 45.0406C53.9092 44.4242 54.5211 44.0346 55.1871 44.0715C93.6823 46.233 124.043 61.5206 124.345 61.6751C124.763 61.888 125.062 62.2782 125.16 62.7367C126.275 67.9884 126.503 78.6533 122.369 84.9137C120.663 87.4961 118.404 89.0788 115.653 89.6179C114.626 89.819 113.657 89.9108 112.738 89.9108L112.736 89.9115ZM89.1193 77.2452C90.6454 77.2452 92.2222 77.3683 93.8658 77.671C97.6041 78.3583 100.395 80.4523 103.094 82.4767C106.744 85.215 109.896 87.5789 115.053 86.5681C116.984 86.1896 118.528 85.0883 119.775 83.2009C123.037 78.2616 123.196 69.3638 122.262 64.1169C117.684 61.9186 90.3061 49.4046 56.1625 47.2452C54.6837 51.5522 49.8525 68.1248 59.9947 75.7627C66.9166 80.9755 72.6559 79.8324 79.3018 78.5086C82.4366 77.8845 85.6459 77.2452 89.1186 77.2452H89.1193Z" fill="#39005E"/>
<path d="M92.0195 114.728C87.152 114.728 81.8404 114.213 76.0914 113.182C54.3044 109.275 39.0555 101.113 30.7682 88.9229C23.6162 78.4027 21.6354 64.8953 24.8794 48.7743C26.9853 38.3112 33.0347 19.1082 49.893 8.04891C62.0341 0.0840238 77.3727 -1.98285 95.4804 1.90672C111.6 5.36914 123.176 13.421 129.887 25.8396C137.069 39.13 136.64 54.6097 134.041 61.3564C131.708 67.4123 127.366 78.6852 127.366 88.4735C127.366 93.3565 124.948 101.083 118.134 106.788C111.82 112.075 103.07 114.728 92.0202 114.729L92.0195 114.728ZM78.636 3.11164C68.3004 3.11164 59.2483 5.62932 51.5964 10.6487C35.6836 21.0881 29.9353 39.4006 27.926 49.3879C24.8523 64.6581 26.6732 77.371 33.3378 87.1739C41.1371 98.6465 55.7067 106.367 76.6399 110.122C94.2422 113.279 107.902 111.301 116.14 104.403C122.549 99.0381 124.259 91.8656 124.259 88.4735C124.259 78.1071 128.736 66.4829 131.142 60.2384C132.942 55.5669 134.436 40.7927 127.154 27.3187C120.896 15.7369 110.02 8.20961 94.8297 4.94686C89.1314 3.72245 83.728 3.11164 78.6374 3.11164H78.636Z" fill="#39005E"/>
<path d="M26.125 51.0922C26.125 51.0922 79.997 45.6081 129.097 70.0489L132.161 61.268C132.161 61.268 92.1304 36.3653 28.5744 41.1015C28.5744 41.1015 27.204 44.2272 26.125 51.0922Z" fill="#23FF81"/>
<path d="M129.104 71.6038C128.867 71.6038 128.629 71.5496 128.413 71.441C103.293 58.9375 76.8822 54.49 59.1485 52.9609C39.895 51.301 26.4225 52.6256 26.289 52.6388C25.8086 52.6868 25.3352 52.5108 25.0035 52.1609C24.6726 51.8109 24.5224 51.3267 24.5968 50.8509C25.6946 43.8669 27.099 40.6125 27.1581 40.4768C27.3889 39.9502 27.8923 39.594 28.4652 39.5509C61.5423 37.0868 88.164 42.7441 104.673 47.9248C122.607 53.5529 132.572 59.6889 132.988 59.947C133.605 60.331 133.874 61.0927 133.635 61.7794L130.571 70.5603C130.424 70.9819 130.103 71.3193 129.69 71.4877C129.501 71.5642 129.302 71.6024 129.104 71.6024L129.104 71.6038ZM39.9444 49.0171C45.2721 49.0171 51.8797 49.2153 59.3383 49.8561C76.99 51.372 103.112 55.7374 128.215 67.8812L130.279 61.9651C127.261 60.2586 117.951 55.3401 103.626 50.8551C87.5633 45.8267 61.7578 40.3412 29.6874 42.5799C29.3043 43.6999 28.632 45.938 27.998 49.3851C30.2881 49.2299 34.4311 49.0171 39.9444 49.0171Z" fill="#39005E"/>
<path d="M58.3385 131.648L99.8308 139.169L142.944 149.185C143.873 149.401 144.223 150.538 143.578 151.239L140.483 154.602C140.241 154.865 139.898 155.011 139.541 155.002L97.6227 154.068L56.4648 137.68C54.8886 137.052 54.2087 135.192 55.0089 133.695L55.3246 133.104C55.9065 132.016 57.1239 131.427 58.3378 131.647L58.3385 131.648Z" fill="#A6A6A6"/>
<path d="M139.199 156.558C139.178 156.558 139.157 156.558 139.136 156.557L97.4032 155.624C97.2175 155.62 97.034 155.582 96.8616 155.513L55.8851 139.125C54.7289 138.662 53.8209 137.725 53.3926 136.553C52.963 135.378 53.054 134.07 53.6415 132.966L53.9558 132.375C54.8561 130.683 56.7249 129.776 58.6056 130.12L99.9151 137.641C99.9401 137.646 99.9652 137.651 99.9902 137.656L142.914 147.672C143.89 147.9 144.651 148.609 144.947 149.569C145.244 150.531 145.016 151.548 144.337 152.29L141.255 155.653C140.725 156.23 139.979 156.559 139.199 156.559L139.199 156.558ZM97.7536 152.522L139.06 153.446L141.688 150.579L99.32 140.693L58.048 133.179C57.5029 133.079 56.9599 133.344 56.6971 133.838L56.3829 134.428C56.207 134.758 56.1813 135.134 56.3099 135.486C56.4371 135.834 56.6957 136.101 57.0378 136.238L97.7529 152.522L97.7536 152.522Z" fill="#39005E"/>
<path d="M173.004 120.225C172.996 120.951 172.708 121.658 172.181 122.191C165.061 129.401 148.97 145.692 142.22 152.528C140.262 154.51 137.555 155.571 134.774 155.443C125.282 155.004 103.24 153.99 98.5253 153.775C97.9274 153.748 97.3406 153.628 96.7816 153.418C91.4804 151.428 62.6999 140.644 54.4272 137.542C53.1882 137.076 52.5354 135.712 52.9553 134.456C53.1576 133.854 53.3711 133.205 53.5651 132.614C53.7479 132.073 54.14 131.623 54.6566 131.37C55.169 131.121 55.7634 131.086 56.3036 131.277C64.4756 134.176 94.2961 144.755 94.2961 144.755C94.2961 144.755 120.404 118.557 129.046 109.887C130.74 108.184 133.213 107.512 135.536 108.122C143.495 110.209 162.056 115.079 170.869 117.392C171.859 117.652 172.636 118.421 172.908 119.413C172.981 119.68 173.016 119.953 173.005 120.225L173.004 120.225Z" fill="#A6A6A6"/>
<g opacity="0.6">
<path d="M173.005 120.224C173.001 120.59 172.928 120.947 172.788 121.285C172.481 121.048 172.127 120.869 171.743 120.764C162.93 118.452 144.369 113.582 136.41 111.495C134.088 110.885 131.614 111.557 129.92 113.259C122.435 120.77 101.845 141.431 96.4684 146.825C95.6744 147.622 94.4981 147.889 93.4385 147.513C86.9588 145.215 64.1617 137.128 57.1779 134.649C56.6384 134.459 56.0439 134.494 55.5309 134.743C55.0143 134.995 54.6222 135.446 54.4393 135.987C54.2996 136.418 54.148 136.876 53.9964 137.327C53.0446 136.74 52.5865 135.555 52.9557 134.455C53.158 133.853 53.3714 133.204 53.5654 132.613C53.7482 132.073 54.1404 131.622 54.6569 131.369C55.1693 131.12 55.7638 131.085 56.304 131.276C64.4759 134.175 94.2965 144.754 94.2965 144.754C94.2965 144.754 120.404 118.556 129.046 109.886C130.74 108.184 133.214 107.512 135.536 108.122C143.495 110.209 162.056 115.078 170.869 117.391C171.86 117.651 172.636 118.421 172.908 119.412C172.982 119.68 173.017 119.952 173.005 120.224Z" fill="white"/>
</g>
<path d="M135.225 157.007C135.051 157.007 134.878 157.003 134.704 156.995L98.453 155.328C97.6959 155.293 96.9506 155.141 96.238 154.874L53.8849 138.999C51.852 138.237 50.7966 136.026 51.4821 133.964L52.0932 132.126C52.404 131.192 53.0888 130.409 53.9732 129.977C54.8582 129.544 55.8969 129.486 56.8237 129.815L93.8908 142.962L127.945 108.789C130.024 106.703 133.084 105.871 135.932 106.618L171.26 115.889C172.784 116.289 173.99 117.481 174.405 119.002C174.822 120.522 174.392 122.163 173.285 123.285L143.324 153.622C141.183 155.789 138.255 157.007 135.223 157.007H135.225ZM55.5917 132.711C55.5041 132.711 55.4165 132.731 55.3373 132.77C55.1989 132.837 55.0912 132.961 55.0418 133.108L54.4307 134.947C54.2749 135.414 54.5141 135.915 54.9751 136.088L97.3274 151.962C97.7355 152.115 98.1617 152.202 98.5956 152.223L134.846 153.889C137.184 153.997 139.469 153.103 141.115 151.438L171.076 121.1C171.406 120.767 171.534 120.277 171.41 119.825C171.286 119.372 170.927 119.016 170.473 118.897L135.145 109.627C133.363 109.159 131.447 109.679 130.146 110.984L95.3981 145.853C94.9747 146.278 94.3441 146.421 93.7789 146.22L55.7857 132.744C55.7231 132.722 55.6578 132.711 55.5924 132.711L55.5917 132.711Z" fill="#39005E"/>
<path d="M99.9967 148.499C99.809 148.499 99.6199 148.465 99.4384 148.395L93.7687 146.209C93.2799 146.021 92.9191 145.599 92.8085 145.086C92.698 144.574 92.8523 144.041 93.2201 143.668C93.4808 143.403 119.361 117.102 127.982 108.717C129.75 106.997 132.708 106.12 135.024 108.257C135.922 109.085 136.415 110.281 136.412 111.623C136.407 113.289 135.644 115.018 134.42 116.135C125.456 124.318 101.324 147.822 101.081 148.058C100.786 148.346 100.395 148.499 99.9974 148.499L99.9967 148.499ZM97.0968 144.16L99.6268 145.135C103.713 141.16 124.2 121.255 132.326 113.838C132.908 113.305 133.302 112.411 133.304 111.614C133.305 111.288 133.239 110.838 132.917 110.541C131.744 109.458 130.308 110.79 130.148 110.946C122.825 118.068 102.979 138.189 97.0975 144.16H97.0968Z" fill="#39005E"/>
<path d="M97.6241 154.82C97.458 154.82 97.289 154.793 97.1236 154.737C96.3115 154.46 95.877 153.577 96.1537 152.765L98.3041 146.444C98.5801 145.631 99.4631 145.196 100.275 145.473C101.087 145.75 101.522 146.633 101.245 147.445L99.0946 153.766C98.8749 154.413 98.2707 154.82 97.6241 154.82Z" fill="#39005E"/>
<path d="M144.145 151.659C144.109 151.659 144.071 151.658 144.033 151.655L99.6697 148.494C98.8139 148.433 98.1694 147.69 98.2306 146.833C98.2918 145.977 99.0378 145.333 99.8908 145.393L144.255 148.554C145.11 148.615 145.755 149.359 145.694 150.215C145.635 151.034 144.953 151.659 144.145 151.659Z" fill="#39005E"/>
<g opacity="0.2">
<path d="M173.004 120.224C172.996 120.951 172.708 121.658 172.181 122.191C165.061 129.401 148.97 145.692 142.22 152.528C140.262 154.51 137.555 155.571 134.774 155.443C125.282 155.004 103.24 153.989 98.5253 153.775C97.9274 153.748 97.3406 153.628 96.7816 153.418C91.4804 151.428 62.6999 140.643 54.4272 137.542C53.1882 137.076 52.5354 135.712 52.9553 134.456C53.1576 133.854 92.1228 148.547 92.1228 148.547L95.0039 149.229C97.2947 149.771 99.7017 149.063 101.335 147.367L134.7 112.723C134.7 112.723 156.916 118.125 166.238 120.628C169.769 121.576 171.82 121.137 173.004 120.224L173.004 120.224Z" fill="#39005E"/>
</g>
<path d="M140.582 136.383C142.592 134.891 143.458 132.651 142.516 131.381C141.574 130.111 139.181 130.292 137.171 131.785C135.161 133.277 134.295 135.517 135.237 136.787C136.178 138.057 138.571 137.876 140.582 136.383Z" fill="white"/>
<path d="M129.787 149.166C129.787 149.166 133.918 144.029 138.641 144.926C143.362 145.823 141.85 163.656 126.347 164.102C110.843 164.549 110.236 148.095 115.409 144.926C121.083 141.45 129.787 149.166 129.787 149.166Z" fill="#F2C5A9"/>
<g opacity="0.6">
<path d="M140.586 153.069C140.508 150.663 139.65 148.852 138.229 148.583C134.971 147.964 131.997 150.216 130.465 151.673C129.82 152.286 128.832 152.351 128.121 151.816C125.506 149.85 119.358 145.915 114.999 148.584C113.849 149.288 112.987 150.648 112.509 152.33C112.385 149.066 113.508 146.093 115.415 144.927C121.089 141.453 129.793 149.167 129.793 149.167C129.793 149.167 133.926 144.03 138.644 144.927C140.73 145.324 141.6 149.023 140.586 153.069V153.069Z" fill="white"/>
</g>
<path d="M125.774 165.665C118.648 165.665 113.355 162.091 111.55 156.017C110.064 151.015 111.406 145.561 114.606 143.601C119.887 140.366 126.889 144.937 129.648 147.047C131.345 145.394 134.881 142.629 138.939 143.4C141.439 143.874 142.845 146.809 142.522 150.874C141.973 157.787 136.693 165.36 126.399 165.657C126.189 165.663 125.981 165.666 125.774 165.666L125.774 165.665ZM118.778 145.588C117.858 145.588 116.99 145.784 116.227 146.251C114.491 147.315 113.366 151.222 114.528 155.13C115.215 157.442 117.746 162.8 126.309 162.548C135.936 162.27 139.082 154.924 139.424 150.627C139.624 148.107 138.921 146.56 138.359 146.453C134.654 145.75 131.04 150.096 131.005 150.14C130.738 150.471 130.348 150.678 129.925 150.714C129.501 150.748 129.082 150.61 128.764 150.328C127.012 148.781 122.484 145.587 118.779 145.587L118.778 145.588Z" fill="#39005E"/>
<path fill-rule="evenodd" clip-rule="evenodd" d="M80.6282 129.618C77.3543 132.615 75.0238 126.618 75.0238 126.618C75.0238 126.618 67.3684 134.215 54.8818 127.752C54.8818 127.752 54.7768 127.85 54.5668 128.013C52.924 129.311 44.8688 134.911 31.5625 132L39.5481 112.289C39.5481 112.289 56.2257 103.486 68.3821 107.901C69.0113 108.131 69.6169 108.387 70.1995 108.663C80.8646 113.77 83.7269 126.774 80.6275 129.618H80.6282Z" fill="#6F6F88"/>
<path d="M80.6256 129.618C77.3517 132.615 75.0212 126.618 75.0212 126.618C75.0212 126.618 67.3658 134.216 54.8792 127.753C54.8792 127.753 54.7742 127.85 54.5642 128.013C54.0477 125.036 52.3582 111.92 61.7455 107.64C61.7455 107.64 65.6799 108.076 70.1969 108.662C80.862 113.769 83.7243 126.773 80.6249 129.618L80.6256 129.618Z" fill="#F2C5A9"/>
<g opacity="0.6">
<path d="M40.3203 111.903C40.3203 111.903 54.7627 105.3 67.0338 108.561C78.2175 111.532 81.6403 120.124 80.6412 128.618C80.6412 128.618 78.5784 114.877 65.6899 111.754C52.8014 108.631 40.3203 111.903 40.3203 111.903Z" fill="white"/>
</g>
<path d="M78.7861 132.012C78.4809 132.012 78.2028 131.973 77.9595 131.916C76.3778 131.546 75.2223 130.191 74.4888 129.007C71.5138 131.015 64.6184 134.186 54.9384 129.522C54.6325 129.598 54.3058 129.581 54.0019 129.463C53.493 129.266 53.1245 128.817 53.0314 128.279C52.5377 125.436 50.6077 111.009 61.099 106.226C61.3542 106.11 61.6351 106.065 61.9138 106.095C61.9535 106.099 65.915 106.539 70.3945 107.121C70.5579 107.142 70.7164 107.189 70.8652 107.26C78.7103 111.016 82.407 118.476 83.1884 123.722C83.6661 126.927 83.1279 129.428 81.6735 130.763C81.6735 130.763 81.6721 130.764 81.6721 130.764C80.6153 131.731 79.6037 132.01 78.7868 132.01L78.7861 132.012ZM75.0186 125.064C75.1263 125.064 75.2341 125.075 75.3412 125.098C75.8536 125.206 76.2763 125.567 76.4661 126.055C76.8874 127.126 77.8879 128.708 78.6672 128.889C78.7562 128.909 79.0267 128.972 79.5724 128.473C80.073 128.013 80.4561 126.474 80.1147 124.181C79.4007 119.39 75.9196 113.234 69.743 110.172C66.2585 109.721 63.134 109.362 62.0126 109.236C54.9572 112.794 55.4209 122.628 55.9132 126.537C67.0719 132.121 73.8568 125.582 73.9242 125.515C74.2183 125.223 74.6125 125.064 75.0186 125.064Z" fill="#39005E"/>
<g opacity="0.2">
<path d="M80.8446 121.456C80.8446 121.456 80.561 125.953 75.3765 121.456C75.3765 121.456 65.6208 129.118 54.6727 121.456C54.6727 121.456 39.0276 127.119 31.5558 122.289C24.0839 117.459 26.3066 108.561 26.3066 108.561C26.3066 108.561 13.0976 123.622 32.5729 132.116C32.5729 132.116 39.8966 135.049 54.8778 127.753C54.8778 127.753 60.704 134.614 75.0185 126.619C75.0185 126.619 81.51 138.278 80.8446 121.456Z" fill="#39005E"/>
</g>
<path fill-rule="evenodd" clip-rule="evenodd" d="M79.0182 128.348C78.4807 128.433 78.0844 128.047 77.75 127.666C76.8817 126.678 76.4374 125.315 76.4374 125.315C76.2636 124.788 75.8332 124.386 75.2958 124.249C74.7584 124.112 74.1883 124.259 73.7836 124.639C70.9171 127.335 67.97 128.418 65.3183 128.647C60.1867 129.09 56.1911 126.425 56.1911 126.425C55.6509 126.061 54.9445 126.062 54.405 126.427C50.6931 128.943 46.8852 130.181 43.4757 130.719C36.8646 131.764 31.7525 130.192 31.7525 130.192C30.9342 129.936 30.0616 130.393 29.8058 131.212C29.5492 132.03 30.006 132.903 30.8243 133.159C30.8243 133.159 36.5476 134.982 43.9624 133.837C47.5165 133.288 51.4586 132.059 55.345 129.627C57.0546 130.544 60.9376 132.249 65.5908 131.859C68.3315 131.629 71.3447 130.686 74.3329 128.422C74.7445 129.124 75.2812 129.873 75.9382 130.443C76.9999 131.365 78.3229 131.87 79.8705 131.495C80.8439 131.258 81.7547 130.476 82.2976 129.097C83.0513 127.184 83.1472 123.818 81.9924 120.177C80.6131 115.829 77.4921 111.063 71.8481 108.08C68.3211 106.234 63.3417 105.632 58.2317 105.945C55.5369 106.11 52.8108 106.519 50.2669 107.067C48.1679 107.52 46.1997 108.068 44.4699 108.646C42.024 109.464 40.0704 110.336 38.8933 111.054C38.5534 111.234 38.4234 111.656 38.6034 111.996C38.7828 112.336 39.2048 112.466 39.5448 112.286C40.7267 111.751 42.6623 111.209 45.0331 110.688C46.7489 110.312 48.6838 109.97 50.732 109.681C53.1883 109.335 55.7976 109.092 58.37 109.016C62.8717 108.885 67.2594 109.261 70.3442 110.919C74.2001 112.971 76.6543 116.006 78.065 119.038C79.3686 121.839 79.7892 124.632 79.5604 126.621C79.5 127.147 79.3964 127.608 79.2392 127.976C79.1822 128.109 79.0647 128.282 79.0182 128.348Z" fill="#39005E"/>
<g opacity="0.2">
<path d="M141.004 149.889C140.949 155.478 136.875 163.799 126.346 164.101C112.802 164.49 110.628 151.987 113.742 146.706C114.049 153.087 120.182 158.183 127.705 158.183C133.919 158.183 139.19 154.701 141.004 149.889Z" fill="#39005E"/>
</g>
<path d="M152.688 68.2049C150.92 65.3102 150.048 61.8345 150.421 58.1989C151.326 49.3741 159.21 42.9551 168.029 43.8608C176.848 44.7666 183.263 52.655 182.358 61.4797C181.453 70.3045 173.569 76.7236 164.75 75.8178C162.297 75.5659 160.031 74.7722 158.056 73.57L150.627 75.2369L152.688 68.2049Z" fill="#23FF81"/>
<g opacity="0.5">
<path d="M167.713 46.9342C159.475 46.0876 152.055 51.6342 150.375 59.5623C150.373 58.996 150.397 58.4248 150.456 57.8488C151.362 49.024 159.245 42.605 168.064 43.5107C176.884 44.4165 183.299 52.3049 182.393 61.1296C182.334 61.7084 182.243 62.2754 182.125 62.832C182.094 54.7245 175.954 47.7809 167.713 46.9342H167.713Z" fill="white"/>
</g>
<path fill-rule="evenodd" clip-rule="evenodd" d="M177.83 60.0928C177.707 66.3295 172.559 71.2855 166.331 71.1624C160.103 71.0394 155.155 65.8838 155.277 59.6472C155.4 53.4105 160.548 48.4545 166.776 48.5776C173.004 48.7006 177.952 53.8562 177.83 60.0928ZM171.166 56.5378C171.489 56.8751 171.479 57.4114 171.142 57.7356L165.393 63.2704C165.056 63.5946 164.52 63.584 164.197 63.2467L161.986 60.9437C161.662 60.6064 161.673 60.0702 162.01 59.7459C162.346 59.4217 162.882 59.4323 163.206 59.7696L164.83 61.4619L167.4 58.9881L169.97 56.5142C170.306 56.19 170.842 56.2006 171.166 56.5378Z" fill="#39005E"/>
<g opacity="0.2">
<path d="M152.886 67.4327C157.283 71.1539 163.34 72.7839 169.355 71.2854C176.026 69.6241 180.94 64.5414 182.708 58.3721C182.751 59.1902 182.731 60.0215 182.645 60.8619C181.74 69.6867 173.857 76.1058 165.037 75.2C162.584 74.9481 160.318 74.1544 158.343 72.9522L150.914 74.6191L152.975 67.5871C152.944 67.5363 152.916 67.4841 152.885 67.4327H152.886Z" fill="#39005E"/>
</g>
<path d="M166.423 77.4588C165.815 77.4588 165.204 77.4275 164.592 77.3649C162.178 77.1166 159.896 76.3965 157.8 75.2208L150.967 76.7541C150.43 76.8745 149.869 76.7019 149.494 76.3005C149.117 75.8991 148.981 75.3279 149.136 74.7999L151.009 68.4108C149.24 65.244 148.503 61.6738 148.875 58.0402C149.867 48.3771 158.528 41.3215 168.187 42.315C172.866 42.7957 177.077 45.0706 180.045 48.7201C183.014 52.3697 184.383 56.9584 183.903 61.639C183.422 66.3202 181.149 70.534 177.502 73.5039C174.332 76.0849 170.454 77.4588 166.422 77.4588H166.423ZM158.056 72.0158C158.338 72.0158 158.618 72.093 158.863 72.2419C160.71 73.3661 162.744 74.0493 164.909 74.2712C168.76 74.6684 172.537 73.5387 175.541 71.0919C178.545 68.6459 180.417 65.1758 180.812 61.3211C181.208 57.4663 180.08 53.688 177.635 50.682C175.191 47.6759 171.723 45.8031 167.87 45.4073C159.917 44.5871 152.783 50.3995 151.967 58.3574C151.64 61.5416 152.348 64.6666 154.014 67.3944C154.243 67.7687 154.303 68.2215 154.18 68.6424L152.861 73.1428L157.716 72.0534C157.829 72.0283 157.943 72.0158 158.056 72.0158H158.056Z" fill="#39005E"/>
<path d="M85.2894 71.0137L70.9483 58.1983L69.4854 59.5991L76.3022 65.9846C74.8156 66.6362 73.7097 67.8973 73.4232 69.5188C72.9285 72.3213 75.0685 75.0616 78.1483 75.6604C80.6222 76.1403 82.9513 75.0816 84.0237 73.2185L84.0411 73.2344L85.288 71.0116L85.2894 71.0137Z" fill="black"/>
<path d="M102.329 74.622L117.683 69.3568L118.196 70.9953L111.19 73.6795C112.042 74.746 112.397 76.1632 112.03 77.5856C111.396 80.0473 108.834 81.6267 106.264 81.1273C104.139 80.7143 102.668 79.0008 102.511 77.0031L102.492 77.011L102.329 74.622Z" fill="black"/>
</g>
<defs>
<clipPath id="clip0_1819_17211">
<rect width="184" height="212" fill="white"/>
</clipPath>
</defs>
</svg>
