<svg width="32" height="32" viewBox="0 0 32 32" fill="none" xmlns="http://www.w3.org/2000/svg">
<path d="M0 4C0 1.79086 1.79086 0 4 0H28C30.2091 0 32 1.79086 32 4V28C32 30.2091 30.2091 32 28 32H4C1.79086 32 0 30.2091 0 28V4Z" fill="white"/>
<path d="M4 4H4.96V4.96H4V4Z" fill="black"/>
<path d="M4.96 4H5.92V4.96H4.96V4Z" fill="black"/>
<path d="M5.92 4H6.88V4.96H5.92V4Z" fill="black"/>
<path d="M6.88 4H7.84V4.96H6.88V4Z" fill="black"/>
<path d="M7.84 4H8.8V4.96H7.84V4Z" fill="black"/>
<path d="M8.8 4H9.76V4.96H8.8V4Z" fill="black"/>
<path d="M9.76 4H10.72V4.96H9.76V4Z" fill="black"/>
<path d="M11.68 4H12.64V4.96H11.68V4Z" fill="black"/>
<path d="M12.64 4H13.6V4.96H12.64V4Z" fill="black"/>
<path d="M16.48 4H17.44V4.96H16.48V4Z" fill="black"/>
<path d="M21.28 4H22.24V4.96H21.28V4Z" fill="black"/>
<path d="M22.24 4H23.2V4.96H22.24V4Z" fill="black"/>
<path d="M23.2 4H24.16V4.96H23.2V4Z" fill="black"/>
<path d="M24.16 4H25.12V4.96H24.16V4Z" fill="black"/>
<path d="M25.12 4H26.08V4.96H25.12V4Z" fill="black"/>
<path d="M26.08 4H27.04V4.96H26.08V4Z" fill="black"/>
<path d="M27.04 4H28V4.96H27.04V4Z" fill="black"/>
<path d="M4 4.96H4.96V5.92H4V4.96Z" fill="black"/>
<path d="M9.76 4.96H10.72V5.92H9.76V4.96Z" fill="black"/>
<path d="M16.48 4.96H17.44V5.92H16.48V4.96Z" fill="black"/>
<path d="M19.36 4.96H20.32V5.92H19.36V4.96Z" fill="black"/>
<path d="M21.28 4.96H22.24V5.92H21.28V4.96Z" fill="black"/>
<path d="M27.04 4.96H28V5.92H27.04V4.96Z" fill="black"/>
<path d="M4 5.92H4.96V6.88H4V5.92Z" fill="black"/>
<path d="M5.92 5.92H6.88V6.88H5.92V5.92Z" fill="black"/>
<path d="M6.88 5.92H7.84V6.88H6.88V5.92Z" fill="black"/>
<path d="M7.84 5.92H8.8V6.88H7.84V5.92Z" fill="black"/>
<path d="M9.76 5.92H10.72V6.88H9.76V5.92Z" fill="black"/>
<path d="M11.68 5.92H12.64V6.88H11.68V5.92Z" fill="black"/>
<path d="M14.56 5.92H15.52V6.88H14.56V5.92Z" fill="black"/>
<path d="M15.52 5.92H16.48V6.88H15.52V5.92Z" fill="black"/>
<path d="M16.48 5.92H17.44V6.88H16.48V5.92Z" fill="black"/>
<path d="M17.44 5.92H18.4V6.88H17.44V5.92Z" fill="black"/>
<path d="M21.28 5.92H22.24V6.88H21.28V5.92Z" fill="black"/>
<path d="M23.2 5.92H24.16V6.88H23.2V5.92Z" fill="black"/>
<path d="M24.16 5.92H25.12V6.88H24.16V5.92Z" fill="black"/>
<path d="M25.12 5.92H26.08V6.88H25.12V5.92Z" fill="black"/>
<path d="M27.04 5.92H28V6.88H27.04V5.92Z" fill="black"/>
<path d="M4 6.88H4.96V7.84H4V6.88Z" fill="black"/>
<path d="M5.92 6.88H6.88V7.84H5.92V6.88Z" fill="black"/>
<path d="M6.88 6.88H7.84V7.84H6.88V6.88Z" fill="black"/>
<path d="M7.84 6.88H8.8V7.84H7.84V6.88Z" fill="black"/>
<path d="M9.76 6.88H10.72V7.84H9.76V6.88Z" fill="black"/>
<path d="M11.68 6.88H12.64V7.84H11.68V6.88Z" fill="black"/>
<path d="M12.64 6.88H13.6V7.84H12.64V6.88Z" fill="black"/>
<path d="M14.56 6.88H15.52V7.84H14.56V6.88Z" fill="black"/>
<path d="M18.4 6.88H19.36V7.84H18.4V6.88Z" fill="black"/>
<path d="M21.28 6.88H22.24V7.84H21.28V6.88Z" fill="black"/>
<path d="M23.2 6.88H24.16V7.84H23.2V6.88Z" fill="black"/>
<path d="M24.16 6.88H25.12V7.84H24.16V6.88Z" fill="black"/>
<path d="M25.12 6.88H26.08V7.84H25.12V6.88Z" fill="black"/>
<path d="M27.04 6.88H28V7.84H27.04V6.88Z" fill="black"/>
<path d="M4 7.84H4.96V8.8H4V7.84Z" fill="black"/>
<path d="M5.92 7.84H6.88V8.8H5.92V7.84Z" fill="black"/>
<path d="M6.88 7.84H7.84V8.8H6.88V7.84Z" fill="black"/>
<path d="M7.84 7.84H8.8V8.8H7.84V7.84Z" fill="black"/>
<path d="M9.76 7.84H10.72V8.8H9.76V7.84Z" fill="black"/>
<path d="M11.68 7.84H12.64V8.8H11.68V7.84Z" fill="black"/>
<path d="M12.64 7.84H13.6V8.8H12.64V7.84Z" fill="black"/>
<path d="M13.6 7.84H14.56V8.8H13.6V7.84Z" fill="black"/>
<path d="M14.56 7.84H15.52V8.8H14.56V7.84Z" fill="black"/>
<path d="M16.48 7.84H17.44V8.8H16.48V7.84Z" fill="black"/>
<path d="M17.44 7.84H18.4V8.8H17.44V7.84Z" fill="black"/>
<path d="M18.4 7.84H19.36V8.8H18.4V7.84Z" fill="black"/>
<path d="M19.36 7.84H20.32V8.8H19.36V7.84Z" fill="black"/>
<path d="M21.28 7.84H22.24V8.8H21.28V7.84Z" fill="black"/>
<path d="M23.2 7.84H24.16V8.8H23.2V7.84Z" fill="black"/>
<path d="M24.16 7.84H25.12V8.8H24.16V7.84Z" fill="black"/>
<path d="M25.12 7.84H26.08V8.8H25.12V7.84Z" fill="black"/>
<path d="M27.04 7.84H28V8.8H27.04V7.84Z" fill="black"/>
<path d="M4 8.8H4.96V9.76H4V8.8Z" fill="black"/>
<path d="M9.76 8.8H10.72V9.76H9.76V8.8Z" fill="black"/>
<path d="M12.64 8.8H13.6V9.76H12.64V8.8Z" fill="black"/>
<path d="M15.52 8.8H16.48V9.76H15.52V8.8Z" fill="black"/>
<path d="M17.44 8.8H18.4V9.76H17.44V8.8Z" fill="black"/>
<path d="M21.28 8.8H22.24V9.76H21.28V8.8Z" fill="black"/>
<path d="M27.04 8.8H28V9.76H27.04V8.8Z" fill="black"/>
<path d="M4 9.76H4.96V10.72H4V9.76Z" fill="black"/>
<path d="M4.96 9.76H5.92V10.72H4.96V9.76Z" fill="black"/>
<path d="M5.92 9.76H6.88V10.72H5.92V9.76Z" fill="black"/>
<path d="M6.88 9.76H7.84V10.72H6.88V9.76Z" fill="black"/>
<path d="M7.84 9.76H8.8V10.72H7.84V9.76Z" fill="black"/>
<path d="M8.8 9.76H9.76V10.72H8.8V9.76Z" fill="black"/>
<path d="M9.76 9.76H10.72V10.72H9.76V9.76Z" fill="black"/>
<path d="M11.68 9.76H12.64V10.72H11.68V9.76Z" fill="black"/>
<path d="M13.6 9.76H14.56V10.72H13.6V9.76Z" fill="black"/>
<path d="M15.52 9.76H16.48V10.72H15.52V9.76Z" fill="black"/>
<path d="M17.44 9.76H18.4V10.72H17.44V9.76Z" fill="black"/>
<path d="M19.36 9.76H20.32V10.72H19.36V9.76Z" fill="black"/>
<path d="M21.28 9.76H22.24V10.72H21.28V9.76Z" fill="black"/>
<path d="M22.24 9.76H23.2V10.72H22.24V9.76Z" fill="black"/>
<path d="M23.2 9.76H24.16V10.72H23.2V9.76Z" fill="black"/>
<path d="M24.16 9.76H25.12V10.72H24.16V9.76Z" fill="black"/>
<path d="M25.12 9.76H26.08V10.72H25.12V9.76Z" fill="black"/>
<path d="M26.08 9.76H27.04V10.72H26.08V9.76Z" fill="black"/>
<path d="M27.04 9.76H28V10.72H27.04V9.76Z" fill="black"/>
<path d="M12.64 10.72H13.6V11.68H12.64V10.72Z" fill="black"/>
<path d="M14.56 10.72H15.52V11.68H14.56V10.72Z" fill="black"/>
<path d="M16.48 10.72H17.44V11.68H16.48V10.72Z" fill="black"/>
<path d="M17.44 10.72H18.4V11.68H17.44V10.72Z" fill="black"/>
<path d="M19.36 10.72H20.32V11.68H19.36V10.72Z" fill="black"/>
<path d="M4 11.68H4.96V12.64H4V11.68Z" fill="black"/>
<path d="M4.96 11.68H5.92V12.64H4.96V11.68Z" fill="black"/>
<path d="M5.92 11.68H6.88V12.64H5.92V11.68Z" fill="black"/>
<path d="M6.88 11.68H7.84V12.64H6.88V11.68Z" fill="black"/>
<path d="M9.76 11.68H10.72V12.64H9.76V11.68Z" fill="black"/>
<path d="M11.68 11.68H12.64V12.64H11.68V11.68Z" fill="black"/>
<path d="M16.48 11.68H17.44V12.64H16.48V11.68Z" fill="black"/>
<path d="M17.44 11.68H18.4V12.64H17.44V11.68Z" fill="black"/>
<path d="M18.4 11.68H19.36V12.64H18.4V11.68Z" fill="black"/>
<path d="M19.36 11.68H20.32V12.64H19.36V11.68Z" fill="black"/>
<path d="M20.32 11.68H21.28V12.64H20.32V11.68Z" fill="black"/>
<path d="M23.2 11.68H24.16V12.64H23.2V11.68Z" fill="black"/>
<path d="M24.16 11.68H25.12V12.64H24.16V11.68Z" fill="black"/>
<path d="M25.12 11.68H26.08V12.64H25.12V11.68Z" fill="black"/>
<path d="M27.04 11.68H28V12.64H27.04V11.68Z" fill="black"/>
<path d="M4 12.64H4.96V13.6H4V12.64Z" fill="black"/>
<path d="M4.96 12.64H5.92V13.6H4.96V12.64Z" fill="black"/>
<path d="M6.88 12.64H7.84V13.6H6.88V12.64Z" fill="black"/>
<path d="M8.8 12.64H9.76V13.6H8.8V12.64Z" fill="black"/>
<path d="M10.72 12.64H11.68V13.6H10.72V12.64Z" fill="black"/>
<path d="M12.64 12.64H13.6V13.6H12.64V12.64Z" fill="black"/>
<path d="M19.36 12.64H20.32V13.6H19.36V12.64Z" fill="black"/>
<path d="M20.32 12.64H21.28V13.6H20.32V12.64Z" fill="black"/>
<path d="M22.24 12.64H23.2V13.6H22.24V12.64Z" fill="black"/>
<path d="M26.08 12.64H27.04V13.6H26.08V12.64Z" fill="black"/>
<path d="M5.92 13.6H6.88V14.56H5.92V13.6Z" fill="black"/>
<path d="M6.88 13.6H7.84V14.56H6.88V13.6Z" fill="black"/>
<path d="M7.84 13.6H8.8V14.56H7.84V13.6Z" fill="black"/>
<path d="M8.8 13.6H9.76V14.56H8.8V13.6Z" fill="black"/>
<path d="M9.76 13.6H10.72V14.56H9.76V13.6Z" fill="black"/>
<path d="M17.44 13.6H18.4V14.56H17.44V13.6Z" fill="black"/>
<path d="M23.2 13.6H24.16V14.56H23.2V13.6Z" fill="black"/>
<path d="M4 14.56H4.96V15.52H4V14.56Z" fill="black"/>
<path d="M5.92 14.56H6.88V15.52H5.92V14.56Z" fill="black"/>
<path d="M6.88 14.56H7.84V15.52H6.88V14.56Z" fill="black"/>
<path d="M14.56 14.56H15.52V15.52H14.56V14.56Z" fill="black"/>
<path d="M15.52 14.56H16.48V15.52H15.52V14.56Z" fill="black"/>
<path d="M16.48 14.56H17.44V15.52H16.48V14.56Z" fill="black"/>
<path d="M17.44 14.56H18.4V15.52H17.44V14.56Z" fill="black"/>
<path d="M18.4 14.56H19.36V15.52H18.4V14.56Z" fill="black"/>
<path d="M20.32 14.56H21.28V15.52H20.32V14.56Z" fill="black"/>
<path d="M22.24 14.56H23.2V15.52H22.24V14.56Z" fill="black"/>
<path d="M24.16 14.56H25.12V15.52H24.16V14.56Z" fill="black"/>
<path d="M25.12 14.56H26.08V15.52H25.12V14.56Z" fill="black"/>
<path d="M4.96 15.52H5.92V16.48H4.96V15.52Z" fill="black"/>
<path d="M6.88 15.52H7.84V16.48H6.88V15.52Z" fill="black"/>
<path d="M8.8 15.52H9.76V16.48H8.8V15.52Z" fill="black"/>
<path d="M9.76 15.52H10.72V16.48H9.76V15.52Z" fill="black"/>
<path d="M12.64 15.52H13.6V16.48H12.64V15.52Z" fill="black"/>
<path d="M14.56 15.52H15.52V16.48H14.56V15.52Z" fill="black"/>
<path d="M20.32 15.52H21.28V16.48H20.32V15.52Z" fill="black"/>
<path d="M21.28 15.52H22.24V16.48H21.28V15.52Z" fill="black"/>
<path d="M22.24 15.52H23.2V16.48H22.24V15.52Z" fill="black"/>
<path d="M23.2 15.52H24.16V16.48H23.2V15.52Z" fill="black"/>
<path d="M25.12 15.52H26.08V16.48H25.12V15.52Z" fill="black"/>
<path d="M26.08 15.52H27.04V16.48H26.08V15.52Z" fill="black"/>
<path d="M27.04 15.52H28V16.48H27.04V15.52Z" fill="black"/>
<path d="M4.96 16.48H5.92V17.44H4.96V16.48Z" fill="black"/>
<path d="M5.92 16.48H6.88V17.44H5.92V16.48Z" fill="black"/>
<path d="M7.84 16.48H8.8V17.44H7.84V16.48Z" fill="black"/>
<path d="M10.72 16.48H11.68V17.44H10.72V16.48Z" fill="black"/>
<path d="M11.68 16.48H12.64V17.44H11.68V16.48Z" fill="black"/>
<path d="M12.64 16.48H13.6V17.44H12.64V16.48Z" fill="black"/>
<path d="M13.6 16.48H14.56V17.44H13.6V16.48Z" fill="black"/>
<path d="M14.56 16.48H15.52V17.44H14.56V16.48Z" fill="black"/>
<path d="M16.48 16.48H17.44V17.44H16.48V16.48Z" fill="black"/>
<path d="M18.4 16.48H19.36V17.44H18.4V16.48Z" fill="black"/>
<path d="M20.32 16.48H21.28V17.44H20.32V16.48Z" fill="black"/>
<path d="M21.28 16.48H22.24V17.44H21.28V16.48Z" fill="black"/>
<path d="M22.24 16.48H23.2V17.44H22.24V16.48Z" fill="black"/>
<path d="M23.2 16.48H24.16V17.44H23.2V16.48Z" fill="black"/>
<path d="M27.04 16.48H28V17.44H27.04V16.48Z" fill="black"/>
<path d="M4.96 17.44H5.92V18.4H4.96V17.44Z" fill="black"/>
<path d="M6.88 17.44H7.84V18.4H6.88V17.44Z" fill="black"/>
<path d="M7.84 17.44H8.8V18.4H7.84V17.44Z" fill="black"/>
<path d="M9.76 17.44H10.72V18.4H9.76V17.44Z" fill="black"/>
<path d="M12.64 17.44H13.6V18.4H12.64V17.44Z" fill="black"/>
<path d="M13.6 17.44H14.56V18.4H13.6V17.44Z" fill="black"/>
<path d="M15.52 17.44H16.48V18.4H15.52V17.44Z" fill="black"/>
<path d="M17.44 17.44H18.4V18.4H17.44V17.44Z" fill="black"/>
<path d="M20.32 17.44H21.28V18.4H20.32V17.44Z" fill="black"/>
<path d="M21.28 17.44H22.24V18.4H21.28V17.44Z" fill="black"/>
<path d="M23.2 17.44H24.16V18.4H23.2V17.44Z" fill="black"/>
<path d="M25.12 17.44H26.08V18.4H25.12V17.44Z" fill="black"/>
<path d="M26.08 17.44H27.04V18.4H26.08V17.44Z" fill="black"/>
<path d="M4 18.4H4.96V19.36H4V18.4Z" fill="black"/>
<path d="M6.88 18.4H7.84V19.36H6.88V18.4Z" fill="black"/>
<path d="M7.84 18.4H8.8V19.36H7.84V18.4Z" fill="black"/>
<path d="M10.72 18.4H11.68V19.36H10.72V18.4Z" fill="black"/>
<path d="M11.68 18.4H12.64V19.36H11.68V18.4Z" fill="black"/>
<path d="M15.52 18.4H16.48V19.36H15.52V18.4Z" fill="black"/>
<path d="M16.48 18.4H17.44V19.36H16.48V18.4Z" fill="black"/>
<path d="M18.4 18.4H19.36V19.36H18.4V18.4Z" fill="black"/>
<path d="M22.24 18.4H23.2V19.36H22.24V18.4Z" fill="black"/>
<path d="M23.2 18.4H24.16V19.36H23.2V18.4Z" fill="black"/>
<path d="M27.04 18.4H28V19.36H27.04V18.4Z" fill="black"/>
<path d="M5.92 19.36H6.88V20.32H5.92V19.36Z" fill="black"/>
<path d="M6.88 19.36H7.84V20.32H6.88V19.36Z" fill="black"/>
<path d="M9.76 19.36H10.72V20.32H9.76V19.36Z" fill="black"/>
<path d="M11.68 19.36H12.64V20.32H11.68V19.36Z" fill="black"/>
<path d="M13.6 19.36H14.56V20.32H13.6V19.36Z" fill="black"/>
<path d="M14.56 19.36H15.52V20.32H14.56V19.36Z" fill="black"/>
<path d="M19.36 19.36H20.32V20.32H19.36V19.36Z" fill="black"/>
<path d="M20.32 19.36H21.28V20.32H20.32V19.36Z" fill="black"/>
<path d="M21.28 19.36H22.24V20.32H21.28V19.36Z" fill="black"/>
<path d="M22.24 19.36H23.2V20.32H22.24V19.36Z" fill="black"/>
<path d="M23.2 19.36H24.16V20.32H23.2V19.36Z" fill="black"/>
<path d="M24.16 19.36H25.12V20.32H24.16V19.36Z" fill="black"/>
<path d="M25.12 19.36H26.08V20.32H25.12V19.36Z" fill="black"/>
<path d="M26.08 19.36H27.04V20.32H26.08V19.36Z" fill="black"/>
<path d="M27.04 19.36H28V20.32H27.04V19.36Z" fill="black"/>
<path d="M11.68 20.32H12.64V21.28H11.68V20.32Z" fill="black"/>
<path d="M15.52 20.32H16.48V21.28H15.52V20.32Z" fill="black"/>
<path d="M16.48 20.32H17.44V21.28H16.48V20.32Z" fill="black"/>
<path d="M19.36 20.32H20.32V21.28H19.36V20.32Z" fill="black"/>
<path d="M23.2 20.32H24.16V21.28H23.2V20.32Z" fill="black"/>
<path d="M25.12 20.32H26.08V21.28H25.12V20.32Z" fill="black"/>
<path d="M27.04 20.32H28V21.28H27.04V20.32Z" fill="black"/>
<path d="M4 21.28H4.96V22.24H4V21.28Z" fill="black"/>
<path d="M4.96 21.28H5.92V22.24H4.96V21.28Z" fill="black"/>
<path d="M5.92 21.28H6.88V22.24H5.92V21.28Z" fill="black"/>
<path d="M6.88 21.28H7.84V22.24H6.88V21.28Z" fill="black"/>
<path d="M7.84 21.28H8.8V22.24H7.84V21.28Z" fill="black"/>
<path d="M8.8 21.28H9.76V22.24H8.8V21.28Z" fill="black"/>
<path d="M9.76 21.28H10.72V22.24H9.76V21.28Z" fill="black"/>
<path d="M14.56 21.28H15.52V22.24H14.56V21.28Z" fill="black"/>
<path d="M15.52 21.28H16.48V22.24H15.52V21.28Z" fill="black"/>
<path d="M19.36 21.28H20.32V22.24H19.36V21.28Z" fill="black"/>
<path d="M21.28 21.28H22.24V22.24H21.28V21.28Z" fill="black"/>
<path d="M23.2 21.28H24.16V22.24H23.2V21.28Z" fill="black"/>
<path d="M25.12 21.28H26.08V22.24H25.12V21.28Z" fill="black"/>
<path d="M26.08 21.28H27.04V22.24H26.08V21.28Z" fill="black"/>
<path d="M27.04 21.28H28V22.24H27.04V21.28Z" fill="black"/>
<path d="M4 22.24H4.96V23.2H4V22.24Z" fill="black"/>
<path d="M9.76 22.24H10.72V23.2H9.76V22.24Z" fill="black"/>
<path d="M15.52 22.24H16.48V23.2H15.52V22.24Z" fill="black"/>
<path d="M18.4 22.24H19.36V23.2H18.4V22.24Z" fill="black"/>
<path d="M19.36 22.24H20.32V23.2H19.36V22.24Z" fill="black"/>
<path d="M23.2 22.24H24.16V23.2H23.2V22.24Z" fill="black"/>
<path d="M26.08 22.24H27.04V23.2H26.08V22.24Z" fill="black"/>
<path d="M27.04 22.24H28V23.2H27.04V22.24Z" fill="black"/>
<path d="M4 23.2H4.96V24.16H4V23.2Z" fill="black"/>
<path d="M5.92 23.2H6.88V24.16H5.92V23.2Z" fill="black"/>
<path d="M6.88 23.2H7.84V24.16H6.88V23.2Z" fill="black"/>
<path d="M7.84 23.2H8.8V24.16H7.84V23.2Z" fill="black"/>
<path d="M9.76 23.2H10.72V24.16H9.76V23.2Z" fill="black"/>
<path d="M12.64 23.2H13.6V24.16H12.64V23.2Z" fill="black"/>
<path d="M13.6 23.2H14.56V24.16H13.6V23.2Z" fill="black"/>
<path d="M14.56 23.2H15.52V24.16H14.56V23.2Z" fill="black"/>
<path d="M15.52 23.2H16.48V24.16H15.52V23.2Z" fill="black"/>
<path d="M16.48 23.2H17.44V24.16H16.48V23.2Z" fill="black"/>
<path d="M19.36 23.2H20.32V24.16H19.36V23.2Z" fill="black"/>
<path d="M20.32 23.2H21.28V24.16H20.32V23.2Z" fill="black"/>
<path d="M21.28 23.2H22.24V24.16H21.28V23.2Z" fill="black"/>
<path d="M22.24 23.2H23.2V24.16H22.24V23.2Z" fill="black"/>
<path d="M23.2 23.2H24.16V24.16H23.2V23.2Z" fill="black"/>
<path d="M24.16 23.2H25.12V24.16H24.16V23.2Z" fill="black"/>
<path d="M4 24.16H4.96V25.12H4V24.16Z" fill="black"/>
<path d="M5.92 24.16H6.88V25.12H5.92V24.16Z" fill="black"/>
<path d="M6.88 24.16H7.84V25.12H6.88V24.16Z" fill="black"/>
<path d="M7.84 24.16H8.8V25.12H7.84V24.16Z" fill="black"/>
<path d="M9.76 24.16H10.72V25.12H9.76V24.16Z" fill="black"/>
<path d="M11.68 24.16H12.64V25.12H11.68V24.16Z" fill="black"/>
<path d="M12.64 24.16H13.6V25.12H12.64V24.16Z" fill="black"/>
<path d="M13.6 24.16H14.56V25.12H13.6V24.16Z" fill="black"/>
<path d="M15.52 24.16H16.48V25.12H15.52V24.16Z" fill="black"/>
<path d="M16.48 24.16H17.44V25.12H16.48V24.16Z" fill="black"/>
<path d="M17.44 24.16H18.4V25.12H17.44V24.16Z" fill="black"/>
<path d="M19.36 24.16H20.32V25.12H19.36V24.16Z" fill="black"/>
<path d="M20.32 24.16H21.28V25.12H20.32V24.16Z" fill="black"/>
<path d="M21.28 24.16H22.24V25.12H21.28V24.16Z" fill="black"/>
<path d="M23.2 24.16H24.16V25.12H23.2V24.16Z" fill="black"/>
<path d="M24.16 24.16H25.12V25.12H24.16V24.16Z" fill="black"/>
<path d="M25.12 24.16H26.08V25.12H25.12V24.16Z" fill="black"/>
<path d="M26.08 24.16H27.04V25.12H26.08V24.16Z" fill="black"/>
<path d="M27.04 24.16H28V25.12H27.04V24.16Z" fill="black"/>
<path d="M4 25.12H4.96V26.08H4V25.12Z" fill="black"/>
<path d="M5.92 25.12H6.88V26.08H5.92V25.12Z" fill="black"/>
<path d="M6.88 25.12H7.84V26.08H6.88V25.12Z" fill="black"/>
<path d="M7.84 25.12H8.8V26.08H7.84V25.12Z" fill="black"/>
<path d="M9.76 25.12H10.72V26.08H9.76V25.12Z" fill="black"/>
<path d="M11.68 25.12H12.64V26.08H11.68V25.12Z" fill="black"/>
<path d="M12.64 25.12H13.6V26.08H12.64V25.12Z" fill="black"/>
<path d="M13.6 25.12H14.56V26.08H13.6V25.12Z" fill="black"/>
<path d="M14.56 25.12H15.52V26.08H14.56V25.12Z" fill="black"/>
<path d="M15.52 25.12H16.48V26.08H15.52V25.12Z" fill="black"/>
<path d="M16.48 25.12H17.44V26.08H16.48V25.12Z" fill="black"/>
<path d="M18.4 25.12H19.36V26.08H18.4V25.12Z" fill="black"/>
<path d="M20.32 25.12H21.28V26.08H20.32V25.12Z" fill="black"/>
<path d="M21.28 25.12H22.24V26.08H21.28V25.12Z" fill="black"/>
<path d="M23.2 25.12H24.16V26.08H23.2V25.12Z" fill="black"/>
<path d="M25.12 25.12H26.08V26.08H25.12V25.12Z" fill="black"/>
<path d="M26.08 25.12H27.04V26.08H26.08V25.12Z" fill="black"/>
<path d="M4 26.08H4.96V27.04H4V26.08Z" fill="black"/>
<path d="M9.76 26.08H10.72V27.04H9.76V26.08Z" fill="black"/>
<path d="M11.68 26.08H12.64V27.04H11.68V26.08Z" fill="black"/>
<path d="M21.28 26.08H22.24V27.04H21.28V26.08Z" fill="black"/>
<path d="M23.2 26.08H24.16V27.04H23.2V26.08Z" fill="black"/>
<path d="M25.12 26.08H26.08V27.04H25.12V26.08Z" fill="black"/>
<path d="M4 27.04H4.96V28H4V27.04Z" fill="black"/>
<path d="M4.96 27.04H5.92V28H4.96V27.04Z" fill="black"/>
<path d="M5.92 27.04H6.88V28H5.92V27.04Z" fill="black"/>
<path d="M6.88 27.04H7.84V28H6.88V27.04Z" fill="black"/>
<path d="M7.84 27.04H8.8V28H7.84V27.04Z" fill="black"/>
<path d="M8.8 27.04H9.76V28H8.8V27.04Z" fill="black"/>
<path d="M9.76 27.04H10.72V28H9.76V27.04Z" fill="black"/>
<path d="M11.68 27.04H12.64V28H11.68V27.04Z" fill="black"/>
<path d="M12.64 27.04H13.6V28H12.64V27.04Z" fill="black"/>
<path d="M15.52 27.04H16.48V28H15.52V27.04Z" fill="black"/>
<path d="M17.44 27.04H18.4V28H17.44V27.04Z" fill="black"/>
<path d="M20.32 27.04H21.28V28H20.32V27.04Z" fill="black"/>
<path d="M22.24 27.04H23.2V28H22.24V27.04Z" fill="black"/>
<path d="M23.2 27.04H24.16V28H23.2V27.04Z" fill="black"/>
<path d="M24.16 27.04H25.12V28H24.16V27.04Z" fill="black"/>
<path d="M25.12 27.04H26.08V28H25.12V27.04Z" fill="black"/>
<path d="M26.08 27.04H27.04V28H26.08V27.04Z" fill="black"/>
<path d="M27.04 27.04H28V28H27.04V27.04Z" fill="black"/>
<path d="M4.96 4H4V4.96M4.96 4V4.96M4.96 4H5.92M4.96 4.96H4M4.96 4.96H5.92M4.96 4.96V5.92M4 4.96V5.92M5.92 4V4.96M5.92 4H6.88M5.92 4.96H6.88M6.88 4V4.96M6.88 4H7.84M6.88 4.96H7.84M7.84 4V4.96M7.84 4H8.8M7.84 4.96H8.8M8.8 4V4.96M8.8 4H9.76M8.8 4.96H9.76M9.76 4V4.96M9.76 4H10.72V4.96M9.76 4.96H10.72M9.76 4.96V5.92M10.72 4.96V5.92M12.64 4H11.68V4.96H12.64M12.64 4V4.96M12.64 4H13.6V4.96H12.64M17.44 4.96V4H16.48V4.96M17.44 4.96H16.48M17.44 4.96V5.92M16.48 4.96V5.92M22.24 4H21.28V4.96M22.24 4V4.96M22.24 4H23.2M22.24 4.96H21.28M22.24 4.96H23.2M22.24 4.96V5.92M21.28 4.96V5.92M23.2 4V4.96M23.2 4H24.16M23.2 4.96H24.16M24.16 4V4.96M24.16 4H25.12M24.16 4.96H25.12M25.12 4V4.96M25.12 4H26.08M25.12 4.96H26.08M26.08 4V4.96M26.08 4H27.04M26.08 4.96H27.04M27.04 4V4.96M27.04 4H28V4.96M27.04 4.96H28M27.04 4.96V5.92M28 4.96V5.92M4.96 5.92H4M4.96 5.92V6.88M4 5.92V6.88M10.72 5.92H9.76M10.72 5.92V6.88M9.76 5.92V6.88M17.44 5.92H16.48M17.44 5.92V6.88M17.44 5.92H18.4V6.88M16.48 5.92H15.52M16.48 5.92V6.88M22.24 5.92H21.28M22.24 5.92V6.88M21.28 5.92V6.88M28 5.92H27.04M28 5.92V6.88M27.04 5.92V6.88M4.96 6.88H4M4.96 6.88V7.84M4 6.88V7.84M6.88 5.92H5.92V6.88M6.88 5.92V6.88M6.88 5.92H7.84M6.88 6.88H5.92M6.88 6.88H7.84M6.88 6.88V7.84M5.92 6.88V7.84M7.84 5.92V6.88M7.84 5.92H8.8V6.88M7.84 6.88H8.8M7.84 6.88V7.84M8.8 6.88V7.84M10.72 6.88H9.76M10.72 6.88V7.84M9.76 6.88V7.84M12.64 6.88V5.92H11.68V6.88M12.64 6.88H11.68M12.64 6.88V7.84M12.64 6.88H13.6V7.84M11.68 6.88V7.84M15.52 5.92H14.56V6.88M15.52 5.92V6.88M15.52 6.88H14.56M15.52 6.88H16.48M15.52 6.88V7.84M14.56 6.88V7.84M16.48 6.88H17.44M17.44 6.88H18.4M18.4 6.88H19.36V7.84M18.4 6.88V7.84M22.24 6.88H21.28M22.24 6.88V7.84M21.28 6.88V7.84M24.16 5.92H23.2V6.88M24.16 5.92V6.88M24.16 5.92H25.12M24.16 6.88H23.2M24.16 6.88H25.12M24.16 6.88V7.84M23.2 6.88V7.84M25.12 5.92V6.88M25.12 5.92H26.08V6.88M25.12 6.88H26.08M25.12 6.88V7.84M26.08 6.88V7.84M28 6.88H27.04M28 6.88V7.84M27.04 6.88V7.84M4.96 7.84H4M4.96 7.84V8.8M4 7.84V8.8M6.88 7.84H5.92M6.88 7.84H7.84M6.88 7.84V8.8M5.92 7.84V8.8H6.88M7.84 7.84H8.8M7.84 7.84V8.8M8.8 7.84V8.8H7.84M10.72 7.84H9.76M10.72 7.84V8.8M9.76 7.84V8.8M12.64 7.84H11.68M12.64 7.84H13.6M12.64 7.84V8.8M11.68 7.84V8.8H12.64M13.6 7.84V8.8M13.6 7.84H14.56M15.52 7.84H14.56M15.52 7.84V8.8M14.56 7.84V8.8M19.36 7.84H18.4M19.36 7.84V8.8M19.36 7.84H20.32V8.8H19.36M18.4 7.84H17.44M18.4 7.84V8.8M22.24 7.84H21.28M22.24 7.84V8.8M21.28 7.84V8.8M24.16 7.84H23.2M24.16 7.84H25.12M24.16 7.84V8.8M23.2 7.84V8.8H24.16M25.12 7.84H26.08M25.12 7.84V8.8M26.08 7.84V8.8H25.12M28 7.84H27.04M28 7.84V8.8M27.04 7.84V8.8M4.96 8.8H4M4.96 8.8V9.76M4 8.8V9.76M6.88 8.8H7.84M10.72 8.8H9.76M10.72 8.8V9.76M9.76 8.8V9.76M12.64 8.8H13.6M12.64 8.8V9.76M13.6 8.8H14.56M13.6 8.8V9.76M14.56 8.8H15.52M15.52 8.8H16.48M15.52 8.8V9.76M17.44 7.84H16.48V8.8M17.44 7.84V8.8M17.44 8.8H16.48M17.44 8.8H18.4M17.44 8.8V9.76M16.48 8.8V9.76M18.4 8.8H19.36M18.4 8.8V9.76M22.24 8.8H21.28M22.24 8.8V9.76M21.28 8.8V9.76M24.16 8.8H25.12M28 8.8H27.04M28 8.8V9.76M27.04 8.8V9.76M4.96 9.76H4M4.96 9.76V10.72M4.96 9.76H5.92M4 9.76V10.72H4.96M10.72 9.76H9.76M10.72 9.76V10.72H9.76M9.76 9.76H8.8M9.76 9.76V10.72M13.6 9.76H12.64M13.6 9.76H14.56V10.72M13.6 9.76V10.72M12.64 9.76H11.68V10.72H12.64M12.64 9.76V10.72M16.48 9.76H15.52M16.48 9.76V10.72M15.52 9.76V10.72M18.4 9.76H17.44M18.4 9.76V10.72M17.44 9.76V10.72M22.24 9.76H21.28M22.24 9.76V10.72M22.24 9.76H23.2M21.28 9.76V10.72H22.24M28 9.76H27.04M28 9.76V10.72H27.04M27.04 9.76H26.08M27.04 9.76V10.72M4.96 10.72H5.92M5.92 9.76V10.72M5.92 9.76H6.88M5.92 10.72H6.88M6.88 9.76V10.72M6.88 9.76H7.84M6.88 10.72H7.84M7.84 9.76V10.72M7.84 9.76H8.8M7.84 10.72H8.8M8.8 9.76V10.72M8.8 10.72H9.76M12.64 10.72H13.6M12.64 10.72V11.68M14.56 10.72H13.6M14.56 10.72H15.52M14.56 10.72V11.68H15.52V10.72M13.6 10.72V11.68H12.64M16.48 10.72H15.52M16.48 10.72H17.44M16.48 10.72V11.68M18.4 10.72H17.44M18.4 10.72V11.68M17.44 10.72V11.68M20.32 10.72V9.76H19.36V10.72M20.32 10.72H19.36M20.32 10.72V11.68M19.36 10.72V11.68M22.24 10.72H23.2M23.2 9.76V10.72M23.2 9.76H24.16M23.2 10.72H24.16M24.16 9.76V10.72M24.16 9.76H25.12M24.16 10.72H25.12M25.12 9.76V10.72M25.12 9.76H26.08M25.12 10.72H26.08M26.08 9.76V10.72M26.08 10.72H27.04M12.64 11.68H11.68V12.64M12.64 11.68V12.64M17.44 11.68H16.48M17.44 11.68H18.4M17.44 11.68V12.64M16.48 11.68V12.64H17.44M18.4 11.68V12.64M18.4 11.68H19.36M20.32 11.68H19.36M20.32 11.68V12.64M20.32 11.68H21.28V12.64M19.36 11.68V12.64M4.96 11.68H4V12.64M4.96 11.68V12.64M4.96 11.68H5.92M4.96 12.64H4M4.96 12.64H5.92M4.96 12.64V13.6M4 12.64V13.6H4.96M5.92 11.68V12.64M5.92 11.68H6.88M5.92 12.64H6.88M5.92 12.64V13.6M6.88 11.68V12.64M6.88 11.68H7.84V12.64M6.88 12.64H7.84M6.88 12.64V13.6M7.84 12.64V13.6M10.72 12.64V11.68H9.76V12.64M10.72 12.64H9.76M10.72 12.64H11.68M10.72 12.64V13.6M9.76 12.64H8.8V13.6M9.76 12.64V13.6M12.64 12.64H11.68M12.64 12.64H13.6V13.6H12.64V12.64ZM11.68 12.64V13.6H10.72M17.44 12.64H18.4M18.4 12.64H19.36M19.36 12.64H20.32M19.36 12.64V13.6H20.32M20.32 12.64H21.28M20.32 12.64V13.6M21.28 12.64V13.6H20.32M24.16 11.68H23.2V12.64M24.16 11.68V12.64M24.16 11.68H25.12M24.16 12.64H23.2M24.16 12.64H25.12M23.2 12.64H22.24V13.6H23.2M23.2 12.64V13.6M25.12 11.68V12.64M25.12 11.68H26.08V12.64M25.12 12.64H26.08M26.08 12.64H27.04M26.08 12.64V13.6H27.04V12.64M27.04 12.64H28V11.68H27.04V12.64ZM4.96 13.6H5.92M5.92 13.6H6.88M5.92 13.6V14.56M7.84 13.6H6.88M7.84 13.6V14.56M7.84 13.6H8.8M6.88 13.6V14.56M9.76 13.6H8.8M9.76 13.6V14.56M9.76 13.6H10.72M8.8 13.6V14.56M10.72 13.6V14.56H9.76M23.2 13.6H24.16V14.56M23.2 13.6V14.56M6.88 14.56H5.92M6.88 14.56H7.84M6.88 14.56V15.52M5.92 14.56V15.52M7.84 14.56H8.8M7.84 14.56V15.52M8.8 14.56H9.76M18.4 14.56V13.6H17.44V14.56M18.4 14.56H17.44M18.4 14.56V15.52M18.4 14.56H19.36V15.52H18.4M17.44 14.56H16.48M17.44 14.56V15.52M24.16 14.56H23.2M24.16 14.56H25.12M24.16 14.56V15.52M23.2 14.56H22.24V15.52M23.2 14.56V15.52M4.96 15.52V14.56H4V15.52H4.96ZM4.96 15.52H5.92M4.96 15.52V16.48M6.88 15.52H5.92M6.88 15.52H7.84M6.88 15.52V16.48M5.92 15.52V16.48M7.84 15.52V16.48M15.52 14.56H14.56V15.52M15.52 14.56V15.52M15.52 14.56H16.48M15.52 15.52H14.56M15.52 15.52H16.48M15.52 15.52V16.48M14.56 15.52V16.48M16.48 14.56V15.52M16.48 15.52H17.44M17.44 15.52H18.4M21.28 15.52V14.56H20.32V15.52M21.28 15.52H20.32M21.28 15.52V16.48M21.28 15.52H22.24M20.32 15.52V16.48M23.2 15.52H22.24M23.2 15.52V16.48M23.2 15.52H24.16M22.24 15.52V16.48M25.12 14.56V15.52M25.12 14.56H26.08V15.52M25.12 15.52H24.16M25.12 15.52H26.08M25.12 15.52V16.48H26.08M24.16 15.52V16.48M26.08 15.52V16.48M26.08 15.52H27.04M5.92 16.48H4.96M5.92 16.48V17.44M5.92 16.48H6.88M4.96 16.48V17.44M7.84 16.48H6.88M7.84 16.48H8.8M7.84 16.48V17.44M6.88 16.48V17.44M9.76 15.52H8.8V16.48M9.76 15.52V16.48M9.76 15.52H10.72V16.48M9.76 16.48H8.8M9.76 16.48H10.72M8.8 16.48V17.44M10.72 16.48H11.68M10.72 16.48V17.44M13.6 16.48V15.52H12.64V16.48M13.6 16.48H12.64M13.6 16.48V17.44M13.6 16.48H14.56M12.64 16.48H11.68M12.64 16.48V17.44M15.52 16.48H14.56M15.52 16.48V17.44M14.56 16.48V17.44M21.28 16.48H20.32M21.28 16.48H22.24M21.28 16.48V17.44M20.32 16.48V17.44M22.24 16.48H23.2M22.24 16.48V17.44M23.2 16.48H24.16M23.2 16.48V17.44M24.16 16.48V17.44M26.08 16.48H27.04M27.04 15.52V16.48M27.04 15.52H28V16.48M27.04 16.48H28M27.04 16.48V17.44M28 16.48V17.44H27.04M5.92 17.44H4.96M5.92 17.44H6.88M5.92 17.44V18.4H4.96M4.96 17.44V18.4M6.88 17.44H7.84M6.88 17.44V18.4M8.8 17.44H7.84M8.8 17.44V18.4M7.84 17.44V18.4M11.68 16.48V17.44M11.68 17.44H10.72M11.68 17.44H12.64M10.72 17.44H9.76V18.4H10.72M10.72 17.44V18.4M12.64 17.44H13.6M12.64 17.44V18.4M13.6 17.44H14.56M13.6 17.44V18.4M14.56 17.44H15.52M14.56 17.44V18.4H13.6M15.52 17.44H16.48M15.52 17.44V18.4M17.44 17.44V16.48H16.48V17.44M17.44 17.44H16.48M17.44 17.44H18.4M17.44 17.44V18.4M16.48 17.44V18.4M18.4 17.44H19.36V16.48H18.4V17.44ZM18.4 17.44V18.4M21.28 17.44H20.32M21.28 17.44H22.24M21.28 17.44V18.4M20.32 17.44V18.4H21.28M22.24 17.44H23.2M22.24 17.44V18.4M23.2 17.44H24.16M23.2 17.44V18.4M24.16 17.44V18.4M27.04 17.44H26.08M27.04 17.44V18.4M4.96 18.4H4V19.36H4.96V18.4ZM7.84 18.4H6.88M7.84 18.4H8.8M7.84 18.4V19.36M6.88 18.4V19.36M8.8 18.4V19.36H7.84M10.72 18.4H11.68M10.72 18.4V19.36M13.6 18.4H12.64M12.64 18.4H11.68M12.64 18.4V19.36M16.48 18.4H15.52M16.48 18.4V19.36M16.48 18.4H17.44M15.52 18.4V19.36M18.4 18.4H17.44M18.4 18.4H19.36V19.36M18.4 18.4V19.36H19.36M17.44 18.4V19.36H16.48M21.28 18.4H22.24M22.24 18.4H23.2M22.24 18.4V19.36M24.16 18.4H23.2M24.16 18.4V19.36M23.2 18.4V19.36M26.08 17.44H25.12V18.4H26.08M26.08 17.44V18.4M26.08 18.4H27.04M27.04 18.4H28V19.36M27.04 18.4V19.36M7.84 19.36H6.88M7.84 19.36V20.32H6.88M6.88 19.36H5.92V20.32H6.88M6.88 19.36V20.32M11.68 18.4V19.36M11.68 19.36H10.72M11.68 19.36H12.64M11.68 19.36V20.32M10.72 19.36H9.76V20.32H10.72V19.36ZM12.64 19.36V20.32M16.48 19.36H15.52M15.52 19.36H14.56M15.52 19.36V20.32M19.36 19.36H20.32M19.36 19.36V20.32M23.2 19.36H22.24M23.2 19.36H24.16M23.2 19.36V20.32M22.24 19.36H21.28M22.24 19.36V20.32M24.16 19.36V20.32M24.16 19.36H25.12M28 19.36H27.04M28 19.36V20.32M27.04 19.36H26.08M27.04 19.36V20.32M12.64 20.32H11.68M12.64 20.32V21.28H11.68V20.32M14.56 19.36H13.6V20.32H14.56M14.56 19.36V20.32M14.56 20.32H15.52M15.52 20.32H16.48M15.52 20.32V21.28M20.32 19.36V20.32M20.32 19.36H21.28M20.32 20.32H19.36M20.32 20.32H21.28M20.32 20.32V21.28M19.36 20.32V21.28M21.28 19.36V20.32M21.28 20.32H22.24M22.24 20.32H23.2M23.2 20.32H24.16M23.2 20.32V21.28M24.16 20.32H25.12M24.16 20.32V21.28M25.12 19.36V20.32M25.12 19.36H26.08M25.12 20.32H26.08M25.12 20.32V21.28M26.08 19.36V20.32M26.08 20.32H27.04M26.08 20.32V21.28M27.04 20.32H28M27.04 20.32V21.28M28 20.32V21.28M16.48 20.32V21.28M16.48 20.32H17.44V21.28H16.48M16.48 21.28H15.52M16.48 21.28V22.24M15.52 21.28H14.56V22.24H15.52M15.52 21.28V22.24M20.32 21.28H19.36M20.32 21.28V22.24M19.36 21.28V22.24M24.16 21.28H23.2M24.16 21.28V22.24M23.2 21.28V22.24M26.08 21.28H25.12M26.08 21.28V22.24M26.08 21.28H27.04M25.12 21.28V22.24H26.08M28 21.28H27.04M28 21.28V22.24M27.04 21.28V22.24M4.96 21.28H4V22.24M4.96 21.28V22.24M4.96 21.28H5.92M4.96 22.24H4M4.96 22.24H5.92M4.96 22.24V23.2M4 22.24V23.2M5.92 21.28V22.24M5.92 21.28H6.88M5.92 22.24H6.88M6.88 21.28V22.24M6.88 21.28H7.84M6.88 22.24H7.84M7.84 21.28V22.24M7.84 21.28H8.8M7.84 22.24H8.8M8.8 21.28V22.24M8.8 21.28H9.76M8.8 22.24H9.76M9.76 21.28V22.24M9.76 21.28H10.72V22.24M9.76 22.24H10.72M9.76 22.24V23.2M10.72 22.24V23.2M15.52 22.24H16.48M15.52 22.24V23.2M16.48 22.24V23.2M20.32 22.24H19.36M20.32 22.24V23.2M19.36 22.24H18.4V23.2H19.36M19.36 22.24V23.2M24.16 22.24H23.2M24.16 22.24V23.2M23.2 22.24V23.2M26.08 22.24H27.04M26.08 22.24V23.2H27.04M27.04 22.24H28M27.04 22.24V23.2M28 22.24V23.2H27.04M4.96 23.2H4M4.96 23.2V24.16M4 23.2V24.16M10.72 23.2H9.76M10.72 23.2V24.16M9.76 23.2V24.16M16.48 23.2H15.52M16.48 23.2V24.16M16.48 23.2H17.44V24.16M15.52 23.2H14.56M15.52 23.2V24.16M19.36 23.2H20.32M19.36 23.2V24.16M20.32 23.2V24.16M20.32 23.2H21.28M24.16 23.2H23.2M24.16 23.2V24.16M24.16 23.2H25.12V24.16M23.2 23.2H22.24M23.2 23.2V24.16M4.96 24.16H4M4.96 24.16V25.12M4 24.16V25.12M6.88 23.2H5.92V24.16M6.88 23.2V24.16M6.88 23.2H7.84M6.88 24.16H5.92M6.88 24.16H7.84M6.88 24.16V25.12M5.92 24.16V25.12M7.84 23.2V24.16M7.84 23.2H8.8V24.16M7.84 24.16H8.8M7.84 24.16V25.12M8.8 24.16V25.12M10.72 24.16H9.76M10.72 24.16V25.12M9.76 24.16V25.12M13.6 23.2H12.64V24.16M13.6 23.2V24.16M13.6 23.2H14.56M13.6 24.16H12.64M13.6 24.16H14.56M13.6 24.16V25.12M12.64 24.16H11.68V25.12M12.64 24.16V25.12M14.56 23.2V24.16M14.56 24.16H15.52M14.56 24.16V25.12M15.52 24.16H16.48M15.52 24.16V25.12M16.48 24.16H17.44M16.48 24.16V25.12M17.44 24.16V25.12M17.44 24.16H18.4V25.12M20.32 24.16H19.36M20.32 24.16H21.28M20.32 24.16V25.12M19.36 24.16V25.12M21.28 23.2V24.16M21.28 23.2H22.24M21.28 24.16H22.24M21.28 24.16V25.12M22.24 23.2V24.16M22.24 24.16H23.2M22.24 24.16V25.12M23.2 24.16H24.16M23.2 24.16V25.12M24.16 24.16H25.12M24.16 24.16V25.12M25.12 24.16V25.12M25.12 24.16H26.08M4.96 25.12H4M4.96 25.12V26.08M4 25.12V26.08M6.88 25.12H5.92M6.88 25.12H7.84M6.88 25.12V26.08M5.92 25.12V26.08H6.88M7.84 25.12H8.8M7.84 25.12V26.08M8.8 25.12V26.08H7.84M10.72 25.12H9.76M10.72 25.12V26.08M9.76 25.12V26.08M12.64 25.12H11.68M12.64 25.12H13.6M12.64 25.12V26.08M11.68 25.12V26.08M13.6 25.12H14.56M13.6 25.12V26.08M14.56 25.12V26.08M14.56 25.12H15.52M16.48 25.12H15.52M16.48 25.12H17.44M16.48 25.12V26.08M15.52 25.12V26.08M17.44 25.12H18.4M17.44 25.12V26.08H16.48M18.4 25.12H19.36M18.4 25.12V26.08H19.36V25.12M20.32 25.12H19.36M20.32 25.12H21.28M20.32 25.12V26.08H21.28M21.28 25.12H22.24M21.28 25.12V26.08M22.24 25.12V26.08M24.16 25.12H23.2M24.16 25.12H25.12M24.16 25.12V26.08M23.2 25.12V26.08M25.12 25.12H26.08M25.12 25.12V26.08M26.08 24.16V25.12M26.08 24.16H27.04M26.08 25.12H27.04M26.08 25.12V26.08M27.04 24.16V25.12M27.04 24.16H28V25.12H27.04M27.04 25.12V26.08H26.08M4.96 26.08H4M4.96 26.08V27.04M4 26.08V27.04M6.88 26.08H7.84M10.72 26.08H9.76M10.72 26.08V27.04M9.76 26.08V27.04M12.64 26.08H11.68M12.64 26.08H13.6M12.64 26.08V27.04M11.68 26.08V27.04M13.6 26.08H14.56M14.56 26.08H15.52M15.52 26.08H16.48M21.28 26.08H22.24M21.28 26.08V27.04M22.24 26.08V27.04M24.16 26.08H23.2M24.16 26.08V27.04M23.2 26.08V27.04M26.08 26.08H25.12M26.08 26.08V27.04M25.12 26.08V27.04M4.96 27.04H4M4.96 27.04V28M4.96 27.04H5.92M4 27.04V28H4.96M10.72 27.04H9.76M10.72 27.04V28H9.76M9.76 27.04H8.8M9.76 27.04V28M12.64 27.04H11.68M12.64 27.04V28M12.64 27.04H13.6V28H12.64M11.68 27.04V28H12.64M22.24 27.04H21.28M22.24 27.04H23.2M22.24 27.04V28H23.2M21.28 27.04H20.32V28H21.28V27.04ZM24.16 27.04H23.2M24.16 27.04V28M24.16 27.04H25.12M23.2 27.04V28M26.08 27.04H25.12M26.08 27.04V28M26.08 27.04H27.04M25.12 27.04V28M4.96 28H5.92M5.92 27.04V28M5.92 27.04H6.88M5.92 28H6.88M6.88 27.04V28M6.88 27.04H7.84M6.88 28H7.84M7.84 27.04V28M7.84 27.04H8.8M7.84 28H8.8M8.8 27.04V28M8.8 28H9.76M23.2 28H24.16M24.16 28H25.12M25.12 28H26.08M26.08 28H27.04M27.04 27.04V28M27.04 27.04H28V28H27.04M19.36 4.96H20.32V5.92H19.36V4.96ZM21.28 21.28H22.24V22.24H21.28V21.28ZM15.52 27.04H16.48V28H15.52V27.04ZM17.44 27.04H18.4V28H17.44V27.04Z" stroke="black" stroke-width="0.5"/>
</svg>
