<svg width="18" height="18" viewBox="0 0 18 18" fill="none" xmlns="http://www.w3.org/2000/svg">
<path d="M5.58963 2.0345C5.8707 1.32183 6.8793 1.32183 7.16037 2.0345L8.03139 4.24299C8.1172 4.46057 8.28943 4.6328 8.50701 4.71861L10.7155 5.58963C11.4282 5.8707 11.4282 6.8793 10.7155 7.16037L8.50701 8.03139C8.28943 8.1172 8.1172 8.28943 8.03139 8.50701L7.16037 10.7155C6.8793 11.4282 5.8707 11.4282 5.58963 10.7155L4.71861 8.50701C4.6328 8.28943 4.46057 8.1172 4.24299 8.03139L2.0345 7.16037C1.32183 6.8793 1.32183 5.8707 2.0345 5.58963L4.24299 4.71861C4.46057 4.6328 4.6328 4.46057 4.71861 4.24299L5.58963 2.0345Z" fill="url(#paint0_linear_7336_35280)"/>
<path d="M12.6934 10.0437C12.8479 9.65209 13.4021 9.65209 13.5566 10.0437L14.2321 11.7565C14.2793 11.8761 14.3739 11.9707 14.4935 12.0179L16.2063 12.6934C16.5979 12.8479 16.5979 13.4021 16.2063 13.5566L14.4935 14.2321C14.3739 14.2793 14.2793 14.3739 14.2321 14.4935L13.5566 16.2063C13.4021 16.5979 12.8479 16.5979 12.6934 16.2063L12.0179 14.4935C11.9707 14.3739 11.8761 14.2793 11.7565 14.2321L10.0437 13.5566C9.65209 13.4021 9.65209 12.8479 10.0437 12.6934L11.7565 12.0179C11.8761 11.9707 11.9707 11.8761 12.0179 11.7565L12.6934 10.0437Z" fill="url(#paint1_linear_7336_35280)"/>
<defs>
<linearGradient id="paint0_linear_7336_35280" x1="1.5" y1="11.25" x2="11.25" y2="11.25" gradientUnits="userSpaceOnUse">
<stop stop-color="#23FF81"/>
<stop offset="1" stop-color="#1FAB5E"/>
</linearGradient>
<linearGradient id="paint1_linear_7336_35280" x1="9.75" y1="16.5" x2="16.5" y2="16.5" gradientUnits="userSpaceOnUse">
<stop stop-color="#23FF81"/>
<stop offset="1" stop-color="#1FAB5E"/>
</linearGradient>
</defs>
</svg>
