<svg width="20" height="20" viewBox="0 0 20 20" fill="none" xmlns="http://www.w3.org/2000/svg">
<path d="M9.99935 15.8337C13.221 15.8337 15.8327 13.222 15.8327 10.0003C15.8327 6.77866 13.221 4.16699 9.99935 4.16699C6.77769 4.16699 4.16602 6.77866 4.16602 10.0003C4.16602 13.222 6.77769 15.8337 9.99935 15.8337Z" fill="#717582"/>
<path d="M10.0007 19.133C9.54232 19.133 9.16732 18.7913 9.16732 18.333V18.2663C9.16732 17.808 9.54232 17.433 10.0007 17.433C10.459 17.433 10.834 17.808 10.834 18.2663C10.834 18.7247 10.459 19.133 10.0007 19.133ZM15.9507 16.783C15.734 16.783 15.5257 16.6997 15.359 16.5413L15.2507 16.433C14.9256 16.108 14.9256 15.583 15.2507 15.258C15.5757 14.933 16.1006 14.933 16.4256 15.258L16.534 15.3663C16.859 15.6913 16.859 16.2163 16.534 16.5413C16.3757 16.6997 16.1673 16.783 15.9507 16.783ZM4.05065 16.783C3.83398 16.783 3.62565 16.6997 3.45898 16.5413C3.13398 16.2163 3.13398 15.6913 3.45898 15.3663L3.56732 15.258C3.89232 14.933 4.41732 14.933 4.74232 15.258C5.06732 15.583 5.06732 16.108 4.74232 16.433L4.63398 16.5413C4.47565 16.6997 4.25898 16.783 4.05065 16.783ZM18.334 10.833H18.2673C17.809 10.833 17.434 10.458 17.434 9.99967C17.434 9.54134 17.809 9.16634 18.2673 9.16634C18.7257 9.16634 19.134 9.54134 19.134 9.99967C19.134 10.458 18.7923 10.833 18.334 10.833ZM1.73398 10.833H1.66732C1.20898 10.833 0.833984 10.458 0.833984 9.99967C0.833984 9.54134 1.20898 9.16634 1.66732 9.16634C2.12565 9.16634 2.53398 9.54134 2.53398 9.99967C2.53398 10.458 2.19232 10.833 1.73398 10.833ZM15.8423 4.99134C15.6257 4.99134 15.4173 4.90801 15.2507 4.74967C14.9256 4.42467 14.9256 3.89967 15.2507 3.57467L15.359 3.46634C15.684 3.14134 16.209 3.14134 16.534 3.46634C16.859 3.79134 16.859 4.31634 16.534 4.64134L16.4256 4.74967C16.2673 4.90801 16.059 4.99134 15.8423 4.99134ZM4.15898 4.99134C3.94232 4.99134 3.73398 4.90801 3.56732 4.74967L3.45898 4.63301C3.13398 4.30801 3.13398 3.78301 3.45898 3.45801C3.78398 3.13301 4.30898 3.13301 4.63398 3.45801L4.74232 3.56634C5.06732 3.89134 5.06732 4.41634 4.74232 4.74134C4.58398 4.90801 4.36732 4.99134 4.15898 4.99134ZM10.0007 2.53301C9.54232 2.53301 9.16732 2.19134 9.16732 1.73301V1.66634C9.16732 1.20801 9.54232 0.833008 10.0007 0.833008C10.459 0.833008 10.834 1.20801 10.834 1.66634C10.834 2.12467 10.459 2.53301 10.0007 2.53301Z" fill="#717582"/>
</svg>
