<svg width="18" height="18" viewBox="0 0 18 18" fill="none" xmlns="http://www.w3.org/2000/svg">
<path d="M16.9419 12.2748C16.8086 12.0498 16.4336 11.6998 15.5002 11.8665C14.9836 11.9581 14.4586 11.9998 13.9336 11.9748C11.9919 11.8915 10.2336 10.9998 9.00858 9.62481C7.92525 8.41648 7.25858 6.84148 7.25025 5.14148C7.25025 4.19148 7.43358 3.27481 7.80858 2.40815C8.17525 1.56648 7.91691 1.12481 7.73358 0.941479C7.54191 0.749812 7.09191 0.483146 6.20858 0.849812C2.80024 2.28315 0.691912 5.69981 0.941912 9.35815C1.19191 12.7998 3.60858 15.7415 6.80858 16.8498C7.57525 17.1165 8.38358 17.2748 9.21691 17.3081C9.35025 17.3165 9.48358 17.3248 9.61691 17.3248C12.4086 17.3248 15.0252 16.0081 16.6752 13.7665C17.2336 12.9915 17.0836 12.4998 16.9419 12.2748Z" fill="#B4B8C0"/>
</svg>
