<svg width="236" height="236" viewBox="0 0 236 236" fill="none" xmlns="http://www.w3.org/2000/svg">
<path d="M2.92893 17.3286L17.3286 2.92893C19.2039 1.05357 21.7475 0 24.3996 0H211.6C214.253 0 216.796 1.05357 218.671 2.92893L233.071 17.3286C234.946 19.2039 236 21.7475 236 24.3996V211.6C236 214.253 234.946 216.796 233.071 218.671L218.671 233.071C216.796 234.946 214.253 236 211.6 236H24.3996C21.7475 236 19.2039 234.946 17.3286 233.071L2.92893 218.671C1.05357 216.796 0 214.253 0 211.6V24.3996C0 21.7475 1.05357 19.2039 2.92893 17.3286Z" fill="#DEDEDE"/>
</svg>
