<svg width="572" height="582" viewBox="0 0 572 582" fill="none" xmlns="http://www.w3.org/2000/svg">
<path d="M429.496 34.018C433.156 30.0728 433.038 23.9384 429.228 20.1374L416.983 7.92077C415.108 6.05041 412.568 5.00002 409.92 5.00002L268.393 5.00002C265.744 5.00002 263.203 6.05107 261.328 7.92249L242.557 26.6592C236.249 32.9562 240.708 43.7368 249.622 43.7368L348.806 43.7368C351.483 43.7368 354.049 44.8102 355.928 46.7167L359.993 50.8404C361.872 52.7469 364.437 53.8203 367.115 53.8203H406.76C409.543 53.8203 412.199 52.6613 414.091 50.6217L429.496 34.018Z" fill="#DEDEDE"/>
<path d="M374.12 564.227C374.922 563.427 374.355 562.057 373.222 562.057H220.586C217.937 562.057 215.396 561.006 213.521 559.135L201.385 547.021L198.282 543.923C196.407 542.051 193.866 541 191.217 541L88.4255 541C87.2241 541 86.0943 541.571 85.3814 542.538L85.0134 543.037C84.1143 544.256 84.2424 545.95 85.3148 547.021L87.3755 549.076C89.25 550.945 91.7895 551.995 94.437 551.995L177.801 551.995C180.45 551.995 182.991 553.046 184.866 554.918L198.436 568.463C200.311 570.334 202.851 571.385 205.5 571.385H362.812C365.461 571.385 368.002 570.334 369.877 568.463L374.12 564.227Z" fill="#DEDEDE"/>
<path d="M56.2772 42.3822C53.0594 45.5113 55.2746 50.9668 59.7629 50.9668L71.4282 50.9668C72.7527 50.9668 74.0231 50.4413 74.9605 49.5056L81.0953 43.3819C82.0327 42.4462 83.3031 41.9207 84.6276 41.9207H101.273C102.058 41.9207 102.81 41.6095 103.365 41.0555C105.232 39.1914 103.912 35.9999 101.273 35.9999H64.8706C63.5687 35.9999 62.3182 36.5077 61.3848 37.4153L56.2772 42.3822Z" fill="#DEDEDE"/>
<path d="M113.089 546.235C113.152 546.091 113.121 545.923 113.009 545.812L84.1328 516.988C82.2579 515.117 79.7171 514.066 77.0682 514.066H57.0187C54.3697 514.066 51.829 513.015 49.9541 511.143L33.5237 494.743C31.6509 492.873 30.5953 490.338 30.5883 487.692L30.408 419.864C30.4009 417.201 31.4563 414.645 33.3403 412.763L37.4481 408.659C39.3255 406.783 40.3804 404.238 40.3804 401.584V322.291C40.3804 321.459 39.4438 320.971 38.7624 321.449C38.7137 321.483 38.6681 321.521 38.626 321.563L27.9001 332.269C26.0209 334.145 24.9648 336.691 24.9647 339.347L24.9635 395.764C24.9634 398.419 23.9073 400.965 22.0281 402.841L3.39829 421.437C1.51897 423.313 0.462891 425.859 0.462891 428.514V474.342C0.462891 476.997 1.51897 479.543 3.39829 481.419L13.4437 491.446C15.323 493.322 16.3791 495.868 16.3791 498.524V511C16.3791 513.655 17.4349 516.201 19.3137 518.077L55.3725 554.077C57.2474 555.949 59.7884 557 62.4378 557H101.813C105.768 557 109.352 554.668 110.955 551.051L113.089 546.235Z" fill="#DEDEDE"/>
<path d="M548.902 581.381C547.981 581.381 547.233 580.634 547.233 579.712C547.233 578.79 546.486 578.043 545.564 578.043H369.141C367.628 578.043 366.178 578.643 365.108 579.712C364.038 580.781 362.587 581.381 361.075 581.381L195.602 581.381C192.951 581.381 190.41 580.329 188.535 578.457L171.828 561.769C169.956 559.899 167.418 558.847 164.772 558.844L62.2449 558.731C59.5985 558.729 57.0613 557.677 55.1889 555.807L19.2711 519.93C17.3932 518.054 16.3381 515.509 16.3381 512.855V500.283C16.3381 497.629 15.2828 495.083 13.4049 493.208L3.39615 483.211C1.51814 481.335 0.462921 478.79 0.462975 476.135L0.464077 421.836C0.464131 419.182 1.51922 416.637 3.39693 414.762L21.7596 396.419C23.6374 394.544 24.6925 391.998 24.6925 389.344L24.692 106.375C24.692 103.721 25.7472 101.176 27.6251 99.3002L40.5666 86.3737L42.6466 84.2961C44.5244 82.4204 45.5796 79.8751 45.5796 77.2209V10.0001C45.5796 4.47729 50.0568 0.00012207 55.5796 0.00012207L313.305 6.10352e-05H325.854H408.173C410.823 6.10352e-05 413.365 1.05206 415.24 2.92493L418.161 5.8418L430.271 17.9385C432.146 19.8114 434.688 20.8633 437.338 20.8633H480.431C483.082 20.8633 485.623 21.9153 487.498 23.7881L505.036 41.3053C506.911 43.1782 509.453 44.2301 512.103 44.2301H551.436C556.959 44.2301 561.436 48.7073 561.436 54.2301L561.437 555.014C561.437 556.671 562.78 558.014 564.437 558.014L568.463 558.014C570.12 558.014 571.463 559.358 571.463 561.014V578.381C571.463 580.038 570.12 581.381 568.463 581.381H548.902ZM545.147 575.54C546.299 575.54 547.233 574.605 547.233 573.453C547.233 572.301 546.299 571.367 545.147 571.367H374.326C373.773 571.367 373.243 571.586 372.852 571.977C371.536 573.291 372.467 575.54 374.326 575.54H545.147ZM558.93 69.3266C558.93 63.8221 554.481 59.3527 548.977 59.3267L537.14 59.2709C534.507 59.2585 531.984 58.2076 530.121 56.3463L523.425 49.6585C521.55 47.7856 519.008 46.7337 516.358 46.7337H511.267C508.617 46.7337 506.076 45.6818 504.201 43.8089L486.663 26.2917C484.788 24.4189 482.246 23.3669 479.596 23.3669H436.503C433.853 23.3669 431.311 22.315 429.436 20.4421L417.747 8.7666C415.872 6.89374 413.33 5.8418 410.68 5.8418H346.61C344.005 5.8418 341.503 6.85846 339.636 8.67542L312.874 34.7203C311.008 36.5373 308.505 37.554 305.9 37.554L67.2639 37.554C64.6138 37.554 62.072 38.606 60.1969 40.4789L51.0193 49.6459C49.1415 51.5215 48.0864 54.0668 48.0863 56.7209L48.0861 78.0555C48.0861 80.7097 47.031 83.2549 45.1531 85.1306L40.1488 90.1291L30.1316 100.135C28.2537 102.01 27.1985 104.556 27.1985 107.21L27.199 396.871C27.199 399.516 26.1512 402.053 24.285 403.927L21.5458 406.678C19.6796 408.552 18.6319 411.089 18.6319 413.734L18.6313 511.643C18.6313 514.289 19.6804 516.828 21.5488 518.702L56.0172 553.283C57.8935 555.165 60.442 556.223 63.0998 556.223H90.7791C93.4037 556.223 95.9231 555.191 97.7937 553.35L100.311 550.873C102.181 549.032 104.701 548 107.325 548H178.134C180.784 548 183.326 549.052 185.201 550.925L201.067 566.773C202.942 568.646 205.484 569.698 208.134 569.698L356.792 569.698C359.442 569.698 361.984 568.646 363.859 566.773L369.699 560.939C371.574 559.066 374.116 558.014 376.766 558.014H482.103C484.753 558.014 487.295 559.066 489.17 560.939L494.175 565.939C496.05 567.811 498.592 568.863 501.242 568.863H544.233C545.89 568.863 547.233 567.52 547.233 565.863V561.014C547.233 559.357 548.576 558.014 550.233 558.014H555.93C557.587 558.014 558.93 556.671 558.93 555.014L558.93 69.3266Z" fill="#61646B"/>
<path d="M548.902 581.381C547.981 581.381 547.233 580.634 547.233 579.712C547.233 578.79 546.486 578.043 545.564 578.043H369.141C367.628 578.043 366.178 578.643 365.108 579.712C364.038 580.781 362.587 581.381 361.075 581.381L195.602 581.381C192.951 581.381 190.41 580.329 188.535 578.457L171.828 561.769C169.956 559.899 167.418 558.847 164.772 558.844L62.2449 558.731C59.5985 558.729 57.0613 557.677 55.1889 555.807L19.2711 519.93C17.3932 518.054 16.3381 515.509 16.3381 512.855V500.283C16.3381 497.629 15.2828 495.083 13.4049 493.208L3.39615 483.211C1.51814 481.335 0.462921 478.79 0.462975 476.135L0.464077 421.836C0.464131 419.182 1.51922 416.637 3.39693 414.762L21.7596 396.419C23.6374 394.544 24.6925 391.998 24.6925 389.344L24.692 106.375C24.692 103.721 25.7472 101.176 27.6251 99.3002L40.5666 86.3737L42.6466 84.2961C44.5244 82.4204 45.5796 79.8751 45.5796 77.2209V10.0001C45.5796 4.47729 50.0568 0.00012207 55.5796 0.00012207L313.305 6.10352e-05H325.854H408.173C410.823 6.10352e-05 413.365 1.05206 415.24 2.92493L418.161 5.8418L430.271 17.9385C432.146 19.8114 434.688 20.8633 437.338 20.8633H480.431C483.082 20.8633 485.623 21.9153 487.498 23.7881L505.036 41.3053C506.911 43.1782 509.453 44.2301 512.103 44.2301H551.436C556.959 44.2301 561.436 48.7073 561.436 54.2301L561.437 555.014C561.437 556.671 562.78 558.014 564.437 558.014L568.463 558.014C570.12 558.014 571.463 559.358 571.463 561.014V578.381C571.463 580.038 570.12 581.381 568.463 581.381H548.902ZM545.147 575.54C546.299 575.54 547.233 574.605 547.233 573.453C547.233 572.301 546.299 571.367 545.147 571.367H374.326C373.773 571.367 373.243 571.586 372.852 571.977C371.536 573.291 372.467 575.54 374.326 575.54H545.147ZM558.93 69.3266C558.93 63.8221 554.481 59.3527 548.977 59.3267L537.14 59.2709C534.507 59.2585 531.984 58.2076 530.121 56.3463L523.425 49.6585C521.55 47.7856 519.008 46.7337 516.358 46.7337H511.267C508.617 46.7337 506.076 45.6818 504.201 43.8089L486.663 26.2917C484.788 24.4189 482.246 23.3669 479.596 23.3669H436.503C433.853 23.3669 431.311 22.315 429.436 20.4421L417.747 8.7666C415.872 6.89374 413.33 5.8418 410.68 5.8418H346.61C344.005 5.8418 341.503 6.85846 339.636 8.67542L312.874 34.7203C311.008 36.5373 308.505 37.554 305.9 37.554L67.2639 37.554C64.6138 37.554 62.072 38.606 60.1969 40.4789L51.0193 49.6459C49.1415 51.5215 48.0864 54.0668 48.0863 56.7209L48.0861 78.0555C48.0861 80.7097 47.031 83.2549 45.1531 85.1306L40.1488 90.1291L30.1316 100.135C28.2537 102.01 27.1985 104.556 27.1985 107.21L27.199 396.871C27.199 399.516 26.1512 402.053 24.285 403.927L21.5458 406.678C19.6796 408.552 18.6319 411.089 18.6319 413.734L18.6313 511.643C18.6313 514.289 19.6804 516.828 21.5488 518.702L56.0172 553.283C57.8935 555.165 60.442 556.223 63.0998 556.223H90.7791C93.4037 556.223 95.9231 555.191 97.7937 553.35L100.311 550.873C102.181 549.032 104.701 548 107.325 548H178.134C180.784 548 183.326 549.052 185.201 550.925L201.067 566.773C202.942 568.646 205.484 569.698 208.134 569.698L356.792 569.698C359.442 569.698 361.984 568.646 363.859 566.773L369.699 560.939C371.574 559.066 374.116 558.014 376.766 558.014H482.103C484.753 558.014 487.295 559.066 489.17 560.939L494.175 565.939C496.05 567.811 498.592 568.863 501.242 568.863H544.233C545.89 568.863 547.233 567.52 547.233 565.863V561.014C547.233 559.357 548.576 558.014 550.233 558.014H555.93C557.587 558.014 558.93 556.671 558.93 555.014L558.93 69.3266Z" fill="black" fill-opacity="0.2"/>
<path d="M571.637 292.454V393.485C571.637 394.086 571.15 394.573 570.55 394.573C569.95 394.573 569.463 394.086 569.463 393.485V292.454C569.463 291.854 569.95 291.367 570.55 291.367C571.15 291.367 571.637 291.854 571.637 292.454Z" fill="#61646B"/>
<path d="M571.637 292.454V393.485C571.637 394.086 571.15 394.573 570.55 394.573C569.95 394.573 569.463 394.086 569.463 393.485V292.454C569.463 291.854 569.95 291.367 570.55 291.367C571.15 291.367 571.637 291.854 571.637 292.454Z" fill="black" fill-opacity="0.2"/>
</svg>
