<svg xmlns="http://www.w3.org/2000/svg" width="50" height="52" viewBox="0 0 50 52" fill="none">
  <path d="M45.7095 30.4806V30.484C45.3669 30.2934 45.0277 30.0924 44.6954 29.8914C41.7445 28.0807 41.7445 23.8992 44.6954 22.0928C45.0277 21.888 45.3669 21.6903 45.7095 21.4998C48.9197 19.7072 50.0213 15.734 48.1683 12.6283C46.3153 9.5231 42.2076 8.45732 38.9978 10.2499C38.8336 10.342 38.6655 10.4337 38.498 10.522C35.3278 12.2119 31.3918 10.0488 31.3842 6.55207V6.48475C31.3842 2.89969 28.3783 -0.0078125 24.672 -0.0078125C20.9657 -0.0078125 17.9602 2.89969 17.9602 6.48475V6.55207C17.9526 10.0526 14.0166 12.2119 10.8464 10.522C10.6789 10.4337 10.5146 10.342 10.3466 10.2499C7.13679 8.45732 3.02896 9.51975 1.17605 12.6283C-0.67735 15.734 0.420747 19.7072 3.63435 21.4998C3.97762 21.6903 4.3166 21.8913 4.6489 22.0928C7.59993 23.903 7.59993 28.0845 4.6489 29.8914C4.3166 30.0958 3.97762 30.2934 3.63435 30.484C0.424566 32.2765 -0.67735 36.2464 1.17605 39.3554C3.02896 42.4639 7.13679 43.5266 10.3466 41.7339C10.5108 41.6417 10.6789 41.55 10.8464 41.4622C14.0166 39.7718 17.9526 41.9349 17.9602 45.4317V45.4991C17.9602 49.0846 20.9657 51.9922 24.672 51.9922C28.3783 51.9922 31.3842 49.0846 31.3842 45.4991V45.4317C31.3918 41.931 35.3278 39.7718 38.498 41.4583C38.6655 41.5467 38.8298 41.6384 38.9978 41.73C42.2076 43.5227 46.3153 42.4606 48.1683 39.3516C50.0213 36.2464 48.9237 32.2731 45.7095 30.4806ZM24.672 49.4912C21.3223 49.4912 18.6057 46.8638 18.6057 43.6227V43.5622C18.599 40.4016 15.0469 38.4568 12.1761 39.9743C12.0253 40.0545 11.8729 40.1366 11.7245 40.2197C8.82356 41.8398 5.11056 40.8796 3.43574 38.0705C1.7609 35.2604 2.75683 31.672 5.65771 30.0518C5.96804 29.8799 6.27453 29.7008 6.57485 29.5165C9.24178 27.8835 9.24608 24.0969 6.57485 22.4677C6.27501 22.2848 5.96804 22.1038 5.65771 21.9319C2.75301 20.3117 1.7609 16.7205 3.43574 13.9137C5.11056 11.1041 8.81735 10.1548 11.7245 11.764C11.8758 11.8476 12.0248 11.9297 12.1761 12.0099C15.045 13.5308 18.599 11.5854 18.6057 8.42149V8.36087C18.6057 5.12056 21.3223 2.49286 24.672 2.49286C28.0216 2.49286 30.7387 5.12056 30.7387 8.36087V8.42149C30.7459 11.5821 34.2999 13.5308 37.1683 12.0099C37.3196 11.9297 37.4719 11.8471 37.6204 11.764C40.5213 10.1438 44.2345 11.107 45.9087 13.9137C47.5834 16.7205 46.588 20.3117 43.6867 21.9319C43.3768 22.1038 43.0703 22.2829 42.77 22.4677C40.1026 24.1007 40.0978 27.8883 42.77 29.5165C43.0698 29.6989 43.3768 29.8799 43.6867 30.0518V30.0489C46.5914 31.6691 47.5834 35.2604 45.9087 38.0667C44.2345 40.8767 40.5294 41.8222 37.6204 40.2163C37.4686 40.1328 37.3201 40.0507 37.1683 39.9709C34.3032 38.4467 30.7459 40.3983 30.7387 43.5622V43.6227C30.7387 46.8638 28.0221 49.4912 24.672 49.4912Z" fill="#3189E2"/>
  <path d="M41.6227 29.6189V29.6217C41.3464 29.4676 41.0725 29.3064 40.8053 29.1432C38.4234 27.6895 38.4277 24.3078 40.8053 22.8503C41.0735 22.6848 41.3464 22.5254 41.6227 22.3718C44.2095 20.9253 45.0967 17.7187 43.6035 15.2125C42.1108 12.7068 38.8011 11.8466 36.2149 13.2932C36.0825 13.3676 35.9467 13.4416 35.812 13.5131C33.2548 14.8705 30.0865 13.131 30.0803 10.3094V10.2551C30.0803 7.36197 27.6584 5.01562 24.6721 5.01562C21.6858 5.01562 19.2643 7.36197 19.2643 10.2551V10.3094C19.2581 13.1343 16.0904 14.8705 13.5327 13.5131C13.3979 13.4416 13.2651 13.3681 13.1302 13.2932C10.5383 11.8567 7.23428 12.704 5.74115 15.2125C4.24798 17.7187 5.13294 20.9253 7.72203 22.3718C7.99874 22.5254 8.27214 22.6867 8.53932 22.8503C10.9208 24.305 10.9169 27.6852 8.53932 29.1432C8.27166 29.3083 7.99874 29.4676 7.72203 29.6217C5.13577 31.0683 4.24798 34.2715 5.74115 36.7805C7.23428 39.2891 10.544 40.1464 13.1302 38.6999C13.2627 38.6255 13.3979 38.552 13.5327 38.4804C16.0918 37.1255 19.2581 38.8621 19.2643 41.6836V41.738C19.2643 44.6315 21.6863 46.978 24.6721 46.978C27.6579 46.978 30.0803 44.6315 30.0803 41.738V41.6836C30.0865 38.8592 33.2576 37.1164 35.812 38.4776C35.9472 38.5486 36.0796 38.6221 36.2149 38.697C38.8083 40.1302 42.1108 39.2862 43.6035 36.7777C45.0967 34.2715 44.2121 31.0654 41.6227 29.6189ZM41.3493 35.4938C40.0342 37.7037 37.1251 38.4475 34.8403 37.1846C34.7213 37.1188 34.6046 37.0544 34.4855 36.9914C32.2355 35.7925 29.4421 37.3273 29.4364 39.8158V39.8635C29.4364 42.4126 27.3031 44.4793 24.6721 44.4793C22.0411 44.4793 19.9083 42.4126 19.9083 39.8635V39.8158C19.903 37.3301 17.1134 35.8001 14.8592 36.9943C14.7406 37.0567 14.621 37.1216 14.5043 37.187C12.2262 38.4613 9.31043 37.7061 7.99539 35.4967C6.67991 33.2863 7.46198 30.4643 9.74052 29.19C9.98392 29.0544 10.2244 28.9137 10.4607 28.7687C12.5549 27.4844 12.5582 24.5063 10.4607 23.2248C10.2249 23.0812 9.98392 22.9386 9.74052 22.8031C7.45958 21.5288 6.67991 18.7044 7.99539 16.4969C9.31043 14.287 12.2215 13.5403 14.5043 14.8061C14.6234 14.8719 14.7406 14.9363 14.8592 14.9993C17.112 16.1953 19.903 14.6658 19.9083 12.1773V12.1296C19.9083 9.58093 22.0416 7.51417 24.6721 7.51417C27.3026 7.51417 29.4364 9.58093 29.4364 12.1296V12.1773C29.4421 14.6629 32.2326 16.1953 34.4855 14.9993C34.6046 14.9363 34.7236 14.8714 34.8403 14.8061C37.1184 13.5317 40.0342 14.2894 41.3493 16.4969C42.6648 18.7044 41.8827 21.5288 39.6041 22.8031C39.3608 22.9386 39.1202 23.0793 38.8845 23.2248C36.7898 24.5092 36.7859 27.4882 38.8845 28.7687C39.1198 28.9123 39.3608 29.0544 39.6041 29.19V29.1876C41.8855 30.4619 42.6648 33.2863 41.3493 35.4938Z" fill="#3189E2"/>
  <path d="M37.6545 28.7494V28.7513C37.4433 28.6346 37.2335 28.5116 37.0291 28.3878C35.2041 27.2815 35.2075 24.7087 37.0291 23.5996C37.234 23.4738 37.4433 23.3528 37.6545 23.2356C39.636 22.135 40.3155 19.6957 39.172 17.789C38.0285 15.8828 35.4934 15.2287 33.5124 16.3287C33.4113 16.3854 33.3074 16.4417 33.204 16.496C31.2454 17.5289 28.8186 16.2054 28.8138 14.0585V14.0176C28.8138 11.8164 26.9587 10.0312 24.6712 10.0312C22.3837 10.0312 20.5291 11.8164 20.5291 14.0176V14.0585C20.5248 16.2078 18.0979 17.5289 16.1389 16.496C16.0359 16.4417 15.9339 16.3859 15.8305 16.3287C13.8452 15.2363 11.3144 15.8809 10.1709 17.789C9.02737 19.6957 9.70498 22.135 11.6879 23.2356C11.9 23.3528 12.1093 23.4757 12.3142 23.5996C14.1382 24.7063 14.1354 27.2781 12.3142 28.3878C12.1093 28.513 11.9 28.6346 11.6879 28.7513C9.70738 29.8518 9.02737 32.2892 10.1709 34.1978C11.3144 36.1064 13.8495 36.7587 15.8305 35.6581C15.932 35.6014 16.0359 35.5457 16.1389 35.4914C18.0994 34.4604 20.5248 35.7815 20.5291 37.9283V37.9698C20.5291 40.1709 22.3842 41.9561 24.6712 41.9561C26.9582 41.9561 28.8138 40.1709 28.8138 37.9698V37.9283C28.8186 35.7791 31.2478 34.4537 33.204 35.489C33.3074 35.5433 33.4089 35.599 33.5124 35.6557C35.4991 36.7463 38.0285 36.104 39.172 34.1954C40.3155 32.2892 39.6384 29.8499 37.6545 28.7494ZM36.9055 32.9134C35.9411 34.5242 33.8064 35.0659 32.1308 34.1454C32.0432 34.0978 31.9575 34.0506 31.8703 34.0049C30.2197 33.1311 28.1702 34.2498 28.1664 36.0631V36.0979C28.1664 37.955 26.6015 39.461 24.6712 39.461C22.7409 39.461 21.1765 37.955 21.1765 36.0979V36.0631C21.1727 34.2517 19.1265 33.1368 17.4725 34.0068C17.3854 34.0526 17.2977 34.0997 17.2125 34.1474C15.5413 35.0759 13.4022 34.5256 12.4373 32.9158C11.4724 31.305 12.0461 29.2487 13.7173 28.3206C13.8959 28.2215 14.0726 28.1191 14.2455 28.0133C15.7822 27.0775 15.7846 24.9079 14.2455 23.974C14.0731 23.8692 13.8959 23.7654 13.7173 23.6668C12.0442 22.7382 11.4724 20.68 12.4373 19.0716C13.4022 17.4612 15.5375 16.9176 17.2125 17.8395C17.2996 17.8877 17.3854 17.9348 17.4725 17.9805C19.1255 18.8519 21.1727 17.7376 21.1765 15.9243V15.8895C21.1765 14.0324 22.7414 12.5263 24.6712 12.5263C26.601 12.5263 28.1664 14.0324 28.1664 15.8895V15.9243C28.1702 17.7357 30.2178 18.8519 31.8703 17.9805C31.9575 17.9348 32.0451 17.8872 32.1308 17.8395C33.8021 16.9109 35.9411 17.4631 36.9055 19.0716C37.8704 20.68 37.2968 22.7382 35.6255 23.6668C35.4469 23.7654 35.2702 23.8678 35.0974 23.974C33.5607 24.9098 33.5579 27.0804 35.0974 28.0133C35.2702 28.1181 35.4469 28.2215 35.6255 28.3206V28.3187C37.2992 29.2472 37.8704 31.305 36.9055 32.9134Z" fill="#3189E2"/>
  <path d="M33.5677 27.8799V27.8813C33.4226 27.801 33.2789 27.7169 33.139 27.6318C31.8885 26.8734 31.8909 25.1095 33.139 24.3492C33.2794 24.2632 33.4226 24.1801 33.5677 24.0997C34.9251 23.3451 35.391 21.6725 34.6072 20.3652C33.824 19.0584 32.087 18.6099 30.7296 19.3644C30.6599 19.403 30.5888 19.4415 30.5181 19.479C29.1759 20.187 27.5135 19.2799 27.5101 17.8077V17.7797C27.5101 16.2705 26.239 15.0469 24.6716 15.0469C23.1041 15.0469 21.8335 16.2705 21.8335 17.7797V17.8077C21.8306 19.2813 20.1677 20.187 18.8254 19.479C18.7548 19.4415 18.6851 19.4034 18.614 19.3644C17.2541 18.6151 15.5201 19.057 14.7363 20.3652C13.9526 21.6725 14.417 23.3451 15.7759 24.0997C15.921 24.1801 16.0647 24.2642 16.205 24.3492C17.4546 25.1081 17.4527 26.8711 16.205 27.6318C16.0642 27.7179 15.921 27.801 15.7759 27.8813C14.4184 28.6359 13.9526 30.3067 14.7363 31.6154C15.5201 32.924 17.257 33.3712 18.614 32.6166C18.6837 32.5777 18.7548 32.5396 18.8254 32.5021C20.1686 31.7955 21.8306 32.7012 21.8335 34.1728V34.2014C21.8335 35.7106 23.1045 36.9342 24.6716 36.9342C26.2386 36.9342 27.5101 35.7106 27.5101 34.2014V34.1728C27.5135 32.6998 29.1779 31.7907 30.5181 32.5006C30.5893 32.5377 30.6589 32.5762 30.7296 32.6152C32.0904 33.3626 33.824 32.9226 34.6072 31.6139C35.391 30.3067 34.9266 28.6345 33.5677 27.8799ZM32.3481 30.3352C31.7429 31.3464 30.4007 31.6919 29.3521 31.1088C29.2972 31.0789 29.2437 31.049 29.1888 31.0204C28.153 30.4721 26.8672 31.1739 26.8648 32.3125V32.3343C26.8648 33.5005 25.8825 34.4461 24.672 34.4461C23.4616 34.4461 22.4788 33.5005 22.4788 32.3343V32.3125C22.4764 31.1753 21.1905 30.4721 20.1547 31.0214C20.1003 31.0503 20.045 31.0798 19.9915 31.1098C18.9428 31.6928 17.6007 31.3474 16.9955 30.3366C16.3897 29.3254 16.7501 28.0343 17.7987 27.4513C17.9109 27.3895 18.0217 27.3249 18.13 27.2588C19.0942 26.671 19.0942 25.311 18.13 24.7223C18.0217 24.6572 17.9109 24.5916 17.7987 24.5298C16.7487 23.9467 16.3897 22.6547 16.9955 21.6444C17.6007 20.6337 18.9428 20.2882 19.9915 20.8708C20.0464 20.9007 20.1003 20.9307 20.1547 20.9597C21.1905 21.509 22.4764 20.8067 22.4788 19.6686V19.6467C22.4788 18.4806 23.4611 17.535 24.672 17.535C25.883 17.535 26.8648 18.4806 26.8648 19.6467V19.6686C26.8672 20.8057 28.153 21.509 29.1888 20.9597C29.2437 20.9307 29.2986 20.9007 29.3521 20.8708C30.4007 20.2882 31.7429 20.6346 32.3481 21.6444C32.9539 22.6547 32.594 23.9467 31.5448 24.5298C31.4331 24.5916 31.3224 24.6557 31.2136 24.7223C30.2494 25.3101 30.2494 26.6696 31.2136 27.2588C31.3224 27.3239 31.4331 27.3895 31.5448 27.4513V27.4503C32.5949 28.0334 32.9539 29.3254 32.3481 30.3352Z" fill="#3189E2"/>
</svg>