<svg xmlns="http://www.w3.org/2000/svg" width="18" height="24" viewBox="0 0 18 24" fill="none">
  <path d="M5.7416 9.96595V8.44505C5.7416 7.6791 6.35878 7.06191 7.12474 7.06191H10.1114C10.8774 7.06191 11.4946 7.6791 11.4946 8.44505V9.96595H12.8612V8.44505C12.8612 6.92967 11.6268 5.69531 10.1114 5.69531H7.12474C5.60935 5.69531 4.375 6.92967 4.375 8.44505V9.96595H5.7416Z" fill="url(#paint0_linear_8792_38273)"/>
  <path d="M15.6302 16.9835C16.5107 13.1076 14.0826 9.25176 10.2067 8.37118C6.33085 7.49061 2.47499 9.91877 1.59442 13.7946C0.713847 17.6705 3.14201 21.5263 7.01787 22.4069C10.8937 23.2875 14.7496 20.8593 15.6302 16.9835Z" fill="url(#paint1_linear_8792_38273)"/>
  <path d="M15.2758 16.9035C16.1119 13.2235 13.8064 9.56255 10.1264 8.72648C6.44646 7.8904 2.78547 10.1959 1.94939 13.8758C1.11332 17.5558 3.41877 21.2168 7.09876 22.0529C10.7787 22.889 14.4397 20.5835 15.2758 16.9035Z" fill="url(#paint2_linear_8792_38273)"/>
  <path d="M14.2903 16.6923C15.0036 13.5555 13.0389 10.4345 9.90212 9.72123C6.76534 9.008 3.6443 10.9727 2.93107 14.1094C2.21784 17.2462 4.1825 20.3673 7.31927 21.0805C10.456 21.7937 13.5771 19.8291 14.2903 16.6923Z" fill="url(#paint3_linear_8792_38273)"/>
  <g style="mix-blend-mode:overlay" opacity="0.45">
    <path d="M3.17382 15.7728C3.17382 12.5547 5.78029 9.94823 8.99842 9.94823C10.5083 9.94823 11.8804 10.5268 12.9164 11.4691C11.8529 10.3009 10.3209 9.5625 8.61268 9.5625C5.39455 9.5625 2.78809 12.169 2.78809 15.3871C2.78809 17.0953 3.52649 18.6273 4.69472 19.6908C3.75242 18.6548 3.17382 17.2827 3.17382 15.7728Z" fill="white"/>
  </g>
  <g style="mix-blend-mode:multiply" opacity="0.67">
    <path d="M12.3051 10.8828C13.1317 11.8857 13.8976 13.4452 13.8976 14.8504C13.8976 18.0685 11.2912 20.675 8.07303 20.675C6.67336 20.675 5.11389 19.9035 4.10547 19.0824C5.17451 20.3884 6.79459 21.2205 8.61306 21.2205C11.8312 21.2205 14.4377 18.614 14.4377 15.3959C14.4377 13.5774 13.6056 11.9574 12.2996 10.8883L12.3051 10.8828Z" fill="#933116"/>
  </g>
  <path d="M9.39019 0L6.79475 7.03691C6.65699 7.40611 6.93251 7.79185 7.32376 7.79185H7.86379L10.7403 0H9.3957H9.39019Z" fill="#1268C6"/>
  <path d="M10.7349 0L7.8584 7.79185H9.20296L12.0794 0H10.7349Z" fill="white"/>
  <path d="M12.079 0L9.88029 5.95134L9.20801 7.78082V7.79185H10.1613C10.2936 7.79185 10.4148 7.74776 10.514 7.66511C10.5911 7.60449 10.6518 7.52734 10.6903 7.42815L13.429 0.00551168H12.079V0Z" fill="#EB3723"/>
  <path style="mix-blend-mode:multiply" opacity="0.69" d="M11.4012 5.50088L10.6903 7.42404C10.6517 7.52323 10.5911 7.60037 10.514 7.66099C10.4148 7.74364 10.2935 7.78773 10.1613 7.78773H7.31787C6.92663 7.78773 6.65661 7.39648 6.78886 7.03279L9.3788 0.0234375L11.4012 5.49536V5.50088Z" fill="url(#paint4_linear_8792_38273)"/>
  <path d="M7.68734 0H6.34277L9.21374 7.78082V7.79185H10.1671C10.2993 7.79185 10.4205 7.74776 10.5197 7.66511L9.88602 5.95685L7.68734 0.00551168V0Z" fill="#1268C6"/>
  <path d="M4.99219 0L7.86867 7.79185H9.21323L6.33675 0H4.99219Z" fill="white"/>
  <path d="M3.64258 0L6.3813 7.42264C6.46395 7.64306 6.67335 7.79185 6.9103 7.79185H7.86362L4.98714 0H3.64258Z" fill="#EB3723"/>
  <path d="M10.8717 16.3571C10.8717 17.5254 9.91287 18.3354 8.40851 18.3354C7.52683 18.3354 6.61208 18.0433 6.02246 17.5915L6.66168 16.3737C7.13558 16.8641 7.70867 17.1231 8.28728 17.1231C8.95405 17.1231 9.32325 16.8476 9.32325 16.3737C9.32325 15.8998 8.95405 15.6408 8.27626 15.6408H7.25681V14.7922L8.67301 13.4366H6.34207L6.33105 12.2188H10.5686V13.1335L8.93751 14.6544L9.24059 14.6985C10.1994 14.8473 10.8717 15.4314 10.8717 16.3571Z" fill="#6D2B07"/>
  <defs>
    <linearGradient id="paint0_linear_8792_38273" x1="4.36949" y1="7.82788" x2="12.8557" y2="7.82788" gradientUnits="userSpaceOnUse">
      <stop stop-color="#91410D"/>
      <stop offset="1" stop-color="#CC8139"/>
    </linearGradient>
    <linearGradient id="paint1_linear_8792_38273" x1="12.0259" y1="18.8064" x2="4.48207" y2="11.257" gradientUnits="userSpaceOnUse">
      <stop stop-color="#91410D"/>
      <stop offset="1" stop-color="#CC8139"/>
    </linearGradient>
    <linearGradient id="paint2_linear_8792_38273" x1="4.67525" y1="11.456" x2="13.8061" y2="20.5869" gradientUnits="userSpaceOnUse">
      <stop stop-color="#91410D"/>
      <stop offset="1" stop-color="#CC8139"/>
    </linearGradient>
    <linearGradient id="paint3_linear_8792_38273" x1="15.6974" y1="22.4802" x2="1.6126" y2="8.39533" gradientUnits="userSpaceOnUse">
      <stop stop-color="#91410D"/>
      <stop offset="1" stop-color="#CC8139"/>
    </linearGradient>
    <linearGradient id="paint4_linear_8792_38273" x1="1.41613" y1="3.70996" x2="8.89387" y2="4.36571" gradientUnits="userSpaceOnUse">
      <stop stop-color="white"/>
      <stop offset="1" stop-color="#121E3D"/>
    </linearGradient>
  </defs>
</svg>