<svg xmlns="http://www.w3.org/2000/svg" width="11" height="10" viewBox="0 0 11 10" fill="none">
  <path d="M5.80957 3V5L7.05957 6.25" stroke="#6D3A0A" stroke-linecap="round" stroke-linejoin="round"/>
  <path d="M1.9788 2.43557L1.6038 2.43707C1.6042 2.53592 1.6436 2.63061 1.71346 2.70056C1.78331 2.7705 1.87795 2.81004 1.9768 2.81057L1.9788 2.43557ZM3.2498 2.81657C3.29905 2.8168 3.34786 2.80732 3.39344 2.78869C3.43903 2.77006 3.48049 2.74263 3.51548 2.70797C3.55046 2.67331 3.57828 2.6321 3.59734 2.58669C3.61639 2.54128 3.62632 2.49256 3.62655 2.44332C3.62678 2.39407 3.61731 2.34526 3.59868 2.29968C3.58004 2.25409 3.55261 2.21262 3.51795 2.17764C3.4833 2.14265 3.44208 2.11484 3.39668 2.09578C3.35127 2.07672 3.30255 2.0668 3.2533 2.06657L3.2498 2.81657ZM2.3473 1.16057C2.34704 1.11132 2.33708 1.06261 2.31799 1.01721C2.2989 0.971816 2.27106 0.930624 2.23605 0.895987C2.20105 0.861351 2.15956 0.833949 2.11396 0.815346C2.06836 0.796744 2.01955 0.787304 1.9703 0.787567C1.92106 0.787829 1.87234 0.797789 1.82695 0.816877C1.78155 0.835965 1.74036 0.863808 1.70572 0.898816C1.67109 0.933823 1.64368 0.97531 1.62508 1.02091C1.60648 1.06651 1.59704 1.11532 1.5973 1.16457L2.3473 1.16057ZM1.7233 4.39257C1.73049 4.34356 1.72789 4.29361 1.71566 4.24561C1.70344 4.19761 1.68182 4.1525 1.65207 4.1129C1.62231 4.0733 1.585 4.03999 1.5423 4.01489C1.4996 3.98978 1.45234 3.97339 1.40327 3.96666C1.3542 3.95992 1.30427 3.96297 1.25639 3.97564C1.2085 3.9883 1.16359 4.01033 1.12427 4.04044C1.08494 4.07056 1.05197 4.10817 1.02726 4.1511C1.00255 4.19403 0.98659 4.24143 0.980302 4.29057L1.7233 4.39257ZM9.2408 1.56907C7.3308 -0.340933 4.2443 -0.360933 2.3468 1.53707L2.8768 2.06707C4.4768 0.467567 7.0883 0.477067 8.7108 2.09907L9.2408 1.56907ZM2.3788 8.43107C4.2888 10.3411 7.3753 10.3611 9.2728 8.46307L8.7428 7.93307C7.1428 9.53257 4.5313 9.52307 2.9088 7.90107L2.3788 8.43107ZM9.2728 8.46307C11.1703 6.56557 11.1508 3.47907 9.2408 1.56907L8.7108 2.09907C10.3328 3.72157 10.3423 6.33307 8.7428 7.93307L9.2728 8.46307ZM2.3468 1.53707L1.7133 2.17007L2.2438 2.70007L2.8768 2.06707L2.3468 1.53707ZM1.9768 2.81057L3.2498 2.81657L3.2533 2.06657L1.9808 2.06057L1.9768 2.81057ZM2.3538 2.43357L2.3473 1.16057L1.5973 1.16457L1.6038 2.43707L2.3538 2.43357ZM0.979802 4.29007C0.877072 5.04136 0.949891 5.80623 1.19254 6.52464C1.43519 7.24305 1.84107 7.89543 2.3783 8.43057L2.9083 7.90057C2.45291 7.44721 2.10885 6.89443 1.90316 6.28566C1.69746 5.6769 1.63572 5.02872 1.7228 4.39207L0.979802 4.29007Z" fill="#6D3A0A"/>
</svg>