<svg xmlns="http://www.w3.org/2000/svg" width="16" height="16" viewBox="0 0 16 16" fill="none">
  <g clip-path="url(#clip0_8792_38335)">
    <path d="M13.3333 6H7.33333C6.59695 6 6 6.59695 6 7.33333V13.3333C6 14.0697 6.59695 14.6667 7.33333 14.6667H13.3333C14.0697 14.6667 14.6667 14.0697 14.6667 13.3333V7.33333C14.6667 6.59695 14.0697 6 13.3333 6Z" stroke="#6D3A0A" stroke-linecap="round" stroke-linejoin="round"/>
    <path d="M3.33301 10.0026H2.66634C2.31272 10.0026 1.97358 9.86213 1.72353 9.61208C1.47348 9.36203 1.33301 9.02289 1.33301 8.66927V2.66927C1.33301 2.31565 1.47348 1.97651 1.72353 1.72646C1.97358 1.47641 2.31272 1.33594 2.66634 1.33594H8.66634C9.01996 1.33594 9.3591 1.47641 9.60915 1.72646C9.8592 1.97651 9.99967 2.31565 9.99967 2.66927V3.33594" stroke="#6D3A0A" stroke-linecap="round" stroke-linejoin="round"/>
  </g>
  <defs>
    <clipPath id="clip0_8792_38335">
      <rect width="16" height="16" fill="white"/>
    </clipPath>
  </defs>
</svg>