<svg xmlns="http://www.w3.org/2000/svg" width="20" height="24" viewBox="0 0 20 24" fill="none">
  <path d="M6.85143 9.35335V7.92541C6.85143 7.20627 7.43088 6.62682 8.15002 6.62682H10.9542C11.6733 6.62682 12.2527 7.20627 12.2527 7.92541V9.35335H13.5358V7.92541C13.5358 6.50265 12.3769 5.34375 10.9542 5.34375H8.15002C6.72726 5.34375 5.56836 6.50265 5.56836 7.92541V9.35335H6.85143Z" fill="url(#paint0_linear_8792_38229)"/>
  <path d="M14.1132 19.4326C16.8636 16.9105 17.0487 12.6364 14.5267 9.88596C12.0046 7.13555 7.73046 6.95043 4.98005 9.47248C2.22965 11.9945 2.04453 16.2687 4.56658 19.0191C7.08863 21.7695 11.3628 21.9546 14.1132 19.4326Z" fill="url(#paint1_linear_8792_38229)"/>
  <path d="M13.8824 19.1835C16.4938 16.7889 16.6696 12.7307 14.275 10.1193C11.8804 7.50786 7.82222 7.3321 5.21081 9.7267C2.59939 12.1213 2.42363 16.1795 4.81822 18.7909C7.21282 21.4023 11.271 21.5781 13.8824 19.1835Z" fill="url(#paint2_linear_8792_38229)"/>
  <path d="M13.2462 18.4862C15.4715 16.4442 15.6201 12.9849 13.5781 10.7596C11.5362 8.53431 8.07685 8.38569 5.85154 10.4277C3.62623 12.4696 3.47762 15.929 5.51959 18.1543C7.56157 20.3796 11.0209 20.5282 13.2462 18.4862Z" fill="url(#paint3_linear_8792_38229)"/>
  <g style="mix-blend-mode:overlay" opacity="0.45">
    <path d="M4.44028 14.8151C4.44028 11.7937 6.88743 9.34653 9.90886 9.34653C11.3264 9.34653 12.6147 9.88977 13.5873 10.7745C12.5888 9.67765 11.1505 8.98438 9.5467 8.98438C6.52527 8.98438 4.07812 11.4315 4.07812 14.4529C4.07812 16.0568 4.7714 17.4951 5.86822 18.4936C4.98352 17.5209 4.44028 16.2327 4.44028 14.8151Z" fill="white"/>
  </g>
  <g style="mix-blend-mode:multiply" opacity="0.67">
    <path d="M13.0139 10.2188C13.7899 11.1604 14.509 12.6245 14.509 13.9438C14.509 16.9652 12.0619 19.4124 9.04048 19.4124C7.72636 19.4124 6.26221 18.6881 5.31543 17.9172C6.31912 19.1433 7.84018 19.9246 9.5475 19.9246C12.5689 19.9246 15.0161 17.4774 15.0161 14.456C15.0161 12.7487 14.2348 11.2276 13.0087 10.2239L13.0139 10.2188Z" fill="#F44B16"/>
  </g>
  <g style="mix-blend-mode:multiply" opacity="0.67">
    <path d="M10.618 11.375V17.5368H9.00899V12.6943H7.82422V11.375H10.618Z" fill="#CC3911"/>
  </g>
  <path d="M10.2772 0L7.8404 6.60678C7.71106 6.95342 7.96974 7.31558 8.33707 7.31558H8.84409L11.5396 0H10.2772Z" fill="#1268C6"/>
  <path d="M11.5395 0L8.83887 7.31558H10.1012L12.8019 0H11.5395Z" fill="white"/>
  <path d="M12.8019 0L10.7376 5.58757L10.1064 7.30523V7.31558H11.0015C11.1257 7.31558 11.2395 7.27419 11.3326 7.19658C11.405 7.13967 11.4619 7.06724 11.4982 6.97411L14.0695 0H12.8019Z" fill="#EB3723"/>
  <path style="mix-blend-mode:multiply" opacity="0.69" d="M12.165 5.1609L11.4976 6.96651C11.4614 7.05963 11.4045 7.13207 11.332 7.18898C11.2389 7.26658 11.1251 7.30797 11.0009 7.30797H8.33131C7.96398 7.30797 7.71047 6.94064 7.83464 6.59918L10.2663 0.0234375L12.165 5.1609Z" fill="url(#paint4_linear_8792_38229)"/>
  <path d="M8.67839 0H7.41602L10.1115 7.30523V7.31558H11.0065C11.1307 7.31558 11.2445 7.27419 11.3377 7.19658L10.7427 5.59274L8.67839 0Z" fill="#1268C6"/>
  <path d="M6.14844 0L8.8491 7.31558H10.1115L7.41081 0H6.14844Z" fill="white"/>
  <path d="M4.88086 0L7.45218 6.96894C7.52978 7.17589 7.72638 7.31558 7.94885 7.31558H8.84389L6.14841 0H4.88603H4.88086Z" fill="#EB3723"/>
  <defs>
    <linearGradient id="paint0_linear_8792_38229" x1="5.56319" y1="7.34596" x2="13.5306" y2="7.34596" gradientUnits="userSpaceOnUse">
      <stop stop-color="#F78614"/>
      <stop offset="1" stop-color="#FFBE06"/>
    </linearGradient>
    <linearGradient id="paint1_linear_8792_38229" x1="12.7513" y1="17.6574" x2="5.66855" y2="10.5747" gradientUnits="userSpaceOnUse">
      <stop stop-color="#F78614"/>
      <stop offset="1" stop-color="#FFBE06"/>
    </linearGradient>
    <linearGradient id="paint2_linear_8792_38229" x1="5.85342" y1="10.7548" x2="14.4262" y2="19.3276" gradientUnits="userSpaceOnUse">
      <stop stop-color="#F78614"/>
      <stop offset="1" stop-color="#FFBE06"/>
    </linearGradient>
    <linearGradient id="paint3_linear_8792_38229" x1="16.1928" y1="21.1012" x2="2.9689" y2="7.8773" gradientUnits="userSpaceOnUse">
      <stop stop-color="#F78614"/>
      <stop offset="1" stop-color="#FFBE06"/>
    </linearGradient>
    <linearGradient id="paint4_linear_8792_38229" x1="11.0785" y1="3.47945" x2="9.81098" y2="4.09512" gradientUnits="userSpaceOnUse">
      <stop stop-color="white"/>
      <stop offset="1" stop-color="#121E3D"/>
    </linearGradient>
  </defs>
</svg>