<svg xmlns="http://www.w3.org/2000/svg" width="18" height="24" viewBox="0 0 18 24" fill="none">
  <path d="M5.73644 9.95727V8.43668C5.73644 7.67087 6.35349 7.05382 7.11929 7.05382H10.1054C10.8712 7.05382 11.4882 7.67087 11.4882 8.43668V9.95727H12.8546V8.43668C12.8546 6.9216 11.6205 5.6875 10.1054 5.6875H7.11929C5.60422 5.6875 4.37012 6.9216 4.37012 8.43668V9.95727H5.73644Z" fill="url(#paint0_linear_8792_38251)"/>
  <path d="M15.627 16.9843C16.5074 13.1092 14.0797 9.25412 10.2046 8.37372C6.32956 7.49333 2.47449 9.92099 1.5941 13.7961C0.713701 17.6711 3.14137 21.5262 7.01644 22.4066C10.8915 23.287 14.7466 20.8593 15.627 16.9843Z" fill="url(#paint1_linear_8792_38251)"/>
  <path d="M15.2728 16.9043C16.1087 13.225 13.8037 9.5648 10.1245 8.72889C6.44523 7.89299 2.78499 10.198 1.94908 13.8772C1.11318 17.5564 3.41816 21.2167 7.0974 22.0526C10.7766 22.8885 14.4369 20.5835 15.2728 16.9043Z" fill="url(#paint2_linear_8792_38251)"/>
  <path d="M8.60759 21.2171C11.8238 21.2171 14.431 18.6099 14.431 15.3937C14.431 12.1775 11.8238 9.57031 8.60759 9.57031C5.39141 9.57031 2.78418 12.1775 2.78418 15.3937C2.78418 18.6099 5.39141 21.2171 8.60759 21.2171Z" fill="url(#paint3_linear_8792_38251)"/>
  <g style="mix-blend-mode:overlay" opacity="0.45">
    <path d="M3.16984 15.7794C3.16984 12.5619 5.77577 9.95597 8.99324 9.95597C10.5028 9.95597 11.8746 10.5345 12.9104 11.4766C11.8471 10.3086 10.3155 9.57031 8.60759 9.57031C5.39011 9.57031 2.78418 12.1762 2.78418 15.3937C2.78418 17.1016 3.52244 18.6332 4.69042 19.6965C3.74832 18.6608 3.16984 17.2889 3.16984 15.7794Z" fill="white"/>
  </g>
  <g style="mix-blend-mode:multiply" opacity="0.67">
    <path d="M12.2985 10.8906C13.1249 11.8933 13.8907 13.4525 13.8907 14.8574C13.8907 18.0748 11.2848 20.6808 8.06734 20.6808C6.66795 20.6808 5.1088 19.9095 4.10059 19.0886C5.1694 20.3943 6.78916 21.2262 8.60725 21.2262C11.8247 21.2262 14.4307 18.6203 14.4307 15.4028C14.4307 13.5847 13.5987 11.965 12.293 10.8961L12.2985 10.8906Z" fill="#93908F"/>
  </g>
  <g style="mix-blend-mode:multiply" opacity="0.67">
    <path d="M8.93314 13.7275C8.93314 13.397 8.68522 13.2097 8.24447 13.2097C7.75414 13.2097 7.13158 13.5017 6.56962 13.981L5.97461 12.813C6.75143 12.24 7.59987 11.8984 8.48137 11.8984C9.70997 11.8984 10.597 12.5375 10.597 13.4962C10.597 14.1518 10.0956 14.8349 9.42348 15.5181L8.17836 16.7632H10.7733V18.0359H6.15642L6.1454 16.9891L8.34915 14.7247C8.68522 14.3777 8.93865 13.992 8.93865 13.7331L8.93314 13.7275Z" fill="#8E8A88"/>
  </g>
  <path d="M9.3838 0L6.78888 7.03547C6.65115 7.4046 6.92662 7.79025 7.31778 7.79025H7.8577L10.7336 0H9.38931H9.3838Z" fill="#1268C6"/>
  <path d="M10.7284 0L7.85254 7.79025H9.19683L12.0727 0H10.7284Z" fill="white"/>
  <path d="M12.0725 0L9.87429 5.95013L9.20215 7.77924V7.79025H10.1553C10.2875 7.79025 10.4087 7.74618 10.5079 7.66354C10.585 7.60294 10.6456 7.52581 10.6842 7.42664L13.4223 0.00551055H12.0725V0Z" fill="#EB3723"/>
  <path style="mix-blend-mode:multiply" opacity="0.69" d="M11.3953 5.49976L10.6846 7.42253C10.646 7.5217 10.5854 7.59883 10.5083 7.65943C10.4091 7.74207 10.2879 7.78614 10.1557 7.78614H7.31287C6.92171 7.78614 6.65175 7.39498 6.78397 7.03136L9.37338 0.0234375L11.3953 5.49425V5.49976Z" fill="url(#paint4_linear_8792_38251)"/>
  <path d="M7.6812 0H6.33691L9.2073 7.77924V7.79025H10.1604C10.2926 7.79025 10.4139 7.74618 10.513 7.66354L9.87944 5.95563L7.6812 0.00551055V0Z" fill="#1268C6"/>
  <path d="M4.9873 0L7.8632 7.79025H9.20749L6.33159 0H4.9873Z" fill="white"/>
  <path d="M3.6377 0L6.37585 7.42113C6.4585 7.6415 6.66785 7.79025 6.90475 7.79025H7.85788L4.98198 0H3.6377Z" fill="#EB3723"/>
  <defs>
    <linearGradient id="paint0_linear_8792_38251" x1="4.36461" y1="7.81963" x2="12.849" y2="7.81963" gradientUnits="userSpaceOnUse">
      <stop stop-color="#BBBBBB"/>
      <stop offset="1" stop-color="white"/>
    </linearGradient>
    <linearGradient id="paint1_linear_8792_38251" x1="12.0233" y1="18.7993" x2="4.48096" y2="11.257" gradientUnits="userSpaceOnUse">
      <stop stop-color="#BBBBBB"/>
      <stop offset="1" stop-color="white"/>
    </linearGradient>
    <linearGradient id="paint2_linear_8792_38251" x1="4.6742" y1="11.4559" x2="13.8032" y2="20.5849" gradientUnits="userSpaceOnUse">
      <stop stop-color="#BBBBBB"/>
      <stop offset="1" stop-color="white"/>
    </linearGradient>
    <linearGradient id="paint3_linear_8792_38251" x1="15.6871" y1="22.4733" x2="1.60517" y2="8.3858" gradientUnits="userSpaceOnUse">
      <stop stop-color="#BBBBBB"/>
      <stop offset="1" stop-color="white"/>
    </linearGradient>
    <linearGradient id="paint4_linear_8792_38251" x1="10.2384" y1="3.71472" x2="8.88855" y2="4.37033" gradientUnits="userSpaceOnUse">
      <stop stop-color="white"/>
      <stop offset="1" stop-color="#121E3D"/>
    </linearGradient>
  </defs>
</svg>