<svg xmlns="http://www.w3.org/2000/svg" width="52" height="52" viewBox="0 0 52 52" fill="none">
  <path d="M51.2748 15.1539C51.2246 13.5863 48.921 12.3125 46.1121 12.3125H5.16468C2.35549 12.3125 0.0518525 13.5863 0.00195312 15.1539C0.710239 15.8594 1.93092 16.419 3.31099 16.5877L21.6831 19.3553C23.8587 19.6211 27.4184 19.6211 29.594 19.3553L47.9663 16.5877C49.3461 16.419 50.5668 15.8594 51.2751 15.1539H51.2748Z" fill="#991724"/>
  <path d="M3.8585 8.48327C1.7365 8.83873 0 10.4944 0 12.1627V17.0627C0 18.731 1.77699 20.0961 3.94918 20.0961H47.3265C49.4984 20.0961 51.2754 18.731 51.2754 17.0627V12.1627C51.2754 10.4944 49.5392 8.83873 47.4172 8.48327L29.4959 4.78222C27.3739 4.42676 23.9015 4.42676 21.7792 4.78222L3.85822 8.48327H3.8585Z" fill="url(#paint0_linear_8828_59168)"/>
  <mask id="mask0_8828_59168" style="mask-type:luminance" maskUnits="userSpaceOnUse" x="0" y="13" width="52" height="39">
    <path d="M51.2743 13.5225C50.566 14.4892 49.3453 15.2569 47.9655 15.4879L29.5932 19.2821C27.4178 19.6463 23.8579 19.6463 21.6823 19.2821L3.31018 15.4879C1.93011 15.2566 0.709426 14.4892 0.0011408 13.5222C0.00199622 13.4886 0.00313632 13.4551 0.0051323 13.4219C0.00199577 13.479 0 13.5361 0 13.5935V48.0335C0 50.215 2.32388 52 5.16416 52H46.1116C48.9518 52 51.2754 50.215 51.2754 48.0335V13.5935C51.2754 13.5696 51.2746 13.5461 51.274 13.5225H51.2743Z" fill="white"/>
  </mask>
  <g mask="url(#mask0_8828_59168)">
    <path d="M46.1116 9.625H5.16416C2.32388 9.625 0 11.41 0 13.5915V48.0316C0 50.213 2.32388 51.9981 5.16416 51.9981H46.1116C48.9518 51.9981 51.2754 50.213 51.2754 48.0316V13.5915C51.2754 11.4097 48.9515 9.625 46.1116 9.625Z" fill="url(#paint1_linear_8828_59168)"/>
    <g style="mix-blend-mode:multiply">
      <path d="M46.1116 9.625H5.16416C2.32388 9.625 0 11.41 0 13.5915V48.0316C0 50.213 2.32388 51.9981 5.16416 51.9981H46.1116C48.9518 51.9981 51.2754 50.213 51.2754 48.0316V13.5915C51.2754 11.4097 48.9515 9.625 46.1116 9.625Z" fill="#D8A4A7"/>
      <path opacity="0.97" d="M45.9787 9.76562H5.29652C2.4745 9.76562 0.166016 11.5391 0.166016 13.7067V47.9235C0.166016 50.0911 2.47479 51.8645 5.29652 51.8645H45.9785C48.8002 51.8645 51.109 50.0911 51.109 47.9235V13.7067C51.109 11.5391 48.8002 9.76562 45.9785 9.76562H45.9787Z" fill="#D9A5A8"/>
      <path opacity="0.94" d="M45.8459 9.89844H5.42918C2.62569 9.89844 0.332031 11.6603 0.332031 13.8137V47.8073C0.332031 49.9607 2.62569 51.7225 5.42918 51.7225H45.8459C48.6494 51.7225 50.9431 49.9607 50.9431 47.8073V13.8137C50.9431 11.6603 48.6494 9.89844 45.8459 9.89844Z" fill="#DAA7A9"/>
      <path opacity="0.91" d="M45.7131 10.0391H5.56183C2.77659 10.0391 0.498047 11.7893 0.498047 13.9285V47.6989C0.498047 49.8381 2.77659 51.5883 5.56183 51.5883H45.7134C48.4984 51.5883 50.7769 49.8381 50.7769 47.6989V13.9288C50.7769 11.7896 48.4984 10.0394 45.7134 10.0394L45.7131 10.0391Z" fill="#DBA8AB"/>
      <path opacity="0.88" d="M45.5803 10.1719H5.6942C2.9275 10.1719 0.664062 11.9105 0.664062 14.0358V47.5833C0.664062 49.7084 2.9275 51.4473 5.6942 51.4473H45.5803C48.3467 51.4473 50.6105 49.7087 50.6105 47.5833V14.0358C50.6105 11.9108 48.347 10.1719 45.5803 10.1719Z" fill="#DDA9AC"/>
      <path opacity="0.85" d="M45.4468 10.3125H5.82588C3.07771 10.3125 0.829102 12.0398 0.829102 14.1506V47.4749C0.829102 49.5858 3.07771 51.3131 5.82588 51.3131H45.4468C48.195 51.3131 50.4436 49.5858 50.4436 47.4749V14.151C50.4436 12.0398 48.195 10.3128 45.4468 10.3128V10.3125Z" fill="#DEABAD"/>
      <path opacity="0.82" d="M45.3153 10.4453H5.95951C3.22959 10.4453 0.996094 12.161 0.996094 14.2576V47.3587C0.996094 49.4557 3.22959 51.1711 5.95951 51.1711H45.3153C48.0449 51.1711 50.2784 49.4554 50.2784 47.3587V14.2576C50.2784 12.1607 48.0449 10.4453 45.3153 10.4453Z" fill="#DFACAE"/>
      <path opacity="0.79" d="M45.1825 10.5859H6.09188C3.38049 10.5859 1.16211 12.29 1.16211 14.3728V47.251C1.16211 49.3338 3.38049 51.0379 6.09188 51.0379H45.1822C47.8936 51.0379 50.1119 49.3338 50.1119 47.251V14.3728C50.1119 12.29 47.8936 10.5859 45.1822 10.5859H45.1825Z" fill="#E0ADB0"/>
      <path opacity="0.76" d="M45.0496 10.7266H6.22453C3.53139 10.7266 1.32812 12.419 1.32812 14.4876V47.1426C1.32812 49.2112 3.53139 50.9037 6.22453 50.9037H45.0496C47.7425 50.9037 49.9461 49.2112 49.9461 47.1426V14.4876C49.9461 12.419 47.7428 10.7266 45.0496 10.7266Z" fill="#E1AFB1"/>
      <path opacity="0.74" d="M44.9178 10.8594H6.35817C3.68356 10.8594 1.49512 12.5402 1.49512 14.5946V47.0264C1.49512 49.0808 3.68328 50.7616 6.35817 50.7616H44.9181C47.5927 50.7616 49.7809 49.0808 49.7809 47.0264V14.5946C49.7809 12.5402 47.5927 10.8594 44.9181 10.8594H44.9178Z" fill="#E2B0B2"/>
      <path opacity="0.71" d="M44.785 11H6.49053C3.83418 11 1.66113 12.6692 1.66113 14.7098V46.9187C1.66113 48.9588 3.83446 50.6284 6.49053 50.6284H44.785C47.4411 50.6284 49.6144 48.9592 49.6144 46.9187V14.7098C49.6144 12.6692 47.4411 11 44.785 11Z" fill="#E3B1B3"/>
      <path opacity="0.68" d="M44.6525 11.1328H6.62319C3.98537 11.1328 1.82715 12.7904 1.82715 14.8168V46.8025C1.82715 48.8288 3.98537 50.4864 6.62319 50.4864H44.6525C47.2903 50.4864 49.4485 48.8288 49.4485 46.8025V14.8168C49.4485 12.7904 47.2903 11.1328 44.6525 11.1328Z" fill="#E5B3B5"/>
      <path opacity="0.65" d="M44.52 11.2734H6.75584C4.13627 11.2734 1.99316 12.9198 1.99316 14.9316V46.6941C1.99316 48.7062 4.13627 50.3522 6.75584 50.3522H44.52C47.1392 50.3522 49.2823 48.7059 49.2823 46.6941V14.9316C49.2823 12.9195 47.1392 11.2734 44.52 11.2734Z" fill="#E6B4B6"/>
      <path opacity="0.62" d="M44.3869 11.4062H6.88821C4.28717 11.4062 2.15918 13.041 2.15918 15.0389V46.5782C2.15918 48.5761 4.28717 50.2108 6.88821 50.2108H44.3869C46.9879 50.2108 49.1159 48.5761 49.1159 46.5782V15.0389C49.1159 13.041 46.9879 11.4062 44.3869 11.4062Z" fill="#E7B5B7"/>
      <path opacity="0.59" d="M44.2543 11.5469H7.02087C4.43808 11.5469 2.3252 13.17 2.3252 15.1537V46.4701C2.3252 48.4539 4.43808 50.077 7.02087 50.077H44.2543C46.8368 50.077 48.95 48.4539 48.95 46.4701V15.1537C48.95 13.17 46.8368 11.5469 44.2543 11.5469Z" fill="#E8B7B8"/>
      <path opacity="0.56" d="M44.1205 11.6797H7.15254C4.58829 11.6797 2.49023 13.2912 2.49023 15.2607V46.3539C2.49023 48.3235 4.58829 49.935 7.15254 49.935H44.1208C46.6851 49.935 48.7831 48.3235 48.7831 46.3539V15.2607C48.7831 13.2912 46.6851 11.6797 44.1208 11.6797H44.1205Z" fill="#E9B8BA"/>
      <path opacity="0.53" d="M43.9887 11.8203H7.28589C4.74017 11.8203 2.65723 13.4202 2.65723 15.3759V46.2458C2.65723 48.2012 4.74017 49.8014 7.28589 49.8014H43.9887C46.5344 49.8014 48.6174 48.2015 48.6174 46.2458V15.3759C48.6174 13.4202 46.5344 11.8203 43.9887 11.8203Z" fill="#EAB9BB"/>
      <path opacity="0.5" d="M43.8572 11.9609H7.41952C4.89205 11.9609 2.82422 13.5492 2.82422 15.4907V46.1378C2.82422 48.0793 4.89205 49.6675 7.41952 49.6675H43.8572C46.3846 49.6675 48.4525 48.0793 48.4525 46.1378V15.4907C48.4525 13.5492 46.3846 11.9609 43.8572 11.9609Z" fill="#ECBBBC"/>
      <path opacity="0.47" d="M43.7237 12.0938H7.5512C5.04226 12.0938 2.98926 13.6704 2.98926 15.5977V46.0216C2.98926 47.9489 5.04197 49.5255 7.5512 49.5255H43.7237C46.2326 49.5255 48.2856 47.9489 48.2856 46.0216V15.5977C48.2856 13.6704 46.2329 12.0938 43.7237 12.0938Z" fill="#EDBCBD"/>
      <path opacity="0.44" d="M43.5915 12.2344H7.68455C5.19386 12.2344 3.15625 13.7998 3.15625 15.7129V45.9135C3.15625 47.8266 5.19414 49.392 7.68455 49.392H43.5915C46.0822 49.392 48.1198 47.8266 48.1198 45.9135V15.7129C48.1198 13.7998 46.082 12.2344 43.5915 12.2344Z" fill="#EEBDBE"/>
      <path opacity="0.41" d="M43.458 12.3672H7.81622C5.34407 12.3672 3.32129 13.921 3.32129 15.8199V45.7973C3.32129 47.6962 5.34407 49.25 7.81622 49.25H43.458C45.9302 49.25 47.953 47.6962 47.953 45.7973V15.8199C47.953 13.921 45.9302 12.3672 43.458 12.3672Z" fill="#EFBEC0"/>
      <path opacity="0.38" d="M43.3262 12.5078H7.94985C5.49595 12.5078 3.48828 14.05 3.48828 15.9347V45.6892C3.48828 47.5739 5.49595 49.1161 7.94985 49.1161H43.3265C45.7804 49.1161 47.7881 47.5739 47.7881 45.6892V15.9347C47.7881 14.0496 45.7804 12.5078 43.3265 12.5078H43.3262Z" fill="#F0C0C1"/>
      <path opacity="0.35" d="M43.1934 12.6406H8.08222C5.64685 12.6406 3.6543 14.1712 3.6543 16.042V45.5733C3.6543 47.4442 5.64685 48.9747 8.08222 48.9747H43.1934C45.6288 48.9747 47.6213 47.4442 47.6213 45.5733V16.042C47.6213 14.1712 45.6288 12.6406 43.1934 12.6406Z" fill="#F1C1C2"/>
      <path opacity="0.32" d="M43.0599 12.7812H8.2139C5.79678 12.7812 3.81934 14.3002 3.81934 16.1568V45.465C3.81934 47.3216 5.79678 48.8405 8.2139 48.8405H43.0599C45.477 48.8405 47.4545 47.3216 47.4545 45.465V16.1568C47.4545 14.3002 45.477 12.7812 43.0599 12.7812Z" fill="#F2C2C3"/>
      <path opacity="0.29" d="M42.9283 12.9219H8.34753C5.94894 12.9219 3.98633 14.4292 3.98633 16.2717V45.3569C3.98633 47.1993 5.94894 48.7067 8.34753 48.7067H42.9283C45.3269 48.7067 47.2895 47.1993 47.2895 45.3569V16.2717C47.2895 14.4292 45.3269 12.9219 42.9283 12.9219Z" fill="#F4C4C5"/>
      <path opacity="0.26" d="M42.7952 13.0547H8.4799C6.09956 13.0547 4.15234 14.5507 4.15234 16.379V45.241C4.15234 47.0693 6.09984 48.5653 8.4799 48.5653H42.7952C45.1756 48.5653 47.1231 47.0693 47.1231 45.241V16.379C47.1231 14.5507 45.1756 13.0547 42.7952 13.0547Z" fill="#F5C5C6"/>
      <path opacity="0.24" d="M42.6627 13.1953H8.61256C6.25075 13.1953 4.31836 14.6797 4.31836 16.4938V45.1326C4.31836 46.9467 6.25075 48.4311 8.61256 48.4311H42.6627C45.0245 48.4311 46.9569 46.9467 46.9569 45.1326V16.4938C46.9569 14.6797 45.0245 13.1953 42.6627 13.1953Z" fill="#F6C6C7"/>
      <path opacity="0.21" d="M42.5309 13.3281H8.74619C6.40263 13.3281 4.48535 14.8009 4.48535 16.6008V45.0167C4.48535 46.8169 6.40263 48.2894 8.74619 48.2894H42.5312C44.8747 48.2894 46.792 46.8166 46.792 45.0167V16.6008C46.792 14.8006 44.8747 13.3281 42.5312 13.3281H42.5309Z" fill="#F7C8C8"/>
      <path opacity="0.18" d="M42.3971 13.4688H8.87758C6.55255 13.4688 4.65039 14.9299 4.65039 16.716V44.9087C4.65039 46.6947 6.55255 48.1559 8.87758 48.1559H42.3971C44.7221 48.1559 46.6246 46.6947 46.6246 44.9087V16.716C46.6246 14.9299 44.7224 13.4688 42.3971 13.4688Z" fill="#F8C9CA"/>
      <path opacity="0.15" d="M42.2646 13.6016H9.01023C6.70374 13.6016 4.81641 15.0511 4.81641 16.823V44.7925C4.81641 46.5643 6.70374 48.0139 9.01023 48.0139H42.2646C44.5714 48.0139 46.4584 46.5643 46.4584 44.7925V16.823C46.4584 15.0511 44.5711 13.6016 42.2646 13.6016Z" fill="#F9CACB"/>
      <path opacity="0.12" d="M42.1321 13.7422H9.14289C6.85465 13.7422 4.98242 15.1802 4.98242 16.9378V44.6841C4.98242 46.4417 6.85465 47.8797 9.14289 47.8797H42.1318C44.42 47.8797 46.2922 46.4417 46.2922 44.6841V16.9378C46.2922 15.1802 44.42 13.7422 42.1318 13.7422H42.1321Z" fill="#FACCCC"/>
      <path opacity="0.09" d="M41.9999 13.8828H9.27623C7.00652 13.8828 5.14941 15.3092 5.14941 17.0529V44.5763C5.14941 46.3198 7.00652 47.7464 9.27623 47.7464H41.9999C44.2699 47.7464 46.127 46.3201 46.127 44.5763V17.0529C46.127 15.3095 44.2699 13.8828 41.9999 13.8828Z" fill="#FCCDCD"/>
      <path opacity="0.06" d="M41.8664 14.0156H9.40791C7.15645 14.0156 5.31445 15.4307 5.31445 17.1599V44.4601C5.31445 46.1894 7.15645 47.6044 9.40791 47.6044H41.8664C44.1179 47.6044 45.9599 46.1894 45.9599 44.4601V17.1599C45.9599 15.4304 44.1179 14.0156 41.8664 14.0156Z" fill="#FDCECF"/>
      <path opacity="0.03" d="M41.7336 14.1562H9.54056C7.30764 14.1562 5.48047 15.5597 5.48047 17.2748V44.3517C5.48047 46.0671 7.30735 47.4702 9.54056 47.4702H41.7336C43.9668 47.4702 45.7937 46.0668 45.7937 44.3517V17.2748C45.7937 15.5594 43.9665 14.1562 41.7336 14.1562Z" fill="#FED0D0"/>
    </g>
    <path d="M-0.000976562 13.5163L0.000163367 15.3645C0.651421 15.849 1.42814 16.2042 2.26075 16.3561L21.4965 20.6816C23.7742 21.0968 27.5015 21.0968 29.7792 20.6816L49.0147 16.3561C49.8473 16.2042 50.6243 15.849 51.2753 15.3645L51.2742 13.5163C51.2742 12.9008 -0.000976562 12.9008 -0.000976562 13.5163Z" fill="url(#paint2_radial_8828_59168)"/>
    <g style="mix-blend-mode:overlay">
      <path d="M51.2468 13.555C50.5348 14.5049 49.3278 15.2565 47.9651 15.4849L29.5927 19.2792C27.4174 19.6433 23.8574 19.6433 21.6818 19.2792L3.30973 15.4849C1.94677 15.2565 0.740057 14.5049 0.0277797 13.555C0.0126673 13.6663 0.00354281 13.7789 0.000976562 13.8924C0.709262 14.8594 1.92994 15.6268 3.30973 15.8581L21.6818 19.6524C23.8574 20.0165 27.4174 20.0165 29.5927 19.6524L47.9648 15.8581C49.3446 15.6271 50.5653 14.8594 51.2736 13.8924C51.271 13.7785 51.2616 13.666 51.2465 13.5547L51.2468 13.555Z" fill="#FEF3C1"/>
    </g>
  </g>
  <path opacity="0.02" d="M8.8127 2.91892C7.56293 1.25515 6.8823 1.75609 6.3106 1.64545C5.7389 1.53481 4.70698 0.0078125 4.70698 0.0078125C4.70698 0.0078125 3.90916 2.05994 3.705 2.4583C3.50084 2.85666 3.40332 4.07465 3.40332 4.07465C4.64311 6.11161 5.81674 6.08903 6.67928 6.70932C7.55324 7.33766 7.86746 7.98504 7.86746 7.98504C7.82554 7.58216 8.81212 2.91892 8.81212 2.91892H8.8127Z" fill="url(#paint3_linear_8828_59168)"/>
  <path opacity="0.04" d="M8.80589 2.94687C7.55612 1.28311 6.87835 1.77952 6.30664 1.66889C5.73494 1.55825 4.70302 0.03125 4.70302 0.03125C4.70302 0.03125 3.91775 2.05822 3.71359 2.45658C3.51114 2.85171 3.4082 4.0526 3.4082 4.0526C4.64799 6.08957 5.82162 6.06699 6.68417 6.68727C7.54671 7.30756 7.87234 7.963 7.87234 7.963C7.83043 7.56012 8.8056 2.94655 8.8056 2.94655L8.80589 2.94687Z" fill="url(#paint4_linear_8828_59168)"/>
  <path opacity="0.05" d="M8.80034 2.9592C7.55057 1.29543 6.87565 1.78734 6.30395 1.6767C5.73224 1.56606 4.70032 0.0390625 4.70032 0.0390625C4.70032 0.0390625 3.9276 2.04087 3.72344 2.43923C3.52099 2.83437 3.41406 4.01526 3.41406 4.01526C4.65385 6.05222 5.82748 6.02964 6.69002 6.64993C7.56369 7.27827 7.8782 7.92565 7.8782 7.92565C7.83628 7.52278 8.80005 2.9592 8.80005 2.9592H8.80034Z" fill="url(#paint5_linear_8828_59168)"/>
  <path opacity="0.07" d="M8.79382 2.97934C7.54405 1.31557 6.87198 1.80296 6.30028 1.69232C5.72857 1.58169 4.69666 0.0546875 4.69666 0.0546875C4.69666 0.0546875 3.93647 2.03133 3.73231 2.4297C3.52987 2.82483 3.41895 3.9854 3.41895 3.9854C4.65873 6.02237 5.83236 5.99979 6.69491 6.62007C7.55745 7.24035 7.88308 7.89579 7.88308 7.89579C7.84117 7.49292 8.79325 2.97934 8.79325 2.97934H8.79382Z" fill="url(#paint6_linear_8828_59168)"/>
  <path opacity="0.09" d="M8.78827 3.00697C7.53851 1.3432 6.86929 1.82608 6.29758 1.71576C5.735 1.60706 4.69396 0.078125 4.69396 0.078125C4.69396 0.078125 3.94632 2.02961 3.74216 2.42797C3.53972 2.82311 3.4248 3.96336 3.4248 3.96336C4.66459 6.00032 5.83822 5.97774 6.70077 6.59803C7.56331 7.21831 7.88894 7.87375 7.88894 7.87375C7.84703 7.47087 8.7877 3.00729 8.7877 3.00729L8.78827 3.00697Z" fill="url(#paint7_linear_8828_59168)"/>
  <path opacity="0.11" d="M8.78216 3.0193C7.53239 1.35553 6.86631 1.83389 6.2946 1.72357C5.73202 1.61487 4.69098 0.0859375 4.69098 0.0859375C4.69098 0.0859375 3.95589 2.01194 3.75173 2.41063C3.54928 2.80576 3.43066 3.92569 3.43066 3.92569C4.67045 5.96266 5.84408 5.94008 6.70663 6.56036C7.56917 7.18064 7.8948 7.83608 7.8948 7.83608C7.85289 7.43321 8.78216 3.01962 8.78216 3.01962V3.0193Z" fill="url(#paint8_linear_8828_59168)"/>
  <path opacity="0.13" d="M8.77563 3.03944C7.52587 1.37567 6.86263 1.84951 6.29093 1.7392C5.71923 1.62888 4.68731 0.101562 4.68731 0.101562C4.68731 0.101562 3.96505 2.00241 3.76061 2.40109C3.55816 2.79623 3.43555 3.89583 3.43555 3.89583C4.67533 5.9328 5.84896 5.91022 6.71151 6.5305C7.58518 7.15885 7.89968 7.80623 7.89968 7.80623C7.85777 7.40335 8.77535 3.03944 8.77535 3.03944H8.77563Z" fill="url(#paint9_linear_8828_59168)"/>
  <path opacity="0.14" d="M8.76911 3.06739C7.51935 1.40363 6.85896 1.87328 6.28726 1.76264C5.72468 1.65393 4.68364 0.125 4.68364 0.125C4.68364 0.125 3.97393 2.00069 3.76948 2.39905C3.56504 2.79741 3.44043 3.87379 3.44043 3.87379C4.68021 5.91076 5.85385 5.88818 6.71639 6.50846C7.59006 7.13681 7.90457 7.78418 7.90457 7.78418C7.86265 7.38131 8.76883 3.06739 8.76883 3.06739H8.76911Z" fill="url(#paint10_linear_8828_59168)"/>
  <path opacity="0.16" d="M8.76328 3.07972C7.51351 1.41596 6.85598 1.88109 6.28428 1.77045C5.7217 1.66175 4.68066 0.132812 4.68066 0.132812C4.68066 0.132812 3.98349 1.98334 3.77905 2.3817C3.5746 2.78006 3.44629 3.83612 3.44629 3.83612C4.68607 5.87309 5.85971 5.85051 6.72225 6.47079C7.59592 7.09914 7.91043 7.74652 7.91043 7.74652C7.86851 7.34364 8.76328 3.07972 8.76328 3.07972Z" fill="url(#paint11_linear_8828_59168)"/>
  <path opacity="0.18" d="M8.75773 3.10767C7.50797 1.44391 6.85329 1.90453 6.28159 1.79389C5.71901 1.68518 4.67796 0.15625 4.67796 0.15625C4.67796 0.15625 3.99334 1.98162 3.7889 2.37998C3.58445 2.77834 3.45215 3.81408 3.45215 3.81408C4.69193 5.85105 5.86557 5.82847 6.72811 6.44875C7.60178 7.0771 7.91629 7.72447 7.91629 7.72447C7.87437 7.3216 8.75745 3.10767 8.75745 3.10767H8.75773Z" fill="url(#paint12_linear_8828_59168)"/>
  <path opacity="0.2" d="M8.75121 3.12781C7.50144 1.46405 6.84962 1.92015 6.27791 1.80951C5.71533 1.70081 4.67429 0.171875 4.67429 0.171875C4.67429 0.171875 4.00222 1.97208 3.79777 2.37044C3.59532 2.76558 3.45703 3.78422 3.45703 3.78422C4.69682 5.82119 5.87045 5.79829 6.73299 6.41889C7.60666 7.04724 7.92117 7.69462 7.92117 7.69462C7.87925 7.29174 8.75092 3.12749 8.75092 3.12749L8.75121 3.12781Z" fill="url(#paint13_linear_8828_59168)"/>
  <path opacity="0.21" d="M8.74469 3.13982C7.49492 1.47606 6.84595 1.92764 6.27424 1.81732C5.70254 1.70701 4.67062 0.179688 4.67062 0.179688C4.67062 0.179688 4.01109 1.95473 3.80665 2.3531C3.6022 2.75146 3.46191 3.74688 3.46191 3.74688C4.7017 5.78384 5.87533 5.76094 6.73788 6.38155C7.61154 7.00989 7.92605 7.65727 7.92605 7.65727C7.88414 7.25439 8.7444 3.14014 8.7444 3.14014L8.74469 3.13982Z" fill="url(#paint14_linear_8828_59168)"/>
  <path opacity="0.23" d="M8.73886 3.16777C7.48909 1.50401 6.84296 1.95108 6.27126 1.84076C5.70868 1.73206 4.66764 0.203125 4.66764 0.203125C4.66764 0.203125 4.02066 1.95301 3.81621 2.35137C3.61177 2.74974 3.46777 3.72483 3.46777 3.72483C4.70756 5.7618 5.88119 5.7389 6.74374 6.3595C7.6174 6.98785 7.93191 7.63523 7.93191 7.63523C7.89 7.23235 8.73857 3.1681 8.73857 3.1681L8.73886 3.16777Z" fill="url(#paint15_linear_8828_59168)"/>
  <path opacity="0.25" d="M8.73331 3.18791C7.48354 1.52415 6.84027 1.9667 6.26857 1.85639C5.70599 1.74768 4.66494 0.21875 4.66494 0.21875C4.66494 0.21875 4.03051 1.94348 3.82606 2.34184C3.62162 2.7402 3.47363 3.69498 3.47363 3.69498C4.71342 5.73194 5.88705 5.70904 6.74959 6.32965C7.62326 6.95799 7.93777 7.60537 7.93777 7.60537C7.89586 7.20249 8.73302 3.18824 8.73302 3.18824L8.73331 3.18791Z" fill="url(#paint16_linear_8828_59168)"/>
  <path opacity="0.27" d="M8.72581 3.20805C7.47604 1.54429 6.83562 1.98233 6.26392 1.87201C5.70134 1.76331 4.6603 0.234375 4.6603 0.234375C4.6603 0.234375 4.03841 1.93362 3.83396 2.3323C3.63151 2.72744 3.47754 3.66512 3.47754 3.66512C4.71732 5.70209 5.89096 5.67918 6.7535 6.29979C7.62717 6.92814 7.94168 7.57551 7.94168 7.57551C7.89976 7.17264 8.72552 3.20805 8.72552 3.20805H8.72581Z" fill="url(#paint17_linear_8828_59168)"/>
  <path opacity="0.29" d="M8.72095 3.23601C7.47119 1.57224 6.83362 2.00609 6.26191 1.89545C5.69933 1.78675 4.65829 0.257812 4.65829 0.257812C4.65829 0.257812 4.04895 1.9319 3.84451 2.33058C3.64006 2.72927 3.48438 3.64308 3.48438 3.64308C4.72416 5.68004 5.89779 5.65714 6.76034 6.27775C7.634 6.90609 7.94851 7.55347 7.94851 7.55347C7.9066 7.15059 8.72067 3.23601 8.72067 3.23601H8.72095Z" fill="url(#paint18_linear_8828_59168)"/>
  <path opacity="0.3" d="M8.71443 3.24834C7.46467 1.58457 6.82995 2.0139 6.25824 1.90326C5.69566 1.79456 4.65462 0.265625 4.65462 0.265625C4.65462 0.265625 4.05782 1.91455 3.85338 2.31291C3.65093 2.70805 3.48926 3.60541 3.48926 3.60541C4.72904 5.64237 5.90267 5.61947 6.76522 6.24008C7.63889 6.86842 7.9534 7.5158 7.9534 7.5158C7.91148 7.11293 8.71415 3.24834 8.71415 3.24834H8.71443Z" fill="url(#paint19_linear_8828_59168)"/>
  <path opacity="0.32" d="M8.70791 3.26848C7.45814 1.60471 6.82628 2.02952 6.25457 1.91889C5.69199 1.81018 4.65095 0.28125 4.65095 0.28125C4.65095 0.28125 4.0667 1.90502 3.86225 2.30338C3.65981 2.69851 3.49414 3.57555 3.49414 3.57555C4.73393 5.61252 5.90756 5.58962 6.7701 6.21022C7.64377 6.83857 7.95828 7.48595 7.95828 7.48595C7.91636 7.08307 8.70762 3.26848 8.70762 3.26848H8.70791Z" fill="url(#paint20_linear_8828_59168)"/>
  <path opacity="0.34" d="M8.70139 3.29643C7.45162 1.63267 6.82261 2.05296 6.2509 1.94232C5.68832 1.83362 4.64728 0.304688 4.64728 0.304688C4.64728 0.304688 4.07557 1.90329 3.87113 2.30166C3.66868 2.69679 3.49902 3.55351 3.49902 3.55351C4.73881 5.59048 5.91244 5.56757 6.77499 6.18818C7.64865 6.81653 7.96316 7.4639 7.96316 7.4639C7.92125 7.06103 8.70082 3.29611 8.70082 3.29611L8.70139 3.29643Z" fill="url(#paint21_linear_8828_59168)"/>
  <path opacity="0.36" d="M8.69555 3.31625C7.44579 1.65248 6.81962 2.06826 6.24792 1.95795C5.68534 1.84925 4.6443 0.320312 4.6443 0.320312C4.6443 0.320312 4.08514 1.89376 3.8807 2.29212C3.67825 2.68726 3.50488 3.52365 3.50488 3.52365C4.74467 5.56062 5.9183 5.53772 6.78084 6.15832C7.65451 6.78667 7.96902 7.43405 7.96902 7.43405C7.9271 7.03117 8.69527 3.31625 8.69527 3.31625H8.69555Z" fill="url(#paint22_linear_8828_59168)"/>
  <path opacity="0.38" d="M8.68903 3.32858C7.43927 1.66481 6.81595 2.07608 6.24425 1.96576C5.68167 1.85706 4.64063 0.328125 4.64063 0.328125C4.64063 0.328125 4.09402 1.87641 3.88957 2.27477C3.68712 2.66991 3.50977 3.48599 3.50977 3.48599C4.74955 5.52295 5.92318 5.50005 6.78573 6.12065C7.6594 6.749 7.9739 7.39638 7.9739 7.39638C7.93199 6.9935 8.68875 3.32858 8.68875 3.32858H8.68903Z" fill="url(#paint23_linear_8828_59168)"/>
  <path opacity="0.39" d="M8.68251 3.35653C7.43274 1.69277 6.81228 2.09951 6.24058 1.9892C5.678 1.8805 4.63696 0.351562 4.63696 0.351562C4.63696 0.351562 4.10289 1.87469 3.89845 2.27305C3.694 2.67141 3.51465 3.46427 3.51465 3.46427C4.75443 5.50123 5.92807 5.47833 6.79061 6.09894C7.66428 6.72728 7.97879 7.37466 7.97879 7.37466C7.93687 6.97178 8.68194 3.35685 8.68194 3.35685L8.68251 3.35653Z" fill="url(#paint24_linear_8828_59168)"/>
  <path opacity="0.41" d="M8.67765 3.37667C7.42789 1.71291 6.81028 2.11546 6.23857 2.00482C5.67599 1.89612 4.63495 0.367188 4.63495 0.367188C4.63495 0.367188 4.11343 1.86516 3.90899 2.26352C3.70654 2.65865 3.52148 3.43441 3.52148 3.43441C4.76127 5.47137 5.9349 5.44847 6.79745 6.06908C7.67111 6.69742 7.98562 7.3448 7.98562 7.3448C7.94371 6.94193 8.67737 3.37699 8.67737 3.37699L8.67765 3.37667Z" fill="url(#paint25_linear_8828_59168)"/>
  <path opacity="0.43" d="M8.67016 3.389C7.42039 1.72524 6.80563 2.12327 6.23393 2.01264C5.67135 1.90393 4.6303 0.375 4.6303 0.375C4.6303 0.375 4.12133 1.84749 3.91689 2.24617C3.71444 2.64131 3.52539 3.39674 3.52539 3.39674C4.76518 5.43371 5.93881 5.41081 6.80135 6.03141C7.67502 6.65976 7.98953 7.30713 7.98953 7.30713C7.94761 6.90426 8.66987 3.389 8.66987 3.389H8.67016Z" fill="url(#paint26_linear_8828_59168)"/>
  <path opacity="0.45" d="M8.66363 3.41695C7.41387 1.75319 6.80196 2.14671 6.23026 2.03607C5.65855 1.92544 4.62663 0.398438 4.62663 0.398438C4.62663 0.398438 4.13021 1.84576 3.92576 2.24445C3.72331 2.63958 3.53027 3.3747 3.53027 3.3747C4.77006 5.41166 5.94369 5.38876 6.80624 6.00937C7.6799 6.63771 7.99441 7.28509 7.99441 7.28509C7.9525 6.88221 8.66306 3.41695 8.66306 3.41695H8.66363Z" fill="url(#paint27_linear_8828_59168)"/>
  <path opacity="0.46" d="M8.65809 3.43709C7.40832 1.77333 6.79927 2.16234 6.22756 2.0517C5.66498 1.943 4.62394 0.414062 4.62394 0.414062C4.62394 0.414062 4.14006 1.83623 3.93561 2.23459C3.73316 2.62973 3.53613 3.34452 3.53613 3.34452C4.77592 5.38148 5.94955 5.35858 6.8121 5.97919C7.68576 6.60753 8.00027 7.25491 8.00027 7.25491C7.95836 6.85204 8.65752 3.43677 8.65752 3.43677L8.65809 3.43709Z" fill="url(#paint28_linear_8828_59168)"/>
  <path opacity="0.48" d="M8.65226 3.4491C7.40249 1.78534 6.79629 2.16983 6.22458 2.05951C5.662 1.95081 4.62096 0.421875 4.62096 0.421875C4.62096 0.421875 4.14962 1.81888 3.94518 2.21724C3.74073 2.6156 3.54199 3.30717 3.54199 3.30717C4.78178 5.34414 5.95541 5.32124 6.81796 5.94184C7.6805 6.56245 8.00613 7.21757 8.00613 7.21757C7.96421 6.81469 8.65197 3.44942 8.65197 3.44942L8.65226 3.4491Z" fill="url(#paint29_linear_8828_59168)"/>
  <path opacity="0.5" d="M8.64671 3.47705C7.39694 1.81329 6.79359 2.19327 6.22189 2.08295C5.65931 1.97425 4.61826 0.445312 4.61826 0.445312C4.61826 0.445312 4.15947 1.81716 3.95503 2.21552C3.75258 2.61066 3.54785 3.28513 3.54785 3.28513C4.78764 5.3221 5.96127 5.29919 6.82382 5.9198C7.69748 6.54815 8.01199 7.19552 8.01199 7.19552C7.97007 6.79265 8.64614 3.47705 8.64614 3.47705H8.64671Z" fill="url(#paint30_linear_8828_59168)"/>
  <path opacity="0.52" d="M8.64019 3.49719C7.39042 1.83343 6.78992 2.20889 6.21821 2.09857C5.64651 1.98826 4.61459 0.460938 4.61459 0.460938C4.61459 0.460938 4.16835 1.80763 3.9639 2.20599C3.75946 2.60435 3.55273 3.25527 3.55273 3.25527C4.79252 5.29224 5.96615 5.26934 6.8287 5.88994C7.70236 6.51829 8.01687 7.16567 8.01687 7.16567C7.97496 6.76279 8.63962 3.49719 8.63962 3.49719H8.64019Z" fill="url(#paint31_linear_8828_59168)"/>
  <path opacity="0.54" d="M8.63436 3.51733C7.38459 1.85357 6.78694 2.22451 6.21523 2.1142C5.65265 2.0055 4.61161 0.476562 4.61161 0.476562C4.61161 0.476562 4.17792 1.79809 3.97347 2.19645C3.77102 2.59159 3.55859 3.22542 3.55859 3.22542C4.79838 5.26238 5.97201 5.23948 6.83456 5.86009C7.70822 6.48843 8.02273 7.13581 8.02273 7.13581C7.98082 6.73293 8.63407 3.51733 8.63407 3.51733H8.63436Z" fill="url(#paint32_linear_8828_59168)"/>
  <path opacity="0.55" d="M8.62783 3.53748C7.37807 1.87371 6.78327 2.24046 6.21156 2.12982C5.64898 2.02112 4.60794 0.492188 4.60794 0.492188C4.60794 0.492188 4.18679 1.78856 3.98235 2.18692C3.7799 2.58205 3.56348 3.19556 3.56348 3.19556C4.80326 5.23253 5.97689 5.20962 6.83944 5.83023C7.71311 6.45858 8.02761 7.10596 8.02761 7.10596C7.9857 6.70308 8.62726 3.53748 8.62726 3.53748H8.62783Z" fill="url(#paint33_linear_8828_59168)"/>
  <path opacity="0.57" d="M8.62131 3.55762C7.37155 1.89385 6.7796 2.25609 6.20789 2.14545C5.64531 2.03675 4.60427 0.507812 4.60427 0.507812C4.60427 0.507812 4.19567 1.77902 3.99122 2.17738C3.78877 2.57252 3.56836 3.16603 3.56836 3.16603C4.80814 5.20299 5.98178 5.18009 6.84432 5.8007C7.71799 6.42905 8.0325 7.07642 8.0325 7.07642C7.99058 6.67355 8.62074 3.55762 8.62074 3.55762H8.62131Z" fill="url(#paint34_linear_8828_59168)"/>
  <path opacity="0.59" d="M8.61479 3.58557C7.36502 1.92181 6.77593 2.27953 6.20422 2.16889C5.63252 2.05825 4.6006 0.53125 4.6006 0.53125C4.6006 0.53125 4.20454 1.77698 4.0001 2.17566C3.79565 2.57434 3.57324 3.14398 3.57324 3.14398C4.81303 5.18095 5.98666 5.15805 6.84921 5.77865C7.72287 6.407 8.03738 7.05438 8.03738 7.05438C7.99546 6.6515 8.61422 3.58557 8.61422 3.58557H8.61479Z" fill="url(#paint35_linear_8828_59168)"/>
  <path opacity="0.61" d="M8.60896 3.60539C7.35919 1.94162 6.77323 2.29483 6.20124 2.18451C5.63866 2.07581 4.59762 0.546875 4.59762 0.546875C4.59762 0.546875 4.21411 1.76744 4.00966 2.16613C3.80721 2.56126 3.5791 3.11413 3.5791 3.11413C4.81889 5.15109 5.99252 5.12819 6.85507 5.7488C7.72873 6.37714 8.04324 7.02452 8.04324 7.02452C8.00132 6.62165 8.60839 3.60571 8.60839 3.60571L8.60896 3.60539Z" fill="url(#paint36_linear_8828_59168)"/>
  <path opacity="0.62" d="M8.60243 3.61772C7.35267 1.95395 6.76956 2.30264 6.19757 2.19232C5.62558 2.08201 4.59395 0.554688 4.59395 0.554688C4.59395 0.554688 4.22298 1.75009 4.01854 2.14846C3.81609 2.54359 3.58398 3.07614 3.58398 3.07614C4.82377 5.1131 5.9974 5.0902 6.85995 5.71081C7.73361 6.33915 8.04812 6.98653 8.04812 6.98653C8.00621 6.58365 8.60186 3.61772 8.60186 3.61772H8.60243Z" fill="url(#paint37_linear_8828_59168)"/>
  <path opacity="0.64" d="M8.59632 3.64567C7.34655 1.98191 6.76629 2.32608 6.19459 2.21576C5.63201 2.10706 4.59097 0.578125 4.59097 0.578125C4.59097 0.578125 4.23255 1.74837 4.02839 2.14673C3.82423 2.5451 3.58984 3.0541 3.58984 3.0541C4.82963 5.09106 6.00326 5.06816 6.86581 5.68876C7.73947 6.31711 8.05398 6.96449 8.05398 6.96449C8.01207 6.56161 8.59632 3.64535 8.59632 3.64535V3.64567Z" fill="url(#paint38_linear_8828_59168)"/>
  <path opacity="0.66" d="M8.59049 3.66581C7.34072 2.00205 6.76331 2.3417 6.19161 2.23139C5.62903 2.12268 4.58799 0.59375 4.58799 0.59375C4.58799 0.59375 4.24211 1.73884 4.03795 2.1372C3.83551 2.53234 3.5957 3.02456 3.5957 3.02456C4.83549 5.06153 6.00912 5.03863 6.87167 5.65923C7.74533 6.28758 8.05984 6.93495 8.05984 6.93495C8.01793 6.53208 8.59049 3.66581 8.59049 3.66581Z" fill="url(#paint39_linear_8828_59168)"/>
  <path opacity="0.68" d="M8.58396 3.69376C7.3342 2.03 6.75964 2.36546 6.18794 2.25482C5.62536 2.14612 4.58432 0.617188 4.58432 0.617188C4.58432 0.617188 4.25099 1.73712 4.04683 2.13548C3.84438 2.53061 3.60059 3.00252 3.60059 3.00252C4.84037 5.03948 6.014 5.01658 6.87655 5.63719C7.75022 6.26553 8.06472 6.91291 8.06472 6.91291C8.02281 6.51003 8.58396 3.69376 8.58396 3.69376Z" fill="url(#paint40_linear_8828_59168)"/>
  <path opacity="0.7" d="M8.57842 3.70609C7.32865 2.04233 6.75695 2.37327 6.18524 2.26264C5.62266 2.15393 4.58162 0.625 4.58162 0.625C4.58162 0.625 4.26084 1.71977 4.05668 2.11813C3.85423 2.51326 3.60645 2.96485 3.60645 2.96485C4.84623 5.00181 6.01986 4.97891 6.88241 5.59952C7.75608 6.22786 8.07058 6.87524 8.07058 6.87524C8.02867 6.47236 8.57842 3.70609 8.57842 3.70609Z" fill="url(#paint41_linear_8828_59168)"/>
  <path opacity="0.71" d="M8.57161 3.72623C7.32184 2.06247 6.75299 2.3889 6.18129 2.27826C5.61871 2.16956 4.57767 0.640625 4.57767 0.640625C4.57767 0.640625 4.26943 1.71023 4.06527 2.10859C3.86111 2.50696 3.61133 2.93499 3.61133 2.93499C4.85111 4.97196 6.02475 4.94906 6.88729 5.56966C7.76096 6.19801 8.07547 6.84539 8.07547 6.84539C8.03355 6.44251 8.57161 3.72623 8.57161 3.72623Z" fill="url(#paint42_linear_8828_59168)"/>
  <path opacity="0.73" d="M8.56606 3.75419C7.3163 2.09042 6.7503 2.41234 6.17859 2.3017C5.61601 2.193 4.57497 0.664062 4.57497 0.664062C4.57497 0.664062 4.27928 1.70851 4.07512 2.10687C3.87267 2.50201 3.61719 2.91295 3.61719 2.91295C4.85697 4.94991 6.03061 4.92701 6.89315 5.54762C7.76682 6.17597 8.08133 6.82334 8.08133 6.82334C8.03941 6.42047 8.56606 3.75386 8.56606 3.75386V3.75419Z" fill="url(#paint43_linear_8828_59168)"/>
  <path opacity="0.75" d="M8.55954 3.76619C7.30977 2.10243 6.74662 2.41983 6.17492 2.30951C5.60322 2.1992 4.5713 0.671875 4.5713 0.671875C4.5713 0.671875 4.28816 1.69084 4.084 2.08953C3.88155 2.48466 3.62207 2.8756 3.62207 2.8756C4.86186 4.91257 6.03549 4.88967 6.89803 5.51027C7.7717 6.13862 8.08621 6.786 8.08621 6.786C8.04429 6.38312 8.55954 3.76651 8.55954 3.76651V3.76619Z" fill="url(#paint44_linear_8828_59168)"/>
  <path opacity="0.77" d="M8.55302 3.78633C7.30325 2.12257 6.74295 2.43545 6.17125 2.32514C5.60867 2.21643 4.56763 0.6875 4.56763 0.6875C4.56763 0.6875 4.29703 1.68131 4.09287 2.07999C3.89042 2.47513 3.62695 2.84575 3.62695 2.84575C4.86674 4.88271 6.04037 4.85981 6.90292 5.48042C7.77658 6.10876 8.09109 6.75614 8.09109 6.75614C8.04918 6.35326 8.55273 3.78666 8.55273 3.78666L8.55302 3.78633Z" fill="url(#paint45_linear_8828_59168)"/>
  <path opacity="0.79" d="M8.54718 3.81429C7.29742 2.15052 6.73997 2.45889 6.16827 2.34857C5.60569 2.23987 4.56465 0.710938 4.56465 0.710938C4.56465 0.710938 4.3066 1.67958 4.10244 2.07795C3.89999 2.47308 3.63281 2.82338 3.63281 2.82338C4.8726 4.86035 6.04623 4.83745 6.90878 5.45805C7.78244 6.0864 8.09695 6.73378 8.09695 6.73378C8.05504 6.3309 8.54718 3.81429 8.54718 3.81429Z" fill="url(#paint46_linear_8828_59168)"/>
  <path opacity="0.8" d="M8.54066 3.82661C7.2909 2.16285 6.7363 2.46703 6.1646 2.35639C5.60202 2.24768 4.56098 0.71875 4.56098 0.71875C4.56098 0.71875 4.31547 1.66224 4.11131 2.0606C3.90886 2.45574 3.6377 2.78571 3.6377 2.78571C4.87748 4.82268 6.05111 4.79978 6.91366 5.42038C7.78733 6.04873 8.10183 6.69611 8.10183 6.69611C8.05992 6.29323 8.54066 3.82629 8.54066 3.82629V3.82661Z" fill="url(#paint47_linear_8828_59168)"/>
  <path opacity="0.82" d="M8.53414 3.84675C7.28437 2.18299 6.73263 2.48265 6.16093 2.37201C5.59835 2.26331 4.5573 0.734375 4.5573 0.734375C4.5573 0.734375 4.32435 1.6527 4.12019 2.05106C3.91603 2.44943 3.64258 2.75618 3.64258 2.75618C4.88236 4.79315 6.056 4.77024 6.91854 5.39085C7.79221 6.0192 8.10672 6.66657 8.10672 6.66657C8.0648 6.2637 8.53385 3.84675 8.53385 3.84675H8.53414Z" fill="url(#paint48_linear_8828_59168)"/>
  <path opacity="0.84" d="M8.52831 3.87471C7.27854 2.21094 6.72965 2.50609 6.15795 2.39545C5.59537 2.28675 4.55433 0.757812 4.55433 0.757812C4.55433 0.757812 4.33391 1.65098 4.12975 2.04934C3.92559 2.4477 3.64844 2.73414 3.64844 2.73414C4.88822 4.7711 6.06186 4.7482 6.9244 5.3688C7.79807 5.99715 8.11258 6.64453 8.11258 6.64453C8.07066 6.24165 8.52831 3.87471 8.52831 3.87471Z" fill="url(#paint49_linear_8828_59168)"/>
  <path opacity="0.86" d="M8.52276 3.89485C7.273 2.23109 6.72696 2.52171 6.15525 2.41107C5.59267 2.30237 4.55163 0.773438 4.55163 0.773438C4.55163 0.773438 4.34376 1.64145 4.1396 2.03981C3.93716 2.43494 3.6543 2.70428 3.6543 2.70428C4.89408 4.74125 6.06771 4.71835 6.93026 5.33895C7.80393 5.9673 8.11843 6.61467 8.11843 6.61467C8.07652 6.2118 8.52276 3.89485 8.52276 3.89485Z" fill="url(#paint50_linear_8828_59168)"/>
  <path opacity="0.87" d="M8.51624 3.90685C7.26648 2.24309 6.72329 2.5292 6.15158 2.41889C5.589 2.31018 4.54796 0.78125 4.54796 0.78125C4.54796 0.78125 4.35264 1.6241 4.14848 2.02246C3.94603 2.4176 3.65918 2.66661 3.65918 2.66661C4.89896 4.70358 6.0726 4.68068 6.93514 5.30128C7.80881 5.92963 8.12332 6.577 8.12332 6.577C8.0814 6.17413 8.51595 3.90685 8.51595 3.90685H8.51624Z" fill="url(#paint51_linear_8828_59168)"/>
  <path opacity="0.89" d="M8.50972 3.93481C7.25995 2.27104 6.71961 2.55264 6.14791 2.44232C5.58533 2.33362 4.54429 0.804688 4.54429 0.804688C4.54429 0.804688 4.36151 1.62238 4.15735 2.02074C3.9549 2.41587 3.66406 2.64457 3.66406 2.64457C4.90385 4.68153 6.07748 4.65863 6.94003 5.27924C7.81369 5.90758 8.1282 6.55496 8.1282 6.55496C8.08628 6.15208 8.50943 3.93481 8.50943 3.93481H8.50972Z" fill="url(#paint52_linear_8828_59168)"/>
  <path opacity="0.91" d="M8.50389 3.95495C7.25412 2.29119 6.71663 2.56826 6.14493 2.45795C5.57323 2.34763 4.54131 0.820312 4.54131 0.820312C4.54131 0.820312 4.37108 1.61252 4.16692 2.0112C3.96447 2.40634 3.66992 2.61504 3.66992 2.61504C4.90971 4.652 6.08334 4.6291 6.94589 5.2497C7.80843 5.87031 8.13406 6.52543 8.13406 6.52543C8.09214 6.12255 8.50389 3.95527 8.50389 3.95527V3.95495Z" fill="url(#paint53_linear_8828_59168)"/>
  <path opacity="0.93" d="M8.49834 3.9829C7.24857 2.31914 6.71394 2.5917 6.14223 2.48139C5.57966 2.37268 4.53861 0.84375 4.53861 0.84375C4.53861 0.84375 4.38093 1.6108 4.17677 2.00948C3.97261 2.40817 3.67578 2.59299 3.67578 2.59299C4.91557 4.62996 6.0892 4.60706 6.95175 5.22766C7.82541 5.85601 8.13992 6.50339 8.13992 6.50339C8.098 6.10051 8.49805 3.98323 8.49805 3.98323L8.49834 3.9829Z" fill="url(#paint54_linear_8828_59168)"/>
  <path opacity="0.95" d="M8.49182 3.99523C7.24205 2.33147 6.71027 2.59984 6.13856 2.4892C5.57598 2.3805 4.53494 0.851562 4.53494 0.851562C4.53494 0.851562 4.38981 1.59345 4.18565 1.99181C3.9832 2.38695 3.68066 2.555 3.68066 2.555C4.92045 4.59197 6.09408 4.56907 6.95663 5.18967C7.83029 5.81802 8.1448 6.46539 8.1448 6.46539C8.10289 6.06252 8.49153 3.99523 8.49153 3.99523H8.49182Z" fill="url(#paint55_linear_8828_59168)"/>
  <path opacity="0.96" d="M8.48501 4.01537C7.23524 2.35161 6.70631 2.61546 6.13461 2.50482C5.57203 2.39612 4.53099 0.867188 4.53099 0.867188C4.53099 0.867188 4.3984 1.58392 4.19424 1.98228C3.99179 2.37741 3.68555 2.52515 3.68555 2.52515C4.92533 4.56211 6.09896 4.53921 6.96151 5.15981C7.83518 5.78816 8.14968 6.43554 8.14968 6.43554C8.10777 6.03266 8.48501 4.01505 8.48501 4.01505V4.01537Z" fill="url(#paint56_linear_8828_59168)"/>
  <path opacity="0.98" d="M8.47946 4.04333C7.2297 2.37956 6.70362 2.6389 6.13191 2.52826C5.56933 2.41956 4.52829 0.890625 4.52829 0.890625C4.52829 0.890625 4.40825 1.58219 4.20409 1.98056C4.00164 2.37569 3.69141 2.5031 3.69141 2.5031C4.93119 4.54007 6.10482 4.51717 6.96737 5.13777C7.84104 5.76612 8.15554 6.4135 8.15554 6.4135C8.11363 6.01062 8.47918 4.043 8.47918 4.043L8.47946 4.04333Z" fill="url(#paint57_linear_8828_59168)"/>
  <path d="M8.47294 4.05533C7.22318 2.39157 6.69938 2.64994 6.12824 2.53607C5.56509 2.43092 4.52462 0.898438 4.52462 0.898438C4.52462 0.898438 4.42396 1.56936 4.21296 1.96321C4.01736 2.36286 3.69629 2.46576 3.69629 2.46576C4.93607 4.50272 6.11113 4.47756 6.97225 5.10042C7.84734 5.72651 8.16043 6.37615 8.16043 6.37615C8.11851 5.97327 8.47265 4.05565 8.47265 4.05565L8.47294 4.05533Z" fill="url(#paint58_linear_8828_59168)"/>
  <path d="M21.4941 5.64911C21.4941 5.64911 21.2403 6.76001 22.6571 8.22475C24.0424 9.67176 25.8929 9.66789 25.8929 9.66789C25.8929 9.66789 24.7666 10.8362 24.411 11.5471C23.9748 12.3761 23.9919 13.2748 23.9919 13.2748C23.9919 13.2748 19.6581 10.7736 19.3011 8.86471C18.9466 6.95516 21.2218 5.61395 21.4941 5.64911Z" fill="url(#paint59_linear_8828_59168)"/>
  <path d="M21.4946 5.64844C21.4946 5.64844 20.8214 5.9939 20.9599 6.39387C21.1071 6.79288 21.7275 7.30672 21.7275 7.30672C21.7275 7.30672 20.023 7.52703 19.6067 7.93377C19.1986 8.34342 19.3013 8.86404 19.3013 8.86404C19.3013 8.86404 18.5385 6.63257 21.4943 5.64844H21.4946Z" fill="url(#paint60_linear_8828_59168)"/>
  <path d="M33.8305 27.2242C34.0227 32.3458 30.5083 36.6739 25.9809 36.8913C21.4534 37.1087 17.6274 33.1332 17.4353 28.0116C17.2431 22.89 20.7574 18.5619 25.2848 18.3444C29.8123 18.127 33.6383 22.1026 33.8305 27.2242Z" fill="url(#paint61_linear_8828_59168)"/>
  <path d="M33.8393 27.4898C34.0314 32.6114 30.5171 36.9395 25.9897 37.1569C21.4622 37.3743 17.6362 33.3988 17.444 28.2772C17.2519 23.1556 20.7662 18.8275 25.2936 18.6101C29.8211 18.3927 33.6471 22.3682 33.8393 27.4898Z" fill="url(#paint62_linear_8828_59168)"/>
  <g style="mix-blend-mode:multiply">
    <path d="M25.9426 35.9213C24.9694 35.9681 24.017 35.7978 23.112 35.4152C22.2381 35.0456 21.4451 34.4946 20.7548 33.7772C20.0644 33.0602 19.5121 32.2128 19.1124 31.259C18.6986 30.2713 18.468 29.2124 18.4266 28.1115C18.3853 27.0106 18.5358 25.9332 18.874 24.9094C19.2008 23.9208 19.6878 23.0237 20.3219 22.2428C20.9558 21.4619 21.7049 20.8371 22.548 20.3849C23.4211 19.9168 24.3572 19.6559 25.3304 19.6091C26.3036 19.5624 27.2559 19.7327 28.1607 20.1152C29.0346 20.4849 29.8279 21.0358 30.5179 21.7529C31.2083 22.4702 31.7606 23.3173 32.1603 24.2711C32.5741 25.2588 32.8047 26.3177 32.8461 27.4186C32.8874 28.5195 32.7369 29.5969 32.3987 30.6207C32.0719 31.6093 31.5849 32.5064 30.9511 33.2873C30.3172 34.0682 29.5681 34.693 28.725 35.1452C27.8519 35.6133 26.9158 35.8742 25.9426 35.921V35.9213ZM25.3444 19.982C21.5506 20.1643 18.5948 23.804 18.7559 28.096C18.917 32.388 22.1346 35.7313 25.9286 35.5491C29.7224 35.3668 32.6781 31.7271 32.517 27.4351C32.3559 23.1434 29.1384 19.7998 25.3444 19.982Z" fill="#804143"/>
    <path d="M25.8793 34.2365C25.1071 34.2736 24.3518 34.1384 23.6335 33.8349C22.94 33.5417 22.311 33.1046 21.7633 32.5356C21.2158 31.9666 20.7776 31.2944 20.4605 30.5377C20.1323 29.7542 19.9492 28.9139 19.9164 28.0404C19.8836 27.1669 20.0031 26.3125 20.2714 25.5003C20.5306 24.7158 20.917 24.0042 21.42 23.3846C21.923 22.7653 22.5172 22.2692 23.1861 21.9105C23.8787 21.5392 24.6215 21.3322 25.3937 21.2951C26.1658 21.258 26.9214 21.3931 27.6394 21.6966C28.3326 21.9899 28.9619 22.4269 29.5094 22.9959C30.0571 23.5649 30.4954 24.2371 30.8125 24.9939C31.1406 25.7774 31.3237 26.6176 31.3565 27.4911C31.3893 28.3646 31.2698 29.2194 31.0015 30.0316C30.7423 30.8161 30.3559 31.5276 29.853 32.1473C29.35 32.7666 28.7557 33.2627 28.0868 33.6214C27.3942 33.9926 26.6514 34.1997 25.8793 34.2368V34.2365ZM25.4076 21.6676C22.4354 21.8105 20.1197 24.6619 20.2458 28.0246C20.3721 31.387 22.8927 34.0065 25.8653 33.8639C28.8379 33.7214 31.1535 30.8696 31.0272 27.5069C30.9008 24.1442 28.3799 21.525 25.4076 21.6676Z" fill="#804143"/>
    <path d="M25.8162 32.5516C24.6862 32.6058 23.6052 32.1591 22.7723 31.2937C21.9394 30.4282 21.4541 29.2477 21.4062 27.9694C21.3583 26.6911 21.7533 25.4682 22.5183 24.526C23.2833 23.5838 24.3269 23.0352 25.4569 22.981C26.5869 22.9268 27.6679 23.3735 28.5008 24.239C29.3337 25.1044 29.819 26.285 29.8669 27.5633C29.9148 28.8416 29.5199 30.0644 28.7548 31.0066C27.9898 31.9488 26.9462 32.4975 25.8162 32.552V32.5516ZM25.4709 23.3535C23.3198 23.4567 21.6443 25.5205 21.7356 27.9536C21.8268 30.3869 23.6511 32.2823 25.8022 32.1791C27.9533 32.0759 29.6288 30.0121 29.5376 27.5787C29.4463 25.1453 27.622 23.25 25.4709 23.3532V23.3535Z" fill="#804143"/>
  </g>
  <path d="M25.9475 36.0304C24.9743 36.0771 24.0219 35.9068 23.1169 35.5243C22.2429 35.1546 21.45 34.6037 20.7597 33.8866C20.0693 33.1696 19.517 32.3222 19.1173 31.3684C18.7035 30.3807 18.4728 29.3218 18.4315 28.2209C18.3901 27.12 18.5407 26.0426 18.8789 25.0188C19.2056 24.0302 19.6927 23.1328 20.3265 22.3522C20.9604 21.5716 21.7095 20.9465 22.5526 20.4943C23.4257 20.0262 24.3618 19.7653 25.335 19.7185C26.3082 19.6717 27.2605 19.842 28.1656 20.2249C29.0395 20.5946 29.8328 21.1455 30.5228 21.8626C31.2131 22.5796 31.7655 23.427 32.1652 24.3808C32.579 25.3685 32.8096 26.4274 32.851 27.5283C32.8923 28.6292 32.7418 29.7066 32.4036 30.7304C32.0768 31.719 31.5898 32.6161 30.9559 33.397C30.3218 34.1779 29.573 34.8027 28.7299 35.2549C27.8568 35.723 26.9207 35.9839 25.9475 36.0307V36.0304ZM25.3493 20.0911C21.5555 20.2733 18.5997 23.9131 18.7608 28.2047C18.9219 32.4964 22.1394 35.84 25.9332 35.6578C29.727 35.4756 32.6827 31.8358 32.5216 27.5441C32.3605 23.2525 29.143 19.9088 25.349 20.0911H25.3493Z" fill="#B81E25"/>
  <path d="M25.8841 34.3459C25.112 34.383 24.3564 34.2478 23.6387 33.9443C22.9452 33.6511 22.3162 33.214 21.7684 32.645C21.221 32.076 20.7824 31.4038 20.4654 30.6471C20.1372 29.8636 19.9541 29.0233 19.9213 28.1498C19.8885 27.2763 20.008 26.4215 20.2763 25.6093C20.5355 24.8249 20.9219 24.1133 21.4249 23.494C21.9278 22.8743 22.5221 22.3786 23.191 22.0199C23.8836 21.6486 24.6264 21.4415 25.3983 21.4044C26.1704 21.3673 26.926 21.5025 27.644 21.806C28.3375 22.0992 28.9665 22.5363 29.5143 23.1053C30.0617 23.6743 30.5003 24.3465 30.8171 25.1032C31.1452 25.8867 31.3283 26.727 31.3611 27.6005C31.3939 28.474 31.2744 29.3288 31.0061 30.1406C30.7469 30.9251 30.3605 31.6367 29.8576 32.2563C29.3546 32.8756 28.7603 33.3717 28.0914 33.7301C27.3988 34.1014 26.656 34.3084 25.8839 34.3455L25.8841 34.3459ZM25.4125 21.777C22.44 21.9199 20.1246 24.7716 20.2507 28.134C20.377 31.4964 22.8979 34.1159 25.8702 33.9733C28.8427 33.8307 31.1584 30.979 31.032 27.6163C30.9057 24.2536 28.3851 21.6344 25.4125 21.777Z" fill="#B81E25"/>
  <path d="M25.8211 32.6613C24.6911 32.7155 23.6101 32.2688 22.7772 31.4034C21.9443 30.5379 21.459 29.3574 21.4111 28.0791C21.3632 26.8008 21.7581 25.5779 22.5232 24.6357C23.2882 23.6935 24.3318 23.1449 25.4618 23.0903C26.5918 23.0362 27.6728 23.4829 28.5057 24.3483C29.3386 25.2138 29.8236 26.3943 29.8715 27.6726C29.9194 28.9509 29.5245 30.1738 28.7594 31.116C27.9944 32.0582 26.9508 32.6068 25.8208 32.6613H25.8211ZM25.4761 23.4632C23.325 23.5664 21.6495 25.6302 21.7407 28.0633C21.832 30.4966 23.6563 32.3923 25.8074 32.2888C27.9585 32.1856 29.634 30.1218 29.5427 27.6884C29.4515 25.255 27.6272 23.3597 25.4761 23.4629V23.4632Z" fill="#B81E25"/>
  <defs>
    <linearGradient id="paint0_linear_8828_59168" x1="25.6377" y1="20.0961" x2="25.6377" y2="4.51579" gradientUnits="userSpaceOnUse">
      <stop stop-color="#991724"/>
      <stop offset="0.22" stop-color="#9E1B24"/>
      <stop offset="0.5" stop-color="#AE2825"/>
      <stop offset="0.81" stop-color="#C73D28"/>
      <stop offset="1" stop-color="#DB4D2A"/>
    </linearGradient>
    <linearGradient id="paint1_linear_8828_59168" x1="25.6377" y1="51.9981" x2="25.6377" y2="9.625" gradientUnits="userSpaceOnUse">
      <stop stop-color="#DB1A32"/>
      <stop offset="1" stop-color="#ED482F"/>
    </linearGradient>
    <radialGradient id="paint2_radial_8828_59168" cx="0" cy="0" r="1" gradientUnits="userSpaceOnUse" gradientTransform="translate(25.5536 17.0238) scale(22.6545 17.4337)">
      <stop stop-color="#EAA200"/>
      <stop offset="0.43" stop-color="#FDC324"/>
      <stop offset="0.57" stop-color="#FCC82E"/>
      <stop offset="0.82" stop-color="#FCD54B"/>
      <stop offset="1" stop-color="#FCE163"/>
    </radialGradient>
    <linearGradient id="paint3_linear_8828_59168" x1="3.01448" y1="3.07148" x2="7.82999" y2="4.32523" gradientUnits="userSpaceOnUse">
      <stop stop-color="#FFC629"/>
      <stop offset="0.08" stop-color="#EAA200"/>
      <stop offset="0.09" stop-color="#EBA80C"/>
      <stop offset="0.11" stop-color="#F0BB2E"/>
      <stop offset="0.14" stop-color="#F4CA4A"/>
      <stop offset="0.16" stop-color="#F8D660"/>
      <stop offset="0.19" stop-color="#FADE70"/>
      <stop offset="0.23" stop-color="#FBE379"/>
      <stop offset="0.27" stop-color="#FCE57C"/>
      <stop offset="0.48" stop-color="#FDD450"/>
      <stop offset="0.64" stop-color="#FEC933"/>
      <stop offset="0.74" stop-color="#FFC629"/>
      <stop offset="1" stop-color="#EAA200"/>
    </linearGradient>
    <linearGradient id="paint4_linear_8828_59168" x1="3.01896" y1="3.07876" x2="7.82694" y2="4.33057" gradientUnits="userSpaceOnUse">
      <stop stop-color="#FFC629"/>
      <stop offset="0.08" stop-color="#EAA200"/>
      <stop offset="0.09" stop-color="#EBA80C"/>
      <stop offset="0.11" stop-color="#F0BB2E"/>
      <stop offset="0.14" stop-color="#F4CA4A"/>
      <stop offset="0.16" stop-color="#F8D660"/>
      <stop offset="0.19" stop-color="#FADE70"/>
      <stop offset="0.23" stop-color="#FBE379"/>
      <stop offset="0.27" stop-color="#FCE57C"/>
      <stop offset="0.48" stop-color="#FDD450"/>
      <stop offset="0.64" stop-color="#FEC933"/>
      <stop offset="0.74" stop-color="#FFC629"/>
      <stop offset="1" stop-color="#EAA200"/>
    </linearGradient>
    <linearGradient id="paint5_linear_8828_59168" x1="3.02465" y1="3.07037" x2="7.82519" y2="4.32025" gradientUnits="userSpaceOnUse">
      <stop stop-color="#FFC629"/>
      <stop offset="0.08" stop-color="#EAA200"/>
      <stop offset="0.09" stop-color="#EBA80C"/>
      <stop offset="0.11" stop-color="#F0BB2E"/>
      <stop offset="0.14" stop-color="#F4CA4A"/>
      <stop offset="0.16" stop-color="#F8D660"/>
      <stop offset="0.19" stop-color="#FADE70"/>
      <stop offset="0.23" stop-color="#FBE379"/>
      <stop offset="0.27" stop-color="#FCE57C"/>
      <stop offset="0.48" stop-color="#FDD450"/>
      <stop offset="0.64" stop-color="#FEC933"/>
      <stop offset="0.74" stop-color="#FFC629"/>
      <stop offset="1" stop-color="#EAA200"/>
    </linearGradient>
    <linearGradient id="paint6_linear_8828_59168" x1="3.02904" y1="3.06977" x2="7.82215" y2="4.31773" gradientUnits="userSpaceOnUse">
      <stop stop-color="#FFC629"/>
      <stop offset="0.08" stop-color="#EAA200"/>
      <stop offset="0.09" stop-color="#EBA80C"/>
      <stop offset="0.11" stop-color="#F0BB2E"/>
      <stop offset="0.14" stop-color="#F4CA4A"/>
      <stop offset="0.16" stop-color="#F8D660"/>
      <stop offset="0.19" stop-color="#FADE70"/>
      <stop offset="0.23" stop-color="#FBE379"/>
      <stop offset="0.27" stop-color="#FCE57C"/>
      <stop offset="0.48" stop-color="#FDD450"/>
      <stop offset="0.64" stop-color="#FEC933"/>
      <stop offset="0.74" stop-color="#FFC629"/>
      <stop offset="1" stop-color="#EAA200"/>
    </linearGradient>
    <linearGradient id="paint7_linear_8828_59168" x1="3.03467" y1="3.07663" x2="7.82038" y2="4.32266" gradientUnits="userSpaceOnUse">
      <stop stop-color="#FFC629"/>
      <stop offset="0.08" stop-color="#EAA200"/>
      <stop offset="0.09" stop-color="#EBA80C"/>
      <stop offset="0.11" stop-color="#F0BB2E"/>
      <stop offset="0.14" stop-color="#F4CA4A"/>
      <stop offset="0.16" stop-color="#F8D660"/>
      <stop offset="0.19" stop-color="#FADE70"/>
      <stop offset="0.23" stop-color="#FBE379"/>
      <stop offset="0.27" stop-color="#FCE57C"/>
      <stop offset="0.48" stop-color="#FDD450"/>
      <stop offset="0.64" stop-color="#FEC933"/>
      <stop offset="0.74" stop-color="#FFC629"/>
      <stop offset="1" stop-color="#EAA200"/>
    </linearGradient>
    <linearGradient id="paint8_linear_8828_59168" x1="3.03968" y1="3.06814" x2="7.81808" y2="4.31227" gradientUnits="userSpaceOnUse">
      <stop stop-color="#FFC629"/>
      <stop offset="0.08" stop-color="#EAA200"/>
      <stop offset="0.09" stop-color="#EBA80C"/>
      <stop offset="0.11" stop-color="#F0BB2E"/>
      <stop offset="0.14" stop-color="#F4CA4A"/>
      <stop offset="0.16" stop-color="#F8D660"/>
      <stop offset="0.19" stop-color="#FADE70"/>
      <stop offset="0.23" stop-color="#FBE379"/>
      <stop offset="0.27" stop-color="#FCE57C"/>
      <stop offset="0.48" stop-color="#FDD450"/>
      <stop offset="0.64" stop-color="#FEC933"/>
      <stop offset="0.74" stop-color="#FFC629"/>
      <stop offset="1" stop-color="#EAA200"/>
    </linearGradient>
    <linearGradient id="paint9_linear_8828_59168" x1="3.04396" y1="3.06744" x2="7.81506" y2="4.30966" gradientUnits="userSpaceOnUse">
      <stop stop-color="#FFC629"/>
      <stop offset="0.08" stop-color="#EAA200"/>
      <stop offset="0.09" stop-color="#EBA80C"/>
      <stop offset="0.11" stop-color="#F0BB2E"/>
      <stop offset="0.14" stop-color="#F4CA4A"/>
      <stop offset="0.16" stop-color="#F8D660"/>
      <stop offset="0.19" stop-color="#FADE70"/>
      <stop offset="0.23" stop-color="#FBE379"/>
      <stop offset="0.27" stop-color="#FCE57C"/>
      <stop offset="0.48" stop-color="#FDD450"/>
      <stop offset="0.64" stop-color="#FEC933"/>
      <stop offset="0.74" stop-color="#FFC629"/>
      <stop offset="1" stop-color="#EAA200"/>
    </linearGradient>
    <linearGradient id="paint10_linear_8828_59168" x1="3.04846" y1="3.07415" x2="7.81235" y2="4.31447" gradientUnits="userSpaceOnUse">
      <stop stop-color="#FFC629"/>
      <stop offset="0.08" stop-color="#EAA200"/>
      <stop offset="0.09" stop-color="#EBA80C"/>
      <stop offset="0.11" stop-color="#F0BB2E"/>
      <stop offset="0.14" stop-color="#F4CA4A"/>
      <stop offset="0.16" stop-color="#F8D660"/>
      <stop offset="0.19" stop-color="#FADE70"/>
      <stop offset="0.23" stop-color="#FBE379"/>
      <stop offset="0.27" stop-color="#FCE57C"/>
      <stop offset="0.48" stop-color="#FDD450"/>
      <stop offset="0.64" stop-color="#FEC933"/>
      <stop offset="0.74" stop-color="#FFC629"/>
      <stop offset="1" stop-color="#EAA200"/>
    </linearGradient>
    <linearGradient id="paint11_linear_8828_59168" x1="3.05358" y1="3.06552" x2="7.81036" y2="4.30399" gradientUnits="userSpaceOnUse">
      <stop stop-color="#FFC629"/>
      <stop offset="0.08" stop-color="#EAA200"/>
      <stop offset="0.09" stop-color="#EBA80C"/>
      <stop offset="0.11" stop-color="#F0BB2E"/>
      <stop offset="0.14" stop-color="#F4CA4A"/>
      <stop offset="0.16" stop-color="#F8D660"/>
      <stop offset="0.19" stop-color="#FADE70"/>
      <stop offset="0.23" stop-color="#FBE379"/>
      <stop offset="0.27" stop-color="#FCE57C"/>
      <stop offset="0.48" stop-color="#FDD450"/>
      <stop offset="0.64" stop-color="#FEC933"/>
      <stop offset="0.74" stop-color="#FFC629"/>
      <stop offset="1" stop-color="#EAA200"/>
    </linearGradient>
    <linearGradient id="paint12_linear_8828_59168" x1="3.05866" y1="3.07246" x2="7.80836" y2="4.30907" gradientUnits="userSpaceOnUse">
      <stop stop-color="#FFC629"/>
      <stop offset="0.08" stop-color="#EAA200"/>
      <stop offset="0.09" stop-color="#EBA80C"/>
      <stop offset="0.11" stop-color="#F0BB2E"/>
      <stop offset="0.14" stop-color="#F4CA4A"/>
      <stop offset="0.16" stop-color="#F8D660"/>
      <stop offset="0.19" stop-color="#FADE70"/>
      <stop offset="0.23" stop-color="#FBE379"/>
      <stop offset="0.27" stop-color="#FCE57C"/>
      <stop offset="0.48" stop-color="#FDD450"/>
      <stop offset="0.64" stop-color="#FEC933"/>
      <stop offset="0.74" stop-color="#FFC629"/>
      <stop offset="1" stop-color="#EAA200"/>
    </linearGradient>
    <linearGradient id="paint13_linear_8828_59168" x1="3.06296" y1="3.0715" x2="7.80567" y2="4.30632" gradientUnits="userSpaceOnUse">
      <stop stop-color="#FFC629"/>
      <stop offset="0.08" stop-color="#EAA200"/>
      <stop offset="0.09" stop-color="#EBA80C"/>
      <stop offset="0.11" stop-color="#F0BB2E"/>
      <stop offset="0.14" stop-color="#F4CA4A"/>
      <stop offset="0.16" stop-color="#F8D660"/>
      <stop offset="0.19" stop-color="#FADE70"/>
      <stop offset="0.23" stop-color="#FBE379"/>
      <stop offset="0.27" stop-color="#FCE57C"/>
      <stop offset="0.48" stop-color="#FDD450"/>
      <stop offset="0.64" stop-color="#FEC933"/>
      <stop offset="0.74" stop-color="#FFC629"/>
      <stop offset="1" stop-color="#EAA200"/>
    </linearGradient>
    <linearGradient id="paint14_linear_8828_59168" x1="3.06719" y1="3.06234" x2="7.80301" y2="4.29537" gradientUnits="userSpaceOnUse">
      <stop stop-color="#FFC629"/>
      <stop offset="0.08" stop-color="#EAA200"/>
      <stop offset="0.09" stop-color="#EBA80C"/>
      <stop offset="0.11" stop-color="#F0BB2E"/>
      <stop offset="0.14" stop-color="#F4CA4A"/>
      <stop offset="0.16" stop-color="#F8D660"/>
      <stop offset="0.19" stop-color="#FADE70"/>
      <stop offset="0.23" stop-color="#FBE379"/>
      <stop offset="0.27" stop-color="#FCE57C"/>
      <stop offset="0.48" stop-color="#FDD450"/>
      <stop offset="0.64" stop-color="#FEC933"/>
      <stop offset="0.74" stop-color="#FFC629"/>
      <stop offset="1" stop-color="#EAA200"/>
    </linearGradient>
    <linearGradient id="paint15_linear_8828_59168" x1="3.07198" y1="3.06904" x2="7.80108" y2="4.3003" gradientUnits="userSpaceOnUse">
      <stop stop-color="#FFC629"/>
      <stop offset="0.08" stop-color="#EAA200"/>
      <stop offset="0.09" stop-color="#EBA80C"/>
      <stop offset="0.11" stop-color="#F0BB2E"/>
      <stop offset="0.14" stop-color="#F4CA4A"/>
      <stop offset="0.16" stop-color="#F8D660"/>
      <stop offset="0.19" stop-color="#FADE70"/>
      <stop offset="0.23" stop-color="#FBE379"/>
      <stop offset="0.27" stop-color="#FCE57C"/>
      <stop offset="0.48" stop-color="#FDD450"/>
      <stop offset="0.64" stop-color="#FEC933"/>
      <stop offset="0.74" stop-color="#FFC629"/>
      <stop offset="1" stop-color="#EAA200"/>
    </linearGradient>
    <linearGradient id="paint16_linear_8828_59168" x1="3.07667" y1="3.0675" x2="7.79913" y2="4.29703" gradientUnits="userSpaceOnUse">
      <stop stop-color="#FFC629"/>
      <stop offset="0.08" stop-color="#EAA200"/>
      <stop offset="0.09" stop-color="#EBA80C"/>
      <stop offset="0.11" stop-color="#F0BB2E"/>
      <stop offset="0.14" stop-color="#F4CA4A"/>
      <stop offset="0.16" stop-color="#F8D660"/>
      <stop offset="0.19" stop-color="#FADE70"/>
      <stop offset="0.23" stop-color="#FBE379"/>
      <stop offset="0.27" stop-color="#FCE57C"/>
      <stop offset="0.48" stop-color="#FDD450"/>
      <stop offset="0.64" stop-color="#FEC933"/>
      <stop offset="0.74" stop-color="#FFC629"/>
      <stop offset="1" stop-color="#EAA200"/>
    </linearGradient>
    <linearGradient id="paint17_linear_8828_59168" x1="3.07957" y1="3.06616" x2="7.79556" y2="4.29403" gradientUnits="userSpaceOnUse">
      <stop stop-color="#FFC629"/>
      <stop offset="0.08" stop-color="#EAA200"/>
      <stop offset="0.09" stop-color="#EBA80C"/>
      <stop offset="0.11" stop-color="#F0BB2E"/>
      <stop offset="0.14" stop-color="#F4CA4A"/>
      <stop offset="0.16" stop-color="#F8D660"/>
      <stop offset="0.19" stop-color="#FADE70"/>
      <stop offset="0.23" stop-color="#FBE379"/>
      <stop offset="0.27" stop-color="#FCE57C"/>
      <stop offset="0.48" stop-color="#FDD450"/>
      <stop offset="0.64" stop-color="#FEC933"/>
      <stop offset="0.74" stop-color="#FFC629"/>
      <stop offset="1" stop-color="#EAA200"/>
    </linearGradient>
    <linearGradient id="paint18_linear_8828_59168" x1="3.08493" y1="3.07249" x2="7.79464" y2="4.29869" gradientUnits="userSpaceOnUse">
      <stop stop-color="#FFC629"/>
      <stop offset="0.08" stop-color="#EAA200"/>
      <stop offset="0.09" stop-color="#EBA80C"/>
      <stop offset="0.11" stop-color="#F0BB2E"/>
      <stop offset="0.14" stop-color="#F4CA4A"/>
      <stop offset="0.16" stop-color="#F8D660"/>
      <stop offset="0.19" stop-color="#FADE70"/>
      <stop offset="0.23" stop-color="#FBE379"/>
      <stop offset="0.27" stop-color="#FCE57C"/>
      <stop offset="0.48" stop-color="#FDD450"/>
      <stop offset="0.64" stop-color="#FEC933"/>
      <stop offset="0.74" stop-color="#FFC629"/>
      <stop offset="1" stop-color="#EAA200"/>
    </linearGradient>
    <linearGradient id="paint19_linear_8828_59168" x1="3.08817" y1="3.06305" x2="7.79183" y2="4.2877" gradientUnits="userSpaceOnUse">
      <stop stop-color="#FFC629"/>
      <stop offset="0.08" stop-color="#EAA200"/>
      <stop offset="0.09" stop-color="#EBA80C"/>
      <stop offset="0.11" stop-color="#F0BB2E"/>
      <stop offset="0.14" stop-color="#F4CA4A"/>
      <stop offset="0.16" stop-color="#F8D660"/>
      <stop offset="0.19" stop-color="#FADE70"/>
      <stop offset="0.23" stop-color="#FBE379"/>
      <stop offset="0.27" stop-color="#FCE57C"/>
      <stop offset="0.48" stop-color="#FDD450"/>
      <stop offset="0.64" stop-color="#FEC933"/>
      <stop offset="0.74" stop-color="#FFC629"/>
      <stop offset="1" stop-color="#EAA200"/>
    </linearGradient>
    <linearGradient id="paint20_linear_8828_59168" x1="3.09146" y1="3.0612" x2="7.78931" y2="4.28433" gradientUnits="userSpaceOnUse">
      <stop stop-color="#FFC629"/>
      <stop offset="0.08" stop-color="#EAA200"/>
      <stop offset="0.09" stop-color="#EBA80C"/>
      <stop offset="0.11" stop-color="#F0BB2E"/>
      <stop offset="0.14" stop-color="#F4CA4A"/>
      <stop offset="0.16" stop-color="#F8D660"/>
      <stop offset="0.19" stop-color="#FADE70"/>
      <stop offset="0.23" stop-color="#FBE379"/>
      <stop offset="0.27" stop-color="#FCE57C"/>
      <stop offset="0.48" stop-color="#FDD450"/>
      <stop offset="0.64" stop-color="#FEC933"/>
      <stop offset="0.74" stop-color="#FFC629"/>
      <stop offset="1" stop-color="#EAA200"/>
    </linearGradient>
    <linearGradient id="paint21_linear_8828_59168" x1="3.09452" y1="3.06698" x2="7.78686" y2="4.28868" gradientUnits="userSpaceOnUse">
      <stop stop-color="#FFC629"/>
      <stop offset="0.08" stop-color="#EAA200"/>
      <stop offset="0.09" stop-color="#EBA80C"/>
      <stop offset="0.11" stop-color="#F0BB2E"/>
      <stop offset="0.14" stop-color="#F4CA4A"/>
      <stop offset="0.16" stop-color="#F8D660"/>
      <stop offset="0.19" stop-color="#FADE70"/>
      <stop offset="0.23" stop-color="#FBE379"/>
      <stop offset="0.27" stop-color="#FCE57C"/>
      <stop offset="0.48" stop-color="#FDD450"/>
      <stop offset="0.64" stop-color="#FEC933"/>
      <stop offset="0.74" stop-color="#FFC629"/>
      <stop offset="1" stop-color="#EAA200"/>
    </linearGradient>
    <linearGradient id="paint22_linear_8828_59168" x1="3.09762" y1="3.06399" x2="7.78483" y2="4.28434" gradientUnits="userSpaceOnUse">
      <stop stop-color="#FFC629"/>
      <stop offset="0.08" stop-color="#EAA200"/>
      <stop offset="0.09" stop-color="#EBA80C"/>
      <stop offset="0.11" stop-color="#F0BB2E"/>
      <stop offset="0.14" stop-color="#F4CA4A"/>
      <stop offset="0.16" stop-color="#F8D660"/>
      <stop offset="0.19" stop-color="#FADE70"/>
      <stop offset="0.23" stop-color="#FBE379"/>
      <stop offset="0.27" stop-color="#FCE57C"/>
      <stop offset="0.48" stop-color="#FDD450"/>
      <stop offset="0.64" stop-color="#FEC933"/>
      <stop offset="0.74" stop-color="#FFC629"/>
      <stop offset="1" stop-color="#EAA200"/>
    </linearGradient>
    <linearGradient id="paint23_linear_8828_59168" x1="3.09996" y1="3.05351" x2="7.7825" y2="4.27267" gradientUnits="userSpaceOnUse">
      <stop stop-color="#FFC629"/>
      <stop offset="0.08" stop-color="#EAA200"/>
      <stop offset="0.09" stop-color="#EBA80C"/>
      <stop offset="0.11" stop-color="#F0BB2E"/>
      <stop offset="0.14" stop-color="#F4CA4A"/>
      <stop offset="0.16" stop-color="#F8D660"/>
      <stop offset="0.19" stop-color="#FADE70"/>
      <stop offset="0.23" stop-color="#FBE379"/>
      <stop offset="0.27" stop-color="#FCE57C"/>
      <stop offset="0.48" stop-color="#FDD450"/>
      <stop offset="0.64" stop-color="#FEC933"/>
      <stop offset="0.74" stop-color="#FFC629"/>
      <stop offset="1" stop-color="#EAA200"/>
    </linearGradient>
    <linearGradient id="paint24_linear_8828_59168" x1="3.10182" y1="3.05826" x2="7.78022" y2="4.27632" gradientUnits="userSpaceOnUse">
      <stop stop-color="#FFC629"/>
      <stop offset="0.08" stop-color="#EAA200"/>
      <stop offset="0.09" stop-color="#EBA80C"/>
      <stop offset="0.11" stop-color="#F0BB2E"/>
      <stop offset="0.14" stop-color="#F4CA4A"/>
      <stop offset="0.16" stop-color="#F8D660"/>
      <stop offset="0.19" stop-color="#FADE70"/>
      <stop offset="0.23" stop-color="#FBE379"/>
      <stop offset="0.27" stop-color="#FCE57C"/>
      <stop offset="0.48" stop-color="#FDD450"/>
      <stop offset="0.64" stop-color="#FEC933"/>
      <stop offset="0.74" stop-color="#FFC629"/>
      <stop offset="1" stop-color="#EAA200"/>
    </linearGradient>
    <linearGradient id="paint25_linear_8828_59168" x1="3.10448" y1="3.05468" x2="7.77943" y2="4.27185" gradientUnits="userSpaceOnUse">
      <stop stop-color="#FFC629"/>
      <stop offset="0.08" stop-color="#EAA200"/>
      <stop offset="0.09" stop-color="#EBA80C"/>
      <stop offset="0.11" stop-color="#F0BB2E"/>
      <stop offset="0.14" stop-color="#F4CA4A"/>
      <stop offset="0.16" stop-color="#F8D660"/>
      <stop offset="0.19" stop-color="#FADE70"/>
      <stop offset="0.23" stop-color="#FBE379"/>
      <stop offset="0.27" stop-color="#FCE57C"/>
      <stop offset="0.48" stop-color="#FDD450"/>
      <stop offset="0.64" stop-color="#FEC933"/>
      <stop offset="0.74" stop-color="#FFC629"/>
      <stop offset="1" stop-color="#EAA200"/>
    </linearGradient>
    <linearGradient id="paint26_linear_8828_59168" x1="3.10402" y1="3.04266" x2="7.77637" y2="4.25914" gradientUnits="userSpaceOnUse">
      <stop stop-color="#FFC629"/>
      <stop offset="0.08" stop-color="#EAA200"/>
      <stop offset="0.09" stop-color="#EBA80C"/>
      <stop offset="0.11" stop-color="#F0BB2E"/>
      <stop offset="0.14" stop-color="#F4CA4A"/>
      <stop offset="0.16" stop-color="#F8D660"/>
      <stop offset="0.19" stop-color="#FADE70"/>
      <stop offset="0.23" stop-color="#FBE379"/>
      <stop offset="0.27" stop-color="#FCE57C"/>
      <stop offset="0.48" stop-color="#FDD450"/>
      <stop offset="0.64" stop-color="#FEC933"/>
      <stop offset="0.74" stop-color="#FFC629"/>
      <stop offset="1" stop-color="#EAA200"/>
    </linearGradient>
    <linearGradient id="paint27_linear_8828_59168" x1="3.10374" y1="3.04556" x2="7.77445" y2="4.26164" gradientUnits="userSpaceOnUse">
      <stop stop-color="#FFC629"/>
      <stop offset="0.08" stop-color="#EAA200"/>
      <stop offset="0.09" stop-color="#EBA80C"/>
      <stop offset="0.11" stop-color="#F0BB2E"/>
      <stop offset="0.14" stop-color="#F4CA4A"/>
      <stop offset="0.16" stop-color="#F8D660"/>
      <stop offset="0.19" stop-color="#FADE70"/>
      <stop offset="0.23" stop-color="#FBE379"/>
      <stop offset="0.27" stop-color="#FCE57C"/>
      <stop offset="0.48" stop-color="#FDD450"/>
      <stop offset="0.64" stop-color="#FEC933"/>
      <stop offset="0.74" stop-color="#FFC629"/>
      <stop offset="1" stop-color="#EAA200"/>
    </linearGradient>
    <linearGradient id="paint28_linear_8828_59168" x1="3.10321" y1="3.03988" x2="7.77335" y2="4.25577" gradientUnits="userSpaceOnUse">
      <stop stop-color="#FFC629"/>
      <stop offset="0.08" stop-color="#EAA200"/>
      <stop offset="0.09" stop-color="#EBA80C"/>
      <stop offset="0.11" stop-color="#F0BB2E"/>
      <stop offset="0.14" stop-color="#F4CA4A"/>
      <stop offset="0.16" stop-color="#F8D660"/>
      <stop offset="0.19" stop-color="#FADE70"/>
      <stop offset="0.23" stop-color="#FBE379"/>
      <stop offset="0.27" stop-color="#FCE57C"/>
      <stop offset="0.48" stop-color="#FDD450"/>
      <stop offset="0.64" stop-color="#FEC933"/>
      <stop offset="0.74" stop-color="#FFC629"/>
      <stop offset="1" stop-color="#EAA200"/>
    </linearGradient>
    <linearGradient id="paint29_linear_8828_59168" x1="3.10223" y1="3.0253" x2="7.77234" y2="4.24122" gradientUnits="userSpaceOnUse">
      <stop stop-color="#FFC629"/>
      <stop offset="0.08" stop-color="#EAA200"/>
      <stop offset="0.09" stop-color="#EBA80C"/>
      <stop offset="0.11" stop-color="#F0BB2E"/>
      <stop offset="0.14" stop-color="#F4CA4A"/>
      <stop offset="0.16" stop-color="#F8D660"/>
      <stop offset="0.19" stop-color="#FADE70"/>
      <stop offset="0.23" stop-color="#FBE379"/>
      <stop offset="0.27" stop-color="#FCE57C"/>
      <stop offset="0.48" stop-color="#FDD450"/>
      <stop offset="0.64" stop-color="#FEC933"/>
      <stop offset="0.74" stop-color="#FFC629"/>
      <stop offset="1" stop-color="#EAA200"/>
    </linearGradient>
    <linearGradient id="paint30_linear_8828_59168" x1="3.10152" y1="3.02702" x2="7.77163" y2="4.24293" gradientUnits="userSpaceOnUse">
      <stop stop-color="#FFC629"/>
      <stop offset="0.08" stop-color="#EAA200"/>
      <stop offset="0.09" stop-color="#EBA80C"/>
      <stop offset="0.11" stop-color="#F0BB2E"/>
      <stop offset="0.14" stop-color="#F4CA4A"/>
      <stop offset="0.16" stop-color="#F8D660"/>
      <stop offset="0.19" stop-color="#FADE70"/>
      <stop offset="0.23" stop-color="#FBE379"/>
      <stop offset="0.27" stop-color="#FCE57C"/>
      <stop offset="0.48" stop-color="#FDD450"/>
      <stop offset="0.64" stop-color="#FEC933"/>
      <stop offset="0.74" stop-color="#FFC629"/>
      <stop offset="1" stop-color="#EAA200"/>
    </linearGradient>
    <linearGradient id="paint31_linear_8828_59168" x1="3.09982" y1="3.02089" x2="7.76992" y2="4.2368" gradientUnits="userSpaceOnUse">
      <stop stop-color="#FFC629"/>
      <stop offset="0.08" stop-color="#EAA200"/>
      <stop offset="0.09" stop-color="#EBA80C"/>
      <stop offset="0.11" stop-color="#F0BB2E"/>
      <stop offset="0.14" stop-color="#F4CA4A"/>
      <stop offset="0.16" stop-color="#F8D660"/>
      <stop offset="0.19" stop-color="#FADE70"/>
      <stop offset="0.23" stop-color="#FBE379"/>
      <stop offset="0.27" stop-color="#FCE57C"/>
      <stop offset="0.48" stop-color="#FDD450"/>
      <stop offset="0.64" stop-color="#FEC933"/>
      <stop offset="0.74" stop-color="#FFC629"/>
      <stop offset="1" stop-color="#EAA200"/>
    </linearGradient>
    <linearGradient id="paint32_linear_8828_59168" x1="3.09851" y1="3.01476" x2="7.76862" y2="4.23064" gradientUnits="userSpaceOnUse">
      <stop stop-color="#FFC629"/>
      <stop offset="0.08" stop-color="#EAA200"/>
      <stop offset="0.09" stop-color="#EBA80C"/>
      <stop offset="0.11" stop-color="#F0BB2E"/>
      <stop offset="0.14" stop-color="#F4CA4A"/>
      <stop offset="0.16" stop-color="#F8D660"/>
      <stop offset="0.19" stop-color="#FADE70"/>
      <stop offset="0.23" stop-color="#FBE379"/>
      <stop offset="0.27" stop-color="#FCE57C"/>
      <stop offset="0.48" stop-color="#FDD450"/>
      <stop offset="0.64" stop-color="#FEC933"/>
      <stop offset="0.74" stop-color="#FFC629"/>
      <stop offset="1" stop-color="#EAA200"/>
    </linearGradient>
    <linearGradient id="paint33_linear_8828_59168" x1="3.09682" y1="3.00862" x2="7.76692" y2="4.22453" gradientUnits="userSpaceOnUse">
      <stop stop-color="#FFC629"/>
      <stop offset="0.08" stop-color="#EAA200"/>
      <stop offset="0.09" stop-color="#EBA80C"/>
      <stop offset="0.11" stop-color="#F0BB2E"/>
      <stop offset="0.14" stop-color="#F4CA4A"/>
      <stop offset="0.16" stop-color="#F8D660"/>
      <stop offset="0.19" stop-color="#FADE70"/>
      <stop offset="0.23" stop-color="#FBE379"/>
      <stop offset="0.27" stop-color="#FCE57C"/>
      <stop offset="0.48" stop-color="#FDD450"/>
      <stop offset="0.64" stop-color="#FEC933"/>
      <stop offset="0.74" stop-color="#FFC629"/>
      <stop offset="1" stop-color="#EAA200"/>
    </linearGradient>
    <linearGradient id="paint34_linear_8828_59168" x1="3.09513" y1="3.00247" x2="7.76523" y2="4.21839" gradientUnits="userSpaceOnUse">
      <stop stop-color="#FFC629"/>
      <stop offset="0.08" stop-color="#EAA200"/>
      <stop offset="0.09" stop-color="#EBA80C"/>
      <stop offset="0.11" stop-color="#F0BB2E"/>
      <stop offset="0.14" stop-color="#F4CA4A"/>
      <stop offset="0.16" stop-color="#F8D660"/>
      <stop offset="0.19" stop-color="#FADE70"/>
      <stop offset="0.23" stop-color="#FBE379"/>
      <stop offset="0.27" stop-color="#FCE57C"/>
      <stop offset="0.48" stop-color="#FDD450"/>
      <stop offset="0.64" stop-color="#FEC933"/>
      <stop offset="0.74" stop-color="#FFC629"/>
      <stop offset="1" stop-color="#EAA200"/>
    </linearGradient>
    <linearGradient id="paint35_linear_8828_59168" x1="3.09313" y1="3.00384" x2="7.76324" y2="4.21971" gradientUnits="userSpaceOnUse">
      <stop stop-color="#FFC629"/>
      <stop offset="0.08" stop-color="#EAA200"/>
      <stop offset="0.09" stop-color="#EBA80C"/>
      <stop offset="0.11" stop-color="#F0BB2E"/>
      <stop offset="0.14" stop-color="#F4CA4A"/>
      <stop offset="0.16" stop-color="#F8D660"/>
      <stop offset="0.19" stop-color="#FADE70"/>
      <stop offset="0.23" stop-color="#FBE379"/>
      <stop offset="0.27" stop-color="#FCE57C"/>
      <stop offset="0.48" stop-color="#FDD450"/>
      <stop offset="0.64" stop-color="#FEC933"/>
      <stop offset="0.74" stop-color="#FFC629"/>
      <stop offset="1" stop-color="#EAA200"/>
    </linearGradient>
    <linearGradient id="paint36_linear_8828_59168" x1="3.09214" y1="2.99736" x2="7.76225" y2="4.21327" gradientUnits="userSpaceOnUse">
      <stop stop-color="#FFC629"/>
      <stop offset="0.08" stop-color="#EAA200"/>
      <stop offset="0.09" stop-color="#EBA80C"/>
      <stop offset="0.11" stop-color="#F0BB2E"/>
      <stop offset="0.14" stop-color="#F4CA4A"/>
      <stop offset="0.16" stop-color="#F8D660"/>
      <stop offset="0.19" stop-color="#FADE70"/>
      <stop offset="0.23" stop-color="#FBE379"/>
      <stop offset="0.27" stop-color="#FCE57C"/>
      <stop offset="0.48" stop-color="#FDD450"/>
      <stop offset="0.64" stop-color="#FEC933"/>
      <stop offset="0.74" stop-color="#FFC629"/>
      <stop offset="1" stop-color="#EAA200"/>
    </linearGradient>
    <linearGradient id="paint37_linear_8828_59168" x1="3.09043" y1="2.98337" x2="7.76056" y2="4.19931" gradientUnits="userSpaceOnUse">
      <stop stop-color="#FFC629"/>
      <stop offset="0.08" stop-color="#EAA200"/>
      <stop offset="0.09" stop-color="#EBA80C"/>
      <stop offset="0.11" stop-color="#F0BB2E"/>
      <stop offset="0.14" stop-color="#F4CA4A"/>
      <stop offset="0.16" stop-color="#F8D660"/>
      <stop offset="0.19" stop-color="#FADE70"/>
      <stop offset="0.23" stop-color="#FBE379"/>
      <stop offset="0.27" stop-color="#FCE57C"/>
      <stop offset="0.48" stop-color="#FDD450"/>
      <stop offset="0.64" stop-color="#FEC933"/>
      <stop offset="0.74" stop-color="#FFC629"/>
      <stop offset="1" stop-color="#EAA200"/>
    </linearGradient>
    <linearGradient id="paint38_linear_8828_59168" x1="3.08886" y1="2.98504" x2="7.75896" y2="4.20095" gradientUnits="userSpaceOnUse">
      <stop stop-color="#FFC629"/>
      <stop offset="0.08" stop-color="#EAA200"/>
      <stop offset="0.09" stop-color="#EBA80C"/>
      <stop offset="0.11" stop-color="#F0BB2E"/>
      <stop offset="0.14" stop-color="#F4CA4A"/>
      <stop offset="0.16" stop-color="#F8D660"/>
      <stop offset="0.19" stop-color="#FADE70"/>
      <stop offset="0.23" stop-color="#FBE379"/>
      <stop offset="0.27" stop-color="#FCE57C"/>
      <stop offset="0.48" stop-color="#FDD450"/>
      <stop offset="0.64" stop-color="#FEC933"/>
      <stop offset="0.74" stop-color="#FFC629"/>
      <stop offset="1" stop-color="#EAA200"/>
    </linearGradient>
    <linearGradient id="paint39_linear_8828_59168" x1="3.08787" y1="2.97888" x2="7.75797" y2="4.19479" gradientUnits="userSpaceOnUse">
      <stop stop-color="#FFC629"/>
      <stop offset="0.08" stop-color="#EAA200"/>
      <stop offset="0.09" stop-color="#EBA80C"/>
      <stop offset="0.11" stop-color="#F0BB2E"/>
      <stop offset="0.14" stop-color="#F4CA4A"/>
      <stop offset="0.16" stop-color="#F8D660"/>
      <stop offset="0.19" stop-color="#FADE70"/>
      <stop offset="0.23" stop-color="#FBE379"/>
      <stop offset="0.27" stop-color="#FCE57C"/>
      <stop offset="0.48" stop-color="#FDD450"/>
      <stop offset="0.64" stop-color="#FEC933"/>
      <stop offset="0.74" stop-color="#FFC629"/>
      <stop offset="1" stop-color="#EAA200"/>
    </linearGradient>
    <linearGradient id="paint40_linear_8828_59168" x1="3.08615" y1="2.98052" x2="7.75629" y2="4.19642" gradientUnits="userSpaceOnUse">
      <stop stop-color="#FFC629"/>
      <stop offset="0.08" stop-color="#EAA200"/>
      <stop offset="0.09" stop-color="#EBA80C"/>
      <stop offset="0.11" stop-color="#F0BB2E"/>
      <stop offset="0.14" stop-color="#F4CA4A"/>
      <stop offset="0.16" stop-color="#F8D660"/>
      <stop offset="0.19" stop-color="#FADE70"/>
      <stop offset="0.23" stop-color="#FBE379"/>
      <stop offset="0.27" stop-color="#FCE57C"/>
      <stop offset="0.48" stop-color="#FDD450"/>
      <stop offset="0.64" stop-color="#FEC933"/>
      <stop offset="0.74" stop-color="#FFC629"/>
      <stop offset="1" stop-color="#EAA200"/>
    </linearGradient>
    <linearGradient id="paint41_linear_8828_59168" x1="3.08517" y1="2.96623" x2="7.75527" y2="4.18214" gradientUnits="userSpaceOnUse">
      <stop stop-color="#FFC629"/>
      <stop offset="0.08" stop-color="#EAA200"/>
      <stop offset="0.09" stop-color="#EBA80C"/>
      <stop offset="0.11" stop-color="#F0BB2E"/>
      <stop offset="0.14" stop-color="#F4CA4A"/>
      <stop offset="0.16" stop-color="#F8D660"/>
      <stop offset="0.19" stop-color="#FADE70"/>
      <stop offset="0.23" stop-color="#FBE379"/>
      <stop offset="0.27" stop-color="#FCE57C"/>
      <stop offset="0.48" stop-color="#FDD450"/>
      <stop offset="0.64" stop-color="#FEC933"/>
      <stop offset="0.74" stop-color="#FFC629"/>
      <stop offset="1" stop-color="#EAA200"/>
    </linearGradient>
    <linearGradient id="paint42_linear_8828_59168" x1="3.08318" y1="2.96004" x2="7.75332" y2="4.17594" gradientUnits="userSpaceOnUse">
      <stop stop-color="#FFC629"/>
      <stop offset="0.08" stop-color="#EAA200"/>
      <stop offset="0.09" stop-color="#EBA80C"/>
      <stop offset="0.11" stop-color="#F0BB2E"/>
      <stop offset="0.14" stop-color="#F4CA4A"/>
      <stop offset="0.16" stop-color="#F8D660"/>
      <stop offset="0.19" stop-color="#FADE70"/>
      <stop offset="0.23" stop-color="#FBE379"/>
      <stop offset="0.27" stop-color="#FCE57C"/>
      <stop offset="0.48" stop-color="#FDD450"/>
      <stop offset="0.64" stop-color="#FEC933"/>
      <stop offset="0.74" stop-color="#FFC629"/>
      <stop offset="1" stop-color="#EAA200"/>
    </linearGradient>
    <linearGradient id="paint43_linear_8828_59168" x1="3.08249" y1="2.96168" x2="7.7526" y2="4.1776" gradientUnits="userSpaceOnUse">
      <stop stop-color="#FFC629"/>
      <stop offset="0.08" stop-color="#EAA200"/>
      <stop offset="0.09" stop-color="#EBA80C"/>
      <stop offset="0.11" stop-color="#F0BB2E"/>
      <stop offset="0.14" stop-color="#F4CA4A"/>
      <stop offset="0.16" stop-color="#F8D660"/>
      <stop offset="0.19" stop-color="#FADE70"/>
      <stop offset="0.23" stop-color="#FBE379"/>
      <stop offset="0.27" stop-color="#FCE57C"/>
      <stop offset="0.48" stop-color="#FDD450"/>
      <stop offset="0.64" stop-color="#FEC933"/>
      <stop offset="0.74" stop-color="#FFC629"/>
      <stop offset="1" stop-color="#EAA200"/>
    </linearGradient>
    <linearGradient id="paint44_linear_8828_59168" x1="3.08051" y1="2.94736" x2="7.75061" y2="4.16327" gradientUnits="userSpaceOnUse">
      <stop stop-color="#FFC629"/>
      <stop offset="0.08" stop-color="#EAA200"/>
      <stop offset="0.09" stop-color="#EBA80C"/>
      <stop offset="0.11" stop-color="#F0BB2E"/>
      <stop offset="0.14" stop-color="#F4CA4A"/>
      <stop offset="0.16" stop-color="#F8D660"/>
      <stop offset="0.19" stop-color="#FADE70"/>
      <stop offset="0.23" stop-color="#FBE379"/>
      <stop offset="0.27" stop-color="#FCE57C"/>
      <stop offset="0.48" stop-color="#FDD450"/>
      <stop offset="0.64" stop-color="#FEC933"/>
      <stop offset="0.74" stop-color="#FFC629"/>
      <stop offset="1" stop-color="#EAA200"/>
    </linearGradient>
    <linearGradient id="paint45_linear_8828_59168" x1="3.07882" y1="2.94116" x2="7.74896" y2="4.15709" gradientUnits="userSpaceOnUse">
      <stop stop-color="#FFC629"/>
      <stop offset="0.08" stop-color="#EAA200"/>
      <stop offset="0.09" stop-color="#EBA80C"/>
      <stop offset="0.11" stop-color="#F0BB2E"/>
      <stop offset="0.14" stop-color="#F4CA4A"/>
      <stop offset="0.16" stop-color="#F8D660"/>
      <stop offset="0.19" stop-color="#FADE70"/>
      <stop offset="0.23" stop-color="#FBE379"/>
      <stop offset="0.27" stop-color="#FCE57C"/>
      <stop offset="0.48" stop-color="#FDD450"/>
      <stop offset="0.64" stop-color="#FEC933"/>
      <stop offset="0.74" stop-color="#FFC629"/>
      <stop offset="1" stop-color="#EAA200"/>
    </linearGradient>
    <linearGradient id="paint46_linear_8828_59168" x1="3.07783" y1="2.94281" x2="7.74794" y2="4.15869" gradientUnits="userSpaceOnUse">
      <stop stop-color="#FFC629"/>
      <stop offset="0.08" stop-color="#EAA200"/>
      <stop offset="0.09" stop-color="#EBA80C"/>
      <stop offset="0.11" stop-color="#F0BB2E"/>
      <stop offset="0.14" stop-color="#F4CA4A"/>
      <stop offset="0.16" stop-color="#F8D660"/>
      <stop offset="0.19" stop-color="#FADE70"/>
      <stop offset="0.23" stop-color="#FBE379"/>
      <stop offset="0.27" stop-color="#FCE57C"/>
      <stop offset="0.48" stop-color="#FDD450"/>
      <stop offset="0.64" stop-color="#FEC933"/>
      <stop offset="0.74" stop-color="#FFC629"/>
      <stop offset="1" stop-color="#EAA200"/>
    </linearGradient>
    <linearGradient id="paint47_linear_8828_59168" x1="3.07586" y1="2.9288" x2="7.74597" y2="4.14468" gradientUnits="userSpaceOnUse">
      <stop stop-color="#FFC629"/>
      <stop offset="0.08" stop-color="#EAA200"/>
      <stop offset="0.09" stop-color="#EBA80C"/>
      <stop offset="0.11" stop-color="#F0BB2E"/>
      <stop offset="0.14" stop-color="#F4CA4A"/>
      <stop offset="0.16" stop-color="#F8D660"/>
      <stop offset="0.19" stop-color="#FADE70"/>
      <stop offset="0.23" stop-color="#FBE379"/>
      <stop offset="0.27" stop-color="#FCE57C"/>
      <stop offset="0.48" stop-color="#FDD450"/>
      <stop offset="0.64" stop-color="#FEC933"/>
      <stop offset="0.74" stop-color="#FFC629"/>
      <stop offset="1" stop-color="#EAA200"/>
    </linearGradient>
    <linearGradient id="paint48_linear_8828_59168" x1="3.07419" y1="2.92226" x2="7.7443" y2="4.13817" gradientUnits="userSpaceOnUse">
      <stop stop-color="#FFC629"/>
      <stop offset="0.08" stop-color="#EAA200"/>
      <stop offset="0.09" stop-color="#EBA80C"/>
      <stop offset="0.11" stop-color="#F0BB2E"/>
      <stop offset="0.14" stop-color="#F4CA4A"/>
      <stop offset="0.16" stop-color="#F8D660"/>
      <stop offset="0.19" stop-color="#FADE70"/>
      <stop offset="0.23" stop-color="#FBE379"/>
      <stop offset="0.27" stop-color="#FCE57C"/>
      <stop offset="0.48" stop-color="#FDD450"/>
      <stop offset="0.64" stop-color="#FEC933"/>
      <stop offset="0.74" stop-color="#FFC629"/>
      <stop offset="1" stop-color="#EAA200"/>
    </linearGradient>
    <linearGradient id="paint49_linear_8828_59168" x1="3.0732" y1="2.92387" x2="7.7433" y2="4.13978" gradientUnits="userSpaceOnUse">
      <stop stop-color="#FFC629"/>
      <stop offset="0.08" stop-color="#EAA200"/>
      <stop offset="0.09" stop-color="#EBA80C"/>
      <stop offset="0.11" stop-color="#F0BB2E"/>
      <stop offset="0.14" stop-color="#F4CA4A"/>
      <stop offset="0.16" stop-color="#F8D660"/>
      <stop offset="0.19" stop-color="#FADE70"/>
      <stop offset="0.23" stop-color="#FBE379"/>
      <stop offset="0.27" stop-color="#FCE57C"/>
      <stop offset="0.48" stop-color="#FDD450"/>
      <stop offset="0.64" stop-color="#FEC933"/>
      <stop offset="0.74" stop-color="#FFC629"/>
      <stop offset="1" stop-color="#EAA200"/>
    </linearGradient>
    <linearGradient id="paint50_linear_8828_59168" x1="3.0725" y1="2.91765" x2="7.74261" y2="4.13357" gradientUnits="userSpaceOnUse">
      <stop stop-color="#FFC629"/>
      <stop offset="0.08" stop-color="#EAA200"/>
      <stop offset="0.09" stop-color="#EBA80C"/>
      <stop offset="0.11" stop-color="#F0BB2E"/>
      <stop offset="0.14" stop-color="#F4CA4A"/>
      <stop offset="0.16" stop-color="#F8D660"/>
      <stop offset="0.19" stop-color="#FADE70"/>
      <stop offset="0.23" stop-color="#FBE379"/>
      <stop offset="0.27" stop-color="#FCE57C"/>
      <stop offset="0.48" stop-color="#FDD450"/>
      <stop offset="0.64" stop-color="#FEC933"/>
      <stop offset="0.74" stop-color="#FFC629"/>
      <stop offset="1" stop-color="#EAA200"/>
    </linearGradient>
    <linearGradient id="paint51_linear_8828_59168" x1="3.07051" y1="2.90329" x2="7.74065" y2="4.11919" gradientUnits="userSpaceOnUse">
      <stop stop-color="#FFC629"/>
      <stop offset="0.08" stop-color="#EAA200"/>
      <stop offset="0.09" stop-color="#EBA80C"/>
      <stop offset="0.11" stop-color="#F0BB2E"/>
      <stop offset="0.14" stop-color="#F4CA4A"/>
      <stop offset="0.16" stop-color="#F8D660"/>
      <stop offset="0.19" stop-color="#FADE70"/>
      <stop offset="0.23" stop-color="#FBE379"/>
      <stop offset="0.27" stop-color="#FCE57C"/>
      <stop offset="0.48" stop-color="#FDD450"/>
      <stop offset="0.64" stop-color="#FEC933"/>
      <stop offset="0.74" stop-color="#FFC629"/>
      <stop offset="1" stop-color="#EAA200"/>
    </linearGradient>
    <linearGradient id="paint52_linear_8828_59168" x1="3.06884" y1="2.90488" x2="7.73895" y2="4.12076" gradientUnits="userSpaceOnUse">
      <stop stop-color="#FFC629"/>
      <stop offset="0.08" stop-color="#EAA200"/>
      <stop offset="0.09" stop-color="#EBA80C"/>
      <stop offset="0.11" stop-color="#F0BB2E"/>
      <stop offset="0.14" stop-color="#F4CA4A"/>
      <stop offset="0.16" stop-color="#F8D660"/>
      <stop offset="0.19" stop-color="#FADE70"/>
      <stop offset="0.23" stop-color="#FBE379"/>
      <stop offset="0.27" stop-color="#FCE57C"/>
      <stop offset="0.48" stop-color="#FDD450"/>
      <stop offset="0.64" stop-color="#FEC933"/>
      <stop offset="0.74" stop-color="#FFC629"/>
      <stop offset="1" stop-color="#EAA200"/>
    </linearGradient>
    <linearGradient id="paint53_linear_8828_59168" x1="3.06786" y1="2.89867" x2="7.73797" y2="4.11454" gradientUnits="userSpaceOnUse">
      <stop stop-color="#FFC629"/>
      <stop offset="0.08" stop-color="#EAA200"/>
      <stop offset="0.09" stop-color="#EBA80C"/>
      <stop offset="0.11" stop-color="#F0BB2E"/>
      <stop offset="0.14" stop-color="#F4CA4A"/>
      <stop offset="0.16" stop-color="#F8D660"/>
      <stop offset="0.19" stop-color="#FADE70"/>
      <stop offset="0.23" stop-color="#FBE379"/>
      <stop offset="0.27" stop-color="#FCE57C"/>
      <stop offset="0.48" stop-color="#FDD450"/>
      <stop offset="0.64" stop-color="#FEC933"/>
      <stop offset="0.74" stop-color="#FFC629"/>
      <stop offset="1" stop-color="#EAA200"/>
    </linearGradient>
    <linearGradient id="paint54_linear_8828_59168" x1="3.06687" y1="2.8999" x2="7.73701" y2="4.11583" gradientUnits="userSpaceOnUse">
      <stop stop-color="#FFC629"/>
      <stop offset="0.08" stop-color="#EAA200"/>
      <stop offset="0.09" stop-color="#EBA80C"/>
      <stop offset="0.11" stop-color="#F0BB2E"/>
      <stop offset="0.14" stop-color="#F4CA4A"/>
      <stop offset="0.16" stop-color="#F8D660"/>
      <stop offset="0.19" stop-color="#FADE70"/>
      <stop offset="0.23" stop-color="#FBE379"/>
      <stop offset="0.27" stop-color="#FCE57C"/>
      <stop offset="0.48" stop-color="#FDD450"/>
      <stop offset="0.64" stop-color="#FEC933"/>
      <stop offset="0.74" stop-color="#FFC629"/>
      <stop offset="1" stop-color="#EAA200"/>
    </linearGradient>
    <linearGradient id="paint55_linear_8828_59168" x1="3.0652" y1="2.88587" x2="7.73531" y2="4.10174" gradientUnits="userSpaceOnUse">
      <stop stop-color="#FFC629"/>
      <stop offset="0.08" stop-color="#EAA200"/>
      <stop offset="0.09" stop-color="#EBA80C"/>
      <stop offset="0.11" stop-color="#F0BB2E"/>
      <stop offset="0.14" stop-color="#F4CA4A"/>
      <stop offset="0.16" stop-color="#F8D660"/>
      <stop offset="0.19" stop-color="#FADE70"/>
      <stop offset="0.23" stop-color="#FBE379"/>
      <stop offset="0.27" stop-color="#FCE57C"/>
      <stop offset="0.48" stop-color="#FDD450"/>
      <stop offset="0.64" stop-color="#FEC933"/>
      <stop offset="0.74" stop-color="#FFC629"/>
      <stop offset="1" stop-color="#EAA200"/>
    </linearGradient>
    <linearGradient id="paint56_linear_8828_59168" x1="3.06324" y1="2.87961" x2="7.73338" y2="4.0955" gradientUnits="userSpaceOnUse">
      <stop stop-color="#FFC629"/>
      <stop offset="0.08" stop-color="#EAA200"/>
      <stop offset="0.09" stop-color="#EBA80C"/>
      <stop offset="0.11" stop-color="#F0BB2E"/>
      <stop offset="0.14" stop-color="#F4CA4A"/>
      <stop offset="0.16" stop-color="#F8D660"/>
      <stop offset="0.19" stop-color="#FADE70"/>
      <stop offset="0.23" stop-color="#FBE379"/>
      <stop offset="0.27" stop-color="#FCE57C"/>
      <stop offset="0.48" stop-color="#FDD450"/>
      <stop offset="0.64" stop-color="#FEC933"/>
      <stop offset="0.74" stop-color="#FFC629"/>
      <stop offset="1" stop-color="#EAA200"/>
    </linearGradient>
    <linearGradient id="paint57_linear_8828_59168" x1="3.06228" y1="2.88119" x2="7.73238" y2="4.09706" gradientUnits="userSpaceOnUse">
      <stop stop-color="#FFC629"/>
      <stop offset="0.08" stop-color="#EAA200"/>
      <stop offset="0.09" stop-color="#EBA80C"/>
      <stop offset="0.11" stop-color="#F0BB2E"/>
      <stop offset="0.14" stop-color="#F4CA4A"/>
      <stop offset="0.16" stop-color="#F8D660"/>
      <stop offset="0.19" stop-color="#FADE70"/>
      <stop offset="0.23" stop-color="#FBE379"/>
      <stop offset="0.27" stop-color="#FCE57C"/>
      <stop offset="0.48" stop-color="#FDD450"/>
      <stop offset="0.64" stop-color="#FEC933"/>
      <stop offset="0.74" stop-color="#FFC629"/>
      <stop offset="1" stop-color="#EAA200"/>
    </linearGradient>
    <linearGradient id="paint58_linear_8828_59168" x1="3.06061" y1="2.86678" x2="7.73072" y2="4.08269" gradientUnits="userSpaceOnUse">
      <stop stop-color="#FFC629"/>
      <stop offset="0.08" stop-color="#EAA200"/>
      <stop offset="0.09" stop-color="#EBA80C"/>
      <stop offset="0.11" stop-color="#F0BB2E"/>
      <stop offset="0.14" stop-color="#F4CA4A"/>
      <stop offset="0.16" stop-color="#F8D660"/>
      <stop offset="0.19" stop-color="#FADE70"/>
      <stop offset="0.23" stop-color="#FBE379"/>
      <stop offset="0.27" stop-color="#FCE57C"/>
      <stop offset="0.48" stop-color="#FDD450"/>
      <stop offset="0.64" stop-color="#FEC933"/>
      <stop offset="0.74" stop-color="#FFC629"/>
      <stop offset="1" stop-color="#EAA200"/>
    </linearGradient>
    <linearGradient id="paint59_linear_8828_59168" x1="6.99405" y1="18.4761" x2="1.74744" y2="14.5864" gradientUnits="userSpaceOnUse">
      <stop stop-color="#FFC629"/>
      <stop offset="0.08" stop-color="#EAA200"/>
      <stop offset="0.09" stop-color="#EBA80C"/>
      <stop offset="0.11" stop-color="#F0BB2E"/>
      <stop offset="0.14" stop-color="#F4CA4A"/>
      <stop offset="0.16" stop-color="#F8D660"/>
      <stop offset="0.19" stop-color="#FADE70"/>
      <stop offset="0.23" stop-color="#FBE379"/>
      <stop offset="0.27" stop-color="#FCE57C"/>
      <stop offset="0.35" stop-color="#FDD450"/>
      <stop offset="0.41" stop-color="#FEC933"/>
      <stop offset="0.45" stop-color="#FFC629"/>
      <stop offset="1" stop-color="#EAA200"/>
    </linearGradient>
    <linearGradient id="paint60_linear_8828_59168" x1="17.7322" y1="6.82948" x2="19.8025" y2="7.52433" gradientUnits="userSpaceOnUse">
      <stop stop-color="#8C5F15"/>
      <stop offset="0.33" stop-color="#A7720E"/>
      <stop offset="1" stop-color="#EAA200"/>
    </linearGradient>
    <linearGradient id="paint61_linear_8828_59168" x1="17.4276" y1="27.618" x2="33.8379" y2="27.618" gradientUnits="userSpaceOnUse">
      <stop stop-color="#EB422C"/>
      <stop offset="0.06" stop-color="#EA5636"/>
      <stop offset="0.19" stop-color="#E97F4A"/>
      <stop offset="0.32" stop-color="#E89D59"/>
      <stop offset="0.42" stop-color="#E8AF62"/>
      <stop offset="0.49" stop-color="#E8B666"/>
      <stop offset="0.59" stop-color="#E8B264"/>
      <stop offset="0.68" stop-color="#E8A65E"/>
      <stop offset="0.78" stop-color="#E89254"/>
      <stop offset="0.87" stop-color="#E97646"/>
      <stop offset="0.96" stop-color="#EA5334"/>
      <stop offset="1" stop-color="#EB422C"/>
    </linearGradient>
    <linearGradient id="paint62_linear_8828_59168" x1="25.9892" y1="37.1572" x2="25.0993" y2="18.6195" gradientUnits="userSpaceOnUse">
      <stop stop-color="#D1222A"/>
      <stop offset="0.25" stop-color="#D4262C"/>
      <stop offset="0.53" stop-color="#DE3332"/>
      <stop offset="0.82" stop-color="#EF493B"/>
      <stop offset="1" stop-color="#FD5C44"/>
    </linearGradient>
  </defs>
</svg>