<svg width="1642" height="52" viewBox="0 0 1642 52" fill="none" xmlns="http://www.w3.org/2000/svg">
<path d="M1.00195 48.0705C1.00195 46.7444 1.52874 45.4727 2.46644 44.535L44.073 2.92884C45.9484 1.05349 48.4919 -5.75575e-05 51.1441 -5.01599e-05L214.86 0.000416179C217.512 0.000423577 220.056 1.05394 221.931 2.92923L245.073 26.0706C246.948 27.9459 249.492 28.9994 252.144 28.9994L413.197 28.9994C415.902 28.9994 418.491 30.0951 420.375 32.0364L421.711 33.4137C422.941 34.6821 422.042 36.8063 420.275 36.8063L23.2371 36.8063C20.5976 36.8063 18.0651 37.8498 16.1919 39.7094L9.85582 45.9994L5.00195 51L1.00195 51L1.00195 48.0705Z" fill="#61646B"/>
<path d="M1.00195 48.0705C1.00195 46.7444 1.52874 45.4727 2.46644 44.535L44.073 2.92884C45.9484 1.05349 48.4919 -5.75575e-05 51.1441 -5.01599e-05L214.86 0.000416179C217.512 0.000423577 220.056 1.05394 221.931 2.92923L245.073 26.0706C246.948 27.9459 249.492 28.9994 252.144 28.9994L413.197 28.9994C415.902 28.9994 418.491 30.0951 420.375 32.0364L421.711 33.4137C422.941 34.6821 422.042 36.8063 420.275 36.8063L23.2371 36.8063C20.5976 36.8063 18.0651 37.8498 16.1919 39.7094L9.85582 45.9994L5.00195 51L1.00195 51L1.00195 48.0705Z" fill="black" fill-opacity="0.2"/>
<path d="M55.802 25.0002C55.162 25.0002 54.578 24.8482 54.05 24.5442C53.538 24.2242 53.122 23.8082 52.802 23.2962C52.498 22.7682 52.346 22.1842 52.346 21.5442V11.1762C52.346 10.5362 52.498 9.96024 52.802 9.44824C53.122 8.92024 53.538 8.50424 54.05 8.20024C54.578 7.88024 55.162 7.72024 55.802 7.72024H69.578V11.2002H56.618C56.362 11.2002 56.162 11.2722 56.018 11.4162C55.874 11.5442 55.802 11.7442 55.802 12.0162V20.7042C55.802 20.9602 55.874 21.1602 56.018 21.3042C56.162 21.4482 56.362 21.5202 56.618 21.5202H69.578V25.0002H55.802ZM75.3683 25.0002C74.7603 25.0002 74.1923 24.8482 73.6643 24.5442C73.1523 24.2242 72.7443 23.8082 72.4403 23.2962C72.1363 22.7842 71.9843 22.2242 71.9843 21.6162V16.3122H82.6883V14.6322C82.6883 14.6002 82.6723 14.5682 82.6403 14.5362C82.6083 14.5042 82.5763 14.4882 82.5443 14.4882H71.9843V11.0802H82.7123C83.3363 11.0802 83.9043 11.2402 84.4163 11.5602C84.9283 11.8642 85.3363 12.2722 85.6403 12.7842C85.9443 13.2962 86.0963 13.8562 86.0963 14.4642V25.0002H75.3683ZM75.5363 21.5922H82.6883V19.3602H75.3923V21.4482C75.3923 21.4802 75.4083 21.5122 75.4403 21.5442C75.4723 21.5762 75.5043 21.5922 75.5363 21.5922ZM88.0401 25.0002V11.0802H105.032C105.672 11.0802 106.248 11.2402 106.76 11.5602C107.272 11.8642 107.68 12.2722 107.984 12.7842C108.288 13.2962 108.44 13.8562 108.44 14.4642V25.0002H105.032V14.6322C105.032 14.6002 105.016 14.5682 104.984 14.5362C104.968 14.5042 104.936 14.4882 104.888 14.4882H100.112C100.064 14.4882 100.024 14.5042 99.9921 14.5362C99.9761 14.5682 99.9681 14.6002 99.9681 14.6322V25.0002H96.5361V14.6322C96.5361 14.6002 96.5201 14.5682 96.4881 14.5362C96.4561 14.5042 96.4241 14.4882 96.3921 14.4882H91.5921C91.5601 14.4882 91.5281 14.5042 91.4961 14.5362C91.4801 14.5682 91.4721 14.6002 91.4721 14.6322V25.0002H88.0401ZM110.329 30.5202V11.0802H121.057C121.681 11.0802 122.249 11.2402 122.761 11.5602C123.273 11.8642 123.681 12.2722 123.985 12.7842C124.289 13.2962 124.441 13.8562 124.441 14.4642V21.6162C124.441 22.2242 124.289 22.7842 123.985 23.2962C123.681 23.8082 123.273 24.2242 122.761 24.5442C122.249 24.8482 121.681 25.0002 121.057 25.0002H113.737V30.5202H110.329ZM113.881 21.5922H120.889C120.937 21.5922 120.969 21.5762 120.985 21.5442C121.017 21.5122 121.033 21.4802 121.033 21.4482V14.6322C121.033 14.6002 121.017 14.5682 120.985 14.5362C120.969 14.5042 120.937 14.4882 120.889 14.4882H113.881C113.849 14.4882 113.817 14.5042 113.785 14.5362C113.753 14.5682 113.737 14.6002 113.737 14.6322V21.4482C113.737 21.4802 113.753 21.5122 113.785 21.5442C113.817 21.5762 113.849 21.5922 113.881 21.5922ZM129.603 25.0002C128.995 25.0002 128.427 24.8482 127.899 24.5442C127.387 24.2242 126.979 23.8082 126.675 23.2962C126.371 22.7842 126.219 22.2242 126.219 21.6162V16.3122H136.923V14.6322C136.923 14.6002 136.907 14.5682 136.875 14.5362C136.843 14.5042 136.811 14.4882 136.779 14.4882H126.219V11.0802H136.947C137.571 11.0802 138.139 11.2402 138.651 11.5602C139.163 11.8642 139.571 12.2722 139.875 12.7842C140.179 13.2962 140.331 13.8562 140.331 14.4642V25.0002H129.603ZM129.771 21.5922H136.923V19.3602H129.627V21.4482C129.627 21.4802 129.643 21.5122 129.675 21.5442C129.707 21.5762 129.739 21.5922 129.771 21.5922ZM142.883 25.0002V11.0802H146.291V25.0002H142.883ZM142.883 9.95224V6.52024H146.291V9.95224H142.883ZM150.289 30.4962V27.0642H158.617C158.649 27.0642 158.681 27.0482 158.713 27.0162C158.745 26.9842 158.761 26.9522 158.761 26.9202V25.0002H151.441C150.817 25.0002 150.249 24.8482 149.737 24.5442C149.225 24.2242 148.809 23.8082 148.489 23.2962C148.185 22.7842 148.033 22.2242 148.033 21.6162V14.4642C148.033 13.8562 148.185 13.2962 148.489 12.7842C148.809 12.2722 149.225 11.8642 149.737 11.5602C150.265 11.2402 150.833 11.0802 151.441 11.0802H158.785C159.409 11.0802 159.977 11.2402 160.489 11.5602C161.001 11.8642 161.409 12.2722 161.713 12.7842C162.017 13.2962 162.169 13.8562 162.169 14.4642V27.0882C162.169 27.7282 162.017 28.3042 161.713 28.8162C161.425 29.3282 161.017 29.7362 160.489 30.0402C159.977 30.3442 159.409 30.4962 158.785 30.4962H150.289ZM151.585 21.5922H158.617C158.649 21.5922 158.681 21.5762 158.713 21.5442C158.745 21.5122 158.761 21.4802 158.761 21.4482V14.6322C158.761 14.6002 158.745 14.5682 158.713 14.5362C158.681 14.5042 158.649 14.4882 158.617 14.4882H151.585C151.553 14.4882 151.521 14.5042 151.489 14.5362C151.457 14.5682 151.441 14.6002 151.441 14.6322V21.4482C151.441 21.4802 151.457 21.5122 151.489 21.5442C151.521 21.5762 151.553 21.5922 151.585 21.5922ZM164.728 25.0002V11.0802H175.456C176.08 11.0802 176.648 11.2402 177.16 11.5602C177.672 11.8642 178.08 12.2722 178.384 12.7842C178.688 13.2962 178.84 13.8562 178.84 14.4642V25.0002H175.432V14.6322C175.432 14.6002 175.416 14.5682 175.384 14.5362C175.368 14.5042 175.336 14.4882 175.288 14.4882H168.28C168.248 14.4882 168.216 14.5042 168.184 14.5362C168.152 14.5682 168.136 14.6002 168.136 14.6322V25.0002H164.728ZM184.28 25.0002C183.672 25.0002 183.112 24.8482 182.6 24.5442C182.088 24.2242 181.672 23.8082 181.352 23.2962C181.048 22.7842 180.896 22.2242 180.896 21.6162V20.9922H184.304V21.4482C184.304 21.4802 184.32 21.5122 184.352 21.5442C184.384 21.5762 184.416 21.5922 184.448 21.5922H191.456C191.488 21.5922 191.52 21.5762 191.552 21.5442C191.584 21.5122 191.6 21.4802 191.6 21.4482V19.8882C191.6 19.8562 191.584 19.8322 191.552 19.8162C191.52 19.7842 191.488 19.7682 191.456 19.7682H184.28C183.672 19.7682 183.112 19.6162 182.6 19.3122C182.088 18.9922 181.672 18.5762 181.352 18.0642C181.048 17.5522 180.896 16.9842 180.896 16.3602V14.4642C180.896 13.8562 181.048 13.2962 181.352 12.7842C181.672 12.2722 182.088 11.8642 182.6 11.5602C183.112 11.2402 183.672 11.0802 184.28 11.0802H191.624C192.248 11.0802 192.816 11.2402 193.328 11.5602C193.84 11.8642 194.248 12.2722 194.552 12.7842C194.872 13.2962 195.032 13.8562 195.032 14.4642V15.0882H191.6V14.6322C191.6 14.6002 191.584 14.5682 191.552 14.5362C191.52 14.5042 191.488 14.4882 191.456 14.4882H184.448C184.416 14.4882 184.384 14.5042 184.352 14.5362C184.32 14.5682 184.304 14.6002 184.304 14.6322V16.1922C184.304 16.2242 184.32 16.2562 184.352 16.2882C184.384 16.3042 184.416 16.3122 184.448 16.3122H191.624C192.248 16.3122 192.816 16.4722 193.328 16.7922C193.84 17.0962 194.248 17.5042 194.552 18.0162C194.872 18.5282 195.032 19.0962 195.032 19.7202V21.6162C195.032 22.2242 194.872 22.7842 194.552 23.2962C194.248 23.8082 193.84 24.2242 193.328 24.5442C192.816 24.8482 192.248 25.0002 191.624 25.0002H184.28Z" fill="#23FF81"/>
<path d="M19.1443 36.0935L1622.86 36.0002C1625.52 36.0001 1628.07 37.061 1629.95 38.9479L1639.63 48.6819C1640.51 49.5635 1641 50.7565 1641 52L1.00293 52.0005C1.00293 50.8167 1.47156 49.681 2.3064 48.8417L12.0551 39.0412C13.9318 37.1545 16.4832 36.0937 19.1443 36.0935Z" fill="white"/>
<path d="M1.00293 52.0005V52.0005C1.00293 50.8167 1.47158 49.681 2.30645 48.8417L12.0551 39.0412C13.9318 37.1545 16.4832 36.0937 19.1443 36.0935L1622.86 36.0002C1625.52 36.0001 1628.07 37.061 1629.95 38.9479L1639.63 48.6819C1640.51 49.5635 1641 50.7565 1641 52V52" stroke="#ABABAB" stroke-width="2"/>
</svg>
