<svg width="80" height="80" viewBox="0 0 80 80" fill="none" xmlns="http://www.w3.org/2000/svg">
<path d="M53.7972 66.2027C68.2686 58.5827 73.8228 40.6741 66.2028 26.2027C58.5828 11.7313 40.6742 6.17707 26.2028 13.7971C11.7314 21.417 6.17721 39.3256 13.7972 53.7971C21.4172 68.2685 39.3258 73.8227 53.7972 66.2027Z" fill="#E65910"/>
<path d="M39.9939 61.9448C52.1362 61.9448 61.9794 52.1015 61.9794 39.9592C61.9794 27.8169 52.1362 17.9736 39.9939 17.9736C27.8516 17.9736 18.0083 27.8169 18.0083 39.9592C18.0083 52.1015 27.8516 61.9448 39.9939 61.9448Z" fill="#414042"/>
<path d="M33.7437 49V31.5454H37.434V39.2414H37.6641L43.9454 31.5454H48.3687L41.8914 39.3608L48.4454 49H44.0306L39.2493 41.8238L37.434 44.0397V49H33.7437Z" fill="#FEEDD6"/>
<path d="M13.9115 41.0878C13.2868 41.0878 12.7859 40.5812 12.7859 39.9621C12.7859 39.9565 12.7859 39.9565 12.7859 39.9565C12.7915 39.3374 13.2924 38.8365 13.9115 38.8365C14.525 38.8365 15.0315 39.3374 15.0371 39.9565V39.9621C15.0371 40.5812 14.5306 41.0878 13.9115 41.0878ZM14.2942 36.6078C14.2323 36.6078 14.1648 36.6022 14.1029 36.5909C13.8046 36.5403 13.5457 36.377 13.3712 36.1294C13.2024 35.8874 13.1348 35.5891 13.1855 35.2908C14.0297 30.4338 16.1909 25.8919 19.4439 22.1492C22.6632 18.4403 26.8111 15.6657 31.4486 14.1292C32.9288 13.6339 34.4653 13.2737 36.013 13.043C36.6209 12.9529 37.2005 13.3919 37.2906 13.9941C37.3806 14.6076 36.9529 15.1817 36.3394 15.2717C34.9155 15.4799 33.5085 15.8176 32.1578 16.2623C23.3948 19.1663 16.9788 26.6067 15.4029 35.6735C15.3073 36.2195 14.8401 36.6078 14.2942 36.6078Z" fill="#F7903B"/>
</svg>
