<svg width="80" height="81" viewBox="0 0 80 81" fill="none" xmlns="http://www.w3.org/2000/svg">
<path d="M53.7972 66.7022C68.2686 59.0822 73.8228 41.1736 66.2028 26.7022C58.5828 12.2308 40.6742 6.67658 26.2028 14.2966C11.7314 21.9165 6.17721 39.8252 13.7972 54.2966C21.4172 68.768 39.3258 74.3222 53.7972 66.7022Z" fill="#00C04D"/>
<path d="M39.9944 62.4438C52.1367 62.4438 61.9799 52.6005 61.9799 40.4582C61.9799 28.3159 52.1367 18.4727 39.9944 18.4727C27.8521 18.4727 18.0088 28.3159 18.0088 40.4582C18.0088 52.6005 27.8521 62.4438 39.9944 62.4438Z" fill="#414042"/>
<path d="M36.6402 42.7353C36.6726 42.2963 36.705 41.8609 36.7374 41.4255L36.8346 40.1083C32.3144 38.0556 27.7762 35.8091 23.2164 33.3613C23.0293 33.987 22.8385 34.6163 22.6514 35.2566C24.7711 36.4897 26.8801 37.6642 28.989 38.7984C28.1649 40.0058 27.7834 41.6706 28.0605 43.3683C29.079 49.6359 36.2731 48.3956 36.6222 42.728H36.6258C36.6294 42.728 36.6366 42.7317 36.6402 42.7353Z" fill="#00E160"/>
<path d="M43.3675 42.6804C43.7166 48.2639 50.9107 49.0688 51.9292 43.1927V43.1963C52.2063 41.6011 51.8249 40.0461 51.0007 38.9045C53.1097 37.8508 55.2222 36.7933 57.3384 35.7176C57.1512 35.1286 56.9641 34.5468 56.7733 33.965C52.2136 36.0616 47.6718 38.1215 43.1552 40.1192C43.1875 40.551 43.2199 40.9791 43.2523 41.4072C43.2842 41.8254 43.3162 42.2472 43.3481 42.669L43.3495 42.6878C43.3567 42.6804 43.3639 42.6804 43.3639 42.6804H43.3675Z" fill="#00E160"/>
<path d="M13.9118 41.5878C13.287 41.5878 12.7861 41.0812 12.7861 40.4621C12.7861 40.4565 12.7861 40.4565 12.7861 40.4565C12.7918 39.8374 13.2927 39.3365 13.9118 39.3365C14.5252 39.3365 15.0317 39.8374 15.0374 40.4565V40.4621C15.0374 41.0812 14.5308 41.5878 13.9118 41.5878ZM14.2945 37.1078C14.2325 37.1078 14.165 37.1022 14.1031 37.0909C13.8048 37.0403 13.5459 36.877 13.3715 36.6294C13.2026 36.3874 13.1351 36.0891 13.1857 35.7908C14.0299 30.9338 16.1911 26.3919 19.4442 22.6492C22.6634 18.9403 26.8113 16.1657 31.4489 14.6292C32.9291 14.1339 34.4655 13.7737 36.0133 13.543C36.6211 13.4529 37.2008 13.8919 37.2908 14.4941C37.3809 15.1076 36.9532 15.6817 36.3397 15.7717C34.9158 15.9799 33.5088 16.3176 32.158 16.7623C23.3951 19.6663 16.9791 27.1067 15.4032 36.1735C15.3075 36.7195 14.8404 37.1078 14.2945 37.1078Z" fill="#2BFD84"/>
</svg>
