<svg width="80" height="81" viewBox="0 0 80 81" fill="none" xmlns="http://www.w3.org/2000/svg">
<g id="Group">
<g id="Group_2">
<g id="Group_3">
<g id="Group_4">
<g id="Group_5">
<g id="Group_6">
<g id="Group_7">
<path id="Vector" d="M44.1088 16.9515C47.6002 13.0842 54.0137 15.741 53.7481 20.944C53.5807 24.2206 56.2836 26.9231 59.5601 26.756C64.7631 26.4901 67.4199 32.9039 63.5526 36.3953C61.1175 38.5938 61.1175 42.4161 63.5526 44.6146C67.4199 48.1057 64.7631 54.5195 59.5601 54.2539C56.2836 54.0865 53.5807 56.7894 53.7481 60.0659C54.014 65.2689 47.6002 67.9258 44.1088 64.0585C41.9103 61.6233 38.088 61.6233 35.8895 64.0585C32.3981 67.9254 25.9846 65.2689 26.2502 60.0659C26.4176 56.7894 23.7147 54.0865 20.4382 54.2539C15.2352 54.5199 12.5783 48.106 16.4456 44.6146C18.8808 42.4161 18.8808 38.5938 16.4456 36.3953C12.5783 32.9039 15.2352 26.4905 20.4382 26.756C23.7147 26.9234 26.4176 24.2206 26.2502 20.944C25.9842 15.741 32.3981 13.0842 35.8895 16.9515C38.088 19.3866 41.9103 19.3866 44.1088 16.9515Z" fill="url(#paint0_linear_5627_36790)"/>
</g>
</g>
<g id="Group_8">
<g id="Group_9">
<path id="Vector_2" d="M63.5548 44.6148C61.1196 42.4163 61.1196 38.594 63.5548 36.3955C66.8945 33.3803 65.3685 28.1855 61.5383 26.9961C62.1748 28.9244 61.7925 31.1943 59.9852 32.8259C57.55 35.0244 57.55 38.8467 59.9852 41.0452C63.8525 44.5363 61.1956 50.9501 55.9926 50.6845C52.7161 50.5171 50.0132 53.22 50.1806 56.4965C50.4466 61.6996 44.0327 64.3564 40.5413 60.4891C38.3428 58.0536 34.5205 58.0536 32.322 60.4891C30.6904 62.2964 28.4205 62.6787 26.4922 62.0422C27.6816 65.8724 32.8764 67.3987 35.8916 64.0587C38.0901 61.6232 41.9124 61.6232 44.1109 64.0587C47.6023 67.9256 54.0158 65.2691 53.7502 60.0661C53.5828 56.7896 56.2857 54.0867 59.5622 54.2541C64.7652 54.5197 67.4221 48.1062 63.5548 44.6148Z" fill="#23FF81"/>
</g>
</g>
<g id="Group_10">
<g id="Group_11">
<path id="Vector_3" d="M63.5512 44.6132C61.1161 42.4147 61.1161 38.5924 63.5512 36.3939C66.5144 33.7189 65.6473 29.3287 62.7399 27.541C64.056 29.6539 63.9807 32.6102 61.7665 34.6091C59.3313 36.8076 59.3313 40.63 61.7665 42.8285C65.6337 46.3195 62.9769 52.7333 57.7739 52.4678C54.4974 52.3003 51.7945 55.0032 51.9619 58.2797C52.2278 63.4828 45.814 66.1396 42.3226 62.2723C40.1241 59.8368 36.3018 59.8368 34.1033 62.2723C32.1047 64.4862 29.148 64.5618 27.0352 63.2457C28.8224 66.1535 33.213 67.0202 35.8881 64.0571C38.0866 61.6216 41.9089 61.6216 44.1074 64.0571C47.5988 67.924 54.0123 65.2676 53.7467 60.0645C53.5793 56.788 56.2822 54.0851 59.5587 54.2525C64.7617 54.5181 67.4185 48.1047 63.5512 44.6132Z" fill="#1FAB5E"/>
</g>
</g>
<g id="Group_12">
<g id="Group_13">
<path id="Vector_4" d="M48.7533 57.1473C57.9317 52.3144 61.4544 40.956 56.6215 31.7776C51.7886 22.5992 40.4302 19.0765 31.2518 23.9094C22.0734 28.7423 18.5507 40.1007 23.3836 49.2791C28.2165 58.4575 39.5749 61.9802 48.7533 57.1473Z" fill="#1FAB5E"/>
</g>
</g>
<g id="Group_14">
<g id="Group_15">
<path id="Vector_5" d="M39.9989 54.4451C47.7001 54.4451 53.9431 48.202 53.9431 40.5008C53.9431 32.7997 47.7001 26.5566 39.9989 26.5566C32.2977 26.5566 26.0547 32.7997 26.0547 40.5008C26.0547 48.202 32.2977 54.4451 39.9989 54.4451Z" fill="#414042"/>
</g>
<g id="Vector_6">
<path d="M37.8723 41.9454C37.8929 41.6669 37.9134 41.3908 37.934 41.1146L37.9956 40.2792C35.1287 38.9773 32.2504 37.5525 29.3584 36C29.2397 36.3968 29.1187 36.796 29 37.2021C30.3444 37.9841 31.682 38.729 33.0196 39.4484C32.4969 40.2142 32.2549 41.2701 32.4307 42.3469C33.0767 46.3221 37.6395 45.5354 37.8609 41.9408H37.8632C37.8655 41.9408 37.8701 41.9431 37.8723 41.9454Z" fill="url(#paint1_linear_5627_36790)"/>
<path d="M42.1391 41.9106C42.3605 45.4518 46.9233 45.9624 47.5693 42.2355V42.2378C47.7451 41.226 47.5031 40.2398 46.9804 39.5157C48.318 38.8474 49.6578 38.1767 51 37.4945C50.8813 37.1209 50.7626 36.7519 50.6416 36.3829C47.7496 37.7126 44.869 39.0191 42.0044 40.2862C42.0249 40.56 42.0455 40.8315 42.066 41.103C42.0863 41.3683 42.1065 41.6358 42.1267 41.9033L42.1276 41.9152C42.1322 41.9106 42.1368 41.9106 42.1368 41.9106H42.1391Z" fill="url(#paint2_linear_5627_36790)"/>
</g>
</g>
</g>
</g>
<g id="Group_16">
<path id="Vector_7" d="M23.46 41.2146C23.0638 41.2146 22.7461 40.8933 22.7461 40.5007C22.7461 40.4971 22.7461 40.4971 22.7461 40.4971C22.7497 40.1044 23.0674 39.7867 23.46 39.7867C23.8491 39.7867 24.1704 40.1044 24.1739 40.4971V40.5007C24.1739 40.8933 23.8527 41.2146 23.46 41.2146ZM23.7027 38.3732C23.6635 38.3732 23.6206 38.3696 23.5814 38.3625C23.3922 38.3304 23.228 38.2268 23.1173 38.0698C23.0102 37.9163 22.9674 37.7271 22.9995 37.5379C23.535 34.4574 24.9057 31.5767 26.9689 29.2029C29.0107 26.8506 31.6415 25.0908 34.5828 24.1163C35.5216 23.8022 36.4961 23.5737 37.4777 23.4274C37.8633 23.3702 38.2309 23.6487 38.288 24.0306C38.3452 24.4197 38.0739 24.7838 37.6848 24.8409C36.7817 24.973 35.8893 25.1872 35.0326 25.4692C29.4748 27.3111 25.4054 32.03 24.4059 37.7806C24.3453 38.1269 24.049 38.3732 23.7027 38.3732Z" fill="#23FF81"/>
</g>
</g>
</g>
<g id="Group_17">
<path id="Vector_8" d="M41.8665 2.36653V10.3585C41.8665 11.3894 41.0309 12.225 40 12.225C38.9691 12.225 38.1335 11.3894 38.1335 10.3585V2.36653C38.1335 1.33564 38.9691 0.5 40 0.5C41.0309 0.5 41.8665 1.336 41.8665 2.36653ZM40 68.775C38.9691 68.775 38.1335 69.6106 38.1335 70.6415V78.6335C38.1335 79.6644 38.9691 80.5 40 80.5C41.0309 80.5 41.8665 79.6644 41.8665 78.6335V70.6415C41.8665 69.6106 41.0309 68.775 40 68.775ZM78.1335 38.6335H70.1415C69.1106 38.6335 68.275 39.4691 68.275 40.5C68.275 41.5309 69.1106 42.3665 70.1415 42.3665H78.1335C79.1644 42.3665 80 41.5309 80 40.5C80 39.4691 79.164 38.6335 78.1335 38.6335ZM11.7254 40.5C11.7254 39.4691 10.8897 38.6335 9.85882 38.6335H1.86653C0.835638 38.6335 0 39.4691 0 40.5C0 41.5309 0.835638 42.3665 1.86653 42.3665H9.85847C10.8894 42.3665 11.7254 41.5309 11.7254 40.5ZM62.6329 20.5068L68.2843 14.8554C69.0132 14.1265 69.0132 12.9446 68.2843 12.2157C67.5554 11.4868 66.3735 11.4868 65.6446 12.2157L59.9932 17.8671C59.2643 18.596 59.2643 19.7779 59.9932 20.5068C60.7221 21.2357 61.904 21.2357 62.6329 20.5068ZM17.3671 60.4932L11.7157 66.1446C10.9868 66.8735 10.9868 68.0554 11.7157 68.7843C12.4446 69.5132 13.6265 69.5132 14.3554 68.7843L20.0068 63.1329C20.7357 62.404 20.7357 61.2221 20.0068 60.4932C19.2779 59.7643 18.096 59.7643 17.3671 60.4932ZM62.6329 60.4932C61.904 59.7643 60.7221 59.7643 59.9932 60.4932C59.2643 61.2221 59.2643 62.404 59.9932 63.1329L65.6446 68.7843C66.3735 69.5132 67.5554 69.5132 68.2843 68.7843C69.0132 68.0554 69.0132 66.8735 68.2843 66.1446L62.6329 60.4932ZM14.3554 12.2157C13.6265 11.4868 12.4446 11.4868 11.7157 12.2157C10.9868 12.9446 10.9868 14.1265 11.7157 14.8554L17.3671 20.5068C18.096 21.2357 19.2779 21.2357 20.0068 20.5068C20.7357 19.7779 20.7357 18.596 20.0068 17.8671L14.3554 12.2157Z" fill="#23FF81"/>
</g>
<g id="Group_18">
<g id="Group_19">
<path id="Vector_9" d="M18.7637 59.9473C18.7851 60.4513 18.6034 60.9621 18.219 61.3469L12.5676 66.9983C12.1828 67.3831 11.6716 67.5648 11.168 67.5433C11.1872 67.9942 11.3686 68.4389 11.7127 68.783C12.4416 69.512 13.6235 69.512 14.3524 68.783L20.0037 63.1317C20.7327 62.4028 20.7327 61.2209 20.0037 60.492C19.6596 60.1479 19.2145 59.9665 18.7637 59.9473Z" fill="#1FAB5E"/>
</g>
<g id="Group_20">
<path id="Vector_10" d="M66.4963 13.0719L60.8449 18.7232C60.4601 19.108 59.9493 19.2897 59.4453 19.2679C59.4646 19.7188 59.6459 20.1635 59.99 20.508C60.7189 21.2369 61.9008 21.2369 62.6297 20.508L68.2811 14.8567C69.01 14.1277 69.01 12.9459 68.2811 12.217C67.937 11.8728 67.4919 11.6912 67.0414 11.6719C67.0624 12.1763 66.8811 12.6871 66.4963 13.0719Z" fill="#1FAB5E"/>
</g>
<g id="Group_21">
<path id="Vector_11" d="M18.2217 16.082C18.9506 16.8109 18.9506 17.9928 18.2217 18.7217C17.4928 19.4506 16.3109 19.4506 15.582 18.7217L17.3668 20.5065C18.0957 21.2354 19.2776 21.2354 20.0065 20.5065C20.7354 19.7776 20.7354 18.5957 20.0065 17.8668L18.2217 16.082Z" fill="#1FAB5E"/>
</g>
<g id="Group_22">
<path id="Vector_12" d="M11.7236 40.4995C11.7236 39.4954 10.9308 38.6765 9.937 38.6348C9.93807 38.6612 9.93878 38.688 9.93878 38.7147C9.93878 39.7456 9.10314 40.5813 8.07225 40.5813H0.0799586C0.0531867 40.5813 0.0264149 40.5805 0 40.5795C0.0417641 41.5732 0.860626 42.366 1.86475 42.366H9.85668C10.8876 42.366 11.7236 41.5304 11.7236 40.4995Z" fill="#1FAB5E"/>
</g>
<g id="Group_23">
<path id="Vector_13" d="M66.4991 64.3594C67.228 65.0883 67.228 66.2702 66.4991 66.9991C65.7702 67.728 64.5883 67.728 63.8594 66.9991L65.6442 68.7839C66.3731 69.5128 67.555 69.5128 68.2839 68.7839C69.0128 68.055 69.0128 66.8731 68.2839 66.1442L66.4991 64.3594Z" fill="#1FAB5E"/>
</g>
<g id="Group_24">
<path id="Vector_14" d="M40.0775 68.7754C40.0786 68.8018 40.0793 68.8286 40.0793 68.8553V76.8473C40.0793 77.8782 39.2437 78.7138 38.2128 78.7138C38.186 78.7138 38.1592 78.7131 38.1328 78.712C38.1746 79.7058 38.9934 80.4986 39.9976 80.4986C41.0285 80.4986 41.8641 79.663 41.8641 78.6321V70.6401C41.8641 69.636 41.0713 68.8172 40.0775 68.7754Z" fill="#1FAB5E"/>
</g>
<g id="Group_25">
<path id="Vector_15" d="M78.2101 38.6348C78.2111 38.6612 78.2119 38.688 78.2119 38.7147C78.2119 39.7456 77.3762 40.5813 76.3453 40.5813H68.3534C68.3266 40.5813 68.2999 40.5805 68.2734 40.5795C68.3152 41.5732 69.1341 42.366 70.1382 42.366H78.1301C79.161 42.366 79.9967 41.5304 79.9967 40.4995C79.9967 39.4954 79.2038 38.6765 78.2101 38.6348Z" fill="#1FAB5E"/>
</g>
<g id="Group_26">
<path id="Vector_16" d="M40.0775 0.501953C40.0786 0.528368 40.0793 0.55514 40.0793 0.581912V8.57384C40.0793 9.60474 39.2437 10.4404 38.2128 10.4404C38.186 10.4404 38.1592 10.4397 38.1328 10.4386C38.1746 11.4324 38.9934 12.2252 39.9976 12.2252C41.0285 12.2252 41.8641 11.3895 41.8641 10.3586V2.36634C41.8641 1.36258 41.0713 0.543717 40.0775 0.501953Z" fill="#1FAB5E"/>
</g>
</g>
</g>
<defs>
<linearGradient id="paint0_linear_5627_36790" x1="14.6055" y1="65.8986" x2="65.3928" y2="65.8986" gradientUnits="userSpaceOnUse">
<stop stop-color="#23FF81"/>
<stop offset="1" stop-color="#1FAB5E"/>
</linearGradient>
<linearGradient id="paint1_linear_5627_36790" x1="29" y1="45" x2="51" y2="45" gradientUnits="userSpaceOnUse">
<stop stop-color="#23FF81"/>
<stop offset="1" stop-color="#1FAB5E"/>
</linearGradient>
<linearGradient id="paint2_linear_5627_36790" x1="29" y1="45" x2="51" y2="45" gradientUnits="userSpaceOnUse">
<stop stop-color="#23FF81"/>
<stop offset="1" stop-color="#1FAB5E"/>
</linearGradient>
</defs>
</svg>
