<svg width="526" height="594" viewBox="0 0 526 594" fill="none" xmlns="http://www.w3.org/2000/svg">
<path d="M0.474006 39.0829C0.46689 33.7693 2.57456 28.6713 6.33185 24.914L25.1131 6.13276C28.8638 2.38204 33.9509 0.274902 39.2552 0.274902H243.939C249.243 0.274902 254.33 2.38204 258.081 6.13277L266.291 14.3434C270.042 18.0942 275.129 20.2013 280.434 20.2013H415.445C420.748 20.2013 425.834 18.095 429.585 14.3456L435.944 7.98859C439.694 4.23917 444.781 2.13287 450.084 2.13287H491.301C496.605 2.13287 501.692 4.24001 505.443 7.99074L520.146 22.6933C523.896 26.444 526.004 31.5311 526.004 36.8354V374.035C526.004 379.339 523.896 384.426 520.146 388.177L517.828 390.495C514.077 394.245 511.97 399.332 511.97 404.637V560.932C511.97 566.235 509.863 571.322 506.114 575.072L494.048 587.141C490.297 590.892 485.21 593 479.905 593H49.4258C44.1207 593 39.033 590.892 35.2821 587.141L21.0895 572.945C17.3397 569.194 15.2332 564.108 15.2332 558.804V230.095C15.2332 224.789 13.125 219.701 9.37263 215.95L6.54871 213.127C2.80291 209.382 0.695276 204.305 0.688183 199.009L0.474006 39.0829Z" stroke="#61646B" stroke-width="2" stroke-miterlimit="10"/>
<path d="M0.474006 39.0829C0.46689 33.7693 2.57456 28.6713 6.33185 24.914L25.1131 6.13276C28.8638 2.38204 33.9509 0.274902 39.2552 0.274902H243.939C249.243 0.274902 254.33 2.38204 258.081 6.13277L266.291 14.3434C270.042 18.0942 275.129 20.2013 280.434 20.2013H415.445C420.748 20.2013 425.834 18.095 429.585 14.3456L435.944 7.98859C439.694 4.23917 444.781 2.13287 450.084 2.13287H491.301C496.605 2.13287 501.692 4.24001 505.443 7.99074L520.146 22.6933C523.896 26.444 526.004 31.5311 526.004 36.8354V374.035C526.004 379.339 523.896 384.426 520.146 388.177L517.828 390.495C514.077 394.245 511.97 399.332 511.97 404.637V560.932C511.97 566.235 509.863 571.322 506.114 575.072L494.048 587.141C490.297 590.892 485.21 593 479.905 593H49.4258C44.1207 593 39.033 590.892 35.2821 587.141L21.0895 572.945C17.3397 569.194 15.2332 564.108 15.2332 558.804V230.095C15.2332 224.789 13.125 219.701 9.37263 215.95L6.54871 213.127C2.80291 209.382 0.695276 204.305 0.688183 199.009L0.474006 39.0829Z" stroke="black" stroke-opacity="0.2" stroke-width="2" stroke-miterlimit="10"/>
<g filter="url(#filter0_b_4013_1637)">
<path d="M8.46845 42.7467C8.46489 40.0893 9.5192 37.5398 11.3986 35.661L35.1401 11.9277C37.0153 10.0531 39.5583 9 42.2099 9H248.637C251.289 9 253.832 10.0531 255.707 11.9277L269.187 25.4028C271.062 27.2774 273.605 28.3305 276.256 28.3305H415.071C417.722 28.3305 420.265 27.2778 422.14 25.4039L433.822 13.729C435.697 11.8551 438.24 10.8024 440.891 10.8024H488.685C491.336 10.8024 493.879 11.8555 495.755 13.7301L515.533 33.5015C517.409 35.377 518.463 37.9211 518.463 40.5738V375.476C518.463 378.129 517.409 380.673 515.533 382.548L507.774 390.304C505.898 392.179 504.844 394.723 504.844 397.376V556.784C504.844 559.436 503.79 561.98 501.915 563.855L484.697 581.071C482.821 582.947 480.278 584 477.626 584H52.0792C49.4272 584 46.8839 582.947 45.0085 581.072L25.7258 561.791C23.8502 559.916 22.7964 557.372 22.7964 554.72V228.053C22.7964 225.399 21.7418 222.855 19.8649 220.979L11.6182 212.738C9.74456 210.866 8.69028 208.327 8.68673 205.678L8.46845 42.7467Z" fill="white" fill-opacity="0.1"/>
</g>
<path d="M41.2913 85C39.5095 85 38.6172 82.8457 39.8771 81.5858L43.8771 77.5858C44.2522 77.2107 44.7609 77 45.2913 77H126.634C127.165 77 127.674 77.2107 128.049 77.5858L132.049 81.5858C133.309 82.8457 132.416 85 130.634 85H41.2913Z" fill="#DEDEDE"/>
<path d="M274.098 0.00412128C272.315 0.00260156 271.421 2.15782 272.682 3.41833L279.947 10.6829C280.322 11.058 280.83 11.2687 281.361 11.2687H418.502C419.032 11.2687 419.541 11.058 419.916 10.6829L427.051 3.54753C428.311 2.28818 427.42 0.134831 425.639 0.133312L274.098 0.00412128Z" fill="#DEDEDE"/>
<path opacity="0.3" d="M525.972 405V592.995H503.984L519.651 577.329V412.146L525.972 405Z" fill="#ABABAB"/>
<path d="M1.42578 217L8.84665 224.421V230.742L1.5632 223.459L1.42578 217Z" fill="#DEDEDE"/>
<path d="M1.42578 229.093L8.84665 236.514V242.836L1.5632 235.552L1.42578 229.093Z" fill="#DEDEDE"/>
<path d="M1.42578 241.187L8.84665 248.607V254.929L1.5632 247.645L1.42578 241.187Z" fill="#DEDEDE"/>
<path d="M1.42578 253.28L8.84665 260.7V267.022L1.5632 259.738L1.42578 253.28Z" fill="#DEDEDE"/>
<path d="M1.42578 265.373L8.84665 272.794V279.115L1.5632 271.832L1.42578 265.373Z" fill="#DEDEDE"/>
<path d="M1.42578 277.466L8.84665 284.887V291.209L1.5632 283.925L1.42578 277.466Z" fill="#DEDEDE"/>
<path d="M1.42578 289.56L8.84665 296.98V303.302L1.5632 296.018L1.42578 289.56Z" fill="#DEDEDE"/>
<path d="M1.42578 301.653L8.84665 309.074V562.208L1.5632 554.924L1.42578 301.653Z" fill="#DEDEDE"/>
<path opacity="0.3" d="M2.11328 566L29.598 593.485H2.11328V566Z" fill="#ABABAB"/>
<defs>
<filter id="filter0_b_4013_1637" x="-11.5312" y="-11" width="549.994" height="615" filterUnits="userSpaceOnUse" color-interpolation-filters="sRGB">
<feFlood flood-opacity="0" result="BackgroundImageFix"/>
<feGaussianBlur in="BackgroundImageFix" stdDeviation="10"/>
<feComposite in2="SourceAlpha" operator="in" result="effect1_backgroundBlur_4013_1637"/>
<feBlend mode="normal" in="SourceGraphic" in2="effect1_backgroundBlur_4013_1637" result="shape"/>
</filter>
</defs>
</svg>
