<svg width="48" height="62" viewBox="0 0 48 62" fill="none" xmlns="http://www.w3.org/2000/svg">
<g clip-path="url(#clip0_4659_2258)">
<path d="M26.2081 48.1054V43.7563C27.4144 42.9776 28.2267 41.5944 28.2267 39.9992C28.2267 36.6419 24.6498 34.1588 21.2655 36.4929C21.0168 36.6629 20.8002 36.8917 20.6378 37.153C18.9782 39.8229 19.8998 42.5347 21.794 43.7563V48.1054H26.2081Z" fill="#23FF81"/>
<path d="M5.26846 61.9995H42.7305C45.1912 61.9995 47.2499 60.2312 47.8295 57.8457H0.169434C0.75003 60.2312 2.8117 61.9995 5.26846 61.9995Z" fill="#61646B"/>
<path d="M5.26846 61.9995H42.7305C45.1912 61.9995 47.2499 60.2312 47.8295 57.8457H0.169434C0.75003 60.2312 2.8117 61.9995 5.26846 61.9995Z" fill="black" fill-opacity="0.2"/>
<path d="M0 56.4809C0 56.9521 0.0641765 57.4065 0.169466 57.8441H47.8295C47.9358 57.4065 47.999 56.9521 47.999 56.4809V55.6035H0V56.4809Z" fill="#23FF81"/>
<path d="M41.3096 18.1176C41.3096 5.07781 28.0762 -4.79147 14.9331 2.45307C9.817 5.27302 6.6914 10.9161 6.6914 16.9684V24.8017H3.29205C1.47305 24.8017 0 26.3434 0 28.2471V55.6049H48V28.2471C48 26.3444 46.527 24.8027 44.708 24.8027H41.2003V18.1186H41.3106L41.3096 18.1176ZM26.2071 43.7563V48.1054H21.7929V43.7563C19.8987 42.5347 18.9772 39.8229 20.6368 37.153C20.7992 36.8927 21.0158 36.664 21.2645 36.4929C24.6488 34.1588 28.2256 36.6419 28.2256 39.9992C28.2256 41.5933 27.4134 42.9776 26.2071 43.7563ZM33.6495 24.8017H14.2813V16.9904C14.2813 14.1233 15.6611 11.4293 17.9744 9.89072C25.2414 5.05997 32.8654 9.91381 33.6495 16.9296V24.8017Z" fill="#61646B"/>
<path d="M41.3096 18.1176C41.3096 5.07781 28.0762 -4.79147 14.9331 2.45307C9.817 5.27302 6.6914 10.9161 6.6914 16.9684V24.8017H3.29205C1.47305 24.8017 0 26.3434 0 28.2471V55.6049H48V28.2471C48 26.3444 46.527 24.8027 44.708 24.8027H41.2003V18.1186H41.3106L41.3096 18.1176ZM26.2071 43.7563V48.1054H21.7929V43.7563C19.8987 42.5347 18.9772 39.8229 20.6368 37.153C20.7992 36.8927 21.0158 36.664 21.2645 36.4929C24.6488 34.1588 28.2256 36.6419 28.2256 39.9992C28.2256 41.5933 27.4134 42.9776 26.2071 43.7563ZM33.6495 24.8017H14.2813V16.9904C14.2813 14.1233 15.6611 11.4293 17.9744 9.89072C25.2414 5.05997 32.8654 9.91381 33.6495 16.9296V24.8017Z" fill="black" fill-opacity="0.2"/>
</g>
<defs>
<clipPath id="clip0_4659_2258">
<rect width="48" height="62" fill="white"/>
</clipPath>
</defs>
</svg>
