<svg width="78" height="113" viewBox="0 0 78 113" fill="none" xmlns="http://www.w3.org/2000/svg">
<path d="M63.0382 51.1658H56.3602V30.1367C56.3602 25.4803 54.5544 21.1028 51.275 17.8102C47.9956 14.5177 43.6354 12.7046 38.9976 12.7046C34.3598 12.7046 29.9996 14.5177 26.7202 17.8102C23.4408 21.1028 21.635 25.4803 21.635 30.1367V51.1658H14.957V30.1367C14.957 26.8799 15.5931 23.7187 16.8474 20.7407C18.0584 17.8661 19.7913 15.2854 21.9984 13.0695C24.2054 10.8542 26.7759 9.1143 29.639 7.89797C32.6046 6.63862 35.7532 6 38.9976 6C42.242 6 45.3906 6.63862 48.3562 7.89797C51.2193 9.11375 53.7898 10.8536 55.9968 13.0695C58.2033 15.2848 59.9363 17.8661 61.1478 20.7407C62.4021 23.7187 63.0382 26.8799 63.0382 30.1367V51.1658Z" fill="#777777"/>
<path d="M55.3553 43.1953H64.0366C64.3438 43.1953 64.5931 43.4456 64.5931 43.754V46.8829H54.7988V43.754C54.7988 43.4456 55.0481 43.1953 55.3553 43.1953Z" fill="#4F4F4F"/>
<path d="M67.92 45.8789H10.073C8.37581 45.8789 7 47.2602 7 48.9642V105.891C7 107.595 8.37581 108.976 10.073 108.976H67.92C69.6172 108.976 70.993 107.595 70.993 105.891V48.9642C70.993 47.2602 69.6172 45.8789 67.92 45.8789Z" fill="#1FAB5E"/>
<path d="M61.0068 98.0619C60.8532 98.0619 60.7285 97.9367 60.7285 97.7825V57.3848C60.7285 57.2306 60.8532 57.1055 61.0068 57.1055C61.1604 57.1055 61.285 57.2306 61.285 57.3848V97.7825C61.285 97.9367 61.1604 98.0619 61.0068 98.0619Z" fill="#4F4F4F"/>
<path d="M70.9771 59.1836H51.0401C50.4765 59.1836 50.0195 59.6424 50.0195 60.2083V63.3198C50.0195 63.8857 50.4765 64.3445 51.0401 64.3445H70.9771C71.5408 64.3445 71.9977 63.8857 71.9977 63.3198V60.2083C71.9977 59.6424 71.5408 59.1836 70.9771 59.1836Z" fill="#4F4F4F"/>
<path d="M70.9771 69.625H51.0401C50.4765 69.625 50.0195 70.0838 50.0195 70.6497V73.7612C50.0195 74.3271 50.4765 74.7859 51.0401 74.7859H70.9771C71.5408 74.7859 71.9977 74.3271 71.9977 73.7612V70.6497C71.9977 70.0838 71.5408 69.625 70.9771 69.625Z" fill="#4F4F4F"/>
<path d="M70.9771 80.0625H51.0401C50.4765 80.0625 50.0195 80.5213 50.0195 81.0872V84.1987C50.0195 84.7646 50.4765 85.2234 51.0401 85.2234H70.9771C71.5408 85.2234 71.9977 84.7646 71.9977 84.1987V81.0872C71.9977 80.5213 71.5408 80.0625 70.9771 80.0625Z" fill="#4F4F4F"/>
<path d="M70.9771 90.5078H51.0401C50.4765 90.5078 50.0195 90.9666 50.0195 91.5325V94.644C50.0195 95.2099 50.4765 95.6687 51.0401 95.6687H70.9771C71.5408 95.6687 71.9977 95.2099 71.9977 94.644V91.5325C71.9977 90.9666 71.5408 90.5078 70.9771 90.5078Z" fill="#4F4F4F"/>
<path d="M17.9416 30.1162C17.8442 30.5817 17.1563 30.5174 17.1185 30.0436C16.9688 28.1652 17.1357 26.2633 17.5492 24.4179C19.0529 17.5283 24.5304 11.8053 31.2095 9.571C31.2212 9.56709 31.2329 9.56318 31.244 9.55927C31.7432 9.39501 32.3319 10.0426 31.628 10.5063C31.4577 10.6186 31.3002 10.703 31.1811 10.7683C22.6044 15.4739 19.2482 23.8714 17.941 30.1162H17.9416Z" fill="#EFEFE8"/>
</svg>
