<svg width="380" height="310" viewBox="0 0 380 310" fill="none" xmlns="http://www.w3.org/2000/svg">
<path d="M378.899 294.115C378.899 296.214 378.165 298.248 376.824 299.864L371.943 305.743C370.233 307.803 367.695 308.994 365.018 308.994H164.894C163.365 308.994 161.862 308.605 160.525 307.862L152.429 303.367C150.796 302.459 148.958 301.983 147.089 301.983H14.082C11.5017 301.983 9.04552 300.876 7.33714 298.942L3.25516 294.322C1.80201 292.677 1 290.558 1 288.363V24.3829C1 21.9985 1.94619 19.7115 3.63083 18.0241L17.9394 3.69204C19.6277 2.00102 21.9191 1.05078 24.3086 1.05078H177.667C179.638 1.05078 181.554 1.69789 183.122 2.89272L187.526 6.24882C189.442 7.70916 191.784 8.50007 194.193 8.50007H359.039C361.215 8.50007 363.318 9.28876 364.958 10.7201L375.818 20.2011C377.776 21.9103 378.899 24.3822 378.899 26.9811V294.115Z" fill="url(#paint0_linear_4099_5475)" fill-opacity="0.1" stroke="#ABABAB" stroke-width="2"/>
<defs>
<linearGradient id="paint0_linear_4099_5475" x1="189.924" y1="309.994" x2="189.924" y2="0.0507812" gradientUnits="userSpaceOnUse">
<stop stop-color="#39FF53" stop-opacity="0.99"/>
<stop offset="0.07" stop-color="#39FF53" stop-opacity="0.8"/>
<stop offset="0.14" stop-color="#39FF53" stop-opacity="0.64"/>
<stop offset="0.22" stop-color="#39FF53" stop-opacity="0.49"/>
<stop offset="0.3" stop-color="#39FF53" stop-opacity="0.37"/>
<stop offset="0.39" stop-color="#39FF53" stop-opacity="0.27"/>
<stop offset="0.49" stop-color="#39FF53" stop-opacity="0.19"/>
<stop offset="0.6" stop-color="#39FF53" stop-opacity="0.14"/>
<stop offset="0.74" stop-color="#39FF53" stop-opacity="0.11"/>
<stop offset="1" stop-color="#39FF53" stop-opacity="0.1"/>
</linearGradient>
</defs>
</svg>
