<svg width="380" height="310" viewBox="0 0 380 310" fill="none" xmlns="http://www.w3.org/2000/svg">
<path d="M378.899 294.064C378.899 296.164 378.165 298.197 376.824 299.813L371.943 305.692C370.233 307.752 367.695 308.944 365.018 308.944H164.894C163.365 308.944 161.862 308.554 160.525 307.812L152.429 303.316C150.796 302.409 148.958 301.932 147.089 301.932H14.082C11.5017 301.932 9.04552 300.825 7.33714 298.891L3.25516 294.271C1.80201 292.626 1 290.507 1 288.312V24.3321C1 21.9477 1.94619 19.6608 3.63083 17.9734L17.9394 3.64126C19.6277 1.95024 21.9191 1 24.3086 1H177.667C179.638 1 181.554 1.64711 183.122 2.84194L187.526 6.19803C189.442 7.65838 191.784 8.44929 194.193 8.44929H359.039C361.215 8.44929 363.318 9.23798 364.958 10.6693L375.818 20.1504C377.776 21.8595 378.899 24.3315 378.899 26.9303V294.064Z" fill="#F4F4F4" fill-opacity="0.1" stroke="#ABABAB" stroke-width="2"/>
<path d="M1.5 132.5H194.5L215 112H378" stroke="#5A5A5A"/>
<path d="M344.25 120.001L335.706 128.545L292.374 128.545L300.918 120.001L344.25 120.001Z" fill="#292929"/>
<path d="M295.117 120.001L286.217 128.545L273.756 128.545L282.657 120.001L295.117 120.001Z" fill="#292929"/>
<path d="M276.203 120.001L267.303 128.545L254.842 128.545L263.743 120.001L276.203 120.001Z" fill="#292929"/>
<path d="M257.281 120.001L248.381 128.545L235.92 128.545L244.821 120.001L257.281 120.001Z" stroke="#292929"/>
<path d="M238.359 120.001L229.459 128.545L216.998 128.545L225.899 120.001L238.359 120.001Z" stroke="#292929"/>
</svg>
