<svg width="1080" height="582" viewBox="0 0 1080 582" fill="none" xmlns="http://www.w3.org/2000/svg">
<path d="M261.394 574.866C255.54 568.445 260.095 558.128 268.783 558.128L413.752 558.128C416.401 558.128 418.941 557.077 420.816 555.206L443.14 532.922C445.015 531.051 447.556 530 450.205 530H591.73C594.379 530 596.92 531.051 598.795 532.922L617.566 551.659C623.874 557.956 619.415 568.737 610.501 568.737H491.922C490.376 568.737 488.852 569.095 487.468 569.783L471.407 577.774C470.023 578.462 468.498 578.82 466.953 578.82H269.415C266.602 578.82 263.92 577.636 262.025 575.558L261.394 574.866Z" fill="#DEDEDE"/>
<path d="M965.678 21.6097L1040.75 90.035C1046.98 95.7196 1050.54 103.768 1050.54 112.207L1050.54 499.327C1050.54 508.166 1046.64 516.555 1039.88 522.255L1004.04 552.5" stroke="#DEDEDE" stroke-width="3" stroke-miterlimit="10"/>
<path d="M917.176 24.2274C917.978 23.4271 917.411 22.057 916.279 22.057H848.769C846.12 22.057 843.579 21.006 841.704 19.1345L829.568 7.02068L826.464 3.92255C824.589 2.05114 822.048 1.00008 819.399 1.00008H688.976C687.775 1.00008 686.645 1.57083 685.932 2.53778L685.564 3.03687C684.665 4.25645 684.793 5.95026 685.866 7.02068L687.926 9.07579C689.801 10.9453 692.34 11.9952 694.988 11.9952H805.984C808.633 11.9952 811.174 13.0462 813.048 14.9177L826.618 28.4628C828.493 30.3342 831.034 31.3853 833.683 31.3853H905.869C908.518 31.3853 911.058 30.3342 912.933 28.4628L917.176 24.2274Z" fill="#DEDEDE"/>
<path d="M245.517 9.82801C242.3 12.9571 244.515 18.4126 249.003 18.4126L260.668 18.4126C261.993 18.4126 263.263 17.8871 264.201 16.9514L270.336 10.8277C271.273 9.89202 272.543 9.36648 273.868 9.36648H290.514C291.298 9.36648 292.05 9.05533 292.605 8.50133C294.472 6.63718 293.152 3.44574 290.514 3.44574H254.111C252.809 3.44574 251.558 3.95352 250.625 4.86114L245.517 9.82801Z" fill="#DEDEDE"/>
<path d="M112.64 546.235C112.703 546.091 112.671 545.923 112.56 545.812L83.6835 516.988C81.8087 515.117 79.2679 514.066 76.6189 514.066H56.5695C53.9205 514.066 51.3797 513.015 49.5049 511.143L33.0744 494.743C31.2016 492.873 30.1461 490.338 30.1391 487.692L29.9588 419.864C29.9517 417.201 31.0071 414.645 32.891 412.763L36.9988 408.659C38.8763 406.783 39.9312 404.238 39.9312 401.584V177.428C39.9312 176.596 38.9946 176.109 38.3132 176.586C38.2645 176.62 38.2189 176.659 38.1768 176.701L27.451 187.407C25.5717 189.283 24.5156 191.829 24.5156 194.484L24.5142 395.764C24.5142 398.419 23.4581 400.965 21.5788 402.841L2.94907 421.437C1.06975 423.313 0.0136719 425.859 0.0136719 428.514V474.342C0.0136719 476.997 1.06975 479.543 2.94907 481.419L12.9945 491.446C14.8738 493.322 15.9299 495.868 15.9299 498.524V511C15.9299 513.655 16.9857 516.201 18.8645 518.077L54.9232 554.077C56.7981 555.949 59.3392 557 61.9886 557H101.363C105.319 557 108.903 554.668 110.506 551.051L112.64 546.235Z" fill="#DEDEDE"/>
<path d="M1056.94 581.381C1056.02 581.381 1055.27 580.634 1055.27 579.712C1055.27 578.79 1054.52 578.043 1053.6 578.043H838.73C837.218 578.043 835.768 578.643 834.698 579.712C833.628 580.781 832.177 581.381 830.665 581.381L268.993 581.381C266.343 581.381 263.801 580.329 261.926 578.457L245.221 561.771C243.348 559.9 240.809 558.848 238.161 558.846L61.7846 558.73C59.1367 558.728 56.5976 557.676 54.7242 555.805L18.8082 519.93C16.9303 518.054 15.8752 515.509 15.8752 512.855V500.283C15.8752 497.629 14.82 495.083 12.942 493.208L2.93326 483.211C1.05525 481.335 3.02842e-05 478.79 8.41804e-05 476.135L0.00118673 421.836C0.00124062 419.182 1.05633 416.637 2.93404 414.762L21.2967 396.419C23.1745 394.544 24.2296 391.998 24.2296 389.344L24.2291 106.375C24.2291 103.721 25.2843 101.176 27.1622 99.3002L40.1037 86.3737L42.1837 84.2961C44.0616 82.4204 45.1167 79.8751 45.1167 77.2209V10.0001C45.1167 4.47729 49.5939 0.00012207 55.1167 0.00012207H349.658H362.206L818.026 6.10352e-05C820.676 6.10352e-05 823.218 1.05206 825.093 2.92493L828.013 5.8418L840.124 17.9385C841.999 19.8114 844.541 20.8633 847.191 20.8633H988.469C991.119 20.8633 993.661 21.9153 995.536 23.7881L1013.07 41.3053C1014.95 43.1782 1017.49 44.2301 1020.14 44.2301H1059.47C1065 44.2301 1069.47 48.7073 1069.47 54.2301L1069.47 555.014C1069.47 556.671 1070.82 558.014 1072.47 558.014L1076.5 558.014C1078.16 558.014 1079.5 559.358 1079.5 561.014V578.381C1079.5 580.038 1078.16 581.381 1076.5 581.381H1056.94ZM1053.18 575.54C1054.34 575.54 1055.27 574.605 1055.27 573.453C1055.27 572.301 1054.34 571.367 1053.18 571.367H843.916C843.363 571.367 842.833 571.586 842.442 571.977C841.126 573.291 842.057 575.54 843.916 575.54H1053.18ZM1066.97 69.3266C1066.97 63.8221 1062.52 59.3527 1057.01 59.3267L1045.18 59.2709C1042.54 59.2585 1040.02 58.2076 1038.16 56.3463L1031.46 49.6585C1029.59 47.7857 1027.05 46.7337 1024.4 46.7337H1019.3C1016.65 46.7337 1014.11 45.6818 1012.24 43.8089L994.7 26.2917C992.825 24.4189 990.283 23.3669 987.633 23.3669H846.355C843.705 23.3669 841.163 22.3149 839.288 20.4421L827.599 8.7666C825.724 6.8938 823.183 5.8418 820.532 5.8418L382.963 5.84186C380.358 5.84186 377.855 6.85852 375.989 8.67548L349.227 34.7204C347.36 36.5374 344.858 37.554 342.253 37.554H66.801C64.1509 37.554 61.6091 38.606 59.734 40.4789L50.5565 49.6459C48.6786 51.5215 47.6235 54.0668 47.6234 56.7209L47.6233 78.0555C47.6232 80.7097 46.5681 83.2549 44.6902 85.1306L39.6859 90.1291L29.6687 100.135C27.7908 102.01 26.7356 104.556 26.7357 107.21L26.7361 396.871C26.7361 399.516 25.6883 402.053 23.8221 403.927L21.0829 406.678C19.2168 408.552 18.169 411.089 18.169 413.734L18.1684 511.643C18.1684 514.289 19.2175 516.828 21.0859 518.702L55.5543 553.283C57.4306 555.165 59.9791 556.223 62.6369 556.223H90.3162C92.9408 556.223 95.4602 555.191 97.3308 553.35L99.8479 550.873C101.718 549.032 104.238 548 106.863 548H251.525C254.175 548 256.717 549.052 258.592 550.925L274.459 566.773C276.334 568.646 278.876 569.698 281.526 569.698L826.381 569.698C829.032 569.698 831.573 568.646 833.448 566.773L839.289 560.939C841.164 559.066 843.706 558.014 846.356 558.014H990.14C992.79 558.014 995.332 559.066 997.207 560.939L1002.21 565.939C1004.09 567.811 1006.63 568.863 1009.28 568.863H1052.27C1053.93 568.863 1055.27 567.52 1055.27 565.863V561.014C1055.27 559.357 1056.61 558.014 1058.27 558.014H1063.97C1065.62 558.014 1066.97 556.671 1066.97 555.014L1066.97 69.3266Z" fill="#61646B"/>
<path d="M1056.94 581.381C1056.02 581.381 1055.27 580.634 1055.27 579.712C1055.27 578.79 1054.52 578.043 1053.6 578.043H838.73C837.218 578.043 835.768 578.643 834.698 579.712C833.628 580.781 832.177 581.381 830.665 581.381L268.993 581.381C266.343 581.381 263.801 580.329 261.926 578.457L245.221 561.771C243.348 559.9 240.809 558.848 238.161 558.846L61.7846 558.73C59.1367 558.728 56.5976 557.676 54.7242 555.805L18.8082 519.93C16.9303 518.054 15.8752 515.509 15.8752 512.855V500.283C15.8752 497.629 14.82 495.083 12.942 493.208L2.93326 483.211C1.05525 481.335 3.02842e-05 478.79 8.41804e-05 476.135L0.00118673 421.836C0.00124062 419.182 1.05633 416.637 2.93404 414.762L21.2967 396.419C23.1745 394.544 24.2296 391.998 24.2296 389.344L24.2291 106.375C24.2291 103.721 25.2843 101.176 27.1622 99.3002L40.1037 86.3737L42.1837 84.2961C44.0616 82.4204 45.1167 79.8751 45.1167 77.2209V10.0001C45.1167 4.47729 49.5939 0.00012207 55.1167 0.00012207H349.658H362.206L818.026 6.10352e-05C820.676 6.10352e-05 823.218 1.05206 825.093 2.92493L828.013 5.8418L840.124 17.9385C841.999 19.8114 844.541 20.8633 847.191 20.8633H988.469C991.119 20.8633 993.661 21.9153 995.536 23.7881L1013.07 41.3053C1014.95 43.1782 1017.49 44.2301 1020.14 44.2301H1059.47C1065 44.2301 1069.47 48.7073 1069.47 54.2301L1069.47 555.014C1069.47 556.671 1070.82 558.014 1072.47 558.014L1076.5 558.014C1078.16 558.014 1079.5 559.358 1079.5 561.014V578.381C1079.5 580.038 1078.16 581.381 1076.5 581.381H1056.94ZM1053.18 575.54C1054.34 575.54 1055.27 574.605 1055.27 573.453C1055.27 572.301 1054.34 571.367 1053.18 571.367H843.916C843.363 571.367 842.833 571.586 842.442 571.977C841.126 573.291 842.057 575.54 843.916 575.54H1053.18ZM1066.97 69.3266C1066.97 63.8221 1062.52 59.3527 1057.01 59.3267L1045.18 59.2709C1042.54 59.2585 1040.02 58.2076 1038.16 56.3463L1031.46 49.6585C1029.59 47.7857 1027.05 46.7337 1024.4 46.7337H1019.3C1016.65 46.7337 1014.11 45.6818 1012.24 43.8089L994.7 26.2917C992.825 24.4189 990.283 23.3669 987.633 23.3669H846.355C843.705 23.3669 841.163 22.3149 839.288 20.4421L827.599 8.7666C825.724 6.8938 823.183 5.8418 820.532 5.8418L382.963 5.84186C380.358 5.84186 377.855 6.85852 375.989 8.67548L349.227 34.7204C347.36 36.5374 344.858 37.554 342.253 37.554H66.801C64.1509 37.554 61.6091 38.606 59.734 40.4789L50.5565 49.6459C48.6786 51.5215 47.6235 54.0668 47.6234 56.7209L47.6233 78.0555C47.6232 80.7097 46.5681 83.2549 44.6902 85.1306L39.6859 90.1291L29.6687 100.135C27.7908 102.01 26.7356 104.556 26.7357 107.21L26.7361 396.871C26.7361 399.516 25.6883 402.053 23.8221 403.927L21.0829 406.678C19.2168 408.552 18.169 411.089 18.169 413.734L18.1684 511.643C18.1684 514.289 19.2175 516.828 21.0859 518.702L55.5543 553.283C57.4306 555.165 59.9791 556.223 62.6369 556.223H90.3162C92.9408 556.223 95.4602 555.191 97.3308 553.35L99.8479 550.873C101.718 549.032 104.238 548 106.863 548H251.525C254.175 548 256.717 549.052 258.592 550.925L274.459 566.773C276.334 568.646 278.876 569.698 281.526 569.698L826.381 569.698C829.032 569.698 831.573 568.646 833.448 566.773L839.289 560.939C841.164 559.066 843.706 558.014 846.356 558.014H990.14C992.79 558.014 995.332 559.066 997.207 560.939L1002.21 565.939C1004.09 567.811 1006.63 568.863 1009.28 568.863H1052.27C1053.93 568.863 1055.27 567.52 1055.27 565.863V561.014C1055.27 559.357 1056.61 558.014 1058.27 558.014H1063.97C1065.62 558.014 1066.97 556.671 1066.97 555.014L1066.97 69.3266Z" fill="black" fill-opacity="0.2"/>
<path d="M1080 292V394C1080 394.552 1079.55 395 1079 395C1078.45 395 1078 394.552 1078 394V292C1078 291.448 1078.45 291 1079 291C1079.55 291 1080 291.448 1080 292Z" fill="#61646B"/>
<path d="M1080 292V394C1080 394.552 1079.55 395 1079 395C1078.45 395 1078 394.552 1078 394V292C1078 291.448 1078.45 291 1079 291C1079.55 291 1080 291.448 1080 292Z" fill="black" fill-opacity="0.2"/>
<path d="M471.861 11.1119C473.662 11.1119 475.123 12.5695 475.123 14.3675C475.123 16.1655 473.662 17.623 471.861 17.623C470.06 17.623 468.6 16.1655 468.6 14.3675C468.6 12.5695 470.06 11.1119 471.861 11.1119Z" fill="#61646B"/>
<path d="M471.861 11.1119C473.662 11.1119 475.123 12.5695 475.123 14.3675C475.123 16.1655 473.662 17.623 471.861 17.623C470.06 17.623 468.6 16.1655 468.6 14.3675C468.6 12.5695 470.06 11.1119 471.861 11.1119Z" fill="black" fill-opacity="0.2"/>
<path d="M484.75 17.623C482.949 17.623 481.488 16.1646 481.488 14.3675C481.488 12.5704 482.949 11.1119 484.75 11.1119C486.55 11.1119 488.011 12.5704 488.011 14.3675C488.011 16.1646 486.55 17.623 484.75 17.623Z" fill="#61646B"/>
<path d="M484.75 17.623C482.949 17.623 481.488 16.1646 481.488 14.3675C481.488 12.5704 482.949 11.1119 484.75 11.1119C486.55 11.1119 488.011 12.5704 488.011 14.3675C488.011 16.1646 486.55 17.623 484.75 17.623Z" fill="black" fill-opacity="0.2"/>
<path d="M497.638 11.1119C499.44 11.1119 500.9 12.5695 500.9 14.3675C500.9 16.1655 499.44 17.623 497.638 17.623C495.837 17.623 494.377 16.1655 494.377 14.3675C494.377 12.5695 495.837 11.1119 497.638 11.1119Z" fill="#61646B"/>
<path d="M497.638 11.1119C499.44 11.1119 500.9 12.5695 500.9 14.3675C500.9 16.1655 499.44 17.623 497.638 17.623C495.837 17.623 494.377 16.1655 494.377 14.3675C494.377 12.5695 495.837 11.1119 497.638 11.1119Z" fill="black" fill-opacity="0.2"/>
<path d="M510.527 17.623C508.727 17.623 507.266 16.1646 507.266 14.3675C507.266 12.5704 508.727 11.1119 510.527 11.1119C512.327 11.1119 513.789 12.5704 513.789 14.3675C513.789 16.1646 512.327 17.623 510.527 17.623Z" fill="#61646B"/>
<path d="M510.527 17.623C508.727 17.623 507.266 16.1646 507.266 14.3675C507.266 12.5704 508.727 11.1119 510.527 11.1119C512.327 11.1119 513.789 12.5704 513.789 14.3675C513.789 16.1646 512.327 17.623 510.527 17.623Z" fill="black" fill-opacity="0.2"/>
<path d="M523.414 11.1119C525.215 11.1119 526.675 12.5695 526.675 14.3675C526.675 16.1655 525.215 17.623 523.414 17.623C521.613 17.623 520.152 16.1655 520.152 14.3675C520.152 12.5695 521.613 11.1119 523.414 11.1119Z" fill="#61646B"/>
<path d="M523.414 11.1119C525.215 11.1119 526.675 12.5695 526.675 14.3675C526.675 16.1655 525.215 17.623 523.414 17.623C521.613 17.623 520.152 16.1655 520.152 14.3675C520.152 12.5695 521.613 11.1119 523.414 11.1119Z" fill="black" fill-opacity="0.2"/>
<path d="M536.304 17.623C534.504 17.623 533.043 16.1646 533.043 14.3675C533.043 12.5704 534.504 11.1119 536.304 11.1119C538.105 11.1119 539.566 12.5704 539.566 14.3675C539.566 16.1646 538.105 17.623 536.304 17.623Z" fill="#61646B"/>
<path d="M536.304 17.623C534.504 17.623 533.043 16.1646 533.043 14.3675C533.043 12.5704 534.504 11.1119 536.304 11.1119C538.105 11.1119 539.566 12.5704 539.566 14.3675C539.566 16.1646 538.105 17.623 536.304 17.623Z" fill="black" fill-opacity="0.2"/>
<path d="M549.193 17.623C547.393 17.623 545.932 16.1646 545.932 14.3675C545.932 12.5704 547.393 11.1119 549.193 11.1119C550.994 11.1119 552.455 12.5704 552.455 14.3675C552.455 16.1646 550.994 17.623 549.193 17.623Z" fill="#61646B"/>
<path d="M549.193 17.623C547.393 17.623 545.932 16.1646 545.932 14.3675C545.932 12.5704 547.393 11.1119 549.193 11.1119C550.994 11.1119 552.455 12.5704 552.455 14.3675C552.455 16.1646 550.994 17.623 549.193 17.623Z" fill="black" fill-opacity="0.2"/>
<path d="M562.082 11.1119C563.883 11.1119 565.343 12.5695 565.343 14.3675C565.343 16.1655 563.883 17.623 562.082 17.623C560.281 17.623 558.82 16.1655 558.82 14.3675C558.82 12.5695 560.281 11.1119 562.082 11.1119Z" fill="#61646B"/>
<path d="M562.082 11.1119C563.883 11.1119 565.343 12.5695 565.343 14.3675C565.343 16.1655 563.883 17.623 562.082 17.623C560.281 17.623 558.82 16.1655 558.82 14.3675C558.82 12.5695 560.281 11.1119 562.082 11.1119Z" fill="black" fill-opacity="0.2"/>
<path d="M574.97 17.623C573.17 17.623 571.709 16.1646 571.709 14.3675C571.709 12.5704 573.17 11.1119 574.97 11.1119C576.771 11.1119 578.232 12.5704 578.232 14.3675C578.232 16.1646 576.771 17.623 574.97 17.623Z" fill="#61646B"/>
<path d="M574.97 17.623C573.17 17.623 571.709 16.1646 571.709 14.3675C571.709 12.5704 573.17 11.1119 574.97 11.1119C576.771 11.1119 578.232 12.5704 578.232 14.3675C578.232 16.1646 576.771 17.623 574.97 17.623Z" fill="black" fill-opacity="0.2"/>
<path d="M587.859 17.623C586.059 17.623 584.598 16.1646 584.598 14.3675C584.598 12.5704 586.059 11.1119 587.859 11.1119C589.66 11.1119 591.121 12.5704 591.121 14.3675C591.121 16.1646 589.66 17.623 587.859 17.623Z" fill="#61646B"/>
<path d="M587.859 17.623C586.059 17.623 584.598 16.1646 584.598 14.3675C584.598 12.5704 586.059 11.1119 587.859 11.1119C589.66 11.1119 591.121 12.5704 591.121 14.3675C591.121 16.1646 589.66 17.623 587.859 17.623Z" fill="black" fill-opacity="0.2"/>
<path d="M600.75 17.623C598.949 17.623 597.488 16.1646 597.488 14.3675C597.488 12.5704 598.949 11.1119 600.75 11.1119C602.55 11.1119 604.011 12.5704 604.011 14.3675C604.011 16.1646 602.55 17.623 600.75 17.623Z" fill="#61646B"/>
<path d="M600.75 17.623C598.949 17.623 597.488 16.1646 597.488 14.3675C597.488 12.5704 598.949 11.1119 600.75 11.1119C602.55 11.1119 604.011 12.5704 604.011 14.3675C604.011 16.1646 602.55 17.623 600.75 17.623Z" fill="black" fill-opacity="0.2"/>
</svg>
