<svg width="240" height="302" viewBox="0 0 240 302" fill="none" xmlns="http://www.w3.org/2000/svg">
<path d="M85.4759 9.45575L76.5664 0.844727H159.258L150.348 9.45575H85.4759Z" fill="#1FAB5E"/>
<path d="M0 3.37624V47.9987C0 48.8197 0.328914 49.6065 0.913241 50.1833L12.1726 61.297C12.7569 61.8737 13.0858 62.6606 13.0858 63.4816V240.499C13.0858 242.194 11.7115 243.568 10.0162 243.568H3.90486C2.20957 243.568 0.835266 244.942 0.835266 246.638V298.623C0.835266 300.318 2.20957 301.693 3.90487 301.693H236.93C238.626 301.693 240 300.318 240 298.623V206.004C240 204.309 238.626 202.935 236.93 202.935H228.87C227.175 202.935 225.8 201.561 225.8 199.865V81.1446C225.8 79.4493 227.175 78.075 228.87 78.075H236.93C238.626 78.075 240 76.7007 240 75.0054V5.2599C240 3.56461 238.626 2.1903 236.93 2.1903H168.294C167.498 2.1903 166.733 2.49952 166.161 3.05271L155.695 13.1681C155.123 13.7213 154.358 14.0305 153.562 14.0305H81.1481C80.3521 14.0305 79.5872 13.7213 79.0149 13.1681L66.5999 1.16905C66.0276 0.615857 65.2627 0.306641 64.4667 0.306641H3.06959C1.3743 0.306641 0 1.68095 0 3.37624Z" fill="white"/>
</svg>
