<svg width="65" height="104" viewBox="0 0 65 104" fill="none" xmlns="http://www.w3.org/2000/svg">
<g id="Group 212">
<path id="Vector" d="M56.0382 45.6658H49.3602V24.6367C49.3602 19.9803 47.5544 15.6028 44.275 12.3102C40.9956 9.01768 36.6354 7.20464 31.9976 7.20464C27.3598 7.20464 22.9996 9.01768 19.7202 12.3102C16.4408 15.6028 14.635 19.9803 14.635 24.6367V45.6658H7.95703V24.6367C7.95703 21.3799 8.5931 18.2187 9.84744 15.2407C11.0584 12.3661 12.7913 9.78537 14.9984 7.56948C17.2054 5.35416 19.7759 3.6143 22.639 2.39797C25.6046 1.13862 28.7532 0.5 31.9976 0.5C35.242 0.5 38.3906 1.13862 41.3562 2.39797C44.2193 3.61375 46.7898 5.3536 48.9968 7.56948C51.2033 9.78481 52.9363 12.3661 54.1478 15.2407C55.4021 18.2187 56.0382 21.3799 56.0382 24.6367V45.6658Z" fill="#777777"/>
<path id="Vector_2" d="M48.3553 37.6946H57.0366C57.3438 37.6946 57.5931 37.9449 57.5931 38.2533V41.3821H47.7988V38.2533C47.7988 37.9449 48.0481 37.6946 48.3553 37.6946Z" fill="#4F4F4F"/>
<path id="Vector_3" d="M60.92 40.3784H3.07296C1.37581 40.3784 0 41.7597 0 43.4637V100.391C0 102.094 1.37581 103.476 3.07296 103.476H60.92C62.6172 103.476 63.993 102.094 63.993 100.391V43.4637C63.993 41.7597 62.6172 40.3784 60.92 40.3784Z" fill="#65A864"/>
<path id="Vector_4" d="M54.0068 92.5621C53.8532 92.5621 53.7285 92.437 53.7285 92.2827V51.8851C53.7285 51.7309 53.8532 51.6057 54.0068 51.6057C54.1604 51.6057 54.285 51.7309 54.285 51.8851V92.2827C54.285 92.437 54.1604 92.5621 54.0068 92.5621Z" fill="#4F4F4F"/>
<path id="Vector_5" d="M63.9771 53.6838H44.0401C43.4765 53.6838 43.0195 54.1426 43.0195 54.7085V57.82C43.0195 58.386 43.4765 58.8447 44.0401 58.8447H63.9771C64.5408 58.8447 64.9977 58.386 64.9977 57.82V54.7085C64.9977 54.1426 64.5408 53.6838 63.9771 53.6838Z" fill="#4F4F4F"/>
<path id="Vector_6" d="M63.9771 64.125H44.0401C43.4765 64.125 43.0195 64.5838 43.0195 65.1497V68.2612C43.0195 68.8271 43.4765 69.2859 44.0401 69.2859H63.9771C64.5408 69.2859 64.9977 68.8271 64.9977 68.2612V65.1497C64.9977 64.5838 64.5408 64.125 63.9771 64.125Z" fill="#4F4F4F"/>
<path id="Vector_7" d="M63.9771 74.5618H44.0401C43.4765 74.5618 43.0195 75.0205 43.0195 75.5865V78.698C43.0195 79.2639 43.4765 79.7227 44.0401 79.7227H63.9771C64.5408 79.7227 64.9977 79.2639 64.9977 78.698V75.5865C64.9977 75.0205 64.5408 74.5618 63.9771 74.5618Z" fill="#4F4F4F"/>
<path id="Vector_8" d="M63.9771 85.0073H44.0401C43.4765 85.0073 43.0195 85.4661 43.0195 86.032V89.1435C43.0195 89.7095 43.4765 90.1682 44.0401 90.1682H63.9771C64.5408 90.1682 64.9977 89.7095 64.9977 89.1435V86.032C64.9977 85.4661 64.5408 85.0073 63.9771 85.0073Z" fill="#4F4F4F"/>
<path id="Vector_9" d="M10.9416 24.6155C10.8442 25.0809 10.1563 25.0167 10.1185 24.5429C9.9688 22.6645 10.1357 20.7626 10.5492 18.9171C12.0529 12.0276 17.5304 6.30459 24.2095 4.07027C24.2212 4.06636 24.2329 4.06245 24.244 4.05854C24.7432 3.89428 25.3319 4.54183 24.628 5.00557C24.4577 5.11787 24.3002 5.20224 24.1811 5.26761C15.6044 9.97315 12.2482 18.3707 10.941 24.6155H10.9416Z" fill="#EFEFE8"/>
</g>
</svg>
