<svg width="73" height="68" viewBox="0 0 73 68" fill="none" xmlns="http://www.w3.org/2000/svg">
<g id="OBJECTS">
<g id="Vector" filter="url(#filter0_d_7155_54277)">
<path d="M62.4087 13.671H54.7302C54.215 11.7821 52.5505 6.60735 48.9639 3.52807C47.8939 2.6033 46.5167 2.10156 45.1098 2.10156C44.7829 2.10156 44.4559 2.13108 44.129 2.18027C42.5239 2.45573 38.9571 3.40017 35.8164 6.65654C32.6756 3.40017 29.1089 2.45573 27.5038 2.18027C27.1769 2.12124 26.8499 2.10156 26.523 2.10156C25.1062 2.10156 23.7389 2.61314 22.6689 3.52807C19.0823 6.61719 17.4178 11.792 16.9026 13.671H10.5121C6.44003 13.671 3.13086 16.9569 3.13086 21.0003V27.4146C3.13086 30.6612 5.27092 33.4256 8.22342 34.3898V56.4366C8.22342 60.4997 11.5524 63.8151 15.6542 63.8151H57.2963C61.3882 63.8151 64.7271 60.5095 64.7271 56.4366V34.3898C67.6796 33.4256 69.8196 30.671 69.8196 27.4146V21.0003C69.8196 16.9569 66.5105 13.671 62.4384 13.671H62.4087Z" fill="white"/>
</g>
<g id="Group">
<g id="Group_2">
<path id="Vector_2" d="M59.8707 27.9766H13.0469V31.9413H59.8707V27.9766Z" fill="#E4100C"/>
<path id="Vector_3" d="M13.0469 31.9531V56.4496C13.0469 57.8762 14.2061 59.0272 15.6427 59.0272H57.2848C58.7214 59.0272 59.8806 57.8762 59.8806 56.4496V31.9531H13.0469Z" fill="#FF2727"/>
</g>
<path id="Vector_4" d="M62.4178 18.4766H10.5014C9.09509 18.4766 7.95508 19.6085 7.95508 21.0049V27.4291C7.95508 28.8255 9.09509 29.9575 10.5014 29.9575H62.4178C63.824 29.9575 64.964 28.8255 64.964 27.4291V21.0049C64.964 19.6085 63.824 18.4766 62.4178 18.4766Z" fill="#FF2727"/>
<path id="Vector_5" d="M41.5927 31.9453H31.3184V59.0194H41.5927V31.9453Z" fill="#F8D73B"/>
<path id="Vector_6" d="M41.5927 18.4766H31.3184V29.9575H41.5927V18.4766Z" fill="#E9B218"/>
<g id="Group_3">
<g id="Group_4">
<path id="Vector_7" d="M46.6438 19.7891C48.8136 22.5437 51.3599 26.046 52.3804 28.3973C52.5785 28.8597 52.1129 29.3319 51.6373 29.1351L46.8915 27.1675C46.6141 27.0495 46.307 27.1675 46.1683 27.4332L43.9985 31.6438C43.7706 32.0767 43.1365 32.0472 42.9681 31.5848C42.0466 29.1745 39.8372 23.6751 37.5684 20.3597C41.9872 20.5958 45.1478 20.1039 46.6537 19.7989L46.6438 19.7891Z" fill="#F8D73B"/>
<path id="Vector_8" d="M24.9456 19.8257C26.4813 17.8777 27.8386 16.2938 28.3439 15.7429C28.4628 15.615 28.6412 15.5461 28.8195 15.5658L35.636 16.2545C35.6955 16.2545 35.7549 16.2742 35.8044 16.3037C35.854 16.284 35.9134 16.2643 35.9729 16.2545L42.7894 15.5658C42.9677 15.5461 43.1461 15.615 43.2649 15.7429C43.7603 16.2938 45.1078 17.8581 46.6336 19.7961C45.1276 20.1011 41.9769 20.593 37.5482 20.3569C37.1519 19.7765 36.7556 19.2649 36.3593 18.8517C36.0521 18.527 35.527 18.527 35.2199 18.8517C34.8335 19.2649 34.4372 19.7765 34.0409 20.3471C29.6716 20.6029 26.511 20.1405 24.9258 19.8257H24.9456Z" fill="#E8C030"/>
<path id="Vector_9" d="M19.2395 28.397C20.26 26.0556 22.7865 22.5729 24.9464 19.8281C26.5316 20.1429 29.6922 20.6053 34.0615 20.3495C31.7827 23.6649 29.5733 29.1742 28.6519 31.5845C28.4735 32.037 27.8394 32.0764 27.6215 31.6435L25.4517 27.4329C25.313 27.1672 25.0058 27.059 24.7284 27.1672L19.9826 29.1348C19.5169 29.3316 19.0414 28.8594 19.2395 28.397Z" fill="#F8D73B"/>
</g>
<g id="Group_5">
<path id="Vector_10" d="M47.7523 14.8359L50.1697 15.377C50.2193 16.5379 49.4861 17.0495 46.9894 17.8168C44.4926 18.5842 40.1035 17.6299 40.1035 17.6299L47.7523 14.8359Z" fill="#DBAB24"/>
<path id="Vector_11" d="M44.9395 6.91954C43.6713 7.13598 40.1441 8.08042 37.687 12.0746H35.8145V17.8889C35.8145 17.8889 40.2432 18.0758 43.2849 17.1805C46.3265 16.2853 48.2684 15.2425 50.1806 15.39C50.1806 15.39 48.9223 9.84141 45.8014 7.16549C45.5636 6.95889 45.2466 6.87035 44.9395 6.91954Z" fill="#F8D73B"/>
</g>
<g id="Group_6">
<path id="Vector_12" d="M23.8671 14.8359L21.4496 15.377C21.4 16.5379 22.1332 17.0495 24.63 17.8168C27.1267 18.5842 31.5158 17.6299 31.5158 17.6299L23.8671 14.8359Z" fill="#DBAB24"/>
<path id="Vector_13" d="M26.6904 6.91954C27.9586 7.13598 31.4857 8.08042 33.9428 12.0746H35.8154V17.8889C35.8154 17.8889 31.3867 18.0758 28.345 17.1805C25.3033 16.2853 23.3614 15.2425 21.4492 15.39C21.4492 15.39 22.7075 9.84141 25.8284 7.16549C26.0662 6.95889 26.3833 6.87035 26.6904 6.91954Z" fill="#F8D73B"/>
</g>
<path id="Vector_14" d="M34.1414 18.125H37.4803C37.7868 18.125 38.0352 17.8783 38.0352 17.5741V12.3206C38.0352 12.0163 37.7868 11.7697 37.4803 11.7697H34.1414C33.835 11.7697 33.5866 12.0163 33.5866 12.3206V17.5741C33.5866 17.8783 33.835 18.125 34.1414 18.125Z" fill="#F2C934"/>
</g>
<path id="Vector_15" d="M41.5927 29.9609H31.3184V31.9482H41.5927V29.9609Z" fill="#DC9E0F"/>
</g>
</g>
<defs>
<filter id="filter0_d_7155_54277" x="1.17086" y="1.12156" width="70.6095" height="65.6309" filterUnits="userSpaceOnUse" color-interpolation-filters="sRGB">
<feFlood flood-opacity="0" result="BackgroundImageFix"/>
<feColorMatrix in="SourceAlpha" type="matrix" values="0 0 0 0 0 0 0 0 0 0 0 0 0 0 0 0 0 0 127 0" result="hardAlpha"/>
<feOffset dy="0.98"/>
<feGaussianBlur stdDeviation="0.98"/>
<feColorMatrix type="matrix" values="0 0 0 0 0.172549 0 0 0 0 0.196078 0 0 0 0 0.207843 0 0 0 0.2 0"/>
<feBlend mode="normal" in2="BackgroundImageFix" result="effect1_dropShadow_7155_54277"/>
<feBlend mode="normal" in="SourceGraphic" in2="effect1_dropShadow_7155_54277" result="shape"/>
</filter>
</defs>
</svg>
