<svg width="65" height="68" viewBox="0 0 65 68" fill="none" xmlns="http://www.w3.org/2000/svg">
<g id="OBJECTS" clip-path="url(#clip0_7155_53966)">
<g id="Vector" filter="url(#filter0_d_7155_53966)">
<path d="M30.1362 64.272C30.1362 64.272 30.1538 64.272 30.1626 64.272C30.9213 64.3328 31.6888 64.3589 32.4475 64.3589C48.8122 64.3589 62.1333 51.2352 62.1333 35.113C62.1333 24.5271 56.4873 14.9842 47.2684 9.76944C46.6156 7.84869 45.3099 4.90237 42.9986 2.92946C42.0634 2.12987 40.8725 1.69531 39.6462 1.69531C39.3639 1.69531 39.0728 1.72139 38.7905 1.76484C37.5554 1.97343 34.8824 2.66873 32.4387 4.9719C29.995 2.66873 27.322 1.97343 26.0869 1.76484C25.8046 1.72139 25.5135 1.69531 25.2312 1.69531C24.0049 1.69531 22.814 2.12987 21.8788 2.92946C19.5675 4.90237 18.2619 7.84869 17.609 9.76944C8.40775 14.9842 2.76172 24.5271 2.76172 35.113C2.76172 50.2965 14.786 63.0987 30.1362 64.272Z" fill="white"/>
</g>
<g id="Group">
<path id="Vector_2" d="M53.9105 35.114C53.9105 21.9555 43.5889 11.1697 30.4883 10.1789C31.1323 10.1268 31.7851 10.1094 32.4467 10.1094C46.4648 10.1094 57.8275 21.3036 57.8275 35.114C57.8275 48.9243 46.4648 60.1186 32.4467 60.1186C31.7851 60.1186 31.1323 60.0925 30.4883 60.049C43.5889 59.0669 53.9105 48.2812 53.9105 35.114Z" fill="#468C21"/>
<path id="Vector_3" d="M30.4886 10.1875C17.3881 11.1696 7.06641 21.9554 7.06641 35.1226C7.06641 48.2897 17.3881 59.0668 30.4886 60.0576C43.5892 59.0755 53.9109 48.2897 53.9109 35.1226C53.9109 21.9554 43.5892 11.1783 30.4886 10.1875ZM32.4471 46.03C31.7766 46.03 31.1238 45.9692 30.4886 45.8562C25.3102 44.9436 21.3756 40.485 21.3756 35.1139C21.3756 29.7427 25.3102 25.2841 30.4886 24.3715C31.1238 24.2586 31.7766 24.1977 32.4471 24.1977C38.5607 24.1977 43.5275 29.0822 43.5275 35.1139C43.5275 41.1456 38.5695 46.03 32.4471 46.03Z" fill="#509F23"/>
<g id="Group_2">
<g id="Group_3">
<path id="Vector_4" d="M40.8446 15.8516C42.5296 17.9722 44.4969 20.6578 45.2908 22.4656C45.4496 22.8219 45.0791 23.1869 44.7174 23.0392L41.0387 21.5269C40.8269 21.44 40.5799 21.5269 40.4741 21.7268L38.7891 24.9599C38.6126 25.2902 38.1186 25.2641 37.9863 24.9165C37.2717 23.0566 35.5603 18.8413 33.8047 16.2861C37.2364 16.4686 39.6801 16.0949 40.8446 15.8516Z" fill="#FF2727"/>
<path id="Vector_5" d="M24.0312 15.8814C25.2222 14.3779 26.272 13.1611 26.6602 12.7439C26.7572 12.6396 26.8896 12.5875 27.0307 12.6049L32.315 13.135C32.3592 13.135 32.4033 13.1524 32.4474 13.1698C32.4915 13.1524 32.5356 13.1437 32.5797 13.135L37.864 12.6049C38.0052 12.5875 38.1375 12.6396 38.2346 12.7439C38.6227 13.1611 39.6637 14.3692 40.8459 15.8554C39.6814 16.09 37.2377 16.4724 33.806 16.2899C33.4972 15.8467 33.1884 15.4469 32.8885 15.1253C32.6503 14.8733 32.2445 14.8733 32.0063 15.1253C31.7063 15.4469 31.3976 15.838 31.0976 16.2725C27.71 16.4638 25.2575 16.1161 24.0312 15.8728V15.8814Z" fill="#C90A0A"/>
<path id="Vector_6" d="M19.6022 22.4707C20.3874 20.6717 22.3459 17.9948 24.0309 15.8828C25.2571 16.1262 27.7096 16.4738 31.0972 16.2826C29.3328 18.8378 27.6214 23.0617 26.9068 24.9217C26.7745 25.2693 26.2804 25.3041 26.104 24.9651L24.419 21.732C24.3132 21.5321 24.0661 21.4452 23.8544 21.5321L20.1757 23.0444C19.814 23.1921 19.4434 22.8358 19.6022 22.4707Z" fill="#FF2727"/>
</g>
<g id="Group_4">
<path id="Vector_7" d="M41.7008 12.0469L43.5798 12.4641C43.6151 13.3592 43.0505 13.7504 41.1185 14.3414C39.1865 14.9324 35.7812 14.2023 35.7812 14.2023L41.7008 12.0556V12.0469Z" fill="#D00500"/>
<path id="Vector_8" d="M39.5225 5.95496C38.5344 6.1201 35.8084 6.84147 33.9029 9.91815H32.4473V14.3854C32.4473 14.3854 35.879 14.5245 38.2345 13.8379C40.5899 13.1513 42.0985 12.3517 43.5805 12.4647C43.5805 12.4647 42.6013 8.1973 40.1841 6.13748C39.9988 5.98104 39.7518 5.91151 39.5136 5.94627L39.5225 5.95496Z" fill="#FF2727"/>
</g>
<g id="Group_5">
<path id="Vector_9" d="M23.1931 12.0469L21.314 12.4641C21.2788 13.3592 21.8434 13.7504 23.7754 14.3414C25.7074 14.9324 29.1126 14.2023 29.1126 14.2023L23.1931 12.0556V12.0469Z" fill="#D00500"/>
<path id="Vector_10" d="M25.3804 5.95496C26.3684 6.1201 29.0944 6.84147 30.9999 9.91815H32.4555V14.3854C32.4555 14.3854 29.0238 14.5245 26.6684 13.8379C24.3129 13.1513 22.8044 12.3517 21.3223 12.4647C21.3223 12.4647 22.3015 8.1973 24.7187 6.13748C24.904 5.98104 25.151 5.91151 25.3892 5.94627L25.3804 5.95496Z" fill="#FF2727"/>
</g>
<path id="Vector_11" d="M31.1509 14.5703H33.7357C33.9744 14.5703 34.168 14.3796 34.168 14.1444V10.1117C34.168 9.87652 33.9744 9.68585 33.7357 9.68585H31.1509C30.9121 9.68585 30.7186 9.87652 30.7186 10.1117V14.1444C30.7186 14.3796 30.9121 14.5703 31.1509 14.5703Z" fill="#DE0B06"/>
</g>
<g id="Group_6">
<g id="Group_7">
<path id="Vector_12" d="M12.7577 32.7422L13.2253 32.8639C12.8636 33.6026 12.0167 34.0111 11.1786 33.8025C11.0992 33.7851 11.0198 33.7591 10.9492 33.7243C11.6991 33.8112 12.4313 33.4114 12.7489 32.7422H12.7577Z" fill="#C90A0A"/>
<path id="Vector_13" d="M11.8223 30.3672C11.9017 30.3759 11.9811 30.3846 12.0605 30.4106C12.8985 30.6192 13.4367 31.3841 13.3926 32.201L12.925 32.0794C12.9691 31.3406 12.5192 30.6453 11.8223 30.3672Z" fill="#C90A0A"/>
<path id="Vector_14" d="M13.2254 32.8681L12.7578 32.7465C12.8107 32.6422 12.846 32.5379 12.8813 32.4249C12.9078 32.3119 12.9254 32.1989 12.9343 32.0859L13.4018 32.2076C13.4018 32.3206 13.3753 32.4336 13.3489 32.5466C13.3224 32.6596 13.2783 32.7725 13.2254 32.8681Z" fill="#DC9C0E"/>
<path id="Vector_15" d="M9.8457 32.0156L12.7569 32.7457C12.4305 33.4149 11.7071 33.8147 10.9573 33.7278C10.2515 33.4497 9.81042 32.7544 9.85453 32.0156H9.8457Z" fill="#FF2727"/>
<path id="Vector_16" d="M12.9249 32.0755L10.0137 31.3455C10.3401 30.6762 11.0635 30.2764 11.8133 30.3634C12.5191 30.6415 12.9602 31.3368 12.9161 32.0755H12.9249Z" fill="#FF2727"/>
<path id="Vector_17" d="M9.89864 31.6653C9.9251 31.5523 9.96921 31.4394 10.0221 31.3438L12.9334 32.0738C12.9334 32.1868 12.9069 32.2998 12.8804 32.4128C12.854 32.5258 12.8099 32.6387 12.7569 32.7343L9.8457 32.0043C9.8457 31.8913 9.87217 31.7783 9.89864 31.6653Z" fill="#E9B218"/>
</g>
<g id="Group_8">
<path id="Vector_18" d="M16.119 33.5859L16.5866 33.7076C16.2249 34.4464 15.378 34.8549 14.5399 34.6463C14.4605 34.6289 14.3811 34.6028 14.3105 34.568C15.0604 34.655 15.7926 34.2552 16.1102 33.5859H16.119Z" fill="#C90A0A"/>
<path id="Vector_19" d="M15.1836 31.2188C15.263 31.2274 15.3424 31.2361 15.4218 31.2622C16.2599 31.4708 16.798 32.2356 16.7539 33.0526L16.2863 32.9309C16.3304 32.1922 15.8805 31.4969 15.1836 31.2188Z" fill="#C90A0A"/>
<path id="Vector_20" d="M16.5867 33.7119L16.1191 33.5902C16.1721 33.4859 16.2074 33.3816 16.2426 33.2686C16.2691 33.1557 16.2868 33.0427 16.2956 32.9297L16.7631 33.0514C16.7631 33.1643 16.7367 33.2773 16.7102 33.3903C16.6837 33.5033 16.6396 33.6163 16.5867 33.7119Z" fill="#DC9C0E"/>
<path id="Vector_21" d="M13.207 32.8594L16.1183 33.5894C15.7919 34.2587 15.0685 34.6585 14.3186 34.5715C13.6128 34.2934 13.1717 33.5981 13.2159 32.8594H13.207Z" fill="#FF2727"/>
<path id="Vector_22" d="M16.2862 32.9271L13.375 32.197C13.7014 31.5278 14.4248 31.128 15.1747 31.2149C15.8804 31.493 16.3215 32.1883 16.2774 32.9271H16.2862Z" fill="#FF2727"/>
<path id="Vector_23" d="M13.26 32.5169C13.2864 32.4039 13.3305 32.2909 13.3835 32.1953L16.2947 32.9254C16.2947 33.0384 16.2682 33.1513 16.2418 33.2643C16.2153 33.3773 16.1712 33.4903 16.1183 33.5859L13.207 32.8558C13.207 32.7429 13.2335 32.6299 13.26 32.5169Z" fill="#E9B218"/>
</g>
<g id="Group_9">
<path id="Vector_24" d="M14.1151 35.2578L14.5827 35.3795C14.221 36.1182 13.3741 36.5267 12.536 36.3181C12.4566 36.3008 12.3772 36.2747 12.3066 36.2399C13.0565 36.3268 13.7887 35.927 14.1063 35.2578H14.1151Z" fill="#C90A0A"/>
<path id="Vector_25" d="M13.1895 32.8828C13.2689 32.8915 13.3482 32.9002 13.4276 32.9263C14.2657 33.1349 14.8039 33.8997 14.7598 34.7167L14.2922 34.595C14.3363 33.8562 13.8864 33.1609 13.1895 32.8828Z" fill="#C90A0A"/>
<path id="Vector_26" d="M14.5926 35.376L14.125 35.2543C14.1779 35.15 14.2132 35.0457 14.2485 34.9327C14.275 34.8197 14.2926 34.7067 14.3014 34.5938L14.769 34.7154C14.769 34.8284 14.7425 34.9414 14.7161 35.0544C14.6896 35.1674 14.6455 35.2804 14.5926 35.376Z" fill="#DC9C0E"/>
<path id="Vector_27" d="M11.2129 34.5234L14.1241 35.2535C13.7977 35.9227 13.0743 36.3225 12.3245 36.2356C11.6187 35.9575 11.1776 35.2622 11.2217 34.5234H11.2129Z" fill="#FF2727"/>
<path id="Vector_28" d="M14.2921 34.5912L11.3809 33.8611C11.7073 33.1919 12.4307 32.7921 13.1805 32.879C13.8863 33.1571 14.3274 33.8524 14.2833 34.5912H14.2921Z" fill="#FF2727"/>
<path id="Vector_29" d="M11.2658 34.1809C11.2923 34.068 11.3364 33.955 11.3893 33.8594L14.3006 34.5894C14.3006 34.7024 14.2741 34.8154 14.2476 34.9284C14.2212 35.0414 14.1771 35.1544 14.1241 35.25L11.2129 34.5199C11.2129 34.4069 11.2394 34.2939 11.2658 34.1809Z" fill="#E9B218"/>
</g>
</g>
<g id="Group_10">
<g id="Group_11">
<path id="Vector_30" d="M17.838 49.3924L18.2968 49.375C18.1733 50.1311 17.5293 50.7308 16.7177 50.7656C16.6383 50.7656 16.5677 50.7656 16.4883 50.7656C17.1852 50.6439 17.7322 50.0877 17.838 49.4011V49.3924Z" fill="#C90A0A"/>
<path id="Vector_31" d="M16.3477 47.4964C16.4182 47.479 16.4976 47.4703 16.577 47.4703C17.3886 47.4356 18.0856 47.9744 18.2708 48.7219L17.8121 48.7393C17.6445 48.0613 17.0534 47.5573 16.3477 47.4964Z" fill="#C90A0A"/>
<path id="Vector_32" d="M18.2977 49.3775L17.839 49.3949C17.8566 49.2906 17.8654 49.1776 17.8566 49.0733C17.8566 48.9603 17.839 48.8561 17.8125 48.7518L18.2712 48.7344C18.2977 48.8387 18.3153 48.943 18.3153 49.0559C18.3153 49.1689 18.3153 49.2732 18.2977 49.3775Z" fill="#DC9C0E"/>
<path id="Vector_33" d="M15.0254 49.5045L17.8396 49.3828C17.7337 50.0694 17.1868 50.617 16.4898 50.7473C15.7841 50.6778 15.193 50.1737 15.0254 49.5045Z" fill="#FF2727"/>
<path id="Vector_34" d="M17.8122 48.7507L14.998 48.8723C15.1039 48.1857 15.6509 47.6382 16.3478 47.5078C17.0536 47.5773 17.6446 48.0814 17.8122 48.7507Z" fill="#FF2727"/>
<path id="Vector_35" d="M14.9805 49.1854C14.9805 49.0725 14.9805 48.9682 14.9981 48.8639L17.8123 48.7422C17.8388 48.8465 17.8564 48.9508 17.8564 49.0638C17.8564 49.1767 17.8564 49.281 17.8388 49.3853L15.0246 49.507C14.9981 49.4027 14.9805 49.2984 14.9805 49.1854Z" fill="#E9B218"/>
</g>
<g id="Group_12">
<path id="Vector_36" d="M21.0939 49.2518L21.5526 49.2344C21.4291 49.9905 20.7851 50.5902 19.9735 50.625C19.8941 50.625 19.8235 50.625 19.7441 50.625C20.4411 50.5033 20.988 49.9471 21.0939 49.2604V49.2518Z" fill="#C90A0A"/>
<path id="Vector_37" d="M19.6035 47.3636C19.6741 47.3462 19.7535 47.3375 19.8329 47.3375C20.6445 47.3028 21.3414 47.8416 21.5267 48.5891L21.068 48.6064C20.9003 47.9285 20.3093 47.4244 19.6035 47.3636Z" fill="#C90A0A"/>
<path id="Vector_38" d="M21.5536 49.2291L21.0948 49.2465C21.1125 49.1422 21.1213 49.0292 21.1125 48.9249C21.1036 48.8206 21.0948 48.7076 21.0684 48.6033L21.5271 48.5859C21.5536 48.6902 21.5712 48.7945 21.5712 48.9075C21.5712 49.0205 21.5712 49.1248 21.5536 49.2291Z" fill="#DC9C0E"/>
<path id="Vector_39" d="M18.2812 49.3717L21.0954 49.25C20.9896 49.9366 20.4426 50.4842 19.7457 50.6145C19.0399 50.545 18.4489 50.0409 18.2812 49.3717Z" fill="#FF2727"/>
<path id="Vector_40" d="M21.0681 48.61L18.2539 48.7317C18.3598 48.0451 18.9067 47.4976 19.6037 47.3672C20.3094 47.4367 20.9005 47.9408 21.0681 48.61Z" fill="#FF2727"/>
<path id="Vector_41" d="M18.2363 49.0526C18.2363 48.9396 18.2363 48.8353 18.254 48.7311L21.0682 48.6094C21.0946 48.7137 21.1123 48.818 21.1123 48.931C21.1123 49.0439 21.1123 49.1482 21.0946 49.2525L18.2804 49.3742C18.254 49.2699 18.2363 49.1656 18.2363 49.0526Z" fill="#E9B218"/>
</g>
<g id="Group_13">
<path id="Vector_42" d="M19.7619 51.2752L20.2206 51.2578C20.0971 52.0139 19.4531 52.6136 18.6415 52.6484C18.5621 52.6484 18.4915 52.6484 18.4121 52.6484C19.109 52.5267 19.656 51.9705 19.7619 51.2839V51.2752Z" fill="#C90A0A"/>
<path id="Vector_43" d="M18.2715 49.387C18.3421 49.3697 18.4215 49.361 18.5009 49.361C19.3125 49.3262 20.0094 49.8651 20.1947 50.6125L19.7359 50.6299C19.5683 49.952 18.9772 49.4479 18.2715 49.387Z" fill="#C90A0A"/>
<path id="Vector_44" d="M20.2118 51.2525L19.753 51.2699C19.7707 51.1656 19.7795 51.0526 19.7707 50.9483C19.7707 50.8353 19.753 50.7311 19.7266 50.6268L20.1853 50.6094C20.2118 50.7137 20.2294 50.818 20.2294 50.9309C20.2294 51.0439 20.2294 51.1482 20.2118 51.2525Z" fill="#DC9C0E"/>
<path id="Vector_45" d="M16.9395 51.3951L19.7536 51.2734C19.6478 51.96 19.1008 52.5076 18.4039 52.638C17.6981 52.5684 17.1071 52.0643 16.9395 51.3951Z" fill="#FF2727"/>
<path id="Vector_46" d="M19.7263 50.6335L16.9121 50.7551C17.018 50.0685 17.5649 49.521 18.2619 49.3906C18.9676 49.4602 19.5587 49.9642 19.7263 50.6335Z" fill="#FF2727"/>
<path id="Vector_47" d="M16.8945 51.0761C16.8945 50.9631 16.8945 50.8588 16.9122 50.7545L19.7264 50.6328C19.7528 50.7371 19.7705 50.8414 19.7705 50.9544C19.7705 51.0674 19.7705 51.1717 19.7528 51.276L16.9386 51.3976C16.9122 51.2933 16.8945 51.189 16.8945 51.0761Z" fill="#E9B218"/>
</g>
</g>
<g id="Group_14">
<g id="Group_15">
<path id="Vector_48" d="M32.535 55.3603L32.9673 55.508C32.5615 56.1772 31.7234 56.4988 30.9559 56.2294C30.8853 56.2033 30.8147 56.1685 30.7441 56.1338C31.4499 56.2728 32.1733 55.9599 32.535 55.3516V55.3603Z" fill="#C90A0A"/>
<path id="Vector_49" d="M31.8555 53.0312C31.926 53.0486 32.0054 53.066 32.076 53.0921C32.8523 53.3615 33.3023 54.1263 33.1876 54.8912L32.7553 54.7434C32.8523 54.0481 32.4995 53.3528 31.8555 53.0312Z" fill="#C90A0A"/>
<path id="Vector_50" d="M32.9674 55.507L32.5352 55.3593C32.5881 55.2637 32.641 55.1681 32.6763 55.0638C32.7116 54.9595 32.7381 54.8552 32.7557 54.7422L33.188 54.8899C33.1703 54.9942 33.1439 55.1072 33.1086 55.2115C33.0733 55.3158 33.0204 55.4201 32.9674 55.507Z" fill="#DC9C0E"/>
<path id="Vector_51" d="M29.8444 54.4297L32.5351 55.3596C32.1734 55.968 31.45 56.2809 30.7443 56.1419C30.1003 55.8203 29.7386 55.125 29.8444 54.4297Z" fill="#FF2727"/>
<path id="Vector_52" d="M32.7551 54.7449L30.0645 53.8149C30.4262 53.2065 31.1495 52.8936 31.8553 53.0327C32.4993 53.3543 32.861 54.0496 32.7551 54.7449Z" fill="#FF2727"/>
<path id="Vector_53" d="M29.9231 54.108C29.9584 54.0037 30.0114 53.8994 30.0643 53.8125L32.755 54.7425C32.7373 54.8468 32.7109 54.9597 32.6756 55.064C32.6403 55.1683 32.5874 55.2726 32.5344 55.3595L29.8438 54.4296C29.8614 54.3253 29.8879 54.2123 29.9231 54.108Z" fill="#E9B218"/>
</g>
<g id="Group_16">
<path id="Vector_54" d="M35.6483 56.4384L36.0805 56.5861C35.6747 57.2554 34.8367 57.5769 34.0691 57.3075C33.9986 57.2814 33.928 57.2467 33.8574 57.2119C34.5632 57.351 35.2866 57.0381 35.6483 56.4297V56.4384Z" fill="#C90A0A"/>
<path id="Vector_55" d="M34.9688 54.1094C35.0393 54.1268 35.1187 54.1441 35.1893 54.1702C35.9656 54.4396 36.4155 55.2045 36.3009 55.9693L35.8686 55.8215C35.9656 55.1263 35.6039 54.4309 34.9688 54.1094Z" fill="#C90A0A"/>
<path id="Vector_56" d="M36.0807 56.5851L35.6484 56.4374C35.7014 56.3418 35.7543 56.2462 35.7896 56.1419C35.8249 56.0376 35.8513 55.9333 35.869 55.8203L36.3013 55.9681C36.2836 56.0724 36.2572 56.1853 36.2219 56.2896C36.1866 56.3939 36.1336 56.4982 36.0807 56.5851Z" fill="#DC9C0E"/>
<path id="Vector_57" d="M32.9577 55.5078L35.6484 56.4378C35.2867 57.0462 34.5633 57.359 33.8575 57.22C33.2135 56.8984 32.8518 56.2031 32.9577 55.5078Z" fill="#FF2727"/>
<path id="Vector_58" d="M35.8684 55.823L33.1777 54.893C33.5394 54.2846 34.2628 53.9717 34.9686 54.1108C35.6126 54.4324 35.9743 55.1277 35.8684 55.823Z" fill="#FF2727"/>
<path id="Vector_59" d="M33.0364 55.1861C33.0717 55.0818 33.1246 54.9775 33.1776 54.8906L35.8683 55.8206C35.8506 55.9249 35.8242 56.0379 35.7889 56.1422C35.7536 56.2465 35.7007 56.3507 35.6477 56.4377L32.957 55.5077C32.9747 55.4034 33.0011 55.2904 33.0364 55.1861Z" fill="#E9B218"/>
</g>
<g id="Group_17">
<path id="Vector_60" d="M33.6209 57.8446L34.0532 57.9924C33.6474 58.6616 32.8093 58.9832 32.0418 58.7137C31.9712 58.6877 31.9007 58.6529 31.8301 58.6181C32.5358 58.7572 33.2592 58.4443 33.6209 57.8359V57.8446Z" fill="#C90A0A"/>
<path id="Vector_61" d="M32.9336 55.5156C33.0042 55.533 33.0836 55.5504 33.1541 55.5765C33.9305 55.8459 34.3804 56.6107 34.2657 57.3755L33.8334 57.2278C33.9305 56.5325 33.5776 55.8372 32.9336 55.5156Z" fill="#C90A0A"/>
<path id="Vector_62" d="M34.0534 57.9914L33.6211 57.8436C33.674 57.748 33.727 57.6524 33.7622 57.5481C33.7975 57.4438 33.824 57.3395 33.8416 57.2266L34.2739 57.3743C34.2563 57.4786 34.2298 57.5916 34.1945 57.6959C34.1592 57.8002 34.1063 57.9045 34.0534 57.9914Z" fill="#DC9C0E"/>
<path id="Vector_63" d="M30.9304 56.9141L33.6211 57.844C33.2594 58.4524 32.536 58.7653 31.8302 58.6262C31.1862 58.3047 30.8245 57.6094 30.9304 56.9141Z" fill="#FF2727"/>
<path id="Vector_64" d="M33.8411 57.2292L31.1504 56.2993C31.5121 55.6909 32.2355 55.378 32.9412 55.5171C33.5852 55.8386 33.9469 56.5339 33.8411 57.2292Z" fill="#FF2727"/>
<path id="Vector_65" d="M31.0091 56.5924C31.0444 56.4881 31.0973 56.3838 31.1502 56.2969L33.8409 57.2268C33.8233 57.3311 33.7968 57.4441 33.7615 57.5484C33.7262 57.6527 33.6733 57.757 33.6204 57.8439L30.9297 56.9139C30.9473 56.8097 30.9738 56.6967 31.0091 56.5924Z" fill="#E9B218"/>
</g>
</g>
<g id="Group_18">
<g id="Group_19">
<path id="Vector_66" d="M43.4561 45.5331L43.809 45.4375C43.8619 46.0546 43.4649 46.6456 42.8385 46.8194C42.7768 46.8368 42.715 46.8455 42.6621 46.8542C43.1914 46.6282 43.509 46.0893 43.4649 45.5331H43.4561Z" fill="#C90A0A"/>
<path id="Vector_67" d="M41.9219 44.3223C41.9748 44.2963 42.0366 44.2789 42.0983 44.2615C42.7247 44.0877 43.3775 44.3745 43.6686 44.9307L43.3157 45.0263C43.0511 44.5309 42.4953 44.2441 41.9307 44.3223H41.9219Z" fill="#C90A0A"/>
<path id="Vector_68" d="M43.8085 45.4338L43.4556 45.5294C43.4556 45.4425 43.4291 45.3556 43.4115 45.2686C43.385 45.1817 43.3497 45.1035 43.3145 45.0253L43.6673 44.9297C43.7114 45.0079 43.7379 45.0861 43.7644 45.173C43.7908 45.26 43.8085 45.3469 43.8085 45.4338Z" fill="#DC9C0E"/>
<path id="Vector_69" d="M41.2676 46.1483L43.4554 45.5312C43.4995 46.0875 43.1819 46.6263 42.6526 46.8523C42.0792 46.9305 41.5234 46.6437 41.2676 46.1483Z" fill="#FF2727"/>
<path id="Vector_70" d="M43.315 45.0293L41.1271 45.6463C41.083 45.0901 41.4006 44.5512 41.9299 44.3253C42.5033 44.247 43.0591 44.5339 43.315 45.0293Z" fill="#FF2727"/>
<path id="Vector_71" d="M41.1711 45.9012C41.1446 45.8143 41.127 45.7274 41.127 45.6405L43.3148 45.0234C43.3589 45.1017 43.3854 45.1799 43.4118 45.2668C43.4383 45.3537 43.4559 45.4406 43.4559 45.5275L41.2681 46.1446C41.224 46.0664 41.1975 45.9882 41.1711 45.9012Z" fill="#E9B218"/>
</g>
<g id="Group_20">
<path id="Vector_72" d="M45.9873 44.8222L46.3402 44.7266C46.3931 45.3436 45.9962 45.9346 45.3698 46.1085C45.308 46.1258 45.2463 46.1345 45.1934 46.1432C45.7227 45.9173 46.0403 45.3784 45.9962 44.8222H45.9873Z" fill="#C90A0A"/>
<path id="Vector_73" d="M44.4531 43.6114C44.5061 43.5853 44.5678 43.5679 44.6296 43.5506C45.2559 43.3767 45.9087 43.6635 46.1999 44.2198L45.847 44.3154C45.5823 43.82 45.0266 43.5332 44.4619 43.6114H44.4531Z" fill="#C90A0A"/>
<path id="Vector_74" d="M46.3397 44.7228L45.9869 44.8184C45.9869 44.7315 45.9604 44.6446 45.9427 44.5577C45.9163 44.4708 45.881 44.3926 45.8457 44.3144L46.1986 44.2188C46.2427 44.297 46.2692 44.3752 46.2956 44.4621C46.3221 44.549 46.3397 44.6359 46.3397 44.7228Z" fill="#DC9C0E"/>
<path id="Vector_75" d="M43.7988 45.4374L45.9867 44.8203C46.0308 45.3765 45.7132 45.9154 45.1839 46.1414C44.6104 46.2196 44.0547 45.9328 43.7988 45.4374Z" fill="#FF2727"/>
<path id="Vector_76" d="M45.8462 44.3261L43.6584 44.9432C43.6143 44.387 43.9318 43.8481 44.4612 43.6221C45.0346 43.5439 45.5904 43.8307 45.8462 44.3261Z" fill="#FF2727"/>
<path id="Vector_77" d="M43.7023 45.1903C43.6758 45.1034 43.6582 45.0165 43.6582 44.9296L45.846 44.3125C45.8902 44.3907 45.9166 44.4689 45.9431 44.5559C45.9695 44.6428 45.9872 44.7297 45.9872 44.8166L43.7994 45.4337C43.7552 45.3554 43.7288 45.2772 43.7023 45.1903Z" fill="#E9B218"/>
</g>
<g id="Group_21">
<path id="Vector_78" d="M45.3272 46.6659L45.6801 46.5703C45.733 47.1874 45.336 47.7784 44.7096 47.9522C44.6479 47.9696 44.5861 47.9783 44.5332 47.987C45.0625 47.761 45.3801 47.2222 45.336 46.6659H45.3272Z" fill="#C90A0A"/>
<path id="Vector_79" d="M43.791 45.4551C43.8439 45.4291 43.9057 45.4117 43.9675 45.3943C44.5938 45.2205 45.2466 45.5073 45.5378 46.0635L45.1849 46.1591C44.9202 45.6637 44.3644 45.3769 43.7998 45.4551H43.791Z" fill="#C90A0A"/>
<path id="Vector_80" d="M45.6796 46.5588L45.3267 46.6544C45.3267 46.5675 45.3002 46.4806 45.2826 46.3936C45.2561 46.3067 45.2208 46.2285 45.1855 46.1503L45.5384 46.0547C45.5825 46.1329 45.609 46.2111 45.6355 46.298C45.6619 46.385 45.6796 46.4719 45.6796 46.5588Z" fill="#DC9C0E"/>
<path id="Vector_81" d="M43.1387 47.2811L45.3265 46.6641C45.3706 47.2203 45.053 47.7592 44.5237 47.9851C43.9503 48.0633 43.3945 47.7765 43.1387 47.2811Z" fill="#FF2727"/>
<path id="Vector_82" d="M45.1763 46.1621L42.9884 46.7791C42.9443 46.2229 43.2619 45.6841 43.7912 45.4581C44.3647 45.3799 44.9204 45.6667 45.1763 46.1621Z" fill="#FF2727"/>
<path id="Vector_83" d="M43.0422 47.0341C43.0157 46.9471 42.998 46.8602 42.998 46.7733L45.1859 46.1562C45.23 46.2345 45.2565 46.3127 45.2829 46.3996C45.3094 46.4865 45.327 46.5734 45.327 46.6603L43.1392 47.2774C43.0951 47.1992 43.0686 47.121 43.0422 47.0341Z" fill="#E9B218"/>
</g>
</g>
<g id="Group_22">
<g id="Group_23">
<path id="Vector_84" d="M53.2838 31.1928L53.7338 31.1406C53.672 31.8968 53.0809 32.5312 52.287 32.6181C52.2076 32.6268 52.137 32.6268 52.0664 32.6268C52.7457 32.453 53.2397 31.8707 53.2927 31.1928H53.2838Z" fill="#C90A0A"/>
<path id="Vector_85" d="M51.6787 29.4462C51.7493 29.4288 51.8199 29.4115 51.8993 29.4028C52.6933 29.3072 53.4167 29.7852 53.6549 30.5066L53.2049 30.5587C52.9932 29.9069 52.3757 29.4549 51.6699 29.4462H51.6787Z" fill="#C90A0A"/>
<path id="Vector_86" d="M53.7334 31.1423L53.2835 31.1944C53.2835 31.0901 53.2835 30.9858 53.2835 30.8728C53.2746 30.7686 53.2482 30.6643 53.2129 30.56L53.6628 30.5078C53.6981 30.6034 53.7157 30.7077 53.7334 30.8207C53.7422 30.925 53.751 31.038 53.7334 31.1423Z" fill="#DC9C0E"/>
<path id="Vector_87" d="M50.5312 31.5169L53.2925 31.1953C53.2396 31.8819 52.7456 32.4555 52.0663 32.6294C51.3605 32.6207 50.7518 32.16 50.5312 31.5169Z" fill="#FF2727"/>
<path id="Vector_88" d="M53.2144 30.5578L50.4531 30.8794C50.5061 30.1928 51.0001 29.6191 51.6794 29.4453C52.3851 29.454 52.9938 29.9059 53.2144 30.5578Z" fill="#FF2727"/>
<path id="Vector_89" d="M50.4614 31.2057C50.4525 31.1014 50.4437 30.9884 50.4614 30.8841L53.2226 30.5625C53.2579 30.6581 53.2756 30.7624 53.2932 30.8754C53.302 30.9797 53.3108 31.0927 53.2932 31.197L50.5319 31.5185C50.4966 31.4229 50.479 31.3186 50.4614 31.2057Z" fill="#E9B218"/>
</g>
<g id="Group_24">
<path id="Vector_90" d="M56.4791 30.8178L56.9291 30.7656C56.8673 31.5218 56.2762 32.1562 55.4823 32.2431C55.4029 32.2518 55.3323 32.2518 55.2617 32.2518C55.941 32.078 56.435 31.4957 56.488 30.8178H56.4791Z" fill="#C90A0A"/>
<path id="Vector_91" d="M54.8741 29.0712C54.9446 29.0538 55.0152 29.0365 55.0946 29.0278C55.8886 28.9322 56.612 29.4102 56.8502 30.1316L56.4003 30.1837C56.1885 29.5319 55.571 29.0799 54.8652 29.0712H54.8741Z" fill="#C90A0A"/>
<path id="Vector_92" d="M56.9189 30.7673L56.469 30.8194C56.469 30.7151 56.469 30.6108 56.469 30.4978C56.4602 30.3936 56.4337 30.2893 56.3984 30.185L56.8484 30.1328C56.8836 30.2284 56.9013 30.3327 56.9189 30.4457C56.9278 30.55 56.9366 30.663 56.9189 30.7673Z" fill="#DC9C0E"/>
<path id="Vector_93" d="M53.7168 31.1419L56.4781 30.8203C56.4251 31.5069 55.9311 32.0805 55.2518 32.2544C54.5461 32.2457 53.9373 31.7937 53.7168 31.1419Z" fill="#FF2727"/>
<path id="Vector_94" d="M56.3999 30.1906L53.6387 30.5122C53.6916 29.8256 54.1856 29.2519 54.8649 29.0781C55.5707 29.0868 56.1794 29.5388 56.3999 30.1906Z" fill="#FF2727"/>
<path id="Vector_95" d="M53.6469 30.8307C53.6381 30.7264 53.6293 30.6134 53.6469 30.5091L56.4082 30.1875C56.4435 30.2831 56.4611 30.3874 56.4787 30.5004C56.4876 30.6047 56.4964 30.7177 56.4787 30.822L53.7175 31.1435C53.6822 31.0479 53.6645 30.9436 53.6469 30.8307Z" fill="#E9B218"/>
</g>
<g id="Group_25">
<path id="Vector_96" d="M55.3131 32.9115L55.763 32.8594C55.7013 33.6155 55.1102 34.25 54.3163 34.3369C54.2369 34.3456 54.1663 34.3456 54.0957 34.3456C54.775 34.1717 55.269 33.5894 55.322 32.9115H55.3131Z" fill="#C90A0A"/>
<path id="Vector_97" d="M53.708 31.1572C53.7786 31.1398 53.8492 31.1224 53.9286 31.1137C54.7226 31.0181 55.446 31.4961 55.6842 32.2175L55.2342 32.2696C55.0225 31.6178 54.405 31.1659 53.6992 31.1572H53.708Z" fill="#C90A0A"/>
<path id="Vector_98" d="M55.7627 32.861L55.3128 32.9132C55.3128 32.8089 55.3128 32.7046 55.3128 32.5916C55.3039 32.4873 55.2775 32.383 55.2422 32.2787L55.6921 32.2266C55.7274 32.3222 55.745 32.4265 55.7627 32.5394C55.7715 32.6437 55.7803 32.7567 55.7627 32.861Z" fill="#DC9C0E"/>
<path id="Vector_99" d="M52.5508 33.2356L55.312 32.9141C55.2591 33.6007 54.7651 34.1743 54.0858 34.3481C53.38 34.3394 52.7713 33.8788 52.5508 33.2356Z" fill="#FF2727"/>
<path id="Vector_100" d="M55.2339 32.2765L52.4727 32.5981C52.5256 31.9115 53.0196 31.3379 53.6989 31.1641C54.4047 31.1728 55.0134 31.6247 55.2339 32.2765Z" fill="#FF2727"/>
<path id="Vector_101" d="M52.4809 32.9244C52.4721 32.8201 52.4632 32.7071 52.4809 32.6028L55.2422 32.2812C55.2774 32.3769 55.2951 32.4811 55.3127 32.5941C55.3216 32.6984 55.3304 32.8114 55.3127 32.9157L52.5515 33.2373C52.5162 33.1417 52.4985 33.0374 52.4809 32.9244Z" fill="#E9B218"/>
</g>
</g>
<path id="Vector_102" d="M17.6616 24.8202C17.4764 24.8984 17.2734 24.8897 17.1058 24.7854L16.1354 24.2031L16.2501 25.3156C16.2677 25.5068 16.1972 25.698 16.0384 25.8284L15.1738 26.5584L16.2854 26.7931C16.4795 26.8366 16.6383 26.9669 16.7177 27.1494L17.1499 28.1837L17.7145 27.219C17.8116 27.0538 17.988 26.9409 18.1909 26.9235L19.3201 26.8366L18.5615 26.0022C18.4291 25.8545 18.3762 25.6546 18.4203 25.4633L18.685 24.3769L17.6528 24.8289L17.6616 24.8202Z" fill="#F8D73B"/>
<path id="Vector_103" d="M18.103 39.4218C17.9178 39.5 17.7149 39.4913 17.5472 39.387L16.5768 38.8047L16.6915 39.9172C16.7092 40.1084 16.6386 40.2996 16.4798 40.4299L15.6152 41.16L16.7268 41.3947C16.9209 41.4381 17.0797 41.5685 17.1591 41.751L17.5913 42.7853L18.156 41.8205C18.253 41.6554 18.4294 41.5424 18.6323 41.525L19.7615 41.4381L19.0029 40.6038C18.8705 40.456 18.8176 40.2561 18.8617 40.0649L19.1264 38.9785L18.0942 39.4305L18.103 39.4218Z" fill="#F8D73B"/>
<path id="Vector_104" d="M23.855 53.2265C23.6697 53.3047 23.4668 53.296 23.2992 53.1917L22.3288 52.6094L22.4435 53.7219C22.4611 53.9131 22.3905 54.1043 22.2317 54.2346L21.3672 54.9647L22.4788 55.1994C22.6728 55.2428 22.8316 55.3732 22.911 55.5557L23.3433 56.5899L23.9079 55.6252C24.0049 55.4601 24.1814 55.3471 24.3843 55.3297L25.5135 55.2428L24.7548 54.4085C24.6225 54.2607 24.5695 54.0608 24.6137 53.8696L24.8783 52.7832L23.8462 53.2351L23.855 53.2265Z" fill="#F8D73B"/>
<path id="Vector_105" d="M30.9999 48.3965L30.1353 47.875L30.2412 48.8658L29.4648 49.5176L30.4617 49.7262L30.8499 50.6475L31.3616 49.7871L32.3673 49.7088L31.688 48.9614L31.9262 47.988L30.9999 48.3965Z" fill="#F8D73B"/>
<path id="Vector_106" d="M41.2515 50.4218C41.0662 50.5 40.8633 50.4913 40.6957 50.387L39.7253 49.8047L39.8399 50.9172C39.8576 51.1084 39.787 51.2996 39.6282 51.4299L38.7637 52.1513L39.8752 52.386C40.0693 52.4294 40.2281 52.5598 40.3075 52.7423L40.7398 53.7766L41.3044 52.8118C41.4014 52.6467 41.5779 52.5337 41.7808 52.5163L42.91 52.4294L42.1513 51.5951C42.019 51.4473 41.966 51.2474 42.0101 51.0562L42.2748 49.9698L41.2426 50.4218H41.2515Z" fill="#F8D73B"/>
<path id="Vector_107" d="M51.564 38.7265C51.3787 38.8047 51.1758 38.796 51.0082 38.6917L50.0378 38.1094L50.1524 39.2219C50.1701 39.4131 50.0995 39.6043 49.9407 39.7346L49.0762 40.4647L50.1877 40.6994C50.3818 40.7428 50.5406 40.8732 50.62 41.0557L51.0523 42.0899L51.6169 41.1252C51.7139 40.9601 51.8904 40.8471 52.0933 40.8297L53.2225 40.7428L52.4638 39.9085C52.3315 39.7607 52.2785 39.5608 52.3226 39.3696L52.5873 38.2832L51.5551 38.7351L51.564 38.7265Z" fill="#F8D73B"/>
<path id="Vector_108" d="M47.4175 25.8124C47.2322 25.8906 47.0293 25.8819 46.8617 25.7776L45.8913 25.1953L46.006 26.3078C46.0236 26.499 45.953 26.6902 45.7942 26.8206L44.9297 27.5506L46.0412 27.7853C46.2353 27.8287 46.3941 27.9591 46.4735 28.1416L46.9058 29.1759L47.4704 28.2112C47.5674 28.046 47.7439 27.933 47.9468 27.9157L49.076 27.8287L48.3173 26.9944C48.185 26.8466 48.132 26.6467 48.1762 26.4555L48.4408 25.3691L47.4087 25.8211L47.4175 25.8124Z" fill="#F8D73B"/>
</g>
</g>
<defs>
<filter id="filter0_d_7155_53966" x="0.801719" y="0.715312" width="63.2911" height="66.5841" filterUnits="userSpaceOnUse" color-interpolation-filters="sRGB">
<feFlood flood-opacity="0" result="BackgroundImageFix"/>
<feColorMatrix in="SourceAlpha" type="matrix" values="0 0 0 0 0 0 0 0 0 0 0 0 0 0 0 0 0 0 127 0" result="hardAlpha"/>
<feOffset dy="0.98"/>
<feGaussianBlur stdDeviation="0.98"/>
<feColorMatrix type="matrix" values="0 0 0 0 0.172549 0 0 0 0 0.196078 0 0 0 0 0.207843 0 0 0 0.2 0"/>
<feBlend mode="normal" in2="BackgroundImageFix" result="effect1_dropShadow_7155_53966"/>
<feBlend mode="normal" in="SourceGraphic" in2="effect1_dropShadow_7155_53966" result="shape"/>
</filter>
<clipPath id="clip0_7155_53966">
<rect width="65" height="68" fill="white"/>
</clipPath>
</defs>
</svg>
