<svg width="52" height="68" viewBox="0 0 52 68" fill="none" xmlns="http://www.w3.org/2000/svg">
<g id="OBJECTS" clip-path="url(#clip0_7155_54100)">
<g id="Vector" filter="url(#filter0_d_7155_54100)">
<path d="M3.54061 60.8689C4.62855 62.8439 6.71224 64.0714 8.9711 64.0714H42.8449C45.1037 64.0714 47.1782 62.8439 48.2754 60.8689C49.3633 58.8938 49.2988 56.4758 48.1002 54.5654L44.7718 49.2771C45.3527 48.7603 45.8413 48.1235 46.2101 47.4036C47.2888 45.2717 47.0768 42.7521 45.6569 40.8325C44.6243 39.4297 43.2782 37.6023 41.8122 35.6088C41.9044 35.4704 41.9874 35.3319 42.0704 35.1843C43.2598 33.0708 43.2044 30.4682 41.9505 28.4009L33.6434 14.7695C33.6158 14.5942 33.5697 14.4096 33.5236 14.2342C35.1832 12.9421 35.8654 10.7549 35.2108 8.73368C34.5562 6.71251 32.7215 5.3466 30.6193 5.27277C29.9002 3.28851 28.0286 1.96875 25.9172 1.96875C23.8059 1.96875 21.925 3.28851 21.2151 5.27277C19.1129 5.33737 17.2782 6.71251 16.6236 8.73368C15.969 10.7549 16.642 12.9421 18.3108 14.2342C18.2555 14.4096 18.2186 14.5942 18.191 14.7695L9.88387 28.4009C8.62075 30.4682 8.57465 33.0708 9.76401 35.1843C9.84699 35.3319 9.92997 35.4704 10.0222 35.6088C8.55621 37.6023 7.21933 39.4297 6.17749 40.8325C4.75763 42.7521 4.55479 45.2717 5.6243 47.4036C5.99309 48.1327 6.48174 48.7603 7.06259 49.2771L3.73423 54.5654C2.53564 56.4758 2.46189 58.8938 3.55905 60.8689H3.54061Z" fill="white"/>
</g>
<g id="Group">
<g id="Group_2">
<path id="Vector_2" d="M24.0166 13.8113L13.6996 30.7467C12.8052 32.2234 13.8655 34.1061 15.5804 34.1061H25.8974V12.75C25.1691 12.75 24.4407 13.1007 24.0166 13.8113Z" fill="#509F23"/>
<path id="Vector_3" d="M38.1041 30.7467L27.7871 13.8113C27.3538 13.1007 26.6254 12.75 25.9062 12.75V34.1061H36.2233C37.9474 34.1061 39.0077 32.2142 38.1041 30.7467Z" fill="#468C21"/>
</g>
<path id="Vector_4" d="M26.386 6.82176L27.2343 9.42437C27.2988 9.63664 27.4924 9.77507 27.7137 9.77507H30.4428C30.9314 9.77507 31.1343 10.4027 30.7378 10.6888L28.525 12.2946C28.3499 12.4238 28.2761 12.6546 28.3406 12.8576L29.1889 15.4602C29.3364 15.9309 28.8109 16.3185 28.4052 16.0232L26.1924 14.4173C26.0172 14.2881 25.7775 14.2881 25.5931 14.4173L23.3804 16.0232C22.9839 16.3093 22.4491 15.9217 22.5967 15.4602L23.4449 12.8576C23.5094 12.6453 23.4449 12.4238 23.2605 12.2946L21.0477 10.6888C20.6513 10.4027 20.8541 9.77507 21.3428 9.77507H24.0718C24.2931 9.77507 24.4867 9.63664 24.5513 9.42437L25.3995 6.82176C25.547 6.35108 26.2109 6.35108 26.3584 6.82176H26.386Z" fill="#F9CA23"/>
<g id="Group_3">
<g id="Group_4">
<path id="Vector_5" d="M38.4752 43.9574L38.7056 43.9297C38.678 44.3173 38.3737 44.6496 37.9681 44.6957C37.9312 44.6957 37.8943 44.6957 37.8574 44.6957C38.1986 44.6034 38.4475 44.3081 38.4752 43.9574Z" fill="#C90A0A"/>
<path id="Vector_6" d="M37.6543 43.0552C37.6543 43.0552 37.7281 43.0367 37.7649 43.0367C38.1706 42.9906 38.5394 43.2398 38.6593 43.6089L38.4288 43.6366C38.3181 43.3044 38.0047 43.0644 37.6543 43.0644V43.0552Z" fill="#C90A0A"/>
<path id="Vector_7" d="M38.6971 43.9324L38.4666 43.9601C38.4666 43.9047 38.4666 43.8493 38.4666 43.794C38.4666 43.7386 38.4481 43.6832 38.4297 43.6371L38.6602 43.6094C38.6786 43.6647 38.6878 43.7109 38.6971 43.7663C38.6971 43.8216 38.6971 43.877 38.6971 43.9324Z" fill="#DC9C0E"/>
<path id="Vector_8" d="M37.0742 44.1271L38.4756 43.9609C38.448 44.3116 38.199 44.6162 37.8579 44.6993C37.4983 44.6993 37.1849 44.4593 37.0834 44.1271H37.0742Z" fill="#FF2727"/>
<path id="Vector_9" d="M38.4288 43.6269L37.0273 43.793C37.055 43.4423 37.3039 43.1377 37.6451 43.0547C38.0047 43.0547 38.3181 43.2946 38.4195 43.6269H38.4288Z" fill="#FF2727"/>
<path id="Vector_10" d="M37.0371 43.9572C37.0371 43.9019 37.0371 43.8465 37.0371 43.7911L38.4385 43.625C38.457 43.6804 38.4662 43.7265 38.4754 43.7819C38.4754 43.8373 38.4754 43.8926 38.4754 43.948L37.074 44.1141C37.0555 44.0588 37.0463 44.0126 37.0371 43.9572Z" fill="#E9B218"/>
</g>
<g id="Group_5">
<path id="Vector_11" d="M40.0884 43.7621L40.3189 43.7344C40.2913 44.122 39.987 44.4542 39.5813 44.5004C39.5445 44.5004 39.5076 44.5004 39.4707 44.5004C39.8118 44.4081 40.0608 44.1128 40.0884 43.7621Z" fill="#C90A0A"/>
<path id="Vector_12" d="M39.2773 42.8599C39.2773 42.8599 39.3511 42.8414 39.388 42.8414C39.7937 42.7953 40.1625 43.0445 40.2823 43.4136L40.0518 43.4413C39.9412 43.1091 39.6277 42.8691 39.2773 42.8691V42.8599Z" fill="#C90A0A"/>
<path id="Vector_13" d="M40.3201 43.7371L40.0896 43.7648C40.0896 43.7094 40.0896 43.654 40.0896 43.5986C40.0896 43.5433 40.0712 43.4879 40.0527 43.4417L40.2832 43.4141C40.3017 43.4694 40.3109 43.5156 40.3201 43.571C40.3201 43.6263 40.3201 43.6817 40.3201 43.7371Z" fill="#DC9C0E"/>
<path id="Vector_14" d="M38.6875 43.9317L40.0889 43.7656C40.0613 44.1163 39.8123 44.4209 39.4712 44.504C39.1116 44.504 38.7981 44.264 38.6967 43.9317H38.6875Z" fill="#FF2727"/>
<path id="Vector_15" d="M40.0518 43.4316L38.6504 43.5977C38.6781 43.247 38.927 42.9424 39.2681 42.8594C39.6277 42.8594 39.9412 43.0993 40.0426 43.4316H40.0518Z" fill="#FF2727"/>
<path id="Vector_16" d="M38.6504 43.7619C38.6504 43.7066 38.6504 43.6512 38.6504 43.5958L40.0518 43.4297C40.0702 43.4851 40.0795 43.5312 40.0887 43.5866C40.0887 43.642 40.0887 43.6973 40.0887 43.7527L38.6873 43.9188C38.6688 43.8635 38.6596 43.8173 38.6504 43.7619Z" fill="#E9B218"/>
</g>
<g id="Group_6">
<path id="Vector_17" d="M39.4986 44.8402L39.7291 44.8125C39.7014 45.2001 39.3972 45.5324 38.9915 45.5785C38.9546 45.5785 38.9177 45.5785 38.8809 45.5785C39.222 45.4862 39.4709 45.1909 39.4986 44.8402Z" fill="#C90A0A"/>
<path id="Vector_18" d="M38.6875 43.938C38.6875 43.938 38.7613 43.9196 38.7981 43.9196C39.2038 43.8734 39.5726 44.1226 39.6925 44.4918L39.462 44.5194C39.3513 44.1872 39.0379 43.9472 38.6875 43.9472V43.938Z" fill="#C90A0A"/>
<path id="Vector_19" d="M39.7303 44.8152L39.4998 44.8429C39.4998 44.7875 39.4998 44.7321 39.4998 44.6768C39.4998 44.6214 39.4813 44.566 39.4629 44.5199L39.6934 44.4922C39.7118 44.5476 39.721 44.5937 39.7303 44.6491C39.7303 44.7045 39.7303 44.7598 39.7303 44.8152Z" fill="#DC9C0E"/>
<path id="Vector_20" d="M38.0977 45.0021L39.4991 44.8359C39.4714 45.1866 39.2225 45.4912 38.8813 45.5743C38.5218 45.5743 38.2083 45.3343 38.1069 45.0021H38.0977Z" fill="#FF2727"/>
<path id="Vector_21" d="M39.462 44.5097L38.0605 44.6758C38.0882 44.3251 38.3371 44.0206 38.6783 43.9375C39.0379 43.9375 39.3513 44.1775 39.4527 44.5097H39.462Z" fill="#FF2727"/>
<path id="Vector_22" d="M38.0605 44.8401C38.0605 44.7847 38.0605 44.7293 38.0605 44.6739L39.462 44.5078C39.4804 44.5632 39.4896 44.6093 39.4988 44.6647C39.4988 44.7201 39.4988 44.7755 39.4988 44.8308L38.0974 44.997C38.079 44.9416 38.0698 44.8954 38.0605 44.8401Z" fill="#E9B218"/>
</g>
</g>
<g id="Group_7">
<g id="Group_8">
<path id="Vector_23" d="M40.8072 57.1214L41.0377 57.0938C41.01 57.4814 40.7058 57.8136 40.3001 57.8598C40.2632 57.8598 40.2263 57.8598 40.1895 57.8598C40.5306 57.7675 40.7795 57.4721 40.8072 57.1214Z" fill="#C90A0A"/>
<path id="Vector_24" d="M39.9961 56.2271C39.9961 56.2271 40.0699 56.2086 40.1067 56.2086C40.5124 56.1625 40.8812 56.4117 41.0011 56.7808L40.7706 56.8085C40.6599 56.4763 40.3464 56.2363 39.9961 56.2363V56.2271Z" fill="#C90A0A"/>
<path id="Vector_25" d="M41.0389 57.0965L40.8084 57.1241C40.8084 57.0688 40.8084 57.0134 40.8084 56.958C40.8084 56.9026 40.7899 56.8473 40.7715 56.8011L41.002 56.7734C41.0204 56.8288 41.0296 56.875 41.0389 56.9303C41.0389 56.9857 41.0389 57.0411 41.0389 57.0965Z" fill="#DC9C0E"/>
<path id="Vector_26" d="M39.416 57.2911L40.8174 57.125C40.7898 57.4757 40.5408 57.7803 40.1997 57.8633C39.8401 57.8633 39.5267 57.6234 39.4252 57.2911H39.416Z" fill="#FF2727"/>
<path id="Vector_27" d="M40.7706 56.7988L39.3691 56.9649C39.3968 56.6142 39.6457 56.3096 39.9869 56.2266C40.3464 56.2266 40.6599 56.4665 40.7613 56.7988H40.7706Z" fill="#FF2727"/>
<path id="Vector_28" d="M39.3789 57.1291C39.3789 57.0737 39.3789 57.0184 39.3789 56.963L40.7803 56.7969C40.7988 56.8522 40.808 56.8984 40.8172 56.9538C40.8172 57.0091 40.8172 57.0645 40.8172 57.1199L39.4158 57.286C39.3973 57.2306 39.3881 57.1845 39.3789 57.1291Z" fill="#E9B218"/>
</g>
<g id="Group_9">
<path id="Vector_29" d="M42.4302 56.9339L42.6607 56.9062C42.6331 57.2939 42.3288 57.6261 41.9231 57.6723C41.8863 57.6723 41.8494 57.6723 41.8125 57.6723C42.1536 57.58 42.4026 57.2846 42.4302 56.9339Z" fill="#C90A0A"/>
<path id="Vector_30" d="M41.6191 56.0318C41.6191 56.0318 41.6929 56.0133 41.7298 56.0133C42.1355 55.9672 42.5042 56.2163 42.6241 56.5855L42.3936 56.6132C42.283 56.281 41.9695 56.041 41.6191 56.041V56.0318Z" fill="#C90A0A"/>
<path id="Vector_31" d="M42.6619 56.909L42.4314 56.9366C42.4314 56.8813 42.4314 56.8259 42.4314 56.7705C42.4314 56.7151 42.413 56.6598 42.3945 56.6136L42.625 56.5859C42.6435 56.6413 42.6527 56.6875 42.6619 56.7428C42.6619 56.7982 42.6619 56.8536 42.6619 56.909Z" fill="#DC9C0E"/>
<path id="Vector_32" d="M41.0293 57.1036L42.4307 56.9375C42.4031 57.2882 42.1541 57.5928 41.813 57.6758C41.4534 57.6758 41.1399 57.4359 41.0385 57.1036H41.0293Z" fill="#FF2727"/>
<path id="Vector_33" d="M42.3936 56.6035L40.9922 56.7696C41.0198 56.4189 41.2688 56.1143 41.6099 56.0312C41.9695 56.0312 42.283 56.2712 42.3844 56.6035H42.3936Z" fill="#FF2727"/>
<path id="Vector_34" d="M40.9922 56.9338C40.9922 56.8784 40.9922 56.8231 40.9922 56.7677L42.3936 56.6016C42.412 56.6569 42.4213 56.7031 42.4305 56.7585C42.4305 56.8138 42.4305 56.8692 42.4305 56.9246L41.0291 57.0907C41.0106 57.0353 41.0014 56.9892 40.9922 56.9338Z" fill="#E9B218"/>
</g>
<g id="Group_10">
<path id="Vector_35" d="M41.8404 58.0042L42.0709 57.9766C42.0432 58.3642 41.739 58.6964 41.3333 58.7426C41.2964 58.7426 41.2595 58.7426 41.2227 58.7426C41.5638 58.6503 41.8127 58.355 41.8404 58.0042Z" fill="#C90A0A"/>
<path id="Vector_36" d="M41.0195 57.1099C41.0195 57.1099 41.0933 57.0914 41.1302 57.0914C41.5358 57.0453 41.9046 57.2945 42.0245 57.6636L41.794 57.6913C41.6834 57.3591 41.3699 57.1191 41.0195 57.1191V57.1099Z" fill="#C90A0A"/>
<path id="Vector_37" d="M42.0721 57.9793L41.8416 58.007C41.8416 57.9516 41.8416 57.8962 41.8416 57.8408C41.8416 57.7855 41.8231 57.7301 41.8047 57.6839L42.0352 57.6562C42.0536 57.7116 42.0628 57.7578 42.0721 57.8131C42.0721 57.8685 42.0721 57.9239 42.0721 57.9793Z" fill="#DC9C0E"/>
<path id="Vector_38" d="M40.4395 58.1739L41.8409 58.0078C41.8132 58.3585 41.5643 58.6631 41.2231 58.7461C40.8636 58.7461 40.5501 58.5062 40.4487 58.1739H40.4395Z" fill="#FF2727"/>
<path id="Vector_39" d="M41.8038 57.6816L40.4023 57.8477C40.43 57.497 40.6789 57.1924 41.0201 57.1094C41.3797 57.1094 41.6931 57.3493 41.7945 57.6816H41.8038Z" fill="#FF2727"/>
<path id="Vector_40" d="M40.4023 58.0119C40.4023 57.9566 40.4023 57.9012 40.4023 57.8458L41.8038 57.6797C41.8222 57.7351 41.8314 57.7812 41.8406 57.8366C41.8499 57.892 41.8406 57.9473 41.8406 58.0027L40.4392 58.1688C40.4208 58.1135 40.4116 58.0673 40.4023 58.0119Z" fill="#E9B218"/>
</g>
</g>
<g id="Group_11">
<g id="Group_12">
<path id="Vector_41" d="M12.4824 43.9574L12.252 43.9297C12.2796 44.3173 12.5839 44.6496 12.9895 44.6957C13.0264 44.6957 13.0633 44.6957 13.1002 44.6957C12.759 44.6034 12.5101 44.3081 12.4824 43.9574Z" fill="#C90A0A"/>
<path id="Vector_42" d="M13.3038 43.0552C13.3038 43.0552 13.23 43.0367 13.1932 43.0367C12.7875 42.9906 12.4187 43.2398 12.2988 43.6089L12.5293 43.6366C12.64 43.3044 12.9534 43.0644 13.3038 43.0644V43.0552Z" fill="#C90A0A"/>
<path id="Vector_43" d="M12.2617 43.9324L12.4922 43.9601C12.4922 43.9047 12.4922 43.8493 12.4922 43.794C12.4922 43.7386 12.5107 43.6832 12.5291 43.6371L12.2986 43.6094C12.2802 43.6647 12.2709 43.7109 12.2617 43.7663C12.2617 43.8216 12.2617 43.877 12.2617 43.9324Z" fill="#DC9C0E"/>
<path id="Vector_44" d="M13.8838 44.1271L12.4824 43.9609C12.5101 44.3116 12.759 44.6162 13.1002 44.6993C13.4597 44.6993 13.7732 44.4593 13.8746 44.1271H13.8838Z" fill="#FF2727"/>
<path id="Vector_45" d="M12.5293 43.6269L13.9307 43.793C13.9031 43.4423 13.6541 43.1377 13.313 43.0547C12.9534 43.0547 12.6399 43.2946 12.5385 43.6269H12.5293Z" fill="#FF2727"/>
<path id="Vector_46" d="M13.9207 43.9572C13.9207 43.9019 13.9207 43.8465 13.9207 43.7911L12.5193 43.625C12.5009 43.6804 12.4916 43.7265 12.4824 43.7819C12.4824 43.8373 12.4824 43.8926 12.4824 43.948L13.8838 44.1141C13.9023 44.0588 13.9115 44.0126 13.9207 43.9572Z" fill="#E9B218"/>
</g>
<g id="Group_13">
<path id="Vector_47" d="M10.8692 43.7621L10.6387 43.7344C10.6663 44.122 10.9706 44.4542 11.3763 44.5004C11.4131 44.5004 11.45 44.5004 11.4869 44.5004C11.1458 44.4081 10.8968 44.1128 10.8692 43.7621Z" fill="#C90A0A"/>
<path id="Vector_48" d="M11.6807 42.8599C11.6807 42.8599 11.607 42.8414 11.5701 42.8414C11.1644 42.7953 10.7956 43.0445 10.6758 43.4136L10.9063 43.4413C11.0169 43.1091 11.3304 42.8691 11.6807 42.8691V42.8599Z" fill="#C90A0A"/>
<path id="Vector_49" d="M10.6387 43.7371L10.8692 43.7648C10.8692 43.7094 10.8692 43.654 10.8692 43.5986C10.8692 43.5433 10.8876 43.4879 10.906 43.4417L10.6756 43.4141C10.6571 43.4694 10.6479 43.5156 10.6387 43.571C10.6387 43.6263 10.6387 43.6817 10.6387 43.7371Z" fill="#DC9C0E"/>
<path id="Vector_50" d="M12.2706 43.9317L10.8691 43.7656C10.8968 44.1163 11.1457 44.4209 11.4869 44.504C11.8464 44.504 12.1599 44.264 12.2613 43.9317H12.2706Z" fill="#FF2727"/>
<path id="Vector_51" d="M10.9062 43.4316L12.3077 43.5977C12.28 43.247 12.0311 42.9424 11.6899 42.8594C11.3304 42.8594 11.0169 43.0993 10.9155 43.4316H10.9062Z" fill="#FF2727"/>
<path id="Vector_52" d="M12.2977 43.7619C12.2977 43.7066 12.2977 43.6512 12.2977 43.5958L10.8963 43.4297C10.8778 43.4851 10.8686 43.5312 10.8594 43.5866C10.8594 43.642 10.8594 43.6973 10.8594 43.7527L12.2608 43.9188C12.2792 43.8635 12.2885 43.8173 12.2977 43.7619Z" fill="#E9B218"/>
</g>
<g id="Group_14">
<path id="Vector_53" d="M11.459 44.8402L11.2285 44.8125C11.2562 45.2001 11.5604 45.5324 11.9661 45.5785C12.003 45.5785 12.0399 45.5785 12.0767 45.5785C11.7356 45.4862 11.4867 45.1909 11.459 44.8402Z" fill="#C90A0A"/>
<path id="Vector_54" d="M12.2706 43.938C12.2706 43.938 12.1968 43.9196 12.16 43.9196C11.7543 43.8734 11.3855 44.1226 11.2656 44.4918L11.4961 44.5194C11.6068 44.1872 11.9202 43.9472 12.2706 43.9472V43.938Z" fill="#C90A0A"/>
<path id="Vector_55" d="M11.2285 44.8152L11.459 44.8429C11.459 44.7875 11.459 44.7321 11.459 44.6768C11.459 44.6214 11.4775 44.566 11.4959 44.5199L11.2654 44.4922C11.247 44.5476 11.2377 44.5937 11.2285 44.6491C11.2285 44.7045 11.2285 44.7598 11.2285 44.8152Z" fill="#DC9C0E"/>
<path id="Vector_56" d="M12.8604 45.0021L11.459 44.8359C11.4866 45.1866 11.7356 45.4912 12.0767 45.5743C12.4363 45.5743 12.7498 45.3343 12.8512 45.0021H12.8604Z" fill="#FF2727"/>
<path id="Vector_57" d="M11.4961 44.5097L12.8975 44.6758C12.8699 44.3251 12.6209 44.0206 12.2798 43.9375C11.9202 43.9375 11.6067 44.1775 11.5053 44.5097H11.4961Z" fill="#FF2727"/>
<path id="Vector_58" d="M12.8973 44.8401C12.8973 44.7847 12.8973 44.7293 12.8973 44.6739L11.4959 44.5078C11.4774 44.5632 11.4682 44.6093 11.459 44.6647C11.459 44.7201 11.459 44.7755 11.459 44.8308L12.8604 44.997C12.8788 44.9416 12.8881 44.8954 12.8973 44.8401Z" fill="#E9B218"/>
</g>
</g>
<g id="Group_15">
<g id="Group_16">
<path id="Vector_59" d="M10.1407 57.1214L9.91016 57.0938C9.93782 57.4814 10.2421 57.8136 10.6477 57.8598C10.6846 57.8598 10.7215 57.8598 10.7584 57.8598C10.4172 57.7675 10.1683 57.4721 10.1407 57.1214Z" fill="#C90A0A"/>
<path id="Vector_60" d="M10.962 56.2271C10.962 56.2271 10.8882 56.2086 10.8514 56.2086C10.4457 56.1625 10.0769 56.4117 9.95703 56.7808L10.1875 56.8085C10.2982 56.4763 10.6116 56.2363 10.962 56.2363V56.2271Z" fill="#C90A0A"/>
<path id="Vector_61" d="M9.91992 57.0965L10.1504 57.1241C10.1504 57.0688 10.1504 57.0134 10.1504 56.958C10.1504 56.9026 10.1689 56.8473 10.1873 56.8011L9.9568 56.7734C9.93836 56.8288 9.92914 56.875 9.91992 56.9303C9.91992 56.9857 9.91992 57.0411 9.91992 57.0965Z" fill="#DC9C0E"/>
<path id="Vector_62" d="M11.542 57.2911L10.1406 57.125C10.1683 57.4757 10.4172 57.7803 10.7584 57.8633C11.1179 57.8633 11.4314 57.6234 11.5328 57.2911H11.542Z" fill="#FF2727"/>
<path id="Vector_63" d="M10.1875 56.7988L11.5889 56.9649C11.5613 56.6142 11.3123 56.3096 10.9712 56.2266C10.6116 56.2266 10.2981 56.4665 10.1967 56.7988H10.1875Z" fill="#FF2727"/>
<path id="Vector_64" d="M11.5789 57.1291C11.5789 57.0737 11.5789 57.0184 11.5789 56.963L10.1775 56.7969C10.1591 56.8522 10.1498 56.8984 10.1406 56.9538C10.1406 57.0091 10.1406 57.0645 10.1406 57.1199L11.542 57.286C11.5605 57.2306 11.5697 57.1845 11.5789 57.1291Z" fill="#E9B218"/>
</g>
<g id="Group_17">
<path id="Vector_65" d="M8.52737 56.9339L8.29688 56.9062C8.32453 57.2939 8.62879 57.6261 9.03446 57.6723C9.07134 57.6723 9.10822 57.6723 9.1451 57.6723C8.80397 57.58 8.55503 57.2846 8.52737 56.9339Z" fill="#C90A0A"/>
<path id="Vector_66" d="M9.33895 56.0318C9.33895 56.0318 9.26519 56.0133 9.22831 56.0133C8.82264 55.9672 8.45384 56.2163 8.33398 56.5855L8.56448 56.6132C8.67512 56.281 8.98859 56.041 9.33895 56.041V56.0318Z" fill="#C90A0A"/>
<path id="Vector_67" d="M8.29707 56.909L8.52756 56.9366C8.52756 56.8813 8.52756 56.8259 8.52756 56.7705C8.52756 56.7151 8.546 56.6598 8.56444 56.6136L8.33395 56.5859C8.31551 56.6413 8.30629 56.6875 8.29707 56.7428C8.28785 56.7982 8.29707 56.8536 8.29707 56.909Z" fill="#DC9C0E"/>
<path id="Vector_68" d="M9.92876 57.1036L8.52734 56.9375C8.555 57.2882 8.80394 57.5928 9.14507 57.6758C9.50465 57.6758 9.81812 57.4359 9.91954 57.1036H9.92876Z" fill="#FF2727"/>
<path id="Vector_69" d="M8.56445 56.6035L9.96587 56.7696C9.93821 56.4189 9.68928 56.1143 9.34814 56.0312C8.98857 56.0312 8.67509 56.2712 8.57367 56.6035H8.56445Z" fill="#FF2727"/>
<path id="Vector_70" d="M9.95588 56.9338C9.95588 56.8784 9.95588 56.8231 9.95588 56.7677L8.55446 56.6016C8.53602 56.6569 8.5268 56.7031 8.51758 56.7585C8.51758 56.8138 8.51758 56.8692 8.51758 56.9246L9.919 57.0907C9.93744 57.0353 9.94666 56.9892 9.95588 56.9338Z" fill="#E9B218"/>
</g>
<g id="Group_18">
<path id="Vector_71" d="M9.11722 58.0042L8.88672 57.9766C8.91438 58.3642 9.21863 58.6964 9.62431 58.7426C9.66119 58.7426 9.69807 58.7426 9.73495 58.7426C9.39381 58.6503 9.14487 58.355 9.11722 58.0042Z" fill="#C90A0A"/>
<path id="Vector_72" d="M9.92879 57.1099C9.92879 57.1099 9.85503 57.0914 9.81815 57.0914C9.41248 57.0453 9.04369 57.2945 8.92383 57.6636L9.15432 57.6913C9.26496 57.3591 9.57844 57.1191 9.92879 57.1191V57.1099Z" fill="#C90A0A"/>
<path id="Vector_73" d="M8.88672 57.9793L9.11722 58.007C9.11722 57.9516 9.11722 57.8962 9.11722 57.8408C9.11722 57.7855 9.13565 57.7301 9.15409 57.6839L8.9236 57.6562C8.90516 57.7116 8.89594 57.7578 8.88672 57.8131C8.88672 57.8685 8.88672 57.9239 8.88672 57.9793Z" fill="#DC9C0E"/>
<path id="Vector_74" d="M10.5186 58.1739L9.11719 58.0078C9.14485 58.3585 9.39378 58.6631 9.73492 58.7461C10.0945 58.7461 10.408 58.5062 10.5094 58.1739H10.5186Z" fill="#FF2727"/>
<path id="Vector_75" d="M9.1543 57.6816L10.5557 57.8477C10.5281 57.497 10.2791 57.1924 9.93798 57.1094C9.57841 57.1094 9.26493 57.3493 9.16352 57.6816H9.1543Z" fill="#FF2727"/>
<path id="Vector_76" d="M10.5557 58.0119C10.5557 57.9566 10.5557 57.9012 10.5557 57.8458L9.15426 57.6797C9.13582 57.7351 9.1266 57.7812 9.11738 57.8366C9.10816 57.892 9.11738 57.9473 9.11738 58.0027L10.5188 58.1688C10.5372 58.1135 10.5465 58.0673 10.5557 58.0119Z" fill="#E9B218"/>
</g>
</g>
<g id="Group_19">
<path id="Vector_77" d="M25.9082 35.9474H36.4834C36.4004 35.8366 36.3174 35.7259 36.2344 35.6151C35.8656 35.1168 35.4969 34.6092 35.1281 34.1016H25.9082V35.9474Z" fill="#3C771E"/>
<path id="Vector_78" d="M36.4834 35.9453H25.9082V46.3557H40.5954C42.0614 46.3557 42.9096 44.6853 42.043 43.4947C40.6139 41.5566 38.6039 38.8248 36.4926 35.9453H36.4834Z" fill="#468C21"/>
<path id="Vector_79" d="M25.9072 35.6073V34.0938H16.6874C16.3186 34.6014 15.9498 35.0997 15.581 35.6073C15.498 35.7181 15.415 35.8288 15.332 35.9396H25.9072V35.6073Z" fill="#4A8F21"/>
<path id="Vector_80" d="M25.9076 35.9453H15.3324C13.2211 38.8248 11.2111 41.5566 9.78206 43.4947C8.90617 44.676 9.7544 46.3557 11.2296 46.3557H25.9168V35.9453H25.9076Z" fill="#509F23"/>
</g>
<g id="Group_20">
<path id="Vector_81" d="M25.9069 46.3516H14.1976L13.082 48.1235H25.9069V46.3516Z" fill="#4A8F21"/>
<path id="Vector_82" d="M13.0827 48.125L7.53238 56.9665C6.82245 58.1017 7.63379 59.5783 8.97067 59.5783H25.9076V48.125H13.0827Z" fill="#509F23"/>
<path id="Vector_83" d="M38.733 48.125H25.9082V59.5783H42.8451C44.182 59.5783 45.0025 58.1017 44.2834 56.9665L38.733 48.125Z" fill="#468C21"/>
<path id="Vector_84" d="M38.733 48.1235L37.6174 46.3516H25.9082V48.1235H38.733Z" fill="#3C771E"/>
</g>
<g id="Group_21">
<path id="Vector_85" d="M24.5618 22.9637L24.9122 22.8438C25.0044 23.4806 24.6356 24.1081 24.0086 24.3204C23.9533 24.3389 23.8888 24.3573 23.8242 24.3666C24.3405 24.0989 24.6356 23.5359 24.5526 22.9637H24.5618Z" fill="#C90A0A"/>
<path id="Vector_86" d="M22.9395 21.808C22.9948 21.7803 23.0501 21.7526 23.1146 21.7341C23.7416 21.5126 24.4146 21.7803 24.7373 22.3248L24.387 22.4448C24.0919 21.9464 23.5111 21.688 22.9395 21.7987V21.808Z" fill="#C90A0A"/>
<path id="Vector_87" d="M24.9123 22.8357L24.5619 22.9557C24.5527 22.8634 24.525 22.7804 24.4974 22.6973C24.4697 22.6142 24.4328 22.5312 24.3867 22.4481L24.7371 22.3281C24.7832 22.402 24.8201 22.485 24.8477 22.5773C24.8754 22.6604 24.903 22.7527 24.9123 22.8357Z" fill="#DC9C0E"/>
<path id="Vector_88" d="M22.3867 23.7191L24.5626 22.9531C24.6456 23.5253 24.3505 24.0883 23.8342 24.3559C23.2626 24.4759 22.6818 24.2083 22.3867 23.7099V23.7191Z" fill="#FF2727"/>
<path id="Vector_89" d="M24.387 22.4543L22.2111 23.2203C22.1282 22.6481 22.4232 22.0852 22.9395 21.8175C23.5111 21.6975 24.092 21.9652 24.387 22.4636V22.4543Z" fill="#FF2727"/>
<path id="Vector_90" d="M22.2755 23.4776C22.2478 23.3945 22.2202 23.3022 22.2109 23.2191L24.3868 22.4531C24.4329 22.527 24.4698 22.61 24.4975 22.7023C24.5251 22.7854 24.5528 22.8777 24.562 22.9607L22.3861 23.7267C22.34 23.6529 22.3031 23.5698 22.2755 23.4776Z" fill="#E9B218"/>
</g>
<g id="Group_22">
<path id="Vector_91" d="M32.0671 27.5703L32.4267 27.6534C32.1593 28.2348 31.5139 28.5671 30.8685 28.4102C30.804 28.3917 30.7487 28.3732 30.6934 28.3548C31.2742 28.4102 31.8274 28.0964 32.0671 27.5703Z" fill="#C90A0A"/>
<path id="Vector_92" d="M31.3301 25.7266C31.3946 25.7266 31.4499 25.745 31.5145 25.7542C32.1599 25.9111 32.584 26.5018 32.5563 27.1386L32.1967 27.0556C32.2152 26.4741 31.874 25.9388 31.3301 25.7266Z" fill="#C90A0A"/>
<path id="Vector_93" d="M32.4357 27.6638L32.0762 27.5807C32.1131 27.4977 32.1407 27.4146 32.1684 27.3223C32.1868 27.23 32.2052 27.147 32.2052 27.0547L32.5648 27.1377C32.5648 27.23 32.5464 27.3131 32.5279 27.4054C32.5095 27.4977 32.4726 27.5807 32.4357 27.6638Z" fill="#DC9C0E"/>
<path id="Vector_94" d="M29.8269 27.0391L32.0673 27.5836C31.8276 28.1096 31.2744 28.4234 30.6936 28.3681C30.1496 28.1558 29.8084 27.6205 29.8269 27.0391Z" fill="#FF2727"/>
<path id="Vector_95" d="M32.1955 27.054L29.9551 26.5095C30.1948 25.9835 30.748 25.6697 31.3288 25.725C31.8728 25.9373 32.2232 26.4726 32.1955 27.054Z" fill="#FF2727"/>
<path id="Vector_96" d="M29.8631 26.7662C29.8815 26.6739 29.9184 26.5909 29.9553 26.5078L32.1957 27.0523C32.1957 27.1446 32.1772 27.2277 32.1588 27.32C32.1404 27.4123 32.1035 27.4953 32.0666 27.5784L29.8262 27.0339C29.8262 26.9416 29.8446 26.8585 29.8631 26.7662Z" fill="#E9B218"/>
</g>
<g id="Group_23">
<path id="Vector_97" d="M33.5408 42.4844L33.1074 42.5767C33.4025 43.2781 34.1585 43.6934 34.9237 43.5365C34.9975 43.518 35.0713 43.4996 35.1358 43.4719C34.4443 43.518 33.8081 43.1212 33.5408 42.4844Z" fill="#C90A0A"/>
<path id="Vector_98" d="M34.5005 40.3203C34.4267 40.3203 34.3529 40.3295 34.2792 40.348C33.5139 40.5049 32.9792 41.1878 32.9884 41.9446L33.4217 41.8523C33.4217 41.1694 33.8458 40.5418 34.5005 40.3203Z" fill="#C90A0A"/>
<path id="Vector_99" d="M33.1076 42.5778L33.5409 42.4855C33.504 42.3932 33.4672 42.2825 33.4487 42.181C33.4303 42.0702 33.4119 41.9687 33.4119 41.8672L32.9785 41.9595C32.9785 42.061 32.9877 42.1717 33.0154 42.2733C33.0338 42.384 33.0707 42.4855 33.1076 42.5778Z" fill="#DC9C0E"/>
<path id="Vector_100" d="M36.224 41.9297L33.541 42.4834C33.8084 43.111 34.4538 43.5171 35.1361 43.4709C35.7907 43.2402 36.224 42.6219 36.2148 41.9389L36.224 41.9297Z" fill="#FF2727"/>
<path id="Vector_101" d="M33.4121 41.8651L36.0951 41.3114C35.8277 40.6838 35.1823 40.2777 34.5 40.3239C33.8454 40.5546 33.4121 41.173 33.4213 41.8559L33.4121 41.8651Z" fill="#FF2727"/>
<path id="Vector_102" d="M36.1873 41.6171C36.1688 41.5063 36.132 41.4048 36.0951 41.3125L33.4121 41.8662C33.4121 41.9678 33.4213 42.0785 33.449 42.18C33.4674 42.2908 33.5043 42.3923 33.5412 42.4846L36.2242 41.9309C36.2242 41.8293 36.2149 41.7186 36.1873 41.6078V41.6171Z" fill="#E9B218"/>
</g>
<g id="Group_24">
<path id="Vector_103" d="M36.5013 53.0234L36.9346 53.1157C36.6396 53.8171 35.8836 54.2324 35.1183 54.0756C35.0445 54.0571 34.9708 54.0386 34.9062 54.011C35.5977 54.0571 36.2339 53.6602 36.5013 53.0234Z" fill="#C90A0A"/>
<path id="Vector_104" d="M35.5508 50.8594C35.6245 50.8594 35.6983 50.8686 35.7721 50.8871C36.5373 51.044 37.0721 51.7269 37.0628 52.4837L36.6295 52.3914C36.6295 51.7085 36.2054 51.0809 35.5508 50.8594Z" fill="#C90A0A"/>
<path id="Vector_105" d="M36.9353 53.1183L36.502 53.026C36.5388 52.9337 36.5757 52.823 36.5942 52.7215C36.6126 52.6107 36.631 52.5092 36.631 52.3984L37.0644 52.4907C37.0644 52.5922 37.0551 52.703 37.0275 52.8137C37.009 52.9245 36.9722 53.026 36.9353 53.1183Z" fill="#DC9C0E"/>
<path id="Vector_106" d="M33.8281 52.4766L36.5111 53.0303C36.2437 53.6579 35.5983 54.064 34.9161 54.0178C34.2615 53.7871 33.8281 53.1687 33.8373 52.4858L33.8281 52.4766Z" fill="#FF2727"/>
<path id="Vector_107" d="M36.6302 52.4042L33.9473 51.8505C34.2146 51.2229 34.86 50.8168 35.5423 50.8629C36.1969 51.0937 36.6302 51.712 36.621 52.395L36.6302 52.4042Z" fill="#FF2727"/>
<path id="Vector_108" d="M33.8552 52.1561C33.8737 52.0454 33.9106 51.9439 33.9474 51.8516L36.6304 52.4053C36.6304 52.5068 36.6212 52.6176 36.5935 52.7283C36.5751 52.8391 36.5382 52.9406 36.5013 53.0329L33.8184 52.4791C33.8184 52.3776 33.8276 52.2669 33.8552 52.1654V52.1561Z" fill="#E9B218"/>
</g>
<g id="Group_25">
<path id="Vector_109" d="M26.7552 38.3764L26.3311 38.2656C26.285 39.0224 26.7829 39.7331 27.5389 39.9269C27.6126 39.9453 27.6864 39.9546 27.7602 39.9638C27.124 39.7054 26.7183 39.0593 26.7552 38.3764Z" fill="#C90A0A"/>
<path id="Vector_110" d="M28.553 36.8511C28.4884 36.8234 28.4147 36.7957 28.3409 36.7772C27.5757 36.5834 26.8104 36.9618 26.4785 37.6355L26.9026 37.7463C27.1977 37.1279 27.8615 36.7588 28.553 36.8418V36.8511Z" fill="#C90A0A"/>
<path id="Vector_111" d="M26.3223 38.2668L26.7464 38.3775C26.7464 38.276 26.7648 38.1653 26.7925 38.0637C26.8201 37.9622 26.857 37.8607 26.9031 37.7592L26.479 37.6484C26.4329 37.7407 26.396 37.8422 26.3684 37.953C26.3407 38.0545 26.3223 38.1653 26.3223 38.2668Z" fill="#DC9C0E"/>
<path id="Vector_112" d="M29.4024 39.058L26.7563 38.375C26.7194 39.058 27.1158 39.704 27.7612 39.9624C28.4435 40.0455 29.1073 39.6763 29.4116 39.058H29.4024Z" fill="#FF2727"/>
<path id="Vector_113" d="M26.9116 37.752L29.5577 38.4349C29.5945 37.752 29.1981 37.106 28.5527 36.8475C27.8704 36.7645 27.2066 37.1336 26.9023 37.752H26.9116Z" fill="#FF2727"/>
<path id="Vector_114" d="M29.5126 38.7624C29.5403 38.6608 29.5587 38.5501 29.5587 38.4486L26.9126 37.7656C26.8665 37.8579 26.8296 37.9594 26.802 38.0702C26.7743 38.1717 26.7559 38.2825 26.7559 38.384L29.402 39.0669C29.4481 38.9746 29.4849 38.8731 29.5126 38.7624Z" fill="#E9B218"/>
</g>
<g id="Group_26">
<path id="Vector_115" d="M20.6252 29.4844L20.994 29.5674C20.7358 30.1581 20.0812 30.5088 19.4266 30.3611C19.362 30.3427 19.3067 30.3242 19.2422 30.3058C19.8323 30.3519 20.3854 30.0197 20.6252 29.4844Z" fill="#C90A0A"/>
<path id="Vector_116" d="M19.832 27.6328C19.8966 27.6328 19.9611 27.642 20.0164 27.6605C20.671 27.8082 21.1136 28.3988 21.1044 29.0449L20.7356 28.9618C20.7448 28.3804 20.3852 27.8359 19.832 27.6328Z" fill="#C90A0A"/>
<path id="Vector_117" d="M20.9938 29.5701L20.625 29.487C20.6619 29.4039 20.6895 29.3209 20.708 29.2286C20.7264 29.1363 20.7356 29.044 20.7449 28.9609L21.1137 29.044C21.1137 29.1363 21.1044 29.2286 21.0768 29.3116C21.0583 29.4039 21.0307 29.487 20.9938 29.5701Z" fill="#DC9C0E"/>
<path id="Vector_118" d="M18.3381 28.9766L20.6246 29.4842C20.3849 30.0195 19.8317 30.3517 19.2416 30.3056C18.6884 30.1025 18.3288 29.5672 18.3381 28.9766Z" fill="#FF2727"/>
<path id="Vector_119" d="M20.7436 28.9504L18.457 28.4428C18.6967 27.9076 19.2499 27.5753 19.84 27.6214C20.3932 27.8245 20.7528 28.3598 20.7436 28.9504Z" fill="#FF2727"/>
<path id="Vector_120" d="M18.3748 28.7115C18.3932 28.6192 18.4209 28.5362 18.4577 28.4531L20.7443 28.9607C20.7443 29.053 20.7351 29.1453 20.7074 29.2284C20.689 29.3207 20.6613 29.4037 20.6244 29.4868L18.3379 28.9792C18.3379 28.8869 18.3471 28.7946 18.3748 28.7115Z" fill="#E9B218"/>
</g>
<g id="Group_27">
<path id="Vector_121" d="M15.3243 42.3516H14.8633C15.0292 43.1268 15.7115 43.7082 16.5321 43.699C16.6058 43.699 16.6888 43.699 16.7626 43.6806C16.0434 43.5883 15.4718 43.053 15.3243 42.3516Z" fill="#C90A0A"/>
<path id="Vector_122" d="M16.7349 40.331C16.6612 40.3217 16.5782 40.3125 16.5044 40.3125C15.6838 40.3125 15.0108 40.9124 14.8633 41.6876H15.3243C15.4534 40.977 16.025 40.4325 16.7349 40.331Z" fill="#C90A0A"/>
<path id="Vector_123" d="M14.8631 42.3598H15.324C15.3056 42.2491 15.2872 42.1383 15.2872 42.0276C15.2872 41.9168 15.2964 41.8061 15.3148 41.6953H14.8538C14.8354 41.8061 14.8262 41.9168 14.8262 42.0368C14.8262 42.1475 14.8354 42.2583 14.8631 42.369V42.3598Z" fill="#DC9C0E"/>
<path id="Vector_124" d="M18.1732 42.3281L15.3242 42.3558C15.4717 43.0572 16.0434 43.5925 16.7625 43.6848C17.4724 43.5833 18.0441 43.0295 18.1732 42.3281Z" fill="#FF2727"/>
<path id="Vector_125" d="M15.3145 41.6848L18.1634 41.6571C18.0159 40.9557 17.4442 40.4204 16.7251 40.3281C16.0152 40.4296 15.4435 40.9834 15.3145 41.6848Z" fill="#FF2727"/>
<path id="Vector_126" d="M18.2103 41.9885C18.2103 41.8777 18.2011 41.767 18.1735 41.6562L15.3245 41.6839C15.3061 41.7947 15.2969 41.9054 15.2969 42.0162C15.2969 42.1269 15.3061 42.2377 15.3338 42.3484L18.1827 42.3207C18.2011 42.21 18.2103 42.0992 18.2103 41.9885Z" fill="#E9B218"/>
</g>
<g id="Group_28">
<path id="Vector_127" d="M23.981 51.2038L24.442 51.1484C24.3867 51.9329 23.7782 52.5974 22.9668 52.6989C22.8931 52.7082 22.8101 52.7082 22.7363 52.7082C23.437 52.5236 23.9349 51.9145 23.9902 51.2038H23.981Z" fill="#C90A0A"/>
<path id="Vector_128" d="M22.3203 49.3874C22.3941 49.3689 22.4678 49.3505 22.5508 49.3412C23.3622 49.2397 24.109 49.7381 24.3579 50.4856L23.8969 50.541C23.6756 49.8673 23.0395 49.3966 22.3203 49.3874Z" fill="#C90A0A"/>
<path id="Vector_129" d="M24.441 51.1396L23.98 51.195C23.98 51.0843 23.98 50.9735 23.98 50.8628C23.98 50.752 23.9431 50.6413 23.9062 50.5397L24.3672 50.4844C24.4041 50.5859 24.4226 50.6966 24.441 50.8074C24.4594 50.9181 24.4594 51.0289 24.441 51.1396Z" fill="#DC9C0E"/>
<path id="Vector_130" d="M21.1504 51.546L23.9809 51.1953C23.9256 51.906 23.4277 52.5151 22.727 52.6997C22.0078 52.6904 21.3717 52.2197 21.1504 51.546Z" fill="#FF2727"/>
<path id="Vector_131" d="M23.8969 50.5443L21.0664 50.895C21.1217 50.1843 21.6196 49.5752 22.3203 49.3906C23.0395 49.3999 23.6756 49.8705 23.8969 50.5443Z" fill="#FF2727"/>
<path id="Vector_132" d="M21.0763 51.222C21.0579 51.1113 21.0579 51.0005 21.0763 50.8898L23.9068 50.5391C23.9437 50.6406 23.9621 50.7513 23.9806 50.8621C23.999 50.9728 23.999 51.0836 23.9806 51.1943L21.1501 51.545C21.1132 51.4435 21.0948 51.3328 21.0763 51.222Z" fill="#E9B218"/>
</g>
<g id="Group_29">
<path id="Vector_133" d="M16.1159 55.5547L16.5769 55.6008C16.3556 56.3576 15.618 56.8745 14.8067 56.8006C14.7329 56.8006 14.6499 56.7822 14.5762 56.7637C15.2953 56.736 15.9131 56.2469 16.1159 55.5547Z" fill="#C90A0A"/>
<path id="Vector_134" d="M14.8803 53.4233C14.9541 53.4233 15.0371 53.4233 15.1108 53.4233C15.9222 53.4971 16.5491 54.1432 16.6321 54.9276L16.1711 54.8815C16.0973 54.1708 15.5718 53.5802 14.8711 53.4141L14.8803 53.4233Z" fill="#C90A0A"/>
<path id="Vector_135" d="M16.5762 55.5935L16.1152 55.5473C16.1429 55.4458 16.1706 55.335 16.1798 55.2151C16.189 55.0951 16.1798 54.9936 16.1798 54.8828L16.6408 54.929C16.65 55.0397 16.65 55.1505 16.6408 55.2612C16.6315 55.372 16.6131 55.4827 16.5762 55.5935Z" fill="#DC9C0E"/>
<path id="Vector_136" d="M13.2773 55.2891L16.1171 55.5475C15.9142 56.2304 15.2965 56.7196 14.5773 56.7565C13.8766 56.5904 13.3511 55.9997 13.2773 55.2891Z" fill="#FF2727"/>
<path id="Vector_137" d="M16.1815 54.8893L13.3418 54.6309C13.5446 53.9479 14.1624 53.4588 14.8815 53.4219C15.5822 53.588 16.1078 54.1787 16.1815 54.8893Z" fill="#FF2727"/>
<path id="Vector_138" d="M13.2764 54.9572C13.2857 54.8465 13.3041 54.7357 13.341 54.625L16.1807 54.8834C16.1899 54.9942 16.1899 55.1049 16.1807 55.2157C16.1715 55.3264 16.153 55.4372 16.1162 55.5479L13.2764 55.2895C13.2672 55.1787 13.2672 55.068 13.2764 54.9572Z" fill="#E9B218"/>
</g>
</g>
</g>
<defs>
<filter id="filter0_d_7155_54100" x="0.823203" y="0.98875" width="50.1837" height="66.0216" filterUnits="userSpaceOnUse" color-interpolation-filters="sRGB">
<feFlood flood-opacity="0" result="BackgroundImageFix"/>
<feColorMatrix in="SourceAlpha" type="matrix" values="0 0 0 0 0 0 0 0 0 0 0 0 0 0 0 0 0 0 127 0" result="hardAlpha"/>
<feOffset dy="0.98"/>
<feGaussianBlur stdDeviation="0.98"/>
<feColorMatrix type="matrix" values="0 0 0 0 0.172549 0 0 0 0 0.196078 0 0 0 0 0.207843 0 0 0 0.2 0"/>
<feBlend mode="normal" in2="BackgroundImageFix" result="effect1_dropShadow_7155_54100"/>
<feBlend mode="normal" in="SourceGraphic" in2="effect1_dropShadow_7155_54100" result="shape"/>
</filter>
<clipPath id="clip0_7155_54100">
<rect width="52" height="68" fill="white"/>
</clipPath>
</defs>
</svg>
