<svg xmlns="http://www.w3.org/2000/svg" width="390" height="219" viewBox="0 0 390 219" fill="none">
  <path fill-rule="evenodd" clip-rule="evenodd" d="M390 8C390 3.58172 386.418 0 382 0H8C3.58172 0 0 3.58172 0 8V165C0 169.418 3.58173 173 8.00001 173H188.35C194.815 173 199.081 180.803 198.458 187.238C197.497 197.172 201.517 207.637 211.821 214.118C216.409 217.005 221.719 218.536 227.14 218.536H361.232C377.12 218.536 390 205.656 390 189.768C390 184.786 388.734 180.1 386.505 176.014C385.793 174.707 386.685 173 388.173 173C389.182 173 390 172.182 390 171.173V8Z" fill="#F2F2F2"/>
</svg>