<svg width="7" height="73" viewBox="0 0 7 73" fill="none" xmlns="http://www.w3.org/2000/svg">
<path d="M-2.75095e-08 0.571191L0 0L6.99999 2.77706e-07L6.99999 0.571192L-2.75095e-08 0.571191Z" fill="#565656"/>
<path d="M-2.7509e-08 10.1032L0 9.53198L6.99999 9.53198L6.99999 10.1032L-2.7509e-08 10.1032Z" fill="#565656"/>
<path d="M2.80078 2.47708L2.80078 1.90588L7.00155 1.90588L7.00155 2.47708L2.80078 2.47708Z" fill="#565656"/>
<path d="M2.80078 4.3843L2.80078 3.81311L7.00155 3.81311L7.00155 4.3843L2.80078 4.3843Z" fill="#565656"/>
<path d="M2.80078 6.29019L2.80078 5.71899L7.00155 5.71899L7.00155 6.29019L2.80078 6.29019Z" fill="#565656"/>
<path d="M2.80078 8.19594L2.80078 7.62476L7.00155 7.62476L7.00155 8.19594L2.80078 8.19594Z" fill="#565656"/>
<path d="M-2.75095e-08 0.571191L0 0L6.99999 2.77706e-07L6.99999 0.571192L-2.75095e-08 0.571191Z" fill="#565656"/>
<path d="M2.80078 2.47708L2.80078 1.90588L7.00155 1.90588L7.00155 2.47708L2.80078 2.47708Z" fill="#565656"/>
<path d="M2.80078 4.3843L2.80078 3.81311L7.00155 3.81311L7.00155 4.3843L2.80078 4.3843Z" fill="#565656"/>
<path d="M2.80078 6.29019L2.80078 5.71899L7.00155 5.71899L7.00155 6.29019L2.80078 6.29019Z" fill="#565656"/>
<path d="M2.80078 8.19594L2.80078 7.62476L7.00155 7.62476L7.00155 8.19594L2.80078 8.19594Z" fill="#565656"/>
<path d="M-2.75095e-08 19.6311L0 19.0599L6.99999 19.0599L6.99999 19.6311L-2.75095e-08 19.6311Z" fill="#565656"/>
<path d="M2.80078 12.0091L2.80078 11.4379L7.00155 11.4379L7.00155 12.0091L2.80078 12.0091Z" fill="#565656"/>
<path d="M2.80078 13.9149L2.80078 13.3438L7.00155 13.3438L7.00155 13.9149L2.80078 13.9149Z" fill="#565656"/>
<path d="M2.80078 15.8222L2.80078 15.251L7.00155 15.251L7.00155 15.8222L2.80078 15.8222Z" fill="#565656"/>
<path d="M2.80078 17.7239L2.80078 17.1527L7.00155 17.1527L7.00155 17.7239L2.80078 17.7239Z" fill="#565656"/>
<path d="M2.80078 12.0091L2.80078 11.4379L7.00155 11.4379L7.00155 12.0091L2.80078 12.0091Z" fill="#565656"/>
<path d="M2.80078 13.9149L2.80078 13.3438L7.00155 13.3438L7.00155 13.9149L2.80078 13.9149Z" fill="#565656"/>
<path d="M2.80078 15.8222L2.80078 15.251L7.00155 15.251L7.00155 15.8222L2.80078 15.8222Z" fill="#565656"/>
<path d="M2.80078 17.7239L2.80078 17.1527L7.00155 17.1527L7.00155 17.7239L2.80078 17.7239Z" fill="#565656"/>
<path d="M-2.75095e-08 27.256L0 26.6848L6.99999 26.6848L6.99999 27.256L-2.75095e-08 27.256Z" fill="#565656"/>
<path d="M2.80078 19.6311L2.80078 19.0599L7.00155 19.0599L7.00155 19.6311L2.80078 19.6311Z" fill="#565656"/>
<path d="M2.80078 21.537L2.80078 20.9658L7.00155 20.9658L7.00155 21.537L2.80078 21.537Z" fill="#565656"/>
<path d="M2.80078 23.4429L2.80078 22.8717L7.00155 22.8717L7.00155 23.4429L2.80078 23.4429Z" fill="#565656"/>
<path d="M2.80078 25.3501L2.80078 24.7789L7.00155 24.7789L7.00155 25.3501L2.80078 25.3501Z" fill="#565656"/>
<path d="M2.80078 21.537L2.80078 20.9658L7.00155 20.9658L7.00155 21.537L2.80078 21.537Z" fill="#565656"/>
<path d="M2.80078 23.4429L2.80078 22.8717L7.00155 22.8717L7.00155 23.4429L2.80078 23.4429Z" fill="#565656"/>
<path d="M2.80078 25.3501L2.80078 24.7789L7.00155 24.7789L7.00155 25.3501L2.80078 25.3501Z" fill="#565656"/>
<path d="M-2.75095e-08 36.7838L0 36.2126L6.99999 36.2126L6.99999 36.7838L-2.75095e-08 36.7838Z" fill="#565656"/>
<path d="M2.80078 29.1618L2.80078 28.5906L7.00155 28.5906L7.00155 29.1618L2.80078 29.1618Z" fill="#565656"/>
<path d="M2.80078 31.069L2.80078 30.4978L7.00155 30.4978L7.00155 31.069L2.80078 31.069Z" fill="#565656"/>
<path d="M2.80078 32.9749L2.80078 32.4037L7.00155 32.4037L7.00155 32.9749L2.80078 32.9749Z" fill="#565656"/>
<path d="M2.80078 34.8808L2.80078 34.3096L7.00155 34.3096L7.00155 34.8808L2.80078 34.8808Z" fill="#565656"/>
<path d="M2.80078 29.1618L2.80078 28.5906L7.00155 28.5906L7.00155 29.1618L2.80078 29.1618Z" fill="#565656"/>
<path d="M2.80078 31.069L2.80078 30.4978L7.00155 30.4978L7.00155 31.069L2.80078 31.069Z" fill="#565656"/>
<path d="M2.80078 32.9749L2.80078 32.4037L7.00155 32.4037L7.00155 32.9749L2.80078 32.9749Z" fill="#565656"/>
<path d="M2.80078 34.8808L2.80078 34.3096L7.00155 34.3096L7.00155 34.8808L2.80078 34.8808Z" fill="#565656"/>
<path d="M-2.75095e-08 46.3159L0 45.7448L6.99999 45.7448L6.99999 46.3159L-2.75095e-08 46.3159Z" fill="#565656"/>
<path d="M2.80078 38.6897L2.80078 38.1185L7.00155 38.1185L7.00155 38.6897L2.80078 38.6897Z" fill="#565656"/>
<path d="M2.80078 40.5969L2.80078 40.0258L7.00155 40.0258L7.00155 40.5969L2.80078 40.5969Z" fill="#565656"/>
<path d="M2.80078 42.5028L2.80078 41.9316L7.00155 41.9316L7.00155 42.5028L2.80078 42.5028Z" fill="#565656"/>
<path d="M2.80078 44.4101L2.80078 43.8389L7.00155 43.8389L7.00155 44.4101L2.80078 44.4101Z" fill="#565656"/>
<path d="M2.80078 38.6897L2.80078 38.1185L7.00155 38.1185L7.00155 38.6897L2.80078 38.6897Z" fill="#565656"/>
<path d="M2.80078 40.5969L2.80078 40.0258L7.00155 40.0258L7.00155 40.5969L2.80078 40.5969Z" fill="#565656"/>
<path d="M2.80078 42.5028L2.80078 41.9316L7.00155 41.9316L7.00155 42.5028L2.80078 42.5028Z" fill="#565656"/>
<path d="M2.80078 44.4101L2.80078 43.8389L7.00155 43.8389L7.00155 44.4101L2.80078 44.4101Z" fill="#565656"/>
<path d="M-2.75095e-08 55.8466L0 55.2754L6.99999 55.2754L6.99999 55.8466L-2.75095e-08 55.8466Z" fill="#565656"/>
<path d="M2.80078 48.2217L2.80078 47.6505L7.00155 47.6505L7.00155 48.2217L2.80078 48.2217Z" fill="#565656"/>
<path d="M2.80078 50.1276L2.80078 49.5564L7.00155 49.5564L7.00155 50.1276L2.80078 50.1276Z" fill="#565656"/>
<path d="M2.80078 52.0348L2.80078 51.4636L7.00155 51.4636L7.00155 52.0348L2.80078 52.0348Z" fill="#565656"/>
<path d="M2.80078 53.9407L2.80078 53.3695L7.00155 53.3695L7.00155 53.9407L2.80078 53.9407Z" fill="#565656"/>
<path d="M2.80078 48.2217L2.80078 47.6505L7.00155 47.6505L7.00155 48.2217L2.80078 48.2217Z" fill="#565656"/>
<path d="M2.80078 50.1276L2.80078 49.5564L7.00155 49.5564L7.00155 50.1276L2.80078 50.1276Z" fill="#565656"/>
<path d="M2.80078 52.0348L2.80078 51.4636L7.00155 51.4636L7.00155 52.0348L2.80078 52.0348Z" fill="#565656"/>
<path d="M2.80078 53.9407L2.80078 53.3695L7.00155 53.3695L7.00155 53.9407L2.80078 53.9407Z" fill="#565656"/>
<path d="M-2.75095e-08 63.4687L0 62.8975L6.99999 62.8975L6.99999 63.4687L-2.75095e-08 63.4687Z" fill="#565656"/>
<path d="M2.80078 55.8466L2.80078 55.2754L7.00155 55.2754L7.00155 55.8466L2.80078 55.8466Z" fill="#565656"/>
<path d="M2.80078 57.7538L2.80078 57.1826L7.00155 57.1826L7.00155 57.7538L2.80078 57.7538Z" fill="#565656"/>
<path d="M2.80078 59.6555L2.80078 59.0844L7.00155 59.0844L7.00155 59.6555L2.80078 59.6555Z" fill="#565656"/>
<path d="M2.80078 61.5628L2.80078 60.9916L7.00155 60.9916L7.00155 61.5628L2.80078 61.5628Z" fill="#565656"/>
<path d="M2.80078 57.7538L2.80078 57.1826L7.00155 57.1826L7.00155 57.7538L2.80078 57.7538Z" fill="#565656"/>
<path d="M2.80078 59.6555L2.80078 59.0844L7.00155 59.0844L7.00155 59.6555L2.80078 59.6555Z" fill="#565656"/>
<path d="M2.80078 61.5628L2.80078 60.9916L7.00155 60.9916L7.00155 61.5628L2.80078 61.5628Z" fill="#565656"/>
<path d="M-2.75095e-08 73.0006L0 72.4294L6.99999 72.4294L6.99999 73.0006L-2.75095e-08 73.0006Z" fill="#565656"/>
<path d="M2.80078 65.3759L2.80078 64.8047L7.00155 64.8047L7.00155 65.3759L2.80078 65.3759Z" fill="#565656"/>
<path d="M2.80078 67.2817L2.80078 66.7106L7.00155 66.7106L7.00155 67.2817L2.80078 67.2817Z" fill="#565656"/>
<path d="M2.80078 69.1875L2.80078 68.6163L7.00155 68.6163L7.00155 69.1875L2.80078 69.1875Z" fill="#565656"/>
<path d="M2.80078 71.0934L2.80078 70.5222L7.00155 70.5222L7.00155 71.0934L2.80078 71.0934Z" fill="#565656"/>
<path d="M2.80078 65.3759L2.80078 64.8047L7.00155 64.8047L7.00155 65.3759L2.80078 65.3759Z" fill="#565656"/>
<path d="M2.80078 67.2817L2.80078 66.7106L7.00155 66.7106L7.00155 67.2817L2.80078 67.2817Z" fill="#565656"/>
<path d="M2.80078 69.1875L2.80078 68.6163L7.00155 68.6163L7.00155 69.1875L2.80078 69.1875Z" fill="#565656"/>
<path d="M2.80078 71.0934L2.80078 70.5222L7.00155 70.5222L7.00155 71.0934L2.80078 71.0934Z" fill="#565656"/>
</svg>
