<svg xmlns="http://www.w3.org/2000/svg" width="7" height="73" viewBox="0 0 7 73" fill="none">
  <path d="M-2.75095e-08 0.571191L0 0L6.99999 2.77706e-07L6.99999 0.571192L-2.75095e-08 0.571191Z" fill="#565656"/>
  <path d="M-2.7509e-08 10.1024L0 9.53125L6.99999 9.53125L6.99999 10.1024L-2.7509e-08 10.1024Z" fill="#565656"/>
  <path d="M2.79883 2.47744L2.79883 1.90625L6.99959 1.90625L6.99959 2.47744L2.79883 2.47744Z" fill="#565656"/>
  <path d="M2.79883 4.38369L2.79883 3.8125L6.99959 3.8125L6.99959 4.38369L2.79883 4.38369Z" fill="#565656"/>
  <path d="M2.79883 6.28994L2.79883 5.71875L6.99959 5.71875L6.99959 6.28994L2.79883 6.28994Z" fill="#565656"/>
  <path d="M2.79883 8.19618L2.79883 7.625L6.99959 7.625L6.99959 8.19618L2.79883 8.19618Z" fill="#565656"/>
  <path d="M-2.75095e-08 0.571191L0 0L6.99999 2.77706e-07L6.99999 0.571192L-2.75095e-08 0.571191Z" fill="#565656"/>
  <path d="M2.79883 2.47744L2.79883 1.90625L6.99959 1.90625L6.99959 2.47744L2.79883 2.47744Z" fill="#565656"/>
  <path d="M2.79883 4.38369L2.79883 3.8125L6.99959 3.8125L6.99959 4.38369L2.79883 4.38369Z" fill="#565656"/>
  <path d="M2.79883 6.28994L2.79883 5.71875L6.99959 5.71875L6.99959 6.28994L2.79883 6.28994Z" fill="#565656"/>
  <path d="M2.79883 8.19618L2.79883 7.625L6.99959 7.625L6.99959 8.19618L2.79883 8.19618Z" fill="#565656"/>
  <path d="M-2.75095e-08 19.6317L0 19.0605L6.99999 19.0605L6.99999 19.6317L-2.75095e-08 19.6317Z" fill="#565656"/>
  <path d="M2.79883 12.0087L2.79883 11.4375L6.99959 11.4375L6.99959 12.0087L2.79883 12.0087Z" fill="#565656"/>
  <path d="M2.79883 13.9149L2.79883 13.3438L6.99959 13.3438L6.99959 13.9149L2.79883 13.9149Z" fill="#565656"/>
  <path d="M2.79883 15.8212L2.79883 15.25L6.99959 15.25L6.99959 15.8212L2.79883 15.8212Z" fill="#565656"/>
  <path d="M2.79883 17.7235L2.79883 17.1523L6.99959 17.1523L6.99959 17.7235L2.79883 17.7235Z" fill="#565656"/>
  <path d="M2.79883 12.0087L2.79883 11.4375L6.99959 11.4375L6.99959 12.0087L2.79883 12.0087Z" fill="#565656"/>
  <path d="M2.79883 13.9149L2.79883 13.3438L6.99959 13.3438L6.99959 13.9149L2.79883 13.9149Z" fill="#565656"/>
  <path d="M2.79883 15.8212L2.79883 15.25L6.99959 15.25L6.99959 15.8212L2.79883 15.8212Z" fill="#565656"/>
  <path d="M2.79883 17.7235L2.79883 17.1523L6.99959 17.1523L6.99959 17.7235L2.79883 17.7235Z" fill="#565656"/>
  <path d="M-2.75095e-08 27.2567L0 26.6855L6.99999 26.6855L6.99999 27.2567L-2.75095e-08 27.2567Z" fill="#565656"/>
  <path d="M2.79883 19.6317L2.79883 19.0605L6.99959 19.0605L6.99959 19.6317L2.79883 19.6317Z" fill="#565656"/>
  <path d="M2.79883 21.536L2.79883 20.9648L6.99959 20.9648L6.99959 21.536L2.79883 21.536Z" fill="#565656"/>
  <path d="M2.79883 23.4423L2.79883 22.8711L6.99959 22.8711L6.99959 23.4423L2.79883 23.4423Z" fill="#565656"/>
  <path d="M2.79883 25.3505L2.79883 24.7793L6.99959 24.7793L6.99959 25.3505L2.79883 25.3505Z" fill="#565656"/>
  <path d="M2.79883 21.536L2.79883 20.9648L6.99959 20.9648L6.99959 21.536L2.79883 21.536Z" fill="#565656"/>
  <path d="M2.79883 23.4423L2.79883 22.8711L6.99959 22.8711L6.99959 23.4423L2.79883 23.4423Z" fill="#565656"/>
  <path d="M2.79883 25.3505L2.79883 24.7793L6.99959 24.7793L6.99959 25.3505L2.79883 25.3505Z" fill="#565656"/>
  <path d="M-2.75095e-08 36.7841L0 36.2129L6.99999 36.2129L6.99999 36.7841L-2.75095e-08 36.7841Z" fill="#565656"/>
  <path d="M2.79883 29.161L2.79883 28.5898L6.99959 28.5898L6.99959 29.161L2.79883 29.161Z" fill="#565656"/>
  <path d="M2.79883 31.0692L2.79883 30.498L6.99959 30.498L6.99959 31.0692L2.79883 31.0692Z" fill="#565656"/>
  <path d="M2.79883 32.9755L2.79883 32.4043L6.99959 32.4043L6.99959 32.9755L2.79883 32.9755Z" fill="#565656"/>
  <path d="M2.79883 34.8798L2.79883 34.3086L6.99959 34.3086L6.99959 34.8798L2.79883 34.8798Z" fill="#565656"/>
  <path d="M2.79883 29.161L2.79883 28.5898L6.99959 28.5898L6.99959 29.161L2.79883 29.161Z" fill="#565656"/>
  <path d="M2.79883 31.0692L2.79883 30.498L6.99959 30.498L6.99959 31.0692L2.79883 31.0692Z" fill="#565656"/>
  <path d="M2.79883 32.9755L2.79883 32.4043L6.99959 32.4043L6.99959 32.9755L2.79883 32.9755Z" fill="#565656"/>
  <path d="M2.79883 34.8798L2.79883 34.3086L6.99959 34.3086L6.99959 34.8798L2.79883 34.8798Z" fill="#565656"/>
  <path d="M-2.75095e-08 46.3153L0 45.7441L6.99999 45.7441L6.99999 46.3153L-2.75095e-08 46.3153Z" fill="#565656"/>
  <path d="M2.79883 38.6903L2.79883 38.1191L6.99959 38.1191L6.99959 38.6903L2.79883 38.6903Z" fill="#565656"/>
  <path d="M2.79883 40.5966L2.79883 40.0254L6.99959 40.0254L6.99959 40.5966L2.79883 40.5966Z" fill="#565656"/>
  <path d="M2.79883 42.5028L2.79883 41.9316L6.99959 41.9316L6.99959 42.5028L2.79883 42.5028Z" fill="#565656"/>
  <path d="M2.79883 44.4091L2.79883 43.8379L6.99959 43.8379L6.99959 44.4091L2.79883 44.4091Z" fill="#565656"/>
  <path d="M2.79883 38.6903L2.79883 38.1191L6.99959 38.1191L6.99959 38.6903L2.79883 38.6903Z" fill="#565656"/>
  <path d="M2.79883 40.5966L2.79883 40.0254L6.99959 40.0254L6.99959 40.5966L2.79883 40.5966Z" fill="#565656"/>
  <path d="M2.79883 42.5028L2.79883 41.9316L6.99959 41.9316L6.99959 42.5028L2.79883 42.5028Z" fill="#565656"/>
  <path d="M2.79883 44.4091L2.79883 43.8379L6.99959 43.8379L6.99959 44.4091L2.79883 44.4091Z" fill="#565656"/>
  <path d="M-2.75095e-08 55.8466L0 55.2754L6.99999 55.2754L6.99999 55.8466L-2.75095e-08 55.8466Z" fill="#565656"/>
  <path d="M2.79883 48.2216L2.79883 47.6504L6.99959 47.6504L6.99959 48.2216L2.79883 48.2216Z" fill="#565656"/>
  <path d="M2.79883 50.1278L2.79883 49.5566L6.99959 49.5566L6.99959 50.1278L2.79883 50.1278Z" fill="#565656"/>
  <path d="M2.79883 52.0341L2.79883 51.4629L6.99959 51.4629L6.99959 52.0341L2.79883 52.0341Z" fill="#565656"/>
  <path d="M2.79883 53.9403L2.79883 53.3691L6.99959 53.3691L6.99959 53.9403L2.79883 53.9403Z" fill="#565656"/>
  <path d="M2.79883 48.2216L2.79883 47.6504L6.99959 47.6504L6.99959 48.2216L2.79883 48.2216Z" fill="#565656"/>
  <path d="M2.79883 50.1278L2.79883 49.5566L6.99959 49.5566L6.99959 50.1278L2.79883 50.1278Z" fill="#565656"/>
  <path d="M2.79883 52.0341L2.79883 51.4629L6.99959 51.4629L6.99959 52.0341L2.79883 52.0341Z" fill="#565656"/>
  <path d="M2.79883 53.9403L2.79883 53.3691L6.99959 53.3691L6.99959 53.9403L2.79883 53.9403Z" fill="#565656"/>
  <path d="M-2.75095e-08 63.4677L0 62.8965L6.99999 62.8965L6.99999 63.4677L-2.75095e-08 63.4677Z" fill="#565656"/>
  <path d="M2.79883 55.8466L2.79883 55.2754L6.99959 55.2754L6.99959 55.8466L2.79883 55.8466Z" fill="#565656"/>
  <path d="M2.79883 57.7528L2.79883 57.1816L6.99959 57.1816L6.99959 57.7528L2.79883 57.7528Z" fill="#565656"/>
  <path d="M2.79883 59.6552L2.79883 59.084L6.99959 59.084L6.99959 59.6552L2.79883 59.6552Z" fill="#565656"/>
  <path d="M2.79883 61.5634L2.79883 60.9922L6.99959 60.9922L6.99959 61.5634L2.79883 61.5634Z" fill="#565656"/>
  <path d="M2.79883 57.7528L2.79883 57.1816L6.99959 57.1816L6.99959 57.7528L2.79883 57.7528Z" fill="#565656"/>
  <path d="M2.79883 59.6552L2.79883 59.084L6.99959 59.084L6.99959 59.6552L2.79883 59.6552Z" fill="#565656"/>
  <path d="M2.79883 61.5634L2.79883 60.9922L6.99959 60.9922L6.99959 61.5634L2.79883 61.5634Z" fill="#565656"/>
  <path d="M-2.75095e-08 73.0009L0 72.4297L6.99999 72.4297L6.99999 73.0009L-2.75095e-08 73.0009Z" fill="#565656"/>
  <path d="M2.79883 65.3759L2.79883 64.8047L6.99959 64.8047L6.99959 65.3759L2.79883 65.3759Z" fill="#565656"/>
  <path d="M2.79883 67.2821L2.79883 66.7109L6.99959 66.7109L6.99959 67.2821L2.79883 67.2821Z" fill="#565656"/>
  <path d="M2.79883 69.1884L2.79883 68.6172L6.99959 68.6172L6.99959 69.1884L2.79883 69.1884Z" fill="#565656"/>
  <path d="M2.79883 71.0927L2.79883 70.5215L6.99959 70.5215L6.99959 71.0927L2.79883 71.0927Z" fill="#565656"/>
  <path d="M2.79883 65.3759L2.79883 64.8047L6.99959 64.8047L6.99959 65.3759L2.79883 65.3759Z" fill="#565656"/>
  <path d="M2.79883 67.2821L2.79883 66.7109L6.99959 66.7109L6.99959 67.2821L2.79883 67.2821Z" fill="#565656"/>
  <path d="M2.79883 69.1884L2.79883 68.6172L6.99959 68.6172L6.99959 69.1884L2.79883 69.1884Z" fill="#565656"/>
  <path d="M2.79883 71.0927L2.79883 70.5215L6.99959 70.5215L6.99959 71.0927L2.79883 71.0927Z" fill="#565656"/>
</svg>