<svg width="520" height="462" viewBox="0 0 520 462" fill="none" xmlns="http://www.w3.org/2000/svg">
<path d="M503.41 340.675L511.001 333.093L511.001 161.8L495.296 146.114L495.295 43.4566L473.5 22.094L460.166 20.2292L459.146 20.8521L460.39 22.094L484 45.6756L484 77.0476L475.599 85.439L475.599 114.747L490.546 129.676L490.546 161.8L503.41 174.648L503.41 340.675Z" fill="#DEDEDE"/>
<path d="M112.868 421.521C112.87 421.521 112.871 421.523 112.871 421.525C105.495 444.907 83.5772 461.908 57.7615 461.908C25.9141 461.908 1.90594e-05 436.029 1.76689e-05 404.216C1.66806e-05 381.608 13.088 361.996 32.094 352.541C35.893 350.651 38.6135 346.945 38.6135 342.702L38.6135 301.323C38.6135 298.668 39.6692 296.122 41.548 294.246L46.1044 289.697C47.9831 287.821 49.0389 285.275 49.0389 282.62L49.0389 278.147C49.0389 275.492 47.9836 272.947 46.1056 271.071L5.46116 230.476C3.58317 228.6 2.52794 226.055 2.52794 223.401L2.52794 157.449C2.52794 154.795 3.58317 152.249 5.46115 150.374L12.1858 143.657C14.0638 141.781 15.119 139.236 15.1191 136.582L15.1195 9.99996C15.1195 4.47712 19.5966 -7.74368e-07 25.1195 -9.14346e-07L344.183 -9.00111e-06C346.833 -9.06828e-06 349.375 1.05215 351.25 2.9253L367.501 19.1597C368.15 19.8084 369.031 20.1728 369.949 20.1728C373.035 20.1728 374.58 16.4403 372.396 14.2591L370.367 12.2327C367.435 9.3042 369.509 4.29264 373.653 4.29264L374.06 4.29264C375.337 4.29264 376.562 4.79948 377.465 5.70184L391.037 19.2572C391.624 19.8435 392.42 20.1728 393.249 20.1728C396.04 20.1728 397.436 16.7986 395.462 14.8268L392.865 12.2327C389.933 9.3042 392.007 4.29264 396.151 4.29264L396.558 4.29264C397.834 4.29264 399.059 4.79949 399.963 5.70184L413.534 19.2572C414.121 19.8435 414.917 20.1728 415.747 20.1728C418.537 20.1728 419.934 16.7986 417.959 14.8268L415.362 12.2327C412.43 9.3042 414.504 4.29264 418.648 4.29264L419.055 4.29264C420.332 4.29264 421.557 4.79948 422.46 5.70184L436.032 19.2572C436.619 19.8435 437.415 20.1728 438.244 20.1728C441.035 20.1728 442.431 16.7985 440.457 14.8267L437.86 12.2327C434.928 9.30419 437.002 4.29264 441.146 4.29264L441.552 4.29264C442.829 4.29264 444.054 4.79948 444.958 5.70184L456.518 17.2482C458.393 19.1209 460.935 20.1728 463.585 20.1728L468.825 20.1728C471.475 20.1728 474.016 21.2247 475.891 23.0975L493.285 40.4705C495.163 42.3462 496.219 44.8916 496.219 47.5459L496.218 141.049C496.218 143.704 497.273 146.249 499.151 148.125L511.923 160.881L517.067 166.019C518.945 167.894 520 170.44 520 173.094L520 397.896C520 400.55 518.945 403.096 517.067 404.971L502.813 419.208C500.938 421.081 498.396 422.133 495.746 422.133L491.073 422.133C488.424 422.133 485.882 423.184 484.007 425.057L464.831 444.207C462.956 446.08 460.414 447.131 457.764 447.131L385.08 447.131C382.43 447.131 379.888 448.183 378.013 450.056L371.618 456.443C369.743 458.316 367.202 459.368 364.552 459.368L335.447 459.368C332.797 459.368 330.256 458.316 328.381 456.444L296.341 424.445C294.466 422.573 291.924 421.521 289.274 421.521L112.868 421.521ZM324.419 442.342C326.294 444.215 328.836 445.267 331.485 445.267L456.995 445.267C459.645 445.267 462.186 444.215 464.061 442.342L486.17 420.26L504.336 402.116L507.127 399.329C509.005 397.453 510.06 394.908 510.06 392.253L510.06 165.803C510.06 163.149 509.005 160.603 507.127 158.727L497.288 148.901C495.41 147.025 494.355 144.479 494.355 141.825L494.355 48.3211C494.355 45.6671 493.3 43.122 491.423 41.2463L475.122 24.9628C473.247 23.0897 470.705 22.0376 468.055 22.0376L371.881 22.0376C369.231 22.0376 366.689 20.9857 364.814 19.1129L350.473 4.7894C348.598 2.91665 346.057 1.86474 343.406 1.86474L56.4442 1.86475C50.9213 1.86475 46.4442 6.3419 46.4442 11.8647L46.4442 21.2867C46.4442 26.8096 41.967 31.2867 36.4442 31.2867L26.9865 31.2867C21.4637 31.2867 16.9865 35.7639 16.9865 41.2867L16.9861 221.566C16.9861 224.22 18.0412 226.765 19.919 228.641L55.7621 264.444C57.6399 266.32 58.695 268.865 58.695 271.519L58.695 347.463C58.695 347.977 58.2753 348.389 57.7615 348.389C57.4479 348.389 57.1379 348.389 56.828 348.397C52.1269 348.475 47.5639 349.135 43.2101 350.306C41.6492 350.728 40.1146 351.213 38.6135 351.765C17.1914 359.589 1.86703 380.15 1.86703 404.216C1.86703 434.999 26.941 460.043 57.7615 460.043C82.5367 460.043 103.6 443.861 110.912 421.521C111.419 419.97 111.86 418.388 112.233 416.781C113.1 413.033 113.585 409.139 113.652 405.149C113.656 404.839 113.66 404.529 113.66 404.216C113.66 403.703 114.072 403.284 114.585 403.284L281.171 403.284C283.821 403.284 286.363 404.335 288.238 406.208L324.419 442.342Z" fill="#61646B"/>
<path d="M112.868 421.521C112.87 421.521 112.871 421.523 112.871 421.525C105.495 444.907 83.5772 461.908 57.7615 461.908C25.9141 461.908 1.90594e-05 436.029 1.76689e-05 404.216C1.66806e-05 381.608 13.088 361.996 32.094 352.541C35.893 350.651 38.6135 346.945 38.6135 342.702L38.6135 301.323C38.6135 298.668 39.6692 296.122 41.548 294.246L46.1044 289.697C47.9831 287.821 49.0389 285.275 49.0389 282.62L49.0389 278.147C49.0389 275.492 47.9836 272.947 46.1056 271.071L5.46116 230.476C3.58317 228.6 2.52794 226.055 2.52794 223.401L2.52794 157.449C2.52794 154.795 3.58317 152.249 5.46115 150.374L12.1858 143.657C14.0638 141.781 15.119 139.236 15.1191 136.582L15.1195 9.99996C15.1195 4.47712 19.5966 -7.74368e-07 25.1195 -9.14346e-07L344.183 -9.00111e-06C346.833 -9.06828e-06 349.375 1.05215 351.25 2.9253L367.501 19.1597C368.15 19.8084 369.031 20.1728 369.949 20.1728C373.035 20.1728 374.58 16.4403 372.396 14.2591L370.367 12.2327C367.435 9.3042 369.509 4.29264 373.653 4.29264L374.06 4.29264C375.337 4.29264 376.562 4.79948 377.465 5.70184L391.037 19.2572C391.624 19.8435 392.42 20.1728 393.249 20.1728C396.04 20.1728 397.436 16.7986 395.462 14.8268L392.865 12.2327C389.933 9.3042 392.007 4.29264 396.151 4.29264L396.558 4.29264C397.834 4.29264 399.059 4.79949 399.963 5.70184L413.534 19.2572C414.121 19.8435 414.917 20.1728 415.747 20.1728C418.537 20.1728 419.934 16.7986 417.959 14.8268L415.362 12.2327C412.43 9.3042 414.504 4.29264 418.648 4.29264L419.055 4.29264C420.332 4.29264 421.557 4.79948 422.46 5.70184L436.032 19.2572C436.619 19.8435 437.415 20.1728 438.244 20.1728C441.035 20.1728 442.431 16.7985 440.457 14.8267L437.86 12.2327C434.928 9.30419 437.002 4.29264 441.146 4.29264L441.552 4.29264C442.829 4.29264 444.054 4.79948 444.958 5.70184L456.518 17.2482C458.393 19.1209 460.935 20.1728 463.585 20.1728L468.825 20.1728C471.475 20.1728 474.016 21.2247 475.891 23.0975L493.285 40.4705C495.163 42.3462 496.219 44.8916 496.219 47.5459L496.218 141.049C496.218 143.704 497.273 146.249 499.151 148.125L511.923 160.881L517.067 166.019C518.945 167.894 520 170.44 520 173.094L520 397.896C520 400.55 518.945 403.096 517.067 404.971L502.813 419.208C500.938 421.081 498.396 422.133 495.746 422.133L491.073 422.133C488.424 422.133 485.882 423.184 484.007 425.057L464.831 444.207C462.956 446.08 460.414 447.131 457.764 447.131L385.08 447.131C382.43 447.131 379.888 448.183 378.013 450.056L371.618 456.443C369.743 458.316 367.202 459.368 364.552 459.368L335.447 459.368C332.797 459.368 330.256 458.316 328.381 456.444L296.341 424.445C294.466 422.573 291.924 421.521 289.274 421.521L112.868 421.521ZM324.419 442.342C326.294 444.215 328.836 445.267 331.485 445.267L456.995 445.267C459.645 445.267 462.186 444.215 464.061 442.342L486.17 420.26L504.336 402.116L507.127 399.329C509.005 397.453 510.06 394.908 510.06 392.253L510.06 165.803C510.06 163.149 509.005 160.603 507.127 158.727L497.288 148.901C495.41 147.025 494.355 144.479 494.355 141.825L494.355 48.3211C494.355 45.6671 493.3 43.122 491.423 41.2463L475.122 24.9628C473.247 23.0897 470.705 22.0376 468.055 22.0376L371.881 22.0376C369.231 22.0376 366.689 20.9857 364.814 19.1129L350.473 4.7894C348.598 2.91665 346.057 1.86474 343.406 1.86474L56.4442 1.86475C50.9213 1.86475 46.4442 6.3419 46.4442 11.8647L46.4442 21.2867C46.4442 26.8096 41.967 31.2867 36.4442 31.2867L26.9865 31.2867C21.4637 31.2867 16.9865 35.7639 16.9865 41.2867L16.9861 221.566C16.9861 224.22 18.0412 226.765 19.919 228.641L55.7621 264.444C57.6399 266.32 58.695 268.865 58.695 271.519L58.695 347.463C58.695 347.977 58.2753 348.389 57.7615 348.389C57.4479 348.389 57.1379 348.389 56.828 348.397C52.1269 348.475 47.5639 349.135 43.2101 350.306C41.6492 350.728 40.1146 351.213 38.6135 351.765C17.1914 359.589 1.86703 380.15 1.86703 404.216C1.86703 434.999 26.941 460.043 57.7615 460.043C82.5367 460.043 103.6 443.861 110.912 421.521C111.419 419.97 111.86 418.388 112.233 416.781C113.1 413.033 113.585 409.139 113.652 405.149C113.656 404.839 113.66 404.529 113.66 404.216C113.66 403.703 114.072 403.284 114.585 403.284L281.171 403.284C283.821 403.284 286.363 404.335 288.238 406.208L324.419 442.342Z" fill="black" fill-opacity="0.2"/>
<ellipse cx="58" cy="404.176" rx="53" ry="53" transform="rotate(-90 58 404.176)" fill="#1FAB5E"/>
<circle cx="58" cy="404.176" r="43" fill="white"/>
<path d="M18 404.176C18 404.47 18.0035 404.761 18.0105 405.051C18.4763 426.705 36.2374 444.176 58.0017 444.176C79.7661 444.176 98 426.232 98 404.176C98 382.12 80.5297 364.652 58.8774 364.186C58.5867 364.179 58.296 364.176 58.0018 364.176C57.7075 364.176 57.4168 364.179 57.1261 364.186C35.761 364.649 18.4728 381.938 18.0105 403.3C18.0035 403.591 18 403.882 18 404.176ZM58.0018 365.927C79.0901 365.927 96.2488 383.083 96.2488 404.176C96.2488 425.269 79.0901 442.424 58.0017 442.424C36.9134 442.424 19.7512 425.269 19.7512 404.176C19.7512 383.083 36.9099 365.927 58.0018 365.927Z" fill="#61646B"/>
<path d="M18 404.176C18 404.47 18.0035 404.761 18.0105 405.051C18.4763 426.705 36.2374 444.176 58.0017 444.176C79.7661 444.176 98 426.232 98 404.176C98 382.12 80.5297 364.652 58.8774 364.186C58.5867 364.179 58.296 364.176 58.0018 364.176C57.7075 364.176 57.4168 364.179 57.1261 364.186C35.761 364.649 18.4728 381.938 18.0105 403.3C18.0035 403.591 18 403.882 18 404.176ZM58.0018 365.927C79.0901 365.927 96.2488 383.083 96.2488 404.176C96.2488 425.269 79.0901 442.424 58.0017 442.424C36.9134 442.424 19.7512 425.269 19.7512 404.176C19.7512 383.083 36.9099 365.927 58.0018 365.927Z" fill="black" fill-opacity="0.2"/>
<g clip-path="url(#clip0_3747_63733)">
<path d="M86.5162 395.376C83.7629 392.77 80.1225 391.241 76.2638 391.071C76.2523 391.071 76.2408 391.071 76.227 391.071L48.1313 390.033C46.6329 389.968 45.1597 390.143 43.7532 390.536C43.7348 390.54 43.7164 390.547 43.7003 390.552C43.6705 390.561 43.6406 390.568 43.6084 390.577C43.5854 390.584 43.5624 390.591 43.5418 390.598C43.5165 390.605 43.4935 390.612 43.4682 390.619C43.4429 390.626 43.42 390.632 43.397 390.639C43.3832 390.644 43.3694 390.646 43.3556 390.651C43.2729 390.671 43.1924 390.697 43.112 390.72C43.0844 390.727 43.0545 390.736 43.027 390.743C43.0086 390.747 42.9879 390.754 42.9695 390.759C42.9442 390.766 42.9166 390.773 42.8914 390.782C42.8707 390.786 42.85 390.793 42.8293 390.8C42.804 390.807 42.781 390.814 42.7558 390.821C42.7351 390.825 42.7144 390.832 42.696 390.837C42.6615 390.846 42.6271 390.855 42.5926 390.865C42.5719 390.869 42.5535 390.876 42.5328 390.881C42.5053 390.888 42.48 390.897 42.4524 390.904C42.4271 390.91 42.4018 390.917 42.3789 390.924C42.3697 390.927 42.3605 390.929 42.3513 390.931C42.3099 390.943 42.2685 390.954 42.2272 390.966C42.2065 390.97 42.1858 390.977 42.1651 390.984C42.1444 390.989 42.1261 390.996 42.1054 391C42.0801 391.007 42.0571 391.014 42.0318 391.021C42.0065 391.028 41.979 391.035 41.9537 391.041C41.9261 391.048 41.8985 391.058 41.8687 391.064C41.848 391.069 41.8273 391.076 41.8066 391.083C41.7836 391.09 41.7606 391.094 41.7377 391.101C41.717 391.106 41.6963 391.113 41.6756 391.117C41.6457 391.124 41.6159 391.133 41.586 391.14C41.5561 391.15 41.5239 391.156 41.494 391.166C41.4849 391.168 41.4734 391.172 41.4642 391.175C41.4366 391.182 41.4113 391.189 41.3837 391.195C41.3516 391.205 41.3217 391.212 41.2918 391.221C41.278 391.225 41.2619 391.228 41.2481 391.232C41.216 391.241 41.1861 391.248 41.1539 391.258C41.1332 391.262 41.1148 391.269 41.0942 391.274C41.0758 391.278 41.0551 391.283 41.0367 391.29C41.0022 391.299 40.9678 391.308 40.9333 391.317C40.9172 391.322 40.9011 391.324 40.8873 391.329C40.8528 391.338 40.8184 391.347 40.7839 391.356C40.7609 391.363 40.7379 391.37 40.715 391.375C40.692 391.382 40.6713 391.386 40.6483 391.393C40.6345 391.398 40.6207 391.4 40.6092 391.402C40.5679 391.414 40.5265 391.423 40.4851 391.434C40.4736 391.437 40.4598 391.441 40.4484 391.444C40.4139 391.453 40.3794 391.462 40.3449 391.471C40.299 391.483 40.253 391.494 40.2093 391.506C40.1933 391.51 40.1795 391.513 40.1634 391.517C40.1312 391.526 40.099 391.533 40.0692 391.543C40.0462 391.549 40.0232 391.554 40.0002 391.561C39.9795 391.565 39.9611 391.57 39.9405 391.577C39.9129 391.584 39.8876 391.591 39.86 391.598C39.837 391.605 39.8163 391.609 39.7934 391.614C39.7704 391.621 39.7474 391.625 39.7244 391.632C39.6945 391.639 39.667 391.646 39.6371 391.655C39.6187 391.66 39.598 391.664 39.5796 391.669C39.5566 391.676 39.5337 391.68 39.5107 391.687C39.4739 391.696 39.4371 391.706 39.4004 391.717C39.3912 391.717 39.3843 391.722 39.3751 391.724C39.3498 391.731 39.3222 391.736 39.2969 391.742C39.2694 391.749 39.2395 391.756 39.2119 391.763C39.1797 391.772 39.1476 391.779 39.1177 391.788C39.1062 391.791 39.097 391.793 39.0855 391.795C39.051 391.805 39.0166 391.811 38.9821 391.821C38.966 391.825 38.9499 391.827 38.9338 391.832C38.7844 391.871 38.6351 391.915 38.4857 391.958C38.4374 391.97 38.3869 391.981 38.3386 391.995C38.2673 392.014 38.1961 392.03 38.1249 392.048C38.0582 392.064 37.9916 392.078 37.9249 392.096C37.8973 392.103 37.8698 392.11 37.8445 392.117C37.7985 392.129 37.7502 392.14 37.702 392.152C37.6055 392.175 37.5089 392.195 37.4124 392.22C37.3687 392.232 37.3228 392.241 37.2791 392.253C37.2377 392.262 37.1964 392.273 37.1527 392.283C37.132 392.287 37.1113 392.292 37.0907 392.296C37.047 392.306 37.001 392.317 36.9574 392.326C36.9252 392.333 36.893 392.34 36.8585 392.349C36.7896 392.363 36.7229 392.381 36.654 392.397C36.6287 392.402 36.6034 392.409 36.5759 392.416C36.5529 392.42 36.5299 392.427 36.5069 392.432C36.4357 392.446 36.369 392.464 36.2978 392.48C36.2748 392.485 36.2518 392.492 36.2265 392.496C36.1622 392.51 36.1001 392.526 36.0358 392.54C35.9484 392.558 35.8611 392.579 35.7715 392.6C35.7508 392.604 35.7278 392.611 35.7071 392.616C35.6841 392.62 35.6635 392.627 35.6405 392.632C35.6175 392.636 35.5945 392.643 35.5715 392.648C35.5531 392.653 35.5371 392.655 35.5187 392.659C35.4612 392.671 35.4038 392.687 35.344 392.699C35.3072 392.705 35.2705 392.717 35.2337 392.724C32.4276 393.305 29.8605 394.615 27.8817 396.527C25.3789 398.95 24 402.14 24 405.506C24 408.873 25.3789 412.063 27.8863 414.486C29.7846 416.32 32.2207 417.6 34.8936 418.213C34.9188 418.218 34.9418 418.225 34.9671 418.229C34.9901 418.234 35.0131 418.239 35.0383 418.246C35.0613 418.25 35.0843 418.255 35.1073 418.262C35.1326 418.269 35.1579 418.273 35.1808 418.278C35.2061 418.285 35.2314 418.289 35.2567 418.294C35.2774 418.298 35.3003 418.303 35.321 418.308C35.3463 418.314 35.3716 418.319 35.3969 418.324C35.4199 418.328 35.4428 418.335 35.4681 418.34C35.4934 418.347 35.5164 418.351 35.5417 418.356C35.5646 418.36 35.5876 418.367 35.6129 418.372C35.6359 418.377 35.6612 418.383 35.6864 418.388C35.7094 418.393 35.7347 418.4 35.7577 418.404C35.7807 418.409 35.806 418.416 35.8289 418.42C35.8519 418.425 35.8772 418.432 35.9002 418.436C35.9232 418.441 35.9484 418.448 35.9714 418.452C35.9944 418.457 36.0174 418.464 36.0404 418.468C36.0634 418.473 36.0886 418.48 36.1116 418.485C36.1369 418.491 36.1599 418.496 36.1852 418.501C36.2081 418.505 36.2334 418.512 36.2564 418.517C36.2794 418.521 36.3047 418.528 36.3276 418.533C36.3506 418.537 36.3759 418.544 36.3989 418.549C36.4219 418.553 36.4472 418.56 36.4701 418.565C36.4931 418.57 36.5184 418.576 36.5414 418.581C36.5644 418.586 36.5896 418.593 36.6126 418.597C36.6379 418.604 36.6632 418.609 36.6885 418.616C36.7115 418.62 36.7344 418.627 36.7574 418.632C36.7804 418.636 36.8034 418.643 36.8287 418.648C36.8516 418.652 36.8769 418.659 36.8999 418.664C36.9252 418.671 36.9482 418.675 36.9734 418.68C36.9964 418.687 37.0217 418.691 37.0447 418.696C37.07 418.703 37.093 418.707 37.1182 418.712C37.1412 418.717 37.1619 418.724 37.1849 418.728C37.2102 418.735 37.2377 418.74 37.263 418.747C37.286 418.751 37.3067 418.758 37.3297 418.763C37.355 418.77 37.3802 418.774 37.4032 418.781C37.4262 418.786 37.4492 418.792 37.4699 418.797C37.4951 418.804 37.5204 418.809 37.5434 418.815C37.5664 418.82 37.5894 418.827 37.6124 418.832C37.6376 418.838 37.6629 418.843 37.6882 418.85C37.7112 418.855 37.7342 418.861 37.7571 418.866C37.7801 418.871 37.8031 418.878 37.8261 418.882C37.8514 418.889 37.8766 418.894 37.9019 418.901C37.9249 418.907 37.9502 418.912 37.9732 418.919C37.9985 418.926 38.0214 418.93 38.0467 418.937C38.0697 418.942 38.0904 418.949 38.1134 418.953C38.1386 418.96 38.1639 418.965 38.1892 418.972C38.2122 418.979 38.2375 418.983 38.2605 418.99C38.2834 418.995 38.3064 419.002 38.3317 419.006C38.3547 419.013 38.38 419.018 38.4029 419.025C38.4236 419.029 38.442 419.034 38.4604 419.038C38.7155 419.114 38.9706 419.183 39.2303 419.245C39.2533 419.25 39.2763 419.257 39.2969 419.261C39.3222 419.268 39.3452 419.275 39.3705 419.28C39.3935 419.284 39.4165 419.291 39.4394 419.298C39.4647 419.305 39.4877 419.312 39.513 419.316C39.536 419.323 39.5612 419.328 39.5842 419.335C39.6072 419.339 39.6302 419.346 39.6532 419.353C39.6785 419.36 39.7014 419.367 39.7267 419.372C39.7497 419.376 39.7727 419.383 39.7957 419.39C39.8209 419.397 39.8439 419.404 39.8692 419.408C39.8922 419.413 39.9152 419.42 39.9405 419.427C39.9634 419.434 39.9887 419.441 40.0117 419.445C40.0347 419.45 40.0577 419.457 40.0829 419.464C40.1082 419.47 40.1312 419.477 40.1565 419.482C40.1795 419.489 40.2024 419.493 40.2277 419.5C40.2507 419.507 40.276 419.514 40.299 419.519C40.3243 419.526 40.3472 419.533 40.3725 419.537C40.3955 419.544 40.4208 419.551 40.4438 419.556C40.4667 419.562 40.4897 419.569 40.515 419.574C40.5403 419.581 40.5633 419.588 40.5863 419.592C40.6092 419.597 40.6322 419.604 40.6552 419.611C40.6805 419.618 40.7035 419.624 40.7287 419.629C40.754 419.636 40.777 419.643 40.8 419.647C40.823 419.654 40.8459 419.661 40.8712 419.666C40.8965 419.673 40.9195 419.68 40.9448 419.684C40.9701 419.691 40.993 419.698 41.016 419.703C41.0344 419.707 41.0505 419.712 41.0689 419.716C41.0919 419.723 41.1171 419.728 41.1424 419.735C41.1654 419.742 41.1907 419.746 41.2137 419.753C41.2366 419.76 41.2596 419.765 41.2826 419.772C41.3079 419.778 41.3332 419.785 41.3585 419.792C41.3814 419.799 41.4044 419.804 41.4274 419.811C41.4527 419.818 41.4757 419.824 41.5009 419.831C41.5239 419.838 41.5469 419.843 41.5722 419.85C41.5952 419.857 41.6204 419.863 41.6434 419.868C41.6687 419.875 41.694 419.882 41.7193 419.889C41.7423 419.896 41.7652 419.9 41.7882 419.907C41.8135 419.914 41.8365 419.921 41.8618 419.928C41.8847 419.935 41.9077 419.939 41.933 419.946C41.9583 419.953 41.9813 419.96 42.0065 419.967C42.0295 419.974 42.0548 419.981 42.0778 419.988C42.1008 419.994 42.1261 420.001 42.149 420.008C42.172 420.015 42.1973 420.022 42.2203 420.029C42.2456 420.036 42.2685 420.043 42.2938 420.05C42.3168 420.057 42.3421 420.063 42.3651 420.07C42.3881 420.077 42.4133 420.084 42.4363 420.091C42.4616 420.098 42.4846 420.105 42.5099 420.112C42.5328 420.119 42.5581 420.125 42.5811 420.132C42.6064 420.139 42.6317 420.146 42.6546 420.153C42.6776 420.16 42.7006 420.167 42.7259 420.174C42.7489 420.181 42.7742 420.188 42.7971 420.194C42.8224 420.201 42.8477 420.208 42.873 420.215C42.896 420.222 42.9189 420.227 42.9396 420.233C42.9649 420.24 42.9902 420.247 43.0155 420.254C43.0385 420.261 43.0637 420.268 43.089 420.275C43.112 420.282 43.1373 420.289 43.1603 420.296C43.1832 420.302 43.2085 420.309 43.2315 420.316C43.2545 420.323 43.2798 420.33 43.3027 420.337C43.3257 420.344 43.351 420.351 43.374 420.358C43.3993 420.364 43.4223 420.371 43.4475 420.378C43.4705 420.385 43.4958 420.392 43.5188 420.399C44.8081 420.785 46.1525 420.983 47.5269 420.983C47.7291 420.983 47.9337 420.978 48.1382 420.969L76.2362 419.93C76.2477 419.93 76.2592 419.93 76.273 419.93C80.1317 419.76 83.7721 418.232 86.5254 415.626C89.4165 412.888 91.0069 409.289 91.0069 405.493C91.0069 401.696 89.4142 398.099 86.5254 395.36L86.5162 395.376Z" fill="black"/>
<path d="M47.5237 419.158C44.3591 419.158 41.3576 417.945 39.0226 415.708C36.3406 413.141 34.8008 409.423 34.8008 405.507C34.8008 401.59 36.3383 397.872 39.0226 395.305C41.4886 392.945 44.6969 391.724 48.0569 391.869L76.1618 392.908C76.1618 392.908 76.1779 392.908 76.1848 392.908C83.3392 393.223 89.1606 398.874 89.1606 405.507C89.1606 412.139 83.3392 417.793 76.1848 418.105C76.1779 418.105 76.1687 418.105 76.1618 418.105L48.0569 419.144C47.88 419.151 47.7007 419.156 47.5237 419.156V419.158ZM47.5191 398.522C45.6943 398.522 44.405 399.382 43.6305 400.122C42.2539 401.439 41.4656 403.401 41.4656 405.509C41.4656 407.616 42.2539 409.579 43.6305 410.896C44.4395 411.67 45.8184 412.576 47.7765 412.489C47.7834 412.489 47.7926 412.489 47.7995 412.489L52.9108 412.3C51.5134 411.362 50.5114 409.79 50.1874 407.835C50.0908 407.246 50.0633 406.651 50.1046 406.067C49.5071 405.739 48.9302 405.412 48.3672 405.091C47.025 404.323 46.3884 402.733 46.8274 401.25C46.9469 400.853 47.0664 400.46 47.1859 400.069L47.1974 400.032C47.3743 399.453 47.703 398.943 48.1397 398.543L47.7995 398.532C47.7995 398.532 47.7834 398.532 47.7765 398.532C47.6892 398.527 47.6019 398.527 47.5168 398.527L47.5191 398.522ZM61.991 408.687C61.5819 410.071 60.7707 411.241 59.6928 412.047L64.2295 411.88C63.1884 411.107 62.4001 409.997 61.991 408.687ZM73.8682 406.24C73.8889 406.743 73.8567 407.253 73.7671 407.759C73.4867 409.347 72.7398 410.675 71.6895 411.606L75.9021 411.45C79.5379 411.284 82.4957 408.623 82.4957 405.509C82.4957 402.395 79.8022 399.977 76.3963 399.607C76.5388 399.835 76.656 400.078 76.741 400.338L76.7801 400.455C76.8904 400.788 77.0007 401.122 77.1087 401.459C77.6143 403.027 76.8996 404.728 75.4287 405.463C74.907 405.725 74.383 405.985 73.8682 406.24ZM53.2279 398.729C55.6318 399.968 58.0519 401.133 60.4397 402.199C61.1085 402.498 61.6394 402.997 61.9841 403.604C62.3335 402.99 62.8758 402.487 63.5538 402.19C65.5556 401.319 67.6745 400.382 69.9819 399.347L53.2279 398.729Z" fill="#23FF81"/>
<path d="M76.0377 396.237C66.6656 395.89 57.2934 395.545 47.9213 395.198C42.5136 394.962 38.1309 399.577 38.1309 405.508C38.1309 411.44 42.5136 416.055 47.9213 415.818C57.2934 415.471 66.6656 415.126 76.0377 414.779C81.4454 414.543 85.8281 410.392 85.8281 405.508C85.8281 400.625 81.4454 396.476 76.0377 396.237ZM59.0171 406.069C58.9964 406.342 58.9757 406.616 58.955 406.892C58.9527 406.889 58.9481 406.887 58.9458 406.887C58.9458 406.887 58.9458 406.887 58.9435 406.887C58.7206 410.447 54.1265 411.226 53.4761 407.289C53.2991 406.223 53.5427 405.177 54.069 404.419C52.7223 403.706 51.3755 402.969 50.0218 402.194C50.1414 401.792 50.2632 401.397 50.3827 401.004C53.2945 402.541 56.1926 403.952 59.0791 405.242C59.0584 405.517 59.0378 405.793 59.0171 406.069ZM70.4852 407.179C69.8348 410.87 65.2407 410.364 65.0177 406.857C65.0177 406.857 65.0177 406.857 65.0154 406.857C65.0154 406.857 65.0108 406.857 65.0062 406.862C64.9856 406.593 64.9649 406.324 64.9442 406.057C64.9235 405.789 64.9028 405.52 64.8821 405.249C67.7664 403.994 70.6668 402.7 73.5786 401.383C73.7004 401.748 73.8199 402.114 73.9394 402.484C72.5881 403.159 71.239 403.824 69.8923 404.486C70.4186 405.203 70.6622 406.179 70.4852 407.181V407.179Z" fill="black"/>
</g>
<defs>
<clipPath id="clip0_3747_63733">
<rect width="67" height="67" fill="white" transform="translate(24 371.176)"/>
</clipPath>
</defs>
</svg>
