<svg width="1080" height="476" viewBox="0 0 1080 476" fill="none" xmlns="http://www.w3.org/2000/svg" xmlns:xlink="http://www.w3.org/1999/xlink">
<g filter="url(#filter0_b_3747_63327)">
<path d="M48.2692 77.1719V33.9767V12C48.2692 6.47715 52.7464 2 58.2692 2H445.126C447.776 2 450.317 3.0513 452.192 4.92309L466.718 19.4257C468.593 21.2975 471.134 22.3488 473.784 22.3488H987.076C989.726 22.3488 992.267 23.4001 994.142 25.2719L1012.41 43.5121C1014.29 45.3839 1016.83 46.4352 1019.48 46.4352H1059C1064.52 46.4352 1069 50.9123 1069 56.4352V462C1069 467.523 1064.52 472 1059 472H276.614C273.965 472 271.424 470.949 269.549 469.077L255.854 455.405C253.979 453.533 251.438 452.482 248.789 452.482H63.2217C60.5724 452.482 58.0314 451.43 56.1565 449.559L21.2542 414.714C19.3752 412.838 18.3194 410.292 18.3194 407.637V391.014C18.3194 388.359 17.2635 385.813 15.3846 383.937L12.9348 381.492C11.0558 379.616 10 377.07 10 374.415V331.313C10 328.658 11.0558 326.112 12.9348 324.236L24.5359 312.654C26.4149 310.778 27.4707 308.232 27.4707 305.577V106.23C27.4707 103.575 28.5266 101.029 30.4055 99.153L45.3344 84.2488C47.2134 82.3729 48.2692 79.8269 48.2692 77.1719Z" fill="url(#pattern0)"/>
</g>
<path d="M261.396 471.865C255.542 465.445 260.097 455.128 268.785 455.128L413.754 455.128C416.403 455.128 418.943 454.077 420.818 452.205L443.142 429.922C445.017 428.051 447.558 427 450.207 427H591.732C594.381 427 596.922 428.051 598.797 429.922L617.568 448.659C623.876 454.956 619.417 465.737 610.503 465.737H491.924C490.378 465.737 488.854 466.095 487.47 466.783L471.409 474.773C470.025 475.462 468.5 475.82 466.955 475.82H269.417C266.604 475.82 263.922 474.636 262.027 472.558L261.396 471.865Z" fill="#DEDEDE"/>
<path d="M983 21.9998L1041.07 74.2547C1047.39 79.944 1051 88.0494 1051 96.5546L1051 396.906C1051 405.812 1047.04 414.257 1040.2 419.956L1013.74 442" stroke="#DEDEDE" stroke-width="3" stroke-miterlimit="10"/>
<path d="M917.178 24.2271C917.98 23.4269 917.413 22.0568 916.281 22.0568H848.77C846.121 22.0568 843.581 21.0057 841.706 19.1343L829.57 7.02044L826.466 3.9223C824.591 2.05089 822.05 0.999836 819.401 0.999836H688.978C687.777 0.999836 686.647 1.57058 685.934 2.53753L685.566 3.03663C684.667 4.2562 684.795 5.95002 685.868 7.02044L687.928 9.07555C689.803 10.9451 692.342 11.9949 694.99 11.9949H805.986C808.635 11.9949 811.176 13.046 813.05 14.9174L826.62 28.4625C828.495 30.3339 831.036 31.385 833.685 31.385H905.871C908.52 31.385 911.06 30.334 912.935 28.4625L917.178 24.2271Z" fill="#DEDEDE"/>
<path d="M245.519 9.82776C242.302 12.9568 244.517 18.4124 249.005 18.4124L260.67 18.4124C261.995 18.4124 263.265 17.8868 264.203 16.9511L270.337 10.8275C271.275 9.89177 272.545 9.36624 273.87 9.36624H290.516C291.3 9.36624 292.052 9.05509 292.607 8.50109C294.474 6.63694 293.154 3.44549 290.516 3.44549H254.113C252.811 3.44549 251.56 3.95328 250.627 4.8609L245.519 9.82776Z" fill="#DEDEDE"/>
<path d="M112.642 441.782C112.705 441.638 112.673 441.47 112.562 441.359L83.6855 412.535C81.8106 410.664 79.2699 409.613 76.6209 409.613H56.5715C53.9225 409.613 51.3817 408.562 49.5069 406.69L33.0764 390.29C31.2036 388.42 30.1481 385.885 30.141 383.239L29.9607 315.41C29.9537 312.747 31.0091 310.192 32.893 308.309L37.0008 304.206C38.8782 302.33 39.9331 299.785 39.9331 297.131V90.9752C39.9331 90.1433 38.9965 89.6559 38.3152 90.1331C38.2665 90.1673 38.2208 90.2055 38.1787 90.2476L27.4529 100.954C25.5736 102.83 24.5175 105.376 24.5175 108.031L24.5161 291.31C24.5161 293.966 23.4601 296.512 21.5807 298.388L2.95102 316.984C1.0717 318.859 0.015625 321.406 0.015625 324.061V369.888C0.015625 372.544 1.0717 375.09 2.95102 376.966L12.9964 386.993C14.8757 388.869 15.9318 391.415 15.9318 394.071V406.547C15.9318 409.202 16.9876 411.748 18.8665 413.623L54.9252 449.624C56.8001 451.496 59.3412 452.547 61.9905 452.547H101.365C105.321 452.547 108.905 450.215 110.508 446.598L112.642 441.782Z" fill="#DEDEDE"/>
<path d="M1056.94 476C1056.02 476 1055.27 475.252 1055.27 474.331C1055.27 473.409 1054.52 472.662 1053.6 472.662H838.73C837.218 472.662 835.768 473.262 834.698 474.331C833.628 475.399 832.177 476 830.665 476L268.993 476C266.343 476 263.801 474.948 261.926 473.075L245.221 456.39C243.348 454.518 240.809 453.466 238.161 453.465L61.7846 453.348C59.1367 453.346 56.5976 452.294 54.7242 450.423L18.8082 414.549C16.9303 412.673 15.8752 410.128 15.8752 407.473V394.901C15.8752 392.247 14.82 389.702 12.942 387.826L2.93326 377.829C1.05525 375.953 3.02842e-05 373.408 8.41803e-05 370.754L0.00118673 316.455C0.00124062 313.801 1.05633 311.256 2.93404 309.38L21.2967 291.038C23.1745 289.162 24.2296 286.617 24.2296 283.963L24.2304 106.375C24.2304 103.721 25.2855 101.176 27.1634 99.3L40.1049 86.3734L42.1849 84.2959C44.0628 82.4202 45.118 79.8749 45.118 77.2207V9.99997C45.118 4.47714 49.5951 -3.05176e-05 55.118 -3.05176e-05H349.659H362.207L818.027 -9.15527e-05C820.677 -9.15527e-05 823.219 1.05188 825.094 2.92474L828.014 5.84164L840.125 17.9384C842 19.8112 844.542 20.8632 847.192 20.8632H988.47C991.12 20.8632 993.662 21.9152 995.537 23.788L1013.07 41.3051C1014.95 43.178 1017.49 44.2299 1020.14 44.2299H1059.47C1065 44.2299 1069.47 48.7071 1069.47 54.23L1069.47 449.633C1069.47 451.29 1070.82 452.633 1072.47 452.633L1076.5 452.633C1078.16 452.633 1079.5 453.976 1079.5 455.633V473C1079.5 474.657 1078.16 476 1076.5 476H1056.94ZM1053.18 470.158C1054.34 470.158 1055.27 469.224 1055.27 468.072C1055.27 466.919 1054.34 465.985 1053.18 465.985H843.916C843.363 465.985 842.833 466.205 842.442 466.596C841.126 467.91 842.057 470.158 843.916 470.158H1053.18ZM1066.97 69.3264C1066.97 63.822 1062.52 59.3524 1057.02 59.3265L1045.18 59.2708C1042.54 59.2584 1040.02 58.2074 1038.16 56.3461L1031.46 49.6584C1029.59 47.7855 1027.05 46.7336 1024.4 46.7336H1019.31C1016.66 46.7336 1014.11 45.6816 1012.24 43.8087L994.701 26.2916C992.826 24.4188 990.284 23.3668 987.634 23.3668H846.357C843.706 23.3668 841.165 22.3148 839.29 20.442L827.601 8.76648C825.726 6.89362 823.184 5.84164 820.534 5.84164L382.964 5.84171C380.359 5.84171 377.857 6.85837 375.99 8.67535L349.228 34.7202C347.361 36.5372 344.859 37.5539 342.254 37.5539H66.8022C64.1521 37.5539 61.6103 38.6058 59.7353 40.4787L50.5577 49.6457C48.6799 51.5213 47.6247 54.0666 47.6247 56.7207L47.6245 78.0553C47.6245 80.7094 46.5693 83.2547 44.6915 85.1304L39.6872 90.1288L29.6699 100.134C27.792 102.01 26.7369 104.555 26.7369 107.21L26.7361 291.489C26.7361 294.134 25.6883 296.671 23.8222 298.545L21.0829 301.296C19.2168 303.17 18.169 305.707 18.169 308.352L18.1684 406.261C18.1684 408.908 19.2175 411.446 21.0859 413.321L55.5543 447.901C57.4306 449.784 59.9791 450.842 62.6369 450.842H90.3162C92.9408 450.842 95.4602 449.81 97.3308 447.969L99.8479 445.491C101.718 443.65 104.238 442.618 106.863 442.618H251.525C254.175 442.618 256.717 443.67 258.592 445.543L274.459 461.392C276.334 463.264 278.876 464.316 281.526 464.316L826.381 464.316C829.032 464.316 831.573 463.264 833.448 461.391L839.289 455.558C841.164 453.685 843.706 452.633 846.356 452.633H990.14C992.79 452.633 995.332 453.685 997.207 455.558L1002.21 460.557C1004.09 462.43 1006.63 463.482 1009.28 463.482H1052.27C1053.93 463.482 1055.27 462.139 1055.27 460.482V455.633C1055.27 453.976 1056.61 452.633 1058.27 452.633H1063.97C1065.62 452.633 1066.97 451.29 1066.97 449.633L1066.97 69.3264Z" fill="#61646B"/>
<path d="M1056.94 476C1056.02 476 1055.27 475.252 1055.27 474.331C1055.27 473.409 1054.52 472.662 1053.6 472.662H838.73C837.218 472.662 835.768 473.262 834.698 474.331C833.628 475.399 832.177 476 830.665 476L268.993 476C266.343 476 263.801 474.948 261.926 473.075L245.221 456.39C243.348 454.518 240.809 453.466 238.161 453.465L61.7846 453.348C59.1367 453.346 56.5976 452.294 54.7242 450.423L18.8082 414.549C16.9303 412.673 15.8752 410.128 15.8752 407.473V394.901C15.8752 392.247 14.82 389.702 12.942 387.826L2.93326 377.829C1.05525 375.953 3.02842e-05 373.408 8.41803e-05 370.754L0.00118673 316.455C0.00124062 313.801 1.05633 311.256 2.93404 309.38L21.2967 291.038C23.1745 289.162 24.2296 286.617 24.2296 283.963L24.2304 106.375C24.2304 103.721 25.2855 101.176 27.1634 99.3L40.1049 86.3734L42.1849 84.2959C44.0628 82.4202 45.118 79.8749 45.118 77.2207V9.99997C45.118 4.47714 49.5951 -3.05176e-05 55.118 -3.05176e-05H349.659H362.207L818.027 -9.15527e-05C820.677 -9.15527e-05 823.219 1.05188 825.094 2.92474L828.014 5.84164L840.125 17.9384C842 19.8112 844.542 20.8632 847.192 20.8632H988.47C991.12 20.8632 993.662 21.9152 995.537 23.788L1013.07 41.3051C1014.95 43.178 1017.49 44.2299 1020.14 44.2299H1059.47C1065 44.2299 1069.47 48.7071 1069.47 54.23L1069.47 449.633C1069.47 451.29 1070.82 452.633 1072.47 452.633L1076.5 452.633C1078.16 452.633 1079.5 453.976 1079.5 455.633V473C1079.5 474.657 1078.16 476 1076.5 476H1056.94ZM1053.18 470.158C1054.34 470.158 1055.27 469.224 1055.27 468.072C1055.27 466.919 1054.34 465.985 1053.18 465.985H843.916C843.363 465.985 842.833 466.205 842.442 466.596C841.126 467.91 842.057 470.158 843.916 470.158H1053.18ZM1066.97 69.3264C1066.97 63.822 1062.52 59.3524 1057.02 59.3265L1045.18 59.2708C1042.54 59.2584 1040.02 58.2074 1038.16 56.3461L1031.46 49.6584C1029.59 47.7855 1027.05 46.7336 1024.4 46.7336H1019.31C1016.66 46.7336 1014.11 45.6816 1012.24 43.8087L994.701 26.2916C992.826 24.4188 990.284 23.3668 987.634 23.3668H846.357C843.706 23.3668 841.165 22.3148 839.29 20.442L827.601 8.76648C825.726 6.89362 823.184 5.84164 820.534 5.84164L382.964 5.84171C380.359 5.84171 377.857 6.85837 375.99 8.67535L349.228 34.7202C347.361 36.5372 344.859 37.5539 342.254 37.5539H66.8022C64.1521 37.5539 61.6103 38.6058 59.7353 40.4787L50.5577 49.6457C48.6799 51.5213 47.6247 54.0666 47.6247 56.7207L47.6245 78.0553C47.6245 80.7094 46.5693 83.2547 44.6915 85.1304L39.6872 90.1288L29.6699 100.134C27.792 102.01 26.7369 104.555 26.7369 107.21L26.7361 291.489C26.7361 294.134 25.6883 296.671 23.8222 298.545L21.0829 301.296C19.2168 303.17 18.169 305.707 18.169 308.352L18.1684 406.261C18.1684 408.908 19.2175 411.446 21.0859 413.321L55.5543 447.901C57.4306 449.784 59.9791 450.842 62.6369 450.842H90.3162C92.9408 450.842 95.4602 449.81 97.3308 447.969L99.8479 445.491C101.718 443.65 104.238 442.618 106.863 442.618H251.525C254.175 442.618 256.717 443.67 258.592 445.543L274.459 461.392C276.334 463.264 278.876 464.316 281.526 464.316L826.381 464.316C829.032 464.316 831.573 463.264 833.448 461.391L839.289 455.558C841.164 453.685 843.706 452.633 846.356 452.633H990.14C992.79 452.633 995.332 453.685 997.207 455.558L1002.21 460.557C1004.09 462.43 1006.63 463.482 1009.28 463.482H1052.27C1053.93 463.482 1055.27 462.139 1055.27 460.482V455.633C1055.27 453.976 1056.61 452.633 1058.27 452.633H1063.97C1065.62 452.633 1066.97 451.29 1066.97 449.633L1066.97 69.3264Z" fill="black" fill-opacity="0.2"/>
<path d="M1080 292V394C1080 394.552 1079.55 395 1079 395C1078.45 395 1078 394.552 1078 394V292C1078 291.447 1078.45 291 1079 291C1079.55 291 1080 291.447 1080 292Z" fill="#61646B"/>
<path d="M1080 292V394C1080 394.552 1079.55 395 1079 395C1078.45 395 1078 394.552 1078 394V292C1078 291.447 1078.45 291 1079 291C1079.55 291 1080 291.447 1080 292Z" fill="black" fill-opacity="0.2"/>
<defs>
<filter id="filter0_b_3747_63327" x="-10" y="-18" width="1099" height="510" filterUnits="userSpaceOnUse" color-interpolation-filters="sRGB">
<feFlood flood-opacity="0" result="BackgroundImageFix"/>
<feGaussianBlur in="BackgroundImageFix" stdDeviation="10"/>
<feComposite in2="SourceAlpha" operator="in" result="effect1_backgroundBlur_3747_63327"/>
<feBlend mode="normal" in="SourceGraphic" in2="effect1_backgroundBlur_3747_63327" result="shape"/>
</filter>
<pattern id="pattern0" patternContentUnits="objectBoundingBox" width="1" height="1">
<use xlink:href="#image0_3747_63327" transform="matrix(0.000651042 0 0 0.00146692 0 -0.626596)"/>
</pattern>

</defs>
</svg>
