<svg width="452" height="62" viewBox="0 0 452 62" fill="none" xmlns="http://www.w3.org/2000/svg">
<path d="M0.460938 -0.000244141L20.5831 20.1219H376.462L399.682 43.3426H451.461V52.4417L442.322 61.5807H12.4061L0.506114 49.4229L0.460938 -0.000244141Z" fill="#DEDEDE"/>
<path d="M0.460938 55.0222V61.7801H6.93978L0.460938 55.0222Z" fill="#DEDEDE"/>
<path d="M379.461 19.9998H385.095L405.986 40.8911H400.274L379.461 19.9998Z" fill="#DEDEDE"/>
<path d="M390.021 19.9998H395.655L416.546 40.8911H410.837L390.021 19.9998Z" fill="#DEDEDE"/>
<path d="M400.588 19.9998H406.222L427.113 40.8911H421.401L400.588 19.9998Z" fill="#DEDEDE"/>
<path d="M411.148 19.9998H416.782L437.673 40.8911H431.962L411.148 19.9998Z" fill="#DEDEDE"/>
<path d="M421.707 19.9998H427.341L448.232 40.8911H442.523L421.707 19.9998Z" fill="#DEDEDE"/>
<path d="M448.972 31.0727V36.7657L432.266 19.9998H437.899L448.972 31.0727Z" fill="#DEDEDE"/>
<path d="M448.255 20.4998L448.472 20.7168V24.9571L444.032 20.4998H448.255Z" fill="#DEDEDE" stroke="#DEDEDE"/>
</svg>
