<svg width="32" height="32" viewBox="0 0 32 32" fill="none" xmlns="http://www.w3.org/2000/svg">
<path d="M0.5 16C0.5 7.43959 7.43959 0.5 16 0.5C24.5604 0.5 31.5 7.43959 31.5 16C31.5 24.5604 24.5604 31.5 16 31.5C7.43959 31.5 0.5 24.5604 0.5 16Z" fill="white"/>
<path d="M0.5 16C0.5 7.43959 7.43959 0.5 16 0.5C24.5604 0.5 31.5 7.43959 31.5 16C31.5 24.5604 24.5604 31.5 16 31.5C7.43959 31.5 0.5 24.5604 0.5 16Z" stroke="#B0B0B0"/>
<path d="M12.6241 11.7812H12.7188M18.0455 13.9545L23.2071 19.1162C23.3946 19.3037 23.5 19.5581 23.5 19.8233V22.5C23.5 23.0523 23.0523 23.5 22.5 23.5H20.7727V21.4545H18.7273V19.4091L16.2079 17.0365C15.3983 17.6687 14.3795 18.0455 13.2727 18.0455C10.6368 18.0455 8.5 15.9086 8.5 13.2727C8.5 10.6368 10.6368 8.5 13.2727 8.5C15.9086 8.5 18.0455 10.6368 18.0455 13.2727V13.9545Z" stroke="#6D6D6D" stroke-width="1.5" stroke-linecap="round" stroke-linejoin="round"/>
</svg>
