<svg width="32" height="32" viewBox="0 0 32 32" fill="none" xmlns="http://www.w3.org/2000/svg">
<path d="M0.5 16C0.5 7.43959 7.43959 0.5 16 0.5C24.5604 0.5 31.5 7.43959 31.5 16C31.5 24.5604 24.5604 31.5 16 31.5C7.43959 31.5 0.5 24.5604 0.5 16Z" fill="white"/>
<path d="M0.5 16C0.5 7.43959 7.43959 0.5 16 0.5C24.5604 0.5 31.5 7.43959 31.5 16C31.5 24.5604 24.5604 31.5 16 31.5C7.43959 31.5 0.5 24.5604 0.5 16Z" stroke="#B0B0B0"/>
<path d="M17.7307 23.5H23.5M8.5 23.5L12.6981 22.6263C12.9209 22.5799 13.1256 22.4666 13.2863 22.3005L22.6841 12.5882C23.1347 12.1226 23.1344 11.3678 22.6834 10.9025L20.6926 8.84859C20.2418 8.38353 19.5114 8.38384 19.0611 8.8493L9.66228 18.5625C9.50188 18.7283 9.39236 18.9392 9.34741 19.1689L8.5 23.5Z" stroke="#6D6D6D" stroke-width="1.5" stroke-linecap="round" stroke-linejoin="round"/>
</svg>
