<svg width="1080" height="208" viewBox="0 0 1080 208" fill="none" xmlns="http://www.w3.org/2000/svg">
<g clip-path="url(#clip0_6460_100542)">
<rect width="1080" height="208" rx="10" fill="#172027"/>
<g style="mix-blend-mode:luminosity" opacity="0.68">
<path d="M16.2551 43.108V40.3916H13.5842V38.9568H16.2551V36.2754H17.6932V38.9568H20.4339V40.3916H17.6932V43.108H16.2551Z" fill="url(#paint0_radial_6460_100542)"/>
<path d="M71.2582 43.108V40.3916H68.5874V38.9568H71.2582V36.2754H72.6964V38.9568H75.4371V40.3916H72.6964V43.108H71.2582Z" fill="url(#paint1_radial_6460_100542)"/>
<path d="M126.257 43.108V40.3916H123.586V38.9568H126.257V36.2754H127.695V38.9568H130.436V40.3916H127.695V43.108H126.257Z" fill="url(#paint2_radial_6460_100542)"/>
<path d="M181.26 43.108V40.3916H178.589V38.9568H181.26V36.2754H182.698V38.9568H185.439V40.3916H182.698V43.108H181.26Z" fill="url(#paint3_radial_6460_100542)"/>
<path d="M236.259 43.108V40.3916H233.588V38.9568H236.259V36.2754H237.697V38.9568H240.438V40.3916H237.697V43.108H236.259Z" fill="url(#paint4_radial_6460_100542)"/>
<path d="M291.258 43.108V40.3916H288.587V38.9568H291.258V36.2754H292.696V38.9568H295.437V40.3916H292.696V43.108H291.258Z" fill="url(#paint5_radial_6460_100542)"/>
<path d="M346.261 43.108V40.3916H343.59V38.9568H346.261V36.2754H347.699V38.9568H350.44V40.3916H347.699V43.108H346.261Z" fill="url(#paint6_radial_6460_100542)"/>
<path d="M401.26 43.108V40.3916H398.589V38.9568H401.26V36.2754H402.698V38.9568H405.439V40.3916H402.698V43.108H401.26Z" fill="url(#paint7_radial_6460_100542)"/>
<path d="M456.263 43.108V40.3916H453.592V38.9568H456.263V36.2754H457.701V38.9568H460.442V40.3916H457.701V43.108H456.263Z" fill="url(#paint8_radial_6460_100542)"/>
<path d="M511.262 43.108V40.3916H508.591V38.9568H511.262V36.2754H512.7V38.9568H515.441V40.3916H512.7V43.108H511.262Z" fill="url(#paint9_radial_6460_100542)"/>
<path d="M566.265 43.108V40.3916H563.594V38.9568H566.265V36.2754H567.703V38.9568H570.444V40.3916H567.703V43.108H566.265Z" fill="url(#paint10_radial_6460_100542)"/>
<path d="M621.264 43.108V40.3916H618.593V38.9568H621.264V36.2754H622.702V38.9568H625.443V40.3916H622.702V43.108H621.264Z" fill="url(#paint11_radial_6460_100542)"/>
<path d="M676.263 43.108V40.3916H673.592V38.9568H676.263V36.2754H677.701V38.9568H680.442V40.3916H677.701V43.108H676.263Z" fill="url(#paint12_radial_6460_100542)"/>
<path d="M731.266 43.108V40.3916H728.595V38.9568H731.266V36.2754H732.704V38.9568H735.445V40.3916H732.704V43.108H731.266Z" fill="url(#paint13_radial_6460_100542)"/>
<path d="M786.265 43.108V40.3916H783.594V38.9568H786.265V36.2754H787.703V38.9568H790.443V40.3916H787.703V43.108H786.265Z" fill="url(#paint14_radial_6460_100542)"/>
<path d="M16.2551 98.1452V95.4287H13.5842V93.9939H16.2551V91.3125H17.6932V93.9939H20.4339V95.4287H17.6932V98.1452H16.2551Z" fill="url(#paint15_radial_6460_100542)"/>
<path d="M71.2582 98.1452V95.4287H68.5874V93.9939H71.2582V91.3125H72.6964V93.9939H75.4371V95.4287H72.6964V98.1452H71.2582Z" fill="url(#paint16_radial_6460_100542)"/>
<path d="M126.257 98.1452V95.4287H123.586V93.9939H126.257V91.3125H127.695V93.9939H130.436V95.4287H127.695V98.1452H126.257Z" fill="url(#paint17_radial_6460_100542)"/>
<path d="M181.26 98.1452V95.4287H178.589V93.9939H181.26V91.3125H182.698V93.9939H185.439V95.4287H182.698V98.1452H181.26Z" fill="url(#paint18_radial_6460_100542)"/>
<path d="M236.259 98.1452V95.4287H233.588V93.9939H236.259V91.3125H237.697V93.9939H240.438V95.4287H237.697V98.1452H236.259Z" fill="url(#paint19_radial_6460_100542)"/>
<path d="M291.258 98.1452V95.4287H288.587V93.9939H291.258V91.3125H292.696V93.9939H295.437V95.4287H292.696V98.1452H291.258Z" fill="url(#paint20_radial_6460_100542)"/>
<path d="M346.261 98.1452V95.4287H343.59V93.9939H346.261V91.3125H347.699V93.9939H350.44V95.4287H347.699V98.1452H346.261Z" fill="url(#paint21_radial_6460_100542)"/>
<path d="M401.26 98.1452V95.4287H398.589V93.9939H401.26V91.3125H402.698V93.9939H405.439V95.4287H402.698V98.1452H401.26Z" fill="url(#paint22_radial_6460_100542)"/>
<path d="M456.263 98.1452V95.4287H453.592V93.9939H456.263V91.3125H457.701V93.9939H460.442V95.4287H457.701V98.1452H456.263Z" fill="url(#paint23_radial_6460_100542)"/>
<path d="M511.262 98.1452V95.4287H508.591V93.9939H511.262V91.3125H512.7V93.9939H515.441V95.4287H512.7V98.1452H511.262Z" fill="url(#paint24_radial_6460_100542)"/>
<path d="M566.265 98.1452V95.4287H563.594V93.9939H566.265V91.3125H567.703V93.9939H570.444V95.4287H567.703V98.1452H566.265Z" fill="url(#paint25_radial_6460_100542)"/>
<path d="M621.264 98.1452V95.4287H618.593V93.9939H621.264V91.3125H622.702V93.9939H625.443V95.4287H622.702V98.1452H621.264Z" fill="url(#paint26_radial_6460_100542)"/>
<path d="M676.263 98.1452V95.4287H673.592V93.9939H676.263V91.3125H677.701V93.9939H680.442V95.4287H677.701V98.1452H676.263Z" fill="url(#paint27_radial_6460_100542)"/>
<path d="M731.266 98.1452V95.4287H728.595V93.9939H731.266V91.3125H732.704V93.9939H735.445V95.4287H732.704V98.1452H731.266Z" fill="url(#paint28_radial_6460_100542)"/>
<path d="M786.265 98.1452V95.4287H783.594V93.9939H786.265V91.3125H787.703V93.9939H790.443V95.4287H787.703V98.1452H786.265Z" fill="url(#paint29_radial_6460_100542)"/>
<path d="M16.2551 153.188V150.472H13.5842V149.037H16.2551V146.355H17.6932V149.037H20.4339V150.472H17.6932V153.188H16.2551Z" fill="url(#paint30_radial_6460_100542)"/>
<path d="M71.2582 153.188V150.472H68.5874V149.037H71.2582V146.355H72.6964V149.037H75.4371V150.472H72.6964V153.188H71.2582Z" fill="url(#paint31_radial_6460_100542)"/>
<path d="M126.257 153.188V150.472H123.586V149.037H126.257V146.355H127.695V149.037H130.436V150.472H127.695V153.188H126.257Z" fill="url(#paint32_radial_6460_100542)"/>
<path d="M181.26 153.188V150.472H178.589V149.037H181.26V146.355H182.698V149.037H185.439V150.472H182.698V153.188H181.26Z" fill="url(#paint33_radial_6460_100542)"/>
<path d="M236.259 153.188V150.472H233.588V149.037H236.259V146.355H237.697V149.037H240.438V150.472H237.697V153.188H236.259Z" fill="url(#paint34_radial_6460_100542)"/>
<path d="M291.258 153.188V150.472H288.587V149.037H291.258V146.355H292.696V149.037H295.437V150.472H292.696V153.188H291.258Z" fill="url(#paint35_radial_6460_100542)"/>
<path d="M346.261 153.188V150.472H343.59V149.037H346.261V146.355H347.699V149.037H350.44V150.472H347.699V153.188H346.261Z" fill="url(#paint36_radial_6460_100542)"/>
<path d="M401.26 153.188V150.472H398.589V149.037H401.26V146.355H402.698V149.037H405.439V150.472H402.698V153.188H401.26Z" fill="url(#paint37_radial_6460_100542)"/>
<path d="M456.263 153.188V150.472H453.592V149.037H456.263V146.355H457.701V149.037H460.442V150.472H457.701V153.188H456.263Z" fill="url(#paint38_radial_6460_100542)"/>
<path d="M511.262 153.188V150.472H508.591V149.037H511.262V146.355H512.7V149.037H515.441V150.472H512.7V153.188H511.262Z" fill="url(#paint39_radial_6460_100542)"/>
<path d="M566.265 153.188V150.472H563.594V149.037H566.265V146.355H567.703V149.037H570.444V150.472H567.703V153.188H566.265Z" fill="url(#paint40_radial_6460_100542)"/>
<path d="M621.264 153.188V150.472H618.593V149.037H621.264V146.355H622.702V149.037H625.443V150.472H622.702V153.188H621.264Z" fill="url(#paint41_radial_6460_100542)"/>
<path d="M676.263 153.188V150.472H673.592V149.037H676.263V146.355H677.701V149.037H680.442V150.472H677.701V153.188H676.263Z" fill="url(#paint42_radial_6460_100542)"/>
<path d="M731.266 153.188V150.472H728.595V149.037H731.266V146.355H732.704V149.037H735.445V150.472H732.704V153.188H731.266Z" fill="url(#paint43_radial_6460_100542)"/>
<path d="M786.265 153.188V150.472H783.594V149.037H786.265V146.355H787.703V149.037H790.443V150.472H787.703V153.188H786.265Z" fill="url(#paint44_radial_6460_100542)"/>
<path d="M16.2551 208.225V205.509H13.5842V204.074H16.2551V201.393H17.6932V204.074H20.4339V205.509H17.6932V208.225H16.2551Z" fill="url(#paint45_radial_6460_100542)"/>
<path d="M71.2582 208.225V205.509H68.5874V204.074H71.2582V201.393H72.6964V204.074H75.4371V205.509H72.6964V208.225H71.2582Z" fill="url(#paint46_radial_6460_100542)"/>
<path d="M126.257 208.225V205.509H123.586V204.074H126.257V201.393H127.695V204.074H130.436V205.509H127.695V208.225H126.257Z" fill="url(#paint47_radial_6460_100542)"/>
<path d="M181.26 208.225V205.509H178.589V204.074H181.26V201.393H182.698V204.074H185.439V205.509H182.698V208.225H181.26Z" fill="url(#paint48_radial_6460_100542)"/>
<path d="M236.259 208.225V205.509H233.588V204.074H236.259V201.393H237.697V204.074H240.438V205.509H237.697V208.225H236.259Z" fill="url(#paint49_radial_6460_100542)"/>
<path d="M291.258 208.225V205.509H288.587V204.074H291.258V201.393H292.696V204.074H295.437V205.509H292.696V208.225H291.258Z" fill="url(#paint50_radial_6460_100542)"/>
<path d="M346.261 208.225V205.509H343.59V204.074H346.261V201.393H347.699V204.074H350.44V205.509H347.699V208.225H346.261Z" fill="url(#paint51_radial_6460_100542)"/>
<path d="M401.26 208.225V205.509H398.589V204.074H401.26V201.393H402.698V204.074H405.439V205.509H402.698V208.225H401.26Z" fill="url(#paint52_radial_6460_100542)"/>
<path d="M456.263 208.225V205.509H453.592V204.074H456.263V201.393H457.701V204.074H460.442V205.509H457.701V208.225H456.263Z" fill="url(#paint53_radial_6460_100542)"/>
<path d="M511.262 208.225V205.509H508.591V204.074H511.262V201.393H512.7V204.074H515.441V205.509H512.7V208.225H511.262Z" fill="url(#paint54_radial_6460_100542)"/>
<path d="M566.265 208.225V205.509H563.594V204.074H566.265V201.393H567.703V204.074H570.444V205.509H567.703V208.225H566.265Z" fill="url(#paint55_radial_6460_100542)"/>
<path d="M621.264 208.225V205.509H618.593V204.074H621.264V201.393H622.702V204.074H625.443V205.509H622.702V208.225H621.264Z" fill="url(#paint56_radial_6460_100542)"/>
<path d="M676.263 208.225V205.509H673.592V204.074H676.263V201.393H677.701V204.074H680.442V205.509H677.701V208.225H676.263Z" fill="url(#paint57_radial_6460_100542)"/>
<path d="M731.266 208.225V205.509H728.595V204.074H731.266V201.393H732.704V204.074H735.445V205.509H732.704V208.225H731.266Z" fill="url(#paint58_radial_6460_100542)"/>
<path d="M786.265 208.225V205.509H783.594V204.074H786.265V201.393H787.703V204.074H790.443V205.509H787.703V208.225H786.265Z" fill="url(#paint59_radial_6460_100542)"/>
<path d="M841.268 43.108V40.3916H838.597V38.9568H841.268V36.2754H842.706V38.9568H845.447V40.3916H842.706V43.108H841.268Z" fill="url(#paint60_radial_6460_100542)"/>
<path d="M896.267 43.108V40.3916H893.596V38.9568H896.267V36.2754H897.705V38.9568H900.446V40.3916H897.705V43.108H896.267Z" fill="url(#paint61_radial_6460_100542)"/>
<path d="M841.268 98.1452V95.4287H838.597V93.9939H841.268V91.3125H842.706V93.9939H845.447V95.4287H842.706V98.1452H841.268Z" fill="url(#paint62_radial_6460_100542)"/>
<path d="M896.267 98.1452V95.4287H893.596V93.9939H896.267V91.3125H897.705V93.9939H900.446V95.4287H897.705V98.1452H896.267Z" fill="url(#paint63_radial_6460_100542)"/>
<path d="M841.268 153.188V150.472H838.597V149.037H841.268V146.355H842.706V149.037H845.447V150.472H842.706V153.188H841.268Z" fill="url(#paint64_radial_6460_100542)"/>
<path d="M896.267 153.188V150.472H893.596V149.037H896.267V146.355H897.705V149.037H900.446V150.472H897.705V153.188H896.267Z" fill="url(#paint65_radial_6460_100542)"/>
<path d="M841.268 208.225V205.509H838.597V204.074H841.268V201.393H842.706V204.074H845.447V205.509H842.706V208.225H841.268Z" fill="url(#paint66_radial_6460_100542)"/>
<path d="M896.267 208.225V205.509H893.596V204.074H896.267V201.393H897.705V204.074H900.446V205.509H897.705V208.225H896.267Z" fill="url(#paint67_radial_6460_100542)"/>
<path d="M896.267 43.108V40.3916H893.596V38.9568H896.267V36.2754H897.705V38.9568H900.446V40.3916H897.705V43.108H896.267Z" fill="url(#paint68_radial_6460_100542)"/>
<path d="M951.265 43.108V40.3916H948.595V38.9568H951.265V36.2754H952.704V38.9568H955.444V40.3916H952.704V43.108H951.265Z" fill="url(#paint69_radial_6460_100542)"/>
<path d="M1006.27 43.108V40.3916H1003.6V38.9568H1006.27V36.2754H1007.71V38.9568H1010.45V40.3916H1007.71V43.108H1006.27Z" fill="url(#paint70_radial_6460_100542)"/>
<path d="M896.267 98.1452V95.4287H893.596V93.9939H896.267V91.3125H897.705V93.9939H900.446V95.4287H897.705V98.1452H896.267Z" fill="url(#paint71_radial_6460_100542)"/>
<path d="M951.265 98.1452V95.4287H948.595V93.9939H951.265V91.3125H952.704V93.9939H955.444V95.4287H952.704V98.1452H951.265Z" fill="url(#paint72_radial_6460_100542)"/>
<path d="M1006.27 98.1452V95.4287H1003.6V93.9939H1006.27V91.3125H1007.71V93.9939H1010.45V95.4287H1007.71V98.1452H1006.27Z" fill="url(#paint73_radial_6460_100542)"/>
<path d="M896.267 153.188V150.472H893.596V149.037H896.267V146.355H897.705V149.037H900.446V150.472H897.705V153.188H896.267Z" fill="url(#paint74_radial_6460_100542)"/>
<path d="M951.265 153.188V150.472H948.595V149.037H951.265V146.355H952.704V149.037H955.444V150.472H952.704V153.188H951.265Z" fill="url(#paint75_radial_6460_100542)"/>
<path d="M1006.27 153.188V150.472H1003.6V149.037H1006.27V146.355H1007.71V149.037H1010.45V150.472H1007.71V153.188H1006.27Z" fill="url(#paint76_radial_6460_100542)"/>
<path d="M896.267 208.225V205.509H893.596V204.074H896.267V201.393H897.705V204.074H900.446V205.509H897.705V208.225H896.267Z" fill="url(#paint77_radial_6460_100542)"/>
<path d="M951.265 208.225V205.509H948.595V204.074H951.265V201.393H952.704V204.074H955.444V205.509H952.704V208.225H951.265Z" fill="url(#paint78_radial_6460_100542)"/>
<path d="M1006.27 208.225V205.509H1003.6V204.074H1006.27V201.393H1007.71V204.074H1010.45V205.509H1007.71V208.225H1006.27Z" fill="url(#paint79_radial_6460_100542)"/>
<path d="M1006.27 43.108V40.3916H1003.6V38.9568H1006.27V36.2754H1007.71V38.9568H1010.45V40.3916H1007.71V43.108H1006.27Z" fill="url(#paint80_radial_6460_100542)"/>
<path d="M1061.27 43.108V40.3916H1058.6V38.9568H1061.27V36.2754H1062.71V38.9568H1065.45V40.3916H1062.71V43.108H1061.27Z" fill="url(#paint81_radial_6460_100542)"/>
<path d="M1006.27 98.1452V95.4287H1003.6V93.9939H1006.27V91.3125H1007.71V93.9939H1010.45V95.4287H1007.71V98.1452H1006.27Z" fill="url(#paint82_radial_6460_100542)"/>
<path d="M1061.27 98.1452V95.4287H1058.6V93.9939H1061.27V91.3125H1062.71V93.9939H1065.45V95.4287H1062.71V98.1452H1061.27Z" fill="url(#paint83_radial_6460_100542)"/>
<path d="M1006.27 153.188V150.472H1003.6V149.037H1006.27V146.355H1007.71V149.037H1010.45V150.472H1007.71V153.188H1006.27Z" fill="url(#paint84_radial_6460_100542)"/>
<path d="M1061.27 153.188V150.472H1058.6V149.037H1061.27V146.355H1062.71V149.037H1065.45V150.472H1062.71V153.188H1061.27Z" fill="url(#paint85_radial_6460_100542)"/>
<path d="M1006.27 208.225V205.509H1003.6V204.074H1006.27V201.393H1007.71V204.074H1010.45V205.509H1007.71V208.225H1006.27Z" fill="url(#paint86_radial_6460_100542)"/>
<path d="M1061.27 208.225V205.509H1058.6V204.074H1061.27V201.393H1062.71V204.074H1065.45V205.509H1062.71V208.225H1061.27Z" fill="url(#paint87_radial_6460_100542)"/>
</g>
<path d="M1105.91 -6L1005.84 94.3084V155.103L971.749 189.281H819.502L799.234 168.962H699.798L658.806 210.06L602 267H957.573L1222 1.92348" stroke="#23FF81" stroke-width="0.5" stroke-miterlimit="10"/>
<path d="M904.117 167L892.11 171.712H888.95L900.957 167H904.117Z" fill="#F0F0F0"/>
<path d="M895.266 167L883.259 171.712H880.103L892.11 167H895.266Z" fill="#F0F0F0"/>
<path d="M886.415 167L874.408 171.712H871.252L883.259 167H886.415Z" fill="#F0F0F0"/>
<path d="M877.567 167L865.56 171.712H862.4L874.407 167H877.567Z" fill="#F0F0F0"/>
<path d="M868.716 167L856.709 171.712H853.554L865.561 167H868.716Z" fill="#F0F0F0"/>
<path d="M859.865 167L847.858 171.712H844.703L856.71 167H859.865Z" fill="#F0F0F0"/>
<path d="M851.018 167L839.011 171.712H835.851L847.858 167H851.018Z" fill="#F0F0F0"/>
<path d="M842.167 167L830.16 171.712H827L839.011 167H842.167Z" fill="#F0F0F0"/>
<path d="M975.551 167L963.544 171.712H960.389L972.396 167H975.551Z" fill="#F0F0F0"/>
<path d="M966.704 167L954.697 171.712H951.537L963.544 167H966.704Z" fill="#F0F0F0"/>
<path d="M957.853 167L945.846 171.712H942.69L954.697 167H957.853Z" fill="#F0F0F0"/>
<path d="M949.002 167L936.995 171.712H933.839L945.846 167H949.002Z" fill="#F0F0F0"/>
<path d="M940.155 167L928.148 171.712H924.988L936.995 167H940.155Z" fill="#F0F0F0"/>
<path d="M931.304 167L919.297 171.712H916.141L928.148 167H931.304Z" fill="#F0F0F0"/>
<path d="M922.452 167L910.445 171.712H907.29L919.296 167H922.452Z" fill="#F0F0F0"/>
<path d="M913.605 167L901.598 171.712H898.438L910.445 167H913.605Z" fill="#F0F0F0"/>
<path d="M-7.60298e-07 140L13.3257 153.295H124.203L130.792 146.722H180.283L191.366 157.778V177.444L222 208" stroke="#23FF81" stroke-width="0.5" stroke-miterlimit="10"/>
<g filter="url(#filter0_d_6460_100542)">
<mask id="path-108-outside-1_6460_100542" maskUnits="userSpaceOnUse" x="108" y="75" width="386" height="49" fill="black">
<rect fill="white" x="108" y="75" width="386" height="49"/>
<path d="M109.594 113.531V86.4062C109.594 83.7604 110.51 81.5208 112.344 79.6875C114.177 77.8333 116.417 76.9062 119.062 76.9062H155.531V86.9062H119.5V113.031H155.531V123H119.062C116.417 123 114.177 122.083 112.344 120.25C110.51 118.417 109.594 116.177 109.594 113.531ZM162.344 123V86.4062C162.344 83.7604 163.26 81.5208 165.094 79.6875C166.927 77.8333 169.167 76.9062 171.812 76.9062H198.875C201.521 76.9062 203.771 77.8438 205.625 79.7188C207.479 81.5729 208.406 83.8021 208.406 86.4062V123H198.375V108.156H172.25V123H162.344ZM172.25 98.1562H198.375V86.9062H172.25V98.1562ZM215.719 123V76.9062H225.938L241.562 95.5312L257.125 76.9062H267.406V123H257.438V92.0938L241.562 111.031L225.625 92.1562V123H215.719ZM275.094 123V76.9688H311.625C314.229 76.9688 316.469 77.9062 318.344 79.7812C320.219 81.6354 321.156 83.8646 321.156 86.4688V98.375C321.156 100.979 320.219 103.208 318.344 105.062C316.469 106.917 314.229 107.844 311.625 107.844L285 107.906C285.125 107.906 285.188 108.031 285.188 108.281C285.104 108.281 285.042 108.26 285 108.219V123H275.094ZM285 97.8438H311.125V86.9062H285V97.8438ZM325.844 123V86.4062C325.844 83.7604 326.76 81.5208 328.594 79.6875C330.427 77.8333 332.667 76.9062 335.312 76.9062H362.375C365.021 76.9062 367.271 77.8438 369.125 79.7188C370.979 81.5729 371.906 83.8021 371.906 86.4062V123H361.875V108.156H335.75V123H325.844ZM335.75 98.1562H361.875V86.9062H335.75V98.1562ZM379.281 123V76.9062H389.25V123H379.281ZM393.281 113.531V86.4062C393.281 83.7604 394.198 81.5208 396.031 79.6875C397.865 77.8333 400.104 76.9062 402.75 76.9062H429.812C432.458 76.9062 434.708 77.8438 436.562 79.7188C438.417 81.5729 439.344 83.8021 439.344 86.4062V90.75H429.312V86.9062H403.188V113.031H429.312V106.094H419.312V96.125H439.344V113.531C439.344 116.135 438.417 118.365 436.562 120.219C434.708 122.073 432.458 123 429.812 123H402.75C400.104 123 397.865 122.083 396.031 120.25C394.198 118.417 393.281 116.177 393.281 113.531ZM446.406 123V76.9062H456.625L482.438 107.625V76.9062H492.469V123H482.25L456.312 92.1562V123H446.406Z"/>
</mask>
<path d="M112.344 79.6875L113.051 80.3946L113.055 80.3906L112.344 79.6875ZM155.531 76.9062H156.531V75.9062H155.531V76.9062ZM155.531 86.9062V87.9062H156.531V86.9062H155.531ZM119.5 86.9062V85.9062H118.5V86.9062H119.5ZM119.5 113.031H118.5V114.031H119.5V113.031ZM155.531 113.031H156.531V112.031H155.531V113.031ZM155.531 123V124H156.531V123H155.531ZM110.594 113.531V86.4062H108.594V113.531H110.594ZM110.594 86.4062C110.594 84.0195 111.409 82.0361 113.051 80.3946L111.637 78.9804C109.612 81.0055 108.594 83.5013 108.594 86.4062H110.594ZM113.055 80.3906C114.697 78.7295 116.679 77.9062 119.062 77.9062V75.9062C116.154 75.9062 113.657 76.9371 111.633 78.9844L113.055 80.3906ZM119.062 77.9062H155.531V75.9062H119.062V77.9062ZM154.531 76.9062V86.9062H156.531V76.9062H154.531ZM155.531 85.9062H119.5V87.9062H155.531V85.9062ZM118.5 86.9062V113.031H120.5V86.9062H118.5ZM119.5 114.031H155.531V112.031H119.5V114.031ZM154.531 113.031V123H156.531V113.031H154.531ZM155.531 122H119.062V124H155.531V122ZM119.062 122C116.676 122 114.692 121.184 113.051 119.543L111.637 120.957C113.662 122.982 116.158 124 119.062 124V122ZM113.051 119.543C111.409 117.901 110.594 115.918 110.594 113.531H108.594C108.594 116.436 109.612 118.932 111.637 120.957L113.051 119.543ZM162.344 123H161.344V124H162.344V123ZM165.094 79.6875L165.801 80.3946L165.805 80.3906L165.094 79.6875ZM205.625 79.7188L204.914 80.4219L204.918 80.4259L205.625 79.7188ZM208.406 123V124H209.406V123H208.406ZM198.375 123H197.375V124H198.375V123ZM198.375 108.156H199.375V107.156H198.375V108.156ZM172.25 108.156V107.156H171.25V108.156H172.25ZM172.25 123V124H173.25V123H172.25ZM172.25 98.1562H171.25V99.1562H172.25V98.1562ZM198.375 98.1562V99.1562H199.375V98.1562H198.375ZM198.375 86.9062H199.375V85.9062H198.375V86.9062ZM172.25 86.9062V85.9062H171.25V86.9062H172.25ZM163.344 123V86.4062H161.344V123H163.344ZM163.344 86.4062C163.344 84.0195 164.159 82.0361 165.801 80.3946L164.387 78.9804C162.362 81.0055 161.344 83.5013 161.344 86.4062H163.344ZM165.805 80.3906C167.447 78.7295 169.429 77.9062 171.812 77.9062V75.9062C168.904 75.9062 166.407 76.9371 164.383 78.9844L165.805 80.3906ZM171.812 77.9062H198.875V75.9062H171.812V77.9062ZM198.875 77.9062C201.255 77.9062 203.248 78.7376 204.914 80.4219L206.336 79.0156C204.293 76.9499 201.787 75.9062 198.875 75.9062V77.9062ZM204.918 80.4259C206.586 82.0939 207.406 84.0694 207.406 86.4062H209.406C209.406 83.5348 208.372 81.0519 206.332 79.0116L204.918 80.4259ZM207.406 86.4062V123H209.406V86.4062H207.406ZM208.406 122H198.375V124H208.406V122ZM199.375 123V108.156H197.375V123H199.375ZM198.375 107.156H172.25V109.156H198.375V107.156ZM171.25 108.156V123H173.25V108.156H171.25ZM172.25 122H162.344V124H172.25V122ZM172.25 99.1562H198.375V97.1562H172.25V99.1562ZM199.375 98.1562V86.9062H197.375V98.1562H199.375ZM198.375 85.9062H172.25V87.9062H198.375V85.9062ZM171.25 86.9062V98.1562H173.25V86.9062H171.25ZM215.719 123H214.719V124H215.719V123ZM215.719 76.9062V75.9062H214.719V76.9062H215.719ZM225.938 76.9062L226.704 76.2635L226.404 75.9062H225.938V76.9062ZM241.562 95.5312L240.796 96.174L241.564 97.089L242.33 96.1724L241.562 95.5312ZM257.125 76.9062V75.9062H256.657L256.358 76.2651L257.125 76.9062ZM267.406 76.9062H268.406V75.9062H267.406V76.9062ZM267.406 123V124H268.406V123H267.406ZM257.438 123H256.438V124H257.438V123ZM257.438 92.0938H258.438V89.3442L256.671 91.4513L257.438 92.0938ZM241.562 111.031L240.798 111.676L241.565 112.585L242.329 111.674L241.562 111.031ZM225.625 92.1562L226.389 91.5111L224.625 89.4219V92.1562H225.625ZM225.625 123V124H226.625V123H225.625ZM216.719 123V76.9062H214.719V123H216.719ZM215.719 77.9062H225.938V75.9062H215.719V77.9062ZM225.171 77.549L240.796 96.174L242.329 94.8885L226.704 76.2635L225.171 77.549ZM242.33 96.1724L257.892 77.5474L256.358 76.2651L240.795 94.8901L242.33 96.1724ZM257.125 77.9062H267.406V75.9062H257.125V77.9062ZM266.406 76.9062V123H268.406V76.9062H266.406ZM267.406 122H257.438V124H267.406V122ZM258.438 123V92.0938H256.438V123H258.438ZM256.671 91.4513L240.796 110.389L242.329 111.674L258.204 92.7362L256.671 91.4513ZM242.327 110.386L226.389 91.5111L224.861 92.8014L240.798 111.676L242.327 110.386ZM224.625 92.1562V123H226.625V92.1562H224.625ZM225.625 122H215.719V124H225.625V122ZM275.094 123H274.094V124H275.094V123ZM275.094 76.9688V75.9688H274.094V76.9688H275.094ZM318.344 79.7812L317.637 80.4884L317.641 80.4923L318.344 79.7812ZM311.625 107.844V106.844L311.623 106.844L311.625 107.844ZM285 107.906L284.998 106.906L285 108.906V107.906ZM285.188 108.281V109.281H286.188V108.281H285.188ZM285 108.219L285.707 107.512L284 105.805V108.219H285ZM285 123V124H286V123H285ZM285 97.8438H284V98.8438H285V97.8438ZM311.125 97.8438V98.8438H312.125V97.8438H311.125ZM311.125 86.9062H312.125V85.9062H311.125V86.9062ZM285 86.9062V85.9062H284V86.9062H285ZM276.094 123V76.9688H274.094V123H276.094ZM275.094 77.9688H311.625V75.9688H275.094V77.9688ZM311.625 77.9688C313.959 77.9688 315.945 78.7971 317.637 80.4884L319.051 79.0741C316.992 77.0154 314.5 75.9688 311.625 75.9688V77.9688ZM317.641 80.4923C319.328 82.1613 320.156 84.1355 320.156 86.4688H322.156C322.156 83.5937 321.109 81.1096 319.047 79.0702L317.641 80.4923ZM320.156 86.4688V98.375H322.156V86.4688H320.156ZM320.156 98.375C320.156 100.708 319.328 102.682 317.641 104.351L319.047 105.774C321.109 103.734 322.156 101.25 322.156 98.375H320.156ZM317.641 104.351C315.95 106.023 313.962 106.844 311.625 106.844V108.844C314.496 108.844 316.987 107.81 319.047 105.774L317.641 104.351ZM311.623 106.844L284.998 106.906L285.002 108.906L311.627 108.844L311.623 106.844ZM285 108.906C284.856 108.906 284.686 108.867 284.527 108.762C284.375 108.66 284.29 108.535 284.246 108.447C284.173 108.301 284.188 108.207 284.188 108.281H286.188C286.188 108.105 286.171 107.824 286.035 107.553C285.96 107.403 285.836 107.23 285.637 107.098C285.431 106.961 285.206 106.906 285 106.906V108.906ZM285.188 107.281C285.258 107.281 285.495 107.3 285.707 107.512L284.293 108.926C284.588 109.221 284.95 109.281 285.188 109.281V107.281ZM284 108.219V123H286V108.219H284ZM285 122H275.094V124H285V122ZM285 98.8438H311.125V96.8438H285V98.8438ZM312.125 97.8438V86.9062H310.125V97.8438H312.125ZM311.125 85.9062H285V87.9062H311.125V85.9062ZM284 86.9062V97.8438H286V86.9062H284ZM325.844 123H324.844V124H325.844V123ZM328.594 79.6875L329.301 80.3946L329.305 80.3906L328.594 79.6875ZM369.125 79.7188L368.414 80.4219L368.418 80.4259L369.125 79.7188ZM371.906 123V124H372.906V123H371.906ZM361.875 123H360.875V124H361.875V123ZM361.875 108.156H362.875V107.156H361.875V108.156ZM335.75 108.156V107.156H334.75V108.156H335.75ZM335.75 123V124H336.75V123H335.75ZM335.75 98.1562H334.75V99.1562H335.75V98.1562ZM361.875 98.1562V99.1562H362.875V98.1562H361.875ZM361.875 86.9062H362.875V85.9062H361.875V86.9062ZM335.75 86.9062V85.9062H334.75V86.9062H335.75ZM326.844 123V86.4062H324.844V123H326.844ZM326.844 86.4062C326.844 84.0195 327.659 82.0361 329.301 80.3946L327.887 78.9804C325.862 81.0055 324.844 83.5013 324.844 86.4062H326.844ZM329.305 80.3906C330.947 78.7295 332.929 77.9062 335.312 77.9062V75.9062C332.404 75.9062 329.907 76.9371 327.883 78.9844L329.305 80.3906ZM335.312 77.9062H362.375V75.9062H335.312V77.9062ZM362.375 77.9062C364.755 77.9062 366.748 78.7376 368.414 80.4219L369.836 79.0156C367.793 76.9499 365.287 75.9062 362.375 75.9062V77.9062ZM368.418 80.4259C370.086 82.0939 370.906 84.0694 370.906 86.4062H372.906C372.906 83.5348 371.872 81.0519 369.832 79.0116L368.418 80.4259ZM370.906 86.4062V123H372.906V86.4062H370.906ZM371.906 122H361.875V124H371.906V122ZM362.875 123V108.156H360.875V123H362.875ZM361.875 107.156H335.75V109.156H361.875V107.156ZM334.75 108.156V123H336.75V108.156H334.75ZM335.75 122H325.844V124H335.75V122ZM335.75 99.1562H361.875V97.1562H335.75V99.1562ZM362.875 98.1562V86.9062H360.875V98.1562H362.875ZM361.875 85.9062H335.75V87.9062H361.875V85.9062ZM334.75 86.9062V98.1562H336.75V86.9062H334.75ZM379.281 123H378.281V124H379.281V123ZM379.281 76.9062V75.9062H378.281V76.9062H379.281ZM389.25 76.9062H390.25V75.9062H389.25V76.9062ZM389.25 123V124H390.25V123H389.25ZM380.281 123V76.9062H378.281V123H380.281ZM379.281 77.9062H389.25V75.9062H379.281V77.9062ZM388.25 76.9062V123H390.25V76.9062H388.25ZM389.25 122H379.281V124H389.25V122ZM396.031 79.6875L396.738 80.3946L396.742 80.3906L396.031 79.6875ZM436.562 79.7188L435.851 80.4219L435.855 80.4259L436.562 79.7188ZM439.344 90.75V91.75H440.344V90.75H439.344ZM429.312 90.75H428.312V91.75H429.312V90.75ZM429.312 86.9062H430.312V85.9062H429.312V86.9062ZM403.188 86.9062V85.9062H402.188V86.9062H403.188ZM403.188 113.031H402.188V114.031H403.188V113.031ZM429.312 113.031V114.031H430.312V113.031H429.312ZM429.312 106.094H430.312V105.094H429.312V106.094ZM419.312 106.094H418.312V107.094H419.312V106.094ZM419.312 96.125V95.125H418.312V96.125H419.312ZM439.344 96.125H440.344V95.125H439.344V96.125ZM394.281 113.531V86.4062H392.281V113.531H394.281ZM394.281 86.4062C394.281 84.0195 395.097 82.0361 396.738 80.3946L395.324 78.9804C393.299 81.0055 392.281 83.5013 392.281 86.4062H394.281ZM396.742 80.3906C398.385 78.7295 400.367 77.9062 402.75 77.9062V75.9062C399.841 75.9062 397.344 76.9371 395.32 78.9844L396.742 80.3906ZM402.75 77.9062H429.812V75.9062H402.75V77.9062ZM429.812 77.9062C432.192 77.9062 434.186 78.7376 435.851 80.4219L437.274 79.0156C435.231 76.9499 432.724 75.9062 429.812 75.9062V77.9062ZM435.855 80.4259C437.523 82.0939 438.344 84.0694 438.344 86.4062H440.344C440.344 83.5348 439.31 81.0519 437.27 79.0116L435.855 80.4259ZM438.344 86.4062V90.75H440.344V86.4062H438.344ZM439.344 89.75H429.312V91.75H439.344V89.75ZM430.312 90.75V86.9062H428.312V90.75H430.312ZM429.312 85.9062H403.188V87.9062H429.312V85.9062ZM402.188 86.9062V113.031H404.188V86.9062H402.188ZM403.188 114.031H429.312V112.031H403.188V114.031ZM430.312 113.031V106.094H428.312V113.031H430.312ZM429.312 105.094H419.312V107.094H429.312V105.094ZM420.312 106.094V96.125H418.312V106.094H420.312ZM419.312 97.125H439.344V95.125H419.312V97.125ZM438.344 96.125V113.531H440.344V96.125H438.344ZM438.344 113.531C438.344 115.868 437.523 117.844 435.855 119.512L437.27 120.926C439.31 118.886 440.344 116.403 440.344 113.531H438.344ZM435.855 119.512C434.191 121.176 432.196 122 429.812 122V124C432.721 124 435.226 122.969 437.27 120.926L435.855 119.512ZM429.812 122H402.75V124H429.812V122ZM402.75 122C400.363 122 398.38 121.184 396.738 119.543L395.324 120.957C397.349 122.982 399.845 124 402.75 124V122ZM396.738 119.543C395.097 117.901 394.281 115.918 394.281 113.531H392.281C392.281 116.436 393.299 118.932 395.324 120.957L396.738 119.543ZM446.406 123H445.406V124H446.406V123ZM446.406 76.9062V75.9062H445.406V76.9062H446.406ZM456.625 76.9062L457.391 76.2629L457.091 75.9062H456.625V76.9062ZM482.438 107.625L481.672 108.268L483.438 110.37V107.625H482.438ZM482.438 76.9062V75.9062H481.438V76.9062H482.438ZM492.469 76.9062H493.469V75.9062H492.469V76.9062ZM492.469 123V124H493.469V123H492.469ZM482.25 123L481.485 123.644L481.784 124H482.25V123ZM456.312 92.1562L457.078 91.5126L455.312 89.4134V92.1562H456.312ZM456.312 123V124H457.312V123H456.312ZM447.406 123V76.9062H445.406V123H447.406ZM446.406 77.9062H456.625V75.9062H446.406V77.9062ZM455.859 77.5496L481.672 108.268L483.203 106.982L457.391 76.2629L455.859 77.5496ZM483.438 107.625V76.9062H481.438V107.625H483.438ZM482.438 77.9062H492.469V75.9062H482.438V77.9062ZM491.469 76.9062V123H493.469V76.9062H491.469ZM492.469 122H482.25V124H492.469V122ZM483.015 122.356L457.078 91.5126L455.547 92.7999L481.485 123.644L483.015 122.356ZM455.312 92.1562V123H457.312V92.1562H455.312ZM456.312 122H446.406V124H456.312V122Z" fill="#23FF81" mask="url(#path-108-outside-1_6460_100542)"/>
</g>
<g filter="url(#filter1_d_6460_100542)">
<path d="M109.594 107.531V80.4062C109.594 77.7604 110.51 75.5208 112.344 73.6875C114.177 71.8333 116.417 70.9062 119.062 70.9062H155.531V80.9062H119.5V107.031H155.531V117H119.062C116.417 117 114.177 116.083 112.344 114.25C110.51 112.417 109.594 110.177 109.594 107.531ZM162.344 117V80.4062C162.344 77.7604 163.26 75.5208 165.094 73.6875C166.927 71.8333 169.167 70.9062 171.812 70.9062H198.875C201.521 70.9062 203.771 71.8438 205.625 73.7188C207.479 75.5729 208.406 77.8021 208.406 80.4062V117H198.375V102.156H172.25V117H162.344ZM172.25 92.1562H198.375V80.9062H172.25V92.1562ZM215.719 117V70.9062H225.938L241.562 89.5312L257.125 70.9062H267.406V117H257.438V86.0938L241.562 105.031L225.625 86.1562V117H215.719ZM275.094 117V70.9688H311.625C314.229 70.9688 316.469 71.9062 318.344 73.7812C320.219 75.6354 321.156 77.8646 321.156 80.4688V92.375C321.156 94.9792 320.219 97.2083 318.344 99.0625C316.469 100.917 314.229 101.844 311.625 101.844L285 101.906C285.125 101.906 285.188 102.031 285.188 102.281C285.104 102.281 285.042 102.26 285 102.219V117H275.094ZM285 91.8438H311.125V80.9062H285V91.8438ZM325.844 117V80.4062C325.844 77.7604 326.76 75.5208 328.594 73.6875C330.427 71.8333 332.667 70.9062 335.312 70.9062H362.375C365.021 70.9062 367.271 71.8438 369.125 73.7188C370.979 75.5729 371.906 77.8021 371.906 80.4062V117H361.875V102.156H335.75V117H325.844ZM335.75 92.1562H361.875V80.9062H335.75V92.1562ZM379.281 117V70.9062H389.25V117H379.281ZM393.281 107.531V80.4062C393.281 77.7604 394.198 75.5208 396.031 73.6875C397.865 71.8333 400.104 70.9062 402.75 70.9062H429.812C432.458 70.9062 434.708 71.8438 436.562 73.7188C438.417 75.5729 439.344 77.8021 439.344 80.4062V84.75H429.312V80.9062H403.188V107.031H429.312V100.094H419.312V90.125H439.344V107.531C439.344 110.135 438.417 112.365 436.562 114.219C434.708 116.073 432.458 117 429.812 117H402.75C400.104 117 397.865 116.083 396.031 114.25C394.198 112.417 393.281 110.177 393.281 107.531ZM446.406 117V70.9062H456.625L482.438 101.625V70.9062H492.469V117H482.25L456.312 86.1562V117H446.406Z" fill="#23FF81"/>
</g>
<path d="M107.859 57V33.9531H129.141V38.9531H112.875V42.9844H125.969V47.9688H112.875V52.0156H129.141V57H107.859ZM132.234 57V38.4375H146.406C147.688 38.4375 148.781 38.8958 149.688 39.8125C150.594 40.7292 151.047 41.8177 151.047 43.0781V57H146.141V43.3438H137.125V57H132.234ZM154.438 57V43.0781C154.438 41.8177 154.896 40.7292 155.812 39.8125C156.74 38.8958 157.844 38.4375 159.125 38.4375H169.359V43.3438H159.344V57H154.438ZM171.25 52.3594V43.0781C171.25 41.8177 171.708 40.7292 172.625 39.8125C173.552 38.8958 174.641 38.4375 175.891 38.4375H185.438C186.719 38.4375 187.812 38.8958 188.719 39.8125C189.625 40.7292 190.078 41.8177 190.078 43.0781V52.3594C190.078 53.6198 189.625 54.7083 188.719 55.625C187.812 56.5417 186.719 57 185.438 57H175.891C174.63 57 173.542 56.5417 172.625 55.625C171.708 54.7083 171.25 53.6198 171.25 52.3594ZM176.156 52.1094H185.172V43.3438H176.156V52.1094ZM193.438 52.3594V32.3281H198.375V52.1094H202.125V57H198.078C196.818 57 195.729 56.5417 194.812 55.625C193.896 54.7083 193.438 53.6198 193.438 52.3594ZM204.219 52.3594V32.3281H209.156V52.1094H212.906V57H208.859C207.599 57 206.51 56.5417 205.594 55.625C204.677 54.7083 204.219 53.6198 204.219 52.3594Z" fill="white"/>
<path d="M284.641 148.953V143.953H307.688V148.953H298.656V167H293.656V148.953H284.641ZM309.906 162.359V153.078C309.906 151.818 310.365 150.729 311.281 149.812C312.208 148.896 313.297 148.438 314.547 148.438H324.094C325.375 148.438 326.469 148.896 327.375 149.812C328.281 150.729 328.734 151.818 328.734 153.078V162.359C328.734 163.62 328.281 164.708 327.375 165.625C326.469 166.542 325.375 167 324.094 167H314.547C313.286 167 312.198 166.542 311.281 165.625C310.365 164.708 309.906 163.62 309.906 162.359ZM314.812 162.109H323.828V153.344H314.812V162.109ZM341.484 162.359V153.078C341.484 151.818 341.938 150.729 342.844 149.812C343.75 148.896 344.844 148.438 346.125 148.438H355.438V142.359H360.328V167H346.125C344.844 167 343.75 166.542 342.844 165.625C341.938 164.708 341.484 163.62 341.484 162.359ZM346.406 162.109H355.438V153.344H346.406V162.109ZM363.719 162.359V153.078C363.719 151.818 364.177 150.729 365.094 149.812C366.021 148.896 367.109 148.438 368.359 148.438H377.906C379.188 148.438 380.281 148.896 381.188 149.812C382.094 150.729 382.547 151.818 382.547 153.078V162.359C382.547 163.62 382.094 164.708 381.188 165.625C380.281 166.542 379.188 167 377.906 167H368.359C367.099 167 366.01 166.542 365.094 165.625C364.177 164.708 363.719 163.62 363.719 162.359ZM368.625 162.109H377.641V153.344H368.625V162.109ZM395.203 162.359V153.078C395.203 151.818 395.656 150.729 396.562 149.812C397.469 148.896 398.562 148.438 399.844 148.438H414.047V174.359H409.156V167H399.844C398.562 167 397.469 166.542 396.562 165.625C395.656 164.708 395.203 163.62 395.203 162.359ZM400.125 162.109H409.156V153.344H400.125V162.109ZM417.516 162.359V148.438H422.406V162.109H431.422V148.438H436.328V162.359C436.328 163.62 435.875 164.708 434.969 165.625C434.062 166.542 432.969 167 431.688 167H422.156C420.875 167 419.781 166.542 418.875 165.625C417.969 164.708 417.516 163.62 417.516 162.359ZM439.688 162.359V153.078C439.688 151.818 440.146 150.729 441.062 149.812C441.99 148.896 443.078 148.438 444.328 148.438H453.875C455.156 148.438 456.25 148.896 457.156 149.812C458.062 150.729 458.516 151.818 458.516 153.078V160.188H444.594V162.109H458.516V167H444.328C443.068 167 441.979 166.542 441.062 165.625C440.146 164.708 439.688 163.62 439.688 162.359ZM444.594 155.891H453.609V153.344H444.594V155.891ZM461.75 162.359V161.438H466.656V162.109H475.672V160.188H466.391C465.13 160.188 464.042 159.729 463.125 158.812C462.208 157.896 461.75 156.807 461.75 155.547V153.078C461.75 151.818 462.208 150.729 463.125 149.812C464.042 148.896 465.13 148.438 466.391 148.438H475.938C477.24 148.438 478.344 148.896 479.25 149.812C480.156 150.729 480.609 151.818 480.609 153.078V154.016H475.672V153.344H466.656V155.25H475.938C477.24 155.25 478.344 155.703 479.25 156.609C480.156 157.516 480.609 158.609 480.609 159.891V162.359C480.609 163.62 480.151 164.708 479.234 165.625C478.328 166.542 477.229 167 475.938 167H466.391C465.13 167 464.042 166.542 463.125 165.625C462.208 164.708 461.75 163.62 461.75 162.359ZM483.859 162.359V142.938H488.75V148.438H495.625V153.344H488.75V162.109H495.625V167H488.531C487.229 167 486.125 166.542 485.219 165.625C484.312 164.708 483.859 163.62 483.859 162.359Z" fill="white"/>
<rect x="675" y="80" width="219" height="48" rx="20" fill="#23FF81"/>
<path d="M740.296 110.5V97.09H749.206V99.25H742.744V102.688H748.846V104.848H742.744V108.34H749.206V110.5H740.296ZM750.803 110.5V100.708H753.017V102.634L752.837 102.292C753.065 101.704 753.437 101.26 753.953 100.96C754.481 100.648 755.093 100.492 755.789 100.492C756.509 100.492 757.145 100.648 757.697 100.96C758.261 101.272 758.699 101.71 759.011 102.274C759.323 102.826 759.479 103.468 759.479 104.2V110.5H757.121V104.758C757.121 104.326 757.037 103.954 756.869 103.642C756.701 103.33 756.467 103.09 756.167 102.922C755.879 102.742 755.537 102.652 755.141 102.652C754.757 102.652 754.415 102.742 754.115 102.922C753.815 103.09 753.581 103.33 753.413 103.642C753.245 103.954 753.161 104.326 753.161 104.758V110.5H750.803ZM761.473 110.5V100.708H763.687V102.886L763.507 102.562C763.735 101.83 764.089 101.32 764.569 101.032C765.061 100.744 765.649 100.6 766.333 100.6H766.909V102.688H766.063C765.391 102.688 764.851 102.898 764.443 103.318C764.035 103.726 763.831 104.302 763.831 105.046V110.5H761.473ZM772.993 110.716C772.033 110.716 771.157 110.494 770.365 110.05C769.585 109.606 768.961 109 768.493 108.232C768.037 107.464 767.809 106.588 767.809 105.604C767.809 104.62 768.037 103.744 768.493 102.976C768.961 102.208 769.585 101.602 770.365 101.158C771.145 100.714 772.021 100.492 772.993 100.492C773.953 100.492 774.823 100.714 775.603 101.158C776.383 101.602 777.001 102.208 777.457 102.976C777.925 103.732 778.159 104.608 778.159 105.604C778.159 106.588 777.925 107.464 777.457 108.232C776.989 109 776.365 109.606 775.585 110.05C774.805 110.494 773.941 110.716 772.993 110.716ZM772.993 108.556C773.521 108.556 773.983 108.43 774.379 108.178C774.787 107.926 775.105 107.578 775.333 107.134C775.573 106.678 775.693 106.168 775.693 105.604C775.693 105.028 775.573 104.524 775.333 104.092C775.105 103.648 774.787 103.3 774.379 103.048C773.983 102.784 773.521 102.652 772.993 102.652C772.453 102.652 771.979 102.784 771.571 103.048C771.163 103.3 770.839 103.648 770.599 104.092C770.371 104.524 770.257 105.028 770.257 105.604C770.257 106.168 770.371 106.678 770.599 107.134C770.839 107.578 771.163 107.926 771.571 108.178C771.979 108.43 772.453 108.556 772.993 108.556ZM779.948 110.5V96.874H782.306V110.5H779.948ZM784.483 110.5V96.874H786.841V110.5H784.483ZM792.217 110.5V100.708H794.431V102.634L794.251 102.292C794.479 101.704 794.851 101.26 795.367 100.96C795.895 100.648 796.507 100.492 797.203 100.492C797.923 100.492 798.559 100.648 799.111 100.96C799.675 101.272 800.113 101.71 800.425 102.274C800.737 102.826 800.893 103.468 800.893 104.2V110.5H798.535V104.758C798.535 104.326 798.451 103.954 798.283 103.642C798.115 103.33 797.881 103.09 797.581 102.922C797.293 102.742 796.951 102.652 796.555 102.652C796.171 102.652 795.829 102.742 795.529 102.922C795.229 103.09 794.995 103.33 794.827 103.642C794.659 103.954 794.575 104.326 794.575 104.758V110.5H792.217ZM807.675 110.716C806.715 110.716 805.839 110.494 805.047 110.05C804.267 109.606 803.643 109 803.175 108.232C802.719 107.464 802.491 106.588 802.491 105.604C802.491 104.62 802.719 103.744 803.175 102.976C803.643 102.208 804.267 101.602 805.047 101.158C805.827 100.714 806.703 100.492 807.675 100.492C808.635 100.492 809.505 100.714 810.285 101.158C811.065 101.602 811.683 102.208 812.139 102.976C812.607 103.732 812.841 104.608 812.841 105.604C812.841 106.588 812.607 107.464 812.139 108.232C811.671 109 811.047 109.606 810.267 110.05C809.487 110.494 808.623 110.716 807.675 110.716ZM807.675 108.556C808.203 108.556 808.665 108.43 809.061 108.178C809.469 107.926 809.787 107.578 810.015 107.134C810.255 106.678 810.375 106.168 810.375 105.604C810.375 105.028 810.255 104.524 810.015 104.092C809.787 103.648 809.469 103.3 809.061 103.048C808.665 102.784 808.203 102.652 807.675 102.652C807.135 102.652 806.661 102.784 806.253 103.048C805.845 103.3 805.521 103.648 805.281 104.092C805.053 104.524 804.939 105.028 804.939 105.604C804.939 106.168 805.053 106.678 805.281 107.134C805.521 107.578 805.845 107.926 806.253 108.178C806.661 108.43 807.135 108.556 807.675 108.556ZM816.919 110.5L813.553 100.708H816.037L818.503 108.142L817.639 108.124L820.267 100.708H822.355L824.965 108.124L824.101 108.142L826.567 100.708H829.051L825.685 110.5H823.579L820.915 102.742H821.707L819.007 110.5H816.919Z" fill="black"/>
</g>
<defs>
<filter id="filter0_d_6460_100542" x="105.594" y="76.9062" width="390.875" height="54.0938" filterUnits="userSpaceOnUse" color-interpolation-filters="sRGB">
<feFlood flood-opacity="0" result="BackgroundImageFix"/>
<feColorMatrix in="SourceAlpha" type="matrix" values="0 0 0 0 0 0 0 0 0 0 0 0 0 0 0 0 0 0 127 0" result="hardAlpha"/>
<feOffset dy="4"/>
<feGaussianBlur stdDeviation="2"/>
<feComposite in2="hardAlpha" operator="out"/>
<feColorMatrix type="matrix" values="0 0 0 0 0 0 0 0 0 0 0 0 0 0 0 0 0 0 0.25 0"/>
<feBlend mode="normal" in2="BackgroundImageFix" result="effect1_dropShadow_6460_100542"/>
<feBlend mode="normal" in="SourceGraphic" in2="effect1_dropShadow_6460_100542" result="shape"/>
</filter>
<filter id="filter1_d_6460_100542" x="105.594" y="70.9062" width="390.875" height="54.0938" filterUnits="userSpaceOnUse" color-interpolation-filters="sRGB">
<feFlood flood-opacity="0" result="BackgroundImageFix"/>
<feColorMatrix in="SourceAlpha" type="matrix" values="0 0 0 0 0 0 0 0 0 0 0 0 0 0 0 0 0 0 127 0" result="hardAlpha"/>
<feOffset dy="4"/>
<feGaussianBlur stdDeviation="2"/>
<feComposite in2="hardAlpha" operator="out"/>
<feColorMatrix type="matrix" values="0 0 0 0 0 0 0 0 0 0 0 0 0 0 0 0 0 0 0.25 0"/>
<feBlend mode="normal" in2="BackgroundImageFix" result="effect1_dropShadow_6460_100542"/>
<feBlend mode="normal" in="SourceGraphic" in2="effect1_dropShadow_6460_100542" result="shape"/>
</filter>
<radialGradient id="paint0_radial_6460_100542" cx="0" cy="0" r="1" gradientUnits="userSpaceOnUse" gradientTransform="translate(-19.7814 -599.923) scale(486.518 486.86)">
<stop stop-color="white"/>
<stop offset="1"/>
</radialGradient>
<radialGradient id="paint1_radial_6460_100542" cx="0" cy="0" r="1" gradientUnits="userSpaceOnUse" gradientTransform="translate(331.482 -599.923) scale(486.518 486.86)">
<stop stop-color="white"/>
<stop offset="1"/>
</radialGradient>
<radialGradient id="paint2_radial_6460_100542" cx="0" cy="0" r="1" gradientUnits="userSpaceOnUse" gradientTransform="translate(331.482 -599.923) scale(486.517 486.86)">
<stop stop-color="white"/>
<stop offset="1"/>
</radialGradient>
<radialGradient id="paint3_radial_6460_100542" cx="0" cy="0" r="1" gradientUnits="userSpaceOnUse" gradientTransform="translate(331.482 -599.923) scale(486.518 486.86)">
<stop stop-color="white"/>
<stop offset="1"/>
</radialGradient>
<radialGradient id="paint4_radial_6460_100542" cx="0" cy="0" r="1" gradientUnits="userSpaceOnUse" gradientTransform="translate(331.482 -599.923) scale(486.517 486.86)">
<stop stop-color="white"/>
<stop offset="1"/>
</radialGradient>
<radialGradient id="paint5_radial_6460_100542" cx="0" cy="0" r="1" gradientUnits="userSpaceOnUse" gradientTransform="translate(331.482 -599.923) scale(486.517 486.86)">
<stop stop-color="white"/>
<stop offset="1"/>
</radialGradient>
<radialGradient id="paint6_radial_6460_100542" cx="0" cy="0" r="1" gradientUnits="userSpaceOnUse" gradientTransform="translate(331.482 -599.923) scale(486.517 486.86)">
<stop stop-color="white"/>
<stop offset="1"/>
</radialGradient>
<radialGradient id="paint7_radial_6460_100542" cx="0" cy="0" r="1" gradientUnits="userSpaceOnUse" gradientTransform="translate(331.482 -599.923) scale(486.519 486.86)">
<stop stop-color="white"/>
<stop offset="1"/>
</radialGradient>
<radialGradient id="paint8_radial_6460_100542" cx="0" cy="0" r="1" gradientUnits="userSpaceOnUse" gradientTransform="translate(331.483 -599.923) scale(486.516 486.86)">
<stop stop-color="white"/>
<stop offset="1"/>
</radialGradient>
<radialGradient id="paint9_radial_6460_100542" cx="0" cy="0" r="1" gradientUnits="userSpaceOnUse" gradientTransform="translate(1032.89 541.091) scale(627.361 627.8)">
<stop stop-color="white"/>
<stop offset="1"/>
</radialGradient>
<radialGradient id="paint10_radial_6460_100542" cx="0" cy="0" r="1" gradientUnits="userSpaceOnUse" gradientTransform="translate(1032.89 541.091) scale(627.361 627.8)">
<stop stop-color="white"/>
<stop offset="1"/>
</radialGradient>
<radialGradient id="paint11_radial_6460_100542" cx="0" cy="0" r="1" gradientUnits="userSpaceOnUse" gradientTransform="translate(1032.88 541.091) scale(627.36 627.804)">
<stop stop-color="white"/>
<stop offset="1"/>
</radialGradient>
<radialGradient id="paint12_radial_6460_100542" cx="0" cy="0" r="1" gradientUnits="userSpaceOnUse" gradientTransform="translate(1032.89 541.091) scale(627.361 627.8)">
<stop stop-color="white"/>
<stop offset="1"/>
</radialGradient>
<radialGradient id="paint13_radial_6460_100542" cx="0" cy="0" r="1" gradientUnits="userSpaceOnUse" gradientTransform="translate(1032.88 541.091) scale(627.356 627.8)">
<stop stop-color="white"/>
<stop offset="1"/>
</radialGradient>
<radialGradient id="paint14_radial_6460_100542" cx="0" cy="0" r="1" gradientUnits="userSpaceOnUse" gradientTransform="translate(1032.89 541.091) scale(627.365 627.804)">
<stop stop-color="white"/>
<stop offset="1"/>
</radialGradient>
<radialGradient id="paint15_radial_6460_100542" cx="0" cy="0" r="1" gradientUnits="userSpaceOnUse" gradientTransform="translate(-19.7814 -599.923) scale(486.518 486.86)">
<stop stop-color="white"/>
<stop offset="1"/>
</radialGradient>
<radialGradient id="paint16_radial_6460_100542" cx="0" cy="0" r="1" gradientUnits="userSpaceOnUse" gradientTransform="translate(331.482 -599.923) scale(486.518 486.86)">
<stop stop-color="white"/>
<stop offset="1"/>
</radialGradient>
<radialGradient id="paint17_radial_6460_100542" cx="0" cy="0" r="1" gradientUnits="userSpaceOnUse" gradientTransform="translate(331.482 -599.923) scale(486.517 486.86)">
<stop stop-color="white"/>
<stop offset="1"/>
</radialGradient>
<radialGradient id="paint18_radial_6460_100542" cx="0" cy="0" r="1" gradientUnits="userSpaceOnUse" gradientTransform="translate(331.482 -599.923) scale(486.518 486.86)">
<stop stop-color="white"/>
<stop offset="1"/>
</radialGradient>
<radialGradient id="paint19_radial_6460_100542" cx="0" cy="0" r="1" gradientUnits="userSpaceOnUse" gradientTransform="translate(331.482 -599.923) scale(486.517 486.86)">
<stop stop-color="white"/>
<stop offset="1"/>
</radialGradient>
<radialGradient id="paint20_radial_6460_100542" cx="0" cy="0" r="1" gradientUnits="userSpaceOnUse" gradientTransform="translate(331.482 -599.923) scale(486.517 486.86)">
<stop stop-color="white"/>
<stop offset="1"/>
</radialGradient>
<radialGradient id="paint21_radial_6460_100542" cx="0" cy="0" r="1" gradientUnits="userSpaceOnUse" gradientTransform="translate(331.482 -599.923) scale(486.517 486.86)">
<stop stop-color="white"/>
<stop offset="1"/>
</radialGradient>
<radialGradient id="paint22_radial_6460_100542" cx="0" cy="0" r="1" gradientUnits="userSpaceOnUse" gradientTransform="translate(331.482 -599.923) scale(486.519 486.86)">
<stop stop-color="white"/>
<stop offset="1"/>
</radialGradient>
<radialGradient id="paint23_radial_6460_100542" cx="0" cy="0" r="1" gradientUnits="userSpaceOnUse" gradientTransform="translate(331.483 -599.923) scale(486.516 486.86)">
<stop stop-color="white"/>
<stop offset="1"/>
</radialGradient>
<radialGradient id="paint24_radial_6460_100542" cx="0" cy="0" r="1" gradientUnits="userSpaceOnUse" gradientTransform="translate(1032.89 541.095) scale(627.361 627.8)">
<stop stop-color="white"/>
<stop offset="1"/>
</radialGradient>
<radialGradient id="paint25_radial_6460_100542" cx="0" cy="0" r="1" gradientUnits="userSpaceOnUse" gradientTransform="translate(1032.89 541.096) scale(627.365 627.804)">
<stop stop-color="white"/>
<stop offset="1"/>
</radialGradient>
<radialGradient id="paint26_radial_6460_100542" cx="0" cy="0" r="1" gradientUnits="userSpaceOnUse" gradientTransform="translate(1032.88 541.095) scale(627.356 627.8)">
<stop stop-color="white"/>
<stop offset="1"/>
</radialGradient>
<radialGradient id="paint27_radial_6460_100542" cx="0" cy="0" r="1" gradientUnits="userSpaceOnUse" gradientTransform="translate(1032.89 541.095) scale(627.361 627.8)">
<stop stop-color="white"/>
<stop offset="1"/>
</radialGradient>
<radialGradient id="paint28_radial_6460_100542" cx="0" cy="0" r="1" gradientUnits="userSpaceOnUse" gradientTransform="translate(1032.88 541.095) scale(627.356 627.8)">
<stop stop-color="white"/>
<stop offset="1"/>
</radialGradient>
<radialGradient id="paint29_radial_6460_100542" cx="0" cy="0" r="1" gradientUnits="userSpaceOnUse" gradientTransform="translate(1032.89 541.096) scale(627.365 627.804)">
<stop stop-color="white"/>
<stop offset="1"/>
</radialGradient>
<radialGradient id="paint30_radial_6460_100542" cx="0" cy="0" r="1" gradientUnits="userSpaceOnUse" gradientTransform="translate(-19.7814 -599.922) scale(486.518 486.86)">
<stop stop-color="white"/>
<stop offset="1"/>
</radialGradient>
<radialGradient id="paint31_radial_6460_100542" cx="0" cy="0" r="1" gradientUnits="userSpaceOnUse" gradientTransform="translate(331.482 -599.922) scale(486.518 486.86)">
<stop stop-color="white"/>
<stop offset="1"/>
</radialGradient>
<radialGradient id="paint32_radial_6460_100542" cx="0" cy="0" r="1" gradientUnits="userSpaceOnUse" gradientTransform="translate(331.482 -599.922) scale(486.517 486.86)">
<stop stop-color="white"/>
<stop offset="1"/>
</radialGradient>
<radialGradient id="paint33_radial_6460_100542" cx="0" cy="0" r="1" gradientUnits="userSpaceOnUse" gradientTransform="translate(331.482 -599.922) scale(486.518 486.86)">
<stop stop-color="white"/>
<stop offset="1"/>
</radialGradient>
<radialGradient id="paint34_radial_6460_100542" cx="0" cy="0" r="1" gradientUnits="userSpaceOnUse" gradientTransform="translate(331.482 -599.922) scale(486.517 486.86)">
<stop stop-color="white"/>
<stop offset="1"/>
</radialGradient>
<radialGradient id="paint35_radial_6460_100542" cx="0" cy="0" r="1" gradientUnits="userSpaceOnUse" gradientTransform="translate(331.482 -599.922) scale(486.517 486.86)">
<stop stop-color="white"/>
<stop offset="1"/>
</radialGradient>
<radialGradient id="paint36_radial_6460_100542" cx="0" cy="0" r="1" gradientUnits="userSpaceOnUse" gradientTransform="translate(331.482 -599.922) scale(486.517 486.86)">
<stop stop-color="white"/>
<stop offset="1"/>
</radialGradient>
<radialGradient id="paint37_radial_6460_100542" cx="0" cy="0" r="1" gradientUnits="userSpaceOnUse" gradientTransform="translate(331.482 -599.922) scale(486.519 486.86)">
<stop stop-color="white"/>
<stop offset="1"/>
</radialGradient>
<radialGradient id="paint38_radial_6460_100542" cx="0" cy="0" r="1" gradientUnits="userSpaceOnUse" gradientTransform="translate(331.483 -599.922) scale(486.516 486.86)">
<stop stop-color="white"/>
<stop offset="1"/>
</radialGradient>
<radialGradient id="paint39_radial_6460_100542" cx="0" cy="0" r="1" gradientUnits="userSpaceOnUse" gradientTransform="translate(1032.89 541.097) scale(627.365 627.804)">
<stop stop-color="white"/>
<stop offset="1"/>
</radialGradient>
<radialGradient id="paint40_radial_6460_100542" cx="0" cy="0" r="1" gradientUnits="userSpaceOnUse" gradientTransform="translate(1032.89 541.097) scale(627.361 627.8)">
<stop stop-color="white"/>
<stop offset="1"/>
</radialGradient>
<radialGradient id="paint41_radial_6460_100542" cx="0" cy="0" r="1" gradientUnits="userSpaceOnUse" gradientTransform="translate(1032.88 541.097) scale(627.356 627.8)">
<stop stop-color="white"/>
<stop offset="1"/>
</radialGradient>
<radialGradient id="paint42_radial_6460_100542" cx="0" cy="0" r="1" gradientUnits="userSpaceOnUse" gradientTransform="translate(1032.89 541.097) scale(627.365 627.804)">
<stop stop-color="white"/>
<stop offset="1"/>
</radialGradient>
<radialGradient id="paint43_radial_6460_100542" cx="0" cy="0" r="1" gradientUnits="userSpaceOnUse" gradientTransform="translate(1032.88 541.097) scale(627.36 627.804)">
<stop stop-color="white"/>
<stop offset="1"/>
</radialGradient>
<radialGradient id="paint44_radial_6460_100542" cx="0" cy="0" r="1" gradientUnits="userSpaceOnUse" gradientTransform="translate(1032.89 541.097) scale(627.361 627.8)">
<stop stop-color="white"/>
<stop offset="1"/>
</radialGradient>
<radialGradient id="paint45_radial_6460_100542" cx="0" cy="0" r="1" gradientUnits="userSpaceOnUse" gradientTransform="translate(-19.7814 -599.922) scale(486.518 486.86)">
<stop stop-color="white"/>
<stop offset="1"/>
</radialGradient>
<radialGradient id="paint46_radial_6460_100542" cx="0" cy="0" r="1" gradientUnits="userSpaceOnUse" gradientTransform="translate(331.482 -599.922) scale(486.518 486.86)">
<stop stop-color="white"/>
<stop offset="1"/>
</radialGradient>
<radialGradient id="paint47_radial_6460_100542" cx="0" cy="0" r="1" gradientUnits="userSpaceOnUse" gradientTransform="translate(331.482 -599.922) scale(486.517 486.86)">
<stop stop-color="white"/>
<stop offset="1"/>
</radialGradient>
<radialGradient id="paint48_radial_6460_100542" cx="0" cy="0" r="1" gradientUnits="userSpaceOnUse" gradientTransform="translate(331.482 -599.922) scale(486.518 486.86)">
<stop stop-color="white"/>
<stop offset="1"/>
</radialGradient>
<radialGradient id="paint49_radial_6460_100542" cx="0" cy="0" r="1" gradientUnits="userSpaceOnUse" gradientTransform="translate(331.482 -599.922) scale(486.517 486.86)">
<stop stop-color="white"/>
<stop offset="1"/>
</radialGradient>
<radialGradient id="paint50_radial_6460_100542" cx="0" cy="0" r="1" gradientUnits="userSpaceOnUse" gradientTransform="translate(331.482 -599.922) scale(486.517 486.86)">
<stop stop-color="white"/>
<stop offset="1"/>
</radialGradient>
<radialGradient id="paint51_radial_6460_100542" cx="0" cy="0" r="1" gradientUnits="userSpaceOnUse" gradientTransform="translate(331.482 -599.922) scale(486.517 486.86)">
<stop stop-color="white"/>
<stop offset="1"/>
</radialGradient>
<radialGradient id="paint52_radial_6460_100542" cx="0" cy="0" r="1" gradientUnits="userSpaceOnUse" gradientTransform="translate(331.482 -599.922) scale(486.519 486.86)">
<stop stop-color="white"/>
<stop offset="1"/>
</radialGradient>
<radialGradient id="paint53_radial_6460_100542" cx="0" cy="0" r="1" gradientUnits="userSpaceOnUse" gradientTransform="translate(331.483 -599.922) scale(486.516 486.86)">
<stop stop-color="white"/>
<stop offset="1"/>
</radialGradient>
<radialGradient id="paint54_radial_6460_100542" cx="0" cy="0" r="1" gradientUnits="userSpaceOnUse" gradientTransform="translate(1032.89 541.096) scale(627.361 627.8)">
<stop stop-color="white"/>
<stop offset="1"/>
</radialGradient>
<radialGradient id="paint55_radial_6460_100542" cx="0" cy="0" r="1" gradientUnits="userSpaceOnUse" gradientTransform="translate(1032.89 541.096) scale(627.365 627.804)">
<stop stop-color="white"/>
<stop offset="1"/>
</radialGradient>
<radialGradient id="paint56_radial_6460_100542" cx="0" cy="0" r="1" gradientUnits="userSpaceOnUse" gradientTransform="translate(1032.88 541.096) scale(627.356 627.8)">
<stop stop-color="white"/>
<stop offset="1"/>
</radialGradient>
<radialGradient id="paint57_radial_6460_100542" cx="0" cy="0" r="1" gradientUnits="userSpaceOnUse" gradientTransform="translate(1032.89 541.096) scale(627.365 627.804)">
<stop stop-color="white"/>
<stop offset="1"/>
</radialGradient>
<radialGradient id="paint58_radial_6460_100542" cx="0" cy="0" r="1" gradientUnits="userSpaceOnUse" gradientTransform="translate(1032.88 541.096) scale(627.36 627.804)">
<stop stop-color="white"/>
<stop offset="1"/>
</radialGradient>
<radialGradient id="paint59_radial_6460_100542" cx="0" cy="0" r="1" gradientUnits="userSpaceOnUse" gradientTransform="translate(1032.89 541.096) scale(627.361 627.8)">
<stop stop-color="white"/>
<stop offset="1"/>
</radialGradient>
<radialGradient id="paint60_radial_6460_100542" cx="0" cy="0" r="1" gradientUnits="userSpaceOnUse" gradientTransform="translate(1032.89 541.091) scale(627.365 627.804)">
<stop stop-color="white"/>
<stop offset="1"/>
</radialGradient>
<radialGradient id="paint61_radial_6460_100542" cx="0" cy="0" r="1" gradientUnits="userSpaceOnUse" gradientTransform="translate(1032.88 541.091) scale(627.36 627.804)">
<stop stop-color="white"/>
<stop offset="1"/>
</radialGradient>
<radialGradient id="paint62_radial_6460_100542" cx="0" cy="0" r="1" gradientUnits="userSpaceOnUse" gradientTransform="translate(1032.89 541.095) scale(627.361 627.8)">
<stop stop-color="white"/>
<stop offset="1"/>
</radialGradient>
<radialGradient id="paint63_radial_6460_100542" cx="0" cy="0" r="1" gradientUnits="userSpaceOnUse" gradientTransform="translate(1032.88 541.096) scale(627.36 627.804)">
<stop stop-color="white"/>
<stop offset="1"/>
</radialGradient>
<radialGradient id="paint64_radial_6460_100542" cx="0" cy="0" r="1" gradientUnits="userSpaceOnUse" gradientTransform="translate(1032.89 541.097) scale(627.365 627.804)">
<stop stop-color="white"/>
<stop offset="1"/>
</radialGradient>
<radialGradient id="paint65_radial_6460_100542" cx="0" cy="0" r="1" gradientUnits="userSpaceOnUse" gradientTransform="translate(1032.88 541.097) scale(627.36 627.804)">
<stop stop-color="white"/>
<stop offset="1"/>
</radialGradient>
<radialGradient id="paint66_radial_6460_100542" cx="0" cy="0" r="1" gradientUnits="userSpaceOnUse" gradientTransform="translate(1032.89 541.096) scale(627.361 627.8)">
<stop stop-color="white"/>
<stop offset="1"/>
</radialGradient>
<radialGradient id="paint67_radial_6460_100542" cx="0" cy="0" r="1" gradientUnits="userSpaceOnUse" gradientTransform="translate(1032.88 541.096) scale(627.356 627.8)">
<stop stop-color="white"/>
<stop offset="1"/>
</radialGradient>
<radialGradient id="paint68_radial_6460_100542" cx="0" cy="0" r="1" gradientUnits="userSpaceOnUse" gradientTransform="translate(1032.88 541.091) scale(627.36 627.804)">
<stop stop-color="white"/>
<stop offset="1"/>
</radialGradient>
<radialGradient id="paint69_radial_6460_100542" cx="0" cy="0" r="1" gradientUnits="userSpaceOnUse" gradientTransform="translate(1032.88 541.091) scale(627.36 627.804)">
<stop stop-color="white"/>
<stop offset="1"/>
</radialGradient>
<radialGradient id="paint70_radial_6460_100542" cx="0" cy="0" r="1" gradientUnits="userSpaceOnUse" gradientTransform="translate(1032.89 541.091) scale(627.366 627.8)">
<stop stop-color="white"/>
<stop offset="1"/>
</radialGradient>
<radialGradient id="paint71_radial_6460_100542" cx="0" cy="0" r="1" gradientUnits="userSpaceOnUse" gradientTransform="translate(1032.88 541.096) scale(627.36 627.804)">
<stop stop-color="white"/>
<stop offset="1"/>
</radialGradient>
<radialGradient id="paint72_radial_6460_100542" cx="0" cy="0" r="1" gradientUnits="userSpaceOnUse" gradientTransform="translate(1032.88 541.095) scale(627.356 627.8)">
<stop stop-color="white"/>
<stop offset="1"/>
</radialGradient>
<radialGradient id="paint73_radial_6460_100542" cx="0" cy="0" r="1" gradientUnits="userSpaceOnUse" gradientTransform="translate(1032.89 541.095) scale(627.366 627.8)">
<stop stop-color="white"/>
<stop offset="1"/>
</radialGradient>
<radialGradient id="paint74_radial_6460_100542" cx="0" cy="0" r="1" gradientUnits="userSpaceOnUse" gradientTransform="translate(1032.88 541.097) scale(627.36 627.804)">
<stop stop-color="white"/>
<stop offset="1"/>
</radialGradient>
<radialGradient id="paint75_radial_6460_100542" cx="0" cy="0" r="1" gradientUnits="userSpaceOnUse" gradientTransform="translate(1032.88 541.097) scale(627.356 627.8)">
<stop stop-color="white"/>
<stop offset="1"/>
</radialGradient>
<radialGradient id="paint76_radial_6460_100542" cx="0" cy="0" r="1" gradientUnits="userSpaceOnUse" gradientTransform="translate(1032.89 541.097) scale(627.37 627.804)">
<stop stop-color="white"/>
<stop offset="1"/>
</radialGradient>
<radialGradient id="paint77_radial_6460_100542" cx="0" cy="0" r="1" gradientUnits="userSpaceOnUse" gradientTransform="translate(1032.88 541.096) scale(627.356 627.8)">
<stop stop-color="white"/>
<stop offset="1"/>
</radialGradient>
<radialGradient id="paint78_radial_6460_100542" cx="0" cy="0" r="1" gradientUnits="userSpaceOnUse" gradientTransform="translate(1032.88 541.096) scale(627.356 627.8)">
<stop stop-color="white"/>
<stop offset="1"/>
</radialGradient>
<radialGradient id="paint79_radial_6460_100542" cx="0" cy="0" r="1" gradientUnits="userSpaceOnUse" gradientTransform="translate(1032.89 541.096) scale(627.366 627.8)">
<stop stop-color="white"/>
<stop offset="1"/>
</radialGradient>
<radialGradient id="paint80_radial_6460_100542" cx="0" cy="0" r="1" gradientUnits="userSpaceOnUse" gradientTransform="translate(1032.89 541.091) scale(627.366 627.8)">
<stop stop-color="white"/>
<stop offset="1"/>
</radialGradient>
<radialGradient id="paint81_radial_6460_100542" cx="0" cy="0" r="1" gradientUnits="userSpaceOnUse" gradientTransform="translate(1032.89 541.091) scale(627.356 627.8)">
<stop stop-color="white"/>
<stop offset="1"/>
</radialGradient>
<radialGradient id="paint82_radial_6460_100542" cx="0" cy="0" r="1" gradientUnits="userSpaceOnUse" gradientTransform="translate(1032.89 541.095) scale(627.366 627.8)">
<stop stop-color="white"/>
<stop offset="1"/>
</radialGradient>
<radialGradient id="paint83_radial_6460_100542" cx="0" cy="0" r="1" gradientUnits="userSpaceOnUse" gradientTransform="translate(1032.89 541.096) scale(627.671 628.114)">
<stop stop-color="white"/>
<stop offset="1"/>
</radialGradient>
<radialGradient id="paint84_radial_6460_100542" cx="0" cy="0" r="1" gradientUnits="userSpaceOnUse" gradientTransform="translate(1032.89 541.097) scale(627.37 627.804)">
<stop stop-color="white"/>
<stop offset="1"/>
</radialGradient>
<radialGradient id="paint85_radial_6460_100542" cx="0" cy="0" r="1" gradientUnits="userSpaceOnUse" gradientTransform="translate(1032.89 541.097) scale(627.36 627.804)">
<stop stop-color="white"/>
<stop offset="1"/>
</radialGradient>
<radialGradient id="paint86_radial_6460_100542" cx="0" cy="0" r="1" gradientUnits="userSpaceOnUse" gradientTransform="translate(1032.89 541.096) scale(627.366 627.8)">
<stop stop-color="white"/>
<stop offset="1"/>
</radialGradient>
<radialGradient id="paint87_radial_6460_100542" cx="0" cy="0" r="1" gradientUnits="userSpaceOnUse" gradientTransform="translate(1032.89 541.096) scale(627.356 627.8)">
<stop stop-color="white"/>
<stop offset="1"/>
</radialGradient>
<clipPath id="clip0_6460_100542">
<rect width="1080" height="208" rx="10" fill="white"/>
</clipPath>
</defs>
</svg>
