<svg width="840" height="208" viewBox="0 0 840 208" fill="none" xmlns="http://www.w3.org/2000/svg">
<g clip-path="url(#clip0_7850_50474)">
<rect width="840" height="208" rx="10" fill="#172027"/>
<g style="mix-blend-mode:luminosity" opacity="0.68">
<path d="M6.25701 43.1061V40.3896H3.5862V38.9549H6.25701V36.2734H7.69515V38.9549H10.4359V40.3896H7.69515V43.1061H6.25701Z" fill="url(#paint0_radial_7850_50474)"/>
<path d="M61.2602 43.1061V40.3896H58.5894V38.9549H61.2602V36.2734H62.6983V38.9549H65.4391V40.3896H62.6983V43.1061H61.2602Z" fill="url(#paint1_radial_7850_50474)"/>
<path d="M116.259 43.1061V40.3896H113.588V38.9549H116.259V36.2734H117.697V38.9549H120.438V40.3896H117.697V43.1061H116.259Z" fill="url(#paint2_radial_7850_50474)"/>
<path d="M171.258 43.1061V40.3896H168.587V38.9549H171.258V36.2734H172.696V38.9549H175.437V40.3896H172.696V43.1061H171.258Z" fill="url(#paint3_radial_7850_50474)"/>
<path d="M226.261 43.1061V40.3896H223.59V38.9549H226.261V36.2734H227.699V38.9549H230.44V40.3896H227.699V43.1061H226.261Z" fill="url(#paint4_radial_7850_50474)"/>
<path d="M281.26 43.1061V40.3896H278.589V38.9549H281.26V36.2734H282.698V38.9549H285.439V40.3896H282.698V43.1061H281.26Z" fill="url(#paint5_radial_7850_50474)"/>
<path d="M336.263 43.1061V40.3896H333.592V38.9549H336.263V36.2734H337.701V38.9549H340.442V40.3896H337.701V43.1061H336.263Z" fill="url(#paint6_radial_7850_50474)"/>
<path d="M391.262 43.1061V40.3896H388.591V38.9549H391.262V36.2734H392.7V38.9549H395.441V40.3896H392.7V43.1061H391.262Z" fill="url(#paint7_radial_7850_50474)"/>
<path d="M446.265 43.1061V40.3896H443.594V38.9549H446.265V36.2734H447.703V38.9549H450.444V40.3896H447.703V43.1061H446.265Z" fill="url(#paint8_radial_7850_50474)"/>
<path d="M501.264 43.1061V40.3896H498.593V38.9549H501.264V36.2734H502.702V38.9549H505.443V40.3896H502.702V43.1061H501.264Z" fill="url(#paint9_radial_7850_50474)"/>
<path d="M556.263 43.1061V40.3896H553.592V38.9549H556.263V36.2734H557.701V38.9549H560.442V40.3896H557.701V43.1061H556.263Z" fill="url(#paint10_radial_7850_50474)"/>
<path d="M611.266 43.1061V40.3896H608.595V38.9549H611.266V36.2734H612.704V38.9549H615.445V40.3896H612.704V43.1061H611.266Z" fill="url(#paint11_radial_7850_50474)"/>
<path d="M666.265 43.1061V40.3896H663.594V38.9549H666.265V36.2734H667.703V38.9549H670.444V40.3896H667.703V43.1061H666.265Z" fill="url(#paint12_radial_7850_50474)"/>
<path d="M6.25701 98.1452V95.4287H3.5862V93.9939H6.25701V91.3125H7.69515V93.9939H10.4359V95.4287H7.69515V98.1452H6.25701Z" fill="url(#paint13_radial_7850_50474)"/>
<path d="M61.2602 98.1452V95.4287H58.5894V93.9939H61.2602V91.3125H62.6983V93.9939H65.4391V95.4287H62.6983V98.1452H61.2602Z" fill="url(#paint14_radial_7850_50474)"/>
<path d="M116.259 98.1452V95.4287H113.588V93.9939H116.259V91.3125H117.697V93.9939H120.438V95.4287H117.697V98.1452H116.259Z" fill="url(#paint15_radial_7850_50474)"/>
<path d="M171.258 98.1452V95.4287H168.587V93.9939H171.258V91.3125H172.696V93.9939H175.437V95.4287H172.696V98.1452H171.258Z" fill="url(#paint16_radial_7850_50474)"/>
<path d="M226.261 98.1452V95.4287H223.59V93.9939H226.261V91.3125H227.699V93.9939H230.44V95.4287H227.699V98.1452H226.261Z" fill="url(#paint17_radial_7850_50474)"/>
<path d="M281.26 98.1452V95.4287H278.589V93.9939H281.26V91.3125H282.698V93.9939H285.439V95.4287H282.698V98.1452H281.26Z" fill="url(#paint18_radial_7850_50474)"/>
<path d="M336.263 98.1452V95.4287H333.592V93.9939H336.263V91.3125H337.701V93.9939H340.442V95.4287H337.701V98.1452H336.263Z" fill="url(#paint19_radial_7850_50474)"/>
<path d="M391.262 98.1452V95.4287H388.591V93.9939H391.262V91.3125H392.7V93.9939H395.441V95.4287H392.7V98.1452H391.262Z" fill="url(#paint20_radial_7850_50474)"/>
<path d="M446.265 98.1452V95.4287H443.594V93.9939H446.265V91.3125H447.703V93.9939H450.444V95.4287H447.703V98.1452H446.265Z" fill="url(#paint21_radial_7850_50474)"/>
<path d="M501.264 98.1452V95.4287H498.593V93.9939H501.264V91.3125H502.702V93.9939H505.443V95.4287H502.702V98.1452H501.264Z" fill="url(#paint22_radial_7850_50474)"/>
<path d="M556.263 98.1452V95.4287H553.592V93.9939H556.263V91.3125H557.701V93.9939H560.442V95.4287H557.701V98.1452H556.263Z" fill="url(#paint23_radial_7850_50474)"/>
<path d="M611.266 98.1452V95.4287H608.595V93.9939H611.266V91.3125H612.704V93.9939H615.445V95.4287H612.704V98.1452H611.266Z" fill="url(#paint24_radial_7850_50474)"/>
<path d="M666.265 98.1452V95.4287H663.594V93.9939H666.265V91.3125H667.703V93.9939H670.444V95.4287H667.703V98.1452H666.265Z" fill="url(#paint25_radial_7850_50474)"/>
<path d="M6.25701 153.188V150.472H3.5862V149.037H6.25701V146.355H7.69515V149.037H10.4359V150.472H7.69515V153.188H6.25701Z" fill="url(#paint26_radial_7850_50474)"/>
<path d="M61.2602 153.188V150.472H58.5894V149.037H61.2602V146.355H62.6983V149.037H65.4391V150.472H62.6983V153.188H61.2602Z" fill="url(#paint27_radial_7850_50474)"/>
<path d="M116.259 153.188V150.472H113.588V149.037H116.259V146.355H117.697V149.037H120.438V150.472H117.697V153.188H116.259Z" fill="url(#paint28_radial_7850_50474)"/>
<path d="M171.258 153.188V150.472H168.587V149.037H171.258V146.355H172.696V149.037H175.437V150.472H172.696V153.188H171.258Z" fill="url(#paint29_radial_7850_50474)"/>
<path d="M226.261 153.188V150.472H223.59V149.037H226.261V146.355H227.699V149.037H230.44V150.472H227.699V153.188H226.261Z" fill="url(#paint30_radial_7850_50474)"/>
<path d="M281.26 153.188V150.472H278.589V149.037H281.26V146.355H282.698V149.037H285.439V150.472H282.698V153.188H281.26Z" fill="url(#paint31_radial_7850_50474)"/>
<path d="M336.263 153.188V150.472H333.592V149.037H336.263V146.355H337.701V149.037H340.442V150.472H337.701V153.188H336.263Z" fill="url(#paint32_radial_7850_50474)"/>
<path d="M391.262 153.188V150.472H388.591V149.037H391.262V146.355H392.7V149.037H395.441V150.472H392.7V153.188H391.262Z" fill="url(#paint33_radial_7850_50474)"/>
<path d="M446.265 153.188V150.472H443.594V149.037H446.265V146.355H447.703V149.037H450.444V150.472H447.703V153.188H446.265Z" fill="url(#paint34_radial_7850_50474)"/>
<path d="M501.264 153.188V150.472H498.593V149.037H501.264V146.355H502.702V149.037H505.443V150.472H502.702V153.188H501.264Z" fill="url(#paint35_radial_7850_50474)"/>
<path d="M556.263 153.188V150.472H553.592V149.037H556.263V146.355H557.701V149.037H560.442V150.472H557.701V153.188H556.263Z" fill="url(#paint36_radial_7850_50474)"/>
<path d="M611.266 153.188V150.472H608.595V149.037H611.266V146.355H612.704V149.037H615.445V150.472H612.704V153.188H611.266Z" fill="url(#paint37_radial_7850_50474)"/>
<path d="M666.265 153.188V150.472H663.594V149.037H666.265V146.355H667.703V149.037H670.444V150.472H667.703V153.188H666.265Z" fill="url(#paint38_radial_7850_50474)"/>
<path d="M6.25701 208.223V205.507H3.5862V204.072H6.25701V201.391H7.69515V204.072H10.4359V205.507H7.69515V208.223H6.25701Z" fill="url(#paint39_radial_7850_50474)"/>
<path d="M61.2602 208.223V205.507H58.5894V204.072H61.2602V201.391H62.6983V204.072H65.4391V205.507H62.6983V208.223H61.2602Z" fill="url(#paint40_radial_7850_50474)"/>
<path d="M116.259 208.223V205.507H113.588V204.072H116.259V201.391H117.697V204.072H120.438V205.507H117.697V208.223H116.259Z" fill="url(#paint41_radial_7850_50474)"/>
<path d="M171.258 208.223V205.507H168.587V204.072H171.258V201.391H172.696V204.072H175.437V205.507H172.696V208.223H171.258Z" fill="url(#paint42_radial_7850_50474)"/>
<path d="M226.261 208.223V205.507H223.59V204.072H226.261V201.391H227.699V204.072H230.44V205.507H227.699V208.223H226.261Z" fill="url(#paint43_radial_7850_50474)"/>
<path d="M281.26 208.223V205.507H278.589V204.072H281.26V201.391H282.698V204.072H285.439V205.507H282.698V208.223H281.26Z" fill="url(#paint44_radial_7850_50474)"/>
<path d="M336.263 208.223V205.507H333.592V204.072H336.263V201.391H337.701V204.072H340.442V205.507H337.701V208.223H336.263Z" fill="url(#paint45_radial_7850_50474)"/>
<path d="M391.262 208.223V205.507H388.591V204.072H391.262V201.391H392.7V204.072H395.441V205.507H392.7V208.223H391.262Z" fill="url(#paint46_radial_7850_50474)"/>
<path d="M446.265 208.223V205.507H443.594V204.072H446.265V201.391H447.703V204.072H450.444V205.507H447.703V208.223H446.265Z" fill="url(#paint47_radial_7850_50474)"/>
<path d="M501.264 208.223V205.507H498.593V204.072H501.264V201.391H502.702V204.072H505.443V205.507H502.702V208.223H501.264Z" fill="url(#paint48_radial_7850_50474)"/>
<path d="M556.263 208.223V205.507H553.592V204.072H556.263V201.391H557.701V204.072H560.442V205.507H557.701V208.223H556.263Z" fill="url(#paint49_radial_7850_50474)"/>
<path d="M611.266 208.223V205.507H608.595V204.072H611.266V201.391H612.704V204.072H615.445V205.507H612.704V208.223H611.266Z" fill="url(#paint50_radial_7850_50474)"/>
<path d="M666.265 208.223V205.507H663.594V204.072H666.265V201.391H667.703V204.072H670.444V205.507H667.703V208.223H666.265Z" fill="url(#paint51_radial_7850_50474)"/>
<path d="M721.268 43.1061V40.3896H718.597V38.9549H721.268V36.2734H722.706V38.9549H725.447V40.3896H722.706V43.1061H721.268Z" fill="url(#paint52_radial_7850_50474)"/>
<path d="M776.267 43.1061V40.3896H773.596V38.9549H776.267V36.2734H777.705V38.9549H780.446V40.3896H777.705V43.1061H776.267Z" fill="url(#paint53_radial_7850_50474)"/>
<path d="M721.268 98.1452V95.4287H718.597V93.9939H721.268V91.3125H722.706V93.9939H725.447V95.4287H722.706V98.1452H721.268Z" fill="url(#paint54_radial_7850_50474)"/>
<path d="M776.267 98.1452V95.4287H773.596V93.9939H776.267V91.3125H777.705V93.9939H780.446V95.4287H777.705V98.1452H776.267Z" fill="url(#paint55_radial_7850_50474)"/>
<path d="M721.268 153.188V150.472H718.597V149.037H721.268V146.355H722.706V149.037H725.447V150.472H722.706V153.188H721.268Z" fill="url(#paint56_radial_7850_50474)"/>
<path d="M776.267 153.188V150.472H773.596V149.037H776.267V146.355H777.705V149.037H780.446V150.472H777.705V153.188H776.267Z" fill="url(#paint57_radial_7850_50474)"/>
<path d="M721.268 208.223V205.507H718.597V204.072H721.268V201.391H722.706V204.072H725.447V205.507H722.706V208.223H721.268Z" fill="url(#paint58_radial_7850_50474)"/>
<path d="M776.267 208.223V205.507H773.596V204.072H776.267V201.391H777.705V204.072H780.446V205.507H777.705V208.223H776.267Z" fill="url(#paint59_radial_7850_50474)"/>
<path d="M776.267 43.1061V40.3896H773.596V38.9549H776.267V36.2734H777.705V38.9549H780.446V40.3896H777.705V43.1061H776.267Z" fill="url(#paint60_radial_7850_50474)"/>
<path d="M831.265 43.1061V40.3896H828.595V38.9549H831.265V36.2734H832.704V38.9549H835.444V40.3896H832.704V43.1061H831.265Z" fill="url(#paint61_radial_7850_50474)"/>
<path d="M776.267 98.1452V95.4287H773.596V93.9939H776.267V91.3125H777.705V93.9939H780.446V95.4287H777.705V98.1452H776.267Z" fill="url(#paint62_radial_7850_50474)"/>
<path d="M831.265 98.1452V95.4287H828.595V93.9939H831.265V91.3125H832.704V93.9939H835.444V95.4287H832.704V98.1452H831.265Z" fill="url(#paint63_radial_7850_50474)"/>
<path d="M776.267 153.188V150.472H773.596V149.037H776.267V146.355H777.705V149.037H780.446V150.472H777.705V153.188H776.267Z" fill="url(#paint64_radial_7850_50474)"/>
<path d="M831.265 153.188V150.472H828.595V149.037H831.265V146.355H832.704V149.037H835.444V150.472H832.704V153.188H831.265Z" fill="url(#paint65_radial_7850_50474)"/>
<path d="M776.267 208.223V205.507H773.596V204.072H776.267V201.391H777.705V204.072H780.446V205.507H777.705V208.223H776.267Z" fill="url(#paint66_radial_7850_50474)"/>
<path d="M831.265 208.223V205.507H828.595V204.072H831.265V201.391H832.704V204.072H835.444V205.507H832.704V208.223H831.265Z" fill="url(#paint67_radial_7850_50474)"/>
</g>
<path d="M865.905 -6L765.843 94.3084V155.103L731.749 189.281H579.502L559.234 168.962H459.798L418.806 210.06L362 267H717.573L982 1.92348" stroke="#23FF81" stroke-width="0.5" stroke-miterlimit="10"/>
<path d="M664.117 167L652.11 171.712H648.95L660.957 167H664.117Z" fill="#F0F0F0"/>
<path d="M655.266 167L643.259 171.712H640.103L652.11 167H655.266Z" fill="#F0F0F0"/>
<path d="M646.414 167L634.408 171.712H631.252L643.259 167H646.414Z" fill="#F0F0F0"/>
<path d="M637.568 167L625.561 171.712H622.401L634.408 167H637.568Z" fill="#F0F0F0"/>
<path d="M628.716 167L616.709 171.712H613.554L625.561 167H628.716Z" fill="#F0F0F0"/>
<path d="M619.865 167L607.858 171.712H604.702L616.709 167H619.865Z" fill="#F0F0F0"/>
<path d="M611.018 167L599.011 171.712H595.851L607.858 167H611.018Z" fill="#F0F0F0"/>
<path d="M602.167 167L590.16 171.712H587L599.011 167H602.167Z" fill="#F0F0F0"/>
<path d="M735.551 167L723.544 171.712H720.388L732.395 167H735.551Z" fill="#F0F0F0"/>
<path d="M726.704 167L714.697 171.712H711.537L723.544 167H726.704Z" fill="#F0F0F0"/>
<path d="M717.853 167L705.846 171.712H702.69L714.697 167H717.853Z" fill="#F0F0F0"/>
<path d="M709.002 167L696.995 171.712H693.839L705.846 167H709.002Z" fill="#F0F0F0"/>
<path d="M700.155 167L688.148 171.712H684.988L696.995 167H700.155Z" fill="#F0F0F0"/>
<path d="M691.303 167L679.296 171.712H676.141L688.148 167H691.303Z" fill="#F0F0F0"/>
<path d="M682.452 167L670.445 171.712H667.29L679.296 167H682.452Z" fill="#F0F0F0"/>
<path d="M673.605 167L661.598 171.712H658.438L670.445 167H673.605Z" fill="#F0F0F0"/>
<path d="M-7.60298e-07 140L13.3257 153.295H124.203L130.792 146.722H180.283L191.366 157.778V177.444L222 208" stroke="#23FF81" stroke-width="0.5" stroke-miterlimit="10"/>
<g filter="url(#filter0_d_7850_50474)">
<mask id="path-88-outside-1_7850_50474" maskUnits="userSpaceOnUse" x="27" y="57" width="378" height="85" fill="black">
<rect fill="white" x="27" y="57" width="378" height="85"/>
<path d="M66.64 131H47.504C40.336 131 35.3227 129.144 32.464 125.432C29.648 121.72 28.24 116.109 28.24 108.6C28.24 101.091 29.648 95.48 32.464 91.768C35.3227 88.056 40.336 86.2 47.504 86.2H66V95.16H53.2C48.0373 95.16 44.5387 96.056 42.704 97.848C40.912 99.64 40.016 103.224 40.016 108.6C40.016 113.976 40.912 117.56 42.704 119.352C44.5387 121.144 48.0373 122.04 53.2 122.04H66.64V131ZM114.333 86.2V131H102.813V112.312H83.165V131H71.645V86.2H83.165V103.352H102.813V86.2H114.333ZM132.915 131H121.395V86.2H132.915V131ZM177.526 86.2V94.904H154.486C153.376 94.904 152.587 95.1387 152.118 95.608C151.691 96.0347 151.478 96.8027 151.478 97.912V104.12H176.95V112.44H151.478V119.288C151.478 120.397 151.691 121.187 152.118 121.656C152.587 122.083 153.376 122.296 154.486 122.296H177.782V131H146.742C142.219 131 139.958 128.717 139.958 124.152V93.112C139.958 88.504 142.219 86.2 146.742 86.2H177.526ZM169.142 83.64L161.59 77.496C161.035 77.0267 160.459 76.792 159.862 76.792C159.307 76.792 158.731 77.0267 158.134 77.496L150.646 83.64L146.614 78.84L156.214 71.352C157.195 70.6267 158.411 70.264 159.862 70.264C161.398 70.264 162.614 70.6267 163.51 71.352L173.11 78.84L169.142 83.64ZM177.846 58.552L182.838 64.44L171.254 73.72L166.326 67.896L177.846 58.552ZM229.408 86.2V124.344C229.408 126.264 228.768 127.949 227.488 129.4C226.251 130.808 224.16 131.512 221.216 131.512C217.333 131.512 214.496 130.147 212.704 127.416L195.232 101.112C194.763 100.387 194.357 100.024 194.016 100.024C193.504 100.024 193.248 100.451 193.248 101.304V131H183.52V92.728C183.52 90.3813 184.288 88.632 185.824 87.48C187.403 86.2853 189.451 85.688 191.968 85.688C195.765 85.688 198.517 86.968 200.224 89.528L217.824 116.088C217.867 116.131 217.931 116.259 218.016 116.472C218.144 116.643 218.229 116.771 218.272 116.856C218.357 116.899 218.464 116.963 218.592 117.048C218.72 117.133 218.848 117.176 218.976 117.176C219.445 117.176 219.68 116.813 219.68 116.088V86.2H229.408ZM276.739 131H258.179C253.656 131 251.395 128.717 251.395 124.152V93.112C251.395 88.504 253.656 86.2 258.179 86.2H276.163C279.79 86.2 282.84 86.7333 285.315 87.8C287.79 88.8667 289.667 90.4453 290.947 92.536C292.27 94.6267 293.187 96.952 293.699 99.512C294.211 102.029 294.467 105.059 294.467 108.6C294.467 112.099 294.211 115.128 293.699 117.688C293.187 120.248 292.291 122.573 291.011 124.664C289.774 126.755 287.96 128.333 285.571 129.4C283.182 130.467 280.238 131 276.739 131ZM262.915 98.36V118.84C262.915 120.035 263.128 120.867 263.555 121.336C264.024 121.805 264.878 122.04 266.115 122.04H268.739C273.987 122.04 277.614 121.123 279.619 119.288C281.667 117.453 282.691 113.891 282.691 108.6C282.691 103.309 281.667 99.7467 279.619 97.912C277.614 96.0773 273.987 95.16 268.739 95.16H266.115C264.878 95.16 264.024 95.3947 263.555 95.864C263.128 96.3333 262.915 97.1653 262.915 98.36ZM311.728 131H300.208V86.2H311.728V131ZM310.64 140.472H301.296V133.176H310.64V140.472ZM355.89 131H336.754C329.586 131 324.573 129.144 321.714 125.432C318.898 121.72 317.49 116.109 317.49 108.6C317.49 101.091 318.898 95.48 321.714 91.768C324.573 88.056 329.586 86.2 336.754 86.2H355.25V95.16H342.45C337.287 95.16 333.789 96.056 331.954 97.848C330.162 99.64 329.266 103.224 329.266 108.6C329.266 113.976 330.162 117.56 331.954 119.352C333.789 121.144 337.287 122.04 342.45 122.04H355.89V131ZM403.583 86.2V131H392.063V112.312H372.415V131H360.895V86.2H372.415V103.352H392.063V86.2H403.583Z"/>
</mask>
<path d="M66.64 131V132H67.64V131H66.64ZM32.464 125.432L31.6673 126.036L31.6717 126.042L32.464 125.432ZM32.464 91.768L31.6717 91.1578L31.6673 91.1636L32.464 91.768ZM66 86.2H67V85.2H66V86.2ZM66 95.16V96.16H67V95.16H66ZM42.704 97.848L42.0052 97.1326L41.9969 97.1409L42.704 97.848ZM42.704 119.352L41.9968 120.059L42.0053 120.067L42.704 119.352ZM66.64 122.04H67.64V121.04H66.64V122.04ZM66.64 130H47.504V132H66.64V130ZM47.504 130C40.478 130 35.8424 128.18 33.2563 124.822L31.6717 126.042C34.8029 130.108 40.194 132 47.504 132V130ZM33.2607 124.828C30.6356 121.367 29.24 116.014 29.24 108.6H27.24C27.24 116.204 28.6604 122.073 31.6673 126.036L33.2607 124.828ZM29.24 108.6C29.24 101.186 30.6356 95.8328 33.2607 92.3724L31.6673 91.1636C28.6604 95.1272 27.24 100.996 27.24 108.6H29.24ZM33.2563 92.3781C35.8424 89.0201 40.478 87.2 47.504 87.2V85.2C40.194 85.2 34.8029 87.0919 31.6717 91.1578L33.2563 92.3781ZM47.504 87.2H66V85.2H47.504V87.2ZM65 86.2V95.16H67V86.2H65ZM66 94.16H53.2V96.16H66V94.16ZM53.2 94.16C48.0042 94.16 44.1431 95.0445 42.0053 97.1326L43.4027 98.5634C44.9342 97.0675 48.0704 96.16 53.2 96.16V94.16ZM41.9969 97.1409C40.927 98.2108 40.1909 99.7452 39.7179 101.637C39.2433 103.536 39.016 105.864 39.016 108.6H41.016C41.016 105.96 41.2367 103.808 41.6581 102.123C42.0811 100.431 42.689 99.2772 43.4111 98.5551L41.9969 97.1409ZM39.016 108.6C39.016 111.336 39.2433 113.664 39.7179 115.563C40.1909 117.455 40.927 118.989 41.9969 120.059L43.4111 118.645C42.689 117.923 42.0811 116.769 41.6581 115.077C41.2367 113.392 41.016 111.24 41.016 108.6H39.016ZM42.0053 120.067C44.1431 122.156 48.0042 123.04 53.2 123.04V121.04C48.0704 121.04 44.9342 120.132 43.4027 118.637L42.0053 120.067ZM53.2 123.04H66.64V121.04H53.2V123.04ZM65.64 122.04V131H67.64V122.04H65.64ZM114.333 86.2H115.333V85.2H114.333V86.2ZM114.333 131V132H115.333V131H114.333ZM102.813 131H101.813V132H102.813V131ZM102.813 112.312H103.813V111.312H102.813V112.312ZM83.165 112.312V111.312H82.165V112.312H83.165ZM83.165 131V132H84.165V131H83.165ZM71.645 131H70.645V132H71.645V131ZM71.645 86.2V85.2H70.645V86.2H71.645ZM83.165 86.2H84.165V85.2H83.165V86.2ZM83.165 103.352H82.165V104.352H83.165V103.352ZM102.813 103.352V104.352H103.813V103.352H102.813ZM102.813 86.2V85.2H101.813V86.2H102.813ZM113.333 86.2V131H115.333V86.2H113.333ZM114.333 130H102.813V132H114.333V130ZM103.813 131V112.312H101.813V131H103.813ZM102.813 111.312H83.165V113.312H102.813V111.312ZM82.165 112.312V131H84.165V112.312H82.165ZM83.165 130H71.645V132H83.165V130ZM72.645 131V86.2H70.645V131H72.645ZM71.645 87.2H83.165V85.2H71.645V87.2ZM82.165 86.2V103.352H84.165V86.2H82.165ZM83.165 104.352H102.813V102.352H83.165V104.352ZM103.813 103.352V86.2H101.813V103.352H103.813ZM102.813 87.2H114.333V85.2H102.813V87.2ZM132.915 131V132H133.915V131H132.915ZM121.395 131H120.395V132H121.395V131ZM121.395 86.2V85.2H120.395V86.2H121.395ZM132.915 86.2H133.915V85.2H132.915V86.2ZM132.915 130H121.395V132H132.915V130ZM122.395 131V86.2H120.395V131H122.395ZM121.395 87.2H132.915V85.2H121.395V87.2ZM131.915 86.2V131H133.915V86.2H131.915ZM177.525 86.2H178.525V85.2H177.525V86.2ZM177.525 94.904V95.904H178.525V94.904H177.525ZM152.118 95.608L151.41 94.9009L152.118 95.608ZM151.478 104.12H150.478V105.12H151.478V104.12ZM176.949 104.12H177.949V103.12H176.949V104.12ZM176.949 112.44V113.44H177.949V112.44H176.949ZM151.478 112.44V111.44H150.478V112.44H151.478ZM152.118 121.656L151.378 122.329L151.41 122.364L151.445 122.396L152.118 121.656ZM177.781 122.296H178.781V121.296H177.781V122.296ZM177.781 131V132H178.781V131H177.781ZM169.142 83.64L168.51 84.4157L169.28 85.0419L169.912 84.2771L169.142 83.64ZM161.59 77.496L160.944 78.2594L160.951 78.2656L160.958 78.2717L161.59 77.496ZM158.133 77.496L157.516 76.7097L157.507 76.7162L157.499 76.7229L158.133 77.496ZM150.646 83.64L149.88 84.2832L150.516 85.0401L151.28 84.4131L150.646 83.64ZM146.614 78.84L145.998 78.0515L145.181 78.6892L145.848 79.4832L146.614 78.84ZM156.214 71.352L155.619 70.5478L155.609 70.5555L155.598 70.5635L156.214 71.352ZM163.51 71.352L162.88 72.1292L162.887 72.1349L162.894 72.1405L163.51 71.352ZM173.109 78.84L173.88 79.4771L174.536 78.6842L173.725 78.0515L173.109 78.84ZM177.846 58.552L178.608 57.9053L177.975 57.159L177.216 57.7754L177.846 58.552ZM182.837 64.44L183.463 65.2204L184.265 64.5776L183.6 63.7933L182.837 64.44ZM171.254 73.72L170.49 74.3659L171.119 75.1091L171.879 74.5004L171.254 73.72ZM166.326 67.896L165.696 67.1194L164.903 67.7625L165.562 68.5419L166.326 67.896ZM176.525 86.2V94.904H178.525V86.2H176.525ZM177.525 93.904H154.486V95.904H177.525V93.904ZM154.486 93.904C153.279 93.904 152.16 94.1516 151.41 94.9009L152.825 96.3151C153.014 96.1257 153.473 95.904 154.486 95.904V93.904ZM151.41 94.9009C150.69 95.6208 150.478 96.7385 150.478 97.912H152.478C152.478 96.8668 152.691 96.4485 152.825 96.3151L151.41 94.9009ZM150.478 97.912V104.12H152.478V97.912H150.478ZM151.478 105.12H176.949V103.12H151.478V105.12ZM175.949 104.12V112.44H177.949V104.12H175.949ZM176.949 111.44H151.478V113.44H176.949V111.44ZM150.478 112.44V119.288H152.478V112.44H150.478ZM150.478 119.288C150.478 120.476 150.697 121.58 151.378 122.329L152.857 120.983C152.685 120.794 152.478 120.319 152.478 119.288H150.478ZM151.445 122.396C152.194 123.077 153.297 123.296 154.486 123.296V121.296C153.455 121.296 152.98 121.088 152.79 120.916L151.445 122.396ZM154.486 123.296H177.781V121.296H154.486V123.296ZM176.781 122.296V131H178.781V122.296H176.781ZM177.781 130H146.742V132H177.781V130ZM146.742 130C144.637 130 143.241 129.47 142.364 128.584C141.485 127.697 140.957 126.283 140.957 124.152H138.957C138.957 126.586 139.561 128.596 140.943 129.992C142.327 131.389 144.324 132 146.742 132V130ZM140.957 124.152V93.112H138.957V124.152H140.957ZM140.957 93.112C140.957 90.9575 141.486 89.5262 142.367 88.6285C143.245 87.7342 144.639 87.2 146.742 87.2V85.2C144.321 85.2 142.323 85.8178 140.94 87.2275C139.56 88.6338 138.957 90.6585 138.957 93.112H140.957ZM146.742 87.2H177.525V85.2H146.742V87.2ZM169.773 82.8643L162.221 76.7203L160.958 78.2717L168.51 84.4157L169.773 82.8643ZM162.235 76.7326C161.541 76.1449 160.744 75.792 159.861 75.792V77.792C160.174 77.792 160.529 77.9084 160.944 78.2594L162.235 76.7326ZM159.861 75.792C159.013 75.792 158.225 76.1525 157.516 76.7097L158.751 78.2823C159.237 77.9008 159.601 77.792 159.861 77.792V75.792ZM157.499 76.7229L150.011 82.8669L151.28 84.4131L158.768 78.2691L157.499 76.7229ZM151.411 82.9968L147.379 78.1968L145.848 79.4832L149.88 84.2832L151.411 82.9968ZM147.229 79.6285L156.829 72.1405L155.598 70.5635L145.998 78.0515L147.229 79.6285ZM156.808 72.1562C157.586 71.5807 158.583 71.264 159.861 71.264V69.264C158.238 69.264 156.803 69.6726 155.619 70.5478L156.808 72.1562ZM159.861 71.264C161.245 71.264 162.214 71.5897 162.88 72.1292L164.139 70.5748C163.013 69.6636 161.55 69.264 159.861 69.264V71.264ZM162.894 72.1405L172.494 79.6285L173.725 78.0515L164.125 70.5635L162.894 72.1405ZM172.339 78.2029L168.371 83.0029L169.912 84.2771L173.88 79.4771L172.339 78.2029ZM177.083 59.1987L182.075 65.0867L183.6 63.7933L178.608 57.9053L177.083 59.1987ZM182.212 63.6595L170.628 72.9396L171.879 74.5004L183.463 65.2204L182.212 63.6595ZM172.017 73.0741L167.089 67.2501L165.562 68.5419L170.49 74.3659L172.017 73.0741ZM166.955 68.6726L178.475 59.3286L177.216 57.7754L165.696 67.1194L166.955 68.6726ZM229.408 86.2H230.408V85.2H229.408V86.2ZM227.488 129.4L226.738 128.738L226.737 128.74L227.488 129.4ZM212.704 127.416L213.54 126.867L213.537 126.863L212.704 127.416ZM195.232 101.112L194.392 101.655L194.399 101.665L195.232 101.112ZM193.248 131V132H194.248V131H193.248ZM183.52 131H182.52V132H183.52V131ZM185.824 87.48L186.424 88.28L186.427 88.2774L185.824 87.48ZM200.224 89.528L201.058 88.9756L201.056 88.9733L200.224 89.528ZM217.824 116.088L216.99 116.64L217.046 116.724L217.117 116.795L217.824 116.088ZM218.016 116.472L217.088 116.843L217.137 116.966L217.216 117.072L218.016 116.472ZM218.272 116.856L217.378 117.303L217.527 117.601L217.825 117.75L218.272 116.856ZM218.592 117.048L219.147 116.216L219.147 116.216L218.592 117.048ZM219.68 86.2V85.2H218.68V86.2H219.68ZM228.408 86.2V124.344H230.408V86.2H228.408ZM228.408 124.344C228.408 126.018 227.858 127.469 226.738 128.738L228.238 130.062C229.678 128.43 230.408 126.51 230.408 124.344H228.408ZM226.737 128.74C225.775 129.834 224.035 130.512 221.216 130.512V132.512C224.285 132.512 226.726 131.782 228.239 130.06L226.737 128.74ZM221.216 130.512C217.597 130.512 215.11 129.26 213.54 126.867L211.868 127.965C213.882 131.033 217.07 132.512 221.216 132.512V130.512ZM213.537 126.863L196.065 100.559L194.399 101.665L211.871 127.969L213.537 126.863ZM196.072 100.569C195.813 100.17 195.539 99.8157 195.243 99.5508C194.96 99.2977 194.543 99.024 194.016 99.024V101.024C193.831 101.024 193.787 100.932 193.909 101.041C194.018 101.139 194.181 101.329 194.392 101.655L196.072 100.569ZM194.016 99.024C193.421 99.024 192.898 99.3044 192.583 99.8295C192.316 100.273 192.248 100.81 192.248 101.304H194.248C194.248 101.138 194.261 101.019 194.277 100.94C194.293 100.859 194.308 100.842 194.298 100.858C194.283 100.882 194.242 100.935 194.166 100.978C194.09 101.02 194.03 101.024 194.016 101.024V99.024ZM192.248 101.304V131H194.248V101.304H192.248ZM193.248 130H183.52V132H193.248V130ZM184.52 131V92.728H182.52V131H184.52ZM184.52 92.728C184.52 90.6179 185.196 89.2007 186.424 88.28L185.224 86.68C183.38 88.0633 182.52 90.1447 182.52 92.728H184.52ZM186.427 88.2774C187.79 87.2462 189.609 86.688 191.968 86.688V84.688C189.293 84.688 187.015 85.3245 185.221 86.6826L186.427 88.2774ZM191.968 86.688C195.52 86.688 197.915 87.8677 199.392 90.0827L201.056 88.9733C199.119 86.0683 196.011 84.688 191.968 84.688V86.688ZM199.39 90.0804L216.99 116.64L218.658 115.536L201.058 88.9756L199.39 90.0804ZM217.117 116.795C217.098 116.776 217.082 116.759 217.07 116.745C217.058 116.73 217.049 116.718 217.041 116.708C217.026 116.688 217.017 116.674 217.012 116.666C217.009 116.662 217.008 116.659 217.006 116.657C217.005 116.655 217.005 116.654 217.005 116.654C217.005 116.654 217.005 116.655 217.006 116.656C217.007 116.658 217.008 116.66 217.01 116.663C217.016 116.676 217.026 116.697 217.04 116.729C217.053 116.76 217.069 116.798 217.088 116.843L218.944 116.101C218.897 115.982 218.848 115.868 218.798 115.769C218.766 115.704 218.679 115.528 218.531 115.381L217.117 116.795ZM217.216 117.072C217.273 117.148 217.315 117.207 217.344 117.251C217.376 117.298 217.382 117.313 217.378 117.303L219.166 116.409C219.08 116.236 218.947 116.047 218.816 115.872L217.216 117.072ZM217.825 117.75C217.858 117.767 217.926 117.806 218.037 117.88L219.147 116.216C219.002 116.12 218.857 116.03 218.719 115.962L217.825 117.75ZM218.037 117.88C218.296 118.052 218.614 118.176 218.976 118.176V116.176C219.025 116.176 219.068 116.185 219.1 116.195C219.116 116.2 219.127 116.206 219.135 116.21C219.139 116.212 219.142 116.213 219.144 116.214C219.145 116.215 219.146 116.215 219.146 116.216C219.146 116.216 219.146 116.216 219.147 116.216C219.147 116.216 219.147 116.216 219.147 116.216L218.037 117.88ZM218.976 118.176C219.515 118.176 220.024 117.942 220.344 117.447C220.615 117.028 220.68 116.527 220.68 116.088H218.68C218.68 116.219 218.669 116.304 218.658 116.353C218.648 116.403 218.641 116.396 218.664 116.361C218.692 116.319 218.745 116.261 218.826 116.219C218.904 116.179 218.963 116.176 218.976 116.176V118.176ZM220.68 116.088V86.2H218.68V116.088H220.68ZM219.68 87.2H229.408V85.2H219.68V87.2ZM285.315 87.8L284.919 88.7183L285.315 87.8ZM290.947 92.536L290.094 93.0582L290.098 93.0644L290.102 93.0706L290.947 92.536ZM293.699 99.512L292.718 99.7081L292.719 99.7113L293.699 99.512ZM293.699 117.688L292.718 117.492L293.699 117.688ZM291.011 124.664L290.158 124.142L290.154 124.148L290.15 124.155L291.011 124.664ZM263.555 121.336L262.815 122.009L262.831 122.026L262.848 122.043L263.555 121.336ZM279.619 119.288L278.952 118.543L278.944 118.55L279.619 119.288ZM279.619 97.912L278.944 98.6498L278.952 98.6568L279.619 97.912ZM263.555 95.864L262.848 95.1569L262.831 95.1737L262.815 95.1913L263.555 95.864ZM276.739 130H258.179V132H276.739V130ZM258.179 130C256.074 130 254.679 129.47 253.801 128.584C252.922 127.697 252.395 126.283 252.395 124.152H250.395C250.395 126.586 250.998 128.596 252.381 129.992C253.765 131.389 255.761 132 258.179 132V130ZM252.395 124.152V93.112H250.395V124.152H252.395ZM252.395 93.112C252.395 90.9575 252.924 89.5262 253.805 88.6285C254.682 87.7342 256.077 87.2 258.179 87.2V85.2C255.759 85.2 253.761 85.8178 252.377 87.2275C250.997 88.6338 250.395 90.6585 250.395 93.112H252.395ZM258.179 87.2H276.163V85.2H258.179V87.2ZM276.163 87.2C279.698 87.2 282.605 87.7207 284.919 88.7183L285.711 86.8817C283.076 85.7459 279.881 85.2 276.163 85.2V87.2ZM284.919 88.7183C287.224 89.7118 288.933 91.161 290.094 93.0582L291.8 92.0138C290.401 89.7296 288.355 88.0216 285.711 86.8817L284.919 88.7183ZM290.102 93.0706C291.355 95.0521 292.229 97.2616 292.718 99.7081L294.68 99.3159C294.145 96.6424 293.184 94.2012 291.792 92.0014L290.102 93.0706ZM292.719 99.7113C293.214 102.144 293.467 105.102 293.467 108.6H295.467C295.467 105.015 295.208 101.915 294.679 99.3127L292.719 99.7113ZM293.467 108.6C293.467 112.053 293.214 115.014 292.718 117.492L294.68 117.884C295.208 115.242 295.467 112.144 295.467 108.6H293.467ZM292.718 117.492C292.228 119.944 291.373 122.158 290.158 124.142L291.864 125.186C293.209 122.989 294.146 120.552 294.68 117.884L292.718 117.492ZM290.15 124.155C289.027 126.053 287.379 127.498 285.163 128.487L285.979 130.313C288.542 129.169 290.52 127.456 291.872 125.173L290.15 124.155ZM285.163 128.487C282.938 129.48 280.142 130 276.739 130V132C280.333 132 283.426 131.453 285.979 130.313L285.163 128.487ZM261.915 98.36V118.84H263.915V98.36H261.915ZM261.915 118.84C261.915 120.09 262.125 121.25 262.815 122.009L264.295 120.663C264.131 120.483 263.915 119.98 263.915 118.84H261.915ZM262.848 122.043C263.612 122.808 264.818 123.04 266.115 123.04V121.04C264.937 121.04 264.436 120.803 264.262 120.629L262.848 122.043ZM266.115 123.04H268.739V121.04H266.115V123.04ZM268.739 123.04C274.034 123.04 277.996 122.129 280.294 120.026L278.944 118.55C277.232 120.117 273.94 121.04 268.739 121.04V123.04ZM280.286 120.033C282.674 117.894 283.691 113.939 283.691 108.6H281.691C281.691 113.843 280.66 117.013 278.952 118.543L280.286 120.033ZM283.691 108.6C283.691 103.261 282.674 99.3063 280.286 97.1672L278.952 98.6568C280.66 100.187 281.691 103.357 281.691 108.6H283.691ZM280.294 97.1742C277.996 95.0714 274.034 94.16 268.739 94.16V96.16C273.94 96.16 277.232 97.0833 278.944 98.6498L280.294 97.1742ZM268.739 94.16H266.115V96.16H268.739V94.16ZM266.115 94.16C264.818 94.16 263.612 94.3925 262.848 95.1569L264.262 96.5711C264.436 96.3968 264.937 96.16 266.115 96.16V94.16ZM262.815 95.1913C262.125 95.9502 261.915 97.1104 261.915 98.36H263.915C263.915 97.2203 264.131 96.7165 264.295 96.5367L262.815 95.1913ZM311.728 131V132H312.728V131H311.728ZM300.207 131H299.207V132H300.207V131ZM300.207 86.2V85.2H299.207V86.2H300.207ZM311.728 86.2H312.728V85.2H311.728V86.2ZM310.639 140.472V141.472H311.639V140.472H310.639ZM301.296 140.472H300.296V141.472H301.296V140.472ZM301.296 133.176V132.176H300.296V133.176H301.296ZM310.639 133.176H311.639V132.176H310.639V133.176ZM311.728 130H300.207V132H311.728V130ZM301.207 131V86.2H299.207V131H301.207ZM300.207 87.2H311.728V85.2H300.207V87.2ZM310.728 86.2V131H312.728V86.2H310.728ZM310.639 139.472H301.296V141.472H310.639V139.472ZM302.296 140.472V133.176H300.296V140.472H302.296ZM301.296 134.176H310.639V132.176H301.296V134.176ZM309.639 133.176V140.472H311.639V133.176H309.639ZM355.89 131V132H356.89V131H355.89ZM321.714 125.432L320.917 126.036L320.922 126.042L321.714 125.432ZM321.714 91.768L320.922 91.1578L320.917 91.1636L321.714 91.768ZM355.25 86.2H356.25V85.2H355.25V86.2ZM355.25 95.16V96.16H356.25V95.16H355.25ZM331.954 97.848L331.255 97.1326L331.247 97.1409L331.954 97.848ZM331.954 119.352L331.247 120.059L331.255 120.067L331.954 119.352ZM355.89 122.04H356.89V121.04H355.89V122.04ZM355.89 130H336.754V132H355.89V130ZM336.754 130C329.728 130 325.092 128.18 322.506 124.822L320.922 126.042C324.053 130.108 329.444 132 336.754 132V130ZM322.511 124.828C319.886 121.367 318.49 116.014 318.49 108.6H316.49C316.49 116.204 317.91 122.073 320.917 126.036L322.511 124.828ZM318.49 108.6C318.49 101.186 319.886 95.8328 322.511 92.3724L320.917 91.1636C317.91 95.1272 316.49 100.996 316.49 108.6H318.49ZM322.506 92.3781C325.092 89.0201 329.728 87.2 336.754 87.2V85.2C329.444 85.2 324.053 87.0919 320.922 91.1578L322.506 92.3781ZM336.754 87.2H355.25V85.2H336.754V87.2ZM354.25 86.2V95.16H356.25V86.2H354.25ZM355.25 94.16H342.45V96.16H355.25V94.16ZM342.45 94.16C337.254 94.16 333.393 95.0445 331.255 97.1326L332.653 98.5634C334.184 97.0675 337.32 96.16 342.45 96.16V94.16ZM331.247 97.1409C330.177 98.2108 329.441 99.7452 328.968 101.637C328.493 103.536 328.266 105.864 328.266 108.6H330.266C330.266 105.96 330.487 103.808 330.908 102.123C331.331 100.431 331.939 99.2772 332.661 98.5551L331.247 97.1409ZM328.266 108.6C328.266 111.336 328.493 113.664 328.968 115.563C329.441 117.455 330.177 118.989 331.247 120.059L332.661 118.645C331.939 117.923 331.331 116.769 330.908 115.077C330.487 113.392 330.266 111.24 330.266 108.6H328.266ZM331.255 120.067C333.393 122.156 337.254 123.04 342.45 123.04V121.04C337.32 121.04 334.184 120.132 332.653 118.637L331.255 120.067ZM342.45 123.04H355.89V121.04H342.45V123.04ZM354.89 122.04V131H356.89V122.04H354.89ZM403.583 86.2H404.583V85.2H403.583V86.2ZM403.583 131V132H404.583V131H403.583ZM392.063 131H391.063V132H392.063V131ZM392.063 112.312H393.063V111.312H392.063V112.312ZM372.415 112.312V111.312H371.415V112.312H372.415ZM372.415 131V132H373.415V131H372.415ZM360.895 131H359.895V132H360.895V131ZM360.895 86.2V85.2H359.895V86.2H360.895ZM372.415 86.2H373.415V85.2H372.415V86.2ZM372.415 103.352H371.415V104.352H372.415V103.352ZM392.063 103.352V104.352H393.063V103.352H392.063ZM392.063 86.2V85.2H391.063V86.2H392.063ZM402.583 86.2V131H404.583V86.2H402.583ZM403.583 130H392.063V132H403.583V130ZM393.063 131V112.312H391.063V131H393.063ZM392.063 111.312H372.415V113.312H392.063V111.312ZM371.415 112.312V131H373.415V112.312H371.415ZM372.415 130H360.895V132H372.415V130ZM361.895 131V86.2H359.895V131H361.895ZM360.895 87.2H372.415V85.2H360.895V87.2ZM371.415 86.2V103.352H373.415V86.2H371.415ZM372.415 104.352H392.063V102.352H372.415V104.352ZM393.063 103.352V86.2H391.063V103.352H393.063ZM392.063 87.2H403.583V85.2H392.063V87.2Z" fill="#23FF81" mask="url(#path-88-outside-1_7850_50474)"/>
</g>
<g filter="url(#filter1_d_7850_50474)">
<path d="M66.64 128H47.504C40.336 128 35.3227 126.144 32.464 122.432C29.648 118.72 28.24 113.109 28.24 105.6C28.24 98.0907 29.648 92.48 32.464 88.768C35.3227 85.056 40.336 83.2 47.504 83.2H66V92.16H53.2C48.0373 92.16 44.5387 93.056 42.704 94.848C40.912 96.64 40.016 100.224 40.016 105.6C40.016 110.976 40.912 114.56 42.704 116.352C44.5387 118.144 48.0373 119.04 53.2 119.04H66.64V128ZM114.333 83.2V128H102.813V109.312H83.165V128H71.645V83.2H83.165V100.352H102.813V83.2H114.333ZM132.915 128H121.395V83.2H132.915V128ZM177.526 83.2V91.904H154.486C153.376 91.904 152.587 92.1387 152.118 92.608C151.691 93.0347 151.478 93.8027 151.478 94.912V101.12H176.95V109.44H151.478V116.288C151.478 117.397 151.691 118.187 152.118 118.656C152.587 119.083 153.376 119.296 154.486 119.296H177.782V128H146.742C142.219 128 139.958 125.717 139.958 121.152V90.112C139.958 85.504 142.219 83.2 146.742 83.2H177.526ZM169.142 80.64L161.59 74.496C161.035 74.0267 160.459 73.792 159.862 73.792C159.307 73.792 158.731 74.0267 158.134 74.496L150.646 80.64L146.614 75.84L156.214 68.352C157.195 67.6267 158.411 67.264 159.862 67.264C161.398 67.264 162.614 67.6267 163.51 68.352L173.11 75.84L169.142 80.64ZM177.846 55.552L182.838 61.44L171.254 70.72L166.326 64.896L177.846 55.552ZM229.408 83.2V121.344C229.408 123.264 228.768 124.949 227.488 126.4C226.251 127.808 224.16 128.512 221.216 128.512C217.333 128.512 214.496 127.147 212.704 124.416L195.232 98.112C194.763 97.3867 194.357 97.024 194.016 97.024C193.504 97.024 193.248 97.4507 193.248 98.304V128H183.52V89.728C183.52 87.3813 184.288 85.632 185.824 84.48C187.403 83.2853 189.451 82.688 191.968 82.688C195.765 82.688 198.517 83.968 200.224 86.528L217.824 113.088C217.867 113.131 217.931 113.259 218.016 113.472C218.144 113.643 218.229 113.771 218.272 113.856C218.357 113.899 218.464 113.963 218.592 114.048C218.72 114.133 218.848 114.176 218.976 114.176C219.445 114.176 219.68 113.813 219.68 113.088V83.2H229.408ZM276.739 128H258.179C253.656 128 251.395 125.717 251.395 121.152V90.112C251.395 85.504 253.656 83.2 258.179 83.2H276.163C279.79 83.2 282.84 83.7333 285.315 84.8C287.79 85.8667 289.667 87.4453 290.947 89.536C292.27 91.6267 293.187 93.952 293.699 96.512C294.211 99.0293 294.467 102.059 294.467 105.6C294.467 109.099 294.211 112.128 293.699 114.688C293.187 117.248 292.291 119.573 291.011 121.664C289.774 123.755 287.96 125.333 285.571 126.4C283.182 127.467 280.238 128 276.739 128ZM262.915 95.36V115.84C262.915 117.035 263.128 117.867 263.555 118.336C264.024 118.805 264.878 119.04 266.115 119.04H268.739C273.987 119.04 277.614 118.123 279.619 116.288C281.667 114.453 282.691 110.891 282.691 105.6C282.691 100.309 281.667 96.7467 279.619 94.912C277.614 93.0773 273.987 92.16 268.739 92.16H266.115C264.878 92.16 264.024 92.3947 263.555 92.864C263.128 93.3333 262.915 94.1653 262.915 95.36ZM311.728 128H300.208V83.2H311.728V128ZM310.64 137.472H301.296V130.176H310.64V137.472ZM355.89 128H336.754C329.586 128 324.573 126.144 321.714 122.432C318.898 118.72 317.49 113.109 317.49 105.6C317.49 98.0907 318.898 92.48 321.714 88.768C324.573 85.056 329.586 83.2 336.754 83.2H355.25V92.16H342.45C337.287 92.16 333.789 93.056 331.954 94.848C330.162 96.64 329.266 100.224 329.266 105.6C329.266 110.976 330.162 114.56 331.954 116.352C333.789 118.144 337.287 119.04 342.45 119.04H355.89V128ZM403.583 83.2V128H392.063V109.312H372.415V128H360.895V83.2H372.415V100.352H392.063V83.2H403.583Z" fill="#23FF81"/>
</g>
<path d="M38.32 70H33.28V54.32H26V50.4H45.6V54.32H38.32V70ZM47.3283 70V50.4H51.6963V55.16H56.0363C57.8843 55.16 59.3403 55.5987 60.4043 56.476C61.4683 57.3533 62.0003 58.6973 62.0003 60.508V70H57.6323V61.628C57.6323 60.4893 57.3897 59.668 56.9043 59.164C56.4377 58.6413 55.6537 58.38 54.5523 58.38H51.6963V70H47.3283ZM64.9795 55.16H74.1355C75.5728 55.16 76.6928 55.5893 77.4955 56.448C78.3168 57.3067 78.7275 58.4453 78.7275 59.864V67.2C78.7275 69.0667 77.7942 70 75.9275 70H67.6115C66.3048 70 65.3622 69.6267 64.7835 68.88C64.2235 68.1147 63.9435 66.9387 63.9435 65.352C63.9435 62.272 65.1662 60.732 67.6115 60.732H74.3595V60.088C74.3595 58.8933 73.7342 58.296 72.4835 58.296H64.9795V55.16ZM74.3595 63.756H69.6835C68.8062 63.756 68.3675 64.2973 68.3675 65.38C68.3675 66.444 68.7968 66.976 69.6555 66.976H73.3795C73.7342 66.976 73.9862 66.9013 74.1355 66.752C74.2848 66.6027 74.3595 66.3507 74.3595 65.996V63.756ZM81.0705 70V57.96C81.0705 56.0933 82.0039 55.16 83.8705 55.16H96.9745C98.8039 55.16 100.232 55.5987 101.259 56.476C102.285 57.3347 102.799 58.6787 102.799 60.508V70H98.4305V61.628C98.4305 60.4893 98.1972 59.668 97.7305 59.164C97.2639 58.6413 96.4799 58.38 95.3785 58.38H94.1185V70H89.7505V58.38H86.4185C86.0639 58.38 85.8119 58.4547 85.6625 58.604C85.5132 58.7533 85.4385 59.0053 85.4385 59.36V70H81.0705ZM117.38 55.16H123.4C125.266 55.16 126.2 56.0933 126.2 57.96V68.74C126.2 70.9053 125.686 72.4827 124.66 73.472C123.633 74.4613 122 74.956 119.76 74.956H112.312V71.876H119.004C120.646 71.876 121.589 71.2507 121.832 70H117.38C115.121 70 113.534 69.3747 112.62 68.124C111.724 66.8547 111.276 65.0067 111.276 62.58C111.276 60.1533 111.724 58.3147 112.62 57.064C113.534 55.7947 115.121 55.16 117.38 55.16ZM121.832 66.78V59.5C121.832 59.0707 121.748 58.7813 121.58 58.632C121.412 58.464 121.122 58.38 120.712 58.38H118.668C118.033 58.38 117.51 58.4827 117.1 58.688C116.708 58.8933 116.418 59.2107 116.232 59.64C116.045 60.0693 115.914 60.508 115.84 60.956C115.784 61.3853 115.756 61.9267 115.756 62.58C115.756 63.0653 115.774 63.4853 115.812 63.84C115.849 64.1947 115.924 64.568 116.036 64.96C116.148 65.352 116.297 65.6787 116.484 65.94C116.689 66.1827 116.969 66.388 117.324 66.556C117.697 66.7053 118.126 66.78 118.612 66.78H121.832ZM128.539 70V55.16H132.907V70H128.539ZM132.907 53.592H128.539V50.4H132.907V53.592ZM135.882 55.16H145.038C146.475 55.16 147.595 55.5893 148.398 56.448C149.219 57.3067 149.63 58.4453 149.63 59.864V67.2C149.63 69.0667 148.697 70 146.83 70H138.514C137.207 70 136.265 69.6267 135.686 68.88C135.126 68.1147 134.846 66.9387 134.846 65.352C134.846 62.272 136.069 60.732 138.514 60.732H145.262V60.088C145.262 58.8933 144.637 58.296 143.386 58.296H135.882V55.16ZM145.262 63.756H140.586C139.709 63.756 139.27 64.2973 139.27 65.38C139.27 66.444 139.699 66.976 140.558 66.976H144.282C144.637 66.976 144.889 66.9013 145.038 66.752C145.187 66.6027 145.262 66.3507 145.262 65.996V63.756Z" fill="white"/>
<path d="M196.256 149.16L200.036 158.96C200.185 159.315 200.316 159.492 200.428 159.492C200.521 159.492 200.643 159.315 200.792 158.96L204.572 149.16H209.108L203.144 162.852C202.901 163.412 202.556 163.776 202.108 163.944C201.66 164.093 201.1 164.168 200.428 164.168C199.999 164.168 199.644 164.149 199.364 164.112C199.084 164.075 198.776 163.953 198.44 163.748C198.104 163.543 197.852 163.244 197.684 162.852L191.72 149.16H196.256ZM210.335 149.16H219.491C220.928 149.16 222.048 149.589 222.851 150.448C223.672 151.307 224.083 152.445 224.083 153.864V161.2C224.083 163.067 223.15 164 221.283 164H212.967C211.66 164 210.718 163.627 210.139 162.88C209.579 162.115 209.299 160.939 209.299 159.352C209.299 156.272 210.522 154.732 212.967 154.732H219.715V154.088C219.715 152.893 219.09 152.296 217.839 152.296H210.335V149.16ZM219.715 157.756H215.039C214.162 157.756 213.723 158.297 213.723 159.38C213.723 160.444 214.152 160.976 215.011 160.976H218.735C219.09 160.976 219.342 160.901 219.491 160.752C219.64 160.603 219.715 160.351 219.715 159.996V157.756ZM215.151 141.544L220.107 145.632L218.063 148.18L213.107 144.12L215.151 141.544ZM232.961 164V144.4H237.329V164H232.961ZM240.304 149.16H249.46C250.897 149.16 252.017 149.589 252.82 150.448C253.641 151.307 254.052 152.445 254.052 153.864V161.2C254.052 163.067 253.118 164 251.252 164H242.936C241.629 164 240.686 163.627 240.108 162.88C239.548 162.115 239.268 160.939 239.268 159.352C239.268 156.272 240.49 154.732 242.936 154.732H249.684V154.088C249.684 152.893 249.058 152.296 247.808 152.296H240.304V149.16ZM249.684 157.756H245.008C244.13 157.756 243.692 158.297 243.692 159.38C243.692 160.444 244.121 160.976 244.98 160.976H248.704C249.058 160.976 249.31 160.901 249.46 160.752C249.609 160.603 249.684 160.351 249.684 159.996V157.756ZM245.12 141.544L250.076 145.632L248.032 148.18L243.076 144.12L245.12 141.544ZM256.395 164V151.96C256.395 150.093 257.328 149.16 259.195 149.16H272.299C274.128 149.16 275.556 149.599 276.583 150.476C277.609 151.335 278.123 152.679 278.123 154.508V164H273.755V155.628C273.755 154.489 273.521 153.668 273.055 153.164C272.588 152.641 271.804 152.38 270.703 152.38H269.443V164H265.075V152.38H261.743C261.388 152.38 261.136 152.455 260.987 152.604C260.837 152.753 260.763 153.005 260.763 153.36V164H256.395ZM287.02 164V151.96C287.02 150.093 287.953 149.16 289.82 149.16H295.868C297.697 149.16 299.125 149.599 300.152 150.476C301.178 151.335 301.692 152.679 301.692 154.508V164H297.324V155.628C297.324 154.489 297.081 153.668 296.596 153.164C296.129 152.641 295.345 152.38 294.244 152.38H292.368C292.013 152.38 291.761 152.455 291.612 152.604C291.462 152.753 291.388 153.005 291.388 153.36V164H287.02ZM304.055 164V144.4H308.423V149.16H312.763C314.611 149.16 316.067 149.599 317.131 150.476C318.195 151.353 318.727 152.697 318.727 154.508V164H314.359V155.628C314.359 154.489 314.116 153.668 313.631 153.164C313.164 152.641 312.38 152.38 311.279 152.38H308.423V164H304.055ZM321.09 164V149.16H325.458V164H321.09ZM325.458 147.592H321.09V144.4H325.458V147.592ZM337.001 168.144H332.913V164.952H337.001V168.144ZM342.013 164H333.053C330.757 164 329.235 163.468 328.489 162.404C327.761 161.34 327.397 159.38 327.397 156.524C327.397 154.919 327.509 153.64 327.733 152.688C327.957 151.736 328.377 150.98 328.993 150.42C329.609 149.841 330.365 149.459 331.261 149.272C332.175 149.085 333.407 148.992 334.957 148.992C336.301 148.992 337.393 149.067 338.233 149.216C339.073 149.347 339.838 149.617 340.529 150.028C341.238 150.439 341.742 151.045 342.041 151.848C342.358 152.651 342.517 153.687 342.517 154.956C342.517 157.009 341.742 158.036 340.193 158.036H331.821C331.821 159.007 332.026 159.725 332.437 160.192C332.866 160.64 333.65 160.864 334.789 160.864H342.013V164ZM331.821 155.012H337.253C337.794 155.012 338.065 154.713 338.065 154.116C338.065 153.425 337.747 152.921 337.113 152.604C336.497 152.287 335.778 152.128 334.957 152.128C333.874 152.128 333.081 152.343 332.577 152.772C332.073 153.201 331.821 153.948 331.821 155.012ZM339.017 148.18L335.713 145.492C335.433 145.287 335.181 145.184 334.957 145.184C334.751 145.184 334.499 145.287 334.201 145.492L330.925 148.18L329.413 146.08L333.557 142.804C333.967 142.487 334.425 142.328 334.929 142.328C335.433 142.328 335.89 142.487 336.301 142.804L340.501 146.08L339.017 148.18ZM344.442 164V151.96C344.442 150.093 345.375 149.16 347.242 149.16H360.346C362.175 149.16 363.603 149.599 364.63 150.476C365.656 151.335 366.17 152.679 366.17 154.508V164H361.802V155.628C361.802 154.489 361.568 153.668 361.102 153.164C360.635 152.641 359.851 152.38 358.75 152.38H357.49V164H353.122V152.38H349.79C349.435 152.38 349.183 152.455 349.034 152.604C348.884 152.753 348.81 153.005 348.81 153.36V164H344.442ZM378.147 149.16L381.927 158.96C382.076 159.315 382.207 159.492 382.319 159.492C382.412 159.492 382.533 159.315 382.683 158.96L386.463 149.16H390.999L385.035 162.852C384.792 163.412 384.447 163.776 383.999 163.944C383.551 164.093 382.991 164.168 382.319 164.168C381.889 164.168 381.535 164.149 381.255 164.112C380.975 164.075 380.667 163.953 380.331 163.748C379.995 163.543 379.743 163.244 379.575 162.852L373.611 149.16H378.147ZM406.779 149.16V161.2C406.779 163.067 405.846 164 403.979 164H397.707C395.878 164 394.45 163.571 393.423 162.712C392.396 161.853 391.883 160.509 391.883 158.68V149.16H396.251V157.56C396.251 158.699 396.494 159.529 396.979 160.052C397.464 160.556 398.258 160.808 399.359 160.808H401.403C401.758 160.808 402.01 160.733 402.159 160.584C402.308 160.435 402.383 160.183 402.383 159.828V149.16H406.779ZM401.375 168.144H397.287V164.952H401.375V168.144Z" fill="white"/>
<rect x="540" y="80" width="253" height="48" rx="20" fill="#23FF81"/>
<path d="M607.672 110.5V99.25H604.198V97.09H613.558V99.25H610.138V110.5H607.672ZM614.854 110.5V96.874H617.212V102.634L616.888 102.292C617.116 101.704 617.488 101.26 618.004 100.96C618.532 100.648 619.144 100.492 619.84 100.492C620.56 100.492 621.196 100.648 621.748 100.96C622.312 101.272 622.75 101.71 623.062 102.274C623.374 102.826 623.53 103.468 623.53 104.2V110.5H621.172V104.758C621.172 104.326 621.088 103.954 620.92 103.642C620.752 103.33 620.518 103.09 620.218 102.922C619.93 102.742 619.588 102.652 619.192 102.652C618.808 102.652 618.466 102.742 618.166 102.922C617.866 103.09 617.632 103.33 617.464 103.642C617.296 103.954 617.212 104.326 617.212 104.758V110.5H614.854ZM628.494 110.716C627.81 110.716 627.216 110.602 626.712 110.374C626.208 110.146 625.818 109.822 625.542 109.402C625.266 108.97 625.128 108.472 625.128 107.908C625.128 107.368 625.248 106.888 625.488 106.468C625.728 106.036 626.1 105.676 626.604 105.388C627.108 105.1 627.744 104.896 628.512 104.776L631.716 104.254V106.054L628.962 106.522C628.494 106.606 628.146 106.756 627.918 106.972C627.69 107.188 627.576 107.47 627.576 107.818C627.576 108.154 627.702 108.424 627.954 108.628C628.218 108.82 628.542 108.916 628.926 108.916C629.418 108.916 629.85 108.814 630.222 108.61C630.606 108.394 630.9 108.1 631.104 107.728C631.32 107.356 631.428 106.948 631.428 106.504V103.984C631.428 103.564 631.26 103.216 630.924 102.94C630.6 102.652 630.168 102.508 629.628 102.508C629.124 102.508 628.674 102.646 628.278 102.922C627.894 103.186 627.612 103.54 627.432 103.984L625.506 103.048C625.698 102.532 625.998 102.088 626.406 101.716C626.826 101.332 627.318 101.032 627.882 100.816C628.446 100.6 629.058 100.492 629.718 100.492C630.522 100.492 631.23 100.642 631.842 100.942C632.454 101.23 632.928 101.638 633.264 102.166C633.612 102.682 633.786 103.288 633.786 103.984V110.5H631.554V108.826L632.058 108.79C631.806 109.21 631.506 109.564 631.158 109.852C630.81 110.128 630.414 110.344 629.97 110.5C629.526 110.644 629.034 110.716 628.494 110.716ZM635.965 110.5V100.708H638.179V102.976L637.927 102.598C638.107 101.89 638.467 101.362 639.007 101.014C639.547 100.666 640.183 100.492 640.915 100.492C641.719 100.492 642.427 100.702 643.039 101.122C643.651 101.542 644.047 102.094 644.227 102.778L643.561 102.832C643.861 102.052 644.311 101.47 644.911 101.086C645.511 100.69 646.201 100.492 646.981 100.492C647.677 100.492 648.295 100.648 648.835 100.96C649.387 101.272 649.819 101.71 650.131 102.274C650.443 102.826 650.599 103.468 650.599 104.2V110.5H648.241V104.758C648.241 104.326 648.163 103.954 648.007 103.642C647.851 103.33 647.635 103.09 647.359 102.922C647.083 102.742 646.747 102.652 646.351 102.652C645.979 102.652 645.649 102.742 645.361 102.922C645.073 103.09 644.851 103.33 644.695 103.642C644.539 103.954 644.461 104.326 644.461 104.758V110.5H642.103V104.758C642.103 104.326 642.025 103.954 641.869 103.642C641.713 103.33 641.491 103.09 641.203 102.922C640.927 102.742 640.597 102.652 640.213 102.652C639.841 102.652 639.511 102.742 639.223 102.922C638.935 103.09 638.713 103.33 638.557 103.642C638.401 103.954 638.323 104.326 638.323 104.758V110.5H635.965ZM660.545 114.46C659.813 114.46 659.135 114.34 658.511 114.1C657.887 113.86 657.347 113.524 656.891 113.092C656.447 112.672 656.123 112.174 655.919 111.598L658.115 110.77C658.259 111.226 658.541 111.592 658.961 111.868C659.393 112.156 659.921 112.3 660.545 112.3C661.025 112.3 661.445 112.21 661.805 112.03C662.177 111.85 662.465 111.586 662.669 111.238C662.873 110.902 662.975 110.494 662.975 110.014V107.782L663.425 108.322C663.089 108.91 662.639 109.354 662.075 109.654C661.511 109.954 660.869 110.104 660.149 110.104C659.237 110.104 658.421 109.894 657.701 109.474C656.981 109.054 656.417 108.478 656.009 107.746C655.601 107.014 655.397 106.192 655.397 105.28C655.397 104.356 655.601 103.534 656.009 102.814C656.417 102.094 656.975 101.53 657.683 101.122C658.391 100.702 659.195 100.492 660.095 100.492C660.827 100.492 661.469 100.648 662.021 100.96C662.585 101.26 663.053 101.698 663.425 102.274L663.101 102.868V100.708H665.333V110.014C665.333 110.866 665.123 111.628 664.703 112.3C664.295 112.972 663.731 113.5 663.011 113.884C662.303 114.268 661.481 114.46 660.545 114.46ZM660.437 107.926C660.941 107.926 661.379 107.818 661.751 107.602C662.135 107.374 662.435 107.062 662.651 106.666C662.867 106.27 662.975 105.814 662.975 105.298C662.975 104.794 662.861 104.344 662.633 103.948C662.417 103.54 662.117 103.222 661.733 102.994C661.361 102.766 660.929 102.652 660.437 102.652C659.945 102.652 659.501 102.766 659.105 102.994C658.709 103.222 658.397 103.54 658.169 103.948C657.953 104.344 657.845 104.794 657.845 105.298C657.845 105.802 657.953 106.252 658.169 106.648C658.397 107.044 658.703 107.356 659.087 107.584C659.483 107.812 659.933 107.926 660.437 107.926ZM667.536 110.5V100.708H669.894V110.5H667.536ZM667.536 99.61V97.09H669.894V99.61H667.536ZM675.041 110.716C674.357 110.716 673.763 110.602 673.259 110.374C672.755 110.146 672.365 109.822 672.089 109.402C671.813 108.97 671.675 108.472 671.675 107.908C671.675 107.368 671.795 106.888 672.035 106.468C672.275 106.036 672.647 105.676 673.151 105.388C673.655 105.1 674.291 104.896 675.059 104.776L678.263 104.254V106.054L675.509 106.522C675.041 106.606 674.693 106.756 674.465 106.972C674.237 107.188 674.123 107.47 674.123 107.818C674.123 108.154 674.249 108.424 674.501 108.628C674.765 108.82 675.089 108.916 675.473 108.916C675.965 108.916 676.397 108.814 676.769 108.61C677.153 108.394 677.447 108.1 677.651 107.728C677.867 107.356 677.975 106.948 677.975 106.504V103.984C677.975 103.564 677.807 103.216 677.471 102.94C677.147 102.652 676.715 102.508 676.175 102.508C675.671 102.508 675.221 102.646 674.825 102.922C674.441 103.186 674.159 103.54 673.979 103.984L672.053 103.048C672.245 102.532 672.545 102.088 672.953 101.716C673.373 101.332 673.865 101.032 674.429 100.816C674.993 100.6 675.605 100.492 676.265 100.492C677.069 100.492 677.777 100.642 678.389 100.942C679.001 101.23 679.475 101.638 679.811 102.166C680.159 102.682 680.333 103.288 680.333 103.984V110.5H678.101V108.826L678.605 108.79C678.353 109.21 678.053 109.564 677.705 109.852C677.357 110.128 676.961 110.344 676.517 110.5C676.073 110.644 675.581 110.716 675.041 110.716ZM685.711 110.5V100.708H687.925V102.634L687.745 102.292C687.973 101.704 688.345 101.26 688.861 100.96C689.389 100.648 690.001 100.492 690.697 100.492C691.417 100.492 692.053 100.648 692.605 100.96C693.169 101.272 693.607 101.71 693.919 102.274C694.231 102.826 694.387 103.468 694.387 104.2V110.5H692.029V104.758C692.029 104.326 691.945 103.954 691.777 103.642C691.609 103.33 691.375 103.09 691.075 102.922C690.787 102.742 690.445 102.652 690.049 102.652C689.665 102.652 689.323 102.742 689.023 102.922C688.723 103.09 688.489 103.33 688.321 103.642C688.153 103.954 688.069 104.326 688.069 104.758V110.5H685.711ZM701.133 114.46C700.401 114.46 699.723 114.34 699.099 114.1C698.475 113.86 697.935 113.524 697.479 113.092C697.035 112.672 696.711 112.174 696.507 111.598L698.703 110.77C698.847 111.226 699.129 111.592 699.549 111.868C699.981 112.156 700.509 112.3 701.133 112.3C701.613 112.3 702.033 112.21 702.393 112.03C702.765 111.85 703.053 111.586 703.257 111.238C703.461 110.902 703.563 110.494 703.563 110.014V107.782L704.013 108.322C703.677 108.91 703.227 109.354 702.663 109.654C702.099 109.954 701.457 110.104 700.737 110.104C699.825 110.104 699.009 109.894 698.289 109.474C697.569 109.054 697.005 108.478 696.597 107.746C696.189 107.014 695.985 106.192 695.985 105.28C695.985 104.356 696.189 103.534 696.597 102.814C697.005 102.094 697.563 101.53 698.271 101.122C698.979 100.702 699.783 100.492 700.683 100.492C701.415 100.492 702.057 100.648 702.609 100.96C703.173 101.26 703.641 101.698 704.013 102.274L703.689 102.868V100.708H705.921V110.014C705.921 110.866 705.711 111.628 705.291 112.3C704.883 112.972 704.319 113.5 703.599 113.884C702.891 114.268 702.069 114.46 701.133 114.46ZM701.025 107.926C701.529 107.926 701.967 107.818 702.339 107.602C702.723 107.374 703.023 107.062 703.239 106.666C703.455 106.27 703.563 105.814 703.563 105.298C703.563 104.794 703.449 104.344 703.221 103.948C703.005 103.54 702.705 103.222 702.321 102.994C701.949 102.766 701.517 102.652 701.025 102.652C700.533 102.652 700.089 102.766 699.693 102.994C699.297 103.222 698.985 103.54 698.757 103.948C698.541 104.344 698.433 104.794 698.433 105.298C698.433 105.802 698.541 106.252 698.757 106.648C698.985 107.044 699.291 107.356 699.675 107.584C700.071 107.812 700.521 107.926 701.025 107.926ZM711.093 110.716C710.409 110.716 709.815 110.602 709.311 110.374C708.807 110.146 708.417 109.822 708.141 109.402C707.865 108.97 707.727 108.472 707.727 107.908C707.727 107.368 707.847 106.888 708.087 106.468C708.327 106.036 708.699 105.676 709.203 105.388C709.707 105.1 710.343 104.896 711.111 104.776L714.315 104.254V106.054L711.561 106.522C711.093 106.606 710.745 106.756 710.517 106.972C710.289 107.188 710.175 107.47 710.175 107.818C710.175 108.154 710.301 108.424 710.553 108.628C710.817 108.82 711.141 108.916 711.525 108.916C712.017 108.916 712.449 108.814 712.821 108.61C713.205 108.394 713.499 108.1 713.703 107.728C713.919 107.356 714.027 106.948 714.027 106.504V103.984C714.027 103.564 713.859 103.216 713.523 102.94C713.199 102.652 712.767 102.508 712.227 102.508C711.723 102.508 711.273 102.646 710.877 102.922C710.493 103.186 710.211 103.54 710.031 103.984L708.105 103.048C708.297 102.532 708.597 102.088 709.005 101.716C709.425 101.332 709.917 101.032 710.481 100.816C711.045 100.6 711.657 100.492 712.317 100.492C713.121 100.492 713.829 100.642 714.441 100.942C715.053 101.23 715.527 101.638 715.863 102.166C716.211 102.682 716.385 103.288 716.385 103.984V110.5H714.153V108.826L714.657 108.79C714.405 109.21 714.105 109.564 713.757 109.852C713.409 110.128 713.013 110.344 712.569 110.5C712.125 110.644 711.633 110.716 711.093 110.716ZM719.753 114.478C719.489 114.478 719.231 114.454 718.979 114.406C718.727 114.37 718.499 114.304 718.295 114.208V112.228C718.451 112.264 718.637 112.3 718.853 112.336C719.081 112.372 719.291 112.39 719.483 112.39C720.023 112.39 720.413 112.264 720.653 112.012C720.905 111.76 721.127 111.43 721.319 111.022L721.967 109.51L721.931 111.49L717.665 100.708H720.203L723.191 108.664H722.291L725.261 100.708H727.817L723.551 111.49C723.299 112.126 722.993 112.666 722.633 113.11C722.273 113.554 721.853 113.89 721.373 114.118C720.905 114.358 720.365 114.478 719.753 114.478Z" fill="black"/>
</g>
<defs>
<filter id="filter0_d_7850_50474" x="24.24" y="58.5508" width="383.343" height="89.9219" filterUnits="userSpaceOnUse" color-interpolation-filters="sRGB">
<feFlood flood-opacity="0" result="BackgroundImageFix"/>
<feColorMatrix in="SourceAlpha" type="matrix" values="0 0 0 0 0 0 0 0 0 0 0 0 0 0 0 0 0 0 127 0" result="hardAlpha"/>
<feOffset dy="4"/>
<feGaussianBlur stdDeviation="2"/>
<feComposite in2="hardAlpha" operator="out"/>
<feColorMatrix type="matrix" values="0 0 0 0 0 0 0 0 0 0 0 0 0 0 0 0 0 0 0.25 0"/>
<feBlend mode="normal" in2="BackgroundImageFix" result="effect1_dropShadow_7850_50474"/>
<feBlend mode="normal" in="SourceGraphic" in2="effect1_dropShadow_7850_50474" result="shape"/>
</filter>
<filter id="filter1_d_7850_50474" x="24.24" y="55.5508" width="383.343" height="89.9219" filterUnits="userSpaceOnUse" color-interpolation-filters="sRGB">
<feFlood flood-opacity="0" result="BackgroundImageFix"/>
<feColorMatrix in="SourceAlpha" type="matrix" values="0 0 0 0 0 0 0 0 0 0 0 0 0 0 0 0 0 0 127 0" result="hardAlpha"/>
<feOffset dy="4"/>
<feGaussianBlur stdDeviation="2"/>
<feComposite in2="hardAlpha" operator="out"/>
<feColorMatrix type="matrix" values="0 0 0 0 0 0 0 0 0 0 0 0 0 0 0 0 0 0 0.25 0"/>
<feBlend mode="normal" in2="BackgroundImageFix" result="effect1_dropShadow_7850_50474"/>
<feBlend mode="normal" in="SourceGraphic" in2="effect1_dropShadow_7850_50474" result="shape"/>
</filter>
<radialGradient id="paint0_radial_7850_50474" cx="0" cy="0" r="1" gradientUnits="userSpaceOnUse" gradientTransform="translate(211.482 -599.925) scale(486.517 486.86)">
<stop stop-color="white"/>
<stop offset="1"/>
</radialGradient>
<radialGradient id="paint1_radial_7850_50474" cx="0" cy="0" r="1" gradientUnits="userSpaceOnUse" gradientTransform="translate(211.482 -599.925) scale(486.518 486.86)">
<stop stop-color="white"/>
<stop offset="1"/>
</radialGradient>
<radialGradient id="paint2_radial_7850_50474" cx="0" cy="0" r="1" gradientUnits="userSpaceOnUse" gradientTransform="translate(211.482 -599.925) scale(486.517 486.86)">
<stop stop-color="white"/>
<stop offset="1"/>
</radialGradient>
<radialGradient id="paint3_radial_7850_50474" cx="0" cy="0" r="1" gradientUnits="userSpaceOnUse" gradientTransform="translate(211.482 -599.925) scale(486.517 486.86)">
<stop stop-color="white"/>
<stop offset="1"/>
</radialGradient>
<radialGradient id="paint4_radial_7850_50474" cx="0" cy="0" r="1" gradientUnits="userSpaceOnUse" gradientTransform="translate(211.482 -599.925) scale(486.517 486.86)">
<stop stop-color="white"/>
<stop offset="1"/>
</radialGradient>
<radialGradient id="paint5_radial_7850_50474" cx="0" cy="0" r="1" gradientUnits="userSpaceOnUse" gradientTransform="translate(211.482 -599.925) scale(486.519 486.86)">
<stop stop-color="white"/>
<stop offset="1"/>
</radialGradient>
<radialGradient id="paint6_radial_7850_50474" cx="0" cy="0" r="1" gradientUnits="userSpaceOnUse" gradientTransform="translate(211.483 -599.925) scale(486.516 486.86)">
<stop stop-color="white"/>
<stop offset="1"/>
</radialGradient>
<radialGradient id="paint7_radial_7850_50474" cx="0" cy="0" r="1" gradientUnits="userSpaceOnUse" gradientTransform="translate(912.887 541.09) scale(627.361 627.8)">
<stop stop-color="white"/>
<stop offset="1"/>
</radialGradient>
<radialGradient id="paint8_radial_7850_50474" cx="0" cy="0" r="1" gradientUnits="userSpaceOnUse" gradientTransform="translate(912.886 541.09) scale(627.361 627.8)">
<stop stop-color="white"/>
<stop offset="1"/>
</radialGradient>
<radialGradient id="paint9_radial_7850_50474" cx="0" cy="0" r="1" gradientUnits="userSpaceOnUse" gradientTransform="translate(912.883 541.09) scale(627.36 627.804)">
<stop stop-color="white"/>
<stop offset="1"/>
</radialGradient>
<radialGradient id="paint10_radial_7850_50474" cx="0" cy="0" r="1" gradientUnits="userSpaceOnUse" gradientTransform="translate(912.886 541.09) scale(627.361 627.8)">
<stop stop-color="white"/>
<stop offset="1"/>
</radialGradient>
<radialGradient id="paint11_radial_7850_50474" cx="0" cy="0" r="1" gradientUnits="userSpaceOnUse" gradientTransform="translate(912.884 541.09) scale(627.356 627.8)">
<stop stop-color="white"/>
<stop offset="1"/>
</radialGradient>
<radialGradient id="paint12_radial_7850_50474" cx="0" cy="0" r="1" gradientUnits="userSpaceOnUse" gradientTransform="translate(912.886 541.09) scale(627.365 627.804)">
<stop stop-color="white"/>
<stop offset="1"/>
</radialGradient>
<radialGradient id="paint13_radial_7850_50474" cx="0" cy="0" r="1" gradientUnits="userSpaceOnUse" gradientTransform="translate(211.482 -599.923) scale(486.517 486.86)">
<stop stop-color="white"/>
<stop offset="1"/>
</radialGradient>
<radialGradient id="paint14_radial_7850_50474" cx="0" cy="0" r="1" gradientUnits="userSpaceOnUse" gradientTransform="translate(211.482 -599.923) scale(486.518 486.86)">
<stop stop-color="white"/>
<stop offset="1"/>
</radialGradient>
<radialGradient id="paint15_radial_7850_50474" cx="0" cy="0" r="1" gradientUnits="userSpaceOnUse" gradientTransform="translate(211.482 -599.923) scale(486.517 486.86)">
<stop stop-color="white"/>
<stop offset="1"/>
</radialGradient>
<radialGradient id="paint16_radial_7850_50474" cx="0" cy="0" r="1" gradientUnits="userSpaceOnUse" gradientTransform="translate(211.482 -599.923) scale(486.517 486.86)">
<stop stop-color="white"/>
<stop offset="1"/>
</radialGradient>
<radialGradient id="paint17_radial_7850_50474" cx="0" cy="0" r="1" gradientUnits="userSpaceOnUse" gradientTransform="translate(211.482 -599.923) scale(486.517 486.86)">
<stop stop-color="white"/>
<stop offset="1"/>
</radialGradient>
<radialGradient id="paint18_radial_7850_50474" cx="0" cy="0" r="1" gradientUnits="userSpaceOnUse" gradientTransform="translate(211.482 -599.923) scale(486.519 486.86)">
<stop stop-color="white"/>
<stop offset="1"/>
</radialGradient>
<radialGradient id="paint19_radial_7850_50474" cx="0" cy="0" r="1" gradientUnits="userSpaceOnUse" gradientTransform="translate(211.483 -599.923) scale(486.516 486.86)">
<stop stop-color="white"/>
<stop offset="1"/>
</radialGradient>
<radialGradient id="paint20_radial_7850_50474" cx="0" cy="0" r="1" gradientUnits="userSpaceOnUse" gradientTransform="translate(912.887 541.095) scale(627.361 627.8)">
<stop stop-color="white"/>
<stop offset="1"/>
</radialGradient>
<radialGradient id="paint21_radial_7850_50474" cx="0" cy="0" r="1" gradientUnits="userSpaceOnUse" gradientTransform="translate(912.886 541.096) scale(627.365 627.804)">
<stop stop-color="white"/>
<stop offset="1"/>
</radialGradient>
<radialGradient id="paint22_radial_7850_50474" cx="0" cy="0" r="1" gradientUnits="userSpaceOnUse" gradientTransform="translate(912.883 541.095) scale(627.356 627.8)">
<stop stop-color="white"/>
<stop offset="1"/>
</radialGradient>
<radialGradient id="paint23_radial_7850_50474" cx="0" cy="0" r="1" gradientUnits="userSpaceOnUse" gradientTransform="translate(912.886 541.095) scale(627.361 627.8)">
<stop stop-color="white"/>
<stop offset="1"/>
</radialGradient>
<radialGradient id="paint24_radial_7850_50474" cx="0" cy="0" r="1" gradientUnits="userSpaceOnUse" gradientTransform="translate(912.884 541.095) scale(627.356 627.8)">
<stop stop-color="white"/>
<stop offset="1"/>
</radialGradient>
<radialGradient id="paint25_radial_7850_50474" cx="0" cy="0" r="1" gradientUnits="userSpaceOnUse" gradientTransform="translate(912.886 541.096) scale(627.365 627.804)">
<stop stop-color="white"/>
<stop offset="1"/>
</radialGradient>
<radialGradient id="paint26_radial_7850_50474" cx="0" cy="0" r="1" gradientUnits="userSpaceOnUse" gradientTransform="translate(211.482 -599.922) scale(486.517 486.86)">
<stop stop-color="white"/>
<stop offset="1"/>
</radialGradient>
<radialGradient id="paint27_radial_7850_50474" cx="0" cy="0" r="1" gradientUnits="userSpaceOnUse" gradientTransform="translate(211.482 -599.922) scale(486.518 486.86)">
<stop stop-color="white"/>
<stop offset="1"/>
</radialGradient>
<radialGradient id="paint28_radial_7850_50474" cx="0" cy="0" r="1" gradientUnits="userSpaceOnUse" gradientTransform="translate(211.482 -599.922) scale(486.517 486.86)">
<stop stop-color="white"/>
<stop offset="1"/>
</radialGradient>
<radialGradient id="paint29_radial_7850_50474" cx="0" cy="0" r="1" gradientUnits="userSpaceOnUse" gradientTransform="translate(211.482 -599.922) scale(486.517 486.86)">
<stop stop-color="white"/>
<stop offset="1"/>
</radialGradient>
<radialGradient id="paint30_radial_7850_50474" cx="0" cy="0" r="1" gradientUnits="userSpaceOnUse" gradientTransform="translate(211.482 -599.922) scale(486.517 486.86)">
<stop stop-color="white"/>
<stop offset="1"/>
</radialGradient>
<radialGradient id="paint31_radial_7850_50474" cx="0" cy="0" r="1" gradientUnits="userSpaceOnUse" gradientTransform="translate(211.482 -599.922) scale(486.519 486.86)">
<stop stop-color="white"/>
<stop offset="1"/>
</radialGradient>
<radialGradient id="paint32_radial_7850_50474" cx="0" cy="0" r="1" gradientUnits="userSpaceOnUse" gradientTransform="translate(211.483 -599.922) scale(486.516 486.86)">
<stop stop-color="white"/>
<stop offset="1"/>
</radialGradient>
<radialGradient id="paint33_radial_7850_50474" cx="0" cy="0" r="1" gradientUnits="userSpaceOnUse" gradientTransform="translate(912.887 541.097) scale(627.365 627.804)">
<stop stop-color="white"/>
<stop offset="1"/>
</radialGradient>
<radialGradient id="paint34_radial_7850_50474" cx="0" cy="0" r="1" gradientUnits="userSpaceOnUse" gradientTransform="translate(912.886 541.097) scale(627.361 627.8)">
<stop stop-color="white"/>
<stop offset="1"/>
</radialGradient>
<radialGradient id="paint35_radial_7850_50474" cx="0" cy="0" r="1" gradientUnits="userSpaceOnUse" gradientTransform="translate(912.883 541.097) scale(627.356 627.8)">
<stop stop-color="white"/>
<stop offset="1"/>
</radialGradient>
<radialGradient id="paint36_radial_7850_50474" cx="0" cy="0" r="1" gradientUnits="userSpaceOnUse" gradientTransform="translate(912.886 541.097) scale(627.365 627.804)">
<stop stop-color="white"/>
<stop offset="1"/>
</radialGradient>
<radialGradient id="paint37_radial_7850_50474" cx="0" cy="0" r="1" gradientUnits="userSpaceOnUse" gradientTransform="translate(912.884 541.097) scale(627.36 627.804)">
<stop stop-color="white"/>
<stop offset="1"/>
</radialGradient>
<radialGradient id="paint38_radial_7850_50474" cx="0" cy="0" r="1" gradientUnits="userSpaceOnUse" gradientTransform="translate(912.886 541.097) scale(627.361 627.8)">
<stop stop-color="white"/>
<stop offset="1"/>
</radialGradient>
<radialGradient id="paint39_radial_7850_50474" cx="0" cy="0" r="1" gradientUnits="userSpaceOnUse" gradientTransform="translate(211.482 -599.924) scale(486.517 486.86)">
<stop stop-color="white"/>
<stop offset="1"/>
</radialGradient>
<radialGradient id="paint40_radial_7850_50474" cx="0" cy="0" r="1" gradientUnits="userSpaceOnUse" gradientTransform="translate(211.482 -599.924) scale(486.518 486.86)">
<stop stop-color="white"/>
<stop offset="1"/>
</radialGradient>
<radialGradient id="paint41_radial_7850_50474" cx="0" cy="0" r="1" gradientUnits="userSpaceOnUse" gradientTransform="translate(211.482 -599.924) scale(486.517 486.86)">
<stop stop-color="white"/>
<stop offset="1"/>
</radialGradient>
<radialGradient id="paint42_radial_7850_50474" cx="0" cy="0" r="1" gradientUnits="userSpaceOnUse" gradientTransform="translate(211.482 -599.924) scale(486.517 486.86)">
<stop stop-color="white"/>
<stop offset="1"/>
</radialGradient>
<radialGradient id="paint43_radial_7850_50474" cx="0" cy="0" r="1" gradientUnits="userSpaceOnUse" gradientTransform="translate(211.482 -599.924) scale(486.517 486.86)">
<stop stop-color="white"/>
<stop offset="1"/>
</radialGradient>
<radialGradient id="paint44_radial_7850_50474" cx="0" cy="0" r="1" gradientUnits="userSpaceOnUse" gradientTransform="translate(211.482 -599.924) scale(486.519 486.86)">
<stop stop-color="white"/>
<stop offset="1"/>
</radialGradient>
<radialGradient id="paint45_radial_7850_50474" cx="0" cy="0" r="1" gradientUnits="userSpaceOnUse" gradientTransform="translate(211.483 -599.924) scale(486.516 486.86)">
<stop stop-color="white"/>
<stop offset="1"/>
</radialGradient>
<radialGradient id="paint46_radial_7850_50474" cx="0" cy="0" r="1" gradientUnits="userSpaceOnUse" gradientTransform="translate(912.887 541.094) scale(627.361 627.8)">
<stop stop-color="white"/>
<stop offset="1"/>
</radialGradient>
<radialGradient id="paint47_radial_7850_50474" cx="0" cy="0" r="1" gradientUnits="userSpaceOnUse" gradientTransform="translate(912.886 541.094) scale(627.365 627.804)">
<stop stop-color="white"/>
<stop offset="1"/>
</radialGradient>
<radialGradient id="paint48_radial_7850_50474" cx="0" cy="0" r="1" gradientUnits="userSpaceOnUse" gradientTransform="translate(912.883 541.094) scale(627.356 627.8)">
<stop stop-color="white"/>
<stop offset="1"/>
</radialGradient>
<radialGradient id="paint49_radial_7850_50474" cx="0" cy="0" r="1" gradientUnits="userSpaceOnUse" gradientTransform="translate(912.886 541.094) scale(627.365 627.804)">
<stop stop-color="white"/>
<stop offset="1"/>
</radialGradient>
<radialGradient id="paint50_radial_7850_50474" cx="0" cy="0" r="1" gradientUnits="userSpaceOnUse" gradientTransform="translate(912.884 541.094) scale(627.36 627.804)">
<stop stop-color="white"/>
<stop offset="1"/>
</radialGradient>
<radialGradient id="paint51_radial_7850_50474" cx="0" cy="0" r="1" gradientUnits="userSpaceOnUse" gradientTransform="translate(912.886 541.094) scale(627.361 627.8)">
<stop stop-color="white"/>
<stop offset="1"/>
</radialGradient>
<radialGradient id="paint52_radial_7850_50474" cx="0" cy="0" r="1" gradientUnits="userSpaceOnUse" gradientTransform="translate(912.886 541.09) scale(627.365 627.804)">
<stop stop-color="white"/>
<stop offset="1"/>
</radialGradient>
<radialGradient id="paint53_radial_7850_50474" cx="0" cy="0" r="1" gradientUnits="userSpaceOnUse" gradientTransform="translate(912.884 541.09) scale(627.36 627.804)">
<stop stop-color="white"/>
<stop offset="1"/>
</radialGradient>
<radialGradient id="paint54_radial_7850_50474" cx="0" cy="0" r="1" gradientUnits="userSpaceOnUse" gradientTransform="translate(912.886 541.095) scale(627.361 627.8)">
<stop stop-color="white"/>
<stop offset="1"/>
</radialGradient>
<radialGradient id="paint55_radial_7850_50474" cx="0" cy="0" r="1" gradientUnits="userSpaceOnUse" gradientTransform="translate(912.884 541.096) scale(627.36 627.804)">
<stop stop-color="white"/>
<stop offset="1"/>
</radialGradient>
<radialGradient id="paint56_radial_7850_50474" cx="0" cy="0" r="1" gradientUnits="userSpaceOnUse" gradientTransform="translate(912.886 541.097) scale(627.365 627.804)">
<stop stop-color="white"/>
<stop offset="1"/>
</radialGradient>
<radialGradient id="paint57_radial_7850_50474" cx="0" cy="0" r="1" gradientUnits="userSpaceOnUse" gradientTransform="translate(912.884 541.097) scale(627.36 627.804)">
<stop stop-color="white"/>
<stop offset="1"/>
</radialGradient>
<radialGradient id="paint58_radial_7850_50474" cx="0" cy="0" r="1" gradientUnits="userSpaceOnUse" gradientTransform="translate(912.886 541.094) scale(627.361 627.8)">
<stop stop-color="white"/>
<stop offset="1"/>
</radialGradient>
<radialGradient id="paint59_radial_7850_50474" cx="0" cy="0" r="1" gradientUnits="userSpaceOnUse" gradientTransform="translate(912.884 541.094) scale(627.356 627.8)">
<stop stop-color="white"/>
<stop offset="1"/>
</radialGradient>
<radialGradient id="paint60_radial_7850_50474" cx="0" cy="0" r="1" gradientUnits="userSpaceOnUse" gradientTransform="translate(912.884 541.09) scale(627.36 627.804)">
<stop stop-color="white"/>
<stop offset="1"/>
</radialGradient>
<radialGradient id="paint61_radial_7850_50474" cx="0" cy="0" r="1" gradientUnits="userSpaceOnUse" gradientTransform="translate(912.885 541.09) scale(627.36 627.804)">
<stop stop-color="white"/>
<stop offset="1"/>
</radialGradient>
<radialGradient id="paint62_radial_7850_50474" cx="0" cy="0" r="1" gradientUnits="userSpaceOnUse" gradientTransform="translate(912.884 541.096) scale(627.36 627.804)">
<stop stop-color="white"/>
<stop offset="1"/>
</radialGradient>
<radialGradient id="paint63_radial_7850_50474" cx="0" cy="0" r="1" gradientUnits="userSpaceOnUse" gradientTransform="translate(912.885 541.095) scale(627.356 627.8)">
<stop stop-color="white"/>
<stop offset="1"/>
</radialGradient>
<radialGradient id="paint64_radial_7850_50474" cx="0" cy="0" r="1" gradientUnits="userSpaceOnUse" gradientTransform="translate(912.884 541.097) scale(627.36 627.804)">
<stop stop-color="white"/>
<stop offset="1"/>
</radialGradient>
<radialGradient id="paint65_radial_7850_50474" cx="0" cy="0" r="1" gradientUnits="userSpaceOnUse" gradientTransform="translate(912.885 541.097) scale(627.356 627.8)">
<stop stop-color="white"/>
<stop offset="1"/>
</radialGradient>
<radialGradient id="paint66_radial_7850_50474" cx="0" cy="0" r="1" gradientUnits="userSpaceOnUse" gradientTransform="translate(912.884 541.094) scale(627.356 627.8)">
<stop stop-color="white"/>
<stop offset="1"/>
</radialGradient>
<radialGradient id="paint67_radial_7850_50474" cx="0" cy="0" r="1" gradientUnits="userSpaceOnUse" gradientTransform="translate(912.885 541.094) scale(627.356 627.8)">
<stop stop-color="white"/>
<stop offset="1"/>
</radialGradient>
<clipPath id="clip0_7850_50474">
<rect width="840" height="208" rx="10" fill="white"/>
</clipPath>
</defs>
</svg>
