<svg width="390" height="330" viewBox="0 0 390 330" fill="none" xmlns="http://www.w3.org/2000/svg">
<g clip-path="url(#clip0_6460_102029)">
<rect width="390" height="330" rx="10" fill="#172027"/>
<g style="mix-blend-mode:luminosity" opacity="0.68">
<path d="M22.418 10.8775V9.33595H20.9023V8.52172H22.418V7H23.2342V8.52172H24.7896V9.33595H23.2342V10.8775H22.418Z" fill="url(#paint0_radial_6460_102029)"/>
<path d="M53.6329 10.8775V9.33595H52.1172V8.52172H53.6329V7H54.449V8.52172H56.0044V9.33595H54.449V10.8775H53.6329Z" fill="url(#paint1_radial_6460_102029)"/>
<path d="M84.8438 10.8775V9.33595H83.3281V8.52172H84.8438V7H85.6599V8.52172H87.2153V9.33595H85.6599V10.8775H84.8438Z" fill="url(#paint2_radial_6460_102029)"/>
<path d="M116.055 10.8775V9.33595H114.539V8.52172H116.055V7H116.871V8.52172H118.426V9.33595H116.871V10.8775H116.055Z" fill="url(#paint3_radial_6460_102029)"/>
<path d="M147.27 10.8775V9.33595H145.754V8.52172H147.27V7H148.086V8.52172H149.641V9.33595H148.086V10.8775H147.27Z" fill="url(#paint4_radial_6460_102029)"/>
<path d="M178.484 10.8775V9.33595H176.969V8.52172H178.484V7H179.301V8.52172H180.856V9.33595H179.301V10.8775H178.484Z" fill="url(#paint5_radial_6460_102029)"/>
<path d="M209.699 10.8775V9.33595H208.184V8.52172H209.699V7H210.515V8.52172H212.071V9.33595H210.515V10.8775H209.699Z" fill="url(#paint6_radial_6460_102029)"/>
<path d="M240.91 10.8775V9.33595H239.395V8.52172H240.91V7H241.726V8.52172H243.282V9.33595H241.726V10.8775H240.91Z" fill="url(#paint7_radial_6460_102029)"/>
<path d="M272.121 10.8775V9.33595H270.605V8.52172H272.121V7H272.937V8.52172H274.493V9.33595H272.937V10.8775H272.121Z" fill="url(#paint8_radial_6460_102029)"/>
<path d="M303.336 10.8775V9.33595H301.82V8.52172H303.336V7H304.152V8.52172H305.708V9.33595H304.152V10.8775H303.336Z" fill="url(#paint9_radial_6460_102029)"/>
<path d="M334.547 10.8775V9.33595H333.031V8.52172H334.547V7H335.363V8.52172H336.918V9.33595H335.363V10.8775H334.547Z" fill="url(#paint10_radial_6460_102029)"/>
<path d="M22.418 42.1119V40.5703H20.9023V39.7561H22.418V38.2344H23.2342V39.7561H24.7896V40.5703H23.2342V42.1119H22.418Z" fill="url(#paint11_radial_6460_102029)"/>
<path d="M53.6329 42.1119V40.5703H52.1172V39.7561H53.6329V38.2344H54.449V39.7561H56.0044V40.5703H54.449V42.1119H53.6329Z" fill="url(#paint12_radial_6460_102029)"/>
<path d="M84.8438 42.1119V40.5703H83.3281V39.7561H84.8438V38.2344H85.6599V39.7561H87.2153V40.5703H85.6599V42.1119H84.8438Z" fill="url(#paint13_radial_6460_102029)"/>
<path d="M116.055 42.1119V40.5703H114.539V39.7561H116.055V38.2344H116.871V39.7561H118.426V40.5703H116.871V42.1119H116.055Z" fill="url(#paint14_radial_6460_102029)"/>
<path d="M147.27 42.1119V40.5703H145.754V39.7561H147.27V38.2344H148.086V39.7561H149.641V40.5703H148.086V42.1119H147.27Z" fill="url(#paint15_radial_6460_102029)"/>
<path d="M178.484 42.1119V40.5703H176.969V39.7561H178.484V38.2344H179.301V39.7561H180.856V40.5703H179.301V42.1119H178.484Z" fill="url(#paint16_radial_6460_102029)"/>
<path d="M209.699 42.1119V40.5703H208.184V39.7561H209.699V38.2344H210.515V39.7561H212.071V40.5703H210.515V42.1119H209.699Z" fill="url(#paint17_radial_6460_102029)"/>
<path d="M240.91 42.1119V40.5703H239.395V39.7561H240.91V38.2344H241.726V39.7561H243.282V40.5703H241.726V42.1119H240.91Z" fill="url(#paint18_radial_6460_102029)"/>
<path d="M272.121 42.1119V40.5703H270.605V39.7561H272.121V38.2344H272.937V39.7561H274.493V40.5703H272.937V42.1119H272.121Z" fill="url(#paint19_radial_6460_102029)"/>
<path d="M303.336 42.1119V40.5703H301.82V39.7561H303.336V38.2344H304.152V39.7561H305.708V40.5703H304.152V42.1119H303.336Z" fill="url(#paint20_radial_6460_102029)"/>
<path d="M334.547 42.1119V40.5703H333.031V39.7561H334.547V38.2344H335.363V39.7561H336.918V40.5703H335.363V42.1119H334.547Z" fill="url(#paint21_radial_6460_102029)"/>
<path d="M22.418 73.3463V71.8047H20.9023V70.9905H22.418V69.4688H23.2342V70.9905H24.7896V71.8047H23.2342V73.3463H22.418Z" fill="url(#paint22_radial_6460_102029)"/>
<path d="M53.6329 73.3463V71.8047H52.1172V70.9905H53.6329V69.4688H54.449V70.9905H56.0044V71.8047H54.449V73.3463H53.6329Z" fill="url(#paint23_radial_6460_102029)"/>
<path d="M84.8438 73.3463V71.8047H83.3281V70.9905H84.8438V69.4688H85.6599V70.9905H87.2153V71.8047H85.6599V73.3463H84.8438Z" fill="url(#paint24_radial_6460_102029)"/>
<path d="M116.055 73.3463V71.8047H114.539V70.9905H116.055V69.4688H116.871V70.9905H118.426V71.8047H116.871V73.3463H116.055Z" fill="url(#paint25_radial_6460_102029)"/>
<path d="M147.27 73.3463V71.8047H145.754V70.9905H147.27V69.4688H148.086V70.9905H149.641V71.8047H148.086V73.3463H147.27Z" fill="url(#paint26_radial_6460_102029)"/>
<path d="M178.484 73.3463V71.8047H176.969V70.9905H178.484V69.4688H179.301V70.9905H180.856V71.8047H179.301V73.3463H178.484Z" fill="url(#paint27_radial_6460_102029)"/>
<path d="M209.699 73.3463V71.8047H208.184V70.9905H209.699V69.4688H210.515V70.9905H212.071V71.8047H210.515V73.3463H209.699Z" fill="url(#paint28_radial_6460_102029)"/>
<path d="M240.91 73.3463V71.8047H239.395V70.9905H240.91V69.4688H241.726V70.9905H243.282V71.8047H241.726V73.3463H240.91Z" fill="url(#paint29_radial_6460_102029)"/>
<path d="M272.121 73.3463V71.8047H270.605V70.9905H272.121V69.4688H272.937V70.9905H274.493V71.8047H272.937V73.3463H272.121Z" fill="url(#paint30_radial_6460_102029)"/>
<path d="M303.336 73.3463V71.8047H301.82V70.9905H303.336V69.4688H304.152V70.9905H305.708V71.8047H304.152V73.3463H303.336Z" fill="url(#paint31_radial_6460_102029)"/>
<path d="M334.547 73.3463V71.8047H333.031V70.9905H334.547V69.4688H335.363V70.9905H336.918V71.8047H335.363V73.3463H334.547Z" fill="url(#paint32_radial_6460_102029)"/>
<path d="M22.418 104.585V103.043H20.9023V102.229H22.418V100.707H23.2342V102.229H24.7896V103.043H23.2342V104.585H22.418Z" fill="url(#paint33_radial_6460_102029)"/>
<path d="M53.6329 104.585V103.043H52.1172V102.229H53.6329V100.707H54.449V102.229H56.0044V103.043H54.449V104.585H53.6329Z" fill="url(#paint34_radial_6460_102029)"/>
<path d="M84.8438 104.585V103.043H83.3281V102.229H84.8438V100.707H85.6599V102.229H87.2153V103.043H85.6599V104.585H84.8438Z" fill="url(#paint35_radial_6460_102029)"/>
<path d="M116.055 104.585V103.043H114.539V102.229H116.055V100.707H116.871V102.229H118.426V103.043H116.871V104.585H116.055Z" fill="url(#paint36_radial_6460_102029)"/>
<path d="M147.27 104.585V103.043H145.754V102.229H147.27V100.707H148.086V102.229H149.641V103.043H148.086V104.585H147.27Z" fill="url(#paint37_radial_6460_102029)"/>
<path d="M178.484 104.585V103.043H176.969V102.229H178.484V100.707H179.301V102.229H180.856V103.043H179.301V104.585H178.484Z" fill="url(#paint38_radial_6460_102029)"/>
<path d="M209.699 104.585V103.043H208.184V102.229H209.699V100.707H210.515V102.229H212.071V103.043H210.515V104.585H209.699Z" fill="url(#paint39_radial_6460_102029)"/>
<path d="M240.91 104.585V103.043H239.395V102.229H240.91V100.707H241.726V102.229H243.282V103.043H241.726V104.585H240.91Z" fill="url(#paint40_radial_6460_102029)"/>
<path d="M272.121 104.585V103.043H270.605V102.229H272.121V100.707H272.937V102.229H274.493V103.043H272.937V104.585H272.121Z" fill="url(#paint41_radial_6460_102029)"/>
<path d="M303.336 104.585V103.043H301.82V102.229H303.336V100.707H304.152V102.229H305.708V103.043H304.152V104.585H303.336Z" fill="url(#paint42_radial_6460_102029)"/>
<path d="M334.547 104.585V103.043H333.031V102.229H334.547V100.707H335.363V102.229H336.918V103.043H335.363V104.585H334.547Z" fill="url(#paint43_radial_6460_102029)"/>
<path d="M22.418 135.811V134.27H20.9023V133.455H22.418V131.934H23.2342V133.455H24.7896V134.27H23.2342V135.811H22.418Z" fill="url(#paint44_radial_6460_102029)"/>
<path d="M53.6329 135.811V134.27H52.1172V133.455H53.6329V131.934H54.449V133.455H56.0044V134.27H54.449V135.811H53.6329Z" fill="url(#paint45_radial_6460_102029)"/>
<path d="M84.8438 135.811V134.27H83.3281V133.455H84.8438V131.934H85.6599V133.455H87.2153V134.27H85.6599V135.811H84.8438Z" fill="url(#paint46_radial_6460_102029)"/>
<path d="M116.055 135.811V134.27H114.539V133.455H116.055V131.934H116.871V133.455H118.426V134.27H116.871V135.811H116.055Z" fill="url(#paint47_radial_6460_102029)"/>
<path d="M147.27 135.811V134.27H145.754V133.455H147.27V131.934H148.086V133.455H149.641V134.27H148.086V135.811H147.27Z" fill="url(#paint48_radial_6460_102029)"/>
<path d="M178.484 135.811V134.27H176.969V133.455H178.484V131.934H179.301V133.455H180.856V134.27H179.301V135.811H178.484Z" fill="url(#paint49_radial_6460_102029)"/>
<path d="M209.699 135.811V134.27H208.184V133.455H209.699V131.934H210.515V133.455H212.071V134.27H210.515V135.811H209.699Z" fill="url(#paint50_radial_6460_102029)"/>
<path d="M240.91 135.811V134.27H239.395V133.455H240.91V131.934H241.726V133.455H243.282V134.27H241.726V135.811H240.91Z" fill="url(#paint51_radial_6460_102029)"/>
<path d="M272.121 135.811V134.27H270.605V133.455H272.121V131.934H272.937V133.455H274.493V134.27H272.937V135.811H272.121Z" fill="url(#paint52_radial_6460_102029)"/>
<path d="M303.336 135.811V134.27H301.82V133.455H303.336V131.934H304.152V133.455H305.708V134.27H304.152V135.811H303.336Z" fill="url(#paint53_radial_6460_102029)"/>
<path d="M334.547 135.811V134.27H333.031V133.455H334.547V131.934H335.363V133.455H336.918V134.27H335.363V135.811H334.547Z" fill="url(#paint54_radial_6460_102029)"/>
<path d="M22.418 167.053V165.512H20.9023V164.698H22.418V163.176H23.2342V164.698H24.7896V165.512H23.2342V167.053H22.418Z" fill="url(#paint55_radial_6460_102029)"/>
<path d="M53.6329 167.053V165.512H52.1172V164.698H53.6329V163.176H54.449V164.698H56.0044V165.512H54.449V167.053H53.6329Z" fill="url(#paint56_radial_6460_102029)"/>
<path d="M84.8438 167.053V165.512H83.3281V164.698H84.8438V163.176H85.6599V164.698H87.2153V165.512H85.6599V167.053H84.8438Z" fill="url(#paint57_radial_6460_102029)"/>
<path d="M116.055 167.053V165.512H114.539V164.698H116.055V163.176H116.871V164.698H118.426V165.512H116.871V167.053H116.055Z" fill="url(#paint58_radial_6460_102029)"/>
<path d="M147.27 167.053V165.512H145.754V164.698H147.27V163.176H148.086V164.698H149.641V165.512H148.086V167.053H147.27Z" fill="url(#paint59_radial_6460_102029)"/>
<path d="M178.484 167.053V165.512H176.969V164.698H178.484V163.176H179.301V164.698H180.856V165.512H179.301V167.053H178.484Z" fill="url(#paint60_radial_6460_102029)"/>
<path d="M209.699 167.053V165.512H208.184V164.698H209.699V163.176H210.515V164.698H212.071V165.512H210.515V167.053H209.699Z" fill="url(#paint61_radial_6460_102029)"/>
<path d="M240.91 167.053V165.512H239.395V164.698H240.91V163.176H241.726V164.698H243.282V165.512H241.726V167.053H240.91Z" fill="url(#paint62_radial_6460_102029)"/>
<path d="M272.121 167.053V165.512H270.605V164.698H272.121V163.176H272.937V164.698H274.493V165.512H272.937V167.053H272.121Z" fill="url(#paint63_radial_6460_102029)"/>
<path d="M303.336 167.053V165.512H301.82V164.698H303.336V163.176H304.152V164.698H305.708V165.512H304.152V167.053H303.336Z" fill="url(#paint64_radial_6460_102029)"/>
<path d="M334.547 167.053V165.512H333.031V164.698H334.547V163.176H335.363V164.698H336.918V165.512H335.363V167.053H334.547Z" fill="url(#paint65_radial_6460_102029)"/>
<path d="M22.418 198.284V196.742H20.9023V195.928H22.418V194.406H23.2342V195.928H24.7896V196.742H23.2342V198.284H22.418Z" fill="url(#paint66_radial_6460_102029)"/>
<path d="M53.6329 198.284V196.742H52.1172V195.928H53.6329V194.406H54.449V195.928H56.0044V196.742H54.449V198.284H53.6329Z" fill="url(#paint67_radial_6460_102029)"/>
<path d="M84.8438 198.284V196.742H83.3281V195.928H84.8438V194.406H85.6599V195.928H87.2153V196.742H85.6599V198.284H84.8438Z" fill="url(#paint68_radial_6460_102029)"/>
<path d="M116.055 198.284V196.742H114.539V195.928H116.055V194.406H116.871V195.928H118.426V196.742H116.871V198.284H116.055Z" fill="url(#paint69_radial_6460_102029)"/>
<path d="M147.27 198.284V196.742H145.754V195.928H147.27V194.406H148.086V195.928H149.641V196.742H148.086V198.284H147.27Z" fill="url(#paint70_radial_6460_102029)"/>
<path d="M178.484 198.284V196.742H176.969V195.928H178.484V194.406H179.301V195.928H180.856V196.742H179.301V198.284H178.484Z" fill="url(#paint71_radial_6460_102029)"/>
<path d="M209.699 198.284V196.742H208.184V195.928H209.699V194.406H210.515V195.928H212.071V196.742H210.515V198.284H209.699Z" fill="url(#paint72_radial_6460_102029)"/>
<path d="M240.91 198.284V196.742H239.395V195.928H240.91V194.406H241.726V195.928H243.282V196.742H241.726V198.284H240.91Z" fill="url(#paint73_radial_6460_102029)"/>
<path d="M272.121 198.284V196.742H270.605V195.928H272.121V194.406H272.937V195.928H274.493V196.742H272.937V198.284H272.121Z" fill="url(#paint74_radial_6460_102029)"/>
<path d="M303.336 198.284V196.742H301.82V195.928H303.336V194.406H304.152V195.928H305.708V196.742H304.152V198.284H303.336Z" fill="url(#paint75_radial_6460_102029)"/>
<path d="M334.547 198.284V196.742H333.031V195.928H334.547V194.406H335.363V195.928H336.918V196.742H335.363V198.284H334.547Z" fill="url(#paint76_radial_6460_102029)"/>
<path d="M22.418 229.518V227.977H20.9023V227.162H22.418V225.641H23.2342V227.162H24.7896V227.977H23.2342V229.518H22.418Z" fill="url(#paint77_radial_6460_102029)"/>
<path d="M53.6329 229.518V227.977H52.1172V227.162H53.6329V225.641H54.449V227.162H56.0044V227.977H54.449V229.518H53.6329Z" fill="url(#paint78_radial_6460_102029)"/>
<path d="M84.8438 229.518V227.977H83.3281V227.162H84.8438V225.641H85.6599V227.162H87.2153V227.977H85.6599V229.518H84.8438Z" fill="url(#paint79_radial_6460_102029)"/>
<path d="M116.055 229.518V227.977H114.539V227.162H116.055V225.641H116.871V227.162H118.426V227.977H116.871V229.518H116.055Z" fill="url(#paint80_radial_6460_102029)"/>
<path d="M147.27 229.518V227.977H145.754V227.162H147.27V225.641H148.086V227.162H149.641V227.977H148.086V229.518H147.27Z" fill="url(#paint81_radial_6460_102029)"/>
<path d="M178.484 229.518V227.977H176.969V227.162H178.484V225.641H179.301V227.162H180.856V227.977H179.301V229.518H178.484Z" fill="url(#paint82_radial_6460_102029)"/>
<path d="M209.699 229.518V227.977H208.184V227.162H209.699V225.641H210.515V227.162H212.071V227.977H210.515V229.518H209.699Z" fill="url(#paint83_radial_6460_102029)"/>
<path d="M240.91 229.518V227.977H239.395V227.162H240.91V225.641H241.726V227.162H243.282V227.977H241.726V229.518H240.91Z" fill="url(#paint84_radial_6460_102029)"/>
<path d="M272.121 229.518V227.977H270.605V227.162H272.121V225.641H272.937V227.162H274.493V227.977H272.937V229.518H272.121Z" fill="url(#paint85_radial_6460_102029)"/>
<path d="M303.336 229.518V227.977H301.82V227.162H303.336V225.641H304.152V227.162H305.708V227.977H304.152V229.518H303.336Z" fill="url(#paint86_radial_6460_102029)"/>
<path d="M334.547 229.518V227.977H333.031V227.162H334.547V225.641H335.363V227.162H336.918V227.977H335.363V229.518H334.547Z" fill="url(#paint87_radial_6460_102029)"/>
<path d="M22.418 260.753V259.211H20.9023V258.397H22.418V256.875H23.2342V258.397H24.7896V259.211H23.2342V260.753H22.418Z" fill="url(#paint88_radial_6460_102029)"/>
<path d="M53.6329 260.753V259.211H52.1172V258.397H53.6329V256.875H54.449V258.397H56.0044V259.211H54.449V260.753H53.6329Z" fill="url(#paint89_radial_6460_102029)"/>
<path d="M84.8438 260.753V259.211H83.3281V258.397H84.8438V256.875H85.6599V258.397H87.2153V259.211H85.6599V260.753H84.8438Z" fill="url(#paint90_radial_6460_102029)"/>
<path d="M116.055 260.753V259.211H114.539V258.397H116.055V256.875H116.871V258.397H118.426V259.211H116.871V260.753H116.055Z" fill="url(#paint91_radial_6460_102029)"/>
<path d="M147.27 260.753V259.211H145.754V258.397H147.27V256.875H148.086V258.397H149.641V259.211H148.086V260.753H147.27Z" fill="url(#paint92_radial_6460_102029)"/>
<path d="M178.484 260.753V259.211H176.969V258.397H178.484V256.875H179.301V258.397H180.856V259.211H179.301V260.753H178.484Z" fill="url(#paint93_radial_6460_102029)"/>
<path d="M209.699 260.753V259.211H208.184V258.397H209.699V256.875H210.515V258.397H212.071V259.211H210.515V260.753H209.699Z" fill="url(#paint94_radial_6460_102029)"/>
<path d="M240.91 260.753V259.211H239.395V258.397H240.91V256.875H241.726V258.397H243.282V259.211H241.726V260.753H240.91Z" fill="url(#paint95_radial_6460_102029)"/>
<path d="M272.121 260.753V259.211H270.605V258.397H272.121V256.875H272.937V258.397H274.493V259.211H272.937V260.753H272.121Z" fill="url(#paint96_radial_6460_102029)"/>
<path d="M303.336 260.753V259.211H301.82V258.397H303.336V256.875H304.152V258.397H305.708V259.211H304.152V260.753H303.336Z" fill="url(#paint97_radial_6460_102029)"/>
<path d="M334.547 260.753V259.211H333.031V258.397H334.547V256.875H335.363V258.397H336.918V259.211H335.363V260.753H334.547Z" fill="url(#paint98_radial_6460_102029)"/>
<path d="M22.418 291.991V290.449H20.9023V289.635H22.418V288.113H23.2342V289.635H24.7896V290.449H23.2342V291.991H22.418Z" fill="url(#paint99_radial_6460_102029)"/>
<path d="M53.6329 291.991V290.449H52.1172V289.635H53.6329V288.113H54.449V289.635H56.0044V290.449H54.449V291.991H53.6329Z" fill="url(#paint100_radial_6460_102029)"/>
<path d="M84.8438 291.991V290.449H83.3281V289.635H84.8438V288.113H85.6599V289.635H87.2153V290.449H85.6599V291.991H84.8438Z" fill="url(#paint101_radial_6460_102029)"/>
<path d="M116.055 291.991V290.449H114.539V289.635H116.055V288.113H116.871V289.635H118.426V290.449H116.871V291.991H116.055Z" fill="url(#paint102_radial_6460_102029)"/>
<path d="M147.27 291.991V290.449H145.754V289.635H147.27V288.113H148.086V289.635H149.641V290.449H148.086V291.991H147.27Z" fill="url(#paint103_radial_6460_102029)"/>
<path d="M178.484 291.991V290.449H176.969V289.635H178.484V288.113H179.301V289.635H180.856V290.449H179.301V291.991H178.484Z" fill="url(#paint104_radial_6460_102029)"/>
<path d="M209.699 291.991V290.449H208.184V289.635H209.699V288.113H210.515V289.635H212.071V290.449H210.515V291.991H209.699Z" fill="url(#paint105_radial_6460_102029)"/>
<path d="M240.91 291.991V290.449H239.395V289.635H240.91V288.113H241.726V289.635H243.282V290.449H241.726V291.991H240.91Z" fill="url(#paint106_radial_6460_102029)"/>
<path d="M272.121 291.991V290.449H270.605V289.635H272.121V288.113H272.937V289.635H274.493V290.449H272.937V291.991H272.121Z" fill="url(#paint107_radial_6460_102029)"/>
<path d="M303.336 291.991V290.449H301.82V289.635H303.336V288.113H304.152V289.635H305.708V290.449H304.152V291.991H303.336Z" fill="url(#paint108_radial_6460_102029)"/>
<path d="M334.547 291.991V290.449H333.031V289.635H334.547V288.113H335.363V289.635H336.918V290.449H335.363V291.991H334.547Z" fill="url(#paint109_radial_6460_102029)"/>
<path d="M22.418 323.225V321.684H20.9023V320.869H22.418V319.348H23.2342V320.869H24.7896V321.684H23.2342V323.225H22.418Z" fill="url(#paint110_radial_6460_102029)"/>
<path d="M53.6329 323.225V321.684H52.1172V320.869H53.6329V319.348H54.449V320.869H56.0044V321.684H54.449V323.225H53.6329Z" fill="url(#paint111_radial_6460_102029)"/>
<path d="M84.8438 323.225V321.684H83.3281V320.869H84.8438V319.348H85.6599V320.869H87.2153V321.684H85.6599V323.225H84.8438Z" fill="url(#paint112_radial_6460_102029)"/>
<path d="M116.055 323.225V321.684H114.539V320.869H116.055V319.348H116.871V320.869H118.426V321.684H116.871V323.225H116.055Z" fill="url(#paint113_radial_6460_102029)"/>
<path d="M147.27 323.225V321.684H145.754V320.869H147.27V319.348H148.086V320.869H149.641V321.684H148.086V323.225H147.27Z" fill="url(#paint114_radial_6460_102029)"/>
<path d="M178.484 323.225V321.684H176.969V320.869H178.484V319.348H179.301V320.869H180.856V321.684H179.301V323.225H178.484Z" fill="url(#paint115_radial_6460_102029)"/>
<path d="M209.699 323.225V321.684H208.184V320.869H209.699V319.348H210.515V320.869H212.071V321.684H210.515V323.225H209.699Z" fill="url(#paint116_radial_6460_102029)"/>
<path d="M240.91 323.225V321.684H239.395V320.869H240.91V319.348H241.726V320.869H243.282V321.684H241.726V323.225H240.91Z" fill="url(#paint117_radial_6460_102029)"/>
<path d="M272.121 323.225V321.684H270.605V320.869H272.121V319.348H272.937V320.869H274.493V321.684H272.937V323.225H272.121Z" fill="url(#paint118_radial_6460_102029)"/>
<path d="M303.336 323.225V321.684H301.82V320.869H303.336V319.348H304.152V320.869H305.708V321.684H304.152V323.225H303.336Z" fill="url(#paint119_radial_6460_102029)"/>
<path d="M334.547 323.225V321.684H333.031V320.869H334.547V319.348H335.363V320.869H336.918V321.684H335.363V323.225H334.547Z" fill="url(#paint120_radial_6460_102029)"/>
<path d="M365.762 10.8775V9.33595H364.246V8.52172H365.762V7H366.578V8.52172H368.133V9.33595H366.578V10.8775H365.762Z" fill="url(#paint121_radial_6460_102029)"/>
<path d="M365.762 42.1119V40.5703H364.246V39.7561H365.762V38.2344H366.578V39.7561H368.133V40.5703H366.578V42.1119H365.762Z" fill="url(#paint122_radial_6460_102029)"/>
<path d="M365.762 73.3463V71.8047H364.246V70.9905H365.762V69.4688H366.578V70.9905H368.133V71.8047H366.578V73.3463H365.762Z" fill="url(#paint123_radial_6460_102029)"/>
<path d="M365.762 104.585V103.043H364.246V102.229H365.762V100.707H366.578V102.229H368.133V103.043H366.578V104.585H365.762Z" fill="url(#paint124_radial_6460_102029)"/>
<path d="M365.762 135.811V134.27H364.246V133.455H365.762V131.934H366.578V133.455H368.133V134.27H366.578V135.811H365.762Z" fill="url(#paint125_radial_6460_102029)"/>
<path d="M365.762 167.053V165.512H364.246V164.698H365.762V163.176H366.578V164.698H368.133V165.512H366.578V167.053H365.762Z" fill="url(#paint126_radial_6460_102029)"/>
<path d="M365.762 198.284V196.742H364.246V195.928H365.762V194.406H366.578V195.928H368.133V196.742H366.578V198.284H365.762Z" fill="url(#paint127_radial_6460_102029)"/>
<path d="M365.762 229.518V227.977H364.246V227.162H365.762V225.641H366.578V227.162H368.133V227.977H366.578V229.518H365.762Z" fill="url(#paint128_radial_6460_102029)"/>
<path d="M365.762 260.753V259.211H364.246V258.397H365.762V256.875H366.578V258.397H368.133V259.211H366.578V260.753H365.762Z" fill="url(#paint129_radial_6460_102029)"/>
<path d="M365.762 291.991V290.449H364.246V289.635H365.762V288.113H366.578V289.635H368.133V290.449H366.578V291.991H365.762Z" fill="url(#paint130_radial_6460_102029)"/>
<path d="M365.762 323.225V321.684H364.246V320.869H365.762V319.348H366.578V320.869H368.133V321.684H366.578V323.225H365.762Z" fill="url(#paint131_radial_6460_102029)"/>
</g>
<path d="M393.084 210L338.857 264.747V297.928L320.38 316.582H237.872L226.888 305.492H173L150.785 327.923L120 359H312.698L456 214.325" stroke="#23FF81" stroke-width="0.5" stroke-miterlimit="10"/>
<path d="M-4.76837e-07 61L12.9656 47.9008H120.846L127.257 54.377H175.411L186.194 43.4836V24.1067L216 -6" stroke="#23FF81" stroke-width="0.5" stroke-miterlimit="10"/>
<path d="M163.48 176.465V172.715H180.766V176.465H173.992V190H170.242V176.465H163.48ZM182.43 186.52V179.559C182.43 178.613 182.773 177.797 183.461 177.109C184.156 176.422 184.973 176.078 185.91 176.078H193.07C194.031 176.078 194.852 176.422 195.531 177.109C196.211 177.797 196.551 178.613 196.551 179.559V186.52C196.551 187.465 196.211 188.281 195.531 188.969C194.852 189.656 194.031 190 193.07 190H185.91C184.965 190 184.148 189.656 183.461 188.969C182.773 188.281 182.43 187.465 182.43 186.52ZM186.109 186.332H192.871V179.758H186.109V186.332ZM206.113 186.52V179.559C206.113 178.613 206.453 177.797 207.133 177.109C207.812 176.422 208.633 176.078 209.594 176.078H216.578V171.52H220.246V190H209.594C208.633 190 207.812 189.656 207.133 188.969C206.453 188.281 206.113 187.465 206.113 186.52ZM209.805 186.332H216.578V179.758H209.805V186.332ZM222.789 186.52V179.559C222.789 178.613 223.133 177.797 223.82 177.109C224.516 176.422 225.332 176.078 226.27 176.078H233.43C234.391 176.078 235.211 176.422 235.891 177.109C236.57 177.797 236.91 178.613 236.91 179.559V186.52C236.91 187.465 236.57 188.281 235.891 188.969C235.211 189.656 234.391 190 233.43 190H226.27C225.324 190 224.508 189.656 223.82 188.969C223.133 188.281 222.789 187.465 222.789 186.52ZM226.469 186.332H233.23V179.758H226.469V186.332ZM246.402 186.52V179.559C246.402 178.613 246.742 177.797 247.422 177.109C248.102 176.422 248.922 176.078 249.883 176.078H260.535V195.52H256.867V190H249.883C248.922 190 248.102 189.656 247.422 188.969C246.742 188.281 246.402 187.465 246.402 186.52ZM250.094 186.332H256.867V179.758H250.094V186.332ZM263.137 186.52V176.078H266.805V186.332H273.566V176.078H277.246V186.52C277.246 187.465 276.906 188.281 276.227 188.969C275.547 189.656 274.727 190 273.766 190H266.617C265.656 190 264.836 189.656 264.156 188.969C263.477 188.281 263.137 187.465 263.137 186.52ZM279.766 186.52V179.559C279.766 178.613 280.109 177.797 280.797 177.109C281.492 176.422 282.309 176.078 283.246 176.078H290.406C291.367 176.078 292.188 176.422 292.867 177.109C293.547 177.797 293.887 178.613 293.887 179.559V184.891H283.445V186.332H293.887V190H283.246C282.301 190 281.484 189.656 280.797 188.969C280.109 188.281 279.766 187.465 279.766 186.52ZM283.445 181.668H290.207V179.758H283.445V181.668ZM296.312 186.52V185.828H299.992V186.332H306.754V184.891H299.793C298.848 184.891 298.031 184.547 297.344 183.859C296.656 183.172 296.312 182.355 296.312 181.41V179.559C296.312 178.613 296.656 177.797 297.344 177.109C298.031 176.422 298.848 176.078 299.793 176.078H306.953C307.93 176.078 308.758 176.422 309.438 177.109C310.117 177.797 310.457 178.613 310.457 179.559V180.262H306.754V179.758H299.992V181.188H306.953C307.93 181.188 308.758 181.527 309.438 182.207C310.117 182.887 310.457 183.707 310.457 184.668V186.52C310.457 187.465 310.113 188.281 309.426 188.969C308.746 189.656 307.922 190 306.953 190H299.793C298.848 190 298.031 189.656 297.344 188.969C296.656 188.281 296.312 187.465 296.312 186.52ZM312.895 186.52V171.953H316.562V176.078H321.719V179.758H316.562V186.332H321.719V190H316.398C315.422 190 314.594 189.656 313.914 188.969C313.234 188.281 312.895 187.465 312.895 186.52Z" fill="white"/>
<g filter="url(#filter0_d_6460_102029)">
<mask id="path-137-outside-1_6460_102029" maskUnits="userSpaceOnUse" x="68" y="126" width="254" height="32" fill="black">
<rect fill="white" x="68" y="126" width="254" height="32"/>
<path d="M69.3584 150.786V132.985C69.3584 131.249 69.96 129.779 71.1631 128.576C72.3662 127.359 73.8359 126.751 75.5723 126.751H99.5049V133.313H75.8594V150.458H99.5049V157H75.5723C73.8359 157 72.3662 156.398 71.1631 155.195C69.96 153.992 69.3584 152.522 69.3584 150.786ZM103.976 157V132.985C103.976 131.249 104.577 129.779 105.78 128.576C106.983 127.359 108.453 126.751 110.189 126.751H127.949C129.686 126.751 131.162 127.366 132.379 128.597C133.596 129.813 134.204 131.276 134.204 132.985V157H127.621V147.259H110.477V157H103.976ZM110.477 140.696H127.621V133.313H110.477V140.696ZM139.003 157V126.751H145.709L155.963 138.974L166.176 126.751H172.923V157H166.381V136.718L155.963 149.146L145.504 136.759V157H139.003ZM177.968 157V126.792H201.941C203.65 126.792 205.12 127.407 206.351 128.638C207.581 129.854 208.196 131.317 208.196 133.026V140.84C208.196 142.549 207.581 144.012 206.351 145.229C205.12 146.445 203.65 147.054 201.941 147.054L184.469 147.095C184.551 147.095 184.592 147.177 184.592 147.341C184.537 147.341 184.496 147.327 184.469 147.3V157H177.968ZM184.469 140.491H201.613V133.313H184.469V140.491ZM211.272 157V132.985C211.272 131.249 211.874 129.779 213.077 128.576C214.28 127.359 215.75 126.751 217.486 126.751H235.246C236.982 126.751 238.459 127.366 239.676 128.597C240.893 129.813 241.501 131.276 241.501 132.985V157H234.918V147.259H217.773V157H211.272ZM217.773 140.696H234.918V133.313H217.773V140.696ZM246.341 157V126.751H252.883V157H246.341ZM255.528 150.786V132.985C255.528 131.249 256.13 129.779 257.333 128.576C258.536 127.359 260.006 126.751 261.742 126.751H279.502C281.238 126.751 282.715 127.366 283.932 128.597C285.148 129.813 285.757 131.276 285.757 132.985V135.836H279.174V133.313H262.029V150.458H279.174V145.905H272.611V139.363H285.757V150.786C285.757 152.495 285.148 153.958 283.932 155.175C282.715 156.392 281.238 157 279.502 157H261.742C260.006 157 258.536 156.398 257.333 155.195C256.13 153.992 255.528 152.522 255.528 150.786ZM290.392 157V126.751H297.098L314.037 146.91V126.751H320.62V157H313.914L296.893 136.759V157H290.392Z"/>
</mask>
<path d="M71.1631 128.576L71.5166 128.93L71.5186 128.928L71.1631 128.576ZM99.5049 126.751H100.005V126.251H99.5049V126.751ZM99.5049 133.313V133.813H100.005V133.313H99.5049ZM75.8594 133.313V132.813H75.3594V133.313H75.8594ZM75.8594 150.458H75.3594V150.958H75.8594V150.458ZM99.5049 150.458H100.005V149.958H99.5049V150.458ZM99.5049 157V157.5H100.005V157H99.5049ZM69.8584 150.786V132.985H68.8584V150.786H69.8584ZM69.8584 132.985C69.8584 131.379 70.4094 130.037 71.5166 128.93L70.8095 128.223C69.5105 129.522 68.8584 131.119 68.8584 132.985H69.8584ZM71.5186 128.928C72.6263 127.807 73.9673 127.251 75.5723 127.251V126.251C73.7046 126.251 72.1061 126.911 70.8075 128.225L71.5186 128.928ZM75.5723 127.251H99.5049V126.251H75.5723V127.251ZM99.0049 126.751V133.313H100.005V126.751H99.0049ZM99.5049 132.813H75.8594V133.813H99.5049V132.813ZM75.3594 133.313V150.458H76.3594V133.313H75.3594ZM75.8594 150.958H99.5049V149.958H75.8594V150.958ZM99.0049 150.458V157H100.005V150.458H99.0049ZM99.5049 156.5H75.5723V157.5H99.5049V156.5ZM75.5723 156.5C73.9655 156.5 72.6239 155.949 71.5166 154.842L70.8095 155.549C72.1086 156.848 73.7064 157.5 75.5723 157.5V156.5ZM71.5166 154.842C70.4094 153.735 69.8584 152.393 69.8584 150.786H68.8584C68.8584 152.652 69.5105 154.25 70.8095 155.549L71.5166 154.842ZM103.976 157H103.476V157.5H103.976V157ZM105.78 128.576L106.134 128.93L106.136 128.928L105.78 128.576ZM132.379 128.597L132.023 128.948L132.025 128.95L132.379 128.597ZM134.204 157V157.5H134.704V157H134.204ZM127.621 157H127.121V157.5H127.621V157ZM127.621 147.259H128.121V146.759H127.621V147.259ZM110.477 147.259V146.759H109.977V147.259H110.477ZM110.477 157V157.5H110.977V157H110.477ZM110.477 140.696H109.977V141.196H110.477V140.696ZM127.621 140.696V141.196H128.121V140.696H127.621ZM127.621 133.313H128.121V132.813H127.621V133.313ZM110.477 133.313V132.813H109.977V133.313H110.477ZM104.476 157V132.985H103.476V157H104.476ZM104.476 132.985C104.476 131.379 105.027 130.037 106.134 128.93L105.427 128.223C104.128 129.522 103.476 131.119 103.476 132.985H104.476ZM106.136 128.928C107.243 127.807 108.585 127.251 110.189 127.251V126.251C108.322 126.251 106.723 126.911 105.425 128.225L106.136 128.928ZM110.189 127.251H127.949V126.251H110.189V127.251ZM127.949 127.251C129.552 127.251 130.901 127.813 132.023 128.948L132.734 128.245C131.423 126.919 129.819 126.251 127.949 126.251V127.251ZM132.025 128.95C133.149 130.074 133.704 131.41 133.704 132.985H134.704C134.704 131.143 134.042 129.553 132.732 128.243L132.025 128.95ZM133.704 132.985V157H134.704V132.985H133.704ZM134.204 156.5H127.621V157.5H134.204V156.5ZM128.121 157V147.259H127.121V157H128.121ZM127.621 146.759H110.477V147.759H127.621V146.759ZM109.977 147.259V157H110.977V147.259H109.977ZM110.477 156.5H103.976V157.5H110.477V156.5ZM110.477 141.196H127.621V140.196H110.477V141.196ZM128.121 140.696V133.313H127.121V140.696H128.121ZM127.621 132.813H110.477V133.813H127.621V132.813ZM109.977 133.313V140.696H110.977V133.313H109.977ZM139.003 157H138.503V157.5H139.003V157ZM139.003 126.751V126.251H138.503V126.751H139.003ZM145.709 126.751L146.092 126.43L145.942 126.251H145.709V126.751ZM155.963 138.974L155.58 139.295L155.964 139.753L156.347 139.294L155.963 138.974ZM166.176 126.751V126.251H165.942L165.792 126.43L166.176 126.751ZM172.923 126.751H173.423V126.251H172.923V126.751ZM172.923 157V157.5H173.423V157H172.923ZM166.381 157H165.881V157.5H166.381V157ZM166.381 136.718H166.881V135.343L165.998 136.397L166.381 136.718ZM155.963 149.146L155.581 149.468L155.964 149.922L156.346 149.467L155.963 149.146ZM145.504 136.759L145.886 136.436L145.004 135.392V136.759H145.504ZM145.504 157V157.5H146.004V157H145.504ZM139.503 157V126.751H138.503V157H139.503ZM139.003 127.251H145.709V126.251H139.003V127.251ZM145.326 127.072L155.58 139.295L156.346 138.652L146.092 126.43L145.326 127.072ZM156.347 139.294L166.559 127.072L165.792 126.43L155.579 138.653L156.347 139.294ZM166.176 127.251H172.923V126.251H166.176V127.251ZM172.423 126.751V157H173.423V126.751H172.423ZM172.923 156.5H166.381V157.5H172.923V156.5ZM166.881 157V136.718H165.881V157H166.881ZM165.998 136.397L155.58 148.824L156.346 149.467L166.764 137.039L165.998 136.397ZM156.345 148.823L145.886 136.436L145.122 137.081L155.581 149.468L156.345 148.823ZM145.004 136.759V157H146.004V136.759H145.004ZM145.504 156.5H139.003V157.5H145.504V156.5ZM177.968 157H177.468V157.5H177.968V157ZM177.968 126.792V126.292H177.468V126.792H177.968ZM206.351 128.638L205.997 128.991L205.999 128.993L206.351 128.638ZM201.941 147.054V146.554L201.94 146.554L201.941 147.054ZM184.469 147.095L184.468 146.595L184.469 147.595V147.095ZM184.592 147.341V147.841H185.092V147.341H184.592ZM184.469 147.3L184.822 146.946L183.969 146.093V147.3H184.469ZM184.469 157V157.5H184.969V157H184.469ZM184.469 140.491H183.969V140.991H184.469V140.491ZM201.613 140.491V140.991H202.113V140.491H201.613ZM201.613 133.313H202.113V132.813H201.613V133.313ZM184.469 133.313V132.813H183.969V133.313H184.469ZM178.468 157V126.792H177.468V157H178.468ZM177.968 127.292H201.941V126.292H177.968V127.292ZM201.941 127.292C203.515 127.292 204.858 127.853 205.997 128.991L206.704 128.284C205.382 126.962 203.786 126.292 201.941 126.292V127.292ZM205.999 128.993C207.136 130.117 207.696 131.453 207.696 133.026H208.696C208.696 131.182 208.026 129.592 206.702 128.282L205.999 128.993ZM207.696 133.026V140.84H208.696V133.026H207.696ZM207.696 140.84C207.696 142.413 207.136 143.749 205.999 144.873L206.702 145.584C208.026 144.275 208.696 142.684 208.696 140.84H207.696ZM205.999 144.873C204.861 145.999 203.517 146.554 201.941 146.554V147.554C203.784 147.554 205.379 146.892 206.702 145.584L205.999 144.873ZM201.94 146.554L184.468 146.595L184.47 147.595L201.943 147.554L201.94 146.554ZM184.469 147.595C184.402 147.595 184.321 147.577 184.245 147.526C184.173 147.478 184.133 147.419 184.114 147.38C184.082 147.316 184.092 147.284 184.092 147.341H185.092C185.092 147.233 185.081 147.078 185.008 146.933C184.968 146.853 184.903 146.763 184.8 146.694C184.694 146.623 184.577 146.595 184.469 146.595V147.595ZM184.592 146.841C184.614 146.841 184.723 146.847 184.822 146.946L184.115 147.653C184.269 147.808 184.46 147.841 184.592 147.841V146.841ZM183.969 147.3V157H184.969V147.3H183.969ZM184.469 156.5H177.968V157.5H184.469V156.5ZM184.469 140.991H201.613V139.991H184.469V140.991ZM202.113 140.491V133.313H201.113V140.491H202.113ZM201.613 132.813H184.469V133.813H201.613V132.813ZM183.969 133.313V140.491H184.969V133.313H183.969ZM211.272 157H210.772V157.5H211.272V157ZM213.077 128.576L213.431 128.93L213.433 128.928L213.077 128.576ZM239.676 128.597L239.32 128.948L239.322 128.95L239.676 128.597ZM241.501 157V157.5H242.001V157H241.501ZM234.918 157H234.418V157.5H234.918V157ZM234.918 147.259H235.418V146.759H234.918V147.259ZM217.773 147.259V146.759H217.273V147.259H217.773ZM217.773 157V157.5H218.273V157H217.773ZM217.773 140.696H217.273V141.196H217.773V140.696ZM234.918 140.696V141.196H235.418V140.696H234.918ZM234.918 133.313H235.418V132.813H234.918V133.313ZM217.773 133.313V132.813H217.273V133.313H217.773ZM211.772 157V132.985H210.772V157H211.772ZM211.772 132.985C211.772 131.379 212.323 130.037 213.431 128.93L212.724 128.223C211.425 129.522 210.772 131.119 210.772 132.985H211.772ZM213.433 128.928C214.54 127.807 215.881 127.251 217.486 127.251V126.251C215.619 126.251 214.02 126.911 212.722 128.225L213.433 128.928ZM217.486 127.251H235.246V126.251H217.486V127.251ZM235.246 127.251C236.849 127.251 238.198 127.813 239.32 128.948L240.031 128.245C238.72 126.919 237.115 126.251 235.246 126.251V127.251ZM239.322 128.95C240.446 130.074 241.001 131.41 241.001 132.985H242.001C242.001 131.143 241.339 129.553 240.029 128.243L239.322 128.95ZM241.001 132.985V157H242.001V132.985H241.001ZM241.501 156.5H234.918V157.5H241.501V156.5ZM235.418 157V147.259H234.418V157H235.418ZM234.918 146.759H217.773V147.759H234.918V146.759ZM217.273 147.259V157H218.273V147.259H217.273ZM217.773 156.5H211.272V157.5H217.773V156.5ZM217.773 141.196H234.918V140.196H217.773V141.196ZM235.418 140.696V133.313H234.418V140.696H235.418ZM234.918 132.813H217.773V133.813H234.918V132.813ZM217.273 133.313V140.696H218.273V133.313H217.273ZM246.341 157H245.841V157.5H246.341V157ZM246.341 126.751V126.251H245.841V126.751H246.341ZM252.883 126.751H253.383V126.251H252.883V126.751ZM252.883 157V157.5H253.383V157H252.883ZM246.841 157V126.751H245.841V157H246.841ZM246.341 127.251H252.883V126.251H246.341V127.251ZM252.383 126.751V157H253.383V126.751H252.383ZM252.883 156.5H246.341V157.5H252.883V156.5ZM257.333 128.576L257.687 128.93L257.689 128.928L257.333 128.576ZM283.932 128.597L283.576 128.948L283.578 128.95L283.932 128.597ZM285.757 135.836V136.336H286.257V135.836H285.757ZM279.174 135.836H278.674V136.336H279.174V135.836ZM279.174 133.313H279.674V132.813H279.174V133.313ZM262.029 133.313V132.813H261.529V133.313H262.029ZM262.029 150.458H261.529V150.958H262.029V150.458ZM279.174 150.458V150.958H279.674V150.458H279.174ZM279.174 145.905H279.674V145.405H279.174V145.905ZM272.611 145.905H272.111V146.405H272.611V145.905ZM272.611 139.363V138.863H272.111V139.363H272.611ZM285.757 139.363H286.257V138.863H285.757V139.363ZM256.028 150.786V132.985H255.028V150.786H256.028ZM256.028 132.985C256.028 131.379 256.579 130.037 257.687 128.93L256.979 128.223C255.68 129.522 255.028 131.119 255.028 132.985H256.028ZM257.689 128.928C258.796 127.807 260.137 127.251 261.742 127.251V126.251C259.874 126.251 258.276 126.911 256.977 128.225L257.689 128.928ZM261.742 127.251H279.502V126.251H261.742V127.251ZM279.502 127.251C281.105 127.251 282.454 127.813 283.576 128.948L284.287 128.245C282.976 126.919 281.371 126.251 279.502 126.251V127.251ZM283.578 128.95C284.702 130.074 285.257 131.41 285.257 132.985H286.257C286.257 131.143 285.595 129.553 284.285 128.243L283.578 128.95ZM285.257 132.985V135.836H286.257V132.985H285.257ZM285.757 135.336H279.174V136.336H285.757V135.336ZM279.674 135.836V133.313H278.674V135.836H279.674ZM279.174 132.813H262.029V133.813H279.174V132.813ZM261.529 133.313V150.458H262.529V133.313H261.529ZM262.029 150.958H279.174V149.958H262.029V150.958ZM279.674 150.458V145.905H278.674V150.458H279.674ZM279.174 145.405H272.611V146.405H279.174V145.405ZM273.111 145.905V139.363H272.111V145.905H273.111ZM272.611 139.863H285.757V138.863H272.611V139.863ZM285.257 139.363V150.786H286.257V139.363H285.257ZM285.257 150.786C285.257 152.361 284.702 153.697 283.578 154.821L284.285 155.528C285.595 154.219 286.257 152.629 286.257 150.786H285.257ZM283.578 154.821C282.456 155.943 281.107 156.5 279.502 156.5V157.5C281.37 157.5 282.974 156.84 284.285 155.528L283.578 154.821ZM279.502 156.5H261.742V157.5H279.502V156.5ZM261.742 156.5C260.135 156.5 258.794 155.949 257.687 154.842L256.979 155.549C258.278 156.848 259.876 157.5 261.742 157.5V156.5ZM257.687 154.842C256.579 153.735 256.028 152.393 256.028 150.786H255.028C255.028 152.652 255.68 154.25 256.979 155.549L257.687 154.842ZM290.392 157H289.892V157.5H290.392V157ZM290.392 126.751V126.251H289.892V126.751H290.392ZM297.098 126.751L297.48 126.429L297.331 126.251H297.098V126.751ZM314.037 146.91L313.654 147.232L314.537 148.282V146.91H314.037ZM314.037 126.751V126.251H313.537V126.751H314.037ZM320.62 126.751H321.12V126.251H320.62V126.751ZM320.62 157V157.5H321.12V157H320.62ZM313.914 157L313.531 157.322L313.681 157.5H313.914V157ZM296.893 136.759L297.275 136.437L296.393 135.387V136.759H296.893ZM296.893 157V157.5H297.393V157H296.893ZM290.892 157V126.751H289.892V157H290.892ZM290.392 127.251H297.098V126.251H290.392V127.251ZM296.715 127.073L313.654 147.232L314.42 146.588L297.48 126.429L296.715 127.073ZM314.537 146.91V126.751H313.537V146.91H314.537ZM314.037 127.251H320.62V126.251H314.037V127.251ZM320.12 126.751V157H321.12V126.751H320.12ZM320.62 156.5H313.914V157.5H320.62V156.5ZM314.297 156.678L297.275 136.437L296.51 137.081L313.531 157.322L314.297 156.678ZM296.393 136.759V157H297.393V136.759H296.393ZM296.893 156.5H290.392V157.5H296.893V156.5Z" fill="#23FF81" mask="url(#path-137-outside-1_6460_102029)"/>
</g>
<g filter="url(#filter1_d_6460_102029)">
<path d="M69.3584 144.786V126.985C69.3584 125.249 69.96 123.779 71.1631 122.576C72.3662 121.359 73.8359 120.751 75.5723 120.751H99.5049V127.313H75.8594V144.458H99.5049V151H75.5723C73.8359 151 72.3662 150.398 71.1631 149.195C69.96 147.992 69.3584 146.522 69.3584 144.786ZM103.976 151V126.985C103.976 125.249 104.577 123.779 105.78 122.576C106.983 121.359 108.453 120.751 110.189 120.751H127.949C129.686 120.751 131.162 121.366 132.379 122.597C133.596 123.813 134.204 125.276 134.204 126.985V151H127.621V141.259H110.477V151H103.976ZM110.477 134.696H127.621V127.313H110.477V134.696ZM139.003 151V120.751H145.709L155.963 132.974L166.176 120.751H172.923V151H166.381V130.718L155.963 143.146L145.504 130.759V151H139.003ZM177.968 151V120.792H201.941C203.65 120.792 205.12 121.407 206.351 122.638C207.581 123.854 208.196 125.317 208.196 127.026V134.84C208.196 136.549 207.581 138.012 206.351 139.229C205.12 140.445 203.65 141.054 201.941 141.054L184.469 141.095C184.551 141.095 184.592 141.177 184.592 141.341C184.537 141.341 184.496 141.327 184.469 141.3V151H177.968ZM184.469 134.491H201.613V127.313H184.469V134.491ZM211.272 151V126.985C211.272 125.249 211.874 123.779 213.077 122.576C214.28 121.359 215.75 120.751 217.486 120.751H235.246C236.982 120.751 238.459 121.366 239.676 122.597C240.893 123.813 241.501 125.276 241.501 126.985V151H234.918V141.259H217.773V151H211.272ZM217.773 134.696H234.918V127.313H217.773V134.696ZM246.341 151V120.751H252.883V151H246.341ZM255.528 144.786V126.985C255.528 125.249 256.13 123.779 257.333 122.576C258.536 121.359 260.006 120.751 261.742 120.751H279.502C281.238 120.751 282.715 121.366 283.932 122.597C285.148 123.813 285.757 125.276 285.757 126.985V129.836H279.174V127.313H262.029V144.458H279.174V139.905H272.611V133.363H285.757V144.786C285.757 146.495 285.148 147.958 283.932 149.175C282.715 150.392 281.238 151 279.502 151H261.742C260.006 151 258.536 150.398 257.333 149.195C256.13 147.992 255.528 146.522 255.528 144.786ZM290.392 151V120.751H297.098L314.037 140.91V120.751H320.62V151H313.914L296.893 130.759V151H290.392Z" fill="#23FF81"/>
</g>
<path d="M68.3945 108V90.7148H84.3555V94.4648H72.1562V97.4883H81.9766V101.227H72.1562V104.262H84.3555V108H68.3945ZM86.6758 108V94.0781H97.3047C98.2656 94.0781 99.0859 94.4219 99.7656 95.1094C100.445 95.7969 100.785 96.6133 100.785 97.5586V108H97.1055V97.7578H90.3438V108H86.6758ZM103.328 108V97.5586C103.328 96.6133 103.672 95.7969 104.359 95.1094C105.055 94.4219 105.883 94.0781 106.844 94.0781H114.52V97.7578H107.008V108H103.328ZM115.938 104.52V97.5586C115.938 96.6133 116.281 95.7969 116.969 95.1094C117.664 94.4219 118.48 94.0781 119.418 94.0781H126.578C127.539 94.0781 128.359 94.4219 129.039 95.1094C129.719 95.7969 130.059 96.6133 130.059 97.5586V104.52C130.059 105.465 129.719 106.281 129.039 106.969C128.359 107.656 127.539 108 126.578 108H119.418C118.473 108 117.656 107.656 116.969 106.969C116.281 106.281 115.938 105.465 115.938 104.52ZM119.617 104.332H126.379V97.7578H119.617V104.332ZM132.578 104.52V89.4961H136.281V104.332H139.094V108H136.059C135.113 108 134.297 107.656 133.609 106.969C132.922 106.281 132.578 105.465 132.578 104.52ZM140.664 104.52V89.4961H144.367V104.332H147.18V108H144.145C143.199 108 142.383 107.656 141.695 106.969C141.008 106.281 140.664 105.465 140.664 104.52Z" fill="white"/>
<path d="M251.116 200L239.109 207.477H235.949L247.956 200H251.116Z" fill="#F0F0F0"/>
<path d="M242.264 200L230.257 207.477H227.102L239.108 200H242.264Z" fill="#F0F0F0"/>
<path d="M233.413 200L221.406 207.477H218.25L230.257 200H233.413Z" fill="#F0F0F0"/>
<path d="M224.569 200L212.562 207.477H209.402L221.409 200H224.569Z" fill="#F0F0F0"/>
<path d="M215.717 200L203.71 207.477H200.555L212.562 200H215.717Z" fill="#F0F0F0"/>
<path d="M206.866 200L194.859 207.477H191.703L203.71 200H206.866Z" fill="#F0F0F0"/>
<path d="M198.018 200L186.012 207.477H182.852L194.858 200H198.018Z" fill="#F0F0F0"/>
<path d="M189.167 200L177.16 207.477H174L186.011 200H189.167Z" fill="#F0F0F0"/>
<path d="M322.549 200L310.542 207.477H307.387L319.394 200H322.549Z" fill="#F0F0F0"/>
<path d="M313.702 200L301.695 207.477H298.535L310.542 200H313.702Z" fill="#F0F0F0"/>
<path d="M304.85 200L292.843 207.477H289.688L301.694 200H304.85Z" fill="#F0F0F0"/>
<path d="M296.003 200L283.996 207.477H280.84L292.847 200H296.003Z" fill="#F0F0F0"/>
<path d="M287.155 200L275.148 207.477H271.988L283.995 200H287.155Z" fill="#F0F0F0"/>
<path d="M278.303 200L266.296 207.477H263.141L275.148 200H278.303Z" fill="#F0F0F0"/>
<path d="M269.452 200L257.445 207.477H254.289L266.296 200H269.452Z" fill="#F0F0F0"/>
<path d="M260.604 200L248.597 207.477H245.438L257.444 200H260.604Z" fill="#F0F0F0"/>
<rect x="67" y="259" width="256" height="37" rx="18.5" fill="#23FF81"/>
<path d="M150.796 284V270.59H159.706V272.75H153.244V276.188H159.346V278.348H153.244V281.84H159.706V284H150.796ZM161.303 284V274.208H163.517V276.134L163.337 275.792C163.565 275.204 163.937 274.76 164.453 274.46C164.981 274.148 165.593 273.992 166.289 273.992C167.009 273.992 167.645 274.148 168.197 274.46C168.761 274.772 169.199 275.21 169.511 275.774C169.823 276.326 169.979 276.968 169.979 277.7V284H167.621V278.258C167.621 277.826 167.537 277.454 167.369 277.142C167.201 276.83 166.967 276.59 166.667 276.422C166.379 276.242 166.037 276.152 165.641 276.152C165.257 276.152 164.915 276.242 164.615 276.422C164.315 276.59 164.081 276.83 163.913 277.142C163.745 277.454 163.661 277.826 163.661 278.258V284H161.303ZM171.973 284V274.208H174.187V276.386L174.007 276.062C174.235 275.33 174.589 274.82 175.069 274.532C175.561 274.244 176.149 274.1 176.833 274.1H177.409V276.188H176.563C175.891 276.188 175.351 276.398 174.943 276.818C174.535 277.226 174.331 277.802 174.331 278.546V284H171.973ZM183.493 284.216C182.533 284.216 181.657 283.994 180.865 283.55C180.085 283.106 179.461 282.5 178.993 281.732C178.537 280.964 178.309 280.088 178.309 279.104C178.309 278.12 178.537 277.244 178.993 276.476C179.461 275.708 180.085 275.102 180.865 274.658C181.645 274.214 182.521 273.992 183.493 273.992C184.453 273.992 185.323 274.214 186.103 274.658C186.883 275.102 187.501 275.708 187.957 276.476C188.425 277.232 188.659 278.108 188.659 279.104C188.659 280.088 188.425 280.964 187.957 281.732C187.489 282.5 186.865 283.106 186.085 283.55C185.305 283.994 184.441 284.216 183.493 284.216ZM183.493 282.056C184.021 282.056 184.483 281.93 184.879 281.678C185.287 281.426 185.605 281.078 185.833 280.634C186.073 280.178 186.193 279.668 186.193 279.104C186.193 278.528 186.073 278.024 185.833 277.592C185.605 277.148 185.287 276.8 184.879 276.548C184.483 276.284 184.021 276.152 183.493 276.152C182.953 276.152 182.479 276.284 182.071 276.548C181.663 276.8 181.339 277.148 181.099 277.592C180.871 278.024 180.757 278.528 180.757 279.104C180.757 279.668 180.871 280.178 181.099 280.634C181.339 281.078 181.663 281.426 182.071 281.678C182.479 281.93 182.953 282.056 183.493 282.056ZM190.448 284V270.374H192.806V284H190.448ZM194.983 284V270.374H197.341V284H194.983ZM202.717 284V274.208H204.931V276.134L204.751 275.792C204.979 275.204 205.351 274.76 205.867 274.46C206.395 274.148 207.007 273.992 207.703 273.992C208.423 273.992 209.059 274.148 209.611 274.46C210.175 274.772 210.613 275.21 210.925 275.774C211.237 276.326 211.393 276.968 211.393 277.7V284H209.035V278.258C209.035 277.826 208.951 277.454 208.783 277.142C208.615 276.83 208.381 276.59 208.081 276.422C207.793 276.242 207.451 276.152 207.055 276.152C206.671 276.152 206.329 276.242 206.029 276.422C205.729 276.59 205.495 276.83 205.327 277.142C205.159 277.454 205.075 277.826 205.075 278.258V284H202.717ZM218.175 284.216C217.215 284.216 216.339 283.994 215.547 283.55C214.767 283.106 214.143 282.5 213.675 281.732C213.219 280.964 212.991 280.088 212.991 279.104C212.991 278.12 213.219 277.244 213.675 276.476C214.143 275.708 214.767 275.102 215.547 274.658C216.327 274.214 217.203 273.992 218.175 273.992C219.135 273.992 220.005 274.214 220.785 274.658C221.565 275.102 222.183 275.708 222.639 276.476C223.107 277.232 223.341 278.108 223.341 279.104C223.341 280.088 223.107 280.964 222.639 281.732C222.171 282.5 221.547 283.106 220.767 283.55C219.987 283.994 219.123 284.216 218.175 284.216ZM218.175 282.056C218.703 282.056 219.165 281.93 219.561 281.678C219.969 281.426 220.287 281.078 220.515 280.634C220.755 280.178 220.875 279.668 220.875 279.104C220.875 278.528 220.755 278.024 220.515 277.592C220.287 277.148 219.969 276.8 219.561 276.548C219.165 276.284 218.703 276.152 218.175 276.152C217.635 276.152 217.161 276.284 216.753 276.548C216.345 276.8 216.021 277.148 215.781 277.592C215.553 278.024 215.439 278.528 215.439 279.104C215.439 279.668 215.553 280.178 215.781 280.634C216.021 281.078 216.345 281.426 216.753 281.678C217.161 281.93 217.635 282.056 218.175 282.056ZM227.419 284L224.053 274.208H226.537L229.003 281.642L228.139 281.624L230.767 274.208H232.855L235.465 281.624L234.601 281.642L237.067 274.208H239.551L236.185 284H234.079L231.415 276.242H232.207L229.507 284H227.419Z" fill="black"/>
</g>
<defs>
<filter id="filter0_d_6460_102029" x="65.3594" y="126.75" width="259.262" height="38.25" filterUnits="userSpaceOnUse" color-interpolation-filters="sRGB">
<feFlood flood-opacity="0" result="BackgroundImageFix"/>
<feColorMatrix in="SourceAlpha" type="matrix" values="0 0 0 0 0 0 0 0 0 0 0 0 0 0 0 0 0 0 127 0" result="hardAlpha"/>
<feOffset dy="4"/>
<feGaussianBlur stdDeviation="2"/>
<feComposite in2="hardAlpha" operator="out"/>
<feColorMatrix type="matrix" values="0 0 0 0 0 0 0 0 0 0 0 0 0 0 0 0 0 0 0.25 0"/>
<feBlend mode="normal" in2="BackgroundImageFix" result="effect1_dropShadow_6460_102029"/>
<feBlend mode="normal" in="SourceGraphic" in2="effect1_dropShadow_6460_102029" result="shape"/>
</filter>
<filter id="filter1_d_6460_102029" x="65.3594" y="120.75" width="259.262" height="38.25" filterUnits="userSpaceOnUse" color-interpolation-filters="sRGB">
<feFlood flood-opacity="0" result="BackgroundImageFix"/>
<feColorMatrix in="SourceAlpha" type="matrix" values="0 0 0 0 0 0 0 0 0 0 0 0 0 0 0 0 0 0 127 0" result="hardAlpha"/>
<feOffset dy="4"/>
<feGaussianBlur stdDeviation="2"/>
<feComposite in2="hardAlpha" operator="out"/>
<feColorMatrix type="matrix" values="0 0 0 0 0 0 0 0 0 0 0 0 0 0 0 0 0 0 0.25 0"/>
<feBlend mode="normal" in2="BackgroundImageFix" result="effect1_dropShadow_6460_102029"/>
<feBlend mode="normal" in="SourceGraphic" in2="effect1_dropShadow_6460_102029" result="shape"/>
</filter>
<radialGradient id="paint0_radial_6460_102029" cx="0" cy="0" r="1" gradientUnits="userSpaceOnUse" gradientTransform="translate(76.457 -36.7253) scale(276.099 276.293)">
<stop stop-color="white"/>
<stop offset="1"/>
</radialGradient>
<radialGradient id="paint1_radial_6460_102029" cx="0" cy="0" r="1" gradientUnits="userSpaceOnUse" gradientTransform="translate(76.46 -36.7253) scale(276.099 276.293)">
<stop stop-color="white"/>
<stop offset="1"/>
</radialGradient>
<radialGradient id="paint2_radial_6460_102029" cx="0" cy="0" r="1" gradientUnits="userSpaceOnUse" gradientTransform="translate(76.4567 -36.7253) scale(276.099 276.293)">
<stop stop-color="white"/>
<stop offset="1"/>
</radialGradient>
<radialGradient id="paint3_radial_6460_102029" cx="0" cy="0" r="1" gradientUnits="userSpaceOnUse" gradientTransform="translate(76.4557 -36.7253) scale(276.1 276.293)">
<stop stop-color="white"/>
<stop offset="1"/>
</radialGradient>
<radialGradient id="paint4_radial_6460_102029" cx="0" cy="0" r="1" gradientUnits="userSpaceOnUse" gradientTransform="translate(76.4566 -36.7253) scale(276.098 276.293)">
<stop stop-color="white"/>
<stop offset="1"/>
</radialGradient>
<radialGradient id="paint5_radial_6460_102029" cx="0" cy="0" r="1" gradientUnits="userSpaceOnUse" gradientTransform="translate(76.459 -36.7253) scale(276.1 276.293)">
<stop stop-color="white"/>
<stop offset="1"/>
</radialGradient>
<radialGradient id="paint6_radial_6460_102029" cx="0" cy="0" r="1" gradientUnits="userSpaceOnUse" gradientTransform="translate(76.4595 -36.7253) scale(276.1 276.293)">
<stop stop-color="white"/>
<stop offset="1"/>
</radialGradient>
<radialGradient id="paint7_radial_6460_102029" cx="0" cy="0" r="1" gradientUnits="userSpaceOnUse" gradientTransform="translate(76.4598 -36.7253) scale(276.098 276.293)">
<stop stop-color="white"/>
<stop offset="1"/>
</radialGradient>
<radialGradient id="paint8_radial_6460_102029" cx="0" cy="0" r="1" gradientUnits="userSpaceOnUse" gradientTransform="translate(76.4575 -36.7253) scale(276.1 276.293)">
<stop stop-color="white"/>
<stop offset="1"/>
</radialGradient>
<radialGradient id="paint9_radial_6460_102029" cx="0" cy="0" r="1" gradientUnits="userSpaceOnUse" gradientTransform="translate(76.4572 -36.7253) scale(276.098 276.293)">
<stop stop-color="white"/>
<stop offset="1"/>
</radialGradient>
<radialGradient id="paint10_radial_6460_102029" cx="0" cy="0" r="1" gradientUnits="userSpaceOnUse" gradientTransform="translate(76.457 -36.7253) scale(276.1 276.293)">
<stop stop-color="white"/>
<stop offset="1"/>
</radialGradient>
<radialGradient id="paint11_radial_6460_102029" cx="0" cy="0" r="1" gradientUnits="userSpaceOnUse" gradientTransform="translate(76.457 -135.398) scale(276.099 276.293)">
<stop stop-color="white"/>
<stop offset="1"/>
</radialGradient>
<radialGradient id="paint12_radial_6460_102029" cx="0" cy="0" r="1" gradientUnits="userSpaceOnUse" gradientTransform="translate(76.46 -135.398) scale(276.099 276.293)">
<stop stop-color="white"/>
<stop offset="1"/>
</radialGradient>
<radialGradient id="paint13_radial_6460_102029" cx="0" cy="0" r="1" gradientUnits="userSpaceOnUse" gradientTransform="translate(76.4567 -135.398) scale(276.099 276.293)">
<stop stop-color="white"/>
<stop offset="1"/>
</radialGradient>
<radialGradient id="paint14_radial_6460_102029" cx="0" cy="0" r="1" gradientUnits="userSpaceOnUse" gradientTransform="translate(76.4557 -135.398) scale(276.1 276.293)">
<stop stop-color="white"/>
<stop offset="1"/>
</radialGradient>
<radialGradient id="paint15_radial_6460_102029" cx="0" cy="0" r="1" gradientUnits="userSpaceOnUse" gradientTransform="translate(76.4566 -135.398) scale(276.098 276.293)">
<stop stop-color="white"/>
<stop offset="1"/>
</radialGradient>
<radialGradient id="paint16_radial_6460_102029" cx="0" cy="0" r="1" gradientUnits="userSpaceOnUse" gradientTransform="translate(76.459 -135.398) scale(276.1 276.293)">
<stop stop-color="white"/>
<stop offset="1"/>
</radialGradient>
<radialGradient id="paint17_radial_6460_102029" cx="0" cy="0" r="1" gradientUnits="userSpaceOnUse" gradientTransform="translate(76.4595 -135.398) scale(276.1 276.293)">
<stop stop-color="white"/>
<stop offset="1"/>
</radialGradient>
<radialGradient id="paint18_radial_6460_102029" cx="0" cy="0" r="1" gradientUnits="userSpaceOnUse" gradientTransform="translate(76.4598 -135.398) scale(276.098 276.293)">
<stop stop-color="white"/>
<stop offset="1"/>
</radialGradient>
<radialGradient id="paint19_radial_6460_102029" cx="0" cy="0" r="1" gradientUnits="userSpaceOnUse" gradientTransform="translate(76.4575 -135.398) scale(276.1 276.293)">
<stop stop-color="white"/>
<stop offset="1"/>
</radialGradient>
<radialGradient id="paint20_radial_6460_102029" cx="0" cy="0" r="1" gradientUnits="userSpaceOnUse" gradientTransform="translate(76.4572 -135.398) scale(276.098 276.293)">
<stop stop-color="white"/>
<stop offset="1"/>
</radialGradient>
<radialGradient id="paint21_radial_6460_102029" cx="0" cy="0" r="1" gradientUnits="userSpaceOnUse" gradientTransform="translate(76.457 -135.398) scale(276.1 276.293)">
<stop stop-color="white"/>
<stop offset="1"/>
</radialGradient>
<radialGradient id="paint22_radial_6460_102029" cx="0" cy="0" r="1" gradientUnits="userSpaceOnUse" gradientTransform="translate(76.457 -135.4) scale(276.099 276.293)">
<stop stop-color="white"/>
<stop offset="1"/>
</radialGradient>
<radialGradient id="paint23_radial_6460_102029" cx="0" cy="0" r="1" gradientUnits="userSpaceOnUse" gradientTransform="translate(76.46 -135.4) scale(276.099 276.293)">
<stop stop-color="white"/>
<stop offset="1"/>
</radialGradient>
<radialGradient id="paint24_radial_6460_102029" cx="0" cy="0" r="1" gradientUnits="userSpaceOnUse" gradientTransform="translate(76.4567 -135.4) scale(276.099 276.293)">
<stop stop-color="white"/>
<stop offset="1"/>
</radialGradient>
<radialGradient id="paint25_radial_6460_102029" cx="0" cy="0" r="1" gradientUnits="userSpaceOnUse" gradientTransform="translate(76.4557 -135.4) scale(276.1 276.293)">
<stop stop-color="white"/>
<stop offset="1"/>
</radialGradient>
<radialGradient id="paint26_radial_6460_102029" cx="0" cy="0" r="1" gradientUnits="userSpaceOnUse" gradientTransform="translate(76.4566 -135.4) scale(276.098 276.293)">
<stop stop-color="white"/>
<stop offset="1"/>
</radialGradient>
<radialGradient id="paint27_radial_6460_102029" cx="0" cy="0" r="1" gradientUnits="userSpaceOnUse" gradientTransform="translate(76.459 -135.4) scale(276.1 276.293)">
<stop stop-color="white"/>
<stop offset="1"/>
</radialGradient>
<radialGradient id="paint28_radial_6460_102029" cx="0" cy="0" r="1" gradientUnits="userSpaceOnUse" gradientTransform="translate(76.4595 -135.4) scale(276.1 276.293)">
<stop stop-color="white"/>
<stop offset="1"/>
</radialGradient>
<radialGradient id="paint29_radial_6460_102029" cx="0" cy="0" r="1" gradientUnits="userSpaceOnUse" gradientTransform="translate(76.4598 -135.4) scale(276.098 276.293)">
<stop stop-color="white"/>
<stop offset="1"/>
</radialGradient>
<radialGradient id="paint30_radial_6460_102029" cx="0" cy="0" r="1" gradientUnits="userSpaceOnUse" gradientTransform="translate(76.4575 -135.4) scale(276.1 276.293)">
<stop stop-color="white"/>
<stop offset="1"/>
</radialGradient>
<radialGradient id="paint31_radial_6460_102029" cx="0" cy="0" r="1" gradientUnits="userSpaceOnUse" gradientTransform="translate(76.4572 -135.4) scale(276.1 276.295)">
<stop stop-color="white"/>
<stop offset="1"/>
</radialGradient>
<radialGradient id="paint32_radial_6460_102029" cx="0" cy="0" r="1" gradientUnits="userSpaceOnUse" gradientTransform="translate(76.457 -135.4) scale(276.1 276.293)">
<stop stop-color="white"/>
<stop offset="1"/>
</radialGradient>
<radialGradient id="paint33_radial_6460_102029" cx="0" cy="0" r="1" gradientUnits="userSpaceOnUse" gradientTransform="translate(76.457 -135.395) scale(276.099 276.293)">
<stop stop-color="white"/>
<stop offset="1"/>
</radialGradient>
<radialGradient id="paint34_radial_6460_102029" cx="0" cy="0" r="1" gradientUnits="userSpaceOnUse" gradientTransform="translate(76.46 -135.395) scale(276.099 276.293)">
<stop stop-color="white"/>
<stop offset="1"/>
</radialGradient>
<radialGradient id="paint35_radial_6460_102029" cx="0" cy="0" r="1" gradientUnits="userSpaceOnUse" gradientTransform="translate(76.4567 -135.395) scale(276.099 276.293)">
<stop stop-color="white"/>
<stop offset="1"/>
</radialGradient>
<radialGradient id="paint36_radial_6460_102029" cx="0" cy="0" r="1" gradientUnits="userSpaceOnUse" gradientTransform="translate(76.4557 -135.395) scale(276.1 276.293)">
<stop stop-color="white"/>
<stop offset="1"/>
</radialGradient>
<radialGradient id="paint37_radial_6460_102029" cx="0" cy="0" r="1" gradientUnits="userSpaceOnUse" gradientTransform="translate(76.4566 -135.395) scale(276.098 276.293)">
<stop stop-color="white"/>
<stop offset="1"/>
</radialGradient>
<radialGradient id="paint38_radial_6460_102029" cx="0" cy="0" r="1" gradientUnits="userSpaceOnUse" gradientTransform="translate(76.459 -135.395) scale(276.1 276.293)">
<stop stop-color="white"/>
<stop offset="1"/>
</radialGradient>
<radialGradient id="paint39_radial_6460_102029" cx="0" cy="0" r="1" gradientUnits="userSpaceOnUse" gradientTransform="translate(76.4595 -135.395) scale(276.1 276.293)">
<stop stop-color="white"/>
<stop offset="1"/>
</radialGradient>
<radialGradient id="paint40_radial_6460_102029" cx="0" cy="0" r="1" gradientUnits="userSpaceOnUse" gradientTransform="translate(76.4598 -135.395) scale(276.098 276.293)">
<stop stop-color="white"/>
<stop offset="1"/>
</radialGradient>
<radialGradient id="paint41_radial_6460_102029" cx="0" cy="0" r="1" gradientUnits="userSpaceOnUse" gradientTransform="translate(76.4575 -135.395) scale(276.102 276.295)">
<stop stop-color="white"/>
<stop offset="1"/>
</radialGradient>
<radialGradient id="paint42_radial_6460_102029" cx="0" cy="0" r="1" gradientUnits="userSpaceOnUse" gradientTransform="translate(76.4572 -135.395) scale(276.1 276.295)">
<stop stop-color="white"/>
<stop offset="1"/>
</radialGradient>
<radialGradient id="paint43_radial_6460_102029" cx="0" cy="0" r="1" gradientUnits="userSpaceOnUse" gradientTransform="translate(76.457 -135.395) scale(276.102 276.295)">
<stop stop-color="white"/>
<stop offset="1"/>
</radialGradient>
<radialGradient id="paint44_radial_6460_102029" cx="0" cy="0" r="1" gradientUnits="userSpaceOnUse" gradientTransform="translate(76.457 -135.403) scale(276.099 276.293)">
<stop stop-color="white"/>
<stop offset="1"/>
</radialGradient>
<radialGradient id="paint45_radial_6460_102029" cx="0" cy="0" r="1" gradientUnits="userSpaceOnUse" gradientTransform="translate(76.46 -135.403) scale(276.099 276.293)">
<stop stop-color="white"/>
<stop offset="1"/>
</radialGradient>
<radialGradient id="paint46_radial_6460_102029" cx="0" cy="0" r="1" gradientUnits="userSpaceOnUse" gradientTransform="translate(76.4567 -135.403) scale(276.099 276.293)">
<stop stop-color="white"/>
<stop offset="1"/>
</radialGradient>
<radialGradient id="paint47_radial_6460_102029" cx="0" cy="0" r="1" gradientUnits="userSpaceOnUse" gradientTransform="translate(76.4557 -135.403) scale(276.1 276.293)">
<stop stop-color="white"/>
<stop offset="1"/>
</radialGradient>
<radialGradient id="paint48_radial_6460_102029" cx="0" cy="0" r="1" gradientUnits="userSpaceOnUse" gradientTransform="translate(76.4566 -135.403) scale(276.098 276.293)">
<stop stop-color="white"/>
<stop offset="1"/>
</radialGradient>
<radialGradient id="paint49_radial_6460_102029" cx="0" cy="0" r="1" gradientUnits="userSpaceOnUse" gradientTransform="translate(76.459 -135.403) scale(276.1 276.293)">
<stop stop-color="white"/>
<stop offset="1"/>
</radialGradient>
<radialGradient id="paint50_radial_6460_102029" cx="0" cy="0" r="1" gradientUnits="userSpaceOnUse" gradientTransform="translate(76.4595 -135.403) scale(276.1 276.293)">
<stop stop-color="white"/>
<stop offset="1"/>
</radialGradient>
<radialGradient id="paint51_radial_6460_102029" cx="0" cy="0" r="1" gradientUnits="userSpaceOnUse" gradientTransform="translate(76.4598 -135.403) scale(276.098 276.293)">
<stop stop-color="white"/>
<stop offset="1"/>
</radialGradient>
<radialGradient id="paint52_radial_6460_102029" cx="0" cy="0" r="1" gradientUnits="userSpaceOnUse" gradientTransform="translate(76.4575 -135.403) scale(276.1 276.293)">
<stop stop-color="white"/>
<stop offset="1"/>
</radialGradient>
<radialGradient id="paint53_radial_6460_102029" cx="0" cy="0" r="1" gradientUnits="userSpaceOnUse" gradientTransform="translate(76.4572 -135.403) scale(276.1 276.295)">
<stop stop-color="white"/>
<stop offset="1"/>
</radialGradient>
<radialGradient id="paint54_radial_6460_102029" cx="0" cy="0" r="1" gradientUnits="userSpaceOnUse" gradientTransform="translate(76.457 -135.403) scale(276.1 276.293)">
<stop stop-color="white"/>
<stop offset="1"/>
</radialGradient>
<radialGradient id="paint55_radial_6460_102029" cx="0" cy="0" r="1" gradientUnits="userSpaceOnUse" gradientTransform="translate(76.457 -135.399) scale(276.101 276.295)">
<stop stop-color="white"/>
<stop offset="1"/>
</radialGradient>
<radialGradient id="paint56_radial_6460_102029" cx="0" cy="0" r="1" gradientUnits="userSpaceOnUse" gradientTransform="translate(76.46 -135.399) scale(276.101 276.295)">
<stop stop-color="white"/>
<stop offset="1"/>
</radialGradient>
<radialGradient id="paint57_radial_6460_102029" cx="0" cy="0" r="1" gradientUnits="userSpaceOnUse" gradientTransform="translate(76.4567 -135.399) scale(276.101 276.295)">
<stop stop-color="white"/>
<stop offset="1"/>
</radialGradient>
<radialGradient id="paint58_radial_6460_102029" cx="0" cy="0" r="1" gradientUnits="userSpaceOnUse" gradientTransform="translate(76.4557 -135.399) scale(276.102 276.295)">
<stop stop-color="white"/>
<stop offset="1"/>
</radialGradient>
<radialGradient id="paint59_radial_6460_102029" cx="0" cy="0" r="1" gradientUnits="userSpaceOnUse" gradientTransform="translate(76.4566 -135.399) scale(276.098 276.293)">
<stop stop-color="white"/>
<stop offset="1"/>
</radialGradient>
<radialGradient id="paint60_radial_6460_102029" cx="0" cy="0" r="1" gradientUnits="userSpaceOnUse" gradientTransform="translate(76.459 -135.399) scale(276.102 276.295)">
<stop stop-color="white"/>
<stop offset="1"/>
</radialGradient>
<radialGradient id="paint61_radial_6460_102029" cx="0" cy="0" r="1" gradientUnits="userSpaceOnUse" gradientTransform="translate(76.4595 -135.399) scale(276.102 276.295)">
<stop stop-color="white"/>
<stop offset="1"/>
</radialGradient>
<radialGradient id="paint62_radial_6460_102029" cx="0" cy="0" r="1" gradientUnits="userSpaceOnUse" gradientTransform="translate(402.828 488.427) scale(368.961 369.222)">
<stop stop-color="white"/>
<stop offset="1"/>
</radialGradient>
<radialGradient id="paint63_radial_6460_102029" cx="0" cy="0" r="1" gradientUnits="userSpaceOnUse" gradientTransform="translate(402.828 488.427) scale(368.964 369.222)">
<stop stop-color="white"/>
<stop offset="1"/>
</radialGradient>
<radialGradient id="paint64_radial_6460_102029" cx="0" cy="0" r="1" gradientUnits="userSpaceOnUse" gradientTransform="translate(402.828 488.427) scale(368.961 369.222)">
<stop stop-color="white"/>
<stop offset="1"/>
</radialGradient>
<radialGradient id="paint65_radial_6460_102029" cx="0" cy="0" r="1" gradientUnits="userSpaceOnUse" gradientTransform="translate(402.828 488.427) scale(368.964 369.222)">
<stop stop-color="white"/>
<stop offset="1"/>
</radialGradient>
<radialGradient id="paint66_radial_6460_102029" cx="0" cy="0" r="1" gradientUnits="userSpaceOnUse" gradientTransform="translate(76.457 -135.4) scale(276.099 276.293)">
<stop stop-color="white"/>
<stop offset="1"/>
</radialGradient>
<radialGradient id="paint67_radial_6460_102029" cx="0" cy="0" r="1" gradientUnits="userSpaceOnUse" gradientTransform="translate(76.46 -135.4) scale(276.099 276.293)">
<stop stop-color="white"/>
<stop offset="1"/>
</radialGradient>
<radialGradient id="paint68_radial_6460_102029" cx="0" cy="0" r="1" gradientUnits="userSpaceOnUse" gradientTransform="translate(76.4567 -135.4) scale(276.099 276.293)">
<stop stop-color="white"/>
<stop offset="1"/>
</radialGradient>
<radialGradient id="paint69_radial_6460_102029" cx="0" cy="0" r="1" gradientUnits="userSpaceOnUse" gradientTransform="translate(76.4557 -135.4) scale(276.1 276.293)">
<stop stop-color="white"/>
<stop offset="1"/>
</radialGradient>
<radialGradient id="paint70_radial_6460_102029" cx="0" cy="0" r="1" gradientUnits="userSpaceOnUse" gradientTransform="translate(76.4566 -135.4) scale(276.098 276.293)">
<stop stop-color="white"/>
<stop offset="1"/>
</radialGradient>
<radialGradient id="paint71_radial_6460_102029" cx="0" cy="0" r="1" gradientUnits="userSpaceOnUse" gradientTransform="translate(474.506 512.128) scale(356.027 356.276)">
<stop stop-color="white"/>
<stop offset="1"/>
</radialGradient>
<radialGradient id="paint72_radial_6460_102029" cx="0" cy="0" r="1" gradientUnits="userSpaceOnUse" gradientTransform="translate(474.507 512.128) scale(356.03 356.279)">
<stop stop-color="white"/>
<stop offset="1"/>
</radialGradient>
<radialGradient id="paint73_radial_6460_102029" cx="0" cy="0" r="1" gradientUnits="userSpaceOnUse" gradientTransform="translate(474.504 512.128) scale(356.027 356.279)">
<stop stop-color="white"/>
<stop offset="1"/>
</radialGradient>
<radialGradient id="paint74_radial_6460_102029" cx="0" cy="0" r="1" gradientUnits="userSpaceOnUse" gradientTransform="translate(474.505 512.128) scale(356.027 356.276)">
<stop stop-color="white"/>
<stop offset="1"/>
</radialGradient>
<radialGradient id="paint75_radial_6460_102029" cx="0" cy="0" r="1" gradientUnits="userSpaceOnUse" gradientTransform="translate(474.504 512.128) scale(356.027 356.279)">
<stop stop-color="white"/>
<stop offset="1"/>
</radialGradient>
<radialGradient id="paint76_radial_6460_102029" cx="0" cy="0" r="1" gradientUnits="userSpaceOnUse" gradientTransform="translate(474.504 512.128) scale(356.027 356.276)">
<stop stop-color="white"/>
<stop offset="1"/>
</radialGradient>
<radialGradient id="paint77_radial_6460_102029" cx="0" cy="0" r="1" gradientUnits="userSpaceOnUse" gradientTransform="translate(76.457 -135.402) scale(276.099 276.293)">
<stop stop-color="white"/>
<stop offset="1"/>
</radialGradient>
<radialGradient id="paint78_radial_6460_102029" cx="0" cy="0" r="1" gradientUnits="userSpaceOnUse" gradientTransform="translate(76.46 -135.402) scale(276.099 276.293)">
<stop stop-color="white"/>
<stop offset="1"/>
</radialGradient>
<radialGradient id="paint79_radial_6460_102029" cx="0" cy="0" r="1" gradientUnits="userSpaceOnUse" gradientTransform="translate(76.4567 -135.402) scale(276.099 276.293)">
<stop stop-color="white"/>
<stop offset="1"/>
</radialGradient>
<radialGradient id="paint80_radial_6460_102029" cx="0" cy="0" r="1" gradientUnits="userSpaceOnUse" gradientTransform="translate(76.4557 -135.402) scale(276.1 276.293)">
<stop stop-color="white"/>
<stop offset="1"/>
</radialGradient>
<radialGradient id="paint81_radial_6460_102029" cx="0" cy="0" r="1" gradientUnits="userSpaceOnUse" gradientTransform="translate(76.4566 -135.402) scale(276.098 276.293)">
<stop stop-color="white"/>
<stop offset="1"/>
</radialGradient>
<radialGradient id="paint82_radial_6460_102029" cx="0" cy="0" r="1" gradientUnits="userSpaceOnUse" gradientTransform="translate(474.506 512.124) scale(356.027 356.276)">
<stop stop-color="white"/>
<stop offset="1"/>
</radialGradient>
<radialGradient id="paint83_radial_6460_102029" cx="0" cy="0" r="1" gradientUnits="userSpaceOnUse" gradientTransform="translate(474.507 512.124) scale(356.027 356.276)">
<stop stop-color="white"/>
<stop offset="1"/>
</radialGradient>
<radialGradient id="paint84_radial_6460_102029" cx="0" cy="0" r="1" gradientUnits="userSpaceOnUse" gradientTransform="translate(474.504 512.124) scale(356.027 356.279)">
<stop stop-color="white"/>
<stop offset="1"/>
</radialGradient>
<radialGradient id="paint85_radial_6460_102029" cx="0" cy="0" r="1" gradientUnits="userSpaceOnUse" gradientTransform="translate(474.505 512.124) scale(356.027 356.276)">
<stop stop-color="white"/>
<stop offset="1"/>
</radialGradient>
<radialGradient id="paint86_radial_6460_102029" cx="0" cy="0" r="1" gradientUnits="userSpaceOnUse" gradientTransform="translate(474.504 512.124) scale(356.024 356.276)">
<stop stop-color="white"/>
<stop offset="1"/>
</radialGradient>
<radialGradient id="paint87_radial_6460_102029" cx="0" cy="0" r="1" gradientUnits="userSpaceOnUse" gradientTransform="translate(474.504 512.124) scale(356.03 356.279)">
<stop stop-color="white"/>
<stop offset="1"/>
</radialGradient>
<radialGradient id="paint88_radial_6460_102029" cx="0" cy="0" r="1" gradientUnits="userSpaceOnUse" gradientTransform="translate(76.457 -135.401) scale(276.099 276.293)">
<stop stop-color="white"/>
<stop offset="1"/>
</radialGradient>
<radialGradient id="paint89_radial_6460_102029" cx="0" cy="0" r="1" gradientUnits="userSpaceOnUse" gradientTransform="translate(76.46 -135.401) scale(276.099 276.293)">
<stop stop-color="white"/>
<stop offset="1"/>
</radialGradient>
<radialGradient id="paint90_radial_6460_102029" cx="0" cy="0" r="1" gradientUnits="userSpaceOnUse" gradientTransform="translate(76.4567 -135.401) scale(276.099 276.293)">
<stop stop-color="white"/>
<stop offset="1"/>
</radialGradient>
<radialGradient id="paint91_radial_6460_102029" cx="0" cy="0" r="1" gradientUnits="userSpaceOnUse" gradientTransform="translate(76.4557 -135.401) scale(276.1 276.293)">
<stop stop-color="white"/>
<stop offset="1"/>
</radialGradient>
<radialGradient id="paint92_radial_6460_102029" cx="0" cy="0" r="1" gradientUnits="userSpaceOnUse" gradientTransform="translate(76.4566 -135.401) scale(276.098 276.293)">
<stop stop-color="white"/>
<stop offset="1"/>
</radialGradient>
<radialGradient id="paint93_radial_6460_102029" cx="0" cy="0" r="1" gradientUnits="userSpaceOnUse" gradientTransform="translate(474.506 512.127) scale(356.027 356.276)">
<stop stop-color="white"/>
<stop offset="1"/>
</radialGradient>
<radialGradient id="paint94_radial_6460_102029" cx="0" cy="0" r="1" gradientUnits="userSpaceOnUse" gradientTransform="translate(474.507 512.127) scale(356.03 356.279)">
<stop stop-color="white"/>
<stop offset="1"/>
</radialGradient>
<radialGradient id="paint95_radial_6460_102029" cx="0" cy="0" r="1" gradientUnits="userSpaceOnUse" gradientTransform="translate(474.504 512.127) scale(356.024 356.276)">
<stop stop-color="white"/>
<stop offset="1"/>
</radialGradient>
<radialGradient id="paint96_radial_6460_102029" cx="0" cy="0" r="1" gradientUnits="userSpaceOnUse" gradientTransform="translate(474.505 512.127) scale(356.027 356.276)">
<stop stop-color="white"/>
<stop offset="1"/>
</radialGradient>
<radialGradient id="paint97_radial_6460_102029" cx="0" cy="0" r="1" gradientUnits="userSpaceOnUse" gradientTransform="translate(474.504 512.127) scale(356.024 356.276)">
<stop stop-color="white"/>
<stop offset="1"/>
</radialGradient>
<radialGradient id="paint98_radial_6460_102029" cx="0" cy="0" r="1" gradientUnits="userSpaceOnUse" gradientTransform="translate(474.504 512.127) scale(356.03 356.279)">
<stop stop-color="white"/>
<stop offset="1"/>
</radialGradient>
<radialGradient id="paint99_radial_6460_102029" cx="0" cy="0" r="1" gradientUnits="userSpaceOnUse" gradientTransform="translate(76.457 -135.399) scale(276.099 276.293)">
<stop stop-color="white"/>
<stop offset="1"/>
</radialGradient>
<radialGradient id="paint100_radial_6460_102029" cx="0" cy="0" r="1" gradientUnits="userSpaceOnUse" gradientTransform="translate(76.46 -135.399) scale(276.099 276.293)">
<stop stop-color="white"/>
<stop offset="1"/>
</radialGradient>
<radialGradient id="paint101_radial_6460_102029" cx="0" cy="0" r="1" gradientUnits="userSpaceOnUse" gradientTransform="translate(76.4567 -135.399) scale(276.099 276.293)">
<stop stop-color="white"/>
<stop offset="1"/>
</radialGradient>
<radialGradient id="paint102_radial_6460_102029" cx="0" cy="0" r="1" gradientUnits="userSpaceOnUse" gradientTransform="translate(76.4557 -135.399) scale(276.1 276.293)">
<stop stop-color="white"/>
<stop offset="1"/>
</radialGradient>
<radialGradient id="paint103_radial_6460_102029" cx="0" cy="0" r="1" gradientUnits="userSpaceOnUse" gradientTransform="translate(76.4566 -135.399) scale(276.098 276.293)">
<stop stop-color="white"/>
<stop offset="1"/>
</radialGradient>
<radialGradient id="paint104_radial_6460_102029" cx="0" cy="0" r="1" gradientUnits="userSpaceOnUse" gradientTransform="translate(474.506 512.129) scale(356.03 356.279)">
<stop stop-color="white"/>
<stop offset="1"/>
</radialGradient>
<radialGradient id="paint105_radial_6460_102029" cx="0" cy="0" r="1" gradientUnits="userSpaceOnUse" gradientTransform="translate(474.507 512.129) scale(356.027 356.276)">
<stop stop-color="white"/>
<stop offset="1"/>
</radialGradient>
<radialGradient id="paint106_radial_6460_102029" cx="0" cy="0" r="1" gradientUnits="userSpaceOnUse" gradientTransform="translate(474.504 512.129) scale(356.024 356.276)">
<stop stop-color="white"/>
<stop offset="1"/>
</radialGradient>
<radialGradient id="paint107_radial_6460_102029" cx="0" cy="0" r="1" gradientUnits="userSpaceOnUse" gradientTransform="translate(474.505 512.129) scale(356.03 356.279)">
<stop stop-color="white"/>
<stop offset="1"/>
</radialGradient>
<radialGradient id="paint108_radial_6460_102029" cx="0" cy="0" r="1" gradientUnits="userSpaceOnUse" gradientTransform="translate(474.504 512.129) scale(356.027 356.279)">
<stop stop-color="white"/>
<stop offset="1"/>
</radialGradient>
<radialGradient id="paint109_radial_6460_102029" cx="0" cy="0" r="1" gradientUnits="userSpaceOnUse" gradientTransform="translate(474.504 512.129) scale(356.027 356.276)">
<stop stop-color="white"/>
<stop offset="1"/>
</radialGradient>
<radialGradient id="paint110_radial_6460_102029" cx="0" cy="0" r="1" gradientUnits="userSpaceOnUse" gradientTransform="translate(76.457 -135.398) scale(276.099 276.293)">
<stop stop-color="white"/>
<stop offset="1"/>
</radialGradient>
<radialGradient id="paint111_radial_6460_102029" cx="0" cy="0" r="1" gradientUnits="userSpaceOnUse" gradientTransform="translate(76.46 -135.398) scale(276.099 276.293)">
<stop stop-color="white"/>
<stop offset="1"/>
</radialGradient>
<radialGradient id="paint112_radial_6460_102029" cx="0" cy="0" r="1" gradientUnits="userSpaceOnUse" gradientTransform="translate(76.4567 -135.398) scale(276.099 276.293)">
<stop stop-color="white"/>
<stop offset="1"/>
</radialGradient>
<radialGradient id="paint113_radial_6460_102029" cx="0" cy="0" r="1" gradientUnits="userSpaceOnUse" gradientTransform="translate(76.4557 -135.398) scale(276.1 276.293)">
<stop stop-color="white"/>
<stop offset="1"/>
</radialGradient>
<radialGradient id="paint114_radial_6460_102029" cx="0" cy="0" r="1" gradientUnits="userSpaceOnUse" gradientTransform="translate(76.4566 -135.398) scale(276.098 276.293)">
<stop stop-color="white"/>
<stop offset="1"/>
</radialGradient>
<radialGradient id="paint115_radial_6460_102029" cx="0" cy="0" r="1" gradientUnits="userSpaceOnUse" gradientTransform="translate(474.506 512.13) scale(356.027 356.276)">
<stop stop-color="white"/>
<stop offset="1"/>
</radialGradient>
<radialGradient id="paint116_radial_6460_102029" cx="0" cy="0" r="1" gradientUnits="userSpaceOnUse" gradientTransform="translate(474.507 512.13) scale(356.03 356.279)">
<stop stop-color="white"/>
<stop offset="1"/>
</radialGradient>
<radialGradient id="paint117_radial_6460_102029" cx="0" cy="0" r="1" gradientUnits="userSpaceOnUse" gradientTransform="translate(474.504 512.13) scale(356.024 356.276)">
<stop stop-color="white"/>
<stop offset="1"/>
</radialGradient>
<radialGradient id="paint118_radial_6460_102029" cx="0" cy="0" r="1" gradientUnits="userSpaceOnUse" gradientTransform="translate(474.505 512.13) scale(356.03 356.279)">
<stop stop-color="white"/>
<stop offset="1"/>
</radialGradient>
<radialGradient id="paint119_radial_6460_102029" cx="0" cy="0" r="1" gradientUnits="userSpaceOnUse" gradientTransform="translate(474.504 512.13) scale(356.027 356.279)">
<stop stop-color="white"/>
<stop offset="1"/>
</radialGradient>
<radialGradient id="paint120_radial_6460_102029" cx="0" cy="0" r="1" gradientUnits="userSpaceOnUse" gradientTransform="translate(474.504 512.13) scale(356.027 356.276)">
<stop stop-color="white"/>
<stop offset="1"/>
</radialGradient>
<radialGradient id="paint121_radial_6460_102029" cx="0" cy="0" r="1" gradientUnits="userSpaceOnUse" gradientTransform="translate(76.4575 -36.7253) scale(276.1 276.293)">
<stop stop-color="white"/>
<stop offset="1"/>
</radialGradient>
<radialGradient id="paint122_radial_6460_102029" cx="0" cy="0" r="1" gradientUnits="userSpaceOnUse" gradientTransform="translate(76.4575 -135.398) scale(276.1 276.293)">
<stop stop-color="white"/>
<stop offset="1"/>
</radialGradient>
<radialGradient id="paint123_radial_6460_102029" cx="0" cy="0" r="1" gradientUnits="userSpaceOnUse" gradientTransform="translate(76.4575 -135.4) scale(276.1 276.293)">
<stop stop-color="white"/>
<stop offset="1"/>
</radialGradient>
<radialGradient id="paint124_radial_6460_102029" cx="0" cy="0" r="1" gradientUnits="userSpaceOnUse" gradientTransform="translate(76.4575 -135.395) scale(276.1 276.293)">
<stop stop-color="white"/>
<stop offset="1"/>
</radialGradient>
<radialGradient id="paint125_radial_6460_102029" cx="0" cy="0" r="1" gradientUnits="userSpaceOnUse" gradientTransform="translate(76.4575 -135.403) scale(276.1 276.293)">
<stop stop-color="white"/>
<stop offset="1"/>
</radialGradient>
<radialGradient id="paint126_radial_6460_102029" cx="0" cy="0" r="1" gradientUnits="userSpaceOnUse" gradientTransform="translate(402.828 488.427) scale(368.964 369.222)">
<stop stop-color="white"/>
<stop offset="1"/>
</radialGradient>
<radialGradient id="paint127_radial_6460_102029" cx="0" cy="0" r="1" gradientUnits="userSpaceOnUse" gradientTransform="translate(474.505 512.128) scale(356.027 356.276)">
<stop stop-color="white"/>
<stop offset="1"/>
</radialGradient>
<radialGradient id="paint128_radial_6460_102029" cx="0" cy="0" r="1" gradientUnits="userSpaceOnUse" gradientTransform="translate(474.505 512.124) scale(356.03 356.279)">
<stop stop-color="white"/>
<stop offset="1"/>
</radialGradient>
<radialGradient id="paint129_radial_6460_102029" cx="0" cy="0" r="1" gradientUnits="userSpaceOnUse" gradientTransform="translate(474.505 512.127) scale(356.027 356.276)">
<stop stop-color="white"/>
<stop offset="1"/>
</radialGradient>
<radialGradient id="paint130_radial_6460_102029" cx="0" cy="0" r="1" gradientUnits="userSpaceOnUse" gradientTransform="translate(474.505 512.129) scale(356.03 356.279)">
<stop stop-color="white"/>
<stop offset="1"/>
</radialGradient>
<radialGradient id="paint131_radial_6460_102029" cx="0" cy="0" r="1" gradientUnits="userSpaceOnUse" gradientTransform="translate(474.505 512.13) scale(356.027 356.276)">
<stop stop-color="white"/>
<stop offset="1"/>
</radialGradient>
<clipPath id="clip0_6460_102029">
<rect width="390" height="330" rx="10" fill="white"/>
</clipPath>
</defs>
</svg>
