<svg width="523" height="596" viewBox="0 0 523 596" fill="none" xmlns="http://www.w3.org/2000/svg">
<g filter="url(#filter0_b_4190_19384)">
<path d="M195.641 575.82C193.766 577.693 191.225 578.744 188.575 578.744L63.0656 578.744C60.4156 578.744 57.8739 577.692 55.9989 575.82L33.8905 553.738L15.7245 535.594L12.9334 532.806C11.0555 530.931 10.0003 528.385 10.0003 525.731L10.0003 299.28C10.0003 296.626 11.0555 294.081 12.9335 292.205L22.7723 282.378C24.6503 280.502 25.7055 277.957 25.7055 275.303L25.7055 48.4563C25.7055 45.8023 26.7605 43.2572 28.6382 41.3816L44.9387 25.0981C46.8137 23.225 49.3557 22.1728 52.006 22.1728L148.18 22.1729C150.83 22.1729 153.372 21.1209 155.247 19.2482L169.588 4.92466C171.463 3.05191 174.004 2 176.654 2L467.042 2C472.565 2 477.042 6.47715 477.042 12L477.042 21.422C477.042 26.9448 481.52 31.422 487.042 31.422L496.5 31.422C502.023 31.422 506.5 35.8992 506.5 41.422L506.5 355.043C506.5 357.698 505.445 360.243 503.567 362.118L467.724 397.921C465.846 399.797 464.791 402.342 464.791 404.996L464.791 480.941C464.791 481.455 465.211 481.867 465.725 481.867C466.038 481.867 466.348 481.867 466.658 481.874C471.359 481.953 475.922 482.613 480.276 483.784C481.837 484.205 483.372 484.69 484.873 485.242C506.295 493.067 521.619 513.627 521.619 537.694C521.619 568.477 496.545 593.521 465.725 593.521C440.949 593.521 419.886 577.338 412.575 554.999C412.067 553.447 411.626 551.866 411.253 550.258C410.386 546.51 409.901 542.617 409.834 538.626C409.83 538.317 409.826 538.007 409.826 537.694C409.826 537.181 409.415 536.761 408.901 536.761L238.889 536.761C236.239 536.761 233.698 537.813 231.823 539.686L195.641 575.82Z" fill="white" fill-opacity="0.1"/>
</g>
<path d="M15.6647 538.099L8.07342 530.517L8.07343 294.224L23.7787 278.537L23.7787 43.4002L44.106 23.0975C45.981 21.2248 48.5227 20.1729 51.1728 20.1729L58.9084 20.1729L59.9277 20.7957L58.6843 22.0376L35.0741 45.6192L35.0741 85.4913L43.4757 93.8826L43.4757 186.493L28.5284 201.423L28.5284 294.224L15.6647 307.072L15.6647 538.099Z" fill="#DEDEDE"/>
<path d="M403.539 38C404.92 38 406.039 39.1193 406.039 40.5C406.039 41.8807 404.92 43 403.539 43L299.61 43C298.284 43 297.012 42.4732 296.075 41.5355L289.003 34.4636C288.066 33.5264 286.795 32.9997 285.469 32.9991L89.9581 32.9184C86.8668 32.9171 85.3293 29.1708 87.5285 26.9983C88.176 26.3587 89.0494 26 89.9595 26L157.608 26C158.934 26 160.206 25.4732 161.144 24.5355L164.214 21.4645C165.152 20.5268 166.424 20 167.75 20L224.413 20C225.733 20 227 20.5224 227.937 21.4531L235.077 28.5469C236.013 29.4776 237.28 30 238.601 30L295.468 30C296.794 30 298.066 30.5268 299.004 31.4645L304.075 36.5355C305.012 37.4732 306.284 38 307.61 38L403.539 38Z" fill="#DEDEDE"/>
<path d="M407.5 531.998H237.642C234.99 531.998 232.446 530.944 230.571 529.069L214.339 512.836C212.464 510.961 209.92 509.908 207.268 509.908H57.6235C54.9713 509.908 52.4278 508.854 50.5524 506.979L36.0149 492.441C34.1395 490.566 33.0859 488.022 33.0859 485.37L33.0859 348.399C33.0859 345.747 34.1395 343.203 36.0149 341.328L51.4139 325.929C53.2893 324.054 55.8329 323 58.485 323H69.5391H123.539H443C448.523 323 453 327.477 453 333V481" stroke="#DEDEDE" stroke-miterlimit="10" stroke-linecap="round"/>
<path d="M409.659 554.863C409.657 554.863 409.656 554.865 409.657 554.867C417.032 578.249 438.95 595.25 464.766 595.25C496.613 595.25 522.527 569.371 522.527 537.558C522.527 514.95 509.439 495.338 490.433 485.883C486.634 483.993 483.914 480.288 483.914 476.044L483.914 434.665C483.914 432.01 482.858 429.464 480.979 427.588L476.423 423.039C474.544 421.163 473.488 418.617 473.488 415.962L473.488 411.489C473.488 408.835 474.544 406.289 476.422 404.413L517.066 363.818C518.944 361.942 519.999 359.397 519.999 356.743L519.999 290.791C519.999 288.137 518.944 285.591 517.066 283.716L510.342 276.999C508.464 275.124 507.408 272.578 507.408 269.924L507.408 10C507.408 4.47716 502.931 -8.56285e-07 497.408 -1.09734e-06L175.818 -1.51336e-05C173.168 -1.52492e-05 170.626 1.05215 168.751 2.92529L152.5 19.1597C151.85 19.8084 150.97 20.1728 150.052 20.1728C146.965 20.1728 145.421 16.4403 147.604 14.2591L149.633 12.2327C152.565 9.30419 150.491 4.29263 146.347 4.29263L145.94 4.29263C144.664 4.29263 143.439 4.79948 142.535 5.70183L128.964 19.2572C128.377 19.8435 127.581 20.1728 126.751 20.1728C123.961 20.1728 122.564 16.7986 124.539 14.8268L127.136 12.2327C130.068 9.30418 127.994 4.29263 123.85 4.29263L123.443 4.29263C122.166 4.29263 120.941 4.79948 120.038 5.70184L106.466 19.2572C105.879 19.8435 105.083 20.1728 104.254 20.1728C101.463 20.1728 100.067 16.7985 102.041 14.8268L104.638 12.2327C107.57 9.30419 105.496 4.29263 101.352 4.29263L100.946 4.29263C99.6687 4.29263 98.444 4.79948 97.5405 5.70183L83.9688 19.2572C83.3817 19.8435 82.586 20.1728 81.7563 20.1728C78.966 20.1728 77.5695 16.7985 79.5437 14.8267L82.1409 12.2327C85.073 9.30418 82.9989 4.29263 78.8548 4.29263L78.4481 4.29263C77.1712 4.29263 75.9465 4.79948 75.0431 5.70183L63.4827 17.2482C61.6077 19.1209 59.066 20.1728 56.416 20.1728L51.176 20.1728C48.5259 20.1728 45.9842 21.2247 44.1092 23.0975L26.7151 40.4705C24.8372 42.3462 23.7819 44.8915 23.7819 47.5458L23.7819 274.392C23.7819 277.046 22.7267 279.591 20.8487 281.467L8.07665 294.224L2.93321 299.361C1.05522 301.237 -1.32787e-05 303.782 -1.33948e-05 306.436L-2.32212e-05 531.239C-2.33372e-05 533.893 1.05521 536.438 2.9332 538.314L17.1869 552.55C19.0619 554.423 21.6036 555.475 24.2537 555.475L28.9265 555.475C31.5763 555.475 34.1178 556.527 35.9928 558.399L55.1694 577.55C57.0444 579.422 59.5859 580.474 62.2357 580.474L134.92 580.474C137.57 580.474 140.112 581.526 141.987 583.398L148.382 589.786C150.257 591.658 152.798 592.71 155.448 592.71L183.9 592.71C186.55 592.71 189.091 591.658 190.966 589.786L223.007 557.788C224.882 555.915 227.423 554.863 230.073 554.863L409.659 554.863ZM194.928 575.685C193.053 577.557 190.512 578.609 187.862 578.609L63.0053 578.609C60.3553 578.609 57.8135 577.557 55.9385 575.684L33.8301 553.603L15.6642 535.459L12.8731 532.671C10.9952 530.795 9.93992 528.25 9.93992 525.596L9.93993 299.145C9.93993 296.491 10.9952 293.945 12.8731 292.07L22.712 282.243C24.59 280.367 25.6452 277.822 25.6452 275.167L25.6452 48.321C25.6452 45.6671 26.7002 43.122 28.5778 41.2463L44.8783 24.9628C46.7534 23.0897 49.2953 22.0376 51.9457 22.0376L148.12 22.0376C150.77 22.0376 153.311 20.9857 155.186 19.1129L169.527 4.78939C171.402 2.91664 173.944 1.86473 176.594 1.86473L375 1.86475C380.523 1.86475 385 6.3419 385 11.8647L385 27C385 32.5228 389.477 37 395 37L495.541 37C501.064 37 505.541 41.4772 505.541 47L505.541 354.908C505.541 357.562 504.486 360.108 502.608 361.983L466.765 397.786C464.887 399.662 463.832 402.207 463.832 404.861L463.832 480.806C463.832 481.319 464.252 481.732 464.766 481.732C465.079 481.732 465.389 481.732 465.699 481.739C470.4 481.817 474.963 482.478 479.317 483.649C480.878 484.07 482.413 484.555 483.914 485.107C505.336 492.931 520.66 513.492 520.66 537.558C520.66 568.342 495.586 593.385 464.766 593.385C439.991 593.385 418.927 577.203 411.616 554.863C411.108 553.312 410.667 551.731 410.294 550.123C409.428 546.375 408.942 542.481 408.875 538.491C408.871 538.181 408.868 537.872 408.868 537.558C408.868 537.045 408.456 536.626 407.943 536.626L238.176 536.626C235.526 536.626 232.984 537.678 231.109 539.55L194.928 575.685Z" fill="#61646B"/>
<path d="M409.659 554.863C409.657 554.863 409.656 554.865 409.657 554.867C417.032 578.249 438.95 595.25 464.766 595.25C496.613 595.25 522.527 569.371 522.527 537.558C522.527 514.95 509.439 495.338 490.433 485.883C486.634 483.993 483.914 480.288 483.914 476.044L483.914 434.665C483.914 432.01 482.858 429.464 480.979 427.588L476.423 423.039C474.544 421.163 473.488 418.617 473.488 415.962L473.488 411.489C473.488 408.835 474.544 406.289 476.422 404.413L517.066 363.818C518.944 361.942 519.999 359.397 519.999 356.743L519.999 290.791C519.999 288.137 518.944 285.591 517.066 283.716L510.342 276.999C508.464 275.124 507.408 272.578 507.408 269.924L507.408 10C507.408 4.47716 502.931 -8.56285e-07 497.408 -1.09734e-06L175.818 -1.51336e-05C173.168 -1.52492e-05 170.626 1.05215 168.751 2.92529L152.5 19.1597C151.85 19.8084 150.97 20.1728 150.052 20.1728C146.965 20.1728 145.421 16.4403 147.604 14.2591L149.633 12.2327C152.565 9.30419 150.491 4.29263 146.347 4.29263L145.94 4.29263C144.664 4.29263 143.439 4.79948 142.535 5.70183L128.964 19.2572C128.377 19.8435 127.581 20.1728 126.751 20.1728C123.961 20.1728 122.564 16.7986 124.539 14.8268L127.136 12.2327C130.068 9.30418 127.994 4.29263 123.85 4.29263L123.443 4.29263C122.166 4.29263 120.941 4.79948 120.038 5.70184L106.466 19.2572C105.879 19.8435 105.083 20.1728 104.254 20.1728C101.463 20.1728 100.067 16.7985 102.041 14.8268L104.638 12.2327C107.57 9.30419 105.496 4.29263 101.352 4.29263L100.946 4.29263C99.6687 4.29263 98.444 4.79948 97.5405 5.70183L83.9688 19.2572C83.3817 19.8435 82.586 20.1728 81.7563 20.1728C78.966 20.1728 77.5695 16.7985 79.5437 14.8267L82.1409 12.2327C85.073 9.30418 82.9989 4.29263 78.8548 4.29263L78.4481 4.29263C77.1712 4.29263 75.9465 4.79948 75.0431 5.70183L63.4827 17.2482C61.6077 19.1209 59.066 20.1728 56.416 20.1728L51.176 20.1728C48.5259 20.1728 45.9842 21.2247 44.1092 23.0975L26.7151 40.4705C24.8372 42.3462 23.7819 44.8915 23.7819 47.5458L23.7819 274.392C23.7819 277.046 22.7267 279.591 20.8487 281.467L8.07665 294.224L2.93321 299.361C1.05522 301.237 -1.32787e-05 303.782 -1.33948e-05 306.436L-2.32212e-05 531.239C-2.33372e-05 533.893 1.05521 536.438 2.9332 538.314L17.1869 552.55C19.0619 554.423 21.6036 555.475 24.2537 555.475L28.9265 555.475C31.5763 555.475 34.1178 556.527 35.9928 558.399L55.1694 577.55C57.0444 579.422 59.5859 580.474 62.2357 580.474L134.92 580.474C137.57 580.474 140.112 581.526 141.987 583.398L148.382 589.786C150.257 591.658 152.798 592.71 155.448 592.71L183.9 592.71C186.55 592.71 189.091 591.658 190.966 589.786L223.007 557.788C224.882 555.915 227.423 554.863 230.073 554.863L409.659 554.863ZM194.928 575.685C193.053 577.557 190.512 578.609 187.862 578.609L63.0053 578.609C60.3553 578.609 57.8135 577.557 55.9385 575.684L33.8301 553.603L15.6642 535.459L12.8731 532.671C10.9952 530.795 9.93992 528.25 9.93992 525.596L9.93993 299.145C9.93993 296.491 10.9952 293.945 12.8731 292.07L22.712 282.243C24.59 280.367 25.6452 277.822 25.6452 275.167L25.6452 48.321C25.6452 45.6671 26.7002 43.122 28.5778 41.2463L44.8783 24.9628C46.7534 23.0897 49.2953 22.0376 51.9457 22.0376L148.12 22.0376C150.77 22.0376 153.311 20.9857 155.186 19.1129L169.527 4.78939C171.402 2.91664 173.944 1.86473 176.594 1.86473L375 1.86475C380.523 1.86475 385 6.3419 385 11.8647L385 27C385 32.5228 389.477 37 395 37L495.541 37C501.064 37 505.541 41.4772 505.541 47L505.541 354.908C505.541 357.562 504.486 360.108 502.608 361.983L466.765 397.786C464.887 399.662 463.832 402.207 463.832 404.861L463.832 480.806C463.832 481.319 464.252 481.732 464.766 481.732C465.079 481.732 465.389 481.732 465.699 481.739C470.4 481.817 474.963 482.478 479.317 483.649C480.878 484.07 482.413 484.555 483.914 485.107C505.336 492.931 520.66 513.492 520.66 537.558C520.66 568.342 495.586 593.385 464.766 593.385C439.991 593.385 418.927 577.203 411.616 554.863C411.108 553.312 410.667 551.731 410.294 550.123C409.428 546.375 408.942 542.481 408.875 538.491C408.871 538.181 408.868 537.872 408.868 537.558C408.868 537.045 408.456 536.626 407.943 536.626L238.176 536.626C235.526 536.626 232.984 537.678 231.109 539.55L194.928 575.685Z" fill="black" fill-opacity="0.2"/>
<defs>
<filter id="filter0_b_4190_19384" x="-10" y="-18" width="551.619" height="631.521" filterUnits="userSpaceOnUse" color-interpolation-filters="sRGB">
<feFlood flood-opacity="0" result="BackgroundImageFix"/>
<feGaussianBlur in="BackgroundImageFix" stdDeviation="10"/>
<feComposite in2="SourceAlpha" operator="in" result="effect1_backgroundBlur_4190_19384"/>
<feBlend mode="normal" in="SourceGraphic" in2="effect1_backgroundBlur_4190_19384" result="shape"/>
</filter>
</defs>
</svg>
