<svg width="523" height="596" viewBox="0 0 523 596" fill="none" xmlns="http://www.w3.org/2000/svg">
<g filter="url(#filter0_b_3971_11197)">
<path d="M196.102 575.82C194.227 577.693 191.686 578.744 189.036 578.744L63.5266 578.744C60.8765 578.744 58.3348 577.692 56.4598 575.82L34.3514 553.738L16.1854 535.594L13.3944 532.806C11.5164 530.931 10.4612 528.385 10.4612 525.731L10.4612 299.28C10.4612 296.626 11.5164 294.081 13.3944 292.205L23.2333 282.378C25.1112 280.502 26.1665 277.957 26.1665 275.303L26.1665 48.4563C26.1665 45.8023 27.2215 43.2572 29.0991 41.3816L45.3996 25.0981C47.2747 23.225 49.8166 22.1728 52.4669 22.1728L148.641 22.1729C151.291 22.1729 153.833 21.1209 155.708 19.2482L170.049 4.92466C171.924 3.05191 174.465 2 177.115 2L467.503 2C473.026 2 477.503 6.47715 477.503 12L477.503 21.422C477.503 26.9448 481.981 31.422 487.503 31.422L496.961 31.422C502.484 31.422 506.961 35.8992 506.961 41.422L506.961 355.043C506.961 357.698 505.906 360.243 504.028 362.118L468.185 397.921C466.307 399.797 465.252 402.342 465.252 404.996L465.252 480.941C465.252 481.455 465.672 481.867 466.186 481.867C466.499 481.867 466.809 481.867 467.119 481.874C471.82 481.953 476.383 482.613 480.737 483.784C482.298 484.205 483.833 484.69 485.334 485.242C506.756 493.067 522.08 513.627 522.08 537.694C522.08 568.477 497.006 593.521 466.186 593.521C441.41 593.521 420.347 577.338 413.036 554.999C412.528 553.447 412.087 551.866 411.714 550.258C410.847 546.51 410.362 542.617 410.295 538.626C410.291 538.317 410.287 538.007 410.287 537.694C410.287 537.181 409.876 536.761 409.362 536.761L239.35 536.761C236.7 536.761 234.159 537.813 232.284 539.686L196.102 575.82Z" fill="white" fill-opacity="0.1"/>
</g>
<path d="M16.1256 538.099L8.53436 530.517L8.53437 294.224L24.2396 278.537L24.2397 43.4002L44.5669 23.0975C46.4419 21.2248 48.9836 20.1729 51.6337 20.1729L59.3693 20.1729L60.3887 20.7957L59.1452 22.0376L35.5351 45.6192L35.5351 85.4913L43.9366 93.8826L43.9366 186.493L28.9893 201.423L28.9893 294.224L16.1256 307.072L16.1256 538.099Z" fill="#DEDEDE"/>
<path d="M404 38C405.381 38 406.5 39.1193 406.5 40.5C406.5 41.8807 405.381 43 404 43L300.071 43C298.745 43 297.473 42.4732 296.536 41.5355L289.464 34.4636C288.526 33.5264 287.256 32.9997 285.93 32.9991L90.419 32.9184C87.3277 32.9171 85.7902 29.1708 87.9894 26.9983C88.6369 26.3587 89.5104 26 90.4205 26L158.069 26C159.395 26 160.667 25.4732 161.604 24.5355L164.675 21.4645C165.613 20.5268 166.885 20 168.211 20L224.874 20C226.194 20 227.461 20.5224 228.398 21.4531L235.538 28.5469C236.474 29.4776 237.741 30 239.062 30L295.929 30C297.255 30 298.527 30.5268 299.464 31.4645L304.536 36.5355C305.473 37.4732 306.745 38 308.071 38L404 38Z" fill="#DEDEDE"/>
<path d="M407.961 531.998H238.103C235.451 531.998 232.907 530.944 231.032 529.069L214.8 512.836C212.924 510.961 210.381 509.908 207.729 509.908H58.0844C55.4323 509.908 52.8887 508.854 51.0134 506.979L36.4758 492.441C34.6004 490.566 33.5469 488.022 33.5469 485.37L33.5469 348.399C33.5469 345.747 34.6004 343.203 36.4758 341.328L51.8749 325.929C53.7503 324.054 56.2938 323 58.946 323H70H124H443.461C448.984 323 453.461 327.477 453.461 333V481" stroke="#DEDEDE" stroke-miterlimit="10" stroke-linecap="round"/>
<path d="M410.12 554.863C410.118 554.863 410.117 554.865 410.118 554.867C417.493 578.249 439.411 595.25 465.227 595.25C497.074 595.25 522.988 569.371 522.988 537.558C522.988 514.95 509.9 495.338 490.894 485.883C487.095 483.993 484.375 480.288 484.375 476.044L484.375 434.665C484.375 432.01 483.319 429.464 481.44 427.588L476.884 423.039C475.005 421.163 473.949 418.617 473.949 415.962L473.949 411.489C473.949 408.835 475.005 406.289 476.883 404.413L517.527 363.818C519.405 361.942 520.46 359.397 520.46 356.743L520.46 290.791C520.46 288.137 519.405 285.591 517.527 283.716L510.802 276.999C508.924 275.124 507.869 272.578 507.869 269.924L507.869 10C507.869 4.47716 503.392 -8.56285e-07 497.869 -1.09734e-06L176.279 -1.51336e-05C173.629 -1.52492e-05 171.087 1.05215 169.212 2.92529L152.96 19.1597C152.311 19.8084 151.431 20.1728 150.513 20.1728C147.426 20.1728 145.882 16.4403 148.065 14.2591L150.094 12.2327C153.026 9.30419 150.952 4.29263 146.808 4.29263L146.401 4.29263C145.125 4.29263 143.9 4.79948 142.996 5.70183L129.425 19.2572C128.838 19.8435 128.042 20.1728 127.212 20.1728C124.422 20.1728 123.025 16.7986 125 14.8268L127.597 12.2327C130.529 9.30418 128.455 4.29263 124.311 4.29263L123.904 4.29263C122.627 4.29263 121.402 4.79948 120.499 5.70184L106.927 19.2572C106.34 19.8435 105.544 20.1728 104.715 20.1728C101.924 20.1728 100.528 16.7985 102.502 14.8268L105.099 12.2327C108.031 9.30419 105.957 4.29263 101.813 4.29263L101.406 4.29263C100.13 4.29263 98.9049 4.79948 98.0015 5.70183L84.4297 19.2572C83.8427 19.8435 83.0469 20.1728 82.2172 20.1728C79.427 20.1728 78.0305 16.7985 80.0047 14.8267L82.6018 12.2327C85.5339 9.30418 83.4598 4.29263 79.3157 4.29263L78.909 4.29263C77.6321 4.29263 76.4075 4.79948 75.504 5.70183L63.9437 17.2482C62.0687 19.1209 59.5269 20.1728 56.8769 20.1728L51.6369 20.1728C48.9868 20.1728 46.4451 21.2247 44.5701 23.0975L27.1761 40.4705C25.2981 42.3462 24.2429 44.8915 24.2429 47.5458L24.2429 274.392C24.2429 277.046 23.1876 279.591 21.3096 281.467L8.53758 294.224L3.39415 299.361C1.51616 301.237 0.460924 303.782 0.460924 306.436L0.460914 531.239C0.460914 533.893 1.51615 536.438 3.39414 538.314L17.6479 552.55C19.5229 554.423 22.0646 555.475 24.7146 555.475L29.3875 555.475C32.0373 555.475 34.5787 556.527 36.4537 558.399L55.6304 577.55C57.5053 579.422 60.0468 580.474 62.6966 580.474L135.381 580.474C138.031 580.474 140.573 581.526 142.448 583.398L148.843 589.786C150.718 591.658 153.259 592.71 155.909 592.71L184.361 592.71C187.011 592.71 189.552 591.658 191.427 589.786L223.468 557.788C225.343 555.915 227.884 554.863 230.534 554.863L410.12 554.863ZM195.389 575.685C193.514 577.557 190.973 578.609 188.323 578.609L63.4663 578.609C60.8162 578.609 58.2745 577.557 56.3995 575.684L34.2911 553.603L16.1251 535.459L13.3341 532.671C11.4561 530.795 10.4009 528.25 10.4009 525.596L10.4009 299.145C10.4009 296.491 11.4561 293.945 13.3341 292.07L23.1729 282.243C25.0509 280.367 26.1061 277.822 26.1061 275.167L26.1061 48.321C26.1061 45.6671 27.1611 43.122 29.0388 41.2463L45.3393 24.9628C47.2143 23.0897 49.7563 22.0376 52.4066 22.0376L148.581 22.0376C151.231 22.0376 153.772 20.9857 155.647 19.1129L169.988 4.78939C171.863 2.91664 174.405 1.86473 177.055 1.86473L466.545 1.86475C472.067 1.86475 476.545 6.3419 476.545 11.8647L476.545 21.2867C476.545 26.8096 481.022 31.2867 486.545 31.2867L496.002 31.2867C501.525 31.2867 506.002 35.7639 506.002 41.2867L506.002 354.908C506.002 357.562 504.947 360.108 503.069 361.983L467.226 397.786C465.348 399.662 464.293 402.207 464.293 404.861L464.293 480.806C464.293 481.319 464.713 481.732 465.227 481.732C465.54 481.732 465.85 481.732 466.16 481.739C470.861 481.817 475.424 482.478 479.778 483.649C481.339 484.07 482.874 484.555 484.375 485.107C505.797 492.931 521.121 513.492 521.121 537.558C521.121 568.342 496.047 593.385 465.227 593.385C440.452 593.385 419.388 577.203 412.077 554.863C411.569 553.312 411.128 551.731 410.755 550.123C409.889 546.375 409.403 542.481 409.336 538.491C409.332 538.181 409.329 537.872 409.329 537.558C409.329 537.045 408.917 536.626 408.404 536.626L238.637 536.626C235.987 536.626 233.445 537.678 231.57 539.55L195.389 575.685Z" fill="#61646B"/>
<path d="M410.12 554.863C410.118 554.863 410.117 554.865 410.118 554.867C417.493 578.249 439.411 595.25 465.227 595.25C497.074 595.25 522.988 569.371 522.988 537.558C522.988 514.95 509.9 495.338 490.894 485.883C487.095 483.993 484.375 480.288 484.375 476.044L484.375 434.665C484.375 432.01 483.319 429.464 481.44 427.588L476.884 423.039C475.005 421.163 473.949 418.617 473.949 415.962L473.949 411.489C473.949 408.835 475.005 406.289 476.883 404.413L517.527 363.818C519.405 361.942 520.46 359.397 520.46 356.743L520.46 290.791C520.46 288.137 519.405 285.591 517.527 283.716L510.802 276.999C508.924 275.124 507.869 272.578 507.869 269.924L507.869 10C507.869 4.47716 503.392 -8.56285e-07 497.869 -1.09734e-06L176.279 -1.51336e-05C173.629 -1.52492e-05 171.087 1.05215 169.212 2.92529L152.96 19.1597C152.311 19.8084 151.431 20.1728 150.513 20.1728C147.426 20.1728 145.882 16.4403 148.065 14.2591L150.094 12.2327C153.026 9.30419 150.952 4.29263 146.808 4.29263L146.401 4.29263C145.125 4.29263 143.9 4.79948 142.996 5.70183L129.425 19.2572C128.838 19.8435 128.042 20.1728 127.212 20.1728C124.422 20.1728 123.025 16.7986 125 14.8268L127.597 12.2327C130.529 9.30418 128.455 4.29263 124.311 4.29263L123.904 4.29263C122.627 4.29263 121.402 4.79948 120.499 5.70184L106.927 19.2572C106.34 19.8435 105.544 20.1728 104.715 20.1728C101.924 20.1728 100.528 16.7985 102.502 14.8268L105.099 12.2327C108.031 9.30419 105.957 4.29263 101.813 4.29263L101.406 4.29263C100.13 4.29263 98.9049 4.79948 98.0015 5.70183L84.4297 19.2572C83.8427 19.8435 83.0469 20.1728 82.2172 20.1728C79.427 20.1728 78.0305 16.7985 80.0047 14.8267L82.6018 12.2327C85.5339 9.30418 83.4598 4.29263 79.3157 4.29263L78.909 4.29263C77.6321 4.29263 76.4075 4.79948 75.504 5.70183L63.9437 17.2482C62.0687 19.1209 59.5269 20.1728 56.8769 20.1728L51.6369 20.1728C48.9868 20.1728 46.4451 21.2247 44.5701 23.0975L27.1761 40.4705C25.2981 42.3462 24.2429 44.8915 24.2429 47.5458L24.2429 274.392C24.2429 277.046 23.1876 279.591 21.3096 281.467L8.53758 294.224L3.39415 299.361C1.51616 301.237 0.460924 303.782 0.460924 306.436L0.460914 531.239C0.460914 533.893 1.51615 536.438 3.39414 538.314L17.6479 552.55C19.5229 554.423 22.0646 555.475 24.7146 555.475L29.3875 555.475C32.0373 555.475 34.5787 556.527 36.4537 558.399L55.6304 577.55C57.5053 579.422 60.0468 580.474 62.6966 580.474L135.381 580.474C138.031 580.474 140.573 581.526 142.448 583.398L148.843 589.786C150.718 591.658 153.259 592.71 155.909 592.71L184.361 592.71C187.011 592.71 189.552 591.658 191.427 589.786L223.468 557.788C225.343 555.915 227.884 554.863 230.534 554.863L410.12 554.863ZM195.389 575.685C193.514 577.557 190.973 578.609 188.323 578.609L63.4663 578.609C60.8162 578.609 58.2745 577.557 56.3995 575.684L34.2911 553.603L16.1251 535.459L13.3341 532.671C11.4561 530.795 10.4009 528.25 10.4009 525.596L10.4009 299.145C10.4009 296.491 11.4561 293.945 13.3341 292.07L23.1729 282.243C25.0509 280.367 26.1061 277.822 26.1061 275.167L26.1061 48.321C26.1061 45.6671 27.1611 43.122 29.0388 41.2463L45.3393 24.9628C47.2143 23.0897 49.7563 22.0376 52.4066 22.0376L148.581 22.0376C151.231 22.0376 153.772 20.9857 155.647 19.1129L169.988 4.78939C171.863 2.91664 174.405 1.86473 177.055 1.86473L466.545 1.86475C472.067 1.86475 476.545 6.3419 476.545 11.8647L476.545 21.2867C476.545 26.8096 481.022 31.2867 486.545 31.2867L496.002 31.2867C501.525 31.2867 506.002 35.7639 506.002 41.2867L506.002 354.908C506.002 357.562 504.947 360.108 503.069 361.983L467.226 397.786C465.348 399.662 464.293 402.207 464.293 404.861L464.293 480.806C464.293 481.319 464.713 481.732 465.227 481.732C465.54 481.732 465.85 481.732 466.16 481.739C470.861 481.817 475.424 482.478 479.778 483.649C481.339 484.07 482.874 484.555 484.375 485.107C505.797 492.931 521.121 513.492 521.121 537.558C521.121 568.342 496.047 593.385 465.227 593.385C440.452 593.385 419.388 577.203 412.077 554.863C411.569 553.312 411.128 551.731 410.755 550.123C409.889 546.375 409.403 542.481 409.336 538.491C409.332 538.181 409.329 537.872 409.329 537.558C409.329 537.045 408.917 536.626 408.404 536.626L238.637 536.626C235.987 536.626 233.445 537.678 231.57 539.55L195.389 575.685Z" fill="black" fill-opacity="0.2"/>
<defs>
<filter id="filter0_b_3971_11197" x="-9.53906" y="-18" width="551.619" height="631.521" filterUnits="userSpaceOnUse" color-interpolation-filters="sRGB">
<feFlood flood-opacity="0" result="BackgroundImageFix"/>
<feGaussianBlur in="BackgroundImageFix" stdDeviation="10"/>
<feComposite in2="SourceAlpha" operator="in" result="effect1_backgroundBlur_3971_11197"/>
<feBlend mode="normal" in="SourceGraphic" in2="effect1_backgroundBlur_3971_11197" result="shape"/>
</filter>
</defs>
</svg>
