<svg width="38" height="38" viewBox="0 0 38 38" fill="none" xmlns="http://www.w3.org/2000/svg">
<path d="M19 37.3671C17.7957 37.3666 16.6119 37.0548 15.5636 36.4621L5.43022 30.7291C4.36016 30.1229 3.46977 29.2441 2.84968 28.182C2.22959 27.1199 1.90192 25.9125 1.90002 24.6827V13.3188C1.90173 12.0889 2.22931 10.8814 2.84942 9.81933C3.46953 8.75722 4.36002 7.87841 5.43022 7.27236L15.5636 1.5388C16.612 0.945568 17.7961 0.633789 19.0007 0.633789C20.2053 0.633789 21.3894 0.945568 22.4378 1.5388L32.5711 7.27236C33.6411 7.87857 34.5313 8.75746 35.1512 9.81956C35.7711 10.8817 36.0984 12.089 36.1 13.3188V24.6827C36.0977 25.9124 35.7699 27.1195 35.15 28.1815C34.53 29.2435 33.6401 30.1225 32.5705 30.7291L22.4371 36.4621C21.3886 37.055 20.2046 37.3667 19 37.3671Z" fill="#23FF81"/>
<path d="M32.9333 13.3181V24.6814C32.9333 25.3515 32.7553 26.0095 32.4175 26.5882C32.0796 27.1669 31.5941 27.6454 31.0105 27.9747L20.8772 33.7083C20.3045 34.0321 19.6578 34.2023 19 34.2023C18.3421 34.2023 17.6954 34.0321 17.1228 33.7083L6.98945 27.9747C6.40591 27.6454 5.92037 27.1669 5.58252 26.5882C5.24467 26.0095 5.06664 25.3515 5.06665 24.6814V13.3181C5.067 12.6486 5.24521 11.9911 5.58306 11.413C5.9209 10.8349 6.40625 10.3569 6.98945 10.028L17.1228 4.29377C17.6954 3.96997 18.3421 3.7998 19 3.7998C19.6578 3.7998 20.3045 3.96997 20.8772 4.29377L31.0105 10.028C31.5937 10.3569 32.0791 10.8349 32.4169 11.413C32.7548 11.9911 32.933 12.6486 32.9333 13.3181Z" fill="#1FAB5E"/>
<path d="M13.9333 13.3001C13.7653 13.3001 13.6043 13.3668 13.4855 13.4856C13.3667 13.6044 13.3 13.7655 13.3 13.9334V21.384L9.43665 13.6503C9.37391 13.5207 9.26889 13.4164 9.13891 13.3545C9.00892 13.2926 8.86172 13.2768 8.72157 13.3098C8.58142 13.3428 8.45669 13.4225 8.36794 13.5359C8.27918 13.6492 8.2317 13.7895 8.23332 13.9334V24.0668C8.23332 24.2347 8.30004 24.3958 8.41882 24.5146C8.53759 24.6334 8.69868 24.7001 8.86665 24.7001C9.03462 24.7001 9.19571 24.6334 9.31448 24.5146C9.43326 24.3958 9.49998 24.2347 9.49998 24.0668V16.6162L13.3665 24.3499C13.4191 24.4551 13.5 24.5437 13.6001 24.6055C13.7002 24.6674 13.8156 24.7001 13.9333 24.7001C13.9823 24.6999 14.0312 24.6944 14.079 24.6836C14.2179 24.6508 14.3416 24.572 14.4301 24.46C14.5187 24.3481 14.5668 24.2095 14.5666 24.0668V13.9334C14.5666 13.7655 14.4999 13.6044 14.3812 13.4856C14.2624 13.3668 14.1013 13.3001 13.9333 13.3001Z" fill="white"/>
<path d="M22.1667 13.2998H17.1C16.932 13.2998 16.7709 13.3665 16.6522 13.4853C16.5334 13.6041 16.4667 13.7652 16.4667 13.9331V24.0665C16.4667 24.2344 16.5334 24.3955 16.6522 24.5143C16.7709 24.6331 16.932 24.6998 17.1 24.6998C17.268 24.6998 17.4291 24.6331 17.5478 24.5143C17.6666 24.3955 17.7333 24.2344 17.7333 24.0665V19.6331H20.2667C20.4346 19.6331 20.5957 19.5664 20.7145 19.4476C20.8333 19.3289 20.9 19.1678 20.9 18.9998C20.9 18.8318 20.8333 18.6707 20.7145 18.552C20.5957 18.4332 20.4346 18.3665 20.2667 18.3665H17.7333V14.5665H22.1667C22.3346 14.5665 22.4957 14.4997 22.6145 14.381C22.7333 14.2622 22.8 14.1011 22.8 13.9331C22.8 13.7652 22.7333 13.6041 22.6145 13.4853C22.4957 13.3665 22.3346 13.2998 22.1667 13.2998Z" fill="white"/>
<path d="M29.1333 13.2998H24.0667C23.8987 13.2998 23.7376 13.3665 23.6188 13.4853C23.5001 13.6041 23.4333 13.7652 23.4333 13.9331C23.4333 14.1011 23.5001 14.2622 23.6188 14.381C23.7376 14.4997 23.8987 14.5665 24.0667 14.5665H25.9667V24.0665C25.9667 24.2344 26.0334 24.3955 26.1522 24.5143C26.271 24.6331 26.432 24.6998 26.6 24.6998C26.768 24.6998 26.9291 24.6331 27.0479 24.5143C27.1666 24.3955 27.2333 24.2344 27.2333 24.0665V14.5665H29.1333C29.3013 14.5665 29.4624 14.4997 29.5812 14.381C29.7 14.2622 29.7667 14.1011 29.7667 13.9331C29.7667 13.7652 29.7 13.6041 29.5812 13.4853C29.4624 13.3665 29.3013 13.2998 29.1333 13.2998Z" fill="white"/>
</svg>
