<svg width="1644" height="116" viewBox="0 0 1644 116" fill="none" xmlns="http://www.w3.org/2000/svg">
<path d="M409.727 2.24998C418.655 2.24998 423.108 13.0597 416.771 19.3481L371.424 64.3482C369.551 66.2069 367.019 67.25 364.38 67.25H12C6.4772 67.25 2.00003 62.7728 2.00003 57.25V12.25C2.00003 6.72713 6.47717 2.24998 12 2.24998H409.727Z" fill="#61646B"/>
<path d="M409.727 2.24998C418.655 2.24998 423.108 13.0597 416.771 19.3481L371.424 64.3482C369.551 66.2069 367.019 67.25 364.38 67.25H12C6.4772 67.25 2.00003 62.7728 2.00003 57.25V12.25C2.00003 6.72713 6.47717 2.24998 12 2.24998H409.727Z" fill="black" fill-opacity="0.2"/>
<path d="M2.00122 116V84C2.00122 78.4772 6.47837 74 12.0012 74H379.86C382.512 74 385.056 72.9464 386.931 71.0711L453.073 4.92893C454.948 3.05357 457.492 2 460.144 2H1533.83C1536.5 2 1539.06 3.06675 1540.94 4.96285L1639.11 104.077C1640.96 105.95 1642 108.479 1642 111.114V116" stroke="#F0F0F0" stroke-width="3" stroke-miterlimit="10"/>
<g filter="url(#filter0_b_4087_6587)">
<path d="M1529.93 17.9289L1628.01 116H2.00195V97.0257C2.00195 91.4929 6.49475 87.0115 12.0276 87.0258L386.885 87.9894C389.522 87.9962 392.055 86.9607 393.933 85.1084L462.082 17.881C463.953 16.035 466.476 15 469.104 15H1522.86C1525.52 15 1528.06 16.0536 1529.93 17.9289Z" fill="#F0F0F0"/>
<path d="M1529.58 18.2825L1626.8 115.5H2.50195V97.0257C2.50195 91.7695 6.77014 87.5123 12.0262 87.5258L386.883 88.4894C389.653 88.4965 392.313 87.4093 394.284 85.4644L462.433 18.2369C464.21 16.4832 466.607 15.5 469.104 15.5H1522.86C1525.38 15.5 1527.8 16.5009 1529.58 18.2825Z" stroke="#F0F0F0"/>
</g>
<defs>
<filter id="filter0_b_4087_6587" x="-17.998" y="-5" width="1666" height="141" filterUnits="userSpaceOnUse" color-interpolation-filters="sRGB">
<feFlood flood-opacity="0" result="BackgroundImageFix"/>
<feGaussianBlur in="BackgroundImageFix" stdDeviation="10"/>
<feComposite in2="SourceAlpha" operator="in" result="effect1_backgroundBlur_4087_6587"/>
<feBlend mode="normal" in="SourceGraphic" in2="effect1_backgroundBlur_4087_6587" result="shape"/>
</filter>
</defs>
</svg>
