<svg width="1644" height="111" viewBox="0 0 1644 111" fill="none" xmlns="http://www.w3.org/2000/svg">
<path d="M1.99927 0V98C1.99927 103.523 6.47642 108 11.9993 108H1516.45C1518.75 108 1520.97 107.211 1522.75 105.765L1638.3 12.0015C1640.64 10.1027 1642 7.24996 1642 4.23651V0" stroke="#F0F0F0" stroke-width="3" stroke-miterlimit="10"/>
<path d="M1634.1 28.57C1637.02 26.1017 1641.5 28.1815 1641.5 32.0095V105.25C1641.5 107.735 1639.49 109.75 1637 109.75H1550.18C1545.99 109.75 1544.07 104.516 1547.28 101.81L1634.1 28.57Z" fill="#DEDEDE" stroke="#F0F0F0"/>
<path d="M68.1583 78.3806C74.0095 84.4038 69.7415 94.5 61.3441 94.5H27C21.7533 94.5 17.5 90.2467 17.5 85V49.6457C17.5 41.1156 27.8705 36.9078 33.8142 43.0263L68.1583 78.3806Z" fill="#ABABAB" stroke="#F0F0F0"/>
<g filter="url(#filter0_b_4087_6629)">
<path d="M1628 0L1510.73 92.8406C1508.96 94.2391 1506.77 95 1504.52 95H100.173C97.5027 95 94.9431 93.9319 93.0648 92.0336L2 0H1628Z" fill="#F0F0F0"/>
<path d="M3.19812 0.5H1626.57L1510.42 92.4485C1508.74 93.7771 1506.66 94.5 1504.52 94.5H100.173C97.6362 94.5 95.2046 93.4853 93.4203 91.6819L3.19812 0.5Z" stroke="#F0F0F0"/>
</g>
<rect x="91.5" y="19.5" width="193" height="55" stroke="#F0F0F0"/>
<defs>
<filter id="filter0_b_4087_6629" x="-18" y="-20" width="1666" height="135" filterUnits="userSpaceOnUse" color-interpolation-filters="sRGB">
<feFlood flood-opacity="0" result="BackgroundImageFix"/>
<feGaussianBlur in="BackgroundImageFix" stdDeviation="10"/>
<feComposite in2="SourceAlpha" operator="in" result="effect1_backgroundBlur_4087_6629"/>
<feBlend mode="normal" in="SourceGraphic" in2="effect1_backgroundBlur_4087_6629" result="shape"/>
</filter>
</defs>
</svg>
