<svg width="38" height="38" viewBox="0 0 38 38" fill="none" xmlns="http://www.w3.org/2000/svg">
<g id="stars 1">
<path id="Vector" d="M7.92055 16.9698C8.33622 15.6873 9.45247 14.7492 10.7944 14.5473L14.1668 14.0604L12.8725 13.8705L11.1387 10.3554C10.9368 9.95172 10.5212 9.69043 10.0699 9.69043C9.61866 9.69043 9.20307 9.95172 9.00121 10.3554L7.26744 13.8705L3.39618 14.4404C2.94492 14.4998 2.5768 14.8204 2.4343 15.2479C2.29181 15.6755 2.4106 16.1504 2.73118 16.4592L5.54555 19.2023L4.88055 23.0617C4.79742 23.5011 4.98746 23.9523 5.34369 24.2254C5.72958 24.4843 6.19478 24.5295 6.60244 24.3086L10.0699 22.4917L11.3169 23.1448L11.3287 23.0736L8.82306 20.6273C7.8493 19.6773 7.50495 18.2642 7.92055 16.9698Z" fill="#23FF81"/>
<path id="Vector_2" d="M35.5656 15.2471C35.4231 14.8197 35.055 14.499 34.6038 14.4396L30.7325 13.8697L28.9987 10.3546C28.595 9.54715 27.265 9.54715 26.8612 10.3546L25.1275 13.8697L23.8331 14.0596L27.2056 14.5466C28.5475 14.7484 29.6637 15.6865 30.0794 16.969C30.495 18.2634 30.1506 19.6766 29.1769 20.6265L26.6713 23.0728L26.6831 23.144L27.93 22.4909L31.3975 24.3078C31.8051 24.5287 32.2704 24.4835 32.6562 24.2246C33.0125 23.9515 33.2025 23.5003 33.1194 23.0609L32.4544 19.2015L35.2688 16.4584C35.5893 16.1496 35.7081 15.6747 35.5656 15.2471Z" fill="#23FF81"/>
<path id="Vector_3" d="M24.121 22.2392L27.52 18.9261C27.8436 18.6106 27.9595 18.1387 27.8204 17.709C27.6801 17.2793 27.309 16.9657 26.8613 16.9007L22.1647 16.2188L20.0645 11.9634C19.6656 11.1528 18.3343 11.1528 17.9354 11.9634L15.8352 16.2188L11.1386 16.9007C10.6909 16.9657 10.3198 17.2793 10.1795 17.709C10.0404 18.1387 10.1563 18.6106 10.4799 18.9261L13.8788 22.2392L13.0764 26.9168C12.9998 27.3621 13.1831 27.8126 13.5483 28.0782C13.916 28.3443 14.3995 28.3791 14.7996 28.1686L18.9999 25.96L23.2003 28.1686C23.5994 28.3779 24.0851 28.3446 24.4515 28.0782C24.8168 27.8126 25.0001 27.3621 24.9235 26.9168L24.121 22.2392Z" fill="#1FAB5E"/>
</g>
</svg>
