<svg width="1280" height="103" viewBox="0 0 1280 103" fill="none" xmlns="http://www.w3.org/2000/svg">
<path d="M117.965 101.765C119.001 102.119 120.185 102.018 121.369 101.866C121.517 101.866 121.813 101.816 122.109 101.816C122.849 101.816 123.145 101.715 123.145 101.563C124.181 101.664 125.217 101.664 126.253 101.664C126.697 101.664 126.994 101.664 127.29 101.563C128.178 101.412 128.474 101.058 128.918 100.806C128.918 100.755 129.066 100.654 129.214 100.604H129.51C129.658 100.553 129.806 100.502 129.954 100.401C130.25 100.452 130.546 100.502 130.99 100.502C132.914 100.452 134.394 100.048 135.874 99.6438C135.874 99.6438 136.17 99.5934 136.318 99.5428C138.686 99.7449 140.611 99.3913 142.535 98.9873C143.127 98.9873 143.719 98.9367 144.311 98.8862C145.199 98.8862 145.939 98.6337 146.827 98.5327C147.123 98.6842 147.715 98.7852 148.455 98.7347C149.047 98.7347 149.491 98.5832 149.639 98.4317C149.787 98.4317 150.083 98.4317 150.231 98.4317C151.711 98.4317 152.747 98.2297 153.191 97.7751C153.191 97.6741 153.191 97.573 152.895 97.472C153.488 97.6235 153.932 97.7751 154.672 97.7751C155.56 97.8256 156.152 97.775 156.892 97.6235C157.928 97.6235 159.112 97.573 160.148 97.371C160.444 97.371 160.592 97.371 160.888 97.371C162.22 97.6235 163.404 97.27 164.588 97.169C164.588 97.169 164.588 97.068 164.736 97.068C164.884 97.068 165.18 97.068 165.328 97.0175C165.624 96.9669 165.772 96.8659 165.92 96.7649C169.325 96.8659 172.581 97.068 175.689 96.3103C175.689 96.2598 175.985 96.1588 176.133 96.1083C176.577 96.1588 177.021 96.2093 177.465 96.1588C178.501 96.0073 178.945 95.8053 178.945 95.4012C178.353 95.1992 177.909 94.9971 177.317 94.7951C177.613 94.7446 177.909 94.6941 178.057 94.6436C179.389 94.391 180.87 94.189 182.054 93.9365C182.794 94.4921 184.718 94.189 185.902 94.2395C188.122 93.987 191.082 94.1385 192.266 93.1788C192.266 93.1788 192.266 93.1788 192.266 93.1283C193.599 93.0273 195.079 93.2293 196.411 93.1283C196.559 93.4314 197.595 93.4819 198.335 93.5829C203.663 93.6334 208.696 93.2799 213.432 92.4212C214.764 92.1687 216.096 91.9161 215.948 91.31C219.352 91.31 222.609 91.0575 226.013 91.007C227.937 91.007 230.009 91.3606 231.489 90.6029C232.229 90.1989 232.081 89.5928 233.562 89.2898C235.634 88.5827 238.742 89.1887 240.962 88.6837C242.146 88.5321 243.182 88.2796 243.774 87.8755C243.774 87.7745 243.774 87.724 243.774 87.623C243.922 87.623 244.218 87.724 244.514 87.724C244.514 87.724 244.514 87.724 244.662 87.724C246.883 88.2291 248.955 88.0775 250.879 87.522C251.915 87.2189 252.951 86.9664 254.283 87.32C255.023 87.4715 255.763 87.6735 256.503 87.825C256.503 87.9766 256.503 88.1281 256.503 88.2796C257.687 87.9765 259.908 88.5826 260.648 87.825C260.648 87.825 261.684 87.6735 262.276 87.5725C264.052 87.623 265.976 87.5725 267.456 88.0775C267.752 88.1786 267.9 88.2291 268.196 88.3301C269.528 87.825 271.452 87.5725 271.896 86.8654C272.488 86.4613 274.117 86.1583 273.376 85.6027C274.857 85.4511 276.485 85.3501 277.965 85.1986C278.261 85.8552 278.557 86.4108 281.073 86.0573C281.073 86.0068 281.073 85.9057 281.073 85.8552C281.517 85.5017 282.257 85.2996 283.441 85.2491C284.033 85.2491 284.625 85.1481 285.217 85.0976C286.253 84.7946 287.29 85.1986 288.326 85.1481C288.77 85.1481 289.214 85.1481 289.806 85.0976C290.102 85.0471 290.25 84.9461 290.398 84.845C290.398 84.8956 290.398 84.9966 290.546 85.0471C290.694 85.0471 290.99 85.0471 291.138 85.0976C292.766 84.9966 294.246 84.744 295.578 84.3905C295.578 84.3905 295.578 84.34 295.578 84.2895V84.3905C299.722 84.5925 303.867 84.8451 308.011 85.0471C310.083 85.7037 312.451 85.8552 315.116 85.5522C315.116 85.4006 315.116 85.2996 315.264 85.1481C320.74 84.8956 325.476 85.6532 330.361 86.2593C330.361 86.7643 331.841 86.6128 332.285 86.9159C334.801 86.4613 338.057 86.9159 340.277 86.2088C340.722 85.4007 342.054 84.7946 344.422 84.5925C345.902 84.0875 347.974 84.441 349.602 84.1885C350.194 84.5925 350.786 84.8451 352.414 84.542C353.895 84.2895 355.079 84.542 356.411 84.542C356.707 84.542 356.855 84.542 357.151 84.4915C358.187 84.0874 359.667 84.1379 361.147 84.1379C362.479 84.1379 364.107 84.2389 364.995 83.7339C364.995 83.6329 364.995 83.5318 365.143 83.4308C365.439 83.4308 365.587 83.3298 365.883 83.3298C367.512 82.8248 369.88 83.0268 371.656 82.6227C372.248 82.5217 372.692 82.4712 373.284 82.3702L375.356 82.5722C378.464 83.1278 380.685 82.9258 382.017 82.1681C382.017 82.1681 382.313 82.1681 382.461 82.1681C382.461 82.1681 382.609 82.1681 382.757 82.1681C383.201 82.5722 384.681 82.3197 385.569 82.3197C386.753 82.3197 388.085 82.1682 389.269 82.0671C390.009 81.9661 390.749 81.8146 391.489 81.6631C392.229 81.6631 392.821 81.6125 393.561 81.562C394.302 81.0569 396.226 81.3095 397.262 80.9054C398.446 81.3095 399.778 80.9055 401.11 80.6529C401.702 80.7539 402.294 80.8044 402.886 80.7539C402.886 80.7539 403.034 80.7034 403.182 80.6529C404.662 81.2085 406.438 81.6125 408.659 81.6125C409.547 81.7136 410.583 81.8146 411.471 81.7136C412.063 82.0166 413.099 82.0671 413.987 82.0671C413.987 82.0671 413.987 82.0671 413.987 82.1176C415.171 82.3702 416.059 82.7743 417.243 82.9763C417.243 82.9763 417.243 82.9763 417.391 82.9763C417.391 83.0773 417.391 83.1783 417.391 83.2288C418.575 83.3298 419.759 83.4308 421.092 83.5823C422.572 83.6834 423.904 84.138 425.384 83.6834C425.828 83.4308 426.272 83.2288 426.864 82.9763H427.012C429.232 82.6227 431.896 83.1278 434.117 82.7237C435.005 82.4712 436.041 82.4207 437.077 82.4712C437.521 82.5722 437.965 82.5217 438.409 82.4207C438.705 82.8753 439.445 82.9763 440.629 82.7742C442.405 83.1783 444.329 83.0773 446.401 82.9763C446.697 82.9258 446.845 82.8247 447.142 82.7237C447.142 82.6732 447.438 82.6732 447.586 82.6227C447.586 82.7237 447.438 82.7742 447.438 82.8752C448.622 82.8752 449.658 82.9763 450.842 82.7742C451.138 82.7742 451.286 82.7742 451.582 82.7742C452.766 82.5722 453.506 82.2186 453.95 81.8146C455.43 81.6126 457.65 81.8146 458.39 81.1075C458.834 81.1075 459.13 81.1075 459.574 81.1075C459.574 81.158 459.574 81.2085 459.574 81.259C461.351 81.6125 463.423 81.562 465.199 81.8146C466.975 81.6126 468.603 81.9156 470.379 81.8146C470.675 81.8146 471.119 81.7136 471.415 81.7136C471.711 81.7641 472.007 81.8146 472.303 81.8651C473.191 81.8651 474.376 81.8651 474.524 81.4105C475.56 81.36 476.004 81.1075 476.596 80.9054C479.704 81.1075 482.664 81.6631 485.92 81.6631C486.66 81.562 487.549 81.663 488.141 81.4105C489.029 81.36 489.325 81.158 489.473 80.9054C489.473 80.9054 490.361 80.8044 490.805 80.7539C490.805 81.259 492.877 81.0064 493.025 81.4105C493.173 81.5115 493.321 81.6126 493.469 81.7136C494.209 82.4207 495.985 82.9258 497.317 83.4814C499.685 83.9359 500.426 85.1481 503.83 85.0976V84.9966C503.83 84.9966 505.31 84.7946 506.05 84.744C506.05 85.2491 507.086 85.4007 508.418 85.2996C509.454 85.2491 510.194 85.1481 511.082 85.3501C511.97 85.5521 513.006 85.6027 513.895 85.3501C513.895 85.4006 513.895 85.5016 513.895 85.5522C514.783 85.9562 516.115 86.1077 517.595 86.3098C518.039 86.1583 518.483 86.0067 518.927 85.8047C518.927 85.1481 520.555 85.0471 522.035 84.8956C523.219 84.5925 525.143 84.744 526.179 84.2895C526.771 83.9864 527.808 83.7844 527.956 83.3803C528.696 83.2288 529.14 83.0268 529.14 82.7742C529.732 82.9258 530.324 83.0773 531.212 82.9258C533.432 82.4712 535.8 82.7742 538.168 82.8752C538.612 82.9763 539.056 83.0773 539.5 83.1783C540.833 83.3803 542.017 83.6329 543.349 83.8349C543.793 83.9359 544.385 83.9864 544.829 84.0874C545.865 84.6935 548.085 84.3905 549.417 84.7946C550.601 84.7946 550.897 84.5925 550.897 84.239C550.897 84.239 551.045 84.239 551.193 84.239C552.229 84.6935 553.413 84.542 554.746 84.441C554.302 84.7441 554.45 84.9966 555.042 85.1986C555.042 85.2491 555.042 85.3501 555.042 85.4006C556.522 84.9966 558.594 85.2996 560.074 84.9461C560.666 85.2491 559.482 85.7037 560.814 85.9562C560.814 86.1583 560.814 86.2593 561.554 86.2088C561.998 86.2593 562.59 86.3603 563.034 86.4108C563.034 86.2593 564.958 85.5522 566.29 85.0976C566.438 85.0976 566.586 85.0976 566.734 85.1481C567.623 85.2996 568.363 85.6027 569.399 85.4006C569.399 84.845 570.139 84.4915 571.471 84.239C571.471 84.441 571.619 84.643 571.767 84.8956C573.839 85.3501 576.503 85.1986 578.723 85.7037C580.055 86.0068 582.276 85.2491 584.052 85.7037C585.236 86.2088 586.864 86.1077 588.344 85.9562C589.38 86.4613 591.452 86.3603 592.636 86.7139C593.969 86.5623 594.857 86.0572 596.485 86.1077C597.965 85.1481 599.741 85.7037 601.369 86.0067C602.701 86.2593 603.737 86.6634 604.921 86.9664C606.253 87.32 608.326 87.1684 609.51 87.623C610.25 87.623 610.842 87.623 611.582 87.623C614.394 87.2694 617.502 87.6735 620.315 87.4715C621.943 87.1684 623.867 87.2694 625.495 87.0674C627.863 86.8654 629.195 86.4613 627.863 85.5522C628.751 85.4006 630.231 85.7542 630.527 85.1986C634.376 84.9966 638.372 85.1986 642.072 84.6935C642.812 85.2996 644.736 84.9966 645.92 85.3501C646.364 85.3501 646.808 85.3501 647.253 85.3501C647.253 85.3501 648.733 85.3501 649.325 85.3501C650.805 85.5521 651.545 84.9461 652.877 84.9461C652.877 85.2996 653.765 85.1986 654.357 85.1986C654.801 85.2996 655.245 85.2996 655.689 85.1986C655.541 85.6027 656.725 85.7037 657.317 85.9057C657.613 85.9562 657.909 86.0572 658.057 86.1077C658.797 86.2088 659.389 86.2593 660.129 86.3603C660.721 86.2593 661.462 86.2088 661.758 86.0067C661.906 86.0573 662.202 86.1583 662.35 86.2088L663.682 86.4613C665.014 86.9159 666.494 86.5623 667.826 86.5118C668.27 86.4108 668.566 86.3098 668.714 86.1583C670.046 86.1078 671.23 86.3098 672.562 86.5623C672.562 86.5623 673.006 86.5623 673.154 86.5623C673.154 86.6633 673.154 86.7138 673.154 86.8148C673.746 87.2189 674.783 87.32 675.967 87.32C675.967 87.32 676.559 87.623 676.855 87.7745C678.927 87.1179 680.407 88.0776 682.479 88.0271C683.663 88.0271 684.995 88.2291 686.327 88.2796C686.623 88.5321 686.771 88.7847 687.067 89.0372C688.252 88.9362 689.288 88.8352 690.62 89.1382C692.396 89.5423 694.616 89.7443 696.392 88.9867C696.688 88.8857 696.984 88.8352 697.132 88.7342V88.8352C697.132 88.8352 697.576 88.7847 697.872 88.7342C698.316 89.0372 698.76 89.2897 699.352 89.6938C700.685 88.7341 702.905 88.9362 705.125 89.0372C705.717 89.2392 706.605 89.3403 707.345 89.4918C709.269 89.2898 710.897 88.7847 713.117 88.9867C713.561 88.9867 714.005 88.9867 714.598 89.0372C715.042 89.0372 715.634 89.0372 716.078 89.0372C717.262 89.1887 718.446 89.3402 719.778 89.5423C724.662 89.8453 728.363 90.9565 732.803 91.5626C732.803 91.6131 732.803 91.7141 732.803 91.7646C735.467 91.3606 737.391 91.6636 738.723 92.4717C738.871 92.5728 738.723 92.8758 739.463 92.7243C739.759 92.6738 739.759 92.4212 739.907 92.2697C740.203 92.2697 740.352 92.2697 740.648 92.2697C741.536 92.4212 742.128 92.6738 742.128 93.0273C741.24 93.2799 741.536 93.6334 741.388 93.9365C742.572 94.1385 743.164 93.2799 744.348 93.7344C744.348 94.0375 744.644 94.2395 745.532 94.29C747.012 94.4416 748.492 94.5931 749.972 94.189C750.564 93.987 750.564 93.7344 749.972 93.5324C749.972 93.5324 749.972 93.1789 749.972 93.0273L752.192 92.8253C754.117 92.8253 755.893 92.8758 757.077 92.2192C757.817 91.8151 759.001 92.1687 760.037 92.0172C761.665 91.7141 763.293 91.3101 765.217 91.8152C766.845 91.8152 768.03 91.6636 768.474 91.2596C770.842 91.6636 773.21 92.1182 776.022 92.1182C777.798 92.9263 780.314 93.2799 783.275 93.1283C783.275 93.5324 784.163 93.8355 784.755 94.1385C785.939 94.391 785.939 94.1385 786.087 93.886C787.123 94.6941 789.787 94.8961 791.267 95.5022C791.563 95.5527 791.859 95.6032 792.303 95.6537C795.116 95.6537 798.076 95.9063 799.556 94.7446C799.704 94.9466 799.852 95.1487 800.444 95.2497C800.74 95.3002 801.036 95.3507 801.48 95.4012C801.628 95.4012 801.924 95.4012 802.072 95.4012C803.848 96.0578 805.772 96.5629 808.585 96.6134C809.325 96.6134 810.213 96.8154 810.953 96.8659C811.693 96.7144 811.841 97.068 812.433 97.068C813.025 97.068 813.321 96.9669 813.617 96.8154C816.725 97.5225 817.317 96.3103 819.093 95.9063C820.129 96.0578 820.87 96.1083 821.166 95.6032C821.906 95.4012 822.646 95.1992 823.238 94.9466C824.718 94.189 825.902 94.5931 826.938 95.0981C827.678 94.9971 828.418 94.9466 829.158 94.8456C829.454 94.6941 829.75 94.5425 829.898 94.391C833.45 94.4415 835.079 93.2293 838.187 92.9263C839.223 92.8253 840.703 92.5223 842.035 92.3202C843.811 92.0677 845.143 92.5222 846.771 92.6233C847.956 92.6738 849.288 93.0778 850.028 92.4212C849.14 91.8151 849.88 91.31 851.656 91.5121C854.468 91.8151 857.132 91.6636 859.796 91.5121C860.981 91.6636 861.869 91.9667 863.201 92.0172C863.497 92.0172 863.793 91.9666 864.089 91.8656C864.385 91.7646 864.533 91.6636 864.829 91.6131C865.569 91.4616 866.605 91.7141 867.197 91.4111C867.197 91.4111 867.197 91.3606 867.197 91.31C868.381 91.4616 869.417 91.1585 870.601 91.1585C871.785 91.4616 873.117 91.8151 874.302 91.1585C876.226 90.906 875.486 89.9968 877.262 89.6938C877.262 89.6938 878.742 89.4918 879.334 89.3908C879.63 89.3908 879.778 89.3908 880.074 89.4413C880.518 89.5928 881.11 89.6938 881.554 89.8454C884.514 90.4514 887.771 90.704 891.027 90.1989H893.839C895.171 90.1989 896.207 90.0474 896.799 89.6433C897.095 89.7443 897.243 89.7948 897.539 89.8958C898.131 90.1484 898.871 90.1484 899.759 90.1989C901.684 90.0474 904.2 90.5019 905.532 89.6433C907.012 89.7948 908.492 89.9969 909.972 90.1484C909.972 90.0474 909.972 89.9464 909.972 89.8454C915.893 90.0474 921.665 90.4009 927.586 90.5019C930.546 90.5524 933.95 90.5019 936.91 90.8555C938.094 91.209 939.426 91.5121 940.61 91.8656C941.351 91.8656 941.943 91.9162 942.683 91.9667C944.163 91.9667 945.347 91.7646 946.383 91.4111H947.715C949.195 91.5121 950.675 91.6131 952.895 91.7646C951.711 91.3101 950.527 90.9565 951.415 90.5019C953.487 91.108 955.264 91.1585 957.632 90.5019C959.112 90.0474 961.628 90.1484 963.7 90.2999C966.512 90.2999 969.029 90.1484 970.657 89.1887C970.657 89.0877 970.657 88.9867 970.361 88.9362C970.361 88.9362 970.657 88.9362 970.805 88.9362C971.397 88.8857 971.989 88.8352 972.581 88.7847C973.469 88.7847 974.209 88.7342 974.801 88.4816C975.097 88.4311 975.541 88.3301 975.837 88.2291C975.837 88.2291 975.837 88.1281 975.985 88.0775C976.873 88.0775 976.873 87.825 976.873 87.5725C977.169 87.5725 977.317 87.5725 977.613 87.522C977.613 87.522 978.501 87.724 978.945 87.825C979.389 87.9766 979.981 88.1786 980.425 88.3301C981.018 88.5321 981.61 88.8352 982.498 88.5321C984.57 87.825 988.418 87.825 989.158 86.6128C990.934 86.5118 991.526 85.9057 992.71 85.6027C992.858 85.4511 993.154 85.2491 993.302 85.0976C993.302 85.0976 993.451 84.9966 993.451 84.9461C994.635 84.9461 995.819 84.9461 997.003 84.8956C999.667 84.8451 1001.44 83.9864 1004.11 83.8349C1004.4 83.5824 1004.55 83.2288 1005.88 83.3803C1006.62 83.5318 1007.36 83.6329 1008.1 83.7844C1010.03 83.6834 1011.8 83.5318 1013.73 83.4308C1013.73 83.4308 1014.17 83.7339 1014.47 83.8854C1015.65 83.6834 1017.72 84.9966 1018.17 83.6329C1018.91 83.3298 1020.09 83.4308 1021.13 83.3803C1023.94 83.9864 1025.57 83.5824 1026.9 82.7237C1026.9 82.7742 1027.05 82.8247 1027.2 82.8752L1028.53 83.2288C1028.53 83.2288 1029.42 83.2288 1029.86 83.2288C1030.6 83.2288 1030.9 83.1278 1030.75 82.8752C1031.05 82.5722 1031.64 82.8752 1032.08 82.8752C1034.15 82.3702 1036.52 83.0268 1038.59 82.7237C1040.22 82.9258 1041.7 83.4814 1043.77 83.1278C1044.07 83.1783 1044.37 83.2793 1044.66 83.3298C1045.11 83.3803 1045.55 83.4814 1046.14 83.5319C1047.47 83.9359 1048.36 83.3803 1049.55 83.3298C1052.8 83.6834 1056.06 83.3298 1059.17 83.2288C1060.5 83.2288 1061.54 83.2793 1062.57 83.4814C1062.87 83.4814 1063.31 83.4814 1063.61 83.4814C1064.5 83.4814 1065.09 83.3803 1065.68 83.1783C1065.68 83.2793 1065.68 83.3803 1065.98 83.4814C1067.16 84.0369 1068.79 84.0874 1070.42 83.8349C1073.52 83.3803 1076.48 83.4813 1079.3 84.0874C1080.63 84.3905 1082.11 84.4915 1083.59 84.643C1083.89 84.643 1084.33 84.643 1084.63 84.643C1085.37 84.542 1086.11 84.3905 1086.99 84.2895C1087.29 84.542 1088.03 84.643 1089.21 84.5925C1090.1 84.7441 1090.99 84.9461 1091.88 84.845C1091.88 84.8956 1092.03 84.9461 1092.17 84.9966C1094.1 85.7037 1095.58 86.7644 1099.43 86.3603C1101.05 86.3603 1101.2 86.9159 1102.39 87.1179C1102.53 86.8654 1102.83 86.4108 1103.87 86.7139C1105.35 87.2189 1106.83 87.0169 1108.31 86.9159C1108.46 86.9664 1108.75 87.0674 1108.9 87.1179C1109.34 87.1179 1109.79 87.1179 1110.23 87.1179C1110.23 87.1684 1110.23 87.2695 1110.23 87.32C1115.71 87.825 1117.78 89.7948 1122.37 90.6029C1122.96 90.704 1123.55 90.704 1124 90.8555C1124.44 91.007 1125.03 91.209 1125.48 91.3606C1125.92 91.5121 1126.51 91.4616 1126.96 91.3606C1127.55 90.6535 1128.88 90.6535 1130.36 90.704C1130.8 90.7545 1131.4 90.805 1131.84 90.8555C1131.84 90.8555 1131.99 90.8555 1132.14 90.8555C1134.65 91.007 1135.84 91.8656 1137.91 92.2697C1141.91 92.1182 1145.75 91.7141 1149.75 91.7646C1150.34 91.5626 1151.23 91.5121 1151.97 91.5626C1151.97 91.7141 1151.97 91.8657 1151.97 92.0172C1152.12 92.1687 1152.56 92.2192 1153.01 92.1687C1153.01 91.7646 1154.04 91.8151 1154.78 91.7646C1155.97 91.6131 1155.97 92.0677 1156.56 92.2192C1157.3 92.4717 1157.89 92.8253 1159.22 92.5223C1159.81 91.6131 1161.74 92.3707 1162.92 92.1687C1164.26 91.9667 1165.74 92.1687 1167.07 92.1687C1168.7 92.1687 1169.73 92.4212 1170.62 92.8253C1170.62 93.3304 1170.62 93.886 1172.54 94.29C1172.54 93.886 1172.4 93.5324 1172.4 93.1788C1172.4 93.0778 1172.4 93.0273 1172.4 92.9263C1172.84 92.7748 1173.14 92.6738 1173.14 92.6233C1176.24 92.5728 1179.35 92.6232 1181.57 91.6636C1182.16 91.4616 1183.2 91.5626 1183.94 91.5121C1185.86 91.2595 1187.94 91.8656 1189.71 91.3606C1190.01 92.0172 1192.23 91.8657 1193.41 92.1687C1194.75 92.3707 1196.52 92.3202 1197.11 92.9263C1197.71 93.3809 1198.89 93.5829 1200.07 93.8354C1206.59 93.8354 1212.36 92.9768 1218.13 91.9667C1219.17 91.8151 1219.32 91.5121 1219.61 91.1585C1220.5 90.906 1221.39 90.704 1222.57 90.704C1224.05 91.2091 1225.09 92.2697 1227.75 91.1585C1229.38 91.5626 1231.01 92.0172 1232.78 92.4212C1232.78 92.4717 1232.78 92.5222 1232.93 92.5727C1233.52 92.9263 1234.26 93.2294 1234.86 93.5829C1235.15 93.1789 1234.71 92.7243 1235.74 92.3707C1239 92.1687 1241.96 93.1283 1245.22 92.8253C1248.47 92.5222 1251.88 92.9768 1255.13 92.6738C1257.21 93.3304 1259.13 92.5222 1261.2 92.5727C1261.94 92.5727 1262.68 92.5728 1263.42 92.6233C1265.49 92.8758 1267.71 92.9768 1269.05 93.5829C1271.42 93.5829 1274.08 93.0273 1276.3 93.8354C1276.89 94.7951 1278.37 94.5931 1280 94.4415V55.5H0V99.6438C0 99.6438 1.03608 99.4418 1.48011 99.2903C2.96022 98.6337 4.88437 98.9368 6.6605 99.0378C7.84459 99.0883 9.17669 99.2398 9.91674 98.8862C11.8409 99.1893 14.0611 98.7852 15.9852 99.0883C16.1332 99.0883 16.2812 99.0883 16.4292 99.0883C17.3173 99.3913 18.6494 98.8862 19.6855 99.0883C21.3136 99.4418 23.0897 99.4418 24.8659 99.4418C25.7539 99.4418 26.346 99.3408 26.494 99.1893C26.494 99.3408 26.79 99.4418 27.234 99.5934C27.5301 99.6439 27.8261 99.6944 28.2701 99.6944C30.0463 99.5428 31.5264 99.1388 33.5985 99.1893C35.2266 99.1893 36.2627 98.4822 36.2627 97.6235C37.1508 97.472 37.8908 97.169 38.9269 97.169C38.9269 97.169 38.9269 97.169 39.0749 97.1185C39.667 97.2195 40.259 97.3205 40.555 97.573C41.5911 98.4822 43.9593 98.3307 45.7354 98.1286C46.9195 97.9771 48.6956 97.8256 48.6956 97.2195C51.8039 97.068 55.0601 96.7649 57.8723 97.573C58.9084 97.7246 59.9445 97.7246 60.9806 97.573C61.1286 97.573 61.2766 97.472 61.2766 97.4215C61.2766 97.4215 61.2766 97.4215 61.4246 97.4215C62.3127 97.9771 63.6448 98.1791 65.2729 98.1286C65.2729 98.1286 65.2729 98.1286 65.2729 98.2296C65.4209 98.3812 65.5689 98.5832 65.7169 98.7347C66.0129 98.8862 66.457 98.9873 67.049 99.0378C69.4172 99.1388 70.7493 98.3812 72.9695 98.2802C73.8575 98.9368 75.0416 99.5429 76.2257 100.098C80.222 101.917 86.2905 101.917 92.2109 101.866C93.099 101.866 93.691 101.664 93.987 101.361C93.987 101.361 94.1351 101.412 94.2831 101.412C94.2831 101.412 94.4311 101.412 94.5791 101.412C94.8751 101.412 95.1711 101.462 95.6152 101.513C96.0592 101.462 96.5032 101.311 96.9473 101.311C100.648 101.715 104.2 101.311 107.9 101.159C108.492 101.159 108.936 101.311 109.38 101.462C109.972 101.614 110.564 101.765 111.156 101.866C112.932 101.866 114.561 101.715 116.041 101.513C116.041 101.664 116.485 101.765 116.929 101.866C117.225 101.917 117.521 101.967 117.817 102.068L117.965 101.765Z" fill="url(#paint0_linear_2990_22135)"/>
<path d="M0 0L0.295919 9.5V12L0 87.6819C3.10716 86.9809 6.36227 87.2146 9.76534 87.7989C11.9847 88.2663 14.0562 89.201 15.8317 87.2145C16.5715 86.3966 17.3113 87.2145 18.0511 87.4482C21.6021 88.6167 26.3368 88.0325 28.5562 86.163C29.0001 85.6956 29.444 85.2282 29.444 84.6439C29.444 84.6439 29.592 84.6439 29.7399 84.6439C30.3318 85.1113 31.0716 85.1113 32.1073 84.9944C32.995 84.7607 33.7348 84.9945 33.7348 85.8124C33.4389 86.8641 33.143 87.9157 34.6226 88.4999C36.3981 88.4999 37.2859 87.2147 38.7655 86.981C40.393 86.3967 41.5767 85.345 43.0563 84.6439C46.3114 88.9673 48.8267 89.3179 54.4492 86.0461C55.041 84.644 55.337 83.1249 57.2604 82.4238C57.8523 82.0733 58.4441 81.6058 59.0359 81.1384C59.4798 80.671 59.9237 80.2036 60.5155 79.9699C61.1074 80.3205 61.1074 81.0216 61.6992 81.2553C63.7707 81.7227 64.9543 80.9047 65.6941 79.6194C66.138 78.8014 66.8778 78.4509 67.6176 77.8667C70.7248 78.4509 73.8319 79.2689 77.087 78.1004C77.9748 77.7499 78.8626 77.8667 79.8983 78.1004C81.9697 78.5678 84.0411 78.2172 85.9646 77.8667C86.5565 77.7498 87.0003 77.2825 87.5922 77.2825C88.9238 77.2825 90.6993 79.0352 91.5871 77.5162C92.7708 75.4129 95.73 73.777 95.2861 70.6221C96.4698 72.3749 96.3218 73.8939 97.3575 75.0624C97.3575 75.0624 97.5055 75.1792 97.6534 75.2961C96.1738 76.2309 94.9902 77.0488 95.73 78.451C96.0259 78.9184 96.6177 79.2689 97.2096 79.0352C98.8371 78.2173 98.3932 76.932 98.3932 75.6467C99.7249 75.8804 100.909 75.8804 101.944 75.8804C100.613 76.5815 100.169 77.9835 99.5769 79.152C99.133 79.8531 100.465 80.5542 102.092 80.5542C102.092 79.152 105.643 79.8532 105.199 78.2173C105.051 77.3993 104.903 75.9972 103.72 75.6467C106.235 75.0624 108.011 73.4265 108.898 70.739C110.23 72.0243 110.822 73.894 113.485 73.6603C115.705 73.4266 117.184 72.4917 118.22 70.8558C118.22 70.739 118.22 70.5053 118.22 70.3884C119.847 69.921 121.475 69.9211 122.659 68.7526C123.694 69.9211 123.103 70.6221 122.215 71.0895C119.699 72.8423 121.623 74.0107 123.398 74.2444C125.766 74.5949 127.541 75.6467 129.613 76.4646C131.536 77.2825 133.46 77.9836 135.827 77.0488C136.715 76.6982 138.49 77.1656 138.194 77.3993C136.419 78.6846 136.863 80.9048 134.495 81.9564C134.052 82.0733 133.756 82.3069 133.46 82.5406C134.791 82.5406 136.123 82.5407 137.307 82.7744C138.49 82.7744 139.674 83.125 140.858 83.2418C141.45 82.6576 141.597 81.9564 140.414 81.1384C140.266 81.0216 140.414 80.4373 140.414 80.0868C143.965 80.3205 144.261 77.0487 147.072 76.3477C147.96 77.9835 146.48 78.8014 145.444 79.7362C144.853 80.2036 143.817 81.0216 144.409 81.2553C146.628 81.8396 146.924 82.8912 146.776 83.9428C148.7 84.1765 150.623 84.4102 152.547 84.7607C152.99 84.7607 153.434 84.7607 154.026 84.7607C155.21 84.7607 156.245 84.5271 157.133 84.0598C158.021 86.0462 160.536 85.8123 162.46 86.2797C163.2 86.2797 164.087 86.3967 164.827 86.5135C165.123 86.5135 165.271 86.5134 165.419 86.2797C167.934 83.7091 171.189 83.3586 175.036 84.1765C176.368 84.4102 177.7 84.4102 178.439 83.3585C176.664 79.6194 181.103 77.9835 183.322 75.4128C183.618 75.9971 183.322 76.5814 183.914 77.0488C185.689 77.9836 187.613 77.0487 188.501 76.3477C190.72 74.9455 193.235 73.5433 194.863 71.6738C194.863 72.6086 195.455 73.3096 197.23 73.777C199.746 74.5949 201.373 74.3613 202.705 72.2581C204.776 68.8695 222.827 70.5052 221.2 67.1166C220.904 66.6492 220.756 66.2987 221.2 65.8313C221.792 65.3639 222.531 65.4808 223.123 65.8313C225.047 66.7661 226.674 66.2987 228.302 65.4807C228.598 66.5323 229.781 66.5324 230.965 66.4156C234.812 65.7145 238.511 65.0134 242.358 65.9482C243.542 66.1819 244.43 65.7145 245.169 65.0134C247.537 62.9101 249.904 61.1573 253.899 60.9236C254.639 60.9236 255.083 60.5731 255.527 60.2226H259.521C261.001 61.9753 262.777 61.8585 265.588 60.2226H550.41C550.41 60.2226 552.038 60.69 552.778 61.0406C552.926 61.0406 553.074 61.0406 553.222 61.0406C553.665 60.8069 553.961 60.5731 554.257 60.3394H556.033C556.477 61.3911 557.808 61.8584 560.176 61.1573C561.951 60.6899 562.987 62.209 564.614 61.7416C565.798 61.5079 566.538 61.0405 566.982 60.2226H570.237C570.237 60.2226 570.829 60.8068 571.421 60.8068C571.865 60.8068 572.456 60.5731 572.604 60.2226H579.854C580.298 60.9237 580.298 61.7417 581.186 62.209C581.186 62.3259 581.186 62.5595 581.186 62.6764C582.222 62.9101 583.257 62.4427 584.293 62.3259C585.625 61.9753 585.921 62.6764 586.365 63.2606C586.365 63.2606 587.992 63.8449 588.584 64.3123C593.615 64.6628 598.645 64.3124 603.528 63.6113C603.528 63.6113 603.528 63.6113 603.676 63.6113C606.191 65.1303 608.263 67.2336 612.11 66.5325C613.441 66.2988 613.293 67.2336 613.293 67.8178C618.028 68.7526 622.171 66.8829 626.61 66.065C627.941 65.8313 629.273 65.3639 630.753 65.4807C631.492 64.6628 633.416 65.9482 633.86 64.4292C635.487 63.3776 638.89 63.728 638.594 61.2742C638.594 63.728 638.742 63.9618 641.701 63.4944C642.885 63.3775 644.069 62.4427 645.401 63.3775C645.844 62.209 646.584 61.1574 647.472 60.2226H649.395C649.395 60.2226 649.099 60.4563 649.099 60.5732C648.804 61.1574 648.064 61.8585 649.099 62.3259C650.135 62.9101 650.431 61.9753 650.875 61.5079C651.171 61.0405 651.615 60.3395 652.355 60.69C652.799 60.8069 652.799 61.6248 652.946 62.209C654.13 61.7417 654.574 61.0405 654.574 60.3394H705.028C705.324 60.9237 705.768 61.5079 706.804 61.7416C708.283 61.7416 709.319 61.0405 710.355 60.3394H720.564C720.564 60.3394 720.564 60.8069 721.008 61.0406C721.6 61.0406 722.044 60.69 722.488 60.3394H724.707C726.039 61.3911 727.222 62.4427 724.707 63.8448C723.227 64.6628 724.559 66.6492 727.222 67.4672C723.523 68.1683 723.227 69.3368 725.891 71.0895C726.335 70.8558 726.926 70.7389 727.37 70.5052C729.146 71.3232 729.885 73.3096 732.549 73.3096C732.845 73.3096 732.993 73.3096 733.289 73.3096C733.733 73.8938 733.88 74.5949 734.768 74.9454C735.804 77.1656 738.319 75.8803 738.467 75.1792C738.615 73.6602 739.947 73.3096 740.983 72.4916C742.906 74.7118 748.085 75.1792 747.197 78.9184C747.345 80.0869 748.232 80.5542 749.712 80.3205C749.712 80.3205 750.008 80.0868 750.156 80.0868C751.34 78.6846 752.08 79.7363 752.819 80.3205C754.151 81.3721 755.335 81.6058 755.63 79.7362C756.074 77.8666 758.146 77.1656 759.773 76.114C760.809 75.4129 761.697 75.8804 762.585 76.4646C763.62 77.0488 764.064 78.4509 765.988 77.8667C765.988 77.8667 765.988 77.633 766.136 77.633C768.651 77.2824 764.064 74.9455 767.467 75.0624C769.095 75.0624 770.722 74.7117 772.202 75.7634C772.202 74.4391 773.238 73.4264 775.309 72.7253C776.345 73.3096 775.309 74.2443 775.901 74.9454C776.493 75.7634 776.493 76.8152 778.416 75.8804C779.748 75.1793 780.932 76.2308 782.115 76.9319C782.115 75.5297 780.488 75.0623 780.34 74.0107C780.784 73.6601 781.375 73.3096 781.819 72.959C782.411 72.6085 782.855 72.3749 783.743 72.2581C789.069 72.0244 797.503 70.7389 800.758 71.3231C802.682 71.6737 799.723 73.777 802.238 74.0107C803.274 73.6601 803.717 74.2444 804.457 74.595C804.457 74.8287 804.457 74.9455 804.457 75.1792C803.422 76.4645 804.457 77.2825 805.641 77.8667C806.825 78.3341 807.712 77.5161 807.86 76.9319C807.86 75.8802 811.411 75.296 808.748 73.8939C807.416 73.1928 807.416 71.7906 807.121 70.739C806.825 70.0379 808.896 70.2715 809.784 69.5704C810.524 68.9862 811.855 69.5705 811.707 70.739C813.039 69.8042 814.223 69.1031 815.554 70.739C816.442 71.7906 817.774 72.7254 819.845 71.9075C820.437 71.6738 821.177 71.6738 821.177 72.3749C821.177 74.595 824.432 75.1792 825.615 76.8151C826.207 77.633 831.682 76.815 832.57 75.5297C833.309 74.7117 833.753 74.3611 835.233 74.1274C836.565 73.8937 838.784 73.0758 837.156 71.3231C835.973 70.0378 838.044 69.4536 838.044 68.402C839.524 67.9346 840.116 66.5324 842.631 67.4672C845.442 68.5188 850.917 68.402 850.473 69.8041C850.325 70.2715 851.804 70.6221 852.396 70.0378C853.284 68.9862 854.616 68.7526 855.947 68.1683C856.391 70.3885 860.386 71.44 863.049 70.0378C865.861 68.7525 869.56 68.8694 872.223 67.3503V67.4672C871.631 68.4019 871.631 69.3367 873.111 69.8041C874.59 70.1547 876.07 70.5052 877.253 69.2199C877.106 68.8694 877.253 69.3368 877.253 68.9863C877.253 68.9863 877.253 68.9863 877.401 68.9863C880.657 70.0379 883.764 69.5705 885.983 67.7009C887.907 66.065 890.274 65.4808 892.641 65.5977C896.784 65.8314 900.483 64.546 904.034 63.3775C905.662 62.9101 908.917 63.6112 911.136 64.0786C912.616 64.3122 913.06 62.3259 914.835 63.3775C915.723 64.0786 917.499 63.7281 918.238 64.7797C918.978 65.8314 920.014 66.6493 921.641 66.2987C923.417 65.9482 924.157 64.7797 924.305 63.3775C924.305 63.1438 924.305 63.027 924.305 62.7933C926.82 63.6112 934.07 66.2988 936.141 68.8694C937.769 70.8559 938.361 70.0379 939.544 69.3369C940.284 68.8695 940.432 67.8178 941.912 68.1683C943.244 68.5189 943.096 69.2199 943.096 70.1547C943.096 71.6738 943.539 71.6738 946.647 70.1547C947.978 71.2064 947.83 72.6085 947.83 73.8939C949.162 73.8939 950.494 73.6601 951.381 72.7253C952.417 71.7906 953.749 71.7906 954.488 72.4916C956.412 74.2444 957.3 72.9591 957.448 71.7906C957.892 69.3368 959.963 68.9863 962.774 68.7526C962.774 70.5053 960.555 72.1411 962.626 74.2444C963.81 71.2063 967.509 70.3883 969.58 68.285C970.172 67.7008 970.32 66.7661 971.504 66.8829C973.131 67.1166 971.504 68.4021 972.54 68.8694C973.575 68.5189 972.983 67.7009 973.575 67.2335C974.463 66.4155 976.091 66.6492 976.091 67.4672C976.091 71.2063 978.606 69.4537 980.677 68.8694C981.121 69.22 981.565 69.22 982.157 68.9863C984.228 67.8178 986.448 66.766 988.371 65.4807C988.963 65.1302 989.407 64.7797 990.147 65.1302C992.662 65.8313 994.586 64.8966 996.213 63.6113C996.509 63.6113 996.657 63.6113 996.953 63.6113C997.545 63.7281 998.137 64.0785 998.876 63.8448C998.876 63.8448 999.024 63.6112 999.024 63.4944C1000.5 62.4427 1004.35 61.3911 1007.61 60.2226H1012.19C1012.19 60.2226 1013.23 60.69 1013.67 60.8068C1015.15 60.5731 1016.48 60.3394 1017.96 60.2226H1019.74C1020.92 60.8068 1022.11 61.5079 1023.73 60.4562C1023.88 60.2225 1024.18 60.2226 1024.47 60.2226H1071.52C1072.71 61.3911 1074.34 61.508 1075.96 61.0406C1079.07 59.989 1082.03 60.2226 1084.84 61.6248C1086.17 62.3258 1087.65 62.5596 1089.13 62.7933C1089.43 62.7933 1089.87 62.7933 1090.17 62.7933C1091.2 62.5596 1092.09 61.9753 1093.27 61.9753C1094.01 61.9753 1094.75 61.9753 1095.49 61.7416C1095.64 61.7416 1095.79 61.7416 1095.94 61.8585C1098.75 62.4427 1101.26 62.6764 1103.93 64.0786C1106.15 65.247 1110.29 65.5977 1114.14 64.7797C1113.84 65.8314 1112.51 66.7662 1113.55 67.8178C1113.69 68.0515 1113.99 68.1682 1114.28 68.285C1114.73 68.285 1115.17 68.285 1115.62 68.285C1118.58 68.0513 1120.8 69.5705 1123.31 70.1547C1124.64 70.1547 1125.97 70.1547 1127.31 70.2715C1127.6 70.2715 1127.9 70.1547 1128.05 69.921C1128.05 69.3368 1127.45 68.8693 1128.05 68.285C1130.12 66.4155 1127.6 64.6628 1128.05 62.7933C1128.05 62.7933 1128.34 62.7932 1128.34 62.9101C1129.08 64.0786 1128.34 65.9481 1130.86 66.1818C1132.48 66.2987 1135.15 64.1954 1135.89 62.4426C1136.04 62.7932 1136.33 63.0269 1136.77 63.2606C1138.55 64.1954 1139.29 65.4807 1139.29 67.1166C1140.92 67.8177 1142.4 67.7008 1144.02 67.1166C1146.24 66.2986 1148.61 67.1166 1150.83 67.1166C1152.61 67.2334 1153.94 68.2852 1155.57 68.8694C1155.12 69.22 1154.97 69.5705 1155.86 69.6873C1158.67 69.6873 1160.89 71.0894 1163.56 71.2062C1166.96 71.4399 1168.59 69.921 1167.4 67.4672C1168.14 66.2987 1169.92 68.402 1170.66 66.8829C1171.1 66.5324 1171.25 65.9482 1172.14 66.2987C1172.43 66.5324 1172.58 66.6492 1172.88 66.8829C1174.65 67.584 1175.98 67.3503 1176.58 65.8313C1177.61 64.4291 1179.24 64.0786 1181.16 64.3123C1183.23 64.6628 1185.01 64.546 1186.05 63.027C1186.49 62.3259 1187.08 62.4426 1187.82 62.4426C1189.45 62.5595 1188.41 63.2606 1188.41 63.8448C1188.41 64.4291 1188.71 65.1302 1189.45 65.0134C1192.85 64.6628 1195.81 66.7661 1199.36 65.7145C1200.84 65.2471 1202.47 65.8313 1203.65 66.8829C1206.02 68.9862 1207.06 68.8694 1209.28 66.5325C1210.16 65.5977 1212.23 65.5976 1213.86 66.1818C1214.9 65.8313 1215.79 65.4808 1216.82 65.1302C1216.53 64.1955 1214.9 64.546 1214.45 63.728C1214.9 63.1438 1215.49 63.0269 1216.08 62.9101C1216.23 63.1438 1216.53 63.3776 1216.67 63.6113C1216.97 63.845 1217.12 64.3123 1217.26 64.546C1217.86 65.3639 1217.71 66.8829 1219.34 66.6492C1220.52 66.4155 1220.67 65.8313 1220.52 65.1302C1220.96 65.3639 1221.41 65.4808 1221.85 65.5977C1225.99 67.2335 1230.14 66.8829 1232.95 64.546C1234.72 63.0269 1235.76 64.3123 1236.65 65.1302C1239.75 68.1683 1240.94 68.1683 1244.05 65.0134C1244.79 64.1954 1246.41 63.9617 1246.86 62.9101C1247.15 63.6112 1247.74 64.1954 1248.48 64.6628C1251.15 66.065 1253.37 67.8177 1255.44 69.8041C1257.21 71.5569 1259.58 71.3232 1262.1 70.9727C1264.32 70.739 1266.24 70.2716 1267.87 72.3749C1268.9 73.7771 1271.57 74.478 1273.93 72.8422C1275.41 71.0894 1277.19 70.0379 1280 70.8558V0C1280 0 624.372 0 0 0Z" fill="url(#paint1_linear_2990_22135)"/>
<defs>
<linearGradient id="paint0_linear_2990_22135" x1="1325.44" y1="78.6326" x2="-237.854" y2="78.6326" gradientUnits="userSpaceOnUse">
<stop stop-color="#DADADA"/>
<stop offset="0.05" stop-color="#CFD0D1"/>
<stop offset="0.16" stop-color="#C1C2C4"/>
<stop offset="0.25" stop-color="#BCBEC0"/>
<stop offset="0.37" stop-color="#C3C5C6"/>
<stop offset="0.55" stop-color="#D8D9D9"/>
<stop offset="0.61" stop-color="#E2E2E2"/>
<stop offset="0.87" stop-color="#D2D3D5"/>
<stop offset="0.99" stop-color="#CACCCF"/>
</linearGradient>
<linearGradient id="paint1_linear_2990_22135" x1="640" y1="-1290.71" x2="640" y2="105.919" gradientUnits="userSpaceOnUse">
<stop stop-color="#EBDEC9"/>
<stop offset="1" stop-color="#FFF7EA"/>
</linearGradient>
</defs>
</svg>
