<svg width="254" height="29" viewBox="0 0 254 29" fill="none" xmlns="http://www.w3.org/2000/svg">
<g filter="url(#filter0_i_78_1180)">
<path d="M13.783 1H1.5V28H13.783H241.285H252.5V1H241.285H13.783Z" fill="#70C8B9"/>
</g>
<path d="M13.783 1H1.5V28H13.783H241.285H252.5V1H241.285H13.783Z" stroke="#17639A" stroke-width="2"/>
<rect x="2.5" y="25" width="249" height="2" fill="#238BA6"/>
<rect x="2.5" y="2" width="249" height="2" fill="#98D7CC"/>
<g filter="url(#filter1_d_78_1180)">
<path d="M36 20.4006V18.9006H34.5V17.4006H33V15.9006H31.5V9.90063H34.5V14.4006H36V15.9006H37.5V14.4006H39V9.90063H42V15.9006H40.5V17.4006H39V18.9006H37.5V20.4006H36ZM45 20.4006V18.9006H48V11.4006H45V9.90063H54V11.4006H51V18.9006H54V20.4006H45ZM55.5 20.4006V9.90063H66V11.4006H58.5V14.4006H64.5V15.9006H58.5V18.9006H66V20.4006H55.5ZM67.5 20.4006V9.90063H70.5V14.4006H72V12.9006H73.5V14.4006H75V9.90063H78V20.4006H75V18.9006H73.5V17.4006H72V18.9006H70.5V20.4006H67.5ZM96 20.4006V11.4006H93V9.90063H102V11.4006H99V20.4006H96ZM109.5 15.9006V14.4006H111V11.4006H106.5V15.9006H109.5ZM103.5 20.4006V9.90063H112.5V11.4006H114V15.9006H111V17.4006H112.5V18.9006H114V20.4006H109.5V18.9006H108V17.4006H106.5V20.4006H103.5ZM123 15.9006V12.9006H121.5V11.4006H120V12.9006H118.5V15.9006H123ZM115.5 20.4006V12.9006H117V11.4006H118.5V9.90063H123V11.4006H124.5V12.9006H126V20.4006H123V17.4006H118.5V20.4006H115.5ZM127.5 20.4006V9.90063H130.5V11.4006H132V12.9006H133.5V14.4006H135V9.90063H138V20.4006H135V18.9006H133.5V17.4006H132V15.9006H130.5V20.4006H127.5ZM141 20.4006V18.9006H139.5V17.4006H142.5V18.9006H147V15.9006H141V14.4006H139.5V11.4006H141V9.90063H147V11.4006H148.5V12.9006H145.5V11.4006H142.5V14.4006H148.5V15.9006H150V18.9006H148.5V20.4006H141ZM159 15.9006V12.9006H157.5V11.4006H156V12.9006H154.5V15.9006H159ZM151.5 20.4006V12.9006H153V11.4006H154.5V9.90063H159V11.4006H160.5V12.9006H162V20.4006H159V17.4006H154.5V20.4006H151.5ZM166.5 20.4006V18.9006H165V17.4006H163.5V12.9006H165V11.4006H166.5V9.90063H172.5V11.4006H174V12.9006H171V11.4006H168V12.9006H166.5V17.4006H168V18.9006H171V17.4006H174V18.9006H172.5V20.4006H166.5ZM180 20.4006V11.4006H177V9.90063H186V11.4006H183V20.4006H180ZM189 20.4006V18.9006H192V11.4006H189V9.90063H198V11.4006H195V18.9006H198V20.4006H189ZM207 18.9006V11.4006H202.5V18.9006H207ZM201 20.4006V18.9006H199.5V11.4006H201V9.90063H208.5V11.4006H210V18.9006H208.5V20.4006H201ZM211.5 20.4006V9.90063H214.5V11.4006H216V12.9006H217.5V14.4006H219V9.90063H222V20.4006H219V18.9006H217.5V17.4006H216V15.9006H214.5V20.4006H211.5Z" fill="black"/>
</g>
<defs>
<filter id="filter0_i_78_1180" x="0.5" y="0" width="253" height="29" filterUnits="userSpaceOnUse" color-interpolation-filters="sRGB">
<feFlood flood-opacity="0" result="BackgroundImageFix"/>
<feBlend mode="normal" in="SourceGraphic" in2="BackgroundImageFix" result="shape"/>
<feColorMatrix in="SourceAlpha" type="matrix" values="0 0 0 0 0 0 0 0 0 0 0 0 0 0 0 0 0 0 127 0" result="hardAlpha"/>
<feOffset dy="7"/>
<feComposite in2="hardAlpha" operator="arithmetic" k2="-1" k3="1"/>
<feColorMatrix type="matrix" values="0 0 0 0 0.993333 0 0 0 0 0.998431 0 0 0 0 1 0 0 0 1 0"/>
<feBlend mode="normal" in2="shape" result="effect1_innerShadow_78_1180"/>
</filter>
<filter id="filter1_d_78_1180" x="31.5" y="9.90063" width="191.5" height="12" filterUnits="userSpaceOnUse" color-interpolation-filters="sRGB">
<feFlood flood-opacity="0" result="BackgroundImageFix"/>
<feColorMatrix in="SourceAlpha" type="matrix" values="0 0 0 0 0 0 0 0 0 0 0 0 0 0 0 0 0 0 127 0" result="hardAlpha"/>
<feOffset dx="1" dy="1.5"/>
<feComposite in2="hardAlpha" operator="out"/>
<feColorMatrix type="matrix" values="0 0 0 0 1 0 0 0 0 1 0 0 0 0 1 0 0 0 1 0"/>
<feBlend mode="normal" in2="BackgroundImageFix" result="effect1_dropShadow_78_1180"/>
<feBlend mode="normal" in="SourceGraphic" in2="effect1_dropShadow_78_1180" result="shape"/>
</filter>
</defs>
</svg>
