<svg width="36" height="36" viewBox="0 0 36 36" fill="none" xmlns="http://www.w3.org/2000/svg">
<path fill-rule="evenodd" clip-rule="evenodd" d="M3 24.2154V7.4967C3 5.84945 4.32945 4.51128 5.9736 4.61233C7.43816 4.70234 9.17023 4.88027 10.5 5.23117C12.0738 5.64646 13.9442 6.53101 15.4234 7.31319C15.884 7.55677 16.3739 7.72573 16.8753 7.82095V30.5889C16.4208 30.4887 15.9773 30.3271 15.5586 30.1039C14.0594 29.3047 12.1222 28.3781 10.5 27.95C9.18494 27.603 7.47642 27.4252 6.02229 27.3342C4.35907 27.2302 3 25.8818 3 24.2154ZM7.77312 12.4086C7.17035 12.2579 6.55955 12.6244 6.40886 13.2271C6.25816 13.8299 6.62464 14.4407 7.22741 14.5914L13.2274 16.0914C13.8302 16.2421 14.441 15.8756 14.5917 15.2729C14.7424 14.6701 14.3759 14.0593 13.7731 13.9086L7.77312 12.4086ZM7.77312 18.4086C7.17035 18.2579 6.55955 18.6244 6.40886 19.2271C6.25816 19.8299 6.62464 20.4407 7.22741 20.5914L13.2274 22.0914C13.8302 22.2421 14.441 21.8756 14.5917 21.2729C14.7424 20.6701 14.3759 20.0593 13.7731 19.9086L7.77312 18.4086Z" fill="#1FAB5E"/>
<path fill-rule="evenodd" clip-rule="evenodd" d="M19.1253 30.5888C19.5796 30.4886 20.0228 30.327 20.4414 30.1039C21.9406 29.3047 23.8778 28.3781 25.5 27.95C26.8151 27.603 28.5236 27.4252 29.9777 27.3342C31.6409 27.2302 33 25.8818 33 24.2154V7.39979C33 5.79112 31.7307 4.47062 30.123 4.52662C28.4301 4.58559 26.3204 4.76104 24.75 5.23117C23.3886 5.63875 21.803 6.45628 20.5108 7.20413C20.0736 7.45712 19.6064 7.64296 19.1253 7.7608V30.5888ZM28.7731 14.5914C29.3759 14.4407 29.7424 13.8299 29.5917 13.2271C29.441 12.6244 28.8302 12.2579 28.2274 12.4086L22.2274 13.9086C21.6246 14.0593 21.2582 14.6701 21.4089 15.2729C21.5595 15.8756 22.1703 16.2421 22.7731 16.0914L28.7731 14.5914ZM28.7731 20.5914C29.3759 20.4407 29.7424 19.8299 29.5917 19.2271C29.441 18.6244 28.8302 18.2579 28.2274 18.4086L22.2274 19.9086C21.6246 20.0593 21.2582 20.6701 21.4089 21.2729C21.5595 21.8756 22.1703 22.2421 22.7731 22.0914L28.7731 20.5914Z" fill="#1FAB5E"/>
</svg>
