<svg width="36" height="36" viewBox="0 0 36 36" fill="none" xmlns="http://www.w3.org/2000/svg">
<path d="M30.123 4.52662L30.1491 5.27617L30.123 4.52662ZM24.75 5.23117L24.5349 4.51267V4.51267L24.75 5.23117ZM20.5108 7.20413L20.1351 6.555V6.555L20.5108 7.20413ZM5.9736 4.61233L5.9276 5.36092L5.9736 4.61233ZM10.5 5.23117L10.6914 4.50599V4.50599L10.5 5.23117ZM15.4234 7.31319L15.0728 7.9762L15.4234 7.31319ZM20.4414 30.1039L20.7942 30.7657L20.4414 30.1039ZM25.5 27.95L25.3086 27.2249L25.5 27.95ZM29.9777 27.3342L30.0245 28.0828L29.9777 27.3342ZM15.5586 30.1039L15.2058 30.7657H15.2058L15.5586 30.1039ZM10.5 27.95L10.6914 27.2249H10.6914L10.5 27.95ZM6.02229 27.3342L5.97547 28.0828L6.02229 27.3342ZM3.75 24.2154V7.4967H2.25V24.2154H3.75ZM33.75 24.2154V7.39979H32.25V24.2154H33.75ZM30.0969 3.77707C28.3942 3.83638 26.203 4.01328 24.5349 4.51267L24.9651 5.94966C26.4377 5.5088 28.4659 5.33479 30.1491 5.27617L30.0969 3.77707ZM24.5349 4.51267C23.086 4.94642 21.4383 5.80077 20.1351 6.555L20.8864 7.85326C22.1676 7.11178 23.6911 6.33107 24.9651 5.94966L24.5349 4.51267ZM5.9276 5.36092C7.38176 5.45029 9.05317 5.62505 10.3086 5.95634L10.6914 4.50599C9.28729 4.13548 7.49455 3.9544 6.01961 3.86375L5.9276 5.36092ZM10.3086 5.95634C11.7954 6.34866 13.6029 7.19897 15.0728 7.9762L15.774 6.65017C14.2854 5.86306 12.3523 4.94427 10.6914 4.50599L10.3086 5.95634ZM20.7942 30.7657C22.2849 29.9711 24.1581 29.0798 25.6914 28.6752L25.3086 27.2249C23.5976 27.6764 21.5963 28.6383 20.0886 29.442L20.7942 30.7657ZM25.6914 28.6752C26.9327 28.3477 28.5811 28.173 30.0245 28.0828L29.9309 26.5857C28.4661 26.6773 26.6974 26.8584 25.3086 27.2249L25.6914 28.6752ZM15.9114 29.442C14.4037 28.6383 12.4024 27.6764 10.6914 27.2249L10.3086 28.6752C11.8419 29.0798 13.7151 29.9711 15.2058 30.7657L15.9114 29.442ZM10.6914 27.2249C9.30257 26.8584 7.5339 26.6773 6.06911 26.5857L5.97547 28.0828C7.41894 28.173 9.06731 28.3477 10.3086 28.6752L10.6914 27.2249ZM32.25 24.2154C32.25 25.4566 31.2287 26.5045 29.9309 26.5857L30.0245 28.0828C32.0532 27.9559 33.75 26.3071 33.75 24.2154H32.25ZM33.75 7.39979C33.75 5.40026 32.1616 3.70515 30.0969 3.77707L30.1491 5.27617C31.2997 5.23608 32.25 6.18198 32.25 7.39979H33.75ZM2.25 24.2154C2.25 26.3071 3.94681 27.9559 5.97547 28.0828L6.06911 26.5857C4.77133 26.5045 3.75 25.4566 3.75 24.2154H2.25ZM20.0886 29.442C18.7899 30.1343 17.2101 30.1343 15.9114 29.442L15.2058 30.7657C16.9455 31.6931 19.0545 31.6931 20.7942 30.7657L20.0886 29.442ZM20.1351 6.555C18.7978 7.32892 17.133 7.36882 15.774 6.65017L15.0728 7.9762C16.8953 8.93989 19.1088 8.88208 20.8864 7.85326L20.1351 6.555ZM3.75 7.4967C3.75 6.25043 4.74558 5.28827 5.9276 5.36092L6.01961 3.86375C3.91332 3.73429 2.25 5.44846 2.25 7.4967H3.75Z" fill="#1FAB5E"/>
<path d="M18 8.78125V31.5001" stroke="#1FAB5E" stroke-width="1.5"/>
<path d="M7.5 13.5L13.5 15" stroke="#1FAB5E" stroke-width="1.5" stroke-linecap="round"/>
<path d="M28.5 13.5L22.5 15" stroke="#1FAB5E" stroke-width="1.5" stroke-linecap="round"/>
<path d="M7.5 19.5L13.5 21" stroke="#1FAB5E" stroke-width="1.5" stroke-linecap="round"/>
<path d="M28.5 19.5L22.5 21" stroke="#1FAB5E" stroke-width="1.5" stroke-linecap="round"/>
</svg>
