<svg width="18" height="18" viewBox="0 0 18 18" fill="none" xmlns="http://www.w3.org/2000/svg">
<path d="M5 4.1002V4.8502C5.26675 4.8502 5.51343 4.70851 5.64783 4.4781L5 4.1002ZM6.4 1.7002V0.950195C6.13325 0.950195 5.88657 1.09188 5.75216 1.32229L6.4 1.7002ZM11.6 1.7002L12.2478 1.32229C12.1134 1.09188 11.8667 0.950195 11.6 0.950195V1.7002ZM13 4.1002L12.3522 4.4781C12.4866 4.70851 12.7332 4.8502 13 4.8502V4.1002ZM1.75 14.3002V6.10019H0.25V14.3002H1.75ZM3 4.8502H5V3.3502H3V4.8502ZM5.64783 4.4781L7.04783 2.0781L5.75216 1.32229L4.35217 3.72229L5.64783 4.4781ZM6.4 2.4502H11.6V0.950195H6.4V2.4502ZM10.9522 2.0781L12.3522 4.4781L13.6478 3.72229L12.2478 1.32229L10.9522 2.0781ZM13 4.8502H15V3.3502H13V4.8502ZM16.25 6.10019V14.3002H17.75V6.10019H16.25ZM16.25 14.3002C16.25 14.9906 15.6904 15.5502 15 15.5502V17.0502C16.5188 17.0502 17.75 15.819 17.75 14.3002H16.25ZM15 4.8502C15.6904 4.8502 16.25 5.40984 16.25 6.10019H17.75C17.75 4.58141 16.5188 3.3502 15 3.3502V4.8502ZM1.75 6.10019C1.75 5.40984 2.30964 4.8502 3 4.8502V3.3502C1.48122 3.3502 0.25 4.58141 0.25 6.10019H1.75ZM3 15.5502C2.30964 15.5502 1.75 14.9906 1.75 14.3002H0.25C0.25 15.819 1.48122 17.0502 3 17.0502V15.5502ZM11.25 9.70019C11.25 10.9428 10.2426 11.9502 9 11.9502V13.4502C11.0711 13.4502 12.75 11.7713 12.75 9.70019H11.25ZM9 11.9502C7.75736 11.9502 6.75 10.9428 6.75 9.70019H5.25C5.25 11.7713 6.92893 13.4502 9 13.4502V11.9502ZM6.75 9.70019C6.75 8.45755 7.75736 7.45019 9 7.45019V5.95019C6.92893 5.95019 5.25 7.62913 5.25 9.70019H6.75ZM9 7.45019C10.2426 7.45019 11.25 8.45755 11.25 9.70019H12.75C12.75 7.62913 11.0711 5.95019 9 5.95019V7.45019ZM15 15.5502H3V17.0502H15V15.5502Z" fill="#B0B0B0"/>
</svg>
