<svg width="20" height="20" viewBox="0 0 20 20" fill="none" xmlns="http://www.w3.org/2000/svg">
<path d="M10.1455 18.0426V6.4062M8.79129 5.70812C8.93535 5.74045 9.08715 5.70083 9.19087 5.59711C9.29459 5.4934 9.33415 5.34154 9.30188 5.19753C9.17259 4.66938 8.69631 2.90085 8.20725 2.41179C7.59795 1.80249 6.60629 1.79995 6 2.40624C5.39376 3.01248 5.39621 4.00415 6.00555 4.61349C6.50261 5.11055 8.26316 5.57884 8.79129 5.70812ZM10.2701 5.19749C10.2378 5.34155 10.2774 5.49336 10.3811 5.59707C10.4848 5.70079 10.6367 5.74035 10.7807 5.70808C11.3088 5.57879 13.0774 5.10251 13.5664 4.61345C14.1757 4.00415 14.1783 3.01249 13.572 2.4062C12.9657 1.79996 11.9741 1.80241 11.3647 2.41175C10.8677 2.90881 10.3994 4.66936 10.2701 5.19749ZM2.58182 10.4789H17.4182C17.7395 10.4789 18 10.2184 18 9.89711V6.98802C18 6.66669 17.7395 6.4062 17.4182 6.4062H2.58182C2.26049 6.4062 2 6.66669 2 6.98802V9.89711C2 10.2184 2.26049 10.4789 2.58182 10.4789ZM16.5455 10.4789V17.4607C16.5455 17.7821 16.285 18.0426 15.9636 18.0426H4.03636C3.71503 18.0426 3.45455 17.7821 3.45455 17.4607V10.4789H16.5455Z" stroke="#19B35A" stroke-width="1.5" stroke-linecap="round" stroke-linejoin="round"/>
</svg>
