<svg width="36" height="36" viewBox="0 0 36 36" fill="none" xmlns="http://www.w3.org/2000/svg">
<path fill-rule="evenodd" clip-rule="evenodd" d="M18 33C26.2843 33 33 26.2843 33 18C33 9.71573 26.2843 3 18 3C9.71573 3 3 9.71573 3 18C3 20.3995 3.56342 22.6675 4.56519 24.6787C4.83141 25.2132 4.92001 25.8241 4.76568 26.4009L3.87227 29.74C3.48443 31.1895 4.81052 32.5156 6.26002 32.1277L9.59908 31.2343C10.1759 31.08 10.7868 31.1686 11.3213 31.4348C13.3325 32.4366 15.6005 33 18 33ZM12 19.875C11.3787 19.875 10.875 20.3787 10.875 21C10.875 21.6213 11.3787 22.125 12 22.125H20.25C20.8713 22.125 21.375 21.6213 21.375 21C21.375 20.3787 20.8713 19.875 20.25 19.875H12ZM10.875 15.75C10.875 15.1287 11.3787 14.625 12 14.625H24C24.6213 14.625 25.125 15.1287 25.125 15.75C25.125 16.3713 24.6213 16.875 24 16.875H12C11.3787 16.875 10.875 16.3713 10.875 15.75Z" fill="#1FAB5E"/>
</svg>
