<svg width="18" height="18" viewBox="0 0 18 18" fill="none" xmlns="http://www.w3.org/2000/svg">
<path d="M8.98537 5.24981V7.27481C8.98537 7.6476 9.28758 7.94981 9.66037 7.94981H11.6854M13.0354 2.5498H8.31021C7.56463 2.5498 6.96021 3.15422 6.96021 3.8998V5.24981M13.0354 2.5498H13.4119C13.602 2.5498 13.783 2.62987 13.9139 2.76765C14.1107 2.9747 14.4225 3.29351 14.7229 3.56231C14.9583 3.77297 15.3282 4.15104 15.5497 4.38082C15.6695 4.50508 15.7354 4.67099 15.7354 4.84359L15.7354 5.24981M13.0354 2.5498V4.57481C13.0354 4.9476 13.3376 5.24981 13.7104 5.24981H15.7354M15.7354 5.24981L15.7352 11.9998C15.7352 12.7454 15.1308 13.3498 14.3852 13.3498H11.6852M10.6729 6.26231C10.3725 5.99351 10.0607 5.67471 9.86391 5.46765C9.73295 5.32987 9.55201 5.24981 9.36192 5.24981H4.26021C3.51463 5.24981 2.91021 5.85422 2.91021 6.5998L2.91016 14.6998C2.91015 15.4454 3.51457 16.0498 4.26015 16.0498L10.3352 16.0498C11.0808 16.0498 11.6852 15.4454 11.6852 14.6998L11.6854 7.54359C11.6854 7.37099 11.6195 7.20508 11.4997 7.08082C11.2782 6.85105 10.9083 6.47297 10.6729 6.26231Z" stroke="#6D6D6D" stroke-width="1.5" stroke-linecap="round" stroke-linejoin="round"/>
</svg>
