<svg width="18" height="18" viewBox="0 0 18 18" fill="none" xmlns="http://www.w3.org/2000/svg">
<path id="Union" fill-rule="evenodd" clip-rule="evenodd" d="M14.0001 1.5H8.28578C6.90507 1.5 5.78578 2.61929 5.78578 4V4.28571H10.7138C12.3707 4.28571 13.7138 5.62886 13.7138 7.28571V15C13.7138 16.6569 12.3707 18 10.7138 18H2.99951C1.34266 18 -0.000488281 16.6569 -0.000488281 15V7.28571C-0.000488281 5.62886 1.34266 4.28571 2.99951 4.28571H4.28578V4C4.28578 1.79086 6.07664 0 8.28578 0H14.0001C16.2092 0 18.0001 1.79086 18.0001 4V9.71429C18.0001 11.9234 16.2092 13.7143 14.0001 13.7143H13.7144V12.2143H14.0001C15.3808 12.2143 16.5001 11.095 16.5001 9.71429V4C16.5001 2.61929 15.3808 1.5 14.0001 1.5ZM2.99951 5.78571H10.7138C11.5422 5.78571 12.2138 6.45729 12.2138 7.28571V15C12.2138 15.8284 11.5422 16.5 10.7138 16.5H2.99951C2.17108 16.5 1.49951 15.8284 1.49951 15V7.28571C1.49951 6.45729 2.17108 5.78571 2.99951 5.78571Z" fill="#1FAB5E"/>
</svg>
