<svg width="24" height="24" viewBox="0 0 24 24" fill="none" xmlns="http://www.w3.org/2000/svg">
<circle cx="12" cy="12" r="12" fill="#DEDEDE"/>
<rect width="16" height="16" transform="translate(4 4)" fill="#DEDEDE"/>
<path d="M10.8114 16.8497C11.0236 16.6843 11.216 16.4919 11.6007 16.1071L16.5313 11.1766C15.8602 10.8973 15.0654 10.4385 14.3138 9.6868C13.562 8.93499 13.1031 8.14006 12.8239 7.46894L7.8932 12.3996L7.89318 12.3996C7.50843 12.7844 7.31603 12.9768 7.15058 13.1889C6.95541 13.4391 6.78807 13.7099 6.65155 13.9964C6.53581 14.2392 6.44977 14.4973 6.27769 15.0136L5.37028 17.7358C5.2856 17.9898 5.35172 18.2699 5.54107 18.4593C5.73042 18.6486 6.0105 18.7147 6.26455 18.63L8.98677 17.7226C9.50299 17.5506 9.76112 17.4645 10.004 17.3488C10.2904 17.2122 10.5612 17.0449 10.8114 16.8497Z" fill="#1FAB5E"/>
<path d="M17.8995 9.80838C18.9233 8.78458 18.9233 7.12466 17.8995 6.10086C16.8757 5.07706 15.2157 5.07706 14.1919 6.10086L13.6006 6.69222C13.6087 6.71667 13.6171 6.74146 13.6258 6.76658C13.8426 7.39134 14.2515 8.21035 15.0209 8.97969C15.7902 9.74903 16.6092 10.158 17.234 10.3748C17.259 10.3834 17.2837 10.3918 17.308 10.3998L17.8995 9.80838Z" fill="#1FAB5E"/>
</svg>
