<svg width="18" height="18" viewBox="0 0 18 18" fill="none" xmlns="http://www.w3.org/2000/svg">
<circle cx="9" cy="9" r="9" fill="#F0F0F0"/>
<path d="M8.70004 12.0806L8.70005 12.0806L12.398 8.38266C11.8947 8.17319 11.2986 7.8291 10.7348 7.26534C10.171 6.70149 9.82687 6.10529 9.61741 5.60195L5.91941 9.29995L5.91939 9.29997C5.63083 9.58853 5.48654 9.73283 5.36245 9.89192C5.21607 10.0796 5.09057 10.2827 4.98817 10.4975C4.90137 10.6797 4.83684 10.8732 4.70778 11.2604L4.02722 13.3021C3.96371 13.4926 4.0133 13.7027 4.15532 13.8447C4.29733 13.9867 4.50739 14.0363 4.69792 13.9728L6.73959 13.2922C7.12676 13.1632 7.32035 13.0986 7.50249 13.0118C7.71735 12.9094 7.92041 12.7839 8.10808 12.6376C8.26717 12.5135 8.41148 12.3692 8.70004 12.0806Z" fill="#1FAB5E"/>
<path d="M13.4241 7.35653C14.192 6.58868 14.192 5.34374 13.4241 4.57589C12.6563 3.80804 11.4113 3.80804 10.6435 4.57589L10.2 5.01941C10.206 5.03775 10.2123 5.05634 10.2189 5.07518C10.3814 5.54375 10.6882 6.158 11.2652 6.73501C11.8422 7.31202 12.4564 7.61874 12.925 7.78131C12.9437 7.78781 12.9622 7.79408 12.9805 7.80013L13.4241 7.35653Z" fill="#1FAB5E"/>
</svg>
