<svg width="18" height="18" viewBox="0 0 18 18" fill="none" xmlns="http://www.w3.org/2000/svg">
<path d="M15.3008 14.625L4.05078 3.375M7.65078 7.83118C7.37072 8.13994 7.20078 8.54553 7.20078 8.98973C7.20078 9.95707 8.00667 10.7412 9.00078 10.7412C9.45914 10.7412 9.87748 10.5745 10.1953 10.3M15.3299 10.7412C15.9495 9.81362 16.2008 9.0571 16.2008 9.0571C16.2008 9.0571 14.5623 3.825 9.00078 3.825C8.68855 3.825 8.38869 3.84149 8.10078 3.87262M13.0508 13.0121C12.0177 13.6711 10.6878 14.1371 9.00078 14.1096C3.50847 14.0197 1.80078 9.0571 1.80078 9.0571C1.80078 9.0571 2.59417 6.52356 4.95078 4.98249" stroke="#535763" stroke-width="1.5" stroke-linecap="round"/>
</svg>
