<svg width="18" height="18" viewBox="0 0 18 18" fill="none" xmlns="http://www.w3.org/2000/svg">
<path fill-rule="evenodd" clip-rule="evenodd" d="M2.6047 9.07949C2.65453 9.19313 2.72468 9.343 2.81724 9.51863C3.04185 9.94486 3.3942 10.5148 3.90188 11.0856C4.90898 12.2179 6.52217 13.3533 9.01335 13.394C11.4884 13.4345 13.0909 12.3081 14.0959 11.1579C14.6029 10.5776 14.9555 9.99222 15.1807 9.55196C15.277 9.36385 15.3491 9.20392 15.3995 9.08448C15.3505 8.96229 15.2798 8.79792 15.1848 8.60414C14.9643 8.15444 14.6173 7.55561 14.1137 6.95937C13.1154 5.77745 11.5107 4.60938 9.00109 4.60938C6.49145 4.60938 4.88678 5.77745 3.88848 6.95937C3.38487 7.55561 3.0379 8.15444 2.8174 8.60414C2.72368 8.7953 2.65362 8.95783 2.6047 9.07949ZM16.2011 9.09147C16.9168 8.86734 16.9167 8.86698 16.9166 8.8666L16.9157 8.86366L16.9139 8.85807L16.9084 8.84124C16.9039 8.82755 16.8976 8.80898 16.8895 8.78584C16.8734 8.73958 16.85 8.675 16.8188 8.5947C16.7564 8.43425 16.6622 8.21023 16.5316 7.94377C16.2711 7.41245 15.8608 6.70326 15.2596 5.99147C14.0483 4.55735 12.053 3.10938 9.00109 3.10938C5.94919 3.10938 3.95386 4.55735 2.74254 5.99147C2.14134 6.70326 1.7311 7.41245 1.47059 7.94377C1.33994 8.21023 1.24582 8.43425 1.18339 8.5947C1.15215 8.675 1.12877 8.73958 1.11264 8.78584C1.10458 8.80898 1.09832 8.82755 1.0938 8.84124L1.08831 8.85807L1.08652 8.86366L1.08586 8.86574C1.08574 8.86612 1.08536 8.86734 1.80109 9.09147L1.08536 8.86734L1.01172 9.1025L1.0919 9.33551L1.80109 9.09147C1.0919 9.33551 1.09177 9.33513 1.0919 9.33551L1.09245 9.3371L1.09316 9.33916L1.09508 9.34462L1.10091 9.36091C1.10568 9.3741 1.11226 9.39194 1.1207 9.41411C1.13758 9.45844 1.16195 9.52017 1.19435 9.59685C1.25911 9.75007 1.35626 9.96373 1.49022 10.2179C1.75744 10.725 2.17528 11.4014 2.78106 12.0825C4.00089 13.4539 5.98769 14.8447 8.98882 14.8938C12.0061 14.9432 14.0036 13.5433 15.2255 12.1449C15.8319 11.4508 16.2495 10.7562 16.5161 10.2351C16.6498 9.97379 16.7467 9.75379 16.8112 9.59611C16.8435 9.5172 16.8677 9.45368 16.8844 9.40816C16.8928 9.38539 16.8993 9.3671 16.904 9.35361L16.9098 9.33702L16.9116 9.33149L16.9123 9.32943C16.9125 9.32905 16.9129 9.32785 16.2011 9.09147ZM16.2011 9.09147L16.9129 9.32785L16.9891 9.09823L16.9166 8.8666L16.2011 9.09147ZM2.51626 9.31738C2.51615 9.31771 2.51617 9.31765 2.51626 9.31738V9.31738ZM9.00109 8.02259C8.40175 8.02259 7.95109 8.49016 7.95109 9.02411C7.95109 9.55806 8.40175 10.0256 9.00109 10.0256C9.60042 10.0256 10.0511 9.55806 10.0511 9.02411C10.0511 8.49016 9.60042 8.02259 9.00109 8.02259ZM15.4859 9.31729C15.486 9.31757 15.486 9.31763 15.4859 9.31729V9.31729ZM6.45109 9.02411C6.45109 7.62338 7.6122 6.52259 9.00109 6.52259C10.39 6.52259 11.5511 7.62338 11.5511 9.02411C11.5511 10.4248 10.39 11.5256 9.00109 11.5256C7.6122 11.5256 6.45109 10.4248 6.45109 9.02411Z" fill="#535763"/>
</svg>
