<svg width="24" height="24" viewBox="0 0 24 24" fill="none" xmlns="http://www.w3.org/2000/svg">
<g id="Vector">
<path id="Vector_2" d="M18.75 8.29408C18.75 4.54784 15.7219 1.5 12 1.5C8.27807 1.5 5.25 4.54784 5.25 8.29408C5.25 11.5991 7.60751 14.3571 10.718 14.962V17.367H9.27518C8.56741 17.367 7.99317 17.9448 7.99317 18.6574C7.99317 19.3701 8.5674 19.9478 9.27518 19.9478H10.718V21.2096C10.718 21.9223 11.2922 22.5 12 22.5C12.7078 22.5 13.282 21.9223 13.282 21.2096V19.9478H14.7248C15.4326 19.9478 16.0068 19.3701 16.0068 18.6574C16.0068 17.9447 15.4326 17.367 14.7248 17.367H13.282V14.962C16.3925 14.3571 18.75 11.5991 18.75 8.29408ZM7.81401 8.29408C7.81401 5.97096 9.69194 4.08075 12 4.08075C14.3081 4.08075 16.186 5.97096 16.186 8.29408C16.186 10.6175 14.3081 12.5077 12 12.5077C9.69194 12.5077 7.81401 10.6175 7.81401 8.29408Z" fill="#E31587"/>
</g>
</svg>
