<svg width="36" height="36" viewBox="0 0 36 36" fill="none" xmlns="http://www.w3.org/2000/svg">
<path d="M18 18L25.5 10.5M25.5 10.5H19.875M25.5 10.5V16.125" stroke="#1FAB5E" stroke-width="1.5" stroke-linecap="round" stroke-linejoin="round"/>
<path d="M18 18L10.5 25.5M10.5 25.5H16.125M10.5 25.5V19.875" stroke="#1FAB5E" stroke-width="1.5" stroke-linecap="round" stroke-linejoin="round"/>
<path d="M3 18C3 10.9289 3 7.3934 5.1967 5.1967C7.3934 3 10.9289 3 18 3C25.0711 3 28.6066 3 30.8033 5.1967C33 7.3934 33 10.9289 33 18C33 25.0711 33 28.6066 30.8033 30.8033C28.6066 33 25.0711 33 18 33C10.9289 33 7.3934 33 5.1967 30.8033C3 28.6066 3 25.0711 3 18Z" stroke="#1FAB5E" stroke-width="1.5"/>
</svg>
