<svg width="36" height="36" viewBox="0 0 36 36" fill="none" xmlns="http://www.w3.org/2000/svg">
<path d="M12.1594 27.3701C7.94728 24.1248 3 20.3131 3 13.7055C3 6.41112 11.2502 1.23807 18 8.25083L21 11.2488C21.4394 11.6881 22.1517 11.6879 22.591 11.2485C23.0303 10.8091 23.0301 10.0968 22.5907 9.65752L19.6927 6.76056C26.0527 2.10451 33 7.01185 33 13.7055C33 20.3131 28.0527 24.1248 23.8406 27.3701C23.4028 27.7074 22.9729 28.0386 22.5574 28.3662C21 29.5939 19.5 30.7499 18 30.7499C16.5 30.7499 15 29.5939 13.4426 28.3662C13.0271 28.0386 12.5972 27.7074 12.1594 27.3701Z" fill="#1FAB5E"/>
</svg>
