<svg width="36" height="36" viewBox="0 0 36 36" fill="none" xmlns="http://www.w3.org/2000/svg">
<path d="M13.4426 28.3662L13.9069 27.7772L13.4426 28.3662ZM18 8.25083L17.4596 8.77093C17.463 8.7744 17.4664 8.77784 17.4698 8.78125L18 8.25083ZM22.5574 28.3662L23.0217 28.9552L22.5574 28.3662ZM20.4698 11.7802C20.7627 12.073 21.2376 12.0729 21.5304 11.78C21.8233 11.487 21.8232 11.0122 21.5302 10.7193L20.4698 11.7802ZM13.9069 27.7772C11.6557 26.0025 9.12814 24.2219 7.12704 21.9685C5.15165 19.7442 3.75 17.1187 3.75 13.7055H2.25C2.25 17.5868 3.86292 20.552 6.00547 22.9646C8.1223 25.3482 10.8161 27.2507 12.9783 28.9552L13.9069 27.7772ZM3.75 13.7055C3.75 10.3389 5.65289 7.49626 8.28064 6.29511C10.8611 5.11557 14.2767 5.46398 17.4596 8.77093L18.5404 7.73073C14.9735 4.02492 10.8891 3.45348 7.65704 4.93088C4.47223 6.38666 2.25 9.77772 2.25 13.7055H3.75ZM12.9783 28.9552C13.7501 29.5636 14.5548 30.1929 15.3644 30.666C16.1739 31.139 17.0596 31.4999 18 31.4999V29.9999C17.4404 29.9999 16.8261 29.7828 16.1212 29.3709C15.4165 28.9591 14.6925 28.3965 13.9069 27.7772L12.9783 28.9552ZM23.0217 28.9552C25.1839 27.2507 27.8777 25.3482 29.9945 22.9646C32.1371 20.552 33.75 17.5868 33.75 13.7055H32.25C32.25 17.1187 30.8484 19.7442 28.873 21.9685C26.8719 24.2219 24.3443 26.0025 22.0931 27.7772L23.0217 28.9552ZM33.75 13.7055C33.75 9.77772 31.5278 6.38666 28.343 4.93088C25.1109 3.45348 21.0265 4.02492 17.4596 7.73073L18.5404 8.77093C21.7233 5.46398 25.1389 5.11557 27.7194 6.29511C30.3471 7.49626 32.25 10.3389 32.25 13.7055H33.75ZM22.0931 27.7772C21.3075 28.3965 20.5835 28.9591 19.8788 29.3709C19.1739 29.7828 18.5596 29.9999 18 29.9999V31.4999C18.9404 31.4999 19.8261 31.139 20.6356 30.666C21.4452 30.1929 22.2499 29.5636 23.0217 28.9552L22.0931 27.7772ZM17.4698 8.78125L20.4698 11.7802L21.5302 10.7193L18.5302 7.7204L17.4698 8.78125Z" fill="#1FAB5E"/>
</svg>
