<svg width="25" height="24" viewBox="0 0 25 24" fill="none" xmlns="http://www.w3.org/2000/svg">
<path d="M8.60627 18.2468C5.79819 16.0833 2.5 13.5422 2.5 9.1371C2.5 4.27416 8.00016 0.825464 12.5 5.50063L14.5 7.49928C14.7929 7.79212 15.2678 7.79203 15.5607 7.49908C15.8535 7.20614 15.8534 6.73127 15.5605 6.43843L13.6285 4.50712C17.8685 1.40309 22.5 4.67465 22.5 9.1371C22.5 13.5422 19.2018 16.0833 16.3937 18.2468C16.1019 18.4717 15.8153 18.6925 15.5383 18.9109C14.5 19.7294 13.5 20.5 12.5 20.5C11.5 20.5 10.5 19.7294 9.46173 18.9109C9.18471 18.6925 8.89814 18.4717 8.60627 18.2468Z" fill="#1FAB5E"/>
</svg>
