<svg width="25" height="24" viewBox="0 0 25 24" fill="none" xmlns="http://www.w3.org/2000/svg">
<path d="M9.46173 18.9109L9.92605 18.3219L9.46173 18.9109ZM12.5 5.50063L11.9596 6.02073C11.963 6.02421 11.9664 6.02765 11.9698 6.03106L12.5 5.50063ZM15.5383 18.9109L16.0026 19.4999L15.5383 18.9109ZM13.9698 8.03034C14.2627 8.32318 14.7376 8.32309 15.0304 8.03014C15.3233 7.7372 15.3232 7.26232 15.0302 6.96948L13.9698 8.03034ZM9.92605 18.3219C8.41039 17.1271 6.75307 15.9603 5.43829 14.4798C4.14922 13.0282 3.25 11.3345 3.25 9.1371H1.75C1.75 11.8026 2.8605 13.8361 4.31672 15.4758C5.74723 17.0866 7.57077 18.3752 8.99742 19.4999L9.92605 18.3219ZM3.25 9.1371C3.25 6.98623 4.46537 5.18252 6.12436 4.42419C7.73607 3.68748 9.90166 3.88258 11.9596 6.02073L13.0404 4.98053C10.5985 2.44352 7.76409 2.02539 5.50076 3.05996C3.28471 4.07292 1.75 6.42503 1.75 9.1371H3.25ZM8.99742 19.4999C9.50965 19.9037 10.0595 20.3343 10.6168 20.6599C11.1739 20.9854 11.8096 21.25 12.5 21.25V19.75C12.1904 19.75 11.8261 19.6293 11.3736 19.3648C10.9213 19.1005 10.4521 18.7366 9.92605 18.3219L8.99742 19.4999ZM16.0026 19.4999C17.4292 18.3752 19.2528 17.0866 20.6833 15.4758C22.1395 13.8361 23.25 11.8026 23.25 9.1371H21.75C21.75 11.3345 20.8508 13.0282 19.5617 14.4798C18.2469 15.9603 16.5896 17.1271 15.074 18.3219L16.0026 19.4999ZM23.25 9.1371C23.25 6.42503 21.7153 4.07292 19.4992 3.05996C17.2359 2.02539 14.4015 2.44352 11.9596 4.98053L13.0404 6.02073C15.0983 3.88258 17.2639 3.68748 18.8756 4.42419C20.5346 5.18252 21.75 6.98623 21.75 9.1371H23.25ZM15.074 18.3219C14.5479 18.7366 14.0787 19.1005 13.6264 19.3648C13.1739 19.6293 12.8096 19.75 12.5 19.75V21.25C13.1904 21.25 13.8261 20.9854 14.3832 20.6599C14.9405 20.3343 15.4903 19.9037 16.0026 19.4999L15.074 18.3219ZM11.9698 6.03106L13.9698 8.03034L15.0302 6.96948L13.0302 4.97021L11.9698 6.03106Z" fill="#1FAB5E"/>
</svg>
