<svg width="18" height="18" viewBox="0 0 18 18" fill="none" xmlns="http://www.w3.org/2000/svg">
<g id="Outline / Essentional, UI / Question Circle" clip-path="url(#clip0_8413_122264)">
<path id="Vector" fill-rule="evenodd" clip-rule="evenodd" d="M9 2.0625C5.16852 2.0625 2.0625 5.16852 2.0625 9C2.0625 12.8315 5.16852 15.9375 9 15.9375C12.8315 15.9375 15.9375 12.8315 15.9375 9C15.9375 5.16852 12.8315 2.0625 9 2.0625ZM0.9375 9C0.9375 4.5472 4.5472 0.9375 9 0.9375C13.4528 0.9375 17.0625 4.5472 17.0625 9C17.0625 13.4528 13.4528 17.0625 9 17.0625C4.5472 17.0625 0.9375 13.4528 0.9375 9ZM9 5.8125C8.53401 5.8125 8.15625 6.19026 8.15625 6.65625C8.15625 6.96691 7.90441 7.21875 7.59375 7.21875C7.28309 7.21875 7.03125 6.96691 7.03125 6.65625C7.03125 5.56894 7.91269 4.6875 9 4.6875C10.0873 4.6875 10.9688 5.56894 10.9688 6.65625C10.9688 7.37875 10.5792 8.00968 10.0014 8.35152C9.85388 8.43883 9.73207 8.53415 9.65271 8.62768C9.57566 8.71847 9.5625 8.7777 9.5625 8.8125V9.75C9.5625 10.0607 9.31066 10.3125 9 10.3125C8.68934 10.3125 8.4375 10.0607 8.4375 9.75V8.8125C8.4375 8.43308 8.60361 8.12523 8.79494 7.89976C8.98397 7.67702 9.21967 7.5069 9.4286 7.38329C9.67833 7.23554 9.84375 6.96492 9.84375 6.65625C9.84375 6.19026 9.46599 5.8125 9 5.8125ZM9 12.75C9.41421 12.75 9.75 12.4142 9.75 12C9.75 11.5858 9.41421 11.25 9 11.25C8.58579 11.25 8.25 11.5858 8.25 12C8.25 12.4142 8.58579 12.75 9 12.75Z" fill="#1C274C"/>
</g>
<defs>
<clipPath id="clip0_8413_122264">
<rect width="18" height="18" fill="white"/>
</clipPath>
</defs>
</svg>
