<svg width="36" height="36" viewBox="0 0 36 36" fill="none" xmlns="http://www.w3.org/2000/svg">
<path d="M3 18C3 10.9289 3 7.3934 5.1967 5.1967C7.3934 3 10.9289 3 18 3C25.0711 3 28.6066 3 30.8033 5.1967C33 7.3934 33 10.9289 33 18C33 25.0711 33 28.6066 30.8033 30.8033C28.6066 33 25.0711 33 18 33C10.9289 33 7.3934 33 5.1967 30.8033C3 28.6066 3 25.0711 3 18Z" stroke="#1FAB5E" stroke-width="1.5"/>
<path d="M3 19.5H7.74039C9.09815 19.5 9.77703 19.5 10.3738 19.7745C10.9705 20.0489 11.4123 20.5644 12.2959 21.5953L13.2041 22.6547C14.0877 23.6856 14.5295 24.2011 15.1262 24.4755C15.723 24.75 16.4019 24.75 17.7596 24.75H18.2404C19.5981 24.75 20.277 24.75 20.8738 24.4755C21.4705 24.2011 21.9123 23.6856 22.7959 22.6547L23.7041 21.5953C24.5877 20.5644 25.0295 20.0489 25.6262 19.7745C26.223 19.5 26.9019 19.5 28.2596 19.5H33" stroke="#1FAB5E" stroke-width="1.5" stroke-linecap="round"/>
<path d="M12 10.5H24" stroke="#1FAB5E" stroke-width="1.5" stroke-linecap="round"/>
<path d="M15 15.75H21" stroke="#1FAB5E" stroke-width="1.5" stroke-linecap="round"/>
</svg>
