<svg width="14" height="14" viewBox="0 0 14 14" fill="none" xmlns="http://www.w3.org/2000/svg">
<g id="Bold / Text Formatting / Link" clip-path="url(#clip0_2603_13006)">
<g id="Union">
<path d="M9.17657 2.26559C10.0133 1.42566 11.2371 1.40802 11.9146 2.08817C12.5934 2.76961 12.5752 4.00116 11.7379 4.84167L10.324 6.26106C10.1535 6.43225 10.154 6.70926 10.3252 6.87978C10.4964 7.0503 10.7734 7.04976 10.9439 6.87858L12.3578 5.45919C13.4727 4.33994 13.6127 2.553 12.5346 1.47065C11.4551 0.38702 9.67214 0.528253 8.55665 1.64808L5.72885 4.48684C4.61393 5.60609 4.47396 7.39305 5.55211 8.4754C5.72263 8.64658 5.99964 8.64712 6.17083 8.4766C6.34201 8.30607 6.34255 8.02907 6.17203 7.85788C5.49323 7.17644 5.51151 5.94487 6.34877 5.10436L9.17657 2.26559Z" fill="#1FAB5E"/>
<path d="M8.45123 5.52455C8.2807 5.35336 8.00369 5.35282 7.83251 5.52335C7.66132 5.69387 7.66079 5.97088 7.83131 6.14207C8.51011 6.8235 8.49183 8.05504 7.65457 8.89556L4.82679 11.7343C3.9901 12.5743 2.76622 12.5919 2.0887 11.9118C1.4099 11.2303 1.42818 9.99876 2.26544 9.15825L3.67935 7.73885C3.84987 7.56766 3.84933 7.29065 3.67815 7.12013C3.50696 6.94961 3.22995 6.95015 3.05943 7.12133L1.64552 8.54073C0.530598 9.65998 0.390621 11.4469 1.46878 12.5293C2.54822 13.6129 4.33121 13.4717 5.44671 12.3519L8.27449 9.51307C9.38941 8.39382 9.52939 6.60689 8.45123 5.52455Z" fill="#1FAB5E"/>
</g>
</g>
<defs>
<clipPath id="clip0_2603_13006">
<rect width="14" height="14" fill="white"/>
</clipPath>
</defs>
</svg>
