<svg width="16" height="16" viewBox="0 0 16 16" fill="none" xmlns="http://www.w3.org/2000/svg">
<g id="Bold / Security / Lock">
<path id="Vector" fill-rule="evenodd" clip-rule="evenodd" d="M3.50065 6.70311V5.33337C3.50065 2.84809 5.51537 0.833374 8.00065 0.833374C10.4859 0.833374 12.5007 2.84809 12.5007 5.33337V6.70311C13.2438 6.75862 13.7278 6.89874 14.0815 7.25249C14.6673 7.83828 14.6673 8.78109 14.6673 10.6667C14.6673 12.5523 14.6673 13.4951 14.0815 14.0809C13.4957 14.6667 12.5529 14.6667 10.6673 14.6667H5.33398C3.44837 14.6667 2.50556 14.6667 1.91977 14.0809C1.33398 13.4951 1.33398 12.5523 1.33398 10.6667C1.33398 8.78109 1.33398 7.83828 1.91977 7.25249C2.27352 6.89874 2.75748 6.75862 3.50065 6.70311ZM4.50065 5.33337C4.50065 3.40038 6.06765 1.83337 8.00065 1.83337C9.93365 1.83337 11.5007 3.40038 11.5007 5.33337V6.66909C11.2453 6.66671 10.9683 6.66671 10.6673 6.66671H5.33398C5.03298 6.66671 4.75599 6.66671 4.50065 6.66909V5.33337Z" fill="#FF5C00"/>
</g>
</svg>
