<svg width="24" height="24" viewBox="0 0 24 24" fill="none" xmlns="http://www.w3.org/2000/svg">
<g id="Vector">
<path id="Vector_2" d="M15.4263 10.8625L17.7848 8.50402L17.8391 9.25299C17.8636 9.59474 18.0157 9.90284 18.2449 10.1321C18.5058 10.3929 18.8663 10.5515 19.2537 10.542C19.9816 10.5235 20.5291 9.91698 20.4765 9.18716L20.2061 5.45477C20.2043 5.45414 20.2031 5.45398 20.2013 5.45336C20.1781 5.13692 20.0469 4.82225 19.7999 4.57524C19.5524 4.32777 19.2369 4.19639 18.9199 4.17357C18.92 4.17177 18.9202 4.17076 18.9203 4.16896L15.1879 3.89859C14.4581 3.84597 13.8516 4.39349 13.833 5.12141C13.8234 5.50899 13.9822 5.86934 14.243 6.13016C14.4723 6.35941 14.7806 6.51128 15.1221 6.53602L15.8711 6.59027L13.5126 8.94875C10.7632 7.05484 7.05344 7.24538 4.71662 9.58221C2.06763 12.2312 2.1726 16.6465 4.95061 19.4245C7.72863 22.2025 12.1439 22.3075 14.7929 19.6585C17.1297 17.3217 17.3203 13.6119 15.4263 10.8625ZM6.77548 17.5996C5.05277 15.8769 4.98767 13.1387 6.63037 11.496C8.27307 9.85326 11.0113 9.91836 12.734 11.6411C14.4567 13.3638 14.5218 16.102 12.8791 17.7447C11.2364 19.3874 8.49819 19.3223 6.77548 17.5996Z" fill="#1FAB5E"/>
</g>
</svg>
