<svg width="24" height="24" viewBox="0 0 24 24" fill="none" xmlns="http://www.w3.org/2000/svg">
<path d="M4.00781 7.008C4.00781 6.456 4.43981 6 4.99181 6H19.0078C19.5598 6 19.9918 6.432 19.9918 7.008C19.9918 7.56 19.5598 7.992 19.0078 7.992H4.99181C4.43981 7.992 4.00781 7.56 4.00781 7.008ZM4.00781 12C4.00781 11.448 4.43981 10.992 4.99181 10.992H19.0078C19.5598 10.992 19.9918 11.448 19.9918 12C19.9918 12.552 19.5598 13.008 19.0078 13.008H4.99181C4.43981 13.008 4.00781 12.552 4.00781 12ZM4.00781 16.992C4.00781 16.44 4.43981 16.008 4.99181 16.008H19.0078C19.5598 16.008 19.9918 16.44 19.9918 16.992C19.9918 17.544 19.5598 18 19.0078 18H4.99181C4.43981 18 4.00781 17.544 4.00781 16.992Z" fill="#fff"/>
</svg>
