<svg width="36" height="36" viewBox="0 0 36 36" fill="none" xmlns="http://www.w3.org/2000/svg">
<path d="M30 6L21 15M21 15H26.625M21 15V9.375" stroke="#1FAB5E" stroke-width="1.5" stroke-linecap="round" stroke-linejoin="round"/>
<path d="M6 30L15 21M15 21H9.375M15 21V26.625" stroke="#1FAB5E" stroke-width="1.5" stroke-linecap="round" stroke-linejoin="round"/>
<path d="M3 18C3 10.9289 3 7.3934 5.1967 5.1967C7.3934 3 10.9289 3 18 3C25.0711 3 28.6066 3 30.8033 5.1967C33 7.3934 33 10.9289 33 18C33 25.0711 33 28.6066 30.8033 30.8033C28.6066 33 25.0711 33 18 33C10.9289 33 7.3934 33 5.1967 30.8033C3 28.6066 3 25.0711 3 18Z" stroke="#1FAB5E" stroke-width="1.5"/>
</svg>
