<svg width="25" height="24" viewBox="0 0 25 24" fill="none" xmlns="http://www.w3.org/2000/svg">
<path d="M2.0773 14.1768L3.05087 13.9485L2.0773 14.1768ZM2.0773 7.50711L3.05087 7.73548L2.0773 7.50711ZM20.9895 7.50711L21.963 7.27875L20.9895 7.50711ZM20.9895 14.1768L21.963 14.4052L20.9895 14.1768ZM14.8682 20.2981L14.6399 19.3245L14.8682 20.2981ZM8.19852 20.2981L7.97015 21.2716L8.19852 20.2981ZM8.19852 1.38589L7.97015 0.412315L8.19852 1.38589ZM14.8682 1.38589L15.0966 0.412314L14.8682 1.38589ZM22.9843 23.7071C23.3748 24.0976 24.008 24.0976 24.3985 23.7071C24.789 23.3166 24.789 22.6834 24.3985 22.2929L22.9843 23.7071ZM3.05087 13.9485C2.57158 11.9052 2.57158 9.77875 3.05087 7.73548L1.10372 7.27874C0.553968 9.62242 0.553968 12.0615 1.10372 14.4052L3.05087 13.9485ZM20.0159 7.73548C20.4952 9.77875 20.4952 11.9052 20.0159 13.9485L21.963 14.4052C22.5128 12.0615 22.5128 9.62242 21.963 7.27875L20.0159 7.73548ZM14.6399 19.3245C12.5966 19.8038 10.4702 19.8038 8.42689 19.3245L7.97015 21.2716C10.3138 21.8214 12.7529 21.8214 15.0966 21.2716L14.6399 19.3245ZM8.42689 2.35946C10.4702 1.88018 12.5966 1.88018 14.6399 2.35946L15.0966 0.412314C12.7529 -0.137438 10.3138 -0.137438 7.97015 0.412315L8.42689 2.35946ZM8.42689 19.3245C5.75939 18.6988 3.67658 16.616 3.05087 13.9485L1.10372 14.4052C1.9029 17.8122 4.56313 20.4725 7.97015 21.2716L8.42689 19.3245ZM15.0966 21.2716C18.5036 20.4725 21.1639 17.8122 21.963 14.4052L20.0159 13.9485C19.3902 16.616 17.3074 18.6988 14.6399 19.3245L15.0966 21.2716ZM14.6399 2.35946C17.3074 2.98517 19.3902 5.06798 20.0159 7.73548L21.963 7.27875C21.1639 3.87172 18.5036 1.21149 15.0966 0.412314L14.6399 2.35946ZM7.97015 0.412315C4.56313 1.21149 1.9029 3.87172 1.10372 7.27874L3.05087 7.73548C3.67658 5.06798 5.75939 2.98517 8.42689 2.35946L7.97015 0.412315ZM18.505 19.2278L22.9843 23.7071L24.3985 22.2929L19.9192 17.8136L18.505 19.2278Z" fill="#363853"/>
</svg>
