<svg width="28" height="28" viewBox="0 0 28 28" fill="none" xmlns="http://www.w3.org/2000/svg">
<path d="M21.7423 18.282L23.7448 12.2744C25.4942 7.02631 26.3689 4.40225 24.9837 3.01711C23.5986 1.63196 20.9745 2.50665 15.7264 4.25602L9.71883 6.25854C5.48309 7.67045 3.36522 8.37641 2.76339 9.41164C2.19085 10.3965 2.19085 11.6128 2.76339 12.5976C3.36522 13.6329 5.48309 14.3388 9.71883 15.7507C10.2438 15.9257 10.8343 15.8008 11.2274 15.4113L17.6507 9.04761C18.012 8.68959 18.5952 8.69231 18.9532 9.05367C19.3112 9.41503 19.3085 9.99821 18.9471 10.3562L12.6276 16.6172C12.1944 17.0464 12.0572 17.7034 12.2501 18.282C13.662 22.5177 14.3679 24.6356 15.4032 25.2374C16.388 25.81 17.6043 25.81 18.5892 25.2374C19.6244 24.6356 20.3304 22.5177 21.7423 18.282Z" fill="#1FAB5E"/>
</svg>
