<svg width="20" height="20" viewBox="0 0 20 20" fill="none" xmlns="http://www.w3.org/2000/svg">
<path d="M17.542 15.591L10.8845 3.22773C10.4127 2.35117 9.15564 2.35117 8.68337 3.22773L2.02634 15.591C1.92388 15.7813 1.87252 15.9949 1.87725 16.211C1.88199 16.4271 1.94267 16.6382 2.05336 16.8238C2.16406 17.0095 2.32099 17.1632 2.50884 17.2701C2.69669 17.3769 2.90904 17.4333 3.12517 17.4336H16.4412C16.6575 17.4336 16.8701 17.3775 17.0582 17.2708C17.2463 17.1641 17.4035 17.0103 17.5144 16.8247C17.6254 16.639 17.6862 16.4277 17.691 16.2115C17.6959 15.9952 17.6445 15.7815 17.542 15.591ZM9.78415 15.5195C9.62963 15.5195 9.47859 15.4737 9.35011 15.3879C9.22164 15.302 9.1215 15.18 9.06237 15.0373C9.00324 14.8945 8.98777 14.7374 9.01791 14.5859C9.04806 14.4343 9.12246 14.2951 9.23172 14.1859C9.34098 14.0766 9.48019 14.0022 9.63174 13.972C9.78328 13.9419 9.94037 13.9574 10.0831 14.0165C10.2259 14.0756 10.3479 14.1758 10.4337 14.3042C10.5196 14.4327 10.5654 14.5838 10.5654 14.7383C10.5654 14.9455 10.4831 15.1442 10.3366 15.2907C10.1901 15.4372 9.99135 15.5195 9.78415 15.5195ZM10.6326 7.66211L10.4084 12.4277C10.4084 12.5935 10.3425 12.7525 10.2253 12.8697C10.1081 12.9869 9.94913 13.0527 9.78337 13.0527C9.61761 13.0527 9.45864 12.9869 9.34143 12.8697C9.22422 12.7525 9.15837 12.5935 9.15837 12.4277L8.93415 7.66406C8.92911 7.55023 8.94704 7.43655 8.98688 7.32979C9.02671 7.22304 9.08763 7.1254 9.166 7.04269C9.24437 6.95998 9.33859 6.89389 9.44305 6.84837C9.5475 6.80285 9.66006 6.77883 9.774 6.77773H9.7822C9.89691 6.77768 10.0105 6.80086 10.116 6.84588C10.2215 6.89091 10.3168 6.95685 10.3961 7.03971C10.4754 7.12258 10.5371 7.22066 10.5775 7.32804C10.6179 7.43541 10.6361 7.54985 10.631 7.66445L10.6326 7.66211Z" fill="#FF4D00"/>
</svg>
