<svg width="32" height="32" viewBox="0 0 32 32" fill="none" xmlns="http://www.w3.org/2000/svg">
<g id="Linear / Map &#38; Location / Global">
<path id="Vector" d="M29.3327 15.9998C29.3327 17.7508 28.9878 19.4846 28.3177 21.1023C27.6477 22.72 26.6656 24.1898 25.4274 25.4279C24.1893 26.666 22.7195 27.6482 21.1018 28.3182C19.4841 28.9883 17.7503 29.3332 15.9993 29.3332C14.2484 29.3332 12.5146 28.9883 10.8969 28.3182C9.27923 27.6482 7.80937 26.666 6.57126 25.4279C5.33314 24.1898 4.35102 22.72 3.68095 21.1023C3.01089 19.4846 2.66602 17.7508 2.66602 15.9998C2.66602 14.2489 3.01089 12.5151 3.68096 10.8974C4.35102 9.27972 5.33315 7.80986 6.57126 6.57175C7.80937 5.33363 9.27923 4.35151 10.8969 3.68144C12.5146 3.01138 14.2484 2.6665 15.9994 2.6665C17.7503 2.6665 19.4841 3.01138 21.1018 3.68144C22.7195 4.35151 24.1893 5.33363 25.4274 6.57175C26.6656 7.80986 27.6477 9.27972 28.3177 10.8974C28.9878 12.5151 29.3327 14.2489 29.3327 15.9998L29.3327 15.9998Z" stroke="#1FAB5E" stroke-width="3"/>
<path id="Vector_2" d="M21.3327 15.9998C21.3327 17.7508 21.1947 19.4846 20.9267 21.1023C20.6587 22.72 20.2658 24.1898 19.7706 25.4279C19.2753 26.666 18.6874 27.6482 18.0403 28.3182C17.3933 28.9883 16.6997 29.3332 15.9993 29.3332C15.299 29.3332 14.6054 28.9883 13.9584 28.3182C13.3113 27.6482 12.7234 26.666 12.2281 25.4279C11.7329 24.1898 11.34 22.72 11.072 21.1023C10.804 19.4846 10.666 17.7508 10.666 15.9998C10.666 14.2489 10.804 12.5151 11.072 10.8974C11.34 9.27972 11.7329 7.80986 12.2281 6.57175C12.7234 5.33363 13.3113 4.35151 13.9584 3.68144C14.6054 3.01138 15.299 2.6665 15.9993 2.6665C16.6997 2.6665 17.3933 3.01138 18.0403 3.68144C18.6874 4.35151 19.2753 5.33363 19.7706 6.57175C20.2658 7.80986 20.6587 9.27972 20.9267 10.8974C21.1947 12.5151 21.3327 14.2489 21.3327 15.9998L21.3327 15.9998Z" stroke="#1FAB5E" stroke-width="3"/>
<path id="Vector_3" d="M2.66602 16H29.3327" stroke="#1FAB5E" stroke-width="3" stroke-linecap="round"/>
</g>
</svg>
