<svg width="24" height="24" viewBox="0 0 24 24" fill="none" xmlns="http://www.w3.org/2000/svg">
<g id="Frame 1000001856">
<path id="Fill 1" fill-rule="evenodd" clip-rule="evenodd" d="M4.38577 21.9907C3.77581 21.9907 3.16585 21.7588 2.70202 21.2919C1.7712 20.3613 1.7712 18.8558 2.70202 17.9251L17.9256 2.70457C18.8564 1.77393 20.3623 1.77393 21.2931 2.70457C22.2239 3.63521 22.2239 5.14075 21.2931 6.07139L6.06951 21.2919C5.60569 21.7588 4.99573 21.9907 4.38577 21.9907Z" fill="#23FF81"/>
<path id="Fill 3" fill-rule="evenodd" clip-rule="evenodd" d="M19.6181 22C19.0082 22 18.3982 21.7681 17.9344 21.3012L2.69812 6.0648C1.76729 5.13416 1.76729 3.62862 2.69812 2.69798C3.63212 1.76734 5.13796 1.76734 6.0656 2.69798L21.3019 17.9344C22.2327 18.865 22.2327 20.3706 21.3019 21.3012C20.8381 21.7681 20.2249 22 19.6181 22Z" fill="#23FF81"/>
</g>
</svg>
