<svg width="81" height="119" viewBox="0 0 81 119" fill="none" xmlns="http://www.w3.org/2000/svg">
<g id="Group">
<g id="Layer 1">
<g id="Group_2">
<g id="Group_3">
<g id="Group_4">
<path id="Vector" d="M55.3804 86.8095L55.4015 85.5773C55.3572 85.2526 55.119 85.01 54.866 85.0327L53.6054 85.1497L53.5253 85.1566L52.2647 85.2736C52.0138 85.2963 51.8452 85.579 51.8873 85.9019L52.2373 87.101C52.8823 89.3071 53.1922 91.611 53.1522 93.8817L53.1311 95.1139C53.1753 95.4385 53.4136 95.6811 53.6665 95.6584L54.9271 95.5415L55.0072 95.5345L56.2679 95.4176C56.5187 95.3949 56.6874 95.1121 56.6452 94.7892L56.2953 93.5902C55.6502 91.3841 55.3403 89.0802 55.3804 86.8095Z" fill="#7CB954"/>
<g id="Vector_2" style="mix-blend-mode:screen">
<path d="M55.3794 86.8095L55.4005 85.5773C55.3562 85.2526 55.118 85.01 54.865 85.0327L54.0703 85.106C54.3212 85.0833 54.5615 85.3259 54.6058 85.6506L54.5847 86.8828C54.5446 89.1535 54.8566 91.4556 55.4996 93.6635L55.8495 94.8625C55.8938 95.1872 55.7251 95.4682 55.4722 95.4909L56.2669 95.4176C56.5178 95.3949 56.6864 95.1121 56.6442 94.7892L56.2943 93.5902C55.6492 91.3841 55.3394 89.0802 55.3794 86.8095Z" fill="#262626"/>
</g>
</g>
<g id="Group_5">
<path id="Vector_3" d="M53.7994 76.0532L53.8057 74.8227C53.7615 74.4981 53.538 74.2537 53.3061 74.2747L52.1467 74.3812L52.0729 74.3881L50.9135 74.4946C50.6816 74.5155 50.5298 74.7966 50.5741 75.1194L50.9093 76.3185C51.5269 78.5281 51.8368 80.8302 51.8242 83.0992L51.8178 84.3297C51.8621 84.6543 52.0856 84.8987 52.3174 84.8777L53.4769 84.7712L53.5507 84.7643L54.7101 84.6578C54.942 84.6369 55.0938 84.3558 55.0495 84.033L54.7143 82.8339C54.0966 80.6243 53.7868 78.3222 53.7994 76.0532Z" fill="#7CB954"/>
<g id="Vector_4" style="mix-blend-mode:screen">
<path d="M53.799 76.0532L53.8053 74.8227C53.7611 74.4981 53.5376 74.2537 53.3057 74.2747L52.5742 74.3428C52.8061 74.3218 53.0296 74.5662 53.0738 74.8908L53.0675 76.1213C53.0549 78.3885 53.3668 80.6924 53.9824 82.902L54.3176 84.101C54.3619 84.4257 54.2101 84.7049 53.9782 84.7259L54.7097 84.6578C54.9416 84.6369 55.0934 84.3558 55.0491 84.033L54.7139 82.8339C54.0962 80.6243 53.7864 78.3222 53.799 76.0532Z" fill="#262626"/>
</g>
</g>
<g id="Group_6">
<path id="Vector_5" d="M58.2378 107.958L58.2589 106.726C58.2146 106.401 57.9764 106.158 57.7234 106.181L56.4628 106.298L56.3827 106.305L55.1221 106.422C54.8712 106.445 54.7026 106.727 54.7447 107.05L55.0947 108.249C55.7397 110.456 56.0496 112.759 56.0096 115.03L55.9885 116.262C56.0328 116.587 56.271 116.83 56.5239 116.807L57.7846 116.69L57.8647 116.683L59.1253 116.566C59.3761 116.543 59.5448 116.261 59.5026 115.938L59.1527 114.739C58.5076 112.532 58.1977 110.229 58.2378 107.958Z" fill="#7CB954"/>
<g id="Vector_6" style="mix-blend-mode:screen">
<path d="M58.2368 107.958L58.2579 106.726C58.2136 106.401 57.9754 106.158 57.7225 106.181L56.9277 106.254C57.1786 106.232 57.4189 106.474 57.4632 106.799L57.4421 108.031C57.402 110.302 57.714 112.604 58.357 114.812L58.7069 116.011C58.7512 116.336 58.5826 116.617 58.3296 116.639L59.1243 116.566C59.3752 116.543 59.5438 116.261 59.5017 115.938L59.1517 114.739C58.5067 112.532 58.1968 110.229 58.2368 107.958Z" fill="#262626"/>
</g>
</g>
<g id="Group_7">
<path id="Vector_7" d="M56.6568 97.2016L56.6632 95.9712C56.6189 95.6465 56.3954 95.4022 56.1635 95.4231L55.0041 95.5296L54.9303 95.5366L53.7709 95.643C53.539 95.664 53.3872 95.945 53.4315 96.2679L53.7667 97.4669C54.3843 99.6766 54.6942 101.979 54.6816 104.248L54.6753 105.478C54.7195 105.803 54.943 106.047 55.1749 106.026L56.3343 105.92L56.4081 105.913L57.5675 105.806C57.7994 105.785 57.9512 105.504 57.9069 105.181L57.5717 103.982C56.9541 101.773 56.6442 99.4706 56.6568 97.2016Z" fill="#7CB954"/>
<g id="Vector_8" style="mix-blend-mode:screen">
<path d="M56.6564 97.2016L56.6627 95.9712C56.6185 95.6465 56.395 95.4022 56.1631 95.4231L55.4316 95.4912C55.6635 95.4703 55.887 95.7146 55.9312 96.0392L55.9249 97.2697C55.9123 99.5369 56.2243 101.841 56.8398 104.05L57.175 105.249C57.2193 105.574 57.0675 105.853 56.8356 105.874L57.5671 105.806C57.799 105.785 57.9508 105.504 57.9065 105.181L57.5713 103.982C56.9537 101.773 56.6438 99.4706 56.6564 97.2016Z" fill="#262626"/>
</g>
</g>
<g id="Group_8">
<path id="Vector_9" d="M52.3652 65.0441L52.3947 63.8101C52.3504 63.4855 52.1038 63.2429 51.8403 63.2673L50.6661 63.3755L50.5839 63.3825L49.8229 63.4523C49.5615 63.4768 49.3844 63.7595 49.4287 64.0824L49.787 65.2797C50.4447 67.4858 50.2086 69.8386 50.1538 72.111L50.1243 73.345C50.1686 73.6696 50.4152 73.9122 50.6787 73.8878L51.99 73.7656L52.0722 73.7586L53.3834 73.6365C53.6448 73.612 53.8219 73.3293 53.7776 73.0064L53.4192 71.8091C52.7615 69.603 52.3125 67.313 52.3673 65.0423L52.3652 65.0441Z" fill="#7CB954"/>
<g id="Vector_10" style="mix-blend-mode:screen">
<path d="M52.3651 65.0441L52.3946 63.8101C52.3503 63.4855 52.1037 63.2429 51.8402 63.2673L51.0117 63.3441C51.2731 63.3197 51.5219 63.5623 51.5661 63.8869L51.5366 65.1209C51.4818 67.3916 51.9308 69.6832 52.5885 71.8876L52.9469 73.0849C52.9912 73.4096 52.8141 73.6906 52.5527 73.715L53.3812 73.6382C53.6426 73.6138 53.8197 73.331 53.7754 73.0081L53.417 71.8108C52.7593 69.6047 52.3103 67.3148 52.3651 65.0441Z" fill="#262626"/>
</g>
</g>
<g id="Group_9">
<path id="Vector_11" d="M50.3212 54.3269L50.336 53.0946C50.2917 52.77 50.0598 52.5256 49.8195 52.5483L48.6095 52.66L48.5336 52.667L48.5884 52.6618C48.346 52.6845 48.1857 52.9655 48.23 53.2884L48.5736 54.4874C49.2039 56.6953 48.8519 59.0602 48.8266 61.3292L48.8118 62.5614C48.8561 62.8861 49.088 63.1304 49.3283 63.1077L50.5383 62.996L50.6142 62.989L51.8242 62.8773C52.0667 62.8546 52.2269 62.5736 52.1826 62.2508L51.839 61.0517C51.2087 58.8438 50.2959 56.5958 50.3233 54.3269H50.3212Z" fill="#7CB954"/>
<g id="Vector_12" style="mix-blend-mode:screen">
<path d="M50.3215 54.3269L50.3362 53.0946C50.292 52.77 50.0601 52.5256 49.8198 52.5483L49.0566 52.6181C49.2991 52.5955 49.5288 52.8398 49.5731 53.1644L49.5584 54.3967C49.5331 56.6656 50.4437 58.9136 51.074 61.1215L51.4177 62.3206C51.4619 62.6452 51.3017 62.9262 51.0593 62.9472L51.8224 62.8773C52.0648 62.8546 52.225 62.5736 52.1808 62.2508L51.8372 61.0517C51.2069 58.8438 50.2941 56.5958 50.3215 54.3269Z" fill="#262626"/>
</g>
</g>
</g>
<g id="Group_10">
<g id="Group_11">
<path id="Vector_13" d="M31.4264 110.099L31.0111 108.916C30.8551 108.617 30.5389 108.441 30.307 108.525L29.1434 108.942L29.0696 108.968L27.9059 109.385C27.674 109.469 27.6108 109.778 27.7689 110.078L28.5278 111.139C29.9255 113.094 31.0364 115.22 31.7995 117.4L32.2148 118.583C32.3708 118.882 32.687 119.058 32.9189 118.974L34.0825 118.557L34.1563 118.531L35.32 118.114C35.5519 118.03 35.6151 117.721 35.457 117.421L34.6981 116.36C33.3005 114.405 32.1895 112.279 31.4264 110.099Z" fill="#7CB954"/>
<g id="Vector_14" style="mix-blend-mode:screen">
<path d="M31.4252 110.099L31.01 108.916C30.854 108.617 30.5378 108.441 30.3059 108.525L29.5723 108.788C29.8042 108.705 30.1204 108.881 30.2764 109.179L30.6916 110.363C31.4569 112.543 32.5678 114.67 33.9633 116.623L34.7223 117.684C34.8782 117.983 34.8171 118.294 34.5852 118.377L35.3188 118.114C35.5507 118.03 35.614 117.721 35.4559 117.421L34.697 116.36C33.2993 114.405 32.1884 112.279 31.4252 110.099Z" fill="#262626"/>
</g>
</g>
<g id="Group_12">
<path id="Vector_15" d="M26.1112 100.197L25.6833 99.0185C25.5273 98.72 25.2258 98.5385 25.0129 98.6153L23.9441 98.9993L23.8767 99.0237L22.8079 99.4077C22.595 99.4845 22.5465 99.7882 22.7046 100.088L23.4487 101.155C24.819 103.118 25.932 105.244 26.7204 107.415L27.1484 108.595C27.3044 108.894 27.6058 109.075 27.8187 108.998L28.8875 108.614L28.955 108.59L30.0238 108.206C30.2367 108.129 30.2852 107.826 30.1271 107.525L29.3829 106.459C28.0127 104.495 26.8996 102.37 26.1112 100.198V100.197Z" fill="#7CB954"/>
<g id="Vector_16" style="mix-blend-mode:screen">
<path d="M26.1108 100.197L25.6828 99.0185C25.5268 98.72 25.2254 98.5385 25.0125 98.6153L24.3379 98.8579C24.5508 98.7811 24.8523 98.9609 25.0083 99.2611L25.4362 100.439C26.2267 102.61 27.3377 104.738 28.7079 106.7L29.452 107.766C29.608 108.065 29.5617 108.37 29.3487 108.447L30.0233 108.204C30.2362 108.127 30.2847 107.824 30.1266 107.524L29.3825 106.457C28.0122 104.494 26.8992 102.368 26.1108 100.197Z" fill="#262626"/>
</g>
</g>
<g id="Group_13">
<path id="Vector_17" d="M20.8474 90.0153L20.4384 88.8285C20.2824 88.53 19.9599 88.3573 19.7174 88.4445L18.6339 88.8337L18.558 88.8617L17.8539 89.113C17.6115 89.2003 17.5419 89.5127 17.7 89.8111L18.4653 90.8688C19.8755 92.8184 20.4806 95.1257 21.231 97.3109L21.64 98.4977C21.796 98.7962 22.1185 98.969 22.3609 98.8817L23.571 98.4489L23.6469 98.421L24.8569 97.9881C25.0993 97.9008 25.1689 97.5884 25.0108 97.29L24.2455 96.2323C22.8353 94.2827 21.5978 92.2005 20.8474 90.0171V90.0153Z" fill="#7CB954"/>
<g id="Vector_18" style="mix-blend-mode:screen">
<path d="M20.8481 90.0153L20.4392 88.8285C20.2832 88.53 19.9606 88.3573 19.7182 88.4445L18.9551 88.7185C19.1975 88.6313 19.52 88.8041 19.676 89.1025L20.085 90.2894C20.8376 92.4745 22.075 94.5567 23.4832 96.5046L24.2484 97.5622C24.4044 97.8607 24.3348 98.1749 24.0945 98.2604L24.8576 97.9864C25.1001 97.8991 25.1696 97.5867 25.0115 97.2882L24.2463 96.2305C22.836 94.281 21.5986 92.1988 20.8481 90.0153Z" fill="#262626"/>
</g>
</g>
<g id="Group_14">
<path id="Vector_19" d="M15.1061 80.2689L14.6845 79.0873C14.5285 78.7889 14.2207 78.6109 13.9973 78.6911L12.88 79.0908L12.8104 79.1153L12.861 79.0978C12.6376 79.1781 12.5827 79.4853 12.7409 79.7837L13.4913 80.8467C14.8763 82.8049 15.3738 85.1507 16.1517 87.3271L16.5733 88.5088C16.7293 88.8072 17.0371 88.9852 17.2605 88.905L18.3778 88.5053L18.4474 88.4808L19.5646 88.0811C19.7881 88.0009 19.8429 87.6937 19.6848 87.3952L18.9343 86.3323C17.5493 84.374 15.884 82.4454 15.1082 80.2689H15.1061Z" fill="#7CB954"/>
<g id="Vector_20" style="mix-blend-mode:screen">
<path d="M15.1059 80.2689L14.6843 79.0873C14.5283 78.7889 14.2205 78.6109 13.9971 78.6911L13.293 78.9442C13.5164 78.8639 13.8242 79.042 13.9802 79.3404L14.4018 80.522C15.1797 82.6985 16.845 84.6253 18.2279 86.5854L18.9784 87.6483C19.1344 87.9467 19.0796 88.2557 18.8582 88.3342L19.5623 88.0811C19.7858 88.0009 19.8406 87.6937 19.6825 87.3952L18.932 86.3323C17.547 84.374 15.8817 82.4454 15.1059 80.2689Z" fill="#262626"/>
</g>
</g>
</g>
<g id="Group_15">
<g id="Group_16">
<path id="Vector_21" d="M63.6667 64.7948L63.9218 63.58C63.9408 63.2536 63.7489 62.9831 63.496 62.9726L62.229 62.9238L62.1489 62.9203L60.882 62.8714C60.629 62.8609 60.4098 63.1175 60.3908 63.4439L60.5089 64.6726C60.7281 66.9363 60.5995 69.2507 60.1294 71.4882L59.8743 72.703C59.8554 73.0294 60.0472 73.2999 60.3002 73.3104L61.5671 73.3592L61.6472 73.3627L62.9142 73.4116C63.1671 73.4221 63.3864 73.1655 63.4053 72.8391L63.2873 71.6104C63.068 69.3467 63.1966 67.0323 63.6667 64.7948Z" fill="#7CB954"/>
<g id="Vector_22" style="mix-blend-mode:screen">
<path d="M63.6668 64.7932L63.9218 63.5785C63.9408 63.2521 63.749 62.9815 63.496 62.9711L62.6971 62.9414C62.95 62.9519 63.1398 63.2224 63.1229 63.5488L62.8678 64.7636C62.3977 67.0011 62.2691 69.3154 62.4884 71.5792L62.6064 72.8079C62.5874 73.1343 62.3682 73.3891 62.1152 73.3804L62.9142 73.41C63.1672 73.4205 63.3864 73.1639 63.4054 72.8376L63.2873 71.6088C63.0681 69.3451 63.1967 67.0308 63.6668 64.7932Z" fill="#262626"/>
</g>
</g>
<g id="Group_17">
<path id="Vector_23" d="M64.1428 53.9661L64.3831 52.7513C64.4021 52.4249 64.2271 52.1544 63.9952 52.1457L62.8316 52.102L62.7578 52.0985L61.5942 52.0549C61.3623 52.0462 61.1578 52.3027 61.1409 52.6291L61.2442 53.8579C61.4361 56.1198 61.3075 58.4342 60.8648 60.6735L60.6245 61.8882C60.6055 62.2146 60.7805 62.4851 61.0123 62.4939L62.176 62.5375L62.2498 62.541L63.4134 62.5846C63.6453 62.5933 63.8498 62.3368 63.8666 62.0104L63.7634 60.7817C63.5715 58.5197 63.7001 56.2054 64.1428 53.9661Z" fill="#7CB954"/>
<g id="Vector_24" style="mix-blend-mode:screen">
<path d="M64.1428 53.9694L64.3832 52.7547C64.4021 52.4283 64.2272 52.1577 63.9953 52.149L63.2596 52.1211C63.4914 52.1298 63.6664 52.4004 63.6474 52.7267L63.4071 53.9415C62.9665 56.179 62.8379 58.4951 63.0277 60.7571L63.131 61.9858C63.112 62.3122 62.9096 62.5688 62.6777 62.5601L63.4134 62.588C63.6453 62.5967 63.8498 62.3401 63.8667 62.0138L63.7634 60.785C63.5715 58.523 63.7001 56.2087 64.1428 53.9694Z" fill="#262626"/>
</g>
</g>
<g id="Group_18">
<path id="Vector_25" d="M62.4695 86.3651L62.7245 85.1503C62.7435 84.8239 62.5517 84.5534 62.2987 84.5429L61.0318 84.4941L60.9517 84.4906L59.6847 84.4417C59.4318 84.4312 59.2125 84.6878 59.1936 85.0142L59.3116 86.2429C59.5308 88.5066 59.4022 90.821 58.9321 93.0585L58.6771 94.2733C58.6581 94.5997 58.8499 94.8702 59.1029 94.8807L60.3698 94.9295L60.45 94.933L61.7169 94.9819C61.9699 94.9924 62.1891 94.7358 62.2081 94.4094L62.09 93.1807C61.8708 90.917 61.9994 88.6026 62.4695 86.3651Z" fill="#7CB954"/>
<g id="Vector_26" style="mix-blend-mode:screen">
<path d="M62.4695 86.3635L62.7246 85.1488C62.7435 84.8224 62.5517 84.5519 62.2987 84.5414L61.4998 84.5117C61.7528 84.5222 61.9425 84.7927 61.9256 85.1191L61.6705 86.3339C61.2004 88.5714 61.0719 90.8857 61.2911 93.1495L61.4091 94.3782C61.3902 94.7046 61.1709 94.9594 60.918 94.9507L61.7169 94.9803C61.9699 94.9908 62.1891 94.7343 62.2081 94.4079L62.09 93.1791C61.8708 90.9154 61.9994 88.6011 62.4695 86.3635Z" fill="#262626"/>
</g>
</g>
<g id="Group_19">
<path id="Vector_27" d="M62.9436 75.5364L63.1839 74.3216C63.2029 73.9952 63.0279 73.7247 62.796 73.716L61.6324 73.6723L61.5586 73.6689L60.3949 73.6252C60.1631 73.6165 59.9586 73.8731 59.9417 74.1994L60.045 75.4282C60.2368 77.6901 60.1082 80.0045 59.6656 82.2438L59.4252 83.4585C59.4063 83.7849 59.5812 84.0554 59.8131 84.0642L60.9768 84.1078L61.0505 84.1113L62.2142 84.1549C62.4461 84.1637 62.6506 83.9071 62.6695 83.5807L62.5662 82.352C62.3744 80.09 62.503 77.7757 62.9457 75.5364H62.9436Z" fill="#7CB954"/>
<g id="Vector_28" style="mix-blend-mode:screen">
<path d="M62.9436 75.5397L63.1839 74.325C63.2029 73.9986 63.0279 73.7281 62.7961 73.7193L62.0603 73.6914C62.2922 73.7001 62.4672 73.9707 62.4482 74.297L62.2079 75.5118C61.7673 77.7493 61.6387 80.0654 61.8285 82.3274L61.9317 83.5561C61.9128 83.8825 61.7104 84.1391 61.4785 84.1304L62.2142 84.1583C62.4461 84.167 62.6506 83.9104 62.6696 83.5841L62.5663 82.3553C62.3744 80.0934 62.503 77.779 62.9457 75.5397H62.9436Z" fill="#262626"/>
</g>
</g>
<g id="Group_20">
<path id="Vector_29" d="M61.3913 108.041L61.6464 106.826C61.6654 106.5 61.4736 106.229 61.2206 106.219L59.9536 106.17L59.8735 106.166L58.6066 106.117C58.3536 106.107 58.1344 106.364 58.1154 106.69L58.2335 107.919C58.4527 110.182 58.3241 112.497 57.854 114.734L57.599 115.949C57.58 116.275 57.7718 116.546 58.0248 116.556L59.2917 116.605L59.3718 116.609L60.6388 116.658C60.8917 116.668 61.111 116.412 61.1299 116.085L61.0119 114.856C60.7927 112.593 60.9212 110.278 61.3913 108.041Z" fill="#7CB954"/>
<g id="Vector_30" style="mix-blend-mode:screen">
<path d="M61.3914 108.039L61.6465 106.825C61.6654 106.498 61.4736 106.228 61.2206 106.217L60.4217 106.188C60.6746 106.198 60.8644 106.468 60.8475 106.795L60.5924 108.01C60.1223 110.247 59.9937 112.562 60.213 114.825L60.331 116.054C60.3121 116.38 60.0928 116.635 59.8398 116.626L60.6388 116.656C60.8918 116.667 61.111 116.41 61.13 116.084L61.0119 114.855C60.7927 112.591 60.9213 110.277 61.3914 108.039Z" fill="#262626"/>
</g>
</g>
<g id="Group_21">
<path id="Vector_31" d="M61.8655 97.2122L62.1058 95.9974C62.1247 95.671 61.9498 95.4005 61.7179 95.3918L60.5542 95.3481L60.4805 95.3446L59.3168 95.301C59.0849 95.2923 58.8805 95.5488 58.8636 95.8752L58.9669 97.1039C59.1587 99.3659 59.0301 101.68 58.5874 103.92L58.3471 105.134C58.3281 105.461 58.5031 105.731 58.735 105.74L59.8986 105.784L59.9724 105.787L61.1361 105.831C61.368 105.839 61.5724 105.583 61.5893 105.256L61.486 104.028C61.2942 101.766 61.4228 99.4514 61.8655 97.2122Z" fill="#7CB954"/>
<g id="Vector_32" style="mix-blend-mode:screen">
<path d="M61.8656 97.2155L62.106 96.0008C62.1249 95.6744 61.95 95.4038 61.7181 95.3951L60.9824 95.3672C61.2143 95.3759 61.3892 95.6464 61.3702 95.9728L61.1299 97.1876C60.6893 99.4251 60.5608 101.741 60.7505 104.003L60.8538 105.232C60.8348 105.558 60.6324 105.815 60.3984 105.806L61.1341 105.834C61.366 105.843 61.5705 105.586 61.5874 105.26L61.4841 104.031C61.2923 101.769 61.4208 99.4548 61.8635 97.2155H61.8656Z" fill="#262626"/>
</g>
</g>
<g id="Group_22">
<path id="Vector_33" d="M64.8108 42.9088L65.0721 41.694C65.0911 41.3677 64.8909 41.0954 64.6274 41.0867L63.4468 41.0413L63.3646 41.0378L62.5994 41.0081C62.3359 40.9976 62.1082 41.2542 62.0892 41.5789L62.2157 42.8076C62.4497 45.0713 61.7688 47.3647 61.2861 49.6022L61.0247 50.817C61.0057 51.1434 61.206 51.4157 61.4695 51.4244L62.787 51.475L62.8692 51.4785L64.1868 51.5291C64.4503 51.5396 64.6779 51.283 64.6969 50.9584L64.5704 49.7296C64.3364 47.4659 64.328 45.1464 64.8129 42.9088H64.8108Z" fill="#7CB954"/>
<g id="Vector_34" style="mix-blend-mode:screen">
<path d="M64.8103 42.9083L65.0717 41.6935C65.0907 41.3671 64.8904 41.0948 64.6269 41.0861L63.7943 41.0547C64.0578 41.0652 64.2559 41.3374 64.2391 41.6621L63.9777 42.8768C63.4949 45.1126 63.5033 47.434 63.7352 49.6977L63.8617 50.9264C63.8427 51.2528 63.6151 51.5076 63.3516 51.4971L64.1842 51.5285C64.4478 51.539 64.6754 51.2825 64.6944 50.9578L64.5679 49.7291C64.3339 47.4654 64.3255 45.1458 64.8103 42.9083Z" fill="#262626"/>
</g>
</g>
<g id="Group_23">
<path id="Vector_35" d="M64.8173 32.0626L65.064 30.8478C65.083 30.5214 64.8995 30.2509 64.6571 30.2422L63.4408 30.195L63.3649 30.1915H63.4197C63.1773 30.1846 62.9644 30.4411 62.9475 30.7658L63.0592 31.9945C63.2637 34.2565 62.469 36.5464 62.0136 38.7839L61.767 39.9987C61.748 40.3251 61.9314 40.5956 62.1738 40.6043L63.3902 40.6514L63.4661 40.6549L64.6824 40.7021C64.9248 40.7108 65.1378 40.4542 65.1546 40.1296L65.0429 38.9009C64.8384 36.6389 64.362 34.3001 64.8173 32.0626Z" fill="#7CB954"/>
<g id="Vector_36" style="mix-blend-mode:screen">
<path d="M64.8159 32.0649L65.0626 30.8502C65.0815 30.5238 64.8981 30.2532 64.6557 30.2445L63.8884 30.2148C64.1308 30.2236 64.3142 30.4958 64.2952 30.8205L64.0486 32.0352C63.5932 34.2728 64.0676 36.6098 64.2742 38.8735L64.3859 40.1023C64.3669 40.4286 64.1561 40.6852 63.9137 40.6747L64.681 40.7044C64.9234 40.7131 65.1364 40.4566 65.1532 40.1319L65.0415 38.9032C64.837 36.6412 64.3606 34.3025 64.8159 32.0649Z" fill="#262626"/>
</g>
</g>
</g>
<g id="Group_24">
<g id="Group_25">
<path id="Vector_37" d="M26.0731 67.8722L25.9255 66.6452C25.837 66.3276 25.565 66.1077 25.3184 66.1548L24.0831 66.3904L24.0051 66.4044L22.7698 66.64C22.5231 66.6871 22.3945 66.9821 22.4831 67.2997L22.9953 68.4569C23.9397 70.588 24.5658 72.8465 24.8399 75.1067L24.9874 76.3337C25.076 76.6513 25.3479 76.8713 25.5946 76.8241L26.8299 76.5885L26.9079 76.5746L28.1432 76.3389C28.3898 76.2918 28.5184 75.9968 28.4299 75.6792L27.9176 74.522C26.9732 72.3909 26.3471 70.1325 26.0731 67.8722Z" fill="#7CB954"/>
<g id="Vector_38" style="mix-blend-mode:screen">
<path d="M26.0737 67.8722L25.9262 66.6452C25.8376 66.3276 25.5657 66.1077 25.319 66.1548L24.5391 66.3032C24.7857 66.256 25.0576 66.4759 25.1462 66.7936L25.2937 68.0206C25.5657 70.2791 26.1939 72.5376 27.1383 74.6704L27.6506 75.8275C27.7391 76.1452 27.6105 76.4402 27.3639 76.4873L28.1438 76.3389C28.3905 76.2918 28.5191 75.9968 28.4305 75.6792L27.9183 74.522C26.9739 72.3909 26.3478 70.1325 26.0737 67.8722Z" fill="#262626"/>
</g>
</g>
<g id="Group_26">
<path id="Vector_39" d="M23.0211 57.3357L22.8587 56.1122C22.7702 55.7946 22.5151 55.5712 22.2875 55.6148L21.1512 55.8312L21.0795 55.8452L19.9433 56.0616C19.7156 56.1053 19.6039 56.3967 19.6924 56.7144L20.1899 57.8751C21.107 60.0114 21.733 62.2699 22.0345 64.5248L22.1968 65.7483C22.2854 66.066 22.5404 66.2894 22.7681 66.2458L23.9043 66.0293L23.976 66.0154L25.1123 65.799C25.3399 65.7553 25.4517 65.4638 25.3631 65.1462L24.8656 63.9855C23.9486 61.8492 23.3225 59.5907 23.0211 57.3357Z" fill="#7CB954"/>
<g id="Vector_40" style="mix-blend-mode:screen">
<path d="M23.0207 57.3357L22.8583 56.1122C22.7698 55.7946 22.5147 55.5712 22.2871 55.6148L21.5703 55.751C21.798 55.7073 22.0531 55.9307 22.1416 56.2484L22.3039 57.4719C22.6033 59.7251 23.2294 61.9854 24.1485 64.1217L24.646 65.2823C24.7345 65.6 24.6207 65.8932 24.3951 65.9351L25.1118 65.799C25.3395 65.7553 25.4512 65.4639 25.3627 65.1462L24.8652 63.9855C23.9482 61.8492 23.3221 59.5907 23.0207 57.3357Z" fill="#262626"/>
</g>
</g>
<g id="Group_27">
<path id="Vector_41" d="M31.9051 88.9191L31.7575 87.6921C31.669 87.3745 31.3971 87.1545 31.1504 87.2017L29.9151 87.4373L29.8371 87.4513L28.6018 87.6869C28.3551 87.734 28.2266 88.029 28.3151 88.3466L28.8273 89.5038C29.7718 91.6349 30.3979 93.8934 30.6719 96.1536L30.8195 97.3806C30.908 97.6982 31.1799 97.9181 31.4266 97.871L32.6619 97.6354L32.7399 97.6197L33.9752 97.3841C34.2219 97.3369 34.3505 97.042 34.2619 96.7243L33.7497 95.5671C32.8053 93.4361 32.1792 91.1776 31.9051 88.9174V88.9191Z" fill="#7CB954"/>
<g id="Vector_42" style="mix-blend-mode:screen">
<path d="M31.9058 88.9191L31.7582 87.6921C31.6697 87.3745 31.3977 87.1545 31.1511 87.2017L30.3711 87.35C30.6177 87.3029 30.8897 87.5228 30.9782 87.8405L31.1258 89.0675C31.3977 91.3259 32.0259 93.5844 32.9703 95.7173L33.4826 96.8744C33.5711 97.1921 33.4425 97.487 33.1959 97.5342L33.9759 97.3858C34.2225 97.3387 34.3511 97.0437 34.2626 96.7261L33.7503 95.5689C32.8059 93.4378 32.1798 91.1793 31.9058 88.9191Z" fill="#262626"/>
</g>
</g>
<g id="Group_28">
<path id="Vector_43" d="M28.8531 78.3787L28.6908 77.1552C28.6022 76.8376 28.3472 76.6142 28.1195 76.6578L26.9833 76.8742L26.9116 76.8882L25.7753 77.1046C25.5477 77.1482 25.4359 77.4397 25.5245 77.7574L26.022 78.918C26.939 81.0543 27.5651 83.3128 27.8665 85.5678L28.0289 86.7913C28.1174 87.109 28.3725 87.3324 28.6001 87.2887L29.7364 87.0723L29.8081 87.0583L30.9443 86.8419C31.172 86.7983 31.2837 86.5068 31.1952 86.1892L30.6977 85.0285C29.7806 82.8922 29.1546 80.6337 28.8531 78.3787Z" fill="#7CB954"/>
<g id="Vector_44" style="mix-blend-mode:screen">
<path d="M28.8527 78.3787L28.6904 77.1552C28.6018 76.8376 28.3468 76.6142 28.1191 76.6578L27.4023 76.7939C27.63 76.7503 27.8851 76.9737 27.9736 77.2914L28.1359 78.5148C28.4353 80.7681 29.0614 83.0266 29.9805 85.1646L30.478 86.3253C30.5665 86.643 30.4527 86.9362 30.2271 86.9781L30.9439 86.8419C31.1715 86.7983 31.2833 86.5068 31.1947 86.1892L30.6972 85.0285C29.7802 82.8922 29.1541 80.6337 28.8527 78.3787Z" fill="#262626"/>
</g>
</g>
<g id="Group_29">
<path id="Vector_45" d="M37.8934 110.04L37.7458 108.813C37.6573 108.496 37.3854 108.276 37.1387 108.323L35.9034 108.558L35.8254 108.574L34.5901 108.81C34.3434 108.857 34.2148 109.152 34.3034 109.469L34.8156 110.627C35.76 112.758 36.3861 115.016 36.6602 117.276L36.8077 118.503C36.8963 118.821 37.1682 119.041 37.4149 118.994L38.6502 118.758L38.7282 118.744L39.9635 118.509C40.2102 118.462 40.3387 118.167 40.2502 117.849L39.7379 116.692C38.7935 114.561 38.1674 112.302 37.8934 110.042V110.04Z" fill="#7CB954"/>
<g id="Vector_46" style="mix-blend-mode:screen">
<path d="M37.894 110.04L37.7465 108.813C37.6579 108.496 37.386 108.276 37.1394 108.323L36.3594 108.471C36.606 108.424 36.878 108.644 36.9665 108.962L37.1141 110.189C37.386 112.447 38.0142 114.706 38.9586 116.838L39.4709 117.996C39.5594 118.313 39.4308 118.608 39.1842 118.655L39.9642 118.507C40.2108 118.46 40.3394 118.165 40.2508 117.847L39.7386 116.69C38.7942 114.559 38.1681 112.3 37.894 110.04Z" fill="#262626"/>
</g>
</g>
<g id="Group_30">
<path id="Vector_47" d="M34.8433 99.5037L34.681 98.2802C34.5925 97.9626 34.3374 97.7392 34.1097 97.7828L32.9735 97.9992L32.9018 98.0132L31.7656 98.2296C31.5379 98.2732 31.4262 98.5647 31.5147 98.8824L32.0122 100.043C32.9292 102.179 33.5553 104.438 33.8568 106.693L34.0191 107.916C34.1076 108.234 34.3627 108.457 34.5904 108.414L35.7266 108.197L35.7983 108.183L36.9345 107.967C37.1622 107.923 37.2739 107.632 37.1854 107.314L36.6879 106.154C35.7709 104.017 35.1448 101.759 34.8433 99.5037Z" fill="#7CB954"/>
<g id="Vector_48" style="mix-blend-mode:screen">
<path d="M34.8429 99.5037L34.6806 98.2802C34.5921 97.9626 34.337 97.7392 34.1093 97.7828L33.3926 97.9189C33.6202 97.8753 33.8753 98.0987 33.9639 98.4164L34.1262 99.6398C34.4255 101.893 35.0516 104.153 35.9707 106.29L36.4682 107.45C36.5568 107.768 36.4429 108.061 36.2174 108.103L36.9341 107.967C37.1618 107.923 37.2735 107.632 37.185 107.314L36.6875 106.154C35.7705 104.017 35.1444 101.759 34.8429 99.5037Z" fill="#262626"/>
</g>
</g>
<g id="Group_31">
<path id="Vector_49" d="M20.0812 46.535L19.9399 45.3063C19.8514 44.9886 19.5731 44.7705 19.316 44.8193L18.165 45.0375L18.0849 45.0532L17.3365 45.1946C17.0793 45.2435 16.9423 45.5402 17.0308 45.8578L17.5515 47.0132C18.5107 49.1426 18.5971 51.5023 18.8564 53.7643L18.9976 54.993C19.0862 55.3107 19.3644 55.5288 19.6216 55.48L20.9075 55.2356L20.9898 55.2199L22.2757 54.9755C22.5329 54.9267 22.6699 54.63 22.5813 54.3123L22.0607 53.1569C21.1015 51.0276 20.3426 48.7953 20.0833 46.5333L20.0812 46.535Z" fill="#7CB954"/>
<g id="Vector_50" style="mix-blend-mode:screen">
<path d="M20.0807 46.535L19.9395 45.3063C19.851 44.9886 19.5727 44.7705 19.3155 44.8193L18.5039 44.9729C18.7611 44.9241 19.0415 45.1422 19.1279 45.4599L19.2691 46.6886C19.5284 48.9506 20.2894 51.1829 21.2465 53.3122L21.7672 54.4677C21.8557 54.7853 21.7187 55.082 21.4615 55.1309L22.2731 54.9773C22.5303 54.9284 22.6673 54.6317 22.5788 54.3141L22.0581 53.1586C21.0989 51.0293 20.34 48.797 20.0807 46.535Z" fill="#262626"/>
</g>
</g>
<g id="Group_32">
<path id="Vector_51" d="M16.573 36.0844L16.417 34.8592C16.3285 34.5415 16.065 34.3199 15.8289 34.3653L14.642 34.5904L14.5661 34.6044L14.621 34.5939C14.3849 34.6393 14.2626 34.9325 14.3511 35.2502L14.8571 36.4091C15.7888 38.5436 15.7635 40.9261 16.0502 43.1828L16.2062 44.408C16.2948 44.7257 16.5583 44.9473 16.7944 44.902L17.9812 44.6768L18.0571 44.6629L19.2439 44.4377C19.48 44.3923 19.6023 44.0991 19.5138 43.7814L19.0078 42.6225C18.0761 40.488 16.8618 38.3412 16.5751 36.0844H16.573Z" fill="#7CB954"/>
<g id="Vector_52" style="mix-blend-mode:screen">
<path d="M16.5726 36.0844L16.4166 34.8592C16.328 34.5415 16.0645 34.3199 15.8284 34.3653L15.0801 34.5084C15.3162 34.463 15.5818 34.6847 15.6682 35.0023L15.8242 36.2276C16.1109 38.4843 17.3252 40.6311 18.2569 42.7657L18.7629 43.9246C18.8514 44.2422 18.7312 44.5372 18.493 44.5808L19.2414 44.4377C19.4775 44.3923 19.5998 44.0991 19.5112 43.7814L19.0053 42.6225C18.0735 40.488 16.8593 38.3412 16.5726 36.0844Z" fill="#262626"/>
</g>
</g>
</g>
<g id="Group_33">
<g id="Group_34">
<path id="Vector_53" d="M37.8152 53.5278L37.8953 52.0216C37.8553 51.6236 37.5728 51.3199 37.265 51.3409L35.7198 51.4473L35.6229 51.4543L34.0777 51.5608C33.7678 51.5817 33.5506 51.9221 33.5907 52.3183L33.968 53.7931C34.6616 56.5089 34.9441 59.3346 34.7986 62.1079L34.7185 63.6142C34.7586 64.0121 35.041 64.3158 35.3488 64.2949L36.894 64.1884L36.991 64.1814L38.5362 64.075C38.8461 64.054 39.0632 63.7137 39.0232 63.3175L38.6458 61.8427C37.9523 59.1269 37.6698 56.3012 37.8152 53.5278Z" fill="#7CB954"/>
<g id="Vector_54" style="mix-blend-mode:screen">
<path d="M37.8153 53.5278L37.8954 52.0216C37.8553 51.6236 37.5729 51.3199 37.2651 51.3409L36.2891 51.4072C36.5989 51.3862 36.8814 51.6917 36.9194 52.0879L36.8414 53.5941C36.6959 56.3675 36.9784 59.1932 37.6719 61.909L38.0493 63.3838C38.0893 63.7817 37.8701 64.1203 37.5623 64.1413L38.5384 64.075C38.8482 64.054 39.0654 63.7137 39.0253 63.3175L38.648 61.8427C37.9544 59.1269 37.6719 56.3012 37.8174 53.5278H37.8153Z" fill="#262626"/>
</g>
</g>
<g id="Group_35">
<path id="Vector_55" d="M36.3406 40.338L36.4017 38.8335C36.3617 38.4355 36.1003 38.1301 35.8157 38.1493L34.3949 38.247L34.3042 38.254L32.8834 38.3518C32.5988 38.371 32.4006 38.7096 32.4407 39.1057L32.7991 40.5823C33.4589 43.3016 33.7414 46.1256 33.6296 48.8972L33.5685 50.4017C33.6086 50.7996 33.87 51.105 34.1545 51.0858L35.5754 50.9881L35.666 50.9811L37.0868 50.8834C37.3714 50.8642 37.5696 50.5256 37.5295 50.1294L37.1712 48.6528C36.5114 45.9336 36.2289 43.1096 36.3406 40.338Z" fill="#7CB954"/>
<g id="Vector_56" style="mix-blend-mode:screen">
<path d="M36.3409 40.338L36.402 38.8335C36.362 38.4355 36.1006 38.1301 35.816 38.1493L34.918 38.2104C35.2026 38.1912 35.464 38.4966 35.504 38.8946L35.4429 40.3991C35.3311 43.1707 35.6136 45.9947 36.2735 48.7139L36.6318 50.1905C36.6719 50.5884 36.4737 50.9253 36.1891 50.9445L37.0872 50.8834C37.3717 50.8642 37.5699 50.5256 37.5299 50.1294L37.1715 48.6528C36.5117 45.9336 36.2292 43.1096 36.3409 40.338Z" fill="#262626"/>
</g>
</g>
<g id="Group_36">
<path id="Vector_57" d="M40.4424 79.852L40.5203 78.3458C40.4803 77.9478 40.1978 77.6441 39.89 77.6651L38.3448 77.7715L38.2479 77.7785L36.7027 77.885C36.3928 77.9059 36.1756 78.2463 36.2157 78.6425L36.593 80.1173C37.2866 82.8331 37.5691 85.6588 37.4236 88.4322L37.3435 89.9384C37.3836 90.3363 37.666 90.64 37.9738 90.6191L39.519 90.5126L39.616 90.5056L41.1612 90.3992C41.4711 90.3782 41.6882 90.0379 41.6482 89.6417L41.2708 88.1669C40.5773 85.4511 40.2948 82.6254 40.4402 79.852H40.4424Z" fill="#7CB954"/>
<g id="Vector_58" style="mix-blend-mode:screen">
<path d="M40.4424 79.852L40.5204 78.3458C40.4803 77.9478 40.1979 77.6441 39.8901 77.6651L38.9141 77.7314C39.2239 77.7105 39.5064 78.0159 39.5444 78.4121L39.4643 79.9183C39.3188 82.6917 39.6013 85.5174 40.2948 88.2332L40.6722 89.708C40.7122 90.106 40.493 90.4445 40.1852 90.4655L41.1612 90.3992C41.4711 90.3782 41.6883 90.0379 41.6482 89.6417L41.2709 88.1669C40.5773 85.4511 40.2948 82.6254 40.4403 79.852H40.4424Z" fill="#262626"/>
</g>
</g>
<g id="Group_37">
<path id="Vector_59" d="M38.9676 66.6544L39.0287 65.1499C38.9886 64.7519 38.7272 64.4465 38.4426 64.4657L37.0218 64.5634L36.9312 64.5704L35.5103 64.6682C35.2257 64.6874 35.0276 65.026 35.0676 65.4222L35.426 66.8987C36.0858 69.618 36.3683 72.442 36.2566 75.2136L36.1955 76.7181C36.2355 77.116 36.4969 77.4215 36.7815 77.4023L38.2023 77.3045L38.293 77.2975L39.7138 77.1998C39.9984 77.1806 40.1965 76.842 40.1565 76.4458L39.7981 74.9692C39.1383 72.25 38.8558 69.426 38.9676 66.6544Z" fill="#7CB954"/>
<g id="Vector_60" style="mix-blend-mode:screen">
<path d="M38.9679 66.6544L39.029 65.1499C38.9889 64.7519 38.7275 64.4465 38.443 64.4657L37.5449 64.5268C37.8295 64.5076 38.0909 64.813 38.131 65.211L38.0698 66.7155C37.9581 69.4871 38.2406 72.3111 38.9004 75.0303L39.2588 76.5069C39.2988 76.9048 39.1007 77.2417 38.8161 77.2609L39.7141 77.1998C39.9987 77.1806 40.1969 76.842 40.1568 76.4458L39.7984 74.9692C39.1386 72.25 38.8561 69.426 38.9679 66.6544Z" fill="#262626"/>
</g>
</g>
<g id="Group_38">
<path id="Vector_61" d="M43.2412 106.278L43.3192 104.772C43.2791 104.374 42.9966 104.07 42.6889 104.091L41.1437 104.197L41.0467 104.204L39.5015 104.311C39.1916 104.332 38.9745 104.672 39.0145 105.068L39.3919 106.543C40.0854 109.259 40.3679 112.085 40.2224 114.858L40.1444 116.364C40.1845 116.762 40.467 117.066 40.7748 117.045L42.32 116.938L42.4169 116.931L43.9621 116.825C44.272 116.804 44.4892 116.464 44.4491 116.067L44.0718 114.593C43.3782 111.877 43.0957 109.051 43.2412 106.278Z" fill="#7CB954"/>
<g id="Vector_62" style="mix-blend-mode:screen">
<path d="M43.2412 106.278L43.3192 104.772C43.2792 104.374 42.9967 104.07 42.6889 104.091L41.7129 104.157C42.0228 104.136 42.3053 104.442 42.3432 104.838L42.2652 106.344C42.1197 109.117 42.4022 111.943 43.0958 114.659L43.4731 116.134C43.5132 116.532 43.2939 116.87 42.9862 116.891L43.9622 116.825C44.2721 116.804 44.4892 116.464 44.4492 116.067L44.0718 114.593C43.3783 111.877 43.0958 109.051 43.2412 106.278Z" fill="#262626"/>
</g>
</g>
<g id="Group_39">
<path id="Vector_63" d="M41.7683 93.0841L41.8295 91.5796C41.7894 91.1816 41.528 90.8762 41.2434 90.8954L39.8226 90.9931L39.7319 91.0001L38.3111 91.0978C38.0265 91.117 37.8284 91.4556 37.8684 91.8518L38.2268 93.3284C38.8866 96.0477 39.1691 98.8716 39.0574 101.643L38.9962 103.148C39.0363 103.546 39.2977 103.851 39.5823 103.832L41.0031 103.734L41.0938 103.727L42.5146 103.629C42.7992 103.61 42.9973 103.272 42.9573 102.875L42.5989 101.399C41.9391 98.6797 41.6566 95.8557 41.7683 93.0841Z" fill="#7CB954"/>
<g id="Vector_64" style="mix-blend-mode:screen">
<path d="M41.7686 93.0841L41.8298 91.5796C41.7897 91.1816 41.5283 90.8762 41.2437 90.8954L40.3457 90.9565C40.6303 90.9373 40.8917 91.2427 40.9317 91.6406L40.8706 93.1451C40.7589 95.9168 41.0414 98.7407 41.7012 101.46L42.0596 102.937C42.0996 103.335 41.9014 103.671 41.6169 103.691L42.5149 103.629C42.7995 103.61 42.9976 103.272 42.9576 102.875L42.5992 101.399C41.9394 98.6797 41.6569 95.8557 41.7686 93.0841Z" fill="#262626"/>
</g>
</g>
<g id="Group_40">
<path id="Vector_65" d="M35.0545 26.8348L35.143 25.3286C35.103 24.9306 34.81 24.6269 34.4895 24.6496L33.0497 24.7491L32.9486 24.7561L32.0147 24.8207C31.6943 24.8434 31.4645 25.182 31.5045 25.5799L31.8903 27.0547C32.6007 29.7705 32.2107 32.6399 32.0484 35.4167L31.9599 36.923C31.9999 37.3209 32.293 37.6246 32.6134 37.6019L34.2197 37.4919L34.3209 37.485L35.9272 37.375C36.2477 37.3523 36.4774 37.0137 36.4374 36.6158L36.0516 35.1409C35.3412 32.4252 34.8901 29.6134 35.0524 26.8366L35.0545 26.8348Z" fill="#7CB954"/>
<g id="Vector_66" style="mix-blend-mode:screen">
<path d="M35.0535 26.8348L35.1421 25.3286C35.102 24.9306 34.809 24.6269 34.4886 24.6496L33.4746 24.7194C33.795 24.6968 34.0881 25.0022 34.1281 25.3984L34.0396 26.9046C33.8772 29.6797 34.3263 32.4932 35.0388 35.209L35.4246 36.6838C35.4646 37.0818 35.2369 37.4204 34.9144 37.4431L35.9284 37.3733C36.2488 37.3506 36.4786 37.012 36.4385 36.614L36.0528 35.1392C35.3423 32.4234 34.8912 29.6117 35.0535 26.8348Z" fill="#262626"/>
</g>
</g>
<g id="Group_41">
<path id="Vector_67" d="M33.0134 13.6819L33.083 12.1756C33.0429 11.7777 32.771 11.4723 32.4737 11.4932L30.9918 11.5944L30.899 11.6014L30.9665 11.5962C30.6692 11.6171 30.4626 11.9557 30.5006 12.3519L30.8674 13.8267C31.5441 16.5443 31.0128 19.4241 30.8843 22.1975L30.8147 23.7037C30.8547 24.1016 31.1267 24.4071 31.4239 24.3861L32.9059 24.2849L32.9986 24.2779L34.4806 24.1767C34.7778 24.1557 34.9844 23.8171 34.9465 23.4209L34.5797 21.9461C33.903 19.2286 32.8827 16.4552 33.0113 13.6819H33.0134Z" fill="#7CB954"/>
<g id="Vector_68" style="mix-blend-mode:screen">
<path d="M33.0127 13.6819L33.0823 12.1756C33.0423 11.7777 32.7703 11.4723 32.4731 11.4932L31.5371 11.5578C31.8343 11.5368 32.1063 11.8423 32.1463 12.2402L32.0768 13.7465C31.9482 16.5198 32.9664 19.2932 33.6452 22.0107L34.012 23.4855C34.052 23.8835 33.8433 24.2221 33.5461 24.2413L34.4821 24.1767C34.7793 24.1557 34.9859 23.8171 34.9479 23.4209L34.5811 21.9461C33.9045 19.2286 32.8842 16.4552 33.0127 13.6819Z" fill="#262626"/>
</g>
</g>
</g>
<g id="Group_42">
<path id="Vector_69" d="M36.9863 44.1406C36.9863 44.1406 41.0823 49.1795 49.8117 50.6857C47.2926 48.3871 39.497 44.7306 36.9863 44.1406Z" fill="#28A22E"/>
<path id="Vector_70" d="M34.5742 51.8233C34.5742 51.8233 41.4296 53.9858 49.611 51.0483C45.9535 50.3729 37.0364 51.1077 34.5742 51.8233Z" fill="#28A22E"/>
<path id="Vector_71" d="M50.8573 37.8711C50.8573 37.8711 47.4991 43.2712 50.1131 50.3294C51.3316 47.3937 51.4412 39.976 50.8573 37.8711Z" fill="#28A22E"/>
<path id="Vector_72" d="M41.666 39.5781C41.666 39.5781 42.6842 45.5926 49.7357 50.1113C48.688 47.132 43.6118 41.018 41.666 39.5781Z" fill="#28A22E"/>
</g>
<g id="Group_43">
<path id="Vector_73" d="M39.9668 64.9883C39.9668 64.9883 44.0628 70.0271 52.7922 71.5334C50.2731 69.2347 42.4775 65.5782 39.9668 64.9883Z" fill="#28A22E"/>
<path id="Vector_74" d="M37.5547 72.667C37.5547 72.667 44.4101 74.8295 52.5915 71.8921C48.934 71.2166 40.0169 71.9514 37.5547 72.667Z" fill="#28A22E"/>
<path id="Vector_75" d="M53.835 58.7188C53.835 58.7188 50.4769 64.1189 53.093 71.1771C54.3114 68.2414 54.421 60.8236 53.835 58.7188Z" fill="#28A22E"/>
<path id="Vector_76" d="M44.6445 60.4258C44.6445 60.4258 45.6627 66.4403 52.7142 70.959C51.6665 67.9797 46.5903 61.8657 44.6445 60.4258Z" fill="#28A22E"/>
</g>
<g id="Group_44">
<path id="Vector_77" d="M2.41211 26.457C2.41211 26.457 6.50807 31.4959 15.2375 33.0021C12.7184 30.7035 4.92281 27.047 2.41211 26.457Z" fill="#28A22E"/>
<path id="Vector_78" d="M0 34.1358C0 34.1358 6.8554 36.2983 15.0368 33.3608C11.3793 32.6854 2.46221 33.4202 0 34.1358Z" fill="#28A22E"/>
<path id="Vector_79" d="M16.2803 20.1875C16.2803 20.1875 12.9222 25.5876 15.5383 32.6458C16.7567 29.7101 16.8663 22.2924 16.2803 20.1875Z" fill="#28A22E"/>
<path id="Vector_80" d="M7.08984 21.8945C7.08984 21.8945 8.10804 27.909 15.1595 32.4277C14.1118 29.4484 9.03558 23.3344 7.08984 21.8945Z" fill="#28A22E"/>
</g>
<g id="Group_45">
<path id="Vector_81" d="M23.9595 25.957C23.9595 25.957 19.2396 28.5454 17.7871 34.1166C19.9437 32.5196 23.3945 27.5593 23.9595 25.957Z" fill="#28A22E"/>
<path id="Vector_82" d="M16.8136 24.375C16.8136 24.375 14.7603 28.7436 17.4523 33.9867C18.1016 31.6531 17.4671 25.9511 16.8136 24.375Z" fill="#28A22E"/>
<path id="Vector_83" d="M29.7263 34.8537C29.7263 34.8537 24.7112 32.679 18.1172 34.3092C20.8471 35.1033 27.7594 35.215 29.7263 34.8537Z" fill="#28A22E"/>
<path id="Vector_84" d="M28.1839 28.9727C28.1839 28.9727 22.5723 29.5888 18.3203 34.0708C21.1029 33.4181 26.8305 30.2084 28.1839 28.9727Z" fill="#28A22E"/>
</g>
<g id="Group_46">
<path id="Vector_85" d="M28.0923 37.0586C28.0923 37.0586 23.3724 39.647 21.9199 45.2181C24.0765 43.6211 27.5274 38.6608 28.0923 37.0586Z" fill="#28A22E"/>
<path id="Vector_86" d="M20.9484 35.4766C20.9484 35.4766 18.8951 39.8452 21.5871 45.0882C22.2364 42.7547 21.6019 37.0526 20.9484 35.4766Z" fill="#28A22E"/>
<path id="Vector_87" d="M33.8571 45.9553C33.8571 45.9553 28.8421 43.7806 22.248 45.4107C24.978 46.2049 31.8903 46.3166 33.8571 45.9553Z" fill="#28A22E"/>
<path id="Vector_88" d="M32.3187 40.0742C32.3187 40.0742 26.707 40.6903 22.4551 45.1724C25.2377 44.5196 30.9653 41.3099 32.3187 40.0742Z" fill="#28A22E"/>
</g>
<g id="Group_47">
<path id="Vector_89" d="M6.3457 51.8516C6.3457 51.8516 11.5336 55.7577 20.0523 55.5098C17.082 53.85 8.83953 51.9266 6.3457 51.8516Z" fill="#28A22E"/>
<path id="Vector_90" d="M6.21875 59.4342C6.21875 59.4342 13.1774 60.148 19.9654 55.8789C16.3838 55.9417 8.30784 58.3049 6.21875 59.4342Z" fill="#28A22E"/>
<path id="Vector_91" d="M17.4976 43.4141C17.4976 43.4141 15.8659 49.0603 20.2338 55.1201C20.5585 52.1653 18.6212 45.2589 17.4976 43.4141Z" fill="#28A22E"/>
<path id="Vector_92" d="M9.43359 46.7305C9.43359 46.7305 12.0328 52.1236 19.8221 54.9877C18.0303 52.4186 11.6365 47.7009 9.43359 46.7305Z" fill="#28A22E"/>
</g>
<g id="Group_48">
<path id="Vector_93" d="M40.4336 91.3555C40.4336 91.3555 44.5295 96.3943 53.259 97.9005C50.7399 95.6019 42.9443 91.9454 40.4336 91.3555Z" fill="#28A22E"/>
<path id="Vector_94" d="M38.0215 99.0342C38.0215 99.0342 44.8769 101.197 53.0583 98.2593C49.4008 97.5838 40.4837 98.3186 38.0215 99.0342Z" fill="#28A22E"/>
<path id="Vector_95" d="M54.3037 85.0859C54.3037 85.0859 50.9456 90.4861 53.5617 97.5443C54.7802 94.6086 54.8898 87.1908 54.3037 85.0859Z" fill="#28A22E"/>
<path id="Vector_96" d="M45.1133 86.793C45.1133 86.793 46.1315 92.8075 53.1829 97.3262C52.1352 94.3469 47.059 88.2329 45.1133 86.793Z" fill="#28A22E"/>
</g>
<g id="Group_49">
<path id="Vector_97" d="M25.6816 60.0625C25.6816 60.0625 28.3125 63.3001 33.922 64.2671C32.303 62.7905 27.2943 60.4412 25.6816 60.0625Z" fill="#28A22E"/>
<path id="Vector_98" d="M24.1328 64.9935C24.1328 64.9935 28.5387 66.3828 33.794 64.496C31.4436 64.0615 25.7139 64.5344 24.1328 64.9935Z" fill="#28A22E"/>
<path id="Vector_99" d="M34.5935 56.0352C34.5935 56.0352 32.4369 59.5049 34.117 64.0393C34.8991 62.1544 34.9708 57.3878 34.5935 56.0352Z" fill="#28A22E"/>
<path id="Vector_100" d="M28.6875 57.1289C28.6875 57.1289 29.341 60.9931 33.8712 63.8974C33.1966 61.9827 29.9355 58.0557 28.6875 57.1289Z" fill="#28A22E"/>
</g>
<g id="Group_50">
<path id="Vector_101" d="M14.1875 95.5586C14.1875 95.5586 16.8184 98.7962 22.4279 99.7632C20.8089 98.2866 15.8002 95.9373 14.1875 95.5586Z" fill="#28A22E"/>
<path id="Vector_102" d="M12.6387 100.493C12.6387 100.493 17.0445 101.883 22.2999 99.996C19.9494 99.5615 14.2197 100.034 12.6387 100.493Z" fill="#28A22E"/>
<path id="Vector_103" d="M23.1013 91.5312C23.1013 91.5312 20.9447 95.001 22.6249 99.5354C23.4069 97.6505 23.4786 92.8839 23.1013 91.5312Z" fill="#28A22E"/>
<path id="Vector_104" d="M17.1934 92.6289C17.1934 92.6289 17.8469 96.4931 22.3771 99.3974C21.7025 97.4827 18.4413 93.5557 17.1934 92.6289Z" fill="#28A22E"/>
</g>
<g id="Group_51">
<path id="Vector_105" d="M3.77539 72.8086C3.77539 72.8086 6.32403 77.2557 13.1014 79.3345C11.4171 77.24 5.70216 73.5312 3.77539 72.8086Z" fill="#28A22E"/>
<path id="Vector_106" d="M0.724609 78.7226C0.724609 78.7226 5.90411 81.14 12.8881 79.6023C10.0549 78.6947 2.80105 78.3945 0.724609 78.7226Z" fill="#28A22E"/>
<path id="Vector_107" d="M15.8069 69.168C15.8069 69.168 12.3286 73.1613 13.3974 79.0781C14.8014 76.8475 15.9713 70.9133 15.8069 69.168Z" fill="#28A22E"/>
<path id="Vector_108" d="M8.18949 69.6172C8.18949 69.6172 8.12835 74.5391 13.1223 78.8658C12.7155 76.3734 9.53864 70.9663 8.18949 69.6172Z" fill="#28A22E"/>
</g>
<g id="Group_52">
<path id="Vector_109" d="M56.2503 43.9336C56.2503 43.9336 50.6829 47.8886 49.8945 55.2417C52.3589 52.903 55.8371 46.0664 56.2503 43.9336Z" fill="#28A22E"/>
<path id="Vector_110" d="M46.7575 42.8438C46.7575 42.8438 44.9636 48.7326 49.439 55.1188C49.8227 52.0313 47.9022 44.7846 46.7575 42.8438Z" fill="#28A22E"/>
<path id="Vector_111" d="M65.3861 54.6076C65.3861 54.6076 58.5159 52.4748 50.3535 55.4489C54.0152 56.1086 62.9281 55.3354 65.3861 54.6076Z" fill="#28A22E"/>
<path id="Vector_112" d="M62.2678 47.25C62.2678 47.25 55.1699 48.7877 50.5723 55.1128C54.0253 53.9033 60.7668 49.018 62.2678 47.25Z" fill="#28A22E"/>
</g>
<g id="Group_53">
<path id="Vector_113" d="M31.1603 0C31.1603 0 28.2237 5.56593 31.3732 12.4723C32.364 9.47901 31.9065 2.06999 31.1603 0Z" fill="#28A22E"/>
<path id="Vector_114" d="M22.041 2.43359C22.041 2.43359 23.5167 8.3835 30.9012 12.5217C29.6258 9.6035 24.0922 3.76879 22.041 2.43359Z" fill="#28A22E"/>
<path id="Vector_115" d="M44.9937 6.32422C44.9937 6.32422 37.6872 6.87575 31.8984 12.4905C35.5433 11.7662 43.1639 7.86362 44.9937 6.32422Z" fill="#28A22E"/>
<path id="Vector_116" d="M38.3222 0.820312C38.3222 0.820312 32.738 4.75957 31.918 12.111C34.3928 9.77921 37.8985 2.95313 38.3222 0.820312Z" fill="#28A22E"/>
</g>
<g id="Group_54">
<path id="Vector_117" d="M35.5527 23.25C35.5527 23.25 31.9627 30.0534 35.812 38.4957C37.0241 34.8374 36.4634 25.7808 35.5527 23.25Z" fill="#28A22E"/>
<path id="Vector_118" d="M24.4062 26.2305C24.4062 26.2305 26.2107 33.5034 35.2353 38.5631C33.6775 34.9956 26.9127 27.8641 24.4062 26.2305Z" fill="#28A22E"/>
<path id="Vector_119" d="M52.4637 30.9844C52.4637 30.9844 43.5339 31.6598 36.4551 38.5226C40.9115 37.6377 50.2249 32.8659 52.4637 30.9844Z" fill="#28A22E"/>
<path id="Vector_120" d="M44.3059 24.25C44.3059 24.25 37.48 29.0654 36.4766 38.0505C39.5016 35.2003 43.7873 26.8558 44.3059 24.25Z" fill="#28A22E"/>
</g>
<g id="Group_55">
<path id="Vector_121" d="M20.6602 17.9805C20.6602 17.9805 24.111 22.3718 31.6136 23.7681C29.4803 21.7574 22.8146 18.5163 20.6602 17.9805Z" fill="#28A22E"/>
<path id="Vector_122" d="M18.4551 24.5769C18.4551 24.5769 24.3323 26.5178 31.4365 24.076C28.2934 23.4529 20.5905 23.9853 18.4551 24.5769Z" fill="#28A22E"/>
<path id="Vector_123" d="M32.7251 12.7305C32.7251 12.7305 29.7401 17.3504 31.8798 23.4661C32.9781 20.9493 33.1952 14.5526 32.7251 12.7305Z" fill="#28A22E"/>
<path id="Vector_124" d="M24.7695 14.1016C24.7695 14.1016 25.5495 19.301 31.5575 23.2769C30.7016 20.6955 26.4244 15.3669 24.7695 14.1016Z" fill="#28A22E"/>
</g>
<g id="Group_56">
<path id="Vector_125" d="M70.1468 19.4688C70.1468 19.4688 64.5794 23.4237 63.791 30.7769C66.2553 28.4381 69.7336 21.6016 70.1468 19.4688Z" fill="#28A22E"/>
<path id="Vector_126" d="M60.654 18.3789C60.654 18.3789 58.8601 24.2677 63.3355 30.654C63.7191 27.5664 61.7987 20.3197 60.654 18.3789Z" fill="#28A22E"/>
<path id="Vector_127" d="M79.2806 30.1389C79.2806 30.1389 72.4104 28.006 64.248 30.9801C67.9097 31.6399 76.8226 30.8667 79.2806 30.1389Z" fill="#28A22E"/>
<path id="Vector_128" d="M76.1643 22.7812C76.1643 22.7812 69.0664 24.3189 64.4688 30.6441C67.9217 29.4345 74.6633 24.5493 76.1643 22.7812Z" fill="#28A22E"/>
</g>
<g id="Group_57">
<path id="Vector_129" d="M71.8636 72.8828C71.8636 72.8828 66.2962 76.8378 65.5078 84.1909C67.9721 81.8522 71.4504 75.0156 71.8636 72.8828Z" fill="#28A22E"/>
<path id="Vector_130" d="M62.3708 71.793C62.3708 71.793 60.5769 77.6818 65.0523 84.068C65.4359 80.9805 63.5155 73.7338 62.3708 71.793Z" fill="#28A22E"/>
<path id="Vector_131" d="M80.9994 83.5529C80.9994 83.5529 74.1292 81.4201 65.9668 84.3942C69.6285 85.0539 78.5414 84.2807 80.9994 83.5529Z" fill="#28A22E"/>
<path id="Vector_132" d="M77.8811 76.1992C77.8811 76.1992 70.7832 77.7369 66.1855 84.062C69.6385 82.8525 76.3801 77.9673 77.8811 76.1992Z" fill="#28A22E"/>
</g>
<g id="Group_58">
<path id="Vector_133" d="M68.8547 36.8906C68.8547 36.8906 64.4404 40.0253 63.8164 45.8548C65.7706 44.0012 68.5258 38.5801 68.8547 36.8906Z" fill="#28A22E"/>
<path id="Vector_134" d="M61.3286 36.0273C61.3286 36.0273 59.9057 40.6962 63.4556 45.7577C63.7613 43.3107 62.2372 37.5667 61.3286 36.0273Z" fill="#28A22E"/>
<path id="Vector_135" d="M76.0964 45.356C76.0964 45.356 70.6513 43.6665 64.1816 46.0227C67.0844 46.5463 74.1485 45.932 76.0964 45.356Z" fill="#28A22E"/>
<path id="Vector_136" d="M73.6228 39.5195C73.6228 39.5195 67.9964 40.7378 64.3516 45.7522C67.0878 44.794 72.4317 40.921 73.6228 39.5195Z" fill="#28A22E"/>
</g>
<g id="Group_59">
<path id="Vector_137" d="M53.6641 28.0977C53.6641 28.0977 57.2351 32.3005 64.6492 33.4489C62.4715 31.5412 55.7995 28.5602 53.6641 28.0977Z" fill="#28A22E"/>
<path id="Vector_138" d="M51.7852 34.6241C51.7852 34.6241 57.6287 36.3538 64.4883 33.7515C61.3789 33.2331 53.8532 33.9819 51.7852 34.6241Z" fill="#28A22E"/>
<path id="Vector_139" d="M65.2624 22.5938C65.2624 22.5938 62.5346 27.2102 64.8956 33.1427C65.8653 30.6433 65.8021 24.367 65.2624 22.5938Z" fill="#28A22E"/>
<path id="Vector_140" d="M57.5254 24.1719C57.5254 24.1719 58.512 29.2456 64.5726 32.965C63.624 30.4604 59.2013 25.3622 57.5254 24.1719Z" fill="#28A22E"/>
</g>
<g id="Group_60">
<path id="Vector_141" d="M6.63867 91.0067C6.63867 91.0067 11.5884 91.0992 15.9879 87.6992C13.4772 87.954 8.0068 90.0904 6.63867 91.0067Z" fill="#28A22E"/>
<path id="Vector_142" d="M10.8125 95.0944C10.8125 95.0944 14.9211 92.8062 16.148 87.9297C14.2739 89.3364 11.2931 93.6928 10.8125 95.0944Z" fill="#28A22E"/>
<path id="Vector_143" d="M7.86328 82.2344C7.86328 82.2344 10.1526 85.8682 15.8697 87.4233C14.3898 85.7251 9.49281 82.7877 7.86328 82.2344Z" fill="#28A22E"/>
<path id="Vector_144" d="M5.42188 87.0933C5.42188 87.0933 9.8235 88.9695 15.5764 87.5104C13.1837 86.8297 7.13783 86.7669 5.42188 87.0933Z" fill="#28A22E"/>
</g>
<g id="Group_61">
<path id="Vector_145" d="M25.899 84.5312C25.899 84.5312 21.9042 89.2629 22.2057 97.5655C23.8985 94.8096 25.8358 86.9486 25.899 84.5312Z" fill="#28A22E"/>
<path id="Vector_146" d="M18.0869 83.8008C18.0869 83.8008 17.3891 90.5099 21.8223 97.4494C21.738 93.9622 19.2611 85.9214 18.0869 83.8008Z" fill="#28A22E"/>
<path id="Vector_147" d="M34.6488 96.0513C34.6488 96.0513 28.8242 94.0127 22.6055 97.7757C25.6495 98.3272 32.7537 96.9955 34.6488 96.0513Z" fill="#28A22E"/>
<path id="Vector_148" d="M31.1854 87.9414C31.1854 87.9414 25.6454 90.0376 22.7363 97.382C25.3714 95.8444 30.1989 90.0044 31.1854 87.9414Z" fill="#28A22E"/>
</g>
</g>
</g>
</g>
</svg>
