<svg width="350" height="131" viewBox="0 0 350 131" fill="none" xmlns="http://www.w3.org/2000/svg">
<path d="M174.87 130.438C271.448 130.438 349.74 127.188 349.74 123.178C349.74 119.168 271.448 115.918 174.87 115.918C78.292 115.918 0 119.168 0 123.178C0 127.188 78.292 130.438 174.87 130.438Z" fill="#757575"/>
<path d="M273.011 0H84.2505C78.7605 0 74.3105 4.45 74.3105 9.94H282.961C282.961 4.45 278.511 0 273.021 0H273.011Z" fill="#787878"/>
<path d="M282.22 7.08813H75.0402C74.5502 7.08813 74.1602 6.69813 74.1602 6.20813C74.1602 5.71813 74.5502 5.32812 75.0402 5.32812H282.22C282.71 5.32812 283.1 5.71813 283.1 6.20813C283.1 6.69813 282.71 7.08813 282.22 7.08813Z" fill="#545454"/>
<path d="M306.261 79.5898H46.4512V109.01H306.261V79.5898Z" fill="#424242"/>
<path d="M321.741 7.07031H33.2309C26.2709 7.07031 20.6309 12.7103 20.6309 19.6703V109.01H50.8709C50.7109 107.87 50.6209 106.7 50.6209 105.51C50.6209 91.5803 61.9209 80.2803 75.8509 80.2803C89.7809 80.2803 101.081 91.5803 101.081 105.51C101.081 106.7 100.991 107.86 100.831 109.01H250.161C250.001 107.87 249.911 106.7 249.911 105.51C249.911 91.5803 261.211 80.2803 275.141 80.2803C289.071 80.2803 300.371 91.5803 300.371 105.51C300.371 106.7 300.281 107.86 300.121 109.01H334.331V19.6703C334.331 12.7103 328.691 7.07031 321.731 7.07031H321.741Z" fill="#F8D780"/>
<path d="M20.761 18.4375H13.951C13.311 18.4375 12.791 18.9575 12.791 19.5975V43.2575C12.791 44.7275 13.891 46.0375 15.351 46.1175C16.911 46.1975 18.211 44.9575 18.211 43.4075V21.4375H20.751V18.4375H20.761Z" fill="#787878"/>
<path d="M20.761 18.4375H13.951C13.311 18.4375 12.791 18.9575 12.791 19.5975V22.5675H18.211V22.0775H20.751V18.4375H20.761Z" fill="#EDC153"/>
<path d="M20.6309 25.5195H36.4809C37.9109 25.5195 39.0809 26.6795 39.0809 28.1195V75.6495C39.0809 77.0795 37.9209 78.2495 36.4809 78.2495H20.6309V25.5295V25.5195Z" fill="#A4E5ED"/>
<path d="M94.5906 25.5195H54.0306C52.5726 25.5195 51.3906 26.7015 51.3906 28.1595V71.6495C51.3906 73.1076 52.5726 74.2896 54.0306 74.2896H94.5906C96.0487 74.2896 97.2306 73.1076 97.2306 71.6495V28.1595C97.2306 26.7015 96.0487 25.5195 94.5906 25.5195Z" fill="#A4E5ED"/>
<path d="M209.7 25.5195H169.14C167.682 25.5195 166.5 26.7015 166.5 28.1595V71.6495C166.5 73.1076 167.682 74.2896 169.14 74.2896H209.7C211.158 74.2896 212.34 73.1076 212.34 71.6495V28.1595C212.34 26.7015 211.158 25.5195 209.7 25.5195Z" fill="#A4E5ED"/>
<path d="M265.35 25.5195H224.79C223.332 25.5195 222.15 26.7015 222.15 28.1595V71.6495C222.15 73.1076 223.332 74.2896 224.79 74.2896H265.35C266.808 74.2896 267.99 73.1076 267.99 71.6495V28.1595C267.99 26.7015 266.808 25.5195 265.35 25.5195Z" fill="#A4E5ED"/>
<mask id="mask0_3920_47313" style="mask-type:luminance" maskUnits="userSpaceOnUse" x="222" y="25" width="46" height="50">
<path d="M265.35 25.5195H224.79C223.332 25.5195 222.15 26.7015 222.15 28.1595V71.6495C222.15 73.1076 223.332 74.2896 224.79 74.2896H265.35C266.808 74.2896 267.99 73.1076 267.99 71.6495V28.1595C267.99 26.7015 266.808 25.5195 265.35 25.5195Z" fill="white"/>
</mask>
<g mask="url(#mask0_3920_47313)">
<g style="mix-blend-mode:screen">
<path d="M227.87 65.9412C227.54 65.9412 227.2 65.8512 226.9 65.6512C226.09 65.1212 225.87 64.0312 226.4 63.2212L240.79 41.4212C241.33 40.6112 242.42 40.3912 243.22 40.9212C244.03 41.4512 244.25 42.5412 243.72 43.3512L229.33 65.1512C228.99 65.6612 228.43 65.9412 227.86 65.9412H227.87Z" fill="#3B3B3B"/>
</g>
<g style="mix-blend-mode:screen">
<path d="M245.28 39.6803C244.95 39.6803 244.61 39.5903 244.31 39.3903C243.5 38.8603 243.28 37.7703 243.81 36.9603L246.45 32.9603C246.98 32.1503 248.08 31.9303 248.88 32.4603C249.69 33.0003 249.91 34.0803 249.38 34.8903L246.74 38.8903C246.4 39.4003 245.84 39.6803 245.27 39.6803H245.28Z" fill="#3B3B3B"/>
</g>
<g style="mix-blend-mode:screen">
<path d="M244.64 61.001C244.31 61.001 243.98 60.911 243.68 60.711C242.87 60.181 242.64 59.091 243.17 58.281L265.25 24.561C265.78 23.751 266.87 23.521 267.68 24.051C268.49 24.581 268.72 25.671 268.19 26.481L246.11 60.201C245.77 60.711 245.21 60.991 244.64 60.991V61.001Z" fill="#3B3B3B"/>
</g>
<g style="mix-blend-mode:screen">
<path d="M256.041 75.8421C255.711 75.8421 255.381 75.752 255.081 75.552C254.271 75.022 254.041 73.9321 254.571 73.1221L262.881 60.4321C263.411 59.6221 264.5 59.3921 265.31 59.9221C266.12 60.4521 266.351 61.5421 265.821 62.3521L257.511 75.0421C257.171 75.5521 256.611 75.8321 256.041 75.8321V75.8421Z" fill="#3B3B3B"/>
</g>
</g>
<path d="M319.981 25.5195H279.421C277.963 25.5195 276.781 26.7015 276.781 28.1595V71.6495C276.781 73.1076 277.963 74.2896 279.421 74.2896H319.981C321.439 74.2896 322.621 73.1076 322.621 71.6495V28.1595C322.621 26.7015 321.439 25.5195 319.981 25.5195Z" fill="#A4E5ED"/>
<mask id="mask1_3920_47313" style="mask-type:luminance" maskUnits="userSpaceOnUse" x="276" y="25" width="47" height="50">
<path d="M319.981 25.5195H279.421C277.963 25.5195 276.781 26.7015 276.781 28.1595V71.6495C276.781 73.1076 277.963 74.2896 279.421 74.2896H319.981C321.439 74.2896 322.621 73.1076 322.621 71.6495V28.1595C322.621 26.7015 321.439 25.5195 319.981 25.5195Z" fill="white"/>
</mask>
<g mask="url(#mask1_3920_47313)">
<g style="mix-blend-mode:screen">
<path d="M287.741 40.9494C287.401 40.9494 287.051 40.8494 286.751 40.6394C285.951 40.0894 285.741 38.9994 286.291 38.1994L299.471 18.9194C300.021 18.1194 301.111 17.9095 301.911 18.4595C302.711 19.0095 302.921 20.0995 302.371 20.8995L289.191 40.1795C288.851 40.6795 288.301 40.9494 287.741 40.9494Z" fill="#3B3B3B"/>
<path d="M317.23 61.6994C316.89 61.6994 316.54 61.5994 316.24 61.3894C315.44 60.8394 315.23 59.7494 315.78 58.9494L328.96 39.6694C329.51 38.8694 330.6 38.6595 331.4 39.2095C332.2 39.7595 332.41 40.8495 331.86 41.6495L318.68 60.9295C318.34 61.4295 317.79 61.6994 317.23 61.6994Z" fill="#3B3B3B"/>
<path d="M313.63 67.2176C313.29 67.2176 312.94 67.1176 312.64 66.9076C311.84 66.3576 311.63 65.2676 312.18 64.4676L313.19 62.9976C313.74 62.1976 314.83 61.9876 315.63 62.5376C316.43 63.0876 316.64 64.1776 316.09 64.9776L315.08 66.4476C314.74 66.9476 314.19 67.2176 313.63 67.2176Z" fill="#3B3B3B"/>
<path d="M282.111 70.4402C281.751 70.4402 281.391 70.3302 281.071 70.1002C280.291 69.5302 280.121 68.4303 280.691 67.6403L300.631 40.4202C301.201 39.6402 302.301 39.4702 303.091 40.0402C303.871 40.6102 304.041 41.7102 303.471 42.5002L283.531 69.7202C283.191 70.1902 282.651 70.4402 282.111 70.4402Z" fill="#3B3B3B"/>
</g>
</g>
<path d="M334.342 18.4375H20.7617V22.0775H334.342V18.4375Z" fill="#EDC153"/>
<mask id="mask2_3920_47313" style="mask-type:luminance" maskUnits="userSpaceOnUse" x="51" y="25" width="47" height="50">
<path d="M94.5906 25.5195H54.0306C52.5726 25.5195 51.3906 26.7015 51.3906 28.1595V71.6495C51.3906 73.1076 52.5726 74.2896 54.0306 74.2896H94.5906C96.0487 74.2896 97.2306 73.1076 97.2306 71.6495V28.1595C97.2306 26.7015 96.0487 25.5195 94.5906 25.5195Z" fill="white"/>
</mask>
<g mask="url(#mask2_3920_47313)">
<g style="mix-blend-mode:screen">
<path d="M53.8313 53.5968C53.4813 53.5968 53.1213 53.4868 52.8113 53.2568C52.0513 52.6968 51.8913 51.6168 52.4513 50.8568L65.1813 33.6668C65.7513 32.9068 66.8213 32.7467 67.5813 33.3067C68.3413 33.8667 68.5013 34.9468 67.9413 35.7068L55.2113 52.8968C54.8713 53.3468 54.3513 53.5868 53.8313 53.5868V53.5968Z" fill="#3B3B3B"/>
<path d="M75.5105 72.6587C75.1505 72.6587 74.7905 72.5487 74.4805 72.3087C73.7205 71.7387 73.5705 70.6587 74.1405 69.9087L86.7605 53.1387C87.3305 52.3787 88.4005 52.2287 89.1605 52.7987C89.9205 53.3687 90.0705 54.4487 89.5005 55.1987L76.8805 71.9687C76.5405 72.4187 76.0305 72.6487 75.5105 72.6487V72.6587Z" fill="#3B3B3B"/>
<path d="M91.3506 51.6272C90.9906 51.6272 90.6206 51.5071 90.3106 51.2771C89.5606 50.6971 89.4206 49.6272 89.9906 48.8672L91.9706 46.2872C92.5506 45.5372 93.6306 45.3971 94.3806 45.9671C95.1306 46.5471 95.2706 47.6172 94.7006 48.3772L92.7206 50.9572C92.3806 51.3972 91.8706 51.6272 91.3606 51.6272H91.3506Z" fill="#3B3B3B"/>
<path d="M63.4719 58.4182C63.1219 58.4182 62.7619 58.3082 62.4519 58.0782C61.6919 57.5182 61.5319 56.4382 62.0919 55.6782L86.1619 23.1082C86.7219 22.3482 87.8019 22.1881 88.5619 22.7481C89.3219 23.3081 89.4819 24.3882 88.9219 25.1482L64.8519 57.7182C64.5119 58.1782 63.9919 58.4182 63.4719 58.4182Z" fill="#3B3B3B"/>
</g>
</g>
<mask id="mask3_3920_47313" style="mask-type:luminance" maskUnits="userSpaceOnUse" x="166" y="25" width="47" height="50">
<path d="M209.7 25.3086H169.14C167.682 25.3086 166.5 26.4906 166.5 27.9486V71.4386C166.5 72.8966 167.682 74.0786 169.14 74.0786H209.7C211.158 74.0786 212.34 72.8966 212.34 71.4386V27.9486C212.34 26.4906 211.158 25.3086 209.7 25.3086Z" fill="white"/>
</mask>
<g mask="url(#mask3_3920_47313)">
<g style="mix-blend-mode:screen">
<path d="M173.152 46.3401C172.812 46.3401 172.462 46.2401 172.162 46.0301C171.362 45.4801 171.152 44.3901 171.702 43.5901L184.882 24.3101C185.432 23.5101 186.522 23.3001 187.322 23.8501C188.122 24.4001 188.332 25.4901 187.782 26.2901L174.602 45.5701C174.262 46.0701 173.712 46.3401 173.152 46.3401Z" fill="#3B3B3B"/>
<path d="M202.64 67.0901C202.3 67.0901 201.95 66.9901 201.65 66.7801C200.85 66.2301 200.64 65.1401 201.19 64.3401L214.37 45.0601C214.92 44.2601 216.01 44.0501 216.81 44.6001C217.61 45.1501 217.82 46.2401 217.27 47.0401L204.09 66.3201C203.75 66.8201 203.2 67.0901 202.64 67.0901Z" fill="#3B3B3B"/>
<path d="M199.04 72.6082C198.7 72.6082 198.35 72.5082 198.05 72.2982C197.25 71.7482 197.04 70.6582 197.59 69.8582L198.6 68.3882C199.15 67.5882 200.24 67.3782 201.04 67.9282C201.84 68.4782 202.05 69.5682 201.5 70.3682L200.49 71.8382C200.15 72.3382 199.6 72.6082 199.04 72.6082Z" fill="#3B3B3B"/>
<path d="M167.521 75.8387C167.161 75.8387 166.801 75.7287 166.481 75.4987C165.701 74.9287 165.531 73.8287 166.101 73.0387L186.041 45.8187C186.611 45.0387 187.711 44.8687 188.501 45.4387C189.281 46.0087 189.451 47.1087 188.881 47.8987L168.941 75.1187C168.601 75.5887 168.061 75.8387 167.521 75.8387Z" fill="#3B3B3B"/>
</g>
</g>
<path d="M95.9643 106.56C96.519 95.4565 87.9674 86.0055 76.8637 85.4508C65.7601 84.8961 56.3091 93.4477 55.7544 104.551C55.1997 115.655 63.7513 125.106 74.8549 125.661C85.9586 126.215 95.4095 117.664 95.9643 106.56Z" fill="#616161"/>
<g style="mix-blend-mode:screen">
<path d="M82.7624 122.23C82.9424 122.23 83.1324 122.19 83.3124 122.11C89.8824 119.16 94.1324 112.6 94.1324 105.39C94.1324 95.2903 85.9124 87.0703 75.8224 87.0703C75.0824 87.0703 74.4824 87.6703 74.4824 88.4103C74.4824 89.1503 75.0824 89.7503 75.8224 89.7503C84.4424 89.7503 91.4524 96.7603 91.4524 105.38C91.4524 111.53 87.8324 117.13 82.2224 119.64C81.5424 119.94 81.2424 120.74 81.5424 121.42C81.7624 121.92 82.2524 122.21 82.7724 122.21L82.7624 122.23Z" fill="#121212"/>
</g>
<g style="mix-blend-mode:screen">
<path d="M75.4626 123.18C76.1726 123.18 76.7726 122.62 76.8026 121.9C76.8426 121.16 76.2726 120.53 75.5226 120.49C71.1726 120.28 67.2226 118.33 64.4026 115.02C63.9226 114.45 63.0726 114.39 62.5026 114.87C61.9426 115.35 61.8726 116.2 62.3526 116.77C65.6126 120.59 70.3626 122.93 75.3926 123.18C75.4126 123.18 75.4426 123.18 75.4626 123.18Z" fill="#121212"/>
</g>
<g style="mix-blend-mode:screen">
<path d="M62.9219 105.508C62.9219 112.648 68.7119 118.438 75.8519 118.438C82.9919 118.438 88.7819 112.648 88.7819 105.508C88.7819 98.3681 82.9919 92.5781 75.8519 92.5781C68.7119 92.5781 62.9219 98.3681 62.9219 105.508Z" fill="#171717"/>
<path d="M75.8511 118.737C68.5511 118.737 62.6211 112.807 62.6211 105.507C62.6211 98.2073 68.5511 92.2773 75.8511 92.2773C83.1511 92.2773 89.0811 98.2173 89.0811 105.507C89.0811 112.797 83.1411 118.737 75.8511 118.737ZM75.8511 92.8773C68.8911 92.8773 63.2211 98.5373 63.2211 105.507C63.2211 112.477 68.8811 118.137 75.8511 118.137C82.8211 118.137 88.4811 112.477 88.4811 105.507C88.4811 98.5373 82.8211 92.8773 75.8511 92.8773Z" fill="#231F20"/>
</g>
<path d="M75.8522 115.118C81.1596 115.118 85.4622 110.816 85.4622 105.508C85.4622 100.201 81.1596 95.8984 75.8522 95.8984C70.5447 95.8984 66.2422 100.201 66.2422 105.508C66.2422 110.816 70.5447 115.118 75.8522 115.118Z" fill="#D1CECE"/>
<path d="M75.8516 113.258C80.1318 113.258 83.6016 109.788 83.6016 105.508C83.6016 101.228 80.1318 97.7578 75.8516 97.7578C71.5714 97.7578 68.1016 101.228 68.1016 105.508C68.1016 109.788 71.5714 113.258 75.8516 113.258Z" fill="#E2DFDF"/>
<g style="mix-blend-mode:multiply">
<path d="M70.7812 105.508C70.7812 108.308 73.0512 110.578 75.8512 110.578C78.6512 110.578 80.9212 108.308 80.9212 105.508C80.9212 102.708 78.6512 100.438 75.8512 100.438C73.0512 100.438 70.7812 102.708 70.7812 105.508Z" fill="#E2DFDF"/>
</g>
<path d="M295.91 106.393C296.412 95.2873 287.816 85.8767 276.71 85.3744C265.604 84.872 256.193 93.468 255.691 104.574C255.189 115.68 263.785 125.091 274.891 125.593C285.997 126.096 295.407 117.5 295.91 106.393Z" fill="#616161"/>
<g style="mix-blend-mode:screen">
<path d="M282.721 122.23C282.901 122.23 283.091 122.19 283.271 122.11C289.841 119.16 294.091 112.6 294.091 105.39C294.091 95.2903 285.871 87.0703 275.781 87.0703C275.041 87.0703 274.441 87.6703 274.441 88.4103C274.441 89.1503 275.041 89.7503 275.781 89.7503C284.401 89.7503 291.411 96.7603 291.411 105.38C291.411 111.53 287.791 117.13 282.181 119.64C281.501 119.94 281.201 120.74 281.501 121.42C281.721 121.92 282.211 122.21 282.731 122.21L282.721 122.23Z" fill="#121212"/>
</g>
<g style="mix-blend-mode:screen">
<path d="M275.421 123.18C276.131 123.18 276.731 122.62 276.761 121.9C276.801 121.16 276.231 120.53 275.481 120.49C271.131 120.28 267.181 118.33 264.361 115.02C263.881 114.45 263.031 114.39 262.471 114.87C261.911 115.35 261.841 116.2 262.321 116.77C265.581 120.59 270.331 122.93 275.361 123.18C275.381 123.18 275.401 123.18 275.431 123.18H275.421Z" fill="#121212"/>
</g>
<g style="mix-blend-mode:screen">
<path d="M262.883 105.512C262.883 112.652 268.673 118.442 275.813 118.442C282.953 118.442 288.743 112.652 288.743 105.512C288.743 98.372 282.953 92.582 275.813 92.582C268.673 92.582 262.883 98.372 262.883 105.512Z" fill="#171717"/>
<path d="M275.812 118.741C268.522 118.741 262.582 112.811 262.582 105.511C262.582 98.2112 268.512 92.2812 275.812 92.2812C283.112 92.2812 289.042 98.2212 289.042 105.511C289.042 112.801 283.112 118.741 275.812 118.741ZM275.812 92.8812C268.852 92.8812 263.182 98.5412 263.182 105.511C263.182 112.481 268.842 118.141 275.812 118.141C282.782 118.141 288.442 112.481 288.442 105.511C288.442 98.5412 282.782 92.8812 275.812 92.8812Z" fill="#231F20"/>
</g>
<path d="M275.811 115.118C281.119 115.118 285.421 110.816 285.421 105.508C285.421 100.201 281.119 95.8984 275.811 95.8984C270.504 95.8984 266.201 100.201 266.201 105.508C266.201 110.816 270.504 115.118 275.811 115.118Z" fill="#D1CECE"/>
<path d="M268.062 105.508C268.062 109.788 271.532 113.258 275.812 113.258C280.093 113.258 283.562 109.788 283.562 105.508C283.562 101.228 280.093 97.7578 275.812 97.7578C271.532 97.7578 268.062 101.228 268.062 105.508Z" fill="#E2DFDF"/>
<g style="mix-blend-mode:multiply">
<path d="M270.742 105.511C270.742 108.311 273.012 110.581 275.812 110.581C278.612 110.581 280.882 108.311 280.882 105.511C280.882 102.711 278.612 100.441 275.812 100.441C273.012 100.441 270.742 102.711 270.742 105.511Z" fill="#E2DFDF"/>
</g>
<path d="M284.822 82.1992C293.952 85.9892 300.382 94.9992 300.382 105.509C300.382 106.699 300.292 107.859 300.132 109.009H334.342V82.2092H284.822V82.1992Z" fill="#EDC768"/>
<path d="M249.921 105.509C249.921 94.9992 256.341 85.9992 265.481 82.1992H154.861V108.999H250.171C250.011 107.859 249.921 106.689 249.921 105.499V105.509Z" fill="#EDC768"/>
<path d="M50.6204 105.509C50.6204 94.9992 57.0404 85.9992 66.1804 82.1992H20.6504V108.999H50.8704C50.7104 107.859 50.6204 106.689 50.6204 105.499V105.509Z" fill="#EDC768"/>
<path d="M85.5198 82.1992C94.6498 85.9892 101.08 94.9992 101.08 105.509C101.08 106.699 100.99 107.859 100.83 109.009H111.57V82.2092H85.5098L85.5198 82.1992Z" fill="#EDC768"/>
<mask id="mask4_3920_47313" style="mask-type:luminance" maskUnits="userSpaceOnUse" x="20" y="25" width="20" height="53">
<path d="M20.6309 25.1016H36.4809C37.9109 25.1016 39.0809 26.2616 39.0809 27.7016V75.2316C39.0809 76.6616 37.9209 77.8316 36.4809 77.8316H20.6309V25.1116V25.1016Z" fill="white"/>
</mask>
<g mask="url(#mask4_3920_47313)">
<g style="mix-blend-mode:screen">
<path d="M20.6803 50.463C20.3603 50.463 20.0303 50.373 19.7403 50.193C18.9203 49.673 18.6803 48.583 19.2003 47.763L31.6503 28.213C32.1703 27.393 33.2603 27.153 34.0803 27.673C34.9003 28.193 35.1403 29.283 34.6203 30.103L22.1703 49.653C21.8303 50.183 21.2703 50.463 20.6903 50.463H20.6803Z" fill="#3B3B3B"/>
</g>
<g style="mix-blend-mode:screen">
<path d="M17.4108 84.1348C17.0908 84.1348 16.7608 84.0448 16.4708 83.8648C15.6508 83.3448 15.4108 82.2548 15.9308 81.4348L28.3808 61.8848C28.9008 61.0648 29.9908 60.8248 30.8108 61.3448C31.6308 61.8648 31.8708 62.9548 31.3508 63.7748L18.9008 83.3248C18.5608 83.8548 18.0008 84.1348 17.4208 84.1348H17.4108Z" fill="#3B3B3B"/>
</g>
<g style="mix-blend-mode:screen">
<path d="M32.1412 60.6943C31.8312 60.6943 31.5212 60.6143 31.2312 60.4443C30.4012 59.9443 30.1312 58.8643 30.6412 58.0343L33.2012 53.8043C33.7012 52.9743 34.7812 52.7043 35.6112 53.2043C36.4412 53.7043 36.7112 54.7843 36.2012 55.6143L33.6412 59.8444C33.3112 60.3944 32.7312 60.6943 32.1312 60.6943H32.1412Z" fill="#3B3B3B"/>
</g>
</g>
<path d="M18.2205 23.2916H12.7805C12.5205 23.2916 12.3105 23.0816 12.3105 22.8216C12.3105 22.5616 12.5205 22.3516 12.7805 22.3516H18.2205C18.4805 22.3516 18.6905 22.5616 18.6905 22.8216C18.6905 23.0816 18.4805 23.2916 18.2205 23.2916Z" fill="#DEB54D"/>
<path d="M114.322 25.5195H152.112C153.632 25.5195 154.862 26.7495 154.862 28.2695V109.01H111.582V28.2695C111.582 26.7495 112.812 25.5195 114.332 25.5195H114.322Z" fill="#EDC768"/>
<path d="M126.861 28.9688H119.001C116.764 28.9688 114.951 30.782 114.951 33.0188V78.6687C114.951 80.9055 116.764 82.7188 119.001 82.7188H126.861C129.098 82.7188 130.911 80.9055 130.911 78.6687V33.0188C130.911 30.782 129.098 28.9688 126.861 28.9688Z" fill="#A4E5ED"/>
<g style="mix-blend-mode:multiply">
<path d="M128.58 81.2913H120.71C118.48 81.2913 116.66 79.4812 116.66 77.2412V31.5813C116.66 30.8313 116.88 30.1413 117.23 29.5312C116.04 30.2312 115.23 31.5213 115.23 33.0013V78.6613C115.23 80.9013 117.04 82.7113 119.28 82.7113H127.15C128.64 82.7113 129.92 81.9013 130.62 80.7113C130.02 81.0713 129.32 81.2813 128.57 81.2813L128.58 81.2913Z" fill="#E0E0E0"/>
</g>
<path d="M147.871 29.0391H140.011C137.774 29.0391 135.961 30.8523 135.961 33.0891V78.739C135.961 80.9758 137.774 82.7891 140.011 82.7891H147.871C150.108 82.7891 151.921 80.9758 151.921 78.739V33.0891C151.921 30.8523 150.108 29.0391 147.871 29.0391Z" fill="#A4E5ED"/>
<path d="M133.661 25.5195H132.781V109H133.661V25.5195Z" fill="#757575"/>
<mask id="mask5_3920_47313" style="mask-type:luminance" maskUnits="userSpaceOnUse" x="114" y="28" width="17" height="55">
<path d="M126.861 28.9688H119.001C116.764 28.9688 114.951 30.782 114.951 33.0188V78.6687C114.951 80.9055 116.764 82.7188 119.001 82.7188H126.861C129.098 82.7188 130.911 80.9055 130.911 78.6687V33.0188C130.911 30.782 129.098 28.9688 126.861 28.9688Z" fill="white"/>
</mask>
<g mask="url(#mask5_3920_47313)">
<g style="mix-blend-mode:screen">
<path d="M117.85 46.5592C117.52 46.5592 117.19 46.4692 116.9 46.2792C116.09 45.7492 115.85 44.6592 116.38 43.8492L127.73 26.3492C128.26 25.5392 129.35 25.2992 130.16 25.8292C130.97 26.3592 131.21 27.4492 130.68 28.2592L119.33 45.7592C118.99 46.2792 118.43 46.5592 117.85 46.5592Z" fill="#2B2B2B"/>
</g>
<g style="mix-blend-mode:screen">
<path d="M112 70.7688C111.67 70.7688 111.34 70.6788 111.05 70.4888C110.24 69.9588 110 68.8688 110.53 68.0588L121.88 50.5588C122.41 49.7388 123.49 49.5088 124.31 50.0388C125.12 50.5688 125.36 51.6588 124.83 52.4688L113.48 69.9688C113.14 70.4888 112.58 70.7688 112 70.7688Z" fill="#2B2B2B"/>
</g>
<g style="mix-blend-mode:screen">
<path d="M122.93 75.1008C122.6 75.1008 122.27 75.0108 121.98 74.8208C121.17 74.2908 120.93 73.2008 121.46 72.3908L132.81 54.8908C133.34 54.0708 134.43 53.8408 135.24 54.3708C136.05 54.9008 136.29 55.9908 135.76 56.8008L124.41 74.3008C124.07 74.8208 123.51 75.1008 122.93 75.1008Z" fill="#2B2B2B"/>
</g>
<g style="mix-blend-mode:screen">
<path d="M126.151 48.3774C125.821 48.3774 125.491 48.2874 125.201 48.0974C124.391 47.5674 124.151 46.4774 124.681 45.6674L125.481 44.4274C126.011 43.6174 127.101 43.3774 127.911 43.9074C128.721 44.4374 128.961 45.5274 128.431 46.3374L127.631 47.5774C127.291 48.0974 126.731 48.3774 126.151 48.3774Z" fill="#2B2B2B"/>
</g>
</g>
<mask id="mask6_3920_47313" style="mask-type:luminance" maskUnits="userSpaceOnUse" x="135" y="28" width="17" height="55">
<path d="M147.871 28.9688H140.011C137.774 28.9688 135.961 30.782 135.961 33.0188V78.6687C135.961 80.9055 137.774 82.7188 140.011 82.7188H147.871C150.108 82.7188 151.921 80.9055 151.921 78.6687V33.0188C151.921 30.782 150.108 28.9688 147.871 28.9688Z" fill="white"/>
</mask>
<g mask="url(#mask6_3920_47313)">
<g style="mix-blend-mode:screen">
<path d="M142.131 53.0006C141.801 53.0006 141.471 52.9106 141.181 52.7206C140.371 52.1906 140.131 51.1006 140.661 50.2906L152.011 32.7906C152.541 31.9806 153.621 31.7406 154.441 32.2706C155.251 32.8006 155.491 33.8906 154.961 34.7006L143.611 52.2006C143.271 52.7206 142.711 53.0006 142.131 53.0006Z" fill="#2B2B2B"/>
<path d="M136.282 77.2102C135.952 77.2102 135.622 77.1202 135.332 76.9302C134.522 76.4002 134.282 75.3102 134.812 74.5002L146.162 57.0002C146.692 56.1802 147.772 55.9502 148.592 56.4802C149.402 57.0102 149.642 58.1002 149.112 58.9102L137.762 76.4102C137.422 76.9302 136.862 77.2102 136.282 77.2102Z" fill="#2B2B2B"/>
<path d="M147.211 81.5422C146.881 81.5422 146.551 81.4522 146.261 81.2622C145.451 80.7322 145.211 79.6422 145.741 78.8322L157.091 61.3322C157.621 60.5122 158.711 60.2822 159.521 60.8122C160.331 61.3422 160.571 62.4322 160.041 63.2422L148.691 80.7422C148.351 81.2622 147.791 81.5422 147.211 81.5422Z" fill="#2B2B2B"/>
</g>
</g>
<path d="M21.3814 82.1992H28.4414V99.5692H18.6914V84.8892C18.6914 83.4092 19.8914 82.1992 21.3814 82.1992Z" fill="#EDC768"/>
<path d="M259.651 83.6003H155.291V80.8203H259.651C260.421 80.8203 261.041 81.4403 261.041 82.2103C261.041 82.9803 260.421 83.6003 259.651 83.6003Z" fill="#EDC153"/>
<path d="M334.341 83.6003H290.441C289.671 83.6003 289.051 82.9803 289.051 82.2103C289.051 81.4403 289.671 80.8203 290.441 80.8203H334.341V83.6003Z" fill="#EDC153"/>
<path d="M91.5306 83.6003H110.351C110.781 83.6003 111.121 83.2503 111.121 82.8303V81.5903C111.121 81.1603 110.771 80.8203 110.351 80.8203H91.5306C90.7606 80.8203 90.1406 81.4403 90.1406 82.2103C90.1406 82.9803 90.7606 83.6003 91.5306 83.6003Z" fill="#EDC153"/>
<path d="M19.3412 83.6003H60.3812C61.1512 83.6003 61.7712 82.9803 61.7712 82.2103C61.7712 81.4403 61.1512 80.8203 60.3812 80.8203H19.3412C18.5712 80.8203 17.9512 81.4403 17.9512 82.2103C17.9512 82.9803 18.5712 83.6003 19.3412 83.6003Z" fill="#EDC153"/>
<path d="M324.551 78.9609H334.341V89.6109H324.551C323.481 89.6109 322.621 88.7409 322.621 87.6809V80.8909C322.621 79.8209 323.491 78.9609 324.551 78.9609Z" fill="#CC463A"/>
<g style="mix-blend-mode:multiply">
<path d="M116.981 85.8789H128.881C130.001 85.8789 130.911 86.7889 130.911 87.9089V103.469C130.911 104.589 130.001 105.499 128.881 105.499H116.981C115.861 105.499 114.951 104.589 114.951 103.469V87.9089C114.951 86.7889 115.861 85.8789 116.981 85.8789Z" fill="#F2F2F2"/>
</g>
<g style="mix-blend-mode:multiply">
<path d="M149.891 85.8789H137.991C136.87 85.8789 135.961 86.7878 135.961 87.9089V103.479C135.961 104.6 136.87 105.509 137.991 105.509H149.891C151.012 105.509 151.921 104.6 151.921 103.479V87.9089C151.921 86.7878 151.012 85.8789 149.891 85.8789Z" fill="#F2F2F2"/>
</g>
<path d="M36.4917 79.1306H20.6417C20.1517 79.1306 19.7617 78.7406 19.7617 78.2506C19.7617 77.7606 20.1517 77.3706 20.6417 77.3706H36.4917C37.4417 77.3706 38.2117 76.6006 38.2117 75.6506V28.1206C38.2117 27.1706 37.4417 26.4006 36.4917 26.4006H20.6417C20.1517 26.4006 19.7617 26.0106 19.7617 25.5206C19.7617 25.0306 20.1517 24.6406 20.6417 24.6406H36.4917C38.4117 24.6406 39.9717 26.2006 39.9717 28.1206V75.6506C39.9717 77.5706 38.4117 79.1306 36.4917 79.1306Z" fill="#757575"/>
<g style="mix-blend-mode:screen">
<path d="M17.5508 22.9986H12.7708C12.6508 22.9986 12.5508 22.8986 12.5508 22.7786C12.5508 22.6586 12.6508 22.5586 12.7708 22.5586H17.5508C17.6708 22.5586 17.7708 22.6586 17.7708 22.7786C17.7708 22.8986 17.6708 22.9986 17.5508 22.9986Z" fill="#474747"/>
</g>
<path d="M154.862 109.659H111.582C111.222 109.659 110.922 109.369 110.922 108.999V28.2594C110.922 26.3794 112.452 24.8594 114.322 24.8594H152.112C153.992 24.8594 155.512 26.3894 155.512 28.2594V108.999C155.512 109.359 155.212 109.659 154.852 109.659H154.862ZM112.242 108.339H154.202V28.2594C154.202 27.1094 153.262 26.1694 152.112 26.1694H114.322C113.172 26.1694 112.232 27.1094 112.232 28.2594V108.339H112.242Z" fill="#757575"/>
<path d="M126.861 83.4511H118.991C116.401 83.4511 114.281 81.3411 114.281 78.7411V33.0811C114.281 30.4911 116.391 28.3711 118.991 28.3711H126.861C129.451 28.3711 131.571 30.4811 131.571 33.0811V78.7411C131.571 81.3311 129.461 83.4511 126.861 83.4511ZM118.991 29.7011C117.121 29.7011 115.601 31.2211 115.601 33.0911V78.7511C115.601 80.6211 117.121 82.1411 118.991 82.1411H126.861C128.731 82.1411 130.251 80.6211 130.251 78.7511V33.0911C130.251 31.2211 128.731 29.7011 126.861 29.7011H118.991Z" fill="#757575"/>
<g style="mix-blend-mode:screen">
<path d="M274.652 2.95126H83.542C83.012 2.95126 82.582 2.52127 82.582 1.99127C82.582 1.46127 83.012 1.03125 83.542 1.03125H274.652C275.182 1.03125 275.612 1.46127 275.612 1.99127C275.612 2.52127 275.182 2.95126 274.652 2.95126Z" fill="#474747"/>
</g>
<path d="M249.31 105.508H157.1C156.206 105.508 155.48 106.233 155.48 107.128V108.498C155.48 109.393 156.206 110.118 157.1 110.118H249.31C250.205 110.118 250.93 109.393 250.93 108.498V107.128C250.93 106.233 250.205 105.508 249.31 105.508Z" fill="#EDC153"/>
<path d="M100.891 105.51H109.611C110.331 105.51 110.911 106.09 110.911 106.81V108.81C110.911 109.53 110.331 110.11 109.611 110.11H100.891V105.5V105.51Z" fill="#EDC153"/>
<path d="M20.9914 110.118H51.4614V105.508H20.9914C19.7214 105.508 18.6914 106.538 18.6914 107.808C18.6914 109.078 19.7214 110.108 20.9914 110.108V110.118Z" fill="#EDC153"/>
<path d="M335.63 105.508H299.82C299.229 105.508 298.75 105.987 298.75 106.578V109.048C298.75 109.639 299.229 110.118 299.82 110.118H335.63C336.221 110.118 336.7 109.639 336.7 109.048V106.578C336.7 105.987 336.221 105.508 335.63 105.508Z" fill="#EDC153"/>
<path d="M300.2 110.418C300.12 110.418 300.04 110.418 299.96 110.398C299 110.268 298.33 109.378 298.46 108.418C298.61 107.318 298.69 106.218 298.69 105.168C298.69 92.228 288.16 81.698 275.22 81.698C262.28 81.698 251.75 92.228 251.75 105.168C251.75 106.228 251.83 107.318 251.98 108.418C252.11 109.378 251.44 110.268 250.48 110.398C249.52 110.528 248.63 109.858 248.5 108.898C248.32 107.638 248.24 106.378 248.24 105.158C248.24 90.278 260.35 78.168 275.23 78.168C290.11 78.168 302.22 90.278 302.22 105.158C302.22 106.378 302.13 107.638 301.96 108.898C301.84 109.778 301.08 110.418 300.22 110.418H300.2Z" fill="#F8D780"/>
<path d="M335.171 100.801H316.271C315.034 100.801 314.031 101.804 314.031 103.041V107.991C314.031 109.228 315.034 110.231 316.271 110.231H335.171C336.408 110.231 337.411 109.228 337.411 107.991V103.041C337.411 101.804 336.408 100.801 335.171 100.801Z" fill="#787878"/>
<g style="mix-blend-mode:screen">
<path d="M334.951 105.071H317.041C316.031 105.071 315.201 104.251 315.201 103.231C315.201 102.221 316.021 101.391 317.041 101.391H334.951C335.961 101.391 336.791 102.211 336.791 103.231C336.791 104.241 335.971 105.071 334.951 105.071Z" fill="#292929"/>
</g>
<path d="M50.9316 110.418C50.0716 110.418 49.3116 109.778 49.1916 108.898C49.0216 107.638 48.9316 106.378 48.9316 105.158C48.9316 90.278 61.0416 78.168 75.9216 78.168C90.8016 78.168 102.912 90.278 102.912 105.158C102.912 106.378 102.822 107.628 102.652 108.898C102.522 109.858 101.632 110.528 100.672 110.398C99.7116 110.268 99.0416 109.378 99.1716 108.418C99.3216 107.318 99.4016 106.218 99.4016 105.168C99.4016 92.228 88.8716 81.698 75.9316 81.698C62.9916 81.698 52.4616 92.228 52.4616 105.168C52.4616 106.228 52.5416 107.318 52.6916 108.418C52.8216 109.378 52.1516 110.268 51.1916 110.398C51.1116 110.408 51.0316 110.418 50.9516 110.418H50.9316Z" fill="#F8D780"/>
<path d="M37.3802 99.5781H18.4802C17.2431 99.5781 16.2402 100.581 16.2402 101.818V106.768C16.2402 108.005 17.2431 109.008 18.4802 109.008H37.3802C38.6174 109.008 39.6202 108.005 39.6202 106.768V101.818C39.6202 100.581 38.6174 99.5781 37.3802 99.5781Z" fill="#787878"/>
<g style="mix-blend-mode:screen">
<path d="M36.5996 103.848H18.6896C17.6796 103.848 16.8496 103.028 16.8496 102.008C16.8496 100.998 17.6696 100.168 18.6896 100.168H36.5996C37.6096 100.168 38.4396 100.988 38.4396 102.008C38.4396 103.018 37.6196 103.848 36.5996 103.848Z" fill="#292929"/>
</g>
<g style="mix-blend-mode:screen">
<path d="M29.922 8.82031H325.162C326.592 8.82031 327.752 9.98031 327.752 11.4103V12.2103C327.752 13.6403 326.592 14.8003 325.162 14.8003H29.922C28.492 14.8003 27.332 13.6403 27.332 12.2103V11.4103C27.332 9.98031 28.492 8.82031 29.922 8.82031Z" fill="#474747"/>
</g>
<g style="mix-blend-mode:multiply">
<path d="M97.2608 71.3313H56.6908C55.2308 71.3313 54.0508 70.1513 54.0508 68.6913V25.5312C52.6608 25.6013 51.5508 26.7413 51.5508 28.1513V71.6513C51.5508 73.1113 52.7308 74.2913 54.1908 74.2913H94.7608C96.2208 74.2913 97.4008 73.1113 97.4008 71.6513V71.3112C97.4008 71.3112 97.3108 71.3213 97.2608 71.3213V71.3313Z" fill="#DBDBDB"/>
</g>
<g style="mix-blend-mode:multiply">
<path d="M212.2 71.3313H171.63C170.17 71.3313 168.99 70.1513 168.99 68.6913V25.5312C167.6 25.6013 166.49 26.7413 166.49 28.1513V71.6513C166.49 73.1113 167.67 74.2913 169.13 74.2913H209.7C211.16 74.2913 212.34 73.1113 212.34 71.6513V71.3112C212.34 71.3112 212.25 71.3213 212.2 71.3213V71.3313Z" fill="#DBDBDB"/>
</g>
<g style="mix-blend-mode:multiply">
<path d="M267.851 71.3313H227.281C225.821 71.3313 224.641 70.1513 224.641 68.6913V25.5312C223.251 25.6013 222.141 26.7413 222.141 28.1513V71.6513C222.141 73.1113 223.321 74.2913 224.781 74.2913H265.351C266.811 74.2913 267.991 73.1113 267.991 71.6513V71.3112C267.991 71.3112 267.901 71.3213 267.851 71.3213V71.3313Z" fill="#DBDBDB"/>
</g>
<g style="mix-blend-mode:multiply">
<path d="M322.482 71.3313H281.911C280.451 71.3313 279.271 70.1513 279.271 68.6913V25.5312C277.881 25.6013 276.771 26.7413 276.771 28.1513V71.6513C276.771 73.1113 277.951 74.2913 279.411 74.2913H319.982C321.442 74.2913 322.621 73.1113 322.621 71.6513V71.3112C322.621 71.3112 322.532 71.3213 322.482 71.3213V71.3313Z" fill="#DBDBDB"/>
</g>
<path d="M94.59 75.1689H54.02C52.08 75.1689 50.5 73.5889 50.5 71.6489V28.1489C50.5 26.2089 52.08 24.6289 54.02 24.6289H94.59C96.53 24.6289 98.11 26.2089 98.11 28.1489V71.6489C98.11 73.5889 96.53 75.1689 94.59 75.1689ZM54.02 26.3989C53.05 26.3989 52.26 27.1889 52.26 28.1589V71.6589C52.26 72.6289 53.05 73.4189 54.02 73.4189H94.59C95.56 73.4189 96.35 72.6289 96.35 71.6589V28.1589C96.35 27.1889 95.56 26.3989 94.59 26.3989H54.02Z" fill="#757575"/>
<path d="M209.701 75.1689H169.131C167.191 75.1689 165.611 73.5889 165.611 71.6489V28.1489C165.611 26.2089 167.191 24.6289 169.131 24.6289H209.701C211.641 24.6289 213.221 26.2089 213.221 28.1489V71.6489C213.221 73.5889 211.641 75.1689 209.701 75.1689ZM169.131 26.3989C168.161 26.3989 167.371 27.1889 167.371 28.1589V71.6589C167.371 72.6289 168.161 73.4189 169.131 73.4189H209.701C210.671 73.4189 211.461 72.6289 211.461 71.6589V28.1589C211.461 27.1889 210.671 26.3989 209.701 26.3989H169.131Z" fill="#757575"/>
<path d="M265.361 75.1689H224.791C222.851 75.1689 221.271 73.5889 221.271 71.6489V28.1489C221.271 26.2089 222.851 24.6289 224.791 24.6289H265.361C267.301 24.6289 268.881 26.2089 268.881 28.1489V71.6489C268.881 73.5889 267.301 75.1689 265.361 75.1689ZM224.791 26.3989C223.821 26.3989 223.031 27.1889 223.031 28.1589V71.6589C223.031 72.6289 223.821 73.4189 224.791 73.4189H265.361C266.331 73.4189 267.121 72.6289 267.121 71.6589V28.1589C267.121 27.1889 266.331 26.3989 265.361 26.3989H224.791Z" fill="#757575"/>
<path d="M319.981 75.1689H279.411C277.471 75.1689 275.891 73.5889 275.891 71.6489V28.1489C275.891 26.2089 277.471 24.6289 279.411 24.6289H319.981C321.921 24.6289 323.501 26.2089 323.501 28.1489V71.6489C323.501 73.5889 321.921 75.1689 319.981 75.1689ZM279.411 26.3989C278.441 26.3989 277.651 27.1889 277.651 28.1589V71.6589C277.651 72.6289 278.441 73.4189 279.411 73.4189H319.981C320.951 73.4189 321.741 72.6289 321.741 71.6589V28.1589C321.741 27.1889 320.951 26.3989 319.981 26.3989H279.411Z" fill="#757575"/>
<g style="mix-blend-mode:multiply">
<path d="M149.311 81.0881H141.441C139.211 81.0881 137.391 79.2781 137.391 77.0381V31.3781C137.391 30.6281 137.611 29.9381 137.961 29.3281C136.771 30.0281 135.961 31.3181 135.961 32.7981V78.4581C135.961 80.6981 137.771 82.5081 140.011 82.5081H147.881C149.371 82.5081 150.651 81.6981 151.351 80.5081C150.751 80.8681 150.051 81.0781 149.301 81.0781L149.311 81.0881Z" fill="#E0E0E0"/>
</g>
<path d="M147.881 83.1698H140.011C137.421 83.1698 135.301 81.0598 135.301 78.4598V32.7998C135.301 30.2098 137.411 28.0898 140.011 28.0898H147.881C150.471 28.0898 152.591 30.1998 152.591 32.7998V78.4598C152.591 81.0498 150.481 83.1698 147.881 83.1698ZM140.011 29.4198C138.141 29.4198 136.621 30.9398 136.621 32.8098V78.4698C136.621 80.3398 138.141 81.8598 140.011 81.8598H147.881C149.751 81.8598 151.271 80.3398 151.271 78.4698V32.8098C151.271 30.9398 149.751 29.4198 147.881 29.4198H140.011Z" fill="#757575"/>
<path d="M179.281 103.548C178.271 103.548 177.451 102.728 177.451 101.718V88.9081C177.451 87.8981 178.271 87.0781 179.281 87.0781C180.291 87.0781 181.111 87.8981 181.111 88.9081V101.718C181.111 102.728 180.291 103.548 179.281 103.548Z" fill="#757575"/>
<path d="M184.521 103.548C183.511 103.548 182.691 102.728 182.691 101.718V88.9081C182.691 87.8981 183.511 87.0781 184.521 87.0781C185.531 87.0781 186.351 87.8981 186.351 88.9081V101.718C186.351 102.728 185.531 103.548 184.521 103.548Z" fill="#757575"/>
<path d="M189.752 103.548C188.742 103.548 187.922 102.728 187.922 101.718V88.9081C187.922 87.8981 188.742 87.0781 189.752 87.0781C190.762 87.0781 191.582 87.8981 191.582 88.9081V101.718C191.582 102.728 190.762 103.548 189.752 103.548Z" fill="#757575"/>
<path d="M194.992 103.548C193.982 103.548 193.162 102.728 193.162 101.718V88.9081C193.162 87.8981 193.982 87.0781 194.992 87.0781C196.002 87.0781 196.822 87.8981 196.822 88.9081V101.718C196.822 102.728 196.002 103.548 194.992 103.548Z" fill="#757575"/>
<path d="M200.15 103.548C199.14 103.548 198.32 102.728 198.32 101.718V88.9081C198.32 87.8981 199.14 87.0781 200.15 87.0781C201.16 87.0781 201.98 87.8981 201.98 88.9081V101.718C201.98 102.728 201.16 103.548 200.15 103.548Z" fill="#757575"/>
<path d="M239.55 98.4608H232.4C231.25 98.4608 230.32 97.5308 230.32 96.3808C230.32 95.2308 231.25 94.3008 232.4 94.3008H239.55C240.7 94.3008 241.63 95.2308 241.63 96.3808C241.63 97.5308 240.7 98.4608 239.55 98.4608Z" fill="#F8D780"/>
<path d="M45.6402 98.4608H38.4902C37.3402 98.4608 36.4102 97.5308 36.4102 96.3808C36.4102 95.2308 37.3402 94.3008 38.4902 94.3008H45.6402C46.7902 94.3008 47.7202 95.2308 47.7202 96.3808C47.7202 97.5308 46.7902 98.4608 45.6402 98.4608Z" fill="#F8D780"/>
</svg>
