<svg width="319" height="119" viewBox="0 0 319 119" fill="none" xmlns="http://www.w3.org/2000/svg">
<g style="mix-blend-mode:multiply">
<path d="M159.14 118.602C247.031 118.602 318.28 113.601 318.28 107.432C318.28 101.263 247.031 96.2617 159.14 96.2617C71.2494 96.2617 0 101.263 0 107.432C0 113.601 71.2494 118.602 159.14 118.602Z" fill="#757575"/>
</g>
<path d="M308.64 57.0703H52.5195V87.8503H308.64V57.0703Z" fill="#4D4D4D"/>
<path d="M303.541 49.9683L262.501 43.6483C260.581 43.3483 259.121 41.7683 258.981 39.8383L258.061 18.1483C257.231 10.0983 250.451 3.98828 242.361 3.98828H30.4711C17.4411 3.98828 6.87109 14.5583 6.87109 27.5883V87.8783H61.2311C61.2411 76.1683 70.731 66.6883 82.441 66.6883C94.151 66.6883 103.641 76.1783 103.651 87.8783H196.261L204.431 96.0483C205.311 96.9283 206.501 97.4183 207.751 97.4183H250.011C252.601 97.4183 254.701 95.3183 254.701 92.7283V87.8683H260.491C260.491 76.1483 269.991 66.6583 281.701 66.6583C293.411 66.6583 302.911 76.1583 302.911 87.8683H312.841V60.7783C312.841 55.3583 308.871 50.7583 303.511 49.9683H303.541Z" fill="#FFCE54"/>
<path d="M250.671 98.0095H207.571C206.131 98.0095 204.77 97.4496 203.75 96.4196L196.51 89.1696C196.061 88.7196 195.431 88.4595 194.791 88.4595H104.311V87.0195H194.791C195.811 87.0195 196.811 87.4295 197.531 88.1595L204.771 95.4095C205.521 96.1595 206.511 96.5695 207.571 96.5695H250.671C252.861 96.5695 254.63 94.7895 254.63 92.5995V87.7396H256.071V92.5995C256.071 95.5795 253.651 98.0095 250.661 98.0095H250.671Z" fill="#787878"/>
<path d="M203.219 20.2305H183.069C181.346 20.2305 179.949 21.6273 179.949 23.3505V43.5005C179.949 45.2236 181.346 46.6205 183.069 46.6205H203.219C204.942 46.6205 206.339 45.2236 206.339 43.5005V23.3505C206.339 21.6273 204.942 20.2305 203.219 20.2305Z" fill="#98DDDF"/>
<path d="M203.22 46.9789H183.08C181.16 46.9789 179.6 45.4189 179.6 43.4989V23.3589C179.6 21.4389 181.16 19.8789 183.08 19.8789H203.22C205.14 19.8789 206.7 21.4389 206.7 23.3589V43.4989C206.7 45.4189 205.14 46.9789 203.22 46.9789ZM183.08 20.5889C181.56 20.5889 180.32 21.8289 180.32 23.3489V43.4889C180.32 45.0089 181.56 46.2489 183.08 46.2489H203.22C204.74 46.2489 205.98 45.0089 205.98 43.4889V23.3489C205.98 21.8289 204.74 20.5889 203.22 20.5889H183.08Z" fill="#606060"/>
<path d="M170.241 20.2305H150.091C148.368 20.2305 146.971 21.6273 146.971 23.3505V43.5005C146.971 45.2236 148.368 46.6205 150.091 46.6205H170.241C171.964 46.6205 173.361 45.2236 173.361 43.5005V23.3505C173.361 21.6273 171.964 20.2305 170.241 20.2305Z" fill="#98DDDF"/>
<path d="M170.231 46.9789H150.091C148.171 46.9789 146.611 45.4189 146.611 43.4989V23.3589C146.611 21.4389 148.171 19.8789 150.091 19.8789H170.231C172.151 19.8789 173.711 21.4389 173.711 23.3589V43.4989C173.711 45.4189 172.151 46.9789 170.231 46.9789ZM150.091 20.5889C148.571 20.5889 147.331 21.8289 147.331 23.3489V43.4889C147.331 45.0089 148.571 46.2489 150.091 46.2489H170.231C171.751 46.2489 172.991 45.0089 172.991 43.4889V23.3489C172.991 21.8289 171.751 20.5889 170.231 20.5889H150.091Z" fill="#606060"/>
<path d="M137.331 20.2305H117.181C115.457 20.2305 114.061 21.6273 114.061 23.3505V43.5005C114.061 45.2236 115.457 46.6205 117.181 46.6205H137.331C139.054 46.6205 140.451 45.2236 140.451 43.5005V23.3505C140.451 21.6273 139.054 20.2305 137.331 20.2305Z" fill="#98DDDF"/>
<path d="M137.331 46.9789H117.191C115.271 46.9789 113.711 45.4189 113.711 43.4989V23.3589C113.711 21.4389 115.271 19.8789 117.191 19.8789H137.331C139.251 19.8789 140.811 21.4389 140.811 23.3589V43.4989C140.811 45.4189 139.251 46.9789 137.331 46.9789ZM117.191 20.5889C115.671 20.5889 114.431 21.8289 114.431 23.3489V43.4889C114.431 45.0089 115.671 46.2489 117.191 46.2489H137.331C138.851 46.2489 140.091 45.0089 140.091 43.4889V23.3489C140.091 21.8289 138.851 20.5889 137.331 20.5889H117.191Z" fill="#606060"/>
<path d="M104.35 20.2305H84.2001C82.4769 20.2305 81.0801 21.6273 81.0801 23.3505V43.5005C81.0801 45.2236 82.4769 46.6205 84.2001 46.6205H104.35C106.073 46.6205 107.47 45.2236 107.47 43.5005V23.3505C107.47 21.6273 106.073 20.2305 104.35 20.2305Z" fill="#98DDDF"/>
<path d="M104.341 46.9789H84.2007C82.2807 46.9789 80.7207 45.4189 80.7207 43.4989V23.3589C80.7207 21.4389 82.2807 19.8789 84.2007 19.8789H104.341C106.261 19.8789 107.821 21.4389 107.821 23.3589V43.4989C107.821 45.4189 106.261 46.9789 104.341 46.9789ZM84.2007 20.5889C82.6807 20.5889 81.4407 21.8289 81.4407 23.3489V43.4889C81.4407 45.0089 82.6807 46.2489 84.2007 46.2489H104.341C105.861 46.2489 107.101 45.0089 107.101 43.4889V23.3489C107.101 21.8289 105.861 20.5889 104.341 20.5889H84.2007Z" fill="#606060"/>
<path d="M71.3091 20.2305H51.1591C49.4359 20.2305 48.0391 21.6273 48.0391 23.3505V43.5005C48.0391 45.2236 49.4359 46.6205 51.1591 46.6205H71.3091C73.0322 46.6205 74.4291 45.2236 74.4291 43.5005V23.3505C74.4291 21.6273 73.0322 20.2305 71.3091 20.2305Z" fill="#98DDDF"/>
<path d="M71.2997 46.9789H51.1597C49.2397 46.9789 47.6797 45.4189 47.6797 43.4989V23.3589C47.6797 21.4389 49.2397 19.8789 51.1597 19.8789H71.2997C73.2197 19.8789 74.7797 21.4389 74.7797 23.3589V43.4989C74.7797 45.4189 73.2197 46.9789 71.2997 46.9789ZM51.1597 20.5889C49.6397 20.5889 48.3997 21.8289 48.3997 23.3489V43.4889C48.3997 45.0089 49.6397 46.2489 51.1597 46.2489H71.2997C72.8197 46.2489 74.0597 45.0089 74.0597 43.4889V23.3489C74.0597 21.8289 72.8197 20.5889 71.2997 20.5889H51.1597Z" fill="#606060"/>
<path d="M38.3208 20.2305H18.1708C16.4476 20.2305 15.0508 21.6273 15.0508 23.3505V43.5005C15.0508 45.2236 16.4476 46.6205 18.1708 46.6205H38.3208C40.0439 46.6205 41.4408 45.2236 41.4408 43.5005V23.3505C41.4408 21.6273 40.0439 20.2305 38.3208 20.2305Z" fill="#98DDDF"/>
<path d="M38.3212 46.9789H18.1812C16.2612 46.9789 14.7012 45.4189 14.7012 43.4989V23.3589C14.7012 21.4389 16.2612 19.8789 18.1812 19.8789H38.3212C40.2412 19.8789 41.8011 21.4389 41.8011 23.3589V43.4989C41.8011 45.4189 40.2412 46.9789 38.3212 46.9789ZM18.1812 20.5889C16.6612 20.5889 15.4211 21.8289 15.4211 23.3489V43.4889C15.4211 45.0089 16.6612 46.2489 18.1812 46.2489H38.3212C39.8412 46.2489 41.0812 45.0089 41.0812 43.4889V23.3489C41.0812 21.8289 39.8412 20.5889 38.3212 20.5889H18.1812Z" fill="#606060"/>
<path d="M306 77.6211H313.11C315.88 77.6211 318.13 79.8711 318.13 82.6411V87.6611C318.13 89.4111 316.71 90.821 314.97 90.821H306.01V77.631L306 77.6211Z" fill="#616161"/>
<path d="M17.5309 91.1992H4.50085C2.10085 91.1992 0.150879 89.2492 0.150879 86.8492V82.3492C0.150879 79.9492 2.10085 77.9993 4.50085 77.9993H17.5309C19.0109 77.9993 20.2109 79.1993 20.2109 80.6793V88.5092C20.2109 89.9892 19.0109 91.1893 17.5309 91.1893V91.1992Z" fill="#616161"/>
<path d="M301.237 88.8865C301.651 78.1249 293.262 69.0657 282.5 68.6523C271.739 68.2389 262.68 76.6278 262.266 87.3894C261.853 98.151 270.242 107.21 281.003 107.624C291.765 108.037 300.824 99.6481 301.237 88.8865Z" fill="#616161"/>
<g style="mix-blend-mode:screen">
<path d="M275.03 104.328C274.85 104.328 274.67 104.288 274.5 104.208C268.13 101.348 264.01 94.9878 264.01 88.0078C264.01 78.2178 271.97 70.2578 281.76 70.2578C282.48 70.2578 283.06 70.8379 283.06 71.5579C283.06 72.2779 282.48 72.8578 281.76 72.8578C273.41 72.8578 266.62 79.6479 266.62 87.9979C266.62 93.9579 270.13 99.3778 275.57 101.818C276.23 102.108 276.52 102.888 276.23 103.538C276.01 104.018 275.54 104.308 275.04 104.308L275.03 104.328Z" fill="#121212"/>
</g>
<g style="mix-blend-mode:screen">
<path d="M282.111 105.251C281.421 105.251 280.841 104.711 280.811 104.011C280.771 103.291 281.331 102.681 282.051 102.641C286.261 102.431 290.091 100.551 292.831 97.3406C293.301 96.7906 294.121 96.7307 294.671 97.1907C295.221 97.6607 295.281 98.4806 294.821 99.0306C291.661 102.731 287.061 105.001 282.191 105.241C282.171 105.241 282.151 105.241 282.121 105.241L282.111 105.251Z" fill="#121212"/>
</g>
<g style="mix-blend-mode:screen">
<path d="M294.259 88.1276C294.259 95.0476 288.649 100.658 281.729 100.658C274.809 100.658 269.199 95.0476 269.199 88.1276C269.199 81.2076 274.809 75.5977 281.729 75.5977C288.649 75.5977 294.259 81.2076 294.259 88.1276Z" fill="#171717"/>
<path d="M281.73 100.949C274.66 100.949 268.91 95.1985 268.91 88.1285C268.91 81.0585 274.66 75.3086 281.73 75.3086C288.8 75.3086 294.55 81.0585 294.55 88.1285C294.55 95.1985 288.8 100.949 281.73 100.949ZM281.73 75.8986C274.98 75.8986 269.5 81.3885 269.5 88.1385C269.5 94.8885 274.99 100.369 281.73 100.369C288.47 100.369 293.96 94.8785 293.96 88.1385C293.96 81.3986 288.47 75.8986 281.73 75.8986Z" fill="#231F20"/>
</g>
<path d="M291.05 88.1285C291.05 93.2785 286.88 97.4485 281.73 97.4485C276.58 97.4485 272.41 93.2785 272.41 88.1285C272.41 82.9785 276.58 78.8086 281.73 78.8086C286.88 78.8086 291.05 82.9785 291.05 88.1285Z" fill="#D1CECE"/>
<path d="M289.241 88.1271C289.241 92.2771 285.881 95.6371 281.731 95.6371C277.581 95.6371 274.221 92.2771 274.221 88.1271C274.221 83.9771 277.581 80.6172 281.731 80.6172C285.881 80.6172 289.241 83.9771 289.241 88.1271Z" fill="#E2DFDF"/>
<g style="mix-blend-mode:multiply">
<path d="M286.65 88.1287C286.65 90.8387 284.45 93.0388 281.74 93.0388C279.03 93.0388 276.83 90.8387 276.83 88.1287C276.83 85.4187 279.03 83.2188 281.74 83.2188C284.45 83.2188 286.65 85.4187 286.65 88.1287Z" fill="#E2DFDF"/>
</g>
<path d="M102.15 88.1289C102.15 98.8989 93.4204 107.629 82.6504 107.629C71.8804 107.629 63.1504 98.8989 63.1504 88.1289C63.1504 77.3589 71.8804 68.6289 82.6504 68.6289C93.4204 68.6289 102.15 77.3589 102.15 88.1289Z" fill="#616161"/>
<g style="mix-blend-mode:screen">
<path d="M75.9497 104.328C75.7697 104.328 75.5897 104.288 75.4197 104.208C69.0497 101.348 64.9297 94.9878 64.9297 88.0078C64.9297 78.2178 72.8897 70.2578 82.6797 70.2578C83.3997 70.2578 83.9797 70.8379 83.9797 71.5579C83.9797 72.2779 83.3997 72.8578 82.6797 72.8578C74.3297 72.8578 67.5397 79.6479 67.5397 87.9979C67.5397 93.9579 71.0497 99.3778 76.4897 101.818C77.1497 102.108 77.4396 102.888 77.1396 103.538C76.9196 104.018 76.4497 104.308 75.9497 104.308V104.328Z" fill="#121212"/>
</g>
<g style="mix-blend-mode:screen">
<path d="M83.0305 105.251C82.3405 105.251 81.7605 104.711 81.7305 104.011C81.6905 103.291 82.2505 102.681 82.9705 102.641C87.1805 102.431 91.0104 100.551 93.7504 97.3406C94.2204 96.7906 95.0405 96.7307 95.5905 97.1907C96.1405 97.6607 96.2005 98.4806 95.7405 99.0306C92.5805 102.731 87.9805 105.001 83.1105 105.241C83.0905 105.241 83.0705 105.241 83.0405 105.241L83.0305 105.251Z" fill="#121212"/>
</g>
<g style="mix-blend-mode:screen">
<path d="M95.1693 88.1276C95.1693 95.0476 89.5593 100.658 82.6393 100.658C75.7193 100.658 70.1094 95.0476 70.1094 88.1276C70.1094 81.2076 75.7193 75.5977 82.6393 75.5977C89.5593 75.5977 95.1693 81.2076 95.1693 88.1276Z" fill="#171717"/>
<path d="M82.65 100.949C75.58 100.949 69.8301 95.1985 69.8301 88.1285C69.8301 81.0585 75.58 75.3086 82.65 75.3086C89.72 75.3086 95.4701 81.0585 95.4701 88.1285C95.4701 95.1985 89.72 100.949 82.65 100.949ZM82.65 75.8986C75.9 75.8986 70.42 81.3885 70.42 88.1385C70.42 94.8885 75.91 100.369 82.65 100.369C89.39 100.369 94.88 94.8785 94.88 88.1385C94.88 81.3986 89.39 75.8986 82.65 75.8986Z" fill="#231F20"/>
</g>
<path d="M91.9603 88.1285C91.9603 93.2785 87.7903 97.4485 82.6403 97.4485C77.4903 97.4485 73.3203 93.2785 73.3203 88.1285C73.3203 82.9785 77.4903 78.8086 82.6403 78.8086C87.7903 78.8086 91.9603 82.9785 91.9603 88.1285Z" fill="#D1CECE"/>
<path d="M90.1606 88.1271C90.1606 92.2771 86.8006 95.6371 82.6506 95.6371C78.5006 95.6371 75.1406 92.2771 75.1406 88.1271C75.1406 83.9771 78.5006 80.6172 82.6506 80.6172C86.8006 80.6172 90.1606 83.9771 90.1606 88.1271Z" fill="#E2DFDF"/>
<g style="mix-blend-mode:multiply">
<path d="M87.5602 88.1287C87.5602 90.8387 85.3601 93.0388 82.6501 93.0388C79.9401 93.0388 77.7402 90.8387 77.7402 88.1287C77.7402 85.4187 79.9401 83.2188 82.6501 83.2188C85.3601 83.2188 87.5602 85.4187 87.5602 88.1287Z" fill="#E2DFDF"/>
</g>
<path d="M308.921 87.69C308.921 72.67 296.751 60.5 281.731 60.5C266.711 60.5 254.571 72.6399 254.541 87.6299C254.541 87.6299 254.541 87.64 254.541 87.65C254.541 87.66 254.541 87.67 254.541 87.69C254.571 89.42 255.961 90.81 257.681 90.81C259.401 90.81 260.801 89.42 260.821 87.69C260.821 76.06 270.251 66.6299 281.881 66.6299C293.511 66.6299 302.901 76.0199 302.941 87.6299C302.941 87.6899 302.921 87.74 302.921 87.8C302.921 89.46 304.261 90.81 305.921 90.81C307.581 90.81 308.921 89.46 308.921 87.8C308.921 87.76 308.921 87.73 308.911 87.7H308.921V87.69Z" fill="#616161"/>
<g style="mix-blend-mode:screen">
<path d="M256.77 87.9792C256.7 87.9792 256.62 87.9792 256.54 87.9592C255.81 87.8392 255.311 87.1392 255.441 86.4092C256.801 78.3492 259.91 73.2392 262.28 70.3692C270.15 60.8492 282.03 61.8092 282.54 61.8492C283.28 61.9192 283.82 62.5692 283.76 63.3092C283.69 64.0492 283.03 64.5992 282.3 64.5292C282.14 64.5192 271.291 63.6992 264.361 72.0892C262.201 74.6992 259.361 79.3892 258.101 86.8592C257.991 87.5192 257.42 87.9792 256.78 87.9792H256.77Z" fill="#262626"/>
</g>
<g style="mix-blend-mode:screen">
<path d="M303.15 79.8596C302.6 79.8596 302.08 79.5096 301.88 78.9596C298.03 68.0196 287.44 65.8796 287.34 65.8596C286.61 65.7196 286.13 65.0196 286.27 64.2896C286.41 63.5596 287.11 63.0796 287.84 63.2196C288.34 63.3096 300.05 65.6896 304.41 78.0596C304.66 78.7596 304.29 79.5296 303.59 79.7696C303.44 79.8196 303.29 79.8496 303.14 79.8496L303.15 79.8596Z" fill="#262626"/>
</g>
<path d="M309.59 66.0703H311.67C313.73 66.0703 315.4 67.7404 315.4 69.8004V73.8903C315.4 75.9503 313.73 77.6204 311.67 77.6204H309.59C308.38 77.6204 307.41 76.6404 307.41 75.4404V68.2603C307.41 67.0503 308.39 66.0803 309.59 66.0803V66.0703Z" fill="#CA6A61"/>
<path d="M88.3715 6.73999H71.0614C69.2014 6.73999 67.6914 5.23 67.6914 3.37C67.6914 1.51 69.2014 0 71.0614 0H88.3715C90.2315 0 91.7415 1.51 91.7415 3.37C91.7415 5.23 90.2315 6.73999 88.3715 6.73999Z" fill="#FFCE54"/>
<path d="M186.491 6.73999H169.181C167.321 6.73999 165.811 5.23 165.811 3.37C165.811 1.51 167.321 0 169.181 0H186.491C188.351 0 189.861 1.51 189.861 3.37C189.861 5.23 188.351 6.73999 186.491 6.73999Z" fill="#FFCE54"/>
<g style="mix-blend-mode:multiply">
<path d="M204.511 54.7003H16.8911C16.0911 54.7003 15.4512 54.0503 15.4512 53.2603C15.4512 52.4703 16.1011 51.8203 16.8911 51.8203H204.511C205.311 51.8203 205.951 52.4703 205.951 53.2603C205.951 54.0503 205.301 54.7003 204.511 54.7003Z" fill="#CCCCCC"/>
</g>
<g style="mix-blend-mode:multiply">
<path d="M204.511 19.2589H16.8911C16.0911 19.2589 15.4512 18.6089 15.4512 17.8189C15.4512 17.0289 16.1011 16.3789 16.8911 16.3789H204.511C205.311 16.3789 205.951 17.0289 205.951 17.8189C205.951 18.6089 205.301 19.2589 204.511 19.2589Z" fill="#CCCCCC"/>
</g>
<g style="mix-blend-mode:multiply">
<path d="M51.0514 75.3799H16.8813C16.0813 75.3799 15.4414 74.73 15.4414 73.94C15.4414 73.15 16.0913 72.5 16.8813 72.5H51.0514C51.8514 72.5 52.4915 73.15 52.4915 73.94C52.4915 74.73 51.8414 75.3799 51.0514 75.3799Z" fill="#CCCCCC"/>
</g>
<g style="mix-blend-mode:multiply">
<path d="M204.93 75.3799H111.45C110.65 75.3799 110.01 74.73 110.01 73.94C110.01 73.15 110.66 72.5 111.45 72.5H204.93C205.73 72.5 206.37 73.15 206.37 73.94C206.37 74.73 205.72 75.3799 204.93 75.3799Z" fill="#CCCCCC"/>
</g>
<path d="M204.51 52.5311H16.8905C15.8805 52.5311 15.0605 51.7111 15.0605 50.7011C15.0605 49.6911 15.8805 48.8711 16.8905 48.8711H204.51C205.52 48.8711 206.341 49.6911 206.341 50.7011C206.341 51.7111 205.52 52.5311 204.51 52.5311Z" fill="#616161"/>
<g style="mix-blend-mode:screen">
<path d="M140.831 51.5797H17.0809C16.5609 51.5797 16.1309 51.1597 16.1309 50.6297C16.1309 50.1097 16.5509 49.6797 17.0809 49.6797H140.831C141.351 49.6797 141.781 50.0997 141.781 50.6297C141.781 51.1497 141.361 51.5797 140.831 51.5797Z" fill="#212121"/>
</g>
<g style="mix-blend-mode:screen">
<path d="M203.56 51.5797H147.53C147.01 51.5797 146.58 51.1597 146.58 50.6297C146.58 50.1097 147 49.6797 147.53 49.6797H203.56C204.08 49.6797 204.51 50.0997 204.51 50.6297C204.51 51.1497 204.09 51.5797 203.56 51.5797Z" fill="#212121"/>
</g>
<path d="M204.59 73.9413H111.59C110.62 73.9413 109.84 73.1213 109.84 72.1113C109.84 71.1013 110.62 70.2812 111.59 70.2812H204.59C205.56 70.2812 206.34 71.1013 206.34 72.1113C206.34 73.1213 205.56 73.9413 204.59 73.9413Z" fill="#616161"/>
<g style="mix-blend-mode:screen">
<path d="M203.681 73.0485H111.711C111.211 73.0485 110.811 72.6284 110.811 72.0984C110.811 71.5784 111.221 71.1484 111.711 71.1484H203.681C204.181 71.1484 204.581 71.5684 204.581 72.0984C204.581 72.6184 204.171 73.0485 203.681 73.0485Z" fill="#212121"/>
</g>
<path d="M51.0508 73.9413H16.8807C15.8707 73.9413 15.0508 73.1213 15.0508 72.1113C15.0508 71.1013 15.8707 70.2812 16.8807 70.2812H51.0508C52.0608 70.2812 52.8807 71.1013 52.8807 72.1113C52.8807 73.1213 52.0608 73.9413 51.0508 73.9413Z" fill="#616161"/>
<g style="mix-blend-mode:screen">
<path d="M50.0205 73.0485H17.5105C16.9905 73.0485 16.5605 72.6284 16.5605 72.0984C16.5605 71.5784 16.9805 71.1484 17.5105 71.1484H50.0205C50.5405 71.1484 50.9706 71.5684 50.9706 72.0984C50.9706 72.6184 50.5505 73.0485 50.0205 73.0485Z" fill="#212121"/>
</g>
<path d="M204.51 17.9803H16.8905C15.8805 17.9803 15.0605 17.1603 15.0605 16.1503C15.0605 15.1403 15.8805 14.3203 16.8905 14.3203H204.51C205.52 14.3203 206.341 15.1403 206.341 16.1503C206.341 17.1603 205.52 17.9803 204.51 17.9803Z" fill="#616161"/>
<g style="mix-blend-mode:screen">
<path d="M140.831 17.0914H17.0809C16.5609 17.0914 16.1309 16.6714 16.1309 16.1414C16.1309 15.6214 16.5509 15.1914 17.0809 15.1914H140.831C141.351 15.1914 141.781 15.6114 141.781 16.1414C141.781 16.6614 141.361 17.0914 140.831 17.0914Z" fill="#212121"/>
</g>
<g style="mix-blend-mode:screen">
<path d="M203.56 17.0914H147.53C147.01 17.0914 146.58 16.6714 146.58 16.1414C146.58 15.6214 147 15.1914 147.53 15.1914H203.56C204.08 15.1914 204.51 15.6114 204.51 16.1414C204.51 16.6614 204.09 17.0914 203.56 17.0914Z" fill="#212121"/>
</g>
<g style="mix-blend-mode:screen">
<path d="M248.351 10.6383H35.9813C34.9013 10.6383 34.0312 9.76829 34.0312 8.68829C34.0312 7.60829 34.9013 6.73828 35.9813 6.73828H248.351C249.431 6.73828 250.301 7.60829 250.301 8.68829C250.301 9.76829 249.431 10.6383 248.351 10.6383Z" fill="#4D4D4D"/>
</g>
<g style="mix-blend-mode:screen">
<path d="M204.82 59.1885H16.52C15.68 59.1885 15 58.5085 15 57.6685C15 56.8285 15.68 56.1484 16.52 56.1484H204.82C205.66 56.1484 206.34 56.8285 206.34 57.6685C206.34 58.5085 205.66 59.1885 204.82 59.1885Z" fill="#4D4D4D"/>
</g>
<g style="mix-blend-mode:screen">
<path d="M88.0601 4.60001H71.38C70.39 4.60001 69.5801 3.79002 69.5801 2.80002C69.5801 1.81002 70.39 1 71.38 1H88.0601C89.0501 1 89.8601 1.81002 89.8601 2.80002C89.8601 3.79002 89.0501 4.60001 88.0601 4.60001Z" fill="#4D4D4D"/>
</g>
<g style="mix-blend-mode:screen">
<path d="M186.181 4.60001H169.501C168.511 4.60001 167.701 3.79002 167.701 2.80002C167.701 1.81002 168.511 1 169.501 1H186.181C187.171 1 187.981 1.81002 187.981 2.80002C187.981 3.79002 187.171 4.60001 186.181 4.60001Z" fill="#4D4D4D"/>
</g>
<g style="mix-blend-mode:screen">
<path d="M18.1207 37.5908C17.4407 37.5908 16.8906 37.0408 16.8906 36.3608V23.0308C16.8906 22.3508 17.4407 21.8008 18.1207 21.8008C18.8007 21.8008 19.3507 22.3508 19.3507 23.0308V36.3608C19.3507 37.0408 18.8007 37.5908 18.1207 37.5908Z" fill="#3D3D3D"/>
</g>
<g style="mix-blend-mode:screen">
<path d="M18.1207 37.5908C17.4407 37.5908 16.8906 37.0408 16.8906 36.3608V27.7808C16.8906 27.1008 17.4407 26.5508 18.1207 26.5508C18.8007 26.5508 19.3507 27.1008 19.3507 27.7808V36.3608C19.3507 37.0408 18.8007 37.5908 18.1207 37.5908Z" fill="#3D3D3D"/>
</g>
<g style="mix-blend-mode:screen">
<path d="M18.1207 37.5895C17.4407 37.5895 16.8906 37.0396 16.8906 36.3596V34.4995C16.8906 33.8195 17.4407 33.2695 18.1207 33.2695C18.8007 33.2695 19.3507 33.8195 19.3507 34.4995V36.3596C19.3507 37.0396 18.8007 37.5895 18.1207 37.5895Z" fill="#3D3D3D"/>
</g>
<g style="mix-blend-mode:screen">
<path d="M18.1207 45.0427C17.4407 45.0427 16.8906 44.4927 16.8906 43.8127V41.9527C16.8906 41.2727 17.4407 40.7227 18.1207 40.7227C18.8007 40.7227 19.3507 41.2727 19.3507 41.9527V43.8127C19.3507 44.4927 18.8007 45.0427 18.1207 45.0427Z" fill="#8F8F8F"/>
</g>
<g style="mix-blend-mode:screen">
<path d="M50.9702 37.5908C50.2902 37.5908 49.7402 37.0408 49.7402 36.3608V23.0308C49.7402 22.3508 50.2902 21.8008 50.9702 21.8008C51.6502 21.8008 52.2002 22.3508 52.2002 23.0308V36.3608C52.2002 37.0408 51.6502 37.5908 50.9702 37.5908Z" fill="#3D3D3D"/>
</g>
<g style="mix-blend-mode:screen">
<path d="M50.9702 37.5908C50.2902 37.5908 49.7402 37.0408 49.7402 36.3608V27.7808C49.7402 27.1008 50.2902 26.5508 50.9702 26.5508C51.6502 26.5508 52.2002 27.1008 52.2002 27.7808V36.3608C52.2002 37.0408 51.6502 37.5908 50.9702 37.5908Z" fill="#3D3D3D"/>
</g>
<g style="mix-blend-mode:screen">
<path d="M50.9702 37.5895C50.2902 37.5895 49.7402 37.0396 49.7402 36.3596V34.4995C49.7402 33.8195 50.2902 33.2695 50.9702 33.2695C51.6502 33.2695 52.2002 33.8195 52.2002 34.4995V36.3596C52.2002 37.0396 51.6502 37.5895 50.9702 37.5895Z" fill="#3D3D3D"/>
</g>
<g style="mix-blend-mode:screen">
<path d="M50.9702 45.0427C50.2902 45.0427 49.7402 44.4927 49.7402 43.8127V41.9527C49.7402 41.2727 50.2902 40.7227 50.9702 40.7227C51.6502 40.7227 52.2002 41.2727 52.2002 41.9527V43.8127C52.2002 44.4927 51.6502 45.0427 50.9702 45.0427Z" fill="#8F8F8F"/>
</g>
<g style="mix-blend-mode:screen">
<path d="M84.3999 37.5908C83.7199 37.5908 83.1699 37.0408 83.1699 36.3608V23.0308C83.1699 22.3508 83.7199 21.8008 84.3999 21.8008C85.0799 21.8008 85.6299 22.3508 85.6299 23.0308V36.3608C85.6299 37.0408 85.0799 37.5908 84.3999 37.5908Z" fill="#3D3D3D"/>
</g>
<g style="mix-blend-mode:screen">
<path d="M84.3999 37.5908C83.7199 37.5908 83.1699 37.0408 83.1699 36.3608V27.7808C83.1699 27.1008 83.7199 26.5508 84.3999 26.5508C85.0799 26.5508 85.6299 27.1008 85.6299 27.7808V36.3608C85.6299 37.0408 85.0799 37.5908 84.3999 37.5908Z" fill="#3D3D3D"/>
</g>
<g style="mix-blend-mode:screen">
<path d="M84.3999 37.5895C83.7199 37.5895 83.1699 37.0396 83.1699 36.3596V34.4995C83.1699 33.8195 83.7199 33.2695 84.3999 33.2695C85.0799 33.2695 85.6299 33.8195 85.6299 34.4995V36.3596C85.6299 37.0396 85.0799 37.5895 84.3999 37.5895Z" fill="#3D3D3D"/>
</g>
<g style="mix-blend-mode:screen">
<path d="M84.3999 45.0427C83.7199 45.0427 83.1699 44.4927 83.1699 43.8127V41.9527C83.1699 41.2727 83.7199 40.7227 84.3999 40.7227C85.0799 40.7227 85.6299 41.2727 85.6299 41.9527V43.8127C85.6299 44.4927 85.0799 45.0427 84.3999 45.0427Z" fill="#8F8F8F"/>
</g>
<g style="mix-blend-mode:screen">
<path d="M117.761 37.5908C117.081 37.5908 116.531 37.0408 116.531 36.3608V23.0308C116.531 22.3508 117.081 21.8008 117.761 21.8008C118.441 21.8008 118.991 22.3508 118.991 23.0308V36.3608C118.991 37.0408 118.441 37.5908 117.761 37.5908Z" fill="#3D3D3D"/>
</g>
<g style="mix-blend-mode:screen">
<path d="M117.761 37.5908C117.081 37.5908 116.531 37.0408 116.531 36.3608V27.7808C116.531 27.1008 117.081 26.5508 117.761 26.5508C118.441 26.5508 118.991 27.1008 118.991 27.7808V36.3608C118.991 37.0408 118.441 37.5908 117.761 37.5908Z" fill="#3D3D3D"/>
</g>
<g style="mix-blend-mode:screen">
<path d="M117.761 37.5895C117.081 37.5895 116.531 37.0396 116.531 36.3596V34.4995C116.531 33.8195 117.081 33.2695 117.761 33.2695C118.441 33.2695 118.991 33.8195 118.991 34.4995V36.3596C118.991 37.0396 118.441 37.5895 117.761 37.5895Z" fill="#3D3D3D"/>
</g>
<g style="mix-blend-mode:screen">
<path d="M117.761 45.0427C117.081 45.0427 116.531 44.4927 116.531 43.8127V41.9527C116.531 41.2727 117.081 40.7227 117.761 40.7227C118.441 40.7227 118.991 41.2727 118.991 41.9527V43.8127C118.991 44.4927 118.441 45.0427 117.761 45.0427Z" fill="#8F8F8F"/>
</g>
<g style="mix-blend-mode:screen">
<path d="M150.49 37.5908C149.81 37.5908 149.26 37.0408 149.26 36.3608V23.0308C149.26 22.3508 149.81 21.8008 150.49 21.8008C151.17 21.8008 151.72 22.3508 151.72 23.0308V36.3608C151.72 37.0408 151.17 37.5908 150.49 37.5908Z" fill="#3D3D3D"/>
</g>
<g style="mix-blend-mode:screen">
<path d="M150.49 37.5908C149.81 37.5908 149.26 37.0408 149.26 36.3608V27.7808C149.26 27.1008 149.81 26.5508 150.49 26.5508C151.17 26.5508 151.72 27.1008 151.72 27.7808V36.3608C151.72 37.0408 151.17 37.5908 150.49 37.5908Z" fill="#3D3D3D"/>
</g>
<g style="mix-blend-mode:screen">
<path d="M150.49 37.5895C149.81 37.5895 149.26 37.0396 149.26 36.3596V34.4995C149.26 33.8195 149.81 33.2695 150.49 33.2695C151.17 33.2695 151.72 33.8195 151.72 34.4995V36.3596C151.72 37.0396 151.17 37.5895 150.49 37.5895Z" fill="#3D3D3D"/>
</g>
<g style="mix-blend-mode:screen">
<path d="M150.49 45.0427C149.81 45.0427 149.26 44.4927 149.26 43.8127V41.9527C149.26 41.2727 149.81 40.7227 150.49 40.7227C151.17 40.7227 151.72 41.2727 151.72 41.9527V43.8127C151.72 44.4927 151.17 45.0427 150.49 45.0427Z" fill="#8F8F8F"/>
</g>
<g style="mix-blend-mode:screen">
<path d="M183.5 37.5908C182.82 37.5908 182.27 37.0408 182.27 36.3608V23.0308C182.27 22.3508 182.82 21.8008 183.5 21.8008C184.18 21.8008 184.73 22.3508 184.73 23.0308V36.3608C184.73 37.0408 184.18 37.5908 183.5 37.5908Z" fill="#3D3D3D"/>
</g>
<g style="mix-blend-mode:screen">
<path d="M183.5 37.5908C182.82 37.5908 182.27 37.0408 182.27 36.3608V27.7808C182.27 27.1008 182.82 26.5508 183.5 26.5508C184.18 26.5508 184.73 27.1008 184.73 27.7808V36.3608C184.73 37.0408 184.18 37.5908 183.5 37.5908Z" fill="#3D3D3D"/>
</g>
<g style="mix-blend-mode:screen">
<path d="M183.5 37.5895C182.82 37.5895 182.27 37.0396 182.27 36.3596V34.4995C182.27 33.8195 182.82 33.2695 183.5 33.2695C184.18 33.2695 184.73 33.8195 184.73 34.4995V36.3596C184.73 37.0396 184.18 37.5895 183.5 37.5895Z" fill="#3D3D3D"/>
</g>
<g style="mix-blend-mode:screen">
<path d="M183.5 45.0427C182.82 45.0427 182.27 44.4927 182.27 43.8127V41.9527C182.27 41.2727 182.82 40.7227 183.5 40.7227C184.18 40.7227 184.73 41.2727 184.73 41.9527V43.8127C184.73 44.4927 184.18 45.0427 183.5 45.0427Z" fill="#8F8F8F"/>
</g>
<path d="M55.5406 87.1289H20.2207V88.5689H55.5406V87.1289Z" fill="#777777"/>
<path d="M109.431 87.7205C109.431 72.8105 97.3512 60.7305 82.4412 60.7305C67.5312 60.7305 55.4812 72.7805 55.4512 87.6605C55.4512 87.6605 55.4512 87.6705 55.4512 87.6805C55.4512 87.6905 55.4512 87.7005 55.4512 87.7205C55.4712 89.4305 56.8612 90.8105 58.5712 90.8105C60.2812 90.8105 61.6612 89.4305 61.6912 87.7205C61.6912 76.1805 71.0512 66.8204 82.5912 66.8204C94.1312 66.8204 103.461 76.1405 103.491 87.6605C103.491 87.7205 103.471 87.7704 103.471 87.8304C103.471 89.4804 104.801 90.8204 106.441 90.8204C108.081 90.8204 109.411 89.4804 109.411 87.8304C109.411 87.7904 109.411 87.7605 109.401 87.7305H109.411L109.431 87.7205Z" fill="#616161"/>
<g style="mix-blend-mode:screen">
<path d="M57.9599 87.9997C57.8899 87.9997 57.8099 87.9997 57.7399 87.9797C57.0099 87.8597 56.5198 87.1697 56.6498 86.4397C57.9998 78.4397 61.0898 73.3697 63.4398 70.5197C71.2498 61.0697 83.0398 62.0197 83.5498 62.0597C84.2798 62.1297 84.8198 62.7697 84.7598 63.5097C84.6898 64.2397 84.0398 64.7997 83.3098 64.7197C83.1698 64.7097 72.3798 63.8897 65.4998 72.2197C63.3498 74.8097 60.5398 79.4697 59.2798 86.8797C59.1698 87.5297 58.6099 87.9897 57.9699 87.9897L57.9599 87.9997Z" fill="#262626"/>
</g>
<g style="mix-blend-mode:screen">
<path d="M103.98 79.9405C103.43 79.9405 102.91 79.6005 102.72 79.0505C98.8896 68.2005 88.3895 66.0705 88.2795 66.0505C87.5595 65.9105 87.0796 65.2105 87.2196 64.4905C87.3596 63.7705 88.0695 63.2905 88.7795 63.4305C89.2695 63.5205 100.9 65.8805 105.23 78.1605C105.47 78.8505 105.11 79.6205 104.41 79.8605C104.26 79.9105 104.11 79.9405 103.97 79.9405H103.98Z" fill="#262626"/>
</g>
<path d="M22.561 11.7081H29.501C30.571 11.7081 31.441 10.8381 31.441 9.7681C31.441 8.6981 30.571 7.82812 29.501 7.82812H22.561C21.491 7.82812 20.6211 8.6981 20.6211 9.7681C20.6211 10.8381 21.491 11.7081 22.561 11.7081Z" fill="#CA6A61"/>
<g style="mix-blend-mode:screen">
<path d="M29.4713 10.6366H22.6913C22.0913 10.6366 21.6113 10.1565 21.6113 9.55655C21.6113 8.95655 22.0913 8.47656 22.6913 8.47656H29.4713C30.0713 8.47656 30.5513 8.95655 30.5513 9.55655C30.5513 10.1565 30.0713 10.6366 29.4713 10.6366Z" fill="#4D4D4D"/>
</g>
<path d="M293.981 59.8292H300.921C301.991 59.8292 302.861 58.9592 302.861 57.8892C302.861 56.8192 301.991 55.9492 300.921 55.9492H293.981C292.911 55.9492 292.041 56.8192 292.041 57.8892C292.041 58.9592 292.911 59.8292 293.981 59.8292Z" fill="#CA6A61"/>
<g style="mix-blend-mode:screen">
<path d="M300.901 58.7576H294.121C293.521 58.7576 293.041 58.2777 293.041 57.6777C293.041 57.0777 293.521 56.5977 294.121 56.5977H300.901C301.501 56.5977 301.981 57.0777 301.981 57.6777C301.981 58.2777 301.501 58.7576 300.901 58.7576Z" fill="#4D4D4D"/>
</g>
<g style="mix-blend-mode:screen">
<path d="M313.57 75.3686C312.89 75.3686 312.34 74.8185 312.34 74.1385V69.5386C312.34 68.8586 312.89 68.3086 313.57 68.3086C314.25 68.3086 314.8 68.8586 314.8 69.5386V74.1385C314.8 74.8185 314.25 75.3686 313.57 75.3686Z" fill="#4D4D4D"/>
</g>
<g style="mix-blend-mode:multiply">
<path d="M241.801 14.3086H211.341C210.214 14.3086 209.301 15.2219 209.301 16.3486V85.8286C209.301 86.9552 210.214 87.8686 211.341 87.8686H241.801C242.927 87.8686 243.841 86.9552 243.841 85.8286V16.3486C243.841 15.2219 242.927 14.3086 241.801 14.3086Z" fill="#EBEBEB"/>
</g>
<path d="M241.811 88.2292H211.351C210.031 88.2292 208.951 87.1492 208.951 85.8292V16.3492C208.951 15.0292 210.031 13.9492 211.351 13.9492H241.811C243.131 13.9492 244.211 15.0292 244.211 16.3492V85.8292C244.211 87.1492 243.131 88.2292 241.811 88.2292ZM211.351 14.6692C210.421 14.6692 209.671 15.4192 209.671 16.3492V85.8292C209.671 86.7592 210.421 87.5092 211.351 87.5092H241.811C242.731 87.5092 243.491 86.7592 243.491 85.8292V16.3492C243.491 15.4192 242.741 14.6692 241.811 14.6692H211.351Z" fill="#606060"/>
<path d="M224.281 17.8203H213.341C212.628 17.8203 212.051 18.3979 212.051 19.1103V48.0703C212.051 48.7828 212.628 49.3603 213.341 49.3603H224.281C224.993 49.3603 225.571 48.7828 225.571 48.0703V19.1103C225.571 18.3979 224.993 17.8203 224.281 17.8203Z" fill="#98DDDF"/>
<path d="M224.281 49.7209H213.341C212.431 49.7209 211.691 48.981 211.691 48.071V19.111C211.691 18.201 212.431 17.4609 213.341 17.4609H224.281C225.191 17.4609 225.931 18.201 225.931 19.111V48.071C225.931 48.981 225.191 49.7209 224.281 49.7209ZM213.341 18.1809C212.831 18.1809 212.411 18.601 212.411 19.111V48.071C212.411 48.581 212.831 49.0009 213.341 49.0009H224.281C224.791 49.0009 225.211 48.581 225.211 48.071V19.111C225.211 18.601 224.791 18.1809 224.281 18.1809H213.341Z" fill="#606060"/>
<path d="M239.81 17.8203H228.87C228.158 17.8203 227.58 18.3979 227.58 19.1103V48.0703C227.58 48.7828 228.158 49.3603 228.87 49.3603H239.81C240.523 49.3603 241.1 48.7828 241.1 48.0703V19.1103C241.1 18.3979 240.523 17.8203 239.81 17.8203Z" fill="#98DDDF"/>
<path d="M239.811 49.7209H228.871C227.961 49.7209 227.221 48.981 227.221 48.071V19.111C227.221 18.201 227.961 17.4609 228.871 17.4609H239.811C240.721 17.4609 241.461 18.201 241.461 19.111V48.071C241.461 48.981 240.721 49.7209 239.811 49.7209ZM228.871 18.1809C228.361 18.1809 227.941 18.601 227.941 19.111V48.071C227.941 48.581 228.361 49.0009 228.871 49.0009H239.811C240.321 49.0009 240.741 48.581 240.741 48.071V19.111C240.741 18.601 240.321 18.1809 239.811 18.1809H228.871Z" fill="#606060"/>
<path d="M224.281 52.1992H213.341C212.628 52.1992 212.051 52.7767 212.051 53.4892V82.4492C212.051 83.1616 212.628 83.7392 213.341 83.7392H224.281C224.993 83.7392 225.571 83.1616 225.571 82.4492V53.4892C225.571 52.7767 224.993 52.1992 224.281 52.1992Z" fill="#98DDDF"/>
<path d="M224.281 84.0881H213.341C212.431 84.0881 211.691 83.3481 211.691 82.4381V53.4781C211.691 52.5681 212.431 51.8281 213.341 51.8281H224.281C225.191 51.8281 225.931 52.5681 225.931 53.4781V82.4381C225.931 83.3481 225.191 84.0881 224.281 84.0881ZM213.341 52.5481C212.831 52.5481 212.411 52.9681 212.411 53.4781V82.4381C212.411 82.9481 212.831 83.3681 213.341 83.3681H224.281C224.791 83.3681 225.211 82.9481 225.211 82.4381V53.4781C225.211 52.9681 224.791 52.5481 224.281 52.5481H213.341Z" fill="#606060"/>
<path d="M239.81 52.1992H228.87C228.158 52.1992 227.58 52.7767 227.58 53.4892V82.4492C227.58 83.1616 228.158 83.7392 228.87 83.7392H239.81C240.523 83.7392 241.1 83.1616 241.1 82.4492V53.4892C241.1 52.7767 240.523 52.1992 239.81 52.1992Z" fill="#98DDDF"/>
<path d="M239.811 84.0881H228.871C227.961 84.0881 227.221 83.3481 227.221 82.4381V53.4781C227.221 52.5681 227.961 51.8281 228.871 51.8281H239.811C240.721 51.8281 241.461 52.5681 241.461 53.4781V82.4381C241.461 83.3481 240.721 84.0881 239.811 84.0881ZM228.871 52.5481C228.361 52.5481 227.941 52.9681 227.941 53.4781V82.4381C227.941 82.9481 228.361 83.3681 228.871 83.3681H239.811C240.321 83.3681 240.741 82.9481 240.741 82.4381V53.4781C240.741 52.9681 240.321 52.5481 239.811 52.5481H228.871Z" fill="#606060"/>
<g style="mix-blend-mode:screen">
<path d="M214.562 36.2392C213.882 36.2392 213.332 35.6892 213.332 35.0092V21.6792C213.332 20.9992 213.882 20.4492 214.562 20.4492C215.242 20.4492 215.792 20.9992 215.792 21.6792V35.0092C215.792 35.6892 215.242 36.2392 214.562 36.2392Z" fill="#3D3D3D"/>
</g>
<g style="mix-blend-mode:screen">
<path d="M214.562 36.2392C213.882 36.2392 213.332 35.6892 213.332 35.0092V26.4292C213.332 25.7492 213.882 25.1992 214.562 25.1992C215.242 25.1992 215.792 25.7492 215.792 26.4292V35.0092C215.792 35.6892 215.242 36.2392 214.562 36.2392Z" fill="#3D3D3D"/>
</g>
<g style="mix-blend-mode:screen">
<path d="M214.562 36.2379C213.882 36.2379 213.332 35.688 213.332 35.008V33.1479C213.332 32.4679 213.882 31.918 214.562 31.918C215.242 31.918 215.792 32.4679 215.792 33.1479V35.008C215.792 35.688 215.242 36.2379 214.562 36.2379Z" fill="#3D3D3D"/>
</g>
<g style="mix-blend-mode:screen">
<path d="M214.562 43.6911C213.882 43.6911 213.332 43.1411 213.332 42.4611V40.6011C213.332 39.9211 213.882 39.3711 214.562 39.3711C215.242 39.3711 215.792 39.9211 215.792 40.6011V42.4611C215.792 43.1411 215.242 43.6911 214.562 43.6911Z" fill="#8F8F8F"/>
</g>
<g style="mix-blend-mode:screen">
<path d="M230.582 36.2392C229.902 36.2392 229.352 35.6892 229.352 35.0092V21.6792C229.352 20.9992 229.902 20.4492 230.582 20.4492C231.262 20.4492 231.812 20.9992 231.812 21.6792V35.0092C231.812 35.6892 231.262 36.2392 230.582 36.2392Z" fill="#3D3D3D"/>
</g>
<g style="mix-blend-mode:screen">
<path d="M230.582 36.2392C229.902 36.2392 229.352 35.6892 229.352 35.0092V26.4292C229.352 25.7492 229.902 25.1992 230.582 25.1992C231.262 25.1992 231.812 25.7492 231.812 26.4292V35.0092C231.812 35.6892 231.262 36.2392 230.582 36.2392Z" fill="#3D3D3D"/>
</g>
<g style="mix-blend-mode:screen">
<path d="M230.582 36.2379C229.902 36.2379 229.352 35.688 229.352 35.008V33.1479C229.352 32.4679 229.902 31.918 230.582 31.918C231.262 31.918 231.812 32.4679 231.812 33.1479V35.008C231.812 35.688 231.262 36.2379 230.582 36.2379Z" fill="#3D3D3D"/>
</g>
<g style="mix-blend-mode:screen">
<path d="M230.582 43.6911C229.902 43.6911 229.352 43.1411 229.352 42.4611V40.6011C229.352 39.9211 229.902 39.3711 230.582 39.3711C231.262 39.3711 231.812 39.9211 231.812 40.6011V42.4611C231.812 43.1411 231.262 43.6911 230.582 43.6911Z" fill="#8F8F8F"/>
</g>
<g style="mix-blend-mode:screen">
<path d="M214.562 70.2392C213.882 70.2392 213.332 69.6892 213.332 69.0092V55.6792C213.332 54.9992 213.882 54.4492 214.562 54.4492C215.242 54.4492 215.792 54.9992 215.792 55.6792V69.0092C215.792 69.6892 215.242 70.2392 214.562 70.2392Z" fill="#3D3D3D"/>
</g>
<g style="mix-blend-mode:screen">
<path d="M214.562 70.2393C213.882 70.2393 213.332 69.6892 213.332 69.0092V60.4293C213.332 59.7493 213.882 59.1992 214.562 59.1992C215.242 59.1992 215.792 59.7493 215.792 60.4293V69.0092C215.792 69.6892 215.242 70.2393 214.562 70.2393Z" fill="#3D3D3D"/>
</g>
<g style="mix-blend-mode:screen">
<path d="M214.562 70.238C213.882 70.238 213.332 69.6879 213.332 69.0079V67.1479C213.332 66.4679 213.882 65.918 214.562 65.918C215.242 65.918 215.792 66.4679 215.792 67.1479V69.0079C215.792 69.6879 215.242 70.238 214.562 70.238Z" fill="#3D3D3D"/>
</g>
<g style="mix-blend-mode:screen">
<path d="M214.562 77.6794C213.882 77.6794 213.332 77.1293 213.332 76.4493V74.5894C213.332 73.9094 213.882 73.3594 214.562 73.3594C215.242 73.3594 215.792 73.9094 215.792 74.5894V76.4493C215.792 77.1293 215.242 77.6794 214.562 77.6794Z" fill="#8F8F8F"/>
</g>
<g style="mix-blend-mode:screen">
<path d="M230.582 70.2392C229.902 70.2392 229.352 69.6892 229.352 69.0092V55.6792C229.352 54.9992 229.902 54.4492 230.582 54.4492C231.262 54.4492 231.812 54.9992 231.812 55.6792V69.0092C231.812 69.6892 231.262 70.2392 230.582 70.2392Z" fill="#3D3D3D"/>
</g>
<g style="mix-blend-mode:screen">
<path d="M230.582 70.2393C229.902 70.2393 229.352 69.6892 229.352 69.0092V60.4293C229.352 59.7493 229.902 59.1992 230.582 59.1992C231.262 59.1992 231.812 59.7493 231.812 60.4293V69.0092C231.812 69.6892 231.262 70.2393 230.582 70.2393Z" fill="#3D3D3D"/>
</g>
<g style="mix-blend-mode:screen">
<path d="M230.582 70.238C229.902 70.238 229.352 69.6879 229.352 69.0079V67.1479C229.352 66.4679 229.902 65.918 230.582 65.918C231.262 65.918 231.812 66.4679 231.812 67.1479V69.0079C231.812 69.6879 231.262 70.238 230.582 70.238Z" fill="#3D3D3D"/>
</g>
<g style="mix-blend-mode:screen">
<path d="M230.582 77.6794C229.902 77.6794 229.352 77.1293 229.352 76.4493V74.5894C229.352 73.9094 229.902 73.3594 230.582 73.3594C231.262 73.3594 231.812 73.9094 231.812 74.5894V76.4493C231.812 77.1293 231.262 77.6794 230.582 77.6794Z" fill="#8F8F8F"/>
</g>
<g style="mix-blend-mode:multiply">
<path d="M210.671 90.0508H242.491C243.241 90.0508 243.851 90.6608 243.851 91.4108V93.6108C243.851 94.3608 243.241 94.9708 242.491 94.9708H210.671C209.921 94.9708 209.311 94.3608 209.311 93.6108V91.4108C209.311 90.6608 209.921 90.0508 210.671 90.0508Z" fill="#E8E8E8"/>
</g>
<path d="M268.651 50.1397H267.211V46.4797C267.211 45.0497 268.371 43.8897 269.801 43.8897H275.371C276.001 43.8897 276.521 43.3697 276.521 42.7397V31.9297H277.961V42.7397C277.961 44.1697 276.801 45.3297 275.371 45.3297H269.801C269.171 45.3297 268.651 45.8497 268.651 46.4797V50.1397Z" fill="#616161"/>
<path d="M277.272 22.5508H274.622C273.688 22.5508 272.932 23.3074 272.932 24.2408V37.6808C272.932 38.6141 273.688 39.3708 274.622 39.3708H277.272C278.205 39.3708 278.962 38.6141 278.962 37.6808V24.2408C278.962 23.3074 278.205 22.5508 277.272 22.5508Z" fill="#616161"/>
<g style="mix-blend-mode:screen">
<path d="M274.982 37.4708C274.442 37.4708 274.012 37.0408 274.012 36.5008V25.2708C274.012 24.7308 274.442 24.3008 274.982 24.3008C275.522 24.3008 275.952 24.7308 275.952 25.2708V36.5008C275.952 37.0408 275.522 37.4708 274.982 37.4708Z" fill="#0D0D0D"/>
</g>
<path d="M269.181 48.0898H266.671C266.229 48.0898 265.871 48.448 265.871 48.8899V51.3799C265.871 51.8217 266.229 52.1798 266.671 52.1798H269.181C269.623 52.1798 269.981 51.8217 269.981 51.3799V48.8899C269.981 48.448 269.623 48.0898 269.181 48.0898Z" fill="#616161"/>
<g style="mix-blend-mode:screen">
<path d="M267.801 48.7109H266.581C266.431 48.7109 266.311 48.8318 266.311 48.981V51.2109C266.311 51.3601 266.431 51.481 266.581 51.481H267.801C267.95 51.481 268.071 51.3601 268.071 51.2109V48.981C268.071 48.8318 267.95 48.7109 267.801 48.7109Z" fill="#0D0D0D"/>
</g>
<g style="mix-blend-mode:screen">
<path d="M288.361 59.1885H255.051C254.211 59.1885 253.531 58.5085 253.531 57.6685C253.531 56.8285 254.211 56.1484 255.051 56.1484H288.361C289.201 56.1484 289.881 56.8285 289.881 57.6685C289.881 58.5085 289.201 59.1885 288.361 59.1885Z" fill="#4D4D4D"/>
</g>
<mask id="mask0_3920_47314" style="mask-type:luminance" maskUnits="userSpaceOnUse" x="6" y="3" width="307" height="95">
<path d="M303.541 49.9683L262.501 43.6483C260.581 43.3483 259.121 41.7683 258.981 39.8383L258.061 18.1483C257.231 10.0983 250.451 3.98828 242.361 3.98828H30.4711C17.4411 3.98828 6.87109 14.5583 6.87109 27.5883V87.8783H61.2311C61.2411 76.1683 70.731 66.6883 82.441 66.6883C94.151 66.6883 103.641 76.1783 103.651 87.8783H196.261L204.431 96.0483C205.311 96.9283 206.501 97.4183 207.751 97.4183H250.011C252.601 97.4183 254.701 95.3183 254.701 92.7283V87.8683H260.491C260.491 76.1483 269.991 66.6583 281.701 66.6583C293.411 66.6583 302.911 76.1583 302.911 87.8683H312.841V60.7783C312.841 55.3583 308.871 50.7583 303.511 49.9683H303.541Z" fill="white"/>
</mask>
<g mask="url(#mask0_3920_47314)">
<path d="M269.811 16.5H249.661C247.938 16.5 246.541 17.8969 246.541 19.62V39.77C246.541 41.4931 247.938 42.89 249.661 42.89H269.811C271.534 42.89 272.931 41.4931 272.931 39.77V19.62C272.931 17.8969 271.534 16.5 269.811 16.5Z" fill="#98DDDF"/>
<path d="M269.811 43.2484H249.671C247.751 43.2484 246.191 41.6884 246.191 39.7684V19.6284C246.191 17.7084 247.751 16.1484 249.671 16.1484H269.811C271.731 16.1484 273.291 17.7084 273.291 19.6284V39.7684C273.291 41.6884 271.731 43.2484 269.811 43.2484ZM249.671 16.8585C248.151 16.8585 246.911 18.0984 246.911 19.6184V39.7585C246.911 41.2785 248.151 42.5184 249.671 42.5184H269.811C271.331 42.5184 272.571 41.2785 272.571 39.7585V19.6184C272.571 18.0984 271.331 16.8585 269.811 16.8585H249.671Z" fill="#606060"/>
<g style="mix-blend-mode:screen">
<path d="M249.541 33.8681C248.861 33.8681 248.311 33.3181 248.311 32.6381V19.3081C248.311 18.6281 248.861 18.0781 249.541 18.0781C250.221 18.0781 250.771 18.6281 250.771 19.3081V32.6381C250.771 33.3181 250.221 33.8681 249.541 33.8681Z" fill="#3D3D3D"/>
</g>
<g style="mix-blend-mode:screen">
<path d="M249.541 33.8681C248.861 33.8681 248.311 33.3181 248.311 32.6381V24.0581C248.311 23.3781 248.861 22.8281 249.541 22.8281C250.221 22.8281 250.771 23.3781 250.771 24.0581V32.6381C250.771 33.3181 250.221 33.8681 249.541 33.8681Z" fill="#3D3D3D"/>
</g>
<g style="mix-blend-mode:screen">
<path d="M249.541 33.8669C248.861 33.8669 248.311 33.3169 248.311 32.6369V30.7769C248.311 30.0969 248.861 29.5469 249.541 29.5469C250.221 29.5469 250.771 30.0969 250.771 30.7769V32.6369C250.771 33.3169 250.221 33.8669 249.541 33.8669Z" fill="#3D3D3D"/>
</g>
<g style="mix-blend-mode:screen">
<path d="M249.541 41.32C248.861 41.32 248.311 40.77 248.311 40.09V38.23C248.311 37.55 248.861 37 249.541 37C250.221 37 250.771 37.55 250.771 38.23V40.09C250.771 40.77 250.221 41.32 249.541 41.32Z" fill="#8F8F8F"/>
</g>
</g>
</svg>
