<svg width="250" height="93" viewBox="0 0 250 93" fill="none" xmlns="http://www.w3.org/2000/svg">
<g id="Car">
<g id="Group">
<g id="Group_2" style="mix-blend-mode:multiply">
<path id="Vector" d="M124.63 92.9514C193.461 92.9514 249.26 86.961 249.26 79.5714C249.26 72.1818 193.461 66.1914 124.63 66.1914C55.7988 66.1914 0 72.1818 0 79.5714C0 86.961 55.7988 92.9514 124.63 92.9514Z" fill="#757575"/>
</g>
<g id="Group_3">
<path id="Vector_2" d="M207 52.6683C206.75 46.9383 205 39.9083 204.18 37.1183C203.36 34.3283 202.32 30.6883 200.33 28.6283C199.26 27.5283 198.13 26.8283 197.21 26.3683C196.03 23.0083 193.55 17.3783 188.38 12.3383C187.81 11.7883 185.03 9.10829 180.96 6.87829C173.65 2.84829 167.6 3.20831 146.78 2.76831C136.48 2.71831 125.19 2.80829 116.53 3.90829C115.29 4.06829 113.02 4.3783 110.2 5.2883C109.42 5.5383 107.86 6.0683 105.32 7.2583C101.9 8.8683 99.1898 10.5083 97.4798 11.6183C93.2098 14.3783 84.1898 20.8783 72.6898 29.9383C72.6898 29.9383 57.8998 31.8983 52.7398 33.5583C48.9098 34.7883 39.8098 38.2283 35.6698 44.6183C34.1198 47.0083 33.2498 49.5883 33.2498 49.5883C32.8798 50.6683 32.3198 52.5983 32.0098 57.4283C31.8598 59.8283 31.7598 63.0683 31.9698 66.9383C31.9698 66.9483 31.9698 66.9583 31.9598 66.9583C31.8298 66.9983 30.7698 67.3183 30.6998 68.4183C30.6198 69.5883 30.6798 72.5183 30.6798 72.5183C30.6798 72.5183 30.7998 73.1083 31.0098 73.1783C31.2198 73.2483 36.8498 74.1583 38.0498 74.1783C38.9398 74.1983 44.5098 74.5483 47.3698 74.7283C46.3498 72.4183 45.7798 69.8483 45.7898 67.1383C45.8298 57.2083 53.6298 49.1983 63.1898 49.2383C72.7598 49.2783 80.4798 57.3683 80.4298 67.2983C80.4198 70.0483 79.8098 71.6683 78.7398 73.9883L163.63 74.3683C163.63 74.3683 164.7 74.3183 166.47 74.2383C165.46 71.9383 164.89 70.3683 164.9 67.6783C164.94 57.7483 172.74 49.7383 182.3 49.7783C191.87 49.8183 199.59 57.9083 199.54 67.8383C199.54 69.2283 199.37 70.5883 199.07 71.8883C204.89 70.0883 206.19 69.7283 206.69 65.3083C207.2 60.6983 207.11 55.0183 207.01 52.6783L207 52.6683Z" fill="#F57263"/>
<g id="Group_4">
<path id="Vector_3" d="M56.1202 32.9688C49.9502 33.6488 45.4702 35.6888 42.8302 37.1588C42.8302 37.1588 36.4302 40.7388 34.2502 45.8288C34.0302 46.3488 33.4302 47.7388 33.9902 48.4188C34.2802 48.7688 34.7702 48.7988 35.5402 48.7788C37.8902 48.7088 39.5102 48.6588 41.6202 47.6088C42.0602 47.3888 42.7102 47.0388 43.6302 46.3688C46.9402 43.9588 47.0702 42.3488 49.1202 40.6788C52.7102 37.7688 56.0102 39.7188 57.8502 36.7288C58.0302 36.4288 59.0102 34.8388 58.3602 33.7888C57.7802 32.8588 56.3102 32.9488 56.1102 32.9688H56.1202Z" fill="#C1C1C1"/>
<path id="Vector_4" d="M44.0696 41.7398C44.0096 40.0698 43.2596 38.5898 42.1196 37.5898C40.4296 38.6598 36.1396 41.6698 34.3496 45.6398C35.4096 46.9398 36.9997 47.7398 38.7697 47.6698C41.8097 47.5498 44.1897 44.8998 44.0797 41.7398H44.0696Z" fill="#F7F6D7"/>
<path id="Vector_5" d="M47.4994 39.8181C50.3294 39.7081 52.5394 37.2381 52.4394 34.2981C52.4394 34.0481 52.3994 33.8181 52.3594 33.5781C48.1294 34.4981 44.9294 35.9881 42.8594 37.1381C43.7794 38.7981 45.5294 39.8881 47.4994 39.8181Z" fill="#D6D6D6"/>
<g id="Group_5" style="mix-blend-mode:screen">
<path id="Vector_6" d="M34.9894 47.7869C34.8894 47.7869 34.7794 47.7569 34.6794 47.7069C34.3694 47.5369 34.2594 47.1469 34.4294 46.8469C34.5594 46.6169 37.6194 41.1269 42.7894 37.6469C47.9694 34.1569 55.4194 33.4169 55.7294 33.3869C56.0694 33.3469 56.3894 33.6069 56.4194 33.9569C56.4494 34.3069 56.1994 34.6169 55.8494 34.6469C55.7794 34.6469 48.4094 35.3969 43.4994 38.6969C38.5894 42.0069 35.5694 47.4069 35.5394 47.4569C35.4194 47.6669 35.2094 47.7869 34.9794 47.7869H34.9894Z" fill="#545454"/>
</g>
</g>
<path id="Vector_7" d="M206.81 75.4512L32.41 74.6711C30.33 74.6711 28.66 72.9111 28.67 70.7511C28.67 68.6011 30.37 66.8611 32.45 66.8711L206.85 67.6512C208.93 67.6512 210.6 69.4111 210.59 71.5711C210.59 73.7211 208.89 75.4612 206.81 75.4512Z" fill="#696969"/>
<g id="Group_6">
<path id="Vector_8" d="M143.61 8.23167C143.61 7.33167 142.9 6.59166 142.03 6.60166C130.3 6.73166 125.84 7.25166 123.37 7.60166C119.95 8.08166 117.77 8.58167 115.5 9.36167C112.44 10.4117 110.3 11.6117 108.48 12.6417C101.53 16.5817 96.6297 19.6717 92.5197 24.0217C91.0697 25.5517 89.6797 27.2517 90.1497 28.7217C90.4997 29.8017 91.7097 30.3317 92.5197 30.5917C92.6697 30.6417 92.8397 30.6617 92.9997 30.6517C109.34 30.1817 125.68 29.7117 142.02 29.2517C142.86 29.2317 143.54 28.5117 143.54 27.6417L143.63 8.24168L143.61 8.23167Z" fill="#98DDDF"/>
<g id="Group_7" style="mix-blend-mode:screen">
<path id="Vector_9" d="M95.3703 28.6903C94.4803 28.4103 94.0803 28.0403 94.0103 27.8103C93.9003 27.4703 94.1503 26.6603 95.9503 24.7603C99.6303 20.8703 104.03 18.0403 110.86 14.1603C112.46 13.2503 114.45 12.1203 117.33 11.1303C119.45 10.4003 121.48 9.95031 124.59 9.51031C126.32 9.27031 130.37 8.70031 142.21 8.57031C142.29 8.57031 142.35 8.64033 142.35 8.71033L142.27 27.2103C142.27 27.2903 142.21 27.3503 142.14 27.3503L95.3903 28.6903H95.3703Z" fill="#575757"/>
</g>
<g id="Group_8">
<g id="Group_9" style="mix-blend-mode:screen">
<path id="Vector_10" d="M140.539 21.0431C140.069 21.0431 139.689 20.6431 139.689 20.1531L139.729 10.5831C139.729 10.0931 140.119 9.70312 140.589 9.70312C141.059 9.70312 141.439 10.1031 141.439 10.5931L141.399 20.1631C141.399 20.6531 141.009 21.0431 140.539 21.0431Z" fill="#3D3D3D"/>
</g>
<g id="Group_10" style="mix-blend-mode:screen">
<path id="Vector_11" d="M140.539 21.0433C140.069 21.0433 139.689 20.6433 139.689 20.1533L139.719 13.9933C139.719 13.5033 140.109 13.1133 140.579 13.1133C141.049 13.1133 141.429 13.5133 141.429 14.0033L141.399 20.1633C141.399 20.6533 141.009 21.0433 140.539 21.0433Z" fill="#3D3D3D"/>
</g>
<g id="Group_11" style="mix-blend-mode:screen">
<path id="Vector_12" d="M140.539 21.0436C140.069 21.0436 139.689 20.6436 139.689 20.1536V18.8136C139.689 18.3236 140.079 17.9336 140.549 17.9336C141.019 17.9336 141.399 18.3336 141.399 18.8236V20.1636C141.399 20.6536 141.009 21.0436 140.539 21.0436Z" fill="#3D3D3D"/>
</g>
<g id="Group_12" style="mix-blend-mode:screen">
<path id="Vector_13" d="M140.51 26.3834C140.04 26.3834 139.66 25.9834 139.66 25.4934V24.1534C139.66 23.6634 140.05 23.2734 140.52 23.2734C140.99 23.2734 141.37 23.6734 141.37 24.1634V25.5034C141.37 25.9934 140.98 26.3834 140.51 26.3834Z" fill="#8F8F8F"/>
</g>
</g>
</g>
<g id="Group_13">
<path id="Vector_14" d="M188.851 20.8181C187.781 18.9581 186.421 16.9981 184.681 15.1381C184.221 14.6481 181.951 12.2481 178.651 10.2481C172.701 6.63811 167.791 6.96812 150.851 6.57812C150.471 6.57812 150.101 6.57812 149.731 6.57812C148.851 6.57812 148.141 7.38812 148.141 8.38812L148.061 27.2181C148.061 28.2481 148.801 29.0681 149.691 29.0381C161.671 28.6581 173.651 28.2681 185.621 27.8881C188.751 27.7881 190.561 23.8081 188.851 20.8181Z" fill="#98DDDF"/>
<g id="Group_14" style="mix-blend-mode:screen">
<path id="Vector_15" d="M149.64 27.737C149.47 27.737 149.34 27.577 149.34 27.387L149.42 8.55701C149.42 8.36701 149.56 8.20703 149.72 8.20703H150.84C152.66 8.25703 154.35 8.28702 155.92 8.31702C168.7 8.56702 173 8.65703 178.03 11.707C180.94 13.467 183.02 15.557 183.78 16.367C185.28 17.967 186.62 19.797 187.76 21.777C188.31 22.737 188.36 23.907 187.9 24.917C187.44 25.917 186.57 26.537 185.58 26.577L149.64 27.727V27.737Z" fill="#575757"/>
</g>
<g id="Group_15">
<g id="Group_16" style="mix-blend-mode:screen">
<path id="Vector_16" d="M151.87 21.09C151.44 21.09 151.1 20.69 151.1 20.2L151.14 10.63C151.14 10.14 151.49 9.75 151.92 9.75C152.35 9.75 152.69 10.15 152.69 10.64L152.65 20.21C152.65 20.7 152.3 21.09 151.87 21.09Z" fill="#3D3D3D"/>
</g>
<g id="Group_17" style="mix-blend-mode:screen">
<path id="Vector_17" d="M151.87 21.0902C151.44 21.0902 151.1 20.6902 151.1 20.2002L151.13 14.0402C151.13 13.5502 151.48 13.1602 151.91 13.1602C152.34 13.1602 152.68 13.5602 152.68 14.0502L152.65 20.2102C152.65 20.7002 152.3 21.0902 151.87 21.0902Z" fill="#3D3D3D"/>
</g>
<g id="Group_18" style="mix-blend-mode:screen">
<path id="Vector_18" d="M151.87 21.0905C151.44 21.0905 151.1 20.6905 151.1 20.2005V18.8605C151.1 18.3705 151.46 17.9805 151.88 17.9805C152.31 17.9805 152.65 18.3805 152.65 18.8705V20.2105C152.65 20.7005 152.29 21.0905 151.87 21.0905Z" fill="#3D3D3D"/>
</g>
<g id="Group_19" style="mix-blend-mode:screen">
<path id="Vector_19" d="M151.84 26.4303C151.41 26.4303 151.07 26.0303 151.07 25.5403V24.2003C151.07 23.7103 151.43 23.3203 151.85 23.3203C152.28 23.3203 152.62 23.7203 152.62 24.2103V25.5503C152.62 26.0403 152.26 26.4303 151.84 26.4303Z" fill="#8F8F8F"/>
</g>
</g>
</g>
<g id="Group_20" style="mix-blend-mode:screen">
<path id="Vector_20" d="M158.17 71.3295L87.0298 71.0095C86.2298 71.0095 85.5898 70.3295 85.5898 69.5095C85.5898 68.6795 86.2399 68.0195 87.0399 68.0195L158.18 68.3395C158.98 68.3395 159.62 69.0195 159.62 69.8395C159.62 70.6695 158.97 71.3295 158.17 71.3295Z" fill="#1A1A1A"/>
</g>
<g id="Group_21" style="mix-blend-mode:screen">
<path id="Vector_21" d="M40.3405 70.8012L33.2505 70.7712C32.4505 70.7712 31.8105 70.0912 31.8105 69.2712C31.8105 68.4412 32.4606 67.7812 33.2606 67.7812L40.3505 67.8112C41.1505 67.8112 41.7905 68.4912 41.7905 69.3112C41.7905 70.1412 41.1405 70.8012 40.3405 70.8012Z" fill="#1A1A1A"/>
</g>
<g id="Group_22" style="mix-blend-mode:screen">
<path id="Vector_22" d="M206.739 71.549H203.469C202.669 71.529 202.029 70.8591 202.029 70.0291C202.029 69.1991 202.679 68.5391 203.479 68.5391H206.749C207.549 68.5591 208.189 69.229 208.189 70.059C208.189 70.889 207.539 71.549 206.739 71.549Z" fill="#1A1A1A"/>
</g>
<path id="Vector_23" d="M52.9114 51.1372L32.8716 51.0462C31.5241 51.0401 30.4267 52.1276 30.4206 53.4751L30.4033 57.2751C30.3972 58.6226 31.4847 59.72 32.8322 59.7261L52.872 59.8171C54.2196 59.8232 55.3169 58.7357 55.3231 57.3882L55.3403 53.5882C55.3464 52.2407 54.2589 51.1433 52.9114 51.1372Z" fill="#E66B5D"/>
<path id="Vector_24" d="M208.116 51.8338L191.916 51.7603C190.663 51.7546 189.642 52.7663 189.636 54.02L189.616 58.5399C189.61 59.7936 190.622 60.8145 191.875 60.8202L208.075 60.8937C209.329 60.8994 210.35 59.8877 210.355 58.634L210.376 54.1141C210.382 52.8604 209.37 51.8395 208.116 51.8338Z" fill="#E66B5D"/>
<g id="Group_23" style="mix-blend-mode:multiply">
<path id="Vector_25" d="M30.4298 55.3398V57.1898C30.4198 58.5598 31.4798 59.6798 32.8098 59.6898L52.9398 59.7798C54.2598 59.7798 55.3397 58.6798 55.3497 57.3098V55.4598L30.4398 55.3499L30.4298 55.3398Z" fill="#F2F2F2"/>
</g>
<g id="Group_24">
<path id="Vector_26" d="M35.2057 61.0994L38.6257 61.1149C39.7857 61.1202 40.7313 62.0745 40.7261 63.2345L40.7257 63.3145C40.7204 64.4745 39.7762 65.4202 38.6062 65.4149L35.1862 65.3994C34.0262 65.3941 33.0805 64.4398 33.0858 63.2798L33.0861 63.1998C33.0914 62.0398 34.0357 61.0941 35.2057 61.0994Z" fill="#F5CA7F"/>
<g id="Group_25" style="mix-blend-mode:screen">
<path id="Vector_27" d="M34.9409 61.7494L38.8409 61.7671C39.2409 61.7689 39.5694 62.1004 39.5676 62.5004L39.5674 62.5304C39.5656 62.9304 39.2341 63.2589 38.8341 63.2571L34.9341 63.2394C34.5342 63.2376 34.2057 62.9061 34.2075 62.5061L34.2076 62.4761C34.2094 62.0761 34.5409 61.7476 34.9409 61.7494Z" fill="#545454"/>
</g>
</g>
<g id="Group_26">
<path id="Vector_28" d="M203.44 53.2634L206.87 53.279C208.03 53.2843 208.976 54.2286 208.97 55.3985L208.97 55.4786C208.965 56.6485 208.01 57.5842 206.85 57.5789L203.43 57.5634C202.27 57.5582 201.325 56.6039 201.33 55.4439L201.33 55.3639C201.336 54.2039 202.28 53.2582 203.45 53.2635L203.44 53.2634Z" fill="#F5CA7F"/>
<g id="Group_27" style="mix-blend-mode:screen">
<path id="Vector_29" d="M203.185 53.8939L207.085 53.9116C207.485 53.9135 207.814 54.2449 207.812 54.6449L207.812 54.6749C207.81 55.0749 207.478 55.4034 207.078 55.4016L203.178 55.3839C202.778 55.3821 202.45 55.0506 202.452 54.6506L202.452 54.6206C202.454 54.2206 202.785 53.8921 203.185 53.8939Z" fill="#545454"/>
</g>
</g>
<g id="Group_28" style="mix-blend-mode:screen">
<path id="Vector_30" d="M43.909 54.6181L32.8991 54.5681C32.1891 54.5681 31.619 53.9681 31.629 53.2381C31.629 52.5081 32.209 51.9081 32.919 51.9181L43.929 51.9681C44.639 51.9681 45.209 52.5681 45.199 53.2981C45.199 54.0281 44.619 54.6281 43.909 54.6181Z" fill="#262626"/>
</g>
<g id="Group_29" style="mix-blend-mode:multiply">
<path id="Vector_31" d="M73.1096 51.1883L83.5197 67.0883L89.2697 67.1183C89.3397 52.2983 77.8097 40.2282 63.5197 40.1682C54.9497 40.1282 47.3396 44.4183 42.5996 51.0583L73.0996 51.1983L73.1096 51.1883Z" fill="#E6E6E6"/>
</g>
<g id="Group_30" style="mix-blend-mode:multiply">
<path id="Vector_32" d="M171.999 51.6394L161.449 67.4494L155.699 67.4194C155.769 52.5994 167.399 40.6394 181.689 40.6994C190.259 40.7394 197.829 45.0995 202.509 51.7795L172.009 51.6394H171.999Z" fill="#E6E6E6"/>
</g>
<g id="Group_31">
<g id="Group_32">
<path id="Vector_33" d="M80.39 67.0791C80.35 76.8091 72.71 84.6691 63.33 84.6291C53.95 84.5891 46.3799 76.659 46.4299 66.929C46.4699 57.199 54.1099 49.3391 63.4899 49.3791C72.8699 49.4191 80.44 57.3491 80.39 67.0791Z" fill="#4F4F4F"/>
<g id="Group_33" style="mix-blend-mode:screen">
<path id="Vector_34" d="M63.6704 82.471C63.0704 82.471 62.5704 81.981 62.5404 81.351C62.5104 80.701 63.0004 80.1509 63.6204 80.1209C67.2904 79.9509 70.6304 78.2609 73.0304 75.3809C73.4404 74.8909 74.1504 74.831 74.6304 75.261C75.1004 75.681 75.1604 76.4309 74.7504 76.9209C71.9804 80.2609 67.9604 82.281 63.7304 82.481C63.7104 82.481 63.6904 82.481 63.6704 82.481V82.471Z" fill="#121212"/>
</g>
<g id="Group_34" style="mix-blend-mode:screen">
<path id="Vector_35" d="M74.3104 67.0498C74.2804 73.2998 69.3804 78.3498 63.3504 78.3198C57.3304 78.2898 52.4604 73.1998 52.4904 66.9498C52.5204 60.6998 57.4204 55.6498 63.4504 55.6798C69.4704 55.7098 74.3404 60.7998 74.3104 67.0498Z" fill="#171717"/>
<path id="Vector_36" d="M63.4006 78.578H63.3505C57.1905 78.548 52.2105 73.328 52.2305 66.948C52.2605 60.588 57.2706 55.418 63.4006 55.418C69.6106 55.448 74.5905 60.668 74.5605 67.048C74.5305 73.408 69.5206 78.578 63.3906 78.578H63.4006ZM63.4506 55.938C57.5606 55.938 52.7805 60.878 52.7505 66.948C52.7205 73.048 57.4805 78.028 63.3505 78.058L63.4006 78.318V78.058C69.2506 78.058 74.0205 73.118 74.0505 67.048C74.0805 60.948 69.3206 55.968 63.4506 55.938Z" fill="#231F20"/>
</g>
<path id="Vector_37" d="M71.519 67.0382C71.499 71.6882 67.849 75.4382 63.369 75.4182C58.889 75.3982 55.269 71.6082 55.299 66.9582C55.319 62.3082 58.969 58.5582 63.449 58.5782C67.929 58.5982 71.549 62.3882 71.519 67.0382Z" fill="#D1CECE"/>
<path id="Vector_38" d="M69.9493 67.0271C69.9293 70.7771 66.9893 73.8071 63.3793 73.7871C59.7693 73.7671 56.8492 70.7171 56.8692 66.9671C56.8892 63.2171 59.8293 60.1871 63.4392 60.2071C67.0492 60.2271 69.9693 63.2771 69.9493 67.0271Z" fill="#E2DFDF"/>
<g id="Group_35" style="mix-blend-mode:multiply">
<path id="Vector_39" d="M67.6889 67.0187C67.6789 69.4687 65.749 71.4486 63.389 71.4386C61.029 71.4286 59.1189 69.4287 59.1289 66.9787C59.1389 64.5287 61.0689 62.5486 63.4289 62.5586C65.7889 62.5686 67.6989 64.5687 67.6889 67.0187Z" fill="#E2DFDF"/>
</g>
</g>
<path id="Vector_40" d="M79.1 77.0402C78.72 77.0402 78.34 76.9602 77.98 76.7802C76.72 76.1602 76.2 74.6401 76.82 73.3801C77.9 71.1701 78.46 68.7902 78.47 66.2902C78.51 57.6202 71.78 50.5301 63.48 50.4901C55.13 50.4601 48.38 57.4801 48.35 66.1501C48.34 68.4601 48.8 70.6901 49.71 72.7701C50.27 74.0601 49.69 75.5601 48.41 76.1201C47.12 76.6801 45.63 76.1001 45.06 74.8201C43.86 72.0801 43.25 69.1601 43.27 66.1301C43.32 54.6801 52.35 45.4102 63.42 45.4102C63.45 45.4102 63.48 45.4102 63.51 45.4102C74.62 45.4602 83.61 54.8401 83.56 66.3101C83.55 69.5801 82.82 72.7201 81.39 75.6201C80.95 76.5201 80.05 77.0402 79.11 77.0402H79.1Z" fill="#616161"/>
<path id="Vector_41" d="M45.8001 67.2006C45.2201 67.2006 44.7402 66.7206 44.7502 66.1406C44.7502 64.7406 44.9102 63.3406 45.2002 61.9906C47.0902 53.2306 54.7501 46.8906 63.4201 46.8906C63.4501 46.8906 63.4702 46.8906 63.5002 46.8906C64.0802 46.8906 64.5601 47.3706 64.5501 47.9506C64.5501 48.5306 64.0701 49.0006 63.4901 49.0006C63.4701 49.0006 63.4401 49.0006 63.4201 49.0006C55.7401 49.0006 48.9502 54.6406 47.2702 62.4306C47.0102 63.6406 46.8701 64.8906 46.8701 66.1406C46.8701 66.7206 46.3902 67.1906 45.8102 67.1906L45.8001 67.2006Z" fill="#7D7D7D"/>
<path id="Vector_42" d="M81.0194 67.3592C80.4394 67.3592 79.9594 66.8792 79.9694 66.2992C79.9694 65.0492 79.8494 63.7992 79.5994 62.5892C78.7794 58.6092 76.5994 55.0392 73.4694 52.5492C73.0094 52.1892 72.9394 51.5192 73.2994 51.0592C73.6594 50.5992 74.3294 50.5292 74.7894 50.8892C78.3094 53.6892 80.7494 57.6893 81.6694 62.1593C81.9494 63.5093 82.0894 64.9092 82.0794 66.3092C82.0794 66.8892 81.5994 67.3592 81.0194 67.3592Z" fill="#7D7D7D"/>
</g>
<g id="Group_36">
<g id="Group_37">
<path id="Vector_43" d="M198.37 67.6103C198.33 77.3403 190.69 85.2003 181.31 85.1603C171.93 85.1203 164.36 77.1903 164.41 67.4603C164.45 57.7303 172.09 49.8703 181.47 49.9103C190.85 49.9503 198.42 57.8803 198.37 67.6103Z" fill="#4F4F4F"/>
<g id="Group_38" style="mix-blend-mode:screen">
<path id="Vector_44" d="M181.651 83.01C181.051 83.01 180.551 82.52 180.521 81.89C180.491 81.24 180.981 80.6901 181.601 80.6601C185.271 80.4901 188.611 78.8 191.011 75.92C191.421 75.43 192.131 75.37 192.611 75.8C193.081 76.22 193.141 76.97 192.731 77.46C189.961 80.8 185.941 82.82 181.711 83.02C181.691 83.02 181.671 83.02 181.651 83.02V83.01Z" fill="#121212"/>
</g>
<g id="Group_39" style="mix-blend-mode:screen">
<path id="Vector_45" d="M192.301 67.5811C192.271 73.8311 187.371 78.8811 181.341 78.8511C175.321 78.8211 170.451 73.7311 170.481 67.4811C170.511 61.2311 175.411 56.1811 181.441 56.2111C187.461 56.2411 192.331 61.3311 192.301 67.5811Z" fill="#171717"/>
<path id="Vector_46" d="M181.391 79.1092H181.341C178.361 79.0992 175.551 77.8792 173.461 75.6792C171.361 73.4792 170.221 70.5692 170.231 67.4792C170.261 61.1192 175.271 55.9492 181.401 55.9492C187.611 55.9792 192.591 61.1992 192.571 67.5792C192.541 73.9392 187.531 79.1092 181.401 79.1092H181.391ZM181.441 56.4692C175.551 56.4692 170.771 61.4092 170.741 67.4792C170.731 70.4392 171.821 73.2192 173.831 75.3192C175.831 77.4192 178.501 78.5792 181.341 78.5892L181.391 78.8492V78.5892C187.241 78.5892 192.011 73.6492 192.041 67.5792C192.071 61.4792 187.311 56.4992 181.441 56.4692Z" fill="#231F20"/>
</g>
<path id="Vector_47" d="M189.5 67.5695C189.48 72.2195 185.829 75.9695 181.349 75.9495C176.869 75.9295 173.249 72.1395 173.279 67.4895C173.299 62.8395 176.95 59.0895 181.43 59.1095C185.91 59.1295 189.53 62.9195 189.5 67.5695Z" fill="#D1CECE"/>
<path id="Vector_48" d="M187.93 67.5584C187.91 71.3084 184.97 74.3384 181.36 74.3184C177.75 74.2984 174.83 71.2484 174.85 67.4984C174.87 63.7484 177.81 60.7184 181.42 60.7384C185.03 60.7584 187.95 63.8084 187.93 67.5584Z" fill="#E2DFDF"/>
<g id="Group_40" style="mix-blend-mode:multiply">
<path id="Vector_49" d="M185.669 67.5498C185.659 69.9998 183.729 71.9799 181.369 71.9699C179.009 71.9599 177.099 69.9599 177.109 67.5099C177.119 65.0599 179.049 63.0799 181.409 63.0899C183.769 63.0999 185.679 65.0998 185.669 67.5498Z" fill="#E2DFDF"/>
</g>
</g>
<path id="Vector_50" d="M197.09 77.5714C196.71 77.5714 196.33 77.4914 195.97 77.3114C194.71 76.6914 194.19 75.1714 194.81 73.9114C195.89 71.7014 196.451 69.3214 196.46 66.8214C196.5 58.1514 189.77 51.0614 181.47 51.0214H181.401C177.421 51.0214 173.67 52.6314 170.83 55.5514C167.95 58.5114 166.35 62.4714 166.33 66.6914C166.32 69.0014 166.78 71.2314 167.69 73.3114C168.25 74.6014 167.67 76.1014 166.39 76.6614C165.1 77.2214 163.61 76.6414 163.04 75.3614C161.84 72.6214 161.23 69.7014 161.25 66.6714C161.27 61.1314 163.38 55.9214 167.18 52.0114C170.99 48.1014 176.031 45.9414 181.401 45.9414C181.431 45.9414 181.46 45.9414 181.49 45.9414C192.6 45.9914 201.59 55.3714 201.54 66.8414C201.53 70.1114 200.79 73.2514 199.37 76.1514C198.93 77.0514 198.03 77.5714 197.09 77.5714Z" fill="#616161"/>
<path id="Vector_51" d="M163.79 67.7319C163.21 67.7319 162.73 67.2519 162.74 66.6719C162.74 65.2719 162.9 63.8819 163.19 62.5219C165.08 53.7619 172.74 47.4219 181.41 47.4219C181.44 47.4219 181.46 47.4219 181.49 47.4219C182.07 47.4219 182.55 47.9019 182.54 48.4819C182.54 49.0619 182.06 49.5319 181.48 49.5319C181.46 49.5319 181.43 49.5319 181.4 49.5319C173.72 49.5319 166.93 55.1719 165.25 62.9619C164.99 64.1719 164.85 65.4219 164.85 66.6719C164.85 67.2519 164.37 67.7219 163.79 67.7219V67.7319Z" fill="#7D7D7D"/>
<path id="Vector_52" d="M199 67.8905C198.42 67.8905 197.94 67.4105 197.95 66.8305C197.95 65.5805 197.83 64.3305 197.58 63.1205C196.76 59.1405 194.58 55.5705 191.45 53.0805C190.99 52.7205 190.92 52.0505 191.28 51.5905C191.65 51.1305 192.31 51.0605 192.77 51.4205C196.29 54.2205 198.73 58.2205 199.65 62.6905C199.93 64.0505 200.07 65.4405 200.06 66.8405C200.06 67.4205 199.58 67.8905 199 67.8905Z" fill="#7D7D7D"/>
</g>
<g id="Group_41" style="mix-blend-mode:multiply">
<path id="Vector_53" d="M86.9991 40.951C90.0791 43.181 96.3891 48.9709 98.1191 59.9909C98.6291 63.2309 101.279 65.641 104.449 65.631L136.209 65.601C139.569 65.601 142.429 63.0609 142.959 59.6109C143.599 55.4609 144.159 48.721 143.979 38.131C143.929 35.251 141.669 32.951 138.899 32.961C119.859 33.001 97.9091 33.331 89.1791 33.471C87.0291 33.501 85.2991 35.3209 85.2891 37.5509C85.2891 38.9109 85.9291 40.171 86.9991 40.951Z" fill="#F2F2F2"/>
</g>
<path id="Vector_54" d="M89.2704 69.0413C88.2904 69.0413 87.4504 68.3012 87.3604 67.3012C86.4604 58.2112 83.3004 51.4412 77.9804 47.1912C70.3904 41.1312 60.9404 42.2213 60.8404 42.2313C59.7804 42.3513 58.8204 41.6112 58.6904 40.5612C58.5604 39.5012 59.3104 38.5413 60.3604 38.4113C60.8104 38.3513 71.5404 37.1212 80.3804 44.1812C86.5404 49.1012 90.1804 56.7612 91.1904 66.9212C91.2904 67.9812 90.5204 68.9213 89.4604 69.0313C89.3904 69.0313 89.3304 69.0313 89.2704 69.0313V69.0413Z" fill="#D16154"/>
<path id="Vector_55" d="M155.7 69.3389C155.63 69.3389 155.56 69.3388 155.49 69.3288C154.43 69.2088 153.67 68.2588 153.78 67.2088C154.88 57.0488 158.59 49.4388 164.79 44.5688C173.69 37.5888 184.41 38.9189 184.86 38.9789C185.91 39.1189 186.66 40.0888 186.51 41.1388C186.37 42.1888 185.4 42.9288 184.35 42.7988C184.26 42.7888 174.73 41.6388 167.13 47.6288C161.79 51.8388 158.59 58.5688 157.6 67.6288C157.49 68.6188 156.66 69.3489 155.69 69.3489L155.7 69.3389Z" fill="#D16154"/>
<path id="Vector_56" d="M202.926 32.0489L204.846 32.0576C206.896 32.0669 208.548 33.7345 208.539 35.7844L208.52 40.0644C208.51 42.1144 206.843 43.7668 204.793 43.7575L202.873 43.7488C201.673 43.7434 200.707 42.769 200.713 41.569L200.746 34.2091C200.751 33.0091 201.726 32.0435 202.926 32.0489Z" fill="#F5CA7F"/>
<g id="Group_42" style="mix-blend-mode:screen">
<path id="Vector_57" d="M206.761 41.4313C206.101 41.4313 205.561 40.8713 205.561 40.1813L205.581 35.5214C205.581 34.8314 206.121 34.2714 206.791 34.2814C207.451 34.2814 207.991 34.8414 207.991 35.5314L207.971 40.1914C207.971 40.8814 207.431 41.4413 206.761 41.4313Z" fill="#4D4D4D"/>
</g>
<path id="Vector_58" d="M120.45 65.7991C120.06 65.7991 119.74 65.4792 119.74 65.0892C119.74 64.6992 120.06 64.3792 120.45 64.3792H136.22C139.25 64.3692 141.79 62.1791 142.27 59.1691C143.09 53.9891 143.43 47.0392 143.27 38.5092C143.23 36.1292 141.27 34.1992 138.91 34.1992C138.52 34.1992 138.2 33.8792 138.2 33.4892C138.2 33.0892 138.54 32.7492 138.92 32.7792C142.05 32.7792 144.65 35.3392 144.7 38.4792C144.85 47.0892 144.51 54.1292 143.68 59.3892C143.1 63.0892 139.96 65.7792 136.23 65.7792H120.46V65.7892L120.45 65.7991Z" fill="#D16154"/>
<g id="Group_43">
<path id="Vector_59" d="M139.281 35.8904L132.301 35.8587C131.428 35.8548 130.717 36.559 130.714 37.4316L130.711 37.9515C130.707 38.8241 131.411 39.5347 132.284 39.5387L139.264 39.5704C140.137 39.5743 140.847 38.8701 140.851 37.9975L140.853 37.4776C140.857 36.605 140.153 35.8944 139.281 35.8904Z" fill="#CF6054"/>
<g id="Group_44" style="mix-blend-mode:multiply">
<path id="Vector_60" d="M130.74 37.4204V37.8704C130.74 38.7604 131.43 39.4904 132.29 39.4904L139.32 39.5204C140.18 39.5204 140.88 38.8005 140.88 37.9105V37.4604C140.88 37.4004 140.88 37.3405 140.87 37.2805L130.77 37.2305C130.77 37.2905 130.75 37.3505 130.75 37.4105L130.74 37.4204Z" fill="#F2F2F2"/>
</g>
</g>
<path id="Vector_61" d="M150.25 66.079L98.2698 65.8491C97.5198 65.8491 96.9198 65.219 96.9298 64.439C96.9298 63.669 97.5398 63.0391 98.2898 63.0391L150.27 63.269C151.02 63.269 151.62 63.899 151.61 64.679C151.61 65.449 151 66.079 150.25 66.079Z" fill="#D16154"/>
<path id="Vector_62" d="M72.6797 29.9296L78.9297 29.9596C81.5797 29.9696 84.0997 28.7896 85.8597 26.7196C89.3897 22.5596 96.8797 15.1996 109.49 9.4096C110.17 9.0996 109.96 8.0396 109.21 8.0396C102.81 8.0296 103.71 8.0396 103.71 8.0396C103.71 8.0396 90.4597 14.6796 72.6797 29.9396V29.9296Z" fill="#98DDDF"/>
<g id="Group_45" style="mix-blend-mode:multiply">
<path id="Vector_63" d="M187.06 35.6084L149.11 35.4384C148.5 35.4384 148.01 34.9185 148.01 34.2885C148.01 33.6585 148.51 33.1484 149.12 33.1484L187.07 33.3184C187.68 33.3184 188.17 33.8384 188.17 34.4684C188.17 35.0984 187.67 35.6084 187.06 35.6084Z" fill="#F2F2F2"/>
</g>
<g id="Group_46">
<path id="Vector_64" d="M128.22 4.20001L121.92 4.17001C120.81 4.17001 119.92 3.23002 119.92 2.08002C119.92 0.930017 120.83 0 121.94 0L128.24 0.0299988C129.35 0.0299988 130.24 0.970026 130.24 2.12003C130.24 3.27003 129.33 4.20001 128.22 4.20001Z" fill="#F57263"/>
<g id="Group_47" style="mix-blend-mode:screen">
<path id="Vector_65" d="M128.24 0.0299988L121.94 0C120.83 0 119.93 0.920017 119.92 2.08002L130.24 2.13C130.24 0.980005 129.35 0.0400085 128.24 0.0400085V0.0299988Z" fill="#1F1F1F"/>
</g>
<path id="Vector_66" d="M130.239 2.59982L119.919 2.54984C119.649 2.54984 119.439 2.32982 119.439 2.06982C119.439 1.79982 119.649 1.62984 119.919 1.58984L130.239 1.63983C130.509 1.63983 130.719 1.85984 130.719 2.11984C130.719 2.38984 130.499 2.59982 130.239 2.59982Z" fill="#F07061"/>
</g>
<g id="Group_48">
<path id="Vector_67" d="M162.681 4.34842L156.381 4.31842C155.271 4.31842 154.381 3.37842 154.381 2.22842C154.381 1.07842 155.291 0.148438 156.401 0.148438L162.701 0.178436C163.811 0.178436 164.701 1.11843 164.701 2.26843C164.701 3.41843 163.791 4.34842 162.681 4.34842Z" fill="#F57263"/>
<g id="Group_49" style="mix-blend-mode:screen">
<path id="Vector_68" d="M162.701 0.178436L156.401 0.148438C155.291 0.148438 154.391 1.06842 154.381 2.22842L164.701 2.27841C164.701 1.12841 163.811 0.188416 162.701 0.188416V0.178436Z" fill="#1F1F1F"/>
</g>
<path id="Vector_69" d="M164.7 2.76001L154.38 2.71002C154.11 2.71002 153.9 2.49001 153.9 2.23001C153.9 1.96001 154.12 1.75 154.38 1.75L164.7 1.80002C164.97 1.80002 165.18 2.02 165.18 2.28C165.18 2.55 164.96 2.76001 164.7 2.76001Z" fill="#F07061"/>
</g>
<path id="Vector_70" d="M185.971 9.22106L166.961 6.86107C166.031 6.74107 165.371 5.87108 165.481 4.90108V4.82106C165.601 3.86106 166.441 3.17105 167.371 3.28105L186.381 5.64107C187.311 5.76107 187.971 6.63106 187.861 7.60106V7.68108C187.741 8.64108 186.901 9.33106 185.971 9.22106Z" fill="#F57263"/>
<path id="Vector_71" d="M184.49 9.01898C183.13 8.92898 182.42 10.669 183.43 11.609C186.57 14.529 191.05 19.409 193.15 25.099C193.66 26.469 195.13 27.159 196.47 26.679L197.33 26.369C197.33 26.369 194.52 16.279 184.49 9.02896V9.01898Z" fill="#98DDDF"/>
</g>
</g>
</g>
</svg>
