<svg width="92" height="105" viewBox="0 0 92 105" fill="none" xmlns="http://www.w3.org/2000/svg">
<g clip-path="url(#clip0_4191_15635)">
<path d="M61.4208 81.52V77.6414C61.4208 77.6414 50.4871 74.8162 50.4871 55.3672H41.4181C41.4181 74.8162 30.4844 77.6414 30.4844 77.6414V81.52H61.4208Z" fill="#E8A615"/>
<path d="M50.6364 59.1612C50.6796 59.695 50.7324 60.2136 50.7936 60.717C52.5656 75.3508 61.4207 77.6389 61.4207 77.6389V81.5175H59.1319V77.6389C59.1319 77.6389 50.7403 75.4706 48.6605 61.8554C47.8197 62.1568 46.9261 62.3188 45.9999 62.3188C44.2009 62.3188 42.525 61.7069 41.1191 60.6523C41.1792 60.1489 41.2309 59.6309 41.2736 59.0977L50.6364 59.1612Z" fill="#B7791D"/>
<path d="M55.0007 50.2188C55.0007 55.9794 50.9714 60.65 46.0013 60.65C41.0313 60.65 37.002 55.9799 37.002 50.2188H55.0001H55.0007Z" fill="#E8A615"/>
<path d="M55.0007 50.2188C55.0007 51.2745 54.8637 52.3324 54.5879 53.3516C53.9235 55.8011 52.5002 57.8608 50.6378 59.1606C49.2836 60.1061 47.697 60.9076 46.0013 60.9076C44.3057 60.9076 42.6898 60.2596 41.4267 59.2033C42.3141 59.5807 43.2728 59.7872 44.2731 59.7872C47.5195 59.7872 50.3283 57.615 51.6763 54.4557C49.8458 54.994 47.9475 55.2673 46.0013 55.2673C43.001 55.2673 40.1141 54.6177 37.4148 53.3516C37.1463 52.3628 37.002 51.3105 37.002 50.2188H55.0007Z" fill="#B7791D"/>
<path d="M73.2345 9.35177C73.2345 37.886 61.0416 54.2061 46.001 54.2061C30.9605 54.2061 18.7676 37.886 18.7676 9.35177V4.5625H73.2339V9.35177H73.2345Z" fill="#E8A615"/>
<path d="M15.6352 40.5191C16.3811 40.8802 17.1017 41.0984 17.9335 41.1412C18.3002 41.1597 18.667 41.1041 19.0281 41.0484C19.2651 41.0118 19.4965 40.9539 19.7206 40.8678C20.9001 40.4162 21.9981 39.6152 22.5379 38.4352C22.8552 37.7417 23.022 37.0938 23.072 36.3272C23.1108 35.7349 23.0305 35.1111 22.8738 34.5408C22.6963 33.8934 22.3863 33.2534 22.038 32.678C20.8086 30.6453 18.9607 29.0423 17.132 27.5687C15.8694 26.5512 14.5742 25.5748 13.292 24.5826C13.4144 24.6771 13.5368 24.7722 13.6593 24.8667C11.5441 23.2299 9.4407 21.5488 7.60858 19.5914C7.10366 19.052 6.62176 18.4918 6.17075 17.9069L6.45438 18.2747C5.62314 17.1931 4.90197 16.0266 4.36672 14.7695C4.42794 14.9141 4.4886 15.0586 4.54982 15.2038C4.12127 14.1863 3.82135 13.1199 3.67139 12.0248L3.73598 12.5079C3.61129 11.5686 3.58546 10.613 3.7079 9.67205L3.64331 10.1552C3.75227 9.35708 3.96401 8.57977 4.27461 7.83678C4.21339 7.98133 4.15273 8.12588 4.09151 8.27099C4.39985 7.54711 4.79807 6.86824 5.27772 6.24504C5.18336 6.36765 5.08844 6.49027 4.99408 6.61288C5.46306 6.01219 6.00169 5.47223 6.6021 5.00259L6.23478 5.28662C6.85709 4.80629 7.53501 4.40751 8.25785 4.09873L7.82426 4.28209C8.5662 3.97049 9.34241 3.75901 10.1394 3.64989L9.65693 3.71457C10.3377 3.62571 11.0291 3.60152 11.7103 3.69264L11.2279 3.62796C11.7519 3.70332 12.2613 3.84394 12.75 4.04811L12.3164 3.86475C12.7921 4.06892 13.238 4.32933 13.6503 4.64374C13.5279 4.54925 13.4054 4.4542 13.283 4.3597C13.7048 4.68705 14.0811 5.06389 14.408 5.48629L14.1243 5.11845C14.4377 5.53129 14.6978 5.97788 14.9022 6.45427C14.841 6.30972 14.7803 6.16517 14.7191 6.02006C14.923 6.50939 15.0634 7.01954 15.1387 7.5443C15.1173 7.38344 15.0954 7.22202 15.0741 7.06116C15.1117 7.34238 15.1308 7.62361 15.1325 7.90708C15.1347 8.37448 15.333 8.861 15.6638 9.19172C15.9946 9.52244 16.4951 9.74405 16.9466 9.7238C17.9256 9.67993 18.7658 8.92512 18.7608 7.90708C18.7507 5.81702 17.9138 3.77026 16.4277 2.29607C14.9415 0.821889 12.8932 -0.0127882 10.8044 0.00014817C6.93067 0.0243336 3.22993 2.19821 1.36018 5.6061C0.426716 7.30807 -0.04395 9.24234 0.00322894 11.1839C0.0397364 12.6817 0.306522 14.1981 0.827175 15.6048C1.8741 18.4356 3.69498 20.8575 5.82645 22.965C7.90963 25.0253 10.2568 26.7953 12.5742 28.5777C12.8387 28.7813 13.1032 28.9849 13.3672 29.1891L12.9999 28.9051C14.5927 30.1379 16.1996 31.3866 17.5925 32.849C17.9295 33.2027 18.2519 33.5712 18.5518 33.9576C18.4575 33.8349 18.3626 33.7123 18.2682 33.5897C18.7114 34.164 19.1028 34.7799 19.3865 35.4497C19.3252 35.3052 19.2646 35.1606 19.2034 35.0155C19.3382 35.3389 19.4291 35.6742 19.4791 36.0212L19.4145 35.538C19.4595 35.8879 19.4612 36.2372 19.4174 36.587L19.4819 36.1039C19.4387 36.4048 19.3629 36.6944 19.2472 36.9757C19.3084 36.8311 19.369 36.6866 19.4303 36.5415C19.3275 36.7771 19.2006 36.9959 19.0439 37.1995C19.1382 37.0769 19.2331 36.9543 19.3275 36.8317C19.1629 37.0353 18.9759 37.2153 18.7686 37.3756C18.8911 37.2811 19.0135 37.186 19.136 37.0915C18.9192 37.2535 18.6878 37.3885 18.4406 37.4982C18.585 37.4369 18.7293 37.3761 18.8742 37.3148C18.6131 37.4239 18.344 37.5004 18.0638 37.5432C18.2244 37.5218 18.3856 37.4999 18.5462 37.4785C18.2469 37.5184 17.9503 37.5179 17.6509 37.4796L18.1334 37.5443C17.8307 37.4987 17.5409 37.4161 17.2572 37.3002L17.6908 37.4836C17.6156 37.4509 17.5414 37.4166 17.4673 37.3812C17.0225 37.1658 16.5602 37.0628 16.0693 37.1978C15.6487 37.3137 15.1926 37.6399 14.9848 38.0331C14.7624 38.4549 14.6506 38.9656 14.8017 39.433C14.9404 39.8633 15.2139 40.3149 15.6357 40.5191H15.6352Z" fill="#E8A615"/>
<path d="M14.9704 2.29551C13.659 0.993999 11.9049 0.190256 10.0723 0.0299579C10.3155 0.0119594 10.5592 0.00183533 10.8041 0.000147975C12.8935 -0.0127884 14.944 0.823014 16.4285 2.29551C17.9141 3.76969 18.7509 5.81645 18.761 7.90708C18.7661 8.92512 17.9259 9.67993 16.9469 9.7238C16.702 9.73448 16.4392 9.67036 16.1988 9.559C16.8413 9.27834 17.3075 8.66583 17.3036 7.90708C17.2929 5.81645 16.456 3.76969 14.9704 2.29551Z" fill="#B7791D"/>
<path d="M23.0737 36.3248C23.0231 37.0914 22.8563 37.7393 22.539 38.4328C21.9998 39.6129 20.9012 40.4138 19.7217 40.8654C19.4976 40.9515 19.2668 41.0094 19.0298 41.046C18.6681 41.1022 18.3019 41.1579 17.9345 41.1388C17.7363 41.1287 17.5442 41.1084 17.3566 41.0786C17.4285 41.0679 17.5004 41.0572 17.5717 41.046C17.8087 41.0094 18.0401 40.9515 18.2642 40.8654C19.4431 40.4138 20.5417 39.6129 21.0815 38.4328C21.3988 37.7393 21.5651 37.0914 21.6156 36.3248C21.6544 35.7325 21.5735 35.1087 21.4174 34.5384C21.2399 33.891 20.9298 33.251 20.5816 32.6756C19.3522 30.6429 17.5043 29.0399 15.6756 27.5663C14.4804 26.6034 13.2565 25.677 12.0417 24.7394C9.9804 23.142 7.93767 21.4974 6.15161 19.589C5.71015 19.1177 5.2861 18.6295 4.88452 18.1233C4.92159 18.1734 4.95922 18.2228 4.99741 18.2723C4.90305 18.1497 4.80813 18.0271 4.71377 17.9051C4.76825 17.9759 4.8233 18.0457 4.8789 18.116C4.14033 17.1356 3.49386 16.0867 2.99511 14.9634C2.64801 14.0911 2.39471 13.185 2.24924 12.2569C2.15994 11.4729 2.14252 10.6798 2.22565 9.89464C2.32843 9.26919 2.4958 8.65725 2.72496 8.06611C2.985 7.49241 3.3029 6.94796 3.67415 6.4395C4.0645 5.96255 4.50035 5.52608 4.97775 5.13518C5.48492 4.76453 6.02636 4.44674 6.59812 4.18689C7.19404 3.95516 7.81073 3.78642 8.44147 3.68349C8.95594 3.62837 9.47491 3.61319 9.99051 3.661C9.91806 3.6475 9.84504 3.63569 9.77146 3.625C9.86021 3.63681 9.94895 3.64919 10.0371 3.661C10.0714 3.6565 10.1062 3.65144 10.1405 3.64694C10.1073 3.65144 10.0742 3.65593 10.0416 3.66156C10.0534 3.66325 10.0652 3.66437 10.0764 3.66606C10.0714 3.66662 10.0663 3.66718 10.0618 3.66775C10.054 3.66831 10.0467 3.66887 10.0394 3.67C9.99219 3.67393 9.94502 3.67843 9.89784 3.68406C9.26766 3.78699 8.65097 3.95516 8.05561 4.18689C7.48385 4.4473 6.94073 4.76509 6.433 5.13687C5.95728 5.52721 5.52199 5.96311 5.13221 6.4395C4.76208 6.94571 4.44587 7.48679 4.18638 8.05767C3.95386 8.65443 3.78536 9.27313 3.68202 9.90532C3.60058 10.6877 3.61855 11.4779 3.70729 12.2592C3.85276 13.1861 4.1055 14.0916 4.45317 14.9634C4.95192 16.0867 5.59838 17.1356 6.33695 18.116C6.33864 18.1182 6.34032 18.1205 6.34257 18.1233C6.74359 18.6295 7.16764 19.1177 7.60966 19.589C9.3682 21.4688 11.3772 23.0925 13.4065 24.6674C14.6517 25.6298 15.9081 26.5786 17.1336 27.5663C18.9624 29.0399 20.8102 30.6429 22.0397 32.6756C22.3873 33.251 22.6974 33.891 22.8748 34.5384C23.0315 35.1087 23.1124 35.7325 23.0737 36.3248Z" fill="#B7791D"/>
<path d="M76.3664 40.5191C75.6206 40.8802 74.9 41.0984 74.0681 41.1412C73.7014 41.1597 73.3346 41.1041 72.9735 41.0484C72.7365 41.0118 72.5051 40.9539 72.281 40.8678C71.1015 40.4162 70.0035 39.6152 69.4637 38.4352C69.1464 37.7417 68.9796 37.0938 68.9296 36.3272C68.8908 35.7349 68.9711 35.1111 69.1278 34.5408C69.3053 33.8934 69.6154 33.2534 69.9636 32.678C71.193 30.6453 73.0409 29.0423 74.8696 27.5687C76.1322 26.5512 77.4274 25.5748 78.7097 24.5826C78.5872 24.6771 78.4648 24.7722 78.3423 24.8667C80.4575 23.2299 82.5609 21.5488 84.393 19.5914C84.898 19.052 85.3799 18.4918 85.8309 17.9069L85.5472 18.2747C86.3785 17.1931 87.0996 16.0266 87.6349 14.7695C87.5737 14.9141 87.513 15.0586 87.4518 15.2038C87.8803 14.1863 88.1803 13.1199 88.3302 12.0248C88.3089 12.1856 88.287 12.3471 88.2656 12.5079C88.3903 11.5686 88.4162 10.613 88.2937 9.67205C88.3151 9.83291 88.337 9.99434 88.3583 10.1552C88.2493 9.35708 88.0376 8.57977 87.727 7.83678C87.7882 7.98133 87.8489 8.12588 87.9101 8.27099C87.6018 7.54711 87.2035 6.86824 86.7239 6.24504C86.8182 6.36765 86.9132 6.49027 87.0075 6.61288C86.5385 6.01219 85.9999 5.47223 85.3995 5.00259C85.5219 5.09708 85.6444 5.19213 85.7668 5.28662C85.1445 4.80629 84.4666 4.40751 83.7438 4.09873L84.1773 4.28209C83.4354 3.97049 82.6592 3.75901 81.8622 3.64989C82.0228 3.67126 82.184 3.6932 82.3447 3.71457C81.6639 3.62571 80.9726 3.60152 80.2913 3.69264L80.7737 3.62796C80.2497 3.70332 79.7403 3.84394 79.2516 4.04811C79.396 3.9868 79.5403 3.92605 79.6852 3.86475C79.2095 4.06892 78.7636 4.32933 78.3513 4.64374C78.4738 4.54925 78.5962 4.4542 78.7186 4.3597C78.2968 4.68705 77.9205 5.06389 77.5936 5.48629L77.8773 5.11845C77.5639 5.53129 77.3038 5.97788 77.0994 6.45427L77.2825 6.02006C77.0786 6.50939 76.9382 7.01953 76.8629 7.5443C76.8843 7.38344 76.9062 7.22202 76.9275 7.06116C76.8899 7.34238 76.8708 7.62361 76.8691 7.90708C76.8669 8.37448 76.6686 8.861 76.3378 9.19172C76.0233 9.50669 75.5065 9.74405 75.055 9.7238C74.076 9.67993 73.2358 8.92512 73.2408 7.90708C73.2509 5.81701 74.0878 3.77026 75.5739 2.29607C77.0573 0.823576 79.1079 -0.0127885 81.1972 0.000147877C85.0709 0.0243333 88.7717 2.19821 90.6414 5.6061C91.5749 7.30807 92.0456 9.24234 91.9984 11.1839C91.9619 12.6817 91.6951 14.1981 91.1744 15.6048C90.1275 18.4356 88.3066 20.8575 86.1752 22.965C84.092 25.0253 81.7448 26.7953 79.4274 28.5777C79.1629 28.7813 78.8984 28.9849 78.6344 29.1891L79.0017 28.9051C77.4089 30.1379 75.802 31.3866 74.4091 32.849C74.0721 33.2027 73.7497 33.5712 73.4498 33.9576L73.7334 33.5897C73.2903 34.164 72.8988 34.7799 72.6151 35.4497C72.6764 35.3052 72.737 35.1606 72.7982 35.0155C72.6634 35.3389 72.5725 35.6742 72.5225 36.0212C72.5438 35.8603 72.5657 35.6989 72.5871 35.538C72.5421 35.8879 72.5405 36.2372 72.5843 36.587C72.5629 36.4262 72.541 36.2647 72.5197 36.1039C72.5629 36.4048 72.6387 36.6944 72.7544 36.9757C72.6932 36.8311 72.6326 36.6866 72.5713 36.5415C72.6741 36.7771 72.8011 36.9959 72.9578 37.1995C72.8634 37.0769 72.7685 36.9543 72.6741 36.8317C72.8387 37.0353 73.0257 37.2153 73.233 37.3756C73.1105 37.2811 72.9881 37.186 72.8656 37.0915C73.0824 37.2535 73.3138 37.3885 73.561 37.4982C73.4166 37.4369 73.2723 37.3761 73.1274 37.3148C73.3885 37.4239 73.6576 37.5004 73.9378 37.5432C73.7772 37.5218 73.616 37.4999 73.4554 37.4785C73.7547 37.5184 74.0513 37.5179 74.3507 37.4796C74.19 37.501 74.0288 37.5229 73.8682 37.5443C74.1709 37.4987 74.4607 37.4161 74.7444 37.3002C74.6 37.3615 74.4557 37.4223 74.3108 37.4836C74.386 37.4509 74.4602 37.4166 74.5343 37.3812C74.9791 37.1658 75.4414 37.0628 75.9323 37.1978C76.353 37.3137 76.809 37.6399 77.0168 38.0331C77.2392 38.4549 77.351 38.9656 77.1999 39.433C77.0612 39.8633 76.7877 40.3149 76.3659 40.5191H76.3664Z" fill="#E8A615"/>
<path d="M73.2344 4.5625V9.35177C73.2344 37.886 61.0414 54.2061 46.0009 54.2061C38.4427 54.2061 31.6041 50.085 26.6699 42.3637C31.2794 48.4595 37.2908 51.6914 43.8666 51.6914C58.3837 51.6914 70.152 35.9394 70.152 8.39785V4.5625H73.2344Z" fill="#B7791D"/>
<path d="M77.1997 39.4325C77.0604 39.8628 76.7869 40.3145 76.3657 40.5186C75.6198 40.8797 74.8992 41.098 74.0674 41.1401C73.7113 41.1587 73.3569 41.107 73.0059 41.0524C73.5445 40.9506 74.0494 40.7689 74.5661 40.5186C74.9874 40.3145 75.2609 39.8628 75.3996 39.4325C75.5507 38.9651 75.4395 38.4544 75.2171 38.0326C75.0789 37.7711 74.8307 37.5393 74.5566 37.3796C74.5532 37.3773 74.5504 37.3757 74.5476 37.3745C74.9891 37.163 75.4468 37.0635 75.9321 37.1979C76.3533 37.3138 76.8094 37.6394 77.0166 38.0326C77.239 38.4544 77.3508 38.9651 77.1997 39.4325Z" fill="#B7791D"/>
<path d="M91.9981 11.1833C91.9616 12.6817 91.6949 14.1981 91.1748 15.6048C90.1278 18.435 88.307 20.8569 86.1749 22.965C84.0918 25.0247 81.7446 26.7947 79.4272 28.5777C79.1857 28.7639 78.9436 28.9495 78.7027 29.1362C78.7004 29.1379 78.6982 29.1396 78.6959 29.1418C78.6752 29.1576 78.6544 29.1733 78.6342 29.1891C77.1626 30.3309 75.6939 31.4991 74.4083 32.8489C74.1235 33.1476 73.8494 33.457 73.5905 33.7787C73.2597 34.2253 72.9637 34.6966 72.7267 35.1989C72.7256 35.1989 72.7256 35.2 72.7256 35.2006C72.6559 35.3923 72.602 35.5881 72.5621 35.7878C72.5486 35.9711 72.5481 36.1539 72.5599 36.3373C72.588 36.4762 72.6245 36.6129 72.6694 36.7478C72.7121 36.8305 72.7581 36.9104 72.8087 36.9886C72.8806 37.0668 72.9564 37.141 73.0356 37.2119C73.0502 37.222 73.0648 37.2316 73.08 37.2406C73.0772 37.2411 73.0738 37.2422 73.071 37.2434C73.0687 37.2439 73.0659 37.2445 73.0637 37.2456C72.9586 37.2811 72.8542 37.3244 72.7508 37.3739C72.6014 37.4267 72.4504 37.47 72.2959 37.5032C72.1712 37.5105 72.0465 37.5105 71.9218 37.5038C71.8011 37.4773 71.682 37.4442 71.5646 37.4048C71.4517 37.3469 71.3428 37.2827 71.2366 37.2124C71.1574 37.1416 71.081 37.0673 71.0092 36.9886C70.9592 36.911 70.9131 36.8311 70.8704 36.7495C70.8249 36.6146 70.7884 36.4767 70.7603 36.3373C70.7485 36.1539 70.7491 35.9705 70.7626 35.7872C70.8019 35.5875 70.8564 35.3918 70.926 35.2006C70.926 35.2 70.926 35.1994 70.9272 35.1989C71.1642 34.6966 71.4602 34.2253 71.791 33.7787C72.0499 33.457 72.324 33.1476 72.6087 32.8489C73.9151 31.4777 75.4097 30.2937 76.9043 29.1351C77.1452 28.9489 77.3862 28.7633 77.6277 28.5777C79.9451 26.7947 82.2922 25.0247 84.3754 22.965C86.5074 20.8569 88.3283 18.435 89.3747 15.6048C89.8948 14.1981 90.1621 12.6817 90.1986 11.1833C90.2458 9.24232 89.7751 7.30749 88.8411 5.60607C87.1196 2.4676 83.8446 0.375281 80.3113 0.0456851C80.6044 0.0136254 80.9004 -0.0015608 81.197 0.000126551C85.0707 0.0243119 88.7715 2.19818 90.6412 5.60607C91.5747 7.30749 92.0453 9.24232 91.9981 11.1833Z" fill="#B7791D"/>
<path d="M65.6671 81.6185V102.079H25.9941V81.6185C25.9941 80.9757 26.5193 80.4492 27.1613 80.4492H64.5006C65.1425 80.4492 65.6677 80.9751 65.6677 81.6185H65.6671Z" fill="#343B49"/>
<path d="M65.6668 81.6185V102.079H63.3331V81.6185C63.3331 80.9757 62.808 80.4492 62.166 80.4492H64.4997C65.1417 80.4492 65.6668 80.9751 65.6668 81.6185Z" fill="#262D38"/>
<path d="M69.1687 101.494V103.832C69.1687 104.475 68.6435 105.001 68.0016 105.001H23.6613C23.0193 105.001 22.4941 104.475 22.4941 103.832V101.494C22.4941 100.851 23.0193 100.324 23.6613 100.324H68.0021C68.6441 100.324 69.1692 100.85 69.1692 101.494H69.1687Z" fill="#262D38"/>
<path d="M69.1688 101.494V103.832C69.1688 104.475 68.6436 105.001 68.0016 105.001H65.668C66.3099 105.001 66.8351 104.475 66.8351 103.832V101.494C66.8351 100.851 66.3099 100.324 65.668 100.324H68.0016C68.6436 100.324 69.1688 100.85 69.1688 101.494Z" fill="#171C23"/>
<path d="M59.8333 86.2943V94.4786C59.8333 95.1214 59.3082 95.6479 58.6662 95.6479H32.9952C32.3533 95.6479 31.8281 95.122 31.8281 94.4786V86.2943C31.8281 85.6515 32.3533 85.125 32.9952 85.125H58.6662C59.3082 85.125 59.8333 85.6509 59.8333 86.2943Z" fill="#E8A615"/>
<path d="M59.8331 86.2938V94.478C59.8331 95.1209 59.3079 95.6473 58.6659 95.6473H35.5039C40.2179 95.554 55.7487 94.5483 55.7487 85.125H58.6659C59.3079 85.125 59.8331 85.6509 59.8331 86.2943V86.2938Z" fill="#B7791D"/>
<path d="M32.9961 91.5541V86.7711C32.9961 86.5067 33.2095 86.293 33.4735 86.293H43.9354C43.9354 86.293 35.6218 87.1698 32.9961 91.5541Z" fill="#FFCC66"/>
<path d="M27.3066 86.8784V82.0953C27.3066 81.8309 27.5201 81.6172 27.784 81.6172H38.246C38.246 81.6172 29.9324 82.4941 27.3066 86.8784Z" fill="#4E5868"/>
<path d="M36.2842 47.1882C32.7171 47.1882 22.8241 35.4239 21.625 7.64844H27.1854C28.1677 41.6323 36.2842 47.1882 36.2842 47.1882Z" fill="#FFCC66"/>
<path d="M34.2617 78.0145C34.2617 78.0145 41.844 72.8372 41.844 65.3594V78.0145H34.2617Z" fill="#FFCC66"/>
<path d="M9.41495 2.802C9.41495 2.802 8.64549 2.57871 7.07173 2.90043C5.15256 3.29302 2.73633 5.3814 2.73633 5.3814C3.97477 2.90043 6.79315 1.36719 7.98217 1.36719C8.77354 1.36719 9.41495 2.00951 9.41495 2.802Z" fill="#FFCC66"/>
</g>
<defs>
<clipPath id="clip0_4191_15635">
<rect width="92" height="105" fill="white"/>
</clipPath>
</defs>
</svg>
