<svg width="115" height="121" viewBox="0 0 115 121" fill="none" xmlns="http://www.w3.org/2000/svg">
<g clip-path="url(#clip0_3920_25589)">
<path d="M81.2001 25.4375C81.3858 25.4997 81.5751 25.5512 81.7573 25.6222C84.8235 26.8355 86.7896 33.6318 88.0575 36.5468C90.6183 36.8879 96.1667 37.0637 98.0131 38.8579C98.781 39.6022 98.7257 39.913 98.7685 40.9131C97.4739 43.8583 94.1559 45.5867 91.5719 47.3559C91.8165 49.9743 92.7951 53.4453 92.3183 55.9979C92.1237 57.0353 91.8505 57.3479 91.0254 57.9714C88.0753 58.4013 84.2681 55.4792 81.7055 54.0759C78.6947 55.076 76.0482 57.4989 72.9767 58.3196C72.1784 58.5328 72.1606 58.5186 71.4248 58.0887C70.3962 55.4064 72.132 50.1111 72.707 47.2867C70.4998 45.6595 65.6568 42.9275 64.6585 40.4033C64.4317 39.8295 64.6889 39.5915 64.905 39.0621C67.564 37.046 72.7106 36.8275 75.9839 36.291C77.7965 32.6708 78.4911 28.5657 81.2001 25.4375Z" fill="#FFEA88"/>
<path d="M55.6764 0L56.18 0.168754C55.5424 2.60058 52.8602 5.03774 51.6655 7.32747C45.0475 20.0178 42.4956 34.019 46.7886 47.9243C50.7262 60.675 60.3158 72.0472 72.1697 78.2822C86.0005 85.5582 100.412 85.0075 114.998 80.5684C113.26 84.6327 111.473 88.7023 109.21 92.509C101.006 106.306 87.9774 115.568 72.4573 119.531C70.7465 119.918 69.0089 120.202 67.2714 120.444C51.9995 122.57 36.2258 118.572 23.9057 109.299C11.0286 99.602 2.64972 85.702 0.521083 69.7379C-1.64863 53.4647 3.03723 37.0832 13.0875 24.0945C23.4754 10.6688 38.8455 2.15294 55.6764 0Z" fill="#FFEA88"/>
<path d="M53.8875 86.2656C54.4018 86.4433 54.8893 86.6191 55.3822 86.8483C57.6626 87.9123 66.3629 91.7332 67.1433 93.8151C66.87 93.8365 66.5986 93.856 66.3254 93.8613C62.9235 93.927 56.8555 91.3336 54.5607 88.8929C53.7 87.9763 53.8232 87.4753 53.8875 86.2656Z" fill="#FFF5C7"/>
<path d="M34.6846 87.7322C36.2472 88.3344 37.699 89.5903 39.1937 90.4021C41.8241 91.8339 44.5617 93.0791 47.2779 94.3403C47.8814 95.2018 47.6511 95.3493 47.5404 96.3493C47.2046 96.3405 46.8689 96.3209 46.5368 96.2854C43.492 95.9585 36.6043 93.1714 35.0132 90.6011C34.3275 89.4926 34.5471 88.9348 34.6864 87.7305L34.6846 87.7322Z" fill="#FFF5C7"/>
<path d="M20.8414 46.0508C21.6878 46.1503 22.1789 46.2497 22.9039 46.7045C24.929 50.0049 24.9719 55.8669 25.6058 59.6488C25.1576 59.6559 24.4701 59.7198 24.0147 59.6275C23.1861 59.4605 22.8593 59.123 22.3646 58.4622C20.1556 55.501 20.3467 49.5395 20.8432 46.0508H20.8414Z" fill="#FFF5C7"/>
<path d="M28.2749 69.5898L29.2196 69.9327C31.059 72.345 32.1715 75.4252 34.1465 77.6989C35.5037 79.2621 39.1663 80.7311 39.8074 82.6585L38.8806 83.8984C37.9288 83.8575 37.0663 83.8113 36.2413 83.2855C33.2572 81.3813 28.1553 75.1303 27.4267 71.6415C27.2231 70.6663 27.7321 70.3324 28.2749 69.5898Z" fill="#FFF5C7"/>
</g>
<defs>
<clipPath id="clip0_3920_25589">
<rect width="115" height="121" fill="white"/>
</clipPath>
</defs>
</svg>
