<svg width="303" height="101" viewBox="0 0 303 101" fill="none" xmlns="http://www.w3.org/2000/svg">
<g style="mix-blend-mode:multiply">
<path d="M3.61467 4.67295L19.5849 1.33122C29.7655 -0.805927 40.3348 -0.359066 50.3017 2.59408L142.821 30.0856L172.158 10.3072C174.042 9.04439 176.452 8.8501 178.511 9.82153L181.503 11.2398C184.592 12.697 185.991 16.3107 184.709 19.4775L176.277 40.2273C179.133 41.8399 180.745 45.1233 180.085 48.465C179.618 50.7965 178.142 52.6811 176.18 53.7302L180.804 64.4159C181.639 66.3394 179.463 68.1851 177.695 67.0582L156.246 53.4388L130.872 51.4959L158.519 78.0548C159.626 78.8903 158.519 80.6 157.295 79.9588L95.0653 47.377L95.104 48.057C96.4834 48.0959 97.6297 49.145 97.7657 50.5633C97.9017 52.0788 96.775 53.3999 95.2595 53.5359C93.7441 53.6719 92.4229 52.5451 92.2869 51.0296C92.1898 49.8251 92.8891 48.737 93.9383 48.2902L93.1224 46.3862L89.2754 44.3656L89.4309 46.7748C90.8104 46.8136 91.9567 47.8628 92.0927 49.281C92.2287 50.7965 91.1017 52.1176 89.5863 52.2536C88.0709 52.3896 86.7497 51.2628 86.6137 49.7473C86.5165 48.5428 87.2161 47.4548 88.2653 47.0079L86.7498 43.4525L27.5701 26.025L27.8032 29.6581C29.1826 29.697 30.3291 30.7462 30.4651 32.1644C30.6011 33.6799 29.4742 35.001 27.9588 35.137C26.4433 35.273 25.1221 34.1462 24.9861 32.6307C24.889 31.4261 25.5884 30.3381 26.6375 29.8913L24.6366 25.1896L9.03533 20.6044C6.72332 19.9244 4.74143 18.3895 3.51743 16.3107L0.622584 11.4147C-0.931705 8.77239 0.564317 5.37238 3.55632 4.75066L3.61467 4.67295Z" fill="#E0E0E0"/>
</g>
<g style="mix-blend-mode:multiply">
<path d="M244.353 71.2143C243.984 71.2143 243.614 71.156 243.245 71.0589L191.857 55.9434C189.797 55.3411 188.612 53.1845 189.234 51.1251C189.836 49.0657 191.993 47.9 194.052 48.5023L245.441 63.6177C247.5 64.22 248.686 66.3766 248.064 68.436C247.559 70.1263 246.024 71.2337 244.333 71.2337L244.353 71.2143Z" fill="#F0F0F0"/>
</g>
<g style="mix-blend-mode:multiply">
<path d="M298.503 100.981C298.134 100.981 297.765 100.923 297.396 100.826L211.638 75.6075C209.579 75.0052 208.393 72.8486 209.015 70.7892C209.617 68.7297 211.774 67.564 213.833 68.1663L299.591 93.3846C301.651 93.9869 302.836 96.1435 302.214 98.2029C301.709 99.8932 300.174 101.001 298.484 101.001L298.503 100.981Z" fill="#F0F0F0"/>
</g>
</svg>
