<svg width="152" height="86" viewBox="0 0 152 86" fill="none" xmlns="http://www.w3.org/2000/svg">
<g clip-path="url(#clip0_3920_25317)">
<path d="M3.61553 77.0752C2.9467 76.8347 2.32392 76.4679 1.78595 75.9796C0.649438 74.9447 0 73.475 0 71.9348V65.0793C0 64.6347 0.0533121 64.1999 0.15509 63.7844C0.0533121 63.3642 0 62.9318 0 62.4945V14.0662C0 12.526 0.649438 11.0563 1.78595 10.0214C2.35542 9.50152 3.02183 9.11526 3.73912 8.87962L23.9759 0.571379C24.9258 0.0976641 26.0018 -0.091822 27.0753 0.04179L39.3346 1.57468C40.7959 1.75688 42.1117 2.52454 42.9938 3.6809C43.0228 3.66875 43.0543 3.6566 43.0834 3.64446C43.1343 3.62259 43.1852 3.60073 43.2385 3.57886C43.2943 3.55457 43.3524 3.53028 43.4081 3.50599C43.4566 3.48412 43.5075 3.46226 43.556 3.44282C43.6093 3.41853 43.665 3.39424 43.7207 3.37237C43.7765 3.34808 43.8322 3.32379 43.888 3.30192C43.9364 3.28006 43.9849 3.2582 44.0334 3.23876C44.0891 3.21204 44.1472 3.18775 44.2054 3.16588C44.2563 3.14402 44.3072 3.12215 44.3581 3.10029C44.4114 3.076 44.4671 3.0517 44.5229 3.02984C45.4243 2.62415 46.43 2.46381 47.4332 2.59014L54.1748 3.43311C55.0544 3.54243 55.8614 3.85824 56.5544 4.32709C57.3541 4.038 58.2168 3.9384 59.0795 4.04529L65.821 4.88826C66.1554 4.92956 66.4826 5.00244 66.7952 5.10204C67.1223 5.08261 67.4543 5.09232 67.7863 5.13362L74.5279 5.97659C75.4075 6.08591 76.2145 6.40172 76.9075 6.87058C77.7072 6.58149 78.5699 6.48189 79.4326 6.58878L86.1741 7.43175C86.5085 7.47305 86.8357 7.54593 87.1483 7.64553C87.4754 7.62609 87.8074 7.63581 88.1394 7.67711L94.881 8.52008C95.7606 8.6294 96.5676 8.94521 97.2606 9.41407C98.0603 9.12498 98.923 9.02538 99.7857 9.13227L106.527 9.97524C107.959 10.155 109.203 10.8814 110.063 11.9284C110.085 11.9211 110.106 11.9163 110.128 11.909C110.174 11.8944 110.223 11.8774 110.271 11.8628C110.332 11.8434 110.392 11.8215 110.453 11.8045C110.501 11.7875 110.55 11.7729 110.598 11.7584C110.654 11.7389 110.707 11.7219 110.763 11.7049C110.816 11.6879 110.867 11.6709 110.921 11.6539C110.974 11.6369 111.027 11.6175 111.081 11.6029C111.134 11.5859 111.187 11.5664 111.24 11.5519C111.294 11.5349 111.347 11.5154 111.4 11.4984C111.459 11.479 111.514 11.4595 111.572 11.4425C111.619 11.428 111.665 11.411 111.711 11.3964C111.766 11.3769 111.825 11.3575 111.88 11.3405C111.934 11.3211 111.989 11.3041 112.043 11.2871C112.096 11.2701 112.149 11.2506 112.203 11.2336C112.971 10.9737 113.795 10.8838 114.621 10.9858L126.878 12.5187C128.286 12.6936 129.51 13.3981 130.367 14.416C130.377 14.4136 130.389 14.4112 130.399 14.4063C130.452 14.3893 130.503 14.3747 130.556 14.3601C130.61 14.3431 130.665 14.3286 130.721 14.3116C130.775 14.2946 130.828 14.28 130.881 14.2654C130.932 14.2484 130.985 14.2338 131.039 14.2192C131.092 14.2022 131.145 14.1877 131.199 14.1731C131.249 14.1561 131.303 14.1415 131.356 14.1269C131.412 14.1099 131.47 14.0929 131.528 14.0759C131.579 14.0613 131.628 14.0468 131.678 14.0322C131.732 14.0152 131.785 14.0006 131.838 13.986C131.892 13.969 131.947 13.9544 132.001 13.9374C132.054 13.9204 132.107 13.9059 132.161 13.8913C132.214 13.8743 132.267 13.8597 132.323 13.8427C132.374 13.8257 132.422 13.8135 132.473 13.799C132.531 13.7795 132.592 13.7625 132.65 13.7455C133.392 13.5099 134.182 13.4321 134.972 13.5317L147.231 15.0646C149.96 15.4047 152.01 17.732 152.01 20.4893V41.3984C152.01 42.8559 151.428 44.2552 150.396 45.2804C149.96 45.7152 149.456 46.0675 148.91 46.3299C150.91 48.8952 150.931 52.4906 150.931 55.6268C150.931 64.0857 144.134 71.2327 134.08 72.598C134.06 72.6004 134.041 72.6028 134.022 72.6053L101.375 76.6841C98.5522 77.0631 95.8018 76.7764 93.2816 75.8751C93.2259 75.8557 93.1701 75.8387 93.1168 75.8193C93.0635 75.7998 93.0078 75.7828 92.9545 75.7634C92.8987 75.7439 92.8406 75.7245 92.7848 75.7051C92.7267 75.6856 92.6685 75.6662 92.6104 75.6468C92.557 75.6298 92.5061 75.6128 92.4528 75.5933C92.3971 75.5739 92.3414 75.5569 92.288 75.5374C92.2299 75.518 92.1693 75.4986 92.1111 75.4767C92.0578 75.4597 92.007 75.4427 91.9536 75.4233C91.8979 75.4038 91.8397 75.3868 91.7816 75.365C91.7234 75.3455 91.6653 75.3261 91.6095 75.3067C91.5586 75.2897 91.5053 75.2727 91.452 75.2532C91.3939 75.2338 91.3357 75.2168 91.28 75.1949C91.2242 75.1755 91.1685 75.1585 91.1152 75.139C91.0594 75.1196 91.0013 75.1026 90.9455 75.0832C90.8922 75.0637 90.8365 75.0492 90.7832 75.0297C90.7275 75.0103 90.6717 74.9933 90.616 74.9738C90.5578 74.9544 90.5021 74.9374 90.4439 74.9155C90.3906 74.8961 90.3373 74.8815 90.284 74.8621C90.2283 74.8427 90.1701 74.8257 90.1144 74.8062C90.0586 74.7868 90.0029 74.7698 89.9472 74.7504C89.8939 74.7309 89.8381 74.7163 89.7872 74.6969C89.7315 74.6775 89.6733 74.6605 89.6176 74.641C89.5619 74.6216 89.5037 74.6046 89.448 74.5852C89.3922 74.5657 89.3341 74.5487 89.2808 74.5293C89.2274 74.5098 89.1717 74.4953 89.1184 74.4758C89.0699 74.4613 89.0239 74.4443 88.9754 74.4297C88.9197 74.4127 88.864 74.3932 88.8082 74.3762C88.4132 74.2596 88.0231 74.1236 87.6402 73.9778C87.5893 73.9632 87.5384 73.9438 87.49 73.9292C87.4318 73.9122 87.3736 73.8928 87.3155 73.8734C87.2598 73.8564 87.204 73.8369 87.1483 73.8199C87.095 73.8054 87.0441 73.7859 86.9932 73.7713C86.935 73.7543 86.8793 73.7349 86.8211 73.7179C86.7678 73.7033 86.7169 73.6839 86.6636 73.6669C86.603 73.6499 86.5449 73.6304 86.4867 73.611C86.4334 73.594 86.3801 73.577 86.3268 73.56C86.2686 73.543 86.2129 73.5235 86.1572 73.5065C86.1039 73.4895 86.0505 73.4725 85.9972 73.4555C85.9439 73.4385 85.8906 73.4215 85.8373 73.4045C85.7767 73.3875 85.7161 73.3656 85.6555 73.3486C85.5998 73.3316 85.5465 73.3146 85.4908 73.2976C85.4374 73.2831 85.3866 73.2636 85.3333 73.249C85.2751 73.232 85.2169 73.2126 85.1612 73.1956C85.1055 73.1786 85.0521 73.1616 84.9964 73.1446C84.9843 73.1397 84.9698 73.1373 84.9576 73.1349V73.9074C84.9576 76.6646 82.91 78.9895 80.1789 79.332L61.9365 81.6107C61.4276 81.6739 60.9187 81.6642 60.4244 81.5889C59.9664 81.7832 59.4769 81.9193 58.9607 81.9848L52.2192 82.8278C51.2499 82.9493 50.2781 82.8011 49.3985 82.4245C49.3428 82.4027 49.2894 82.3784 49.2361 82.3541C49.1828 82.3322 49.1319 82.3104 49.0786 82.2861C49.0229 82.2642 48.9696 82.2399 48.9138 82.2156C48.8605 82.1962 48.8096 82.1719 48.7587 82.15C48.7248 82.1379 48.6909 82.1233 48.657 82.1087C47.8258 82.942 46.7232 83.5129 45.4776 83.6684L38.7361 84.5113C37.8758 84.6182 37.0107 84.5186 36.211 84.2295C35.518 84.6984 34.711 85.0142 33.8314 85.1235L27.0898 85.9665C26.8644 85.9956 26.6391 86.0078 26.4161 86.0078C25.5704 86.0078 24.7416 85.8086 23.9904 85.4345L3.63007 77.0825L3.61553 77.0752Z" fill="#68A4FF"/>
<path d="M26.4024 84.0592C25.5519 84.0592 24.7231 83.7482 24.0761 83.1773C23.32 82.5093 22.8887 81.5473 22.8887 80.5367V71.643C22.8887 71.0381 23.0413 70.4648 23.3127 69.9643C23.0365 69.4542 22.8887 68.8784 22.8887 68.2881V5.46857C22.8887 4.45797 23.3224 3.49597 24.0761 2.82791C24.8297 2.15985 25.8378 1.84646 26.8362 1.97279L39.0955 3.50568C40.2006 3.64415 41.1747 4.29764 41.7224 5.27179C42.2264 6.16821 42.7353 7.06462 43.2418 7.95861C43.2563 6.96745 43.6877 6.02974 44.4292 5.37139C45.1852 4.70333 46.1885 4.38995 47.1893 4.51628L53.9308 5.35925C54.8808 5.47828 55.7023 5.969 56.2572 6.67593C56.9866 6.11233 57.9123 5.85725 58.8331 5.97143L65.5747 6.8144C65.9164 6.85813 66.2387 6.94802 66.5416 7.0792C66.8687 7.02575 67.2055 7.01847 67.54 7.05976L74.2815 7.90273C75.2314 8.02177 76.0529 8.51249 76.6079 9.21942C77.3373 8.65582 78.263 8.40074 79.1838 8.51492L85.9254 9.35789C86.267 9.40162 86.5893 9.4915 86.8922 9.62268C87.2194 9.56924 87.5562 9.56195 87.8906 9.60325L94.6322 10.4462C95.5821 10.5653 96.4036 11.056 96.9585 11.7629C97.6904 11.1993 98.6136 10.9442 99.5369 11.0584L106.278 11.9014C108.038 12.12 109.358 13.6189 109.358 15.3972V16.2304C110.022 15.487 110.686 14.7534 111.346 14.0295C112.114 13.1865 113.243 12.7711 114.372 12.912L126.629 14.4449C128.388 14.6635 129.709 16.1624 129.709 17.9406V18.5383C130.419 17.8265 131.129 17.122 131.834 16.432C132.6 15.6838 133.664 15.3243 134.725 15.4555L146.985 16.9884C148.744 17.207 150.065 18.7059 150.065 20.4841V41.3932C150.065 42.3333 149.689 43.2346 149.025 43.8954C148.359 44.5562 147.457 44.9303 146.519 44.9157L144.719 44.8987C144.76 44.9303 144.801 44.9619 144.842 44.9959C148.16 47.5928 148.986 51.8149 148.986 55.6217C148.986 63.1282 142.926 69.4299 133.812 70.6664C133.8 70.6664 133.787 70.6688 133.775 70.6712L101.119 74.7525C96.6968 75.3477 92.4827 74.1136 89.2477 71.2786C85.8793 68.327 83.9455 63.8619 83.9455 59.0276C83.9455 54.1932 85.7824 49.6796 89.1192 46.3417C89.8341 45.6275 90.5974 44.9861 91.4044 44.4225L87.4278 44.3861C87.0861 44.3837 86.7565 44.3302 86.4464 44.2379C86.1289 44.3278 85.7969 44.3715 85.4649 44.3691L82.9011 44.3472C82.9738 44.629 83.0102 44.9206 83.0102 45.2169V54.7787C83.0102 56.659 81.5368 58.2089 79.6636 58.2963L76.9932 58.4227C77.3785 59.2316 77.439 60.1572 77.1701 61.005L79.1959 60.8301C80.1773 60.7451 81.1467 61.0779 81.8736 61.7435C82.6006 62.4092 83.0126 63.3517 83.0126 64.338V73.8998C83.0126 75.6756 81.6919 77.1745 79.9326 77.3956L61.6902 79.6743C61.1692 79.7399 60.6482 79.6864 60.1611 79.5261C59.7346 79.7982 59.2451 79.9804 58.7144 80.0459L51.9728 80.8889C50.972 81.0152 49.9688 80.7019 49.2127 80.0338C48.7983 79.667 48.4809 79.2103 48.2798 78.7074C48.0689 80.2719 46.8331 81.5303 45.2313 81.7295L38.4897 82.5724C37.5689 82.689 36.6432 82.4315 35.9114 81.8679C35.3564 82.5749 34.5349 83.0656 33.585 83.1846L26.8435 84.0276C26.6981 84.0446 26.5527 84.0543 26.4097 84.0543L26.4024 84.0592ZM108.963 59.2341C108.963 59.3069 108.971 59.3822 108.985 59.46C108.99 59.4891 108.995 59.5134 109 59.5377C109.075 59.4916 109.152 59.4235 109.223 59.3288C109.135 59.2972 109.051 59.2656 108.963 59.2316V59.2341Z" fill="white"/>
<path d="M33.1752 80.0563C30.9178 80.3395 28.6579 80.6203 26.4004 80.9034V71.9658C28.6579 71.751 30.9178 71.5362 33.1752 71.3189C33.1752 74.2314 33.1752 77.1438 33.1752 80.0563ZM38.7202 7.0053L26.4004 5.46484V68.5944C28.6579 68.404 30.9178 68.2136 33.1752 68.0231C33.1752 56.9616 33.1752 45.9001 33.1752 34.8386C37.0765 34.9484 40.9777 35.0583 44.879 35.1706C44.879 29.3603 44.879 23.5475 44.879 17.7373C42.8261 14.2315 40.7732 10.655 38.7202 7.0053ZM38.1041 23.7599C36.4628 23.6501 34.819 23.5402 33.1777 23.4304C33.1777 21.5286 33.1777 19.6268 33.1777 17.725C33.9983 17.7958 34.819 17.8666 35.6421 17.9374C36.4628 19.3802 37.2859 20.8109 38.1066 22.2292V23.7599H38.1041ZM46.8539 30.7762C48.9068 34.1648 50.9597 37.48 53.0127 40.7245L65.3325 40.8344V10.3304L58.5577 9.48322C58.5577 16.436 58.5577 23.3889 58.5577 30.3417C57.737 30.3026 56.9139 30.2636 56.0932 30.2245C55.2726 28.9086 54.4519 27.583 53.6288 26.2452V8.86802C51.3713 8.58482 49.1114 8.30408 46.8539 8.02088V30.7738V30.7762ZM67.3051 10.5769V40.8515C69.5625 40.871 71.8224 40.893 74.0799 40.9125V29.7436C75.7212 32.2142 77.365 34.6359 79.0064 37.0138V40.9565C81.2638 40.976 83.5237 40.998 85.7812 41.0175V12.8864C83.5237 12.6032 81.2638 12.3225 79.0064 12.0393V22.9934C77.365 20.5228 75.7212 18.0082 74.0799 15.4449V11.4241C71.8224 11.1409 69.5625 10.8601 67.3051 10.5769ZM96.9955 23.2302C96.1748 23.1594 95.3541 23.0886 94.531 23.0178V13.9801C92.2735 13.6969 90.0136 13.4162 87.7562 13.133V41.0346C90.0136 41.0541 92.2735 41.0761 94.531 41.0956V32.0579C95.3517 32.097 96.1723 32.136 96.9955 32.1751C97.8161 33.2981 98.6392 34.4089 99.4599 35.5099V41.1396C101.717 41.1591 103.977 41.1811 106.235 41.2006V32.6145C105.105 31.1302 103.977 29.6239 102.847 28.0957C103.977 26.7188 105.105 25.3639 106.235 24.0285V15.4424C103.977 15.1592 101.717 14.8785 99.4599 14.5953V20.2249C98.6392 21.2161 97.8161 22.217 96.9955 23.2302ZM117.447 24.9952C120.527 25.2613 123.605 25.5274 126.686 25.7935V17.9985C122.58 17.4858 118.474 16.9731 114.366 16.458C112.313 18.7089 110.26 21.0306 108.207 23.4255C108.207 29.3554 108.207 35.2878 108.207 41.2177C114.366 41.2738 120.527 41.3275 126.686 41.3837V29.6923C124.428 29.5409 122.168 29.3896 119.911 29.2382V33.2664C118.27 33.1882 116.626 33.1101 114.985 33.032C114.985 31.2816 114.985 29.5336 114.985 27.7832C115.805 26.8433 116.626 25.9132 117.449 24.9977L117.447 24.9952ZM134.82 19.0141C132.767 21.0232 130.714 23.1057 128.661 25.2613C128.661 30.642 128.661 36.0201 128.661 41.4008C130.918 41.4203 133.178 41.4423 135.436 41.4618V37.7339C137.077 37.7803 138.721 37.8267 140.362 37.8731V41.5057C142.62 41.5253 144.879 41.5473 147.137 41.5668V20.5545L134.817 19.0141H134.82ZM140.362 30.6053C138.721 30.4955 137.077 30.3856 135.436 30.2758V29.2577C136.256 28.4131 137.077 27.5806 137.9 26.7579C138.721 26.8287 139.544 26.8995 140.365 26.9703V30.6029L140.362 30.6053ZM38.1017 45.778V79.4411C40.3592 79.1579 42.6191 78.8772 44.8765 78.594C44.8765 74.2777 44.8765 69.9591 44.8765 65.6429C46.0065 67.3786 47.134 69.0949 48.2639 70.7891C49.3939 68.8727 50.5214 66.9783 51.6514 65.1058V77.7468C53.9088 77.4636 56.1687 77.1829 58.4262 76.8997V45.5949C56.1687 45.6145 53.9088 45.6364 51.6514 45.656V49.5449C50.5214 51.354 49.3939 53.1849 48.2639 55.0379C47.134 53.2801 46.0065 51.5029 44.8765 49.7012C44.8765 48.3731 44.8765 47.0451 44.8765 45.717C42.6191 45.7365 40.3592 45.7585 38.1017 45.778ZM79.7515 45.4045C73.6415 45.4582 67.5315 45.5144 61.4191 45.5681V55.8874C62.549 57.5524 63.6766 59.1978 64.8065 60.8213C63.6766 62.5937 62.549 64.3905 61.4191 66.2068V76.5262C67.5291 75.7621 73.6391 74.9979 79.7515 74.2363V64.6273C76.7197 64.8885 73.6902 65.1497 70.6584 65.4109C71.7883 63.6532 72.9158 61.9175 74.0458 60.2037C72.9158 58.6412 71.7883 57.0568 70.6584 55.4505C73.6902 55.3064 76.7197 55.1624 79.7515 55.0183V45.4094V45.4045ZM133.865 44.9211C122.921 45.0188 111.977 45.1164 101.031 45.2141C93.6981 45.1994 87.7562 51.498 87.7562 59.2833C87.7562 67.0686 93.6981 72.5713 101.031 71.5752C111.975 70.2081 122.919 68.841 133.865 67.4714C141.197 66.4754 146.056 61.583 146.056 55.8606C146.056 50.1382 141.195 44.9333 133.865 44.9211ZM113.431 58.2702C113.402 58.6168 113.375 58.9635 113.346 59.3126C113.341 59.3102 113.336 59.3077 113.333 59.3077C113.333 59.3077 113.331 59.3077 113.329 59.3077C113.027 63.7973 106.797 65.3084 105.916 60.3404C105.677 58.9952 106.006 57.6379 106.722 56.6247C104.895 55.8337 103.069 55.0037 101.235 54.1151C101.398 53.5877 101.562 53.0702 101.725 52.5526C105.672 54.3055 109.605 55.8582 113.516 57.2204C113.489 57.5695 113.46 57.9186 113.431 58.2653V58.2702ZM128.982 58.5607C128.101 63.121 121.871 63.0282 121.569 58.6901C121.569 58.6901 121.569 58.6901 121.565 58.6901C121.562 58.6901 121.557 58.6925 121.552 58.6949C121.526 58.3629 121.496 58.0333 121.467 57.7038C121.438 57.3718 121.411 57.0422 121.382 56.7077C125.295 54.8938 129.226 53.0677 133.173 51.2539C133.336 51.686 133.5 52.1181 133.663 52.5551C131.829 53.4803 130 54.3983 128.176 55.3235C128.89 56.156 129.221 57.3205 128.982 58.5607Z" fill="#68A4FF"/>
</g>
<defs>
<clipPath id="clip0_3920_25317">
<rect width="152" height="86" fill="white"/>
</clipPath>
</defs>
</svg>
