<svg width="131" height="237" viewBox="0 0 131 237" fill="none" xmlns="http://www.w3.org/2000/svg">
<path d="M59.7324 96.2695H71.0106V235.272C71.0106 237.522 59.7324 237.522 59.7324 235.272V96.2695Z" fill="url(#paint0_linear_3976_17948)"/>
<path style="mix-blend-mode:multiply" d="M59.7324 119.254C61.5806 119.476 63.4617 119.593 65.3715 119.593C67.2814 119.593 69.1625 119.478 71.0106 119.254V96.2695H59.7324V119.254Z" fill="url(#paint1_linear_3976_17948)"/>
<path d="M98.0562 96.7323C116.108 78.9244 116.108 50.0522 98.0562 32.2443C80.0045 14.4364 50.7371 14.4364 32.6854 32.2443C14.6338 50.0521 14.6337 78.9244 32.6854 96.7323C50.737 114.54 80.0046 114.54 98.0562 96.7323Z" fill="url(#paint2_linear_3976_17948)"/>
<g filter="url(#filter0_d_3976_17948)">
<mask id="path-4-outside-1_3976_17948" maskUnits="userSpaceOnUse" x="52" y="49" width="26" height="29" fill="black">
<rect fill="white" x="52" y="49" width="26" height="29"/>
<path d="M60.02 76.54C58.82 76.54 57.752 76.228 56.816 75.604C55.88 74.98 55.16 74.092 54.656 72.94C54.152 71.788 53.9 70.468 53.9 68.98V57.82C53.9 56.332 54.152 55.012 54.656 53.86C55.16 52.708 55.88 51.82 56.816 51.196C57.752 50.572 58.82 50.26 60.02 50.26C61.22 50.26 62.288 50.572 63.224 51.196C64.16 51.82 64.88 52.708 65.384 53.86C65.888 55.012 66.14 56.332 66.14 57.82V68.98C66.14 70.468 65.888 71.788 65.384 72.94C64.88 74.092 64.16 74.98 63.224 75.604C62.288 76.228 61.22 76.54 60.02 76.54ZM60.02 72.22C60.284 72.22 60.464 72.052 60.56 71.716C60.68 71.38 60.74 70.768 60.74 69.88V56.92C60.74 56.032 60.68 55.42 60.56 55.084C60.464 54.748 60.284 54.58 60.02 54.58C59.756 54.58 59.564 54.748 59.444 55.084C59.348 55.42 59.3 56.032 59.3 56.92V69.88C59.3 70.768 59.348 71.38 59.444 71.716C59.564 72.052 59.756 72.22 60.02 72.22ZM71.3473 76V56.92L68.1073 59.44H67.5673V54.22L71.8873 50.8H76.7473V76H71.3473Z"/>
</mask>
<path d="M60.02 76.54C58.82 76.54 57.752 76.228 56.816 75.604C55.88 74.98 55.16 74.092 54.656 72.94C54.152 71.788 53.9 70.468 53.9 68.98V57.82C53.9 56.332 54.152 55.012 54.656 53.86C55.16 52.708 55.88 51.82 56.816 51.196C57.752 50.572 58.82 50.26 60.02 50.26C61.22 50.26 62.288 50.572 63.224 51.196C64.16 51.82 64.88 52.708 65.384 53.86C65.888 55.012 66.14 56.332 66.14 57.82V68.98C66.14 70.468 65.888 71.788 65.384 72.94C64.88 74.092 64.16 74.98 63.224 75.604C62.288 76.228 61.22 76.54 60.02 76.54ZM60.02 72.22C60.284 72.22 60.464 72.052 60.56 71.716C60.68 71.38 60.74 70.768 60.74 69.88V56.92C60.74 56.032 60.68 55.42 60.56 55.084C60.464 54.748 60.284 54.58 60.02 54.58C59.756 54.58 59.564 54.748 59.444 55.084C59.348 55.42 59.3 56.032 59.3 56.92V69.88C59.3 70.768 59.348 71.38 59.444 71.716C59.564 72.052 59.756 72.22 60.02 72.22ZM71.3473 76V56.92L68.1073 59.44H67.5673V54.22L71.8873 50.8H76.7473V76H71.3473Z" fill="#3B86F7"/>
<path d="M56.816 75.604L57.3707 74.7719L56.816 75.604ZM54.656 72.94L55.5722 72.5392L54.656 72.94ZM54.656 53.86L55.5722 54.2608H55.5722L54.656 53.86ZM56.816 51.196L57.3707 52.0281L57.3707 52.028L56.816 51.196ZM63.224 51.196L62.6693 52.028L62.6693 52.0281L63.224 51.196ZM65.384 53.86L64.4678 54.2608L65.384 53.86ZM63.224 75.604L62.6693 74.7719L63.224 75.604ZM60.56 71.716L59.6183 71.3797L59.6074 71.4102L59.5985 71.4413L60.56 71.716ZM60.56 55.084L59.5985 55.3587L59.6074 55.3898L59.6183 55.4203L60.56 55.084ZM59.444 55.084L58.5023 54.7477L58.4914 54.7781L58.4825 54.8093L59.444 55.084ZM59.444 71.716L58.4825 71.9907L58.4914 72.0218L58.5023 72.0523L59.444 71.716ZM60.02 75.54C59.0036 75.54 58.1313 75.279 57.3707 74.7719L56.2613 76.4361C57.3727 77.177 58.6364 77.54 60.02 77.54V75.54ZM57.3707 74.7719C56.6123 74.2663 56.0088 73.5371 55.5722 72.5392L53.7398 73.3408C54.3112 74.6469 55.1477 75.6936 56.2613 76.4361L57.3707 74.7719ZM55.5722 72.5392C55.1326 71.5346 54.9 70.355 54.9 68.98H52.9C52.9 70.581 53.1714 72.0414 53.7398 73.3408L55.5722 72.5392ZM54.9 68.98V57.82H52.9V68.98H54.9ZM54.9 57.82C54.9 56.445 55.1326 55.2654 55.5722 54.2608L53.7398 53.4592C53.1714 54.7586 52.9 56.219 52.9 57.82H54.9ZM55.5722 54.2608C56.0088 53.2629 56.6123 52.5336 57.3707 52.0281L56.2613 50.3639C55.1477 51.1063 54.3112 52.1531 53.7398 53.4592L55.5722 54.2608ZM57.3707 52.028C58.1313 51.521 59.0036 51.26 60.02 51.26V49.26C58.6364 49.26 57.3727 49.623 56.2613 50.3639L57.3707 52.028ZM60.02 51.26C61.0364 51.26 61.9087 51.521 62.6693 52.028L63.7787 50.3639C62.6673 49.623 61.4036 49.26 60.02 49.26V51.26ZM62.6693 52.0281C63.4277 52.5336 64.0312 53.2629 64.4678 54.2608L66.3002 53.4592C65.7288 52.1531 64.8923 51.1063 63.7787 50.3639L62.6693 52.0281ZM64.4678 54.2608C64.9074 55.2654 65.14 56.445 65.14 57.82H67.14C67.14 56.219 66.8686 54.7586 66.3002 53.4592L64.4678 54.2608ZM65.14 57.82V68.98H67.14V57.82H65.14ZM65.14 68.98C65.14 70.355 64.9074 71.5346 64.4678 72.5392L66.3002 73.3408C66.8686 72.0414 67.14 70.581 67.14 68.98H65.14ZM64.4678 72.5392C64.0312 73.5371 63.4277 74.2663 62.6693 74.7719L63.7787 76.4361C64.8923 75.6936 65.7288 74.6469 66.3002 73.3408L64.4678 72.5392ZM62.6693 74.7719C61.9087 75.279 61.0364 75.54 60.02 75.54V77.54C61.4036 77.54 62.6673 77.177 63.7787 76.4361L62.6693 74.7719ZM60.02 73.22C60.3853 73.22 60.746 73.0951 61.0353 72.8251C61.3025 72.5757 61.4435 72.2639 61.5215 71.9907L59.5985 71.4413C59.5805 71.5041 59.5835 71.4443 59.6707 71.3629C59.7172 71.3195 59.7776 71.28 59.8484 71.2532C59.9179 71.2269 59.9786 71.22 60.02 71.22V73.22ZM61.5017 72.0523C61.6867 71.5345 61.74 70.7616 61.74 69.88H59.74C59.74 70.7744 59.6733 71.2255 59.6183 71.3797L61.5017 72.0523ZM61.74 69.88V56.92H59.74V69.88H61.74ZM61.74 56.92C61.74 56.0384 61.6867 55.2655 61.5017 54.7477L59.6183 55.4203C59.6733 55.5745 59.74 56.0256 59.74 56.92H61.74ZM61.5215 54.8093C61.4435 54.5361 61.3025 54.2243 61.0353 53.9749C60.746 53.7049 60.3853 53.58 60.02 53.58V55.58C59.9786 55.58 59.9179 55.5731 59.8484 55.5468C59.7776 55.52 59.7172 55.4805 59.6707 55.4371C59.5835 55.3557 59.5805 55.2959 59.5985 55.3587L61.5215 54.8093ZM60.02 53.58C59.655 53.58 59.3046 53.7039 59.0195 53.9534C58.7541 54.1857 58.598 54.4797 58.5023 54.7477L60.3857 55.4203C60.41 55.3523 60.4099 55.3943 60.3365 55.4586C60.2971 55.493 60.2446 55.5265 60.1812 55.5498C60.1183 55.573 60.0617 55.58 60.02 55.58V53.58ZM58.4825 54.8093C58.3433 55.2963 58.3 56.0388 58.3 56.92H60.3C60.3 56.0252 60.3527 55.5437 60.4055 55.3587L58.4825 54.8093ZM58.3 56.92V69.88H60.3V56.92H58.3ZM58.3 69.88C58.3 70.7612 58.3433 71.5037 58.4825 71.9907L60.4055 71.4413C60.3527 71.2563 60.3 70.7748 60.3 69.88H58.3ZM58.5023 72.0523C58.598 72.3203 58.7541 72.6143 59.0195 72.8466C59.3046 73.0961 59.655 73.22 60.02 73.22V71.22C60.0617 71.22 60.1183 71.227 60.1812 71.2502C60.2446 71.2735 60.2971 71.307 60.3365 71.3414C60.4099 71.4057 60.41 71.4477 60.3857 71.3797L58.5023 72.0523ZM71.3473 76H70.3473V77H71.3473V76ZM71.3473 56.92H72.3473V54.8754L70.7334 56.1306L71.3473 56.92ZM68.1073 59.44V60.44H68.4505L68.7213 60.2294L68.1073 59.44ZM67.5673 59.44H66.5673V60.44H67.5673V59.44ZM67.5673 54.22L66.9466 53.436L66.5673 53.7362V54.22H67.5673ZM71.8873 50.8V49.8H71.5394L71.2666 50.016L71.8873 50.8ZM76.7473 50.8H77.7473V49.8H76.7473V50.8ZM76.7473 76V77H77.7473V76H76.7473ZM72.3473 76V56.92H70.3473V76H72.3473ZM70.7334 56.1306L67.4934 58.6506L68.7213 60.2294L71.9613 57.7094L70.7334 56.1306ZM68.1073 58.44H67.5673V60.44H68.1073V58.44ZM68.5673 59.44V54.22H66.5673V59.44H68.5673ZM68.188 55.004L72.508 51.584L71.2666 50.016L66.9466 53.436L68.188 55.004ZM71.8873 51.8H76.7473V49.8H71.8873V51.8ZM75.7473 50.8V76H77.7473V50.8H75.7473ZM76.7473 75H71.3473V77H76.7473V75Z" fill="black" mask="url(#path-4-outside-1_3976_17948)"/>
</g>
<path d="M65.3707 104.383C43.0715 104.383 24.9297 86.4866 24.9297 64.4886C24.9297 42.4906 43.0715 24.5938 65.3707 24.5938C87.6698 24.5938 105.812 42.4906 105.812 64.4886C105.812 86.4866 87.6698 104.383 65.3707 104.383ZM65.3707 29.4948C45.8108 29.4948 29.8978 45.1929 29.8978 64.4886C29.8978 83.7843 45.8108 99.4824 65.3707 99.4824C84.9305 99.4824 100.843 83.7843 100.843 64.4886C100.843 45.1929 84.9305 29.4948 65.3707 29.4948Z" fill="#3B86F7"/>
<defs>
<filter id="filter0_d_3976_17948" x="53.9004" y="50.2617" width="23.8477" height="27.2773" filterUnits="userSpaceOnUse" color-interpolation-filters="sRGB">
<feFlood flood-opacity="0" result="BackgroundImageFix"/>
<feColorMatrix in="SourceAlpha" type="matrix" values="0 0 0 0 0 0 0 0 0 0 0 0 0 0 0 0 0 0 127 0" result="hardAlpha"/>
<feOffset dx="1" dy="1"/>
<feComposite in2="hardAlpha" operator="out"/>
<feColorMatrix type="matrix" values="0 0 0 0 0 0 0 0 0 0 0 0 0 0 0 0 0 0 1 0"/>
<feBlend mode="normal" in2="BackgroundImageFix" result="effect1_dropShadow_3976_17948"/>
<feBlend mode="normal" in="SourceGraphic" in2="effect1_dropShadow_3976_17948" result="shape"/>
</filter>
<linearGradient id="paint0_linear_3976_17948" x1="59.9012" y1="166.614" x2="69.3765" y2="166.614" gradientUnits="userSpaceOnUse">
<stop stop-color="#8D8F91"/>
<stop offset="1" stop-color="#6E6F71"/>
</linearGradient>
<linearGradient id="paint1_linear_3976_17948" x1="59.9012" y1="107.931" x2="69.3765" y2="107.931" gradientUnits="userSpaceOnUse">
<stop stop-color="#8D8F91"/>
<stop offset="1" stop-color="#6E6F71"/>
</linearGradient>
<linearGradient id="paint2_linear_3976_17948" x1="65.3709" y1="18.8883" x2="65.3709" y2="110.088" gradientUnits="userSpaceOnUse">
<stop stop-color="#EAEBEC"/>
<stop offset="1" stop-color="#E6E6E7"/>
</linearGradient>
</defs>
</svg>
