<svg width="160" height="151" viewBox="0 0 160 151" fill="none" xmlns="http://www.w3.org/2000/svg">
<path d="M31.48 60.27C31.61 59.9 31.74 59.52 31.87 59.15C32.01 58.78 32.16 58.41 32.3 58.04C32.6 57.27 32.9 56.48 33.24 55.77C33.57 55.04 33.88 54.29 34.28 53.56C34.66 52.83 35.02 52.07 35.45 51.35C35.88 50.63 36.27 49.88 36.75 49.18C37.21 48.47 37.64 47.73 38.14 47.04C40.07 44.22 42.33 41.56 44.84 39.17C47.32 36.75 50.05 34.58 52.93 32.73C53.91 32.11 54.9 31.53 55.9 30.97C56.83 32.19 57.65 33.21 58.27 33.94C59 34.81 59.45 35.28 59.45 35.28C59.45 35.28 59.27 34.65 58.88 33.59C58.56 32.7 58.09 31.49 57.51 30.09C58.94 29.35 60.38 28.67 61.83 28.09C64.86 26.88 67.89 25.94 70.84 25.31C73.78 24.69 76.62 24.33 79.26 24.17C81.9 24.01 84.33 24.11 86.49 24.23C87.56 24.34 88.58 24.42 89.51 24.55C90.44 24.69 91.3 24.78 92.07 24.93C92.84 25.07 93.53 25.2 94.12 25.31C94.72 25.43 95.22 25.56 95.63 25.65C96.45 25.84 96.89 25.94 96.89 25.94C96.89 25.94 96.47 25.77 95.69 25.46C95.3 25.31 94.81 25.11 94.24 24.89C93.66 24.69 92.99 24.47 92.23 24.23C91.48 23.98 90.62 23.78 89.7 23.53C88.77 23.28 87.75 23.11 86.67 22.88C84.48 22.53 81.99 22.17 79.24 22.13C76.49 22.07 73.5 22.21 70.38 22.7C67.25 23.18 63.98 23.96 60.73 25.17C59.22 25.73 57.7 26.36 56.2 27.07C55.65 25.88 55.05 24.63 54.38 23.33C53.84 22.26 53.27 21.17 52.66 20.07C52.07 18.96 51.43 17.86 50.8 16.75C50.15 15.65 49.51 14.55 48.85 13.49C48.2 12.42 47.53 11.38 46.88 10.38C45.57 8.38 44.29 6.54 43.14 5C41.99 3.46 40.98 2.2 40.25 1.34C39.52 0.47 39.07 0 39.07 0C39.07 0 39.26 0.629999 39.64 1.69C40.02 2.76 40.61 4.26 41.37 6.02C42.13 7.78 43.08 9.81 44.17 11.94C44.71 13.01 45.28 14.1 45.88 15.2C46.47 16.31 47.11 17.41 47.74 18.52C48.39 19.62 49.03 20.72 49.69 21.78C50.34 22.85 51.01 23.89 51.66 24.89C52.43 26.07 53.19 27.18 53.92 28.21C52.98 28.72 52.04 29.24 51.13 29.82C48.04 31.76 45.09 34.04 42.41 36.61C39.76 39.2 37.38 42.08 35.35 45.11C33.3 48.15 31.7 51.34 30.39 54.6C30.04 55.42 29.77 56.21 29.5 56.99C29.36 57.39 29.22 57.79 29.09 58.19C28.97 58.59 28.86 59 28.74 59.4C28.28 61 27.92 62.59 27.62 64.14C27.45 65 27.32 65.86 27.2 66.7C26.22 66.39 25.18 66.07 24.09 65.76C23.08 65.48 22.04 65.2 20.98 64.94C19.92 64.67 18.83 64.44 17.75 64.19C16.66 63.97 15.57 63.74 14.5 63.55C13.42 63.35 12.36 63.18 11.33 63.02C9.27002 62.71 7.32002 62.49 5.65002 62.36C3.97002 62.22 2.56001 62.18 1.57001 62.17C0.580007 62.16 0 62.19 0 62.19C0 62.19 0.509983 62.46 1.41998 62.85C2.32998 63.25 3.63003 63.79 5.22003 64.35C6.80003 64.92 8.65998 65.51 10.67 66.08C11.67 66.36 12.72 66.64 13.78 66.9C14.84 67.17 15.93 67.41 17.01 67.65C18.1 67.87 19.19 68.1 20.26 68.29C21.33 68.49 22.4 68.66 23.43 68.82C24.65 69 25.82 69.15 26.92 69.27C26.82 70.54 26.76 71.77 26.75 72.96C26.71 75.71 26.94 78.22 27.27 80.41C27.59 82.61 28.01 84.49 28.44 86.02C28.63 86.79 28.85 87.46 29.04 88.05C29.22 88.64 29.39 89.13 29.55 89.52C29.84 90.31 30 90.73 30 90.73C30 90.73 29.91 90.29 29.74 89.46C29.65 89.05 29.55 88.54 29.46 87.94C29.36 87.34 29.24 86.65 29.14 85.88C28.9 84.34 28.74 82.45 28.63 80.29C28.53 78.13 28.57 75.69 28.79 73.06C28.89 71.91 29.05 70.71 29.24 69.49C30.86 69.62 32.23 69.66 33.2 69.67C34.19 69.68 34.77 69.65 34.77 69.65C34.77 69.65 34.26 69.38 33.35 68.98C32.45 68.58 31.16 68.05 29.59 67.49C29.77 66.56 29.97 65.63 30.2 64.68C30.57 63.22 30.99 61.74 31.52 60.25L31.48 60.27Z" fill="#FFEA88"/>
<path d="M101.621 34.6406C102.231 33.9906 103.071 33.0406 104.011 31.8606C104.951 30.6806 105.991 29.2806 107.031 27.7306C107.551 26.9606 108.081 26.1506 108.591 25.3206C109.111 24.4906 109.611 23.6406 110.121 22.7806C110.611 21.9206 111.101 21.0506 111.561 20.1906C112.021 19.3306 112.461 18.4706 112.871 17.6306C113.691 15.9506 114.391 14.3506 114.941 12.9506C115.501 11.5506 115.901 10.3506 116.161 9.50063C116.421 8.65063 116.541 8.14062 116.541 8.14062C116.541 8.14062 116.161 8.49062 115.551 9.15062C114.941 9.80062 114.101 10.7506 113.171 11.9306C112.231 13.1106 111.201 14.5106 110.151 16.0606C109.631 16.8306 109.101 17.6406 108.581 18.4706C108.061 19.3006 107.551 20.1506 107.051 21.0106C106.561 21.8706 106.071 22.7306 105.611 23.6006C105.141 24.4606 104.711 25.3206 104.301 26.1606C103.481 27.8406 102.781 29.4406 102.231 30.8406C101.671 32.2406 101.271 33.4406 101.011 34.2906C100.751 35.1406 100.631 35.6506 100.631 35.6506C100.631 35.6506 101.011 35.3006 101.621 34.6506V34.6406Z" fill="#FFEA88"/>
<path d="M79.7701 118.579C79.7701 118.579 79.8501 118.579 79.8901 118.579C79.9301 118.579 79.9701 118.579 80.0101 118.579C103.82 118.579 123.12 99.2794 123.12 75.4694C123.12 51.6594 103.82 32.3594 80.0101 32.3594C79.9701 32.3594 79.9301 32.3594 79.8901 32.3594C79.8501 32.3594 79.8101 32.3594 79.7701 32.3594C55.9601 32.3594 36.6602 51.6594 36.6602 75.4694C36.6602 99.2794 55.9601 118.579 79.7701 118.579Z" fill="#FFEA88"/>
<path d="M58.17 116.291C57.56 116.941 56.72 117.891 55.78 119.071C54.84 120.251 53.8 121.651 52.76 123.201C52.24 123.971 51.71 124.781 51.2 125.611C50.68 126.441 50.18 127.291 49.67 128.151C49.18 129.011 48.69 129.881 48.23 130.741C47.77 131.601 47.33 132.461 46.92 133.301C46.1 134.981 45.4 136.581 44.85 137.981C44.29 139.381 43.89 140.581 43.63 141.431C43.37 142.281 43.25 142.791 43.25 142.791C43.25 142.791 43.63 142.441 44.24 141.781C44.85 141.131 45.69 140.181 46.62 139.001C47.56 137.821 48.59 136.421 49.64 134.871C50.16 134.101 50.69 133.291 51.21 132.461C51.73 131.631 52.24 130.781 52.74 129.921C53.23 129.061 53.72 128.201 54.18 127.331C54.65 126.471 55.08 125.611 55.49 124.771C56.31 123.091 57.01 121.491 57.56 120.091C58.12 118.691 58.52 117.491 58.78 116.641C59.04 115.791 59.16 115.281 59.16 115.281C59.16 115.281 58.78 115.631 58.17 116.281V116.291Z" fill="#FFEA88"/>
<path d="M158.41 88.0597C157.5 87.6597 156.2 87.1197 154.61 86.5597C153.03 85.9897 151.17 85.3997 149.16 84.8297C148.16 84.5497 147.11 84.2697 146.05 84.0097C144.99 83.7397 143.9 83.4997 142.82 83.2597C141.73 83.0397 140.64 82.8097 139.57 82.6197C138.5 82.4197 137.43 82.2497 136.4 82.0897C135.18 81.9097 134.01 81.7597 132.91 81.6397C133.01 80.3697 133.07 79.1397 133.08 77.9497C133.12 75.1997 132.89 72.6897 132.56 70.4997C132.24 68.2997 131.82 66.4197 131.39 64.8897C131.2 64.1197 130.98 63.4497 130.79 62.8597C130.61 62.2697 130.44 61.7797 130.28 61.3897C129.99 60.5997 129.83 60.1797 129.83 60.1797C129.83 60.1797 129.92 60.6197 130.09 61.4497C130.18 61.8597 130.28 62.3697 130.37 62.9697C130.47 63.5697 130.59 64.2597 130.69 65.0297C130.93 66.5697 131.09 68.4597 131.2 70.6197C131.3 72.7797 131.26 75.2197 131.04 77.8497C130.94 78.9997 130.78 80.1997 130.59 81.4197C128.97 81.2897 127.6 81.2497 126.63 81.2397C125.64 81.2297 125.06 81.2597 125.06 81.2597C125.06 81.2597 125.57 81.5297 126.48 81.9297C127.38 82.3297 128.67 82.8597 130.24 83.4197C130.06 84.3497 129.86 85.2797 129.63 86.2297C129.26 87.6897 128.84 89.1697 128.31 90.6597C128.18 91.0297 128.05 91.4097 127.92 91.7797C127.78 92.1497 127.63 92.5197 127.49 92.8897C127.19 93.6597 126.89 94.4497 126.55 95.1597C126.22 95.8897 125.91 96.6397 125.51 97.3697C125.13 98.0997 124.77 98.8597 124.34 99.5797C123.91 100.3 123.52 101.05 123.04 101.75C122.58 102.46 122.15 103.2 121.65 103.89C119.72 106.71 117.46 109.36 114.95 111.76C112.47 114.18 109.74 116.35 106.86 118.2C105.88 118.82 104.89 119.4 103.89 119.96C102.96 118.74 102.14 117.72 101.52 116.99C100.79 116.12 100.34 115.65 100.34 115.65C100.34 115.65 100.52 116.28 100.91 117.34C101.23 118.23 101.7 119.44 102.28 120.84C100.85 121.58 99.4104 122.26 97.9604 122.84C94.9304 124.05 91.9004 124.99 88.9504 125.62C86.0104 126.24 83.1704 126.6 80.5304 126.76C77.8904 126.92 75.4604 126.82 73.3004 126.71C72.2304 126.6 71.2104 126.52 70.2804 126.39C69.3504 126.25 68.4904 126.16 67.7204 126.01C66.9504 125.87 66.2603 125.74 65.6703 125.63C65.0703 125.51 64.5704 125.38 64.1604 125.29C63.3404 125.1 62.9004 125 62.9004 125C62.9004 125 63.3203 125.17 64.1003 125.48C64.4903 125.63 64.9804 125.83 65.5504 126.05C66.1304 126.25 66.8004 126.47 67.5604 126.71C68.3104 126.96 69.1704 127.16 70.0904 127.41C71.0204 127.66 72.0404 127.83 73.1204 128.06C75.3104 128.41 77.8004 128.77 80.5504 128.81C83.3004 128.87 86.2904 128.73 89.4104 128.24C92.5404 127.76 95.8104 126.98 99.0604 125.77C100.57 125.21 102.09 124.58 103.59 123.87C104.14 125.06 104.74 126.31 105.41 127.61C105.95 128.68 106.52 129.77 107.13 130.87C107.72 131.98 108.36 133.08 108.99 134.19C109.64 135.29 110.28 136.39 110.94 137.45C111.59 138.52 112.26 139.56 112.91 140.56C114.22 142.56 115.5 144.4 116.65 145.94C117.8 147.48 118.81 148.74 119.54 149.6C120.27 150.47 120.72 150.94 120.72 150.94C120.72 150.94 120.53 150.31 120.15 149.25C119.77 148.18 119.18 146.68 118.42 144.92C117.66 143.15 116.71 141.13 115.62 139C115.08 137.93 114.51 136.84 113.91 135.74C113.32 134.63 112.68 133.53 112.05 132.42C111.4 131.32 110.76 130.22 110.1 129.16C109.45 128.09 108.78 127.05 108.13 126.05C107.36 124.87 106.6 123.76 105.87 122.73C106.81 122.22 107.75 121.7 108.66 121.12C111.75 119.18 114.7 116.9 117.38 114.33C120.03 111.74 122.41 108.86 124.44 105.83C126.49 102.79 128.09 99.5997 129.4 96.3397C129.75 95.5197 130.02 94.7297 130.29 93.9497C130.43 93.5497 130.57 93.1497 130.7 92.7497C130.82 92.3497 130.93 91.9397 131.05 91.5397C131.51 89.9397 131.87 88.3497 132.17 86.7997C132.34 85.9397 132.47 85.0797 132.59 84.2397C133.57 84.5497 134.61 84.8697 135.7 85.1797C136.71 85.4597 137.75 85.7397 138.81 85.9997C139.87 86.2697 140.96 86.4997 142.04 86.7497C143.13 86.9697 144.22 87.1997 145.29 87.3897C146.37 87.5897 147.43 87.7597 148.46 87.9197C150.52 88.2297 152.47 88.4497 154.14 88.5797C155.82 88.7197 157.23 88.7597 158.22 88.7697C159.21 88.7797 159.79 88.7497 159.79 88.7497C159.79 88.7497 159.28 88.4797 158.37 88.0897L158.41 88.0597Z" fill="#FFEA88"/>
<g style="mix-blend-mode:screen">
<path d="M98.2898 45.5117C98.2898 45.5117 98.6799 45.6917 99.4099 46.0117C100.13 46.3317 101.19 46.8717 102.49 47.6817C103.75 48.5117 105.31 49.5417 106.89 51.0017C108.49 52.4317 110.17 54.2217 111.71 56.4217C113.26 58.6117 114.7 61.2017 115.8 64.1217C116.9 67.0417 117.68 70.3017 117.95 73.7417C117.98 74.1717 118.01 74.6017 118.04 75.0417V75.2017L118.06 75.2817V75.3217C118.06 75.4117 118.06 75.1817 118.06 75.5317V75.8317L118.05 76.4317C118.04 77.2317 118.02 78.0417 118.01 78.8517C117.97 79.6917 117.82 80.6817 117.72 81.6017L117.53 83.0117C117.45 83.4717 117.33 83.9017 117.23 84.3517C116.55 87.9517 115.05 91.4017 113.28 94.6617L111.82 97.0317C111.28 97.7817 110.71 98.5117 110.15 99.2517C109.62 100.012 108.98 100.682 108.35 101.342C107.7 101.992 107.13 102.712 106.42 103.292C105.73 103.892 105.05 104.492 104.37 105.082C103.66 105.642 102.91 106.132 102.18 106.652L101.09 107.412L99.9398 108.072C99.1698 108.502 98.4198 108.942 97.6498 109.322C96.0598 109.982 94.5498 110.762 92.9398 111.172C92.1498 111.402 91.3798 111.682 90.5898 111.862C89.7998 112.022 89.0198 112.172 88.2498 112.322C87.8698 112.392 87.4898 112.472 87.1098 112.532C86.7298 112.562 86.3498 112.602 85.9698 112.632C85.2198 112.692 84.4798 112.752 83.7498 112.812C82.2898 112.842 80.8798 112.772 79.5498 112.732C76.8898 112.492 74.4598 111.982 72.4298 111.332C70.3798 110.702 68.6798 109.912 67.3398 109.212C65.9898 108.522 65.0098 107.852 64.3398 107.402C63.6798 106.942 63.3398 106.672 63.3398 106.672C63.3398 106.672 63.7498 106.792 64.5198 107.022C65.2798 107.252 66.4098 107.532 67.8298 107.842C69.2498 108.142 70.9998 108.412 72.9698 108.562C74.9598 108.722 77.1498 108.722 79.5498 108.502C80.7298 108.302 81.9698 108.192 83.2098 107.952C83.8298 107.802 84.4598 107.662 85.0898 107.512C85.4098 107.442 85.7298 107.362 86.0498 107.292C86.3598 107.182 86.6798 107.082 86.9998 106.972C87.6298 106.762 88.2698 106.552 88.9198 106.342C89.5598 106.112 90.1798 105.802 90.8198 105.532C92.1198 105.032 93.3298 104.282 94.5998 103.612C97.0198 102.072 99.4298 100.342 101.51 98.1917C102.08 97.7117 102.52 97.0817 103.03 96.5317C103.52 95.9617 104.04 95.4217 104.46 94.7917L105.8 92.9717L106.96 91.0317C107.39 90.4117 107.67 89.7017 108.02 89.0317C108.34 88.3517 108.72 87.6917 108.95 86.9717C109.21 86.2617 109.48 85.5617 109.76 84.8717C109.96 84.1517 110.17 83.4317 110.37 82.7117C110.46 82.3517 110.59 81.9917 110.66 81.6417L110.84 80.6017C110.96 79.8917 111.14 79.2717 111.23 78.5017C111.3 77.6917 111.36 76.8817 111.43 76.0917L111.48 75.4917L111.51 75.1917C111.51 75.5117 111.51 75.2617 111.51 75.3217V75.2917V75.2217V75.0817L111.53 74.0017C111.54 71.1217 111.21 68.3317 110.6 65.7317C109.99 63.1217 109.12 60.7117 108.11 58.5517C107.12 56.3817 105.96 54.4817 104.82 52.8617C103.7 51.2217 102.56 49.8817 101.59 48.7917C100.59 47.7517 99.7998 46.8817 99.1998 46.3617C98.6198 45.8117 98.3098 45.5117 98.3098 45.5117H98.2898Z" fill="#878787"/>
</g>
</svg>
