<svg width="274" height="111" viewBox="0 0 274 111" fill="none" xmlns="http://www.w3.org/2000/svg">
<path d="M246.14 58.8301V66.7902C246.14 68.4002 244.83 69.7101 243.22 69.7101H242.51V55.9102H243.22C244.83 55.9102 246.14 57.2201 246.14 58.8301Z" fill="#74B7BB"/>
<g style="mix-blend-mode:multiply">
<path d="M136.63 110.858C212.089 110.858 273.26 103.48 273.26 94.3784C273.26 85.2768 212.089 77.8984 136.63 77.8984C61.1713 77.8984 0 85.2768 0 94.3784C0 103.48 61.1713 110.858 136.63 110.858Z" fill="#757575"/>
</g>
<path d="M124.791 0H100.251C97.6207 0 95.4907 2.13002 95.4907 4.77002L94.2207 13.68H130.811L129.561 4.77002C129.561 2.14002 127.431 0 124.801 0H124.791Z" fill="#F8CB57"/>
<path d="M95.2693 13.1897H129.739C131.579 13.1897 133.069 14.6797 133.069 16.5197V16.9297H91.9492V16.5097C91.9492 14.6697 93.4393 13.1797 95.2793 13.1797L95.2693 13.1897Z" fill="#616161"/>
<path d="M74.9604 100.43C84.8905 100.43 92.9404 92.3708 92.9404 82.4297C92.9404 72.4886 84.8905 64.4297 74.9604 64.4297C65.0304 64.4297 56.9805 72.4886 56.9805 82.4297C56.9805 92.3708 65.0304 100.43 74.9604 100.43Z" fill="#616161"/>
<g style="mix-blend-mode:screen">
<path d="M81.1403 97.3814C81.3003 97.3814 81.4702 97.3514 81.6302 97.2714C87.5002 94.6314 91.3003 88.7714 91.3003 82.3214C91.3003 73.2914 83.9602 65.9414 74.9402 65.9414C74.2802 65.9414 73.7402 66.4814 73.7402 67.1414C73.7402 67.8014 74.2802 68.3414 74.9402 68.3414C82.6402 68.3414 88.9003 74.6114 88.9003 82.3114C88.9003 87.8114 85.6603 92.8114 80.6503 95.0614C80.0403 95.3314 79.7703 96.0414 80.0503 96.6514C80.2503 97.1014 80.6903 97.3614 81.1503 97.3614L81.1403 97.3814Z" fill="#121212"/>
</g>
<g style="mix-blend-mode:screen">
<path d="M74.6104 98.2305C75.2504 98.2305 75.7803 97.7305 75.8103 97.0905C75.8403 96.4305 75.3304 95.8604 74.6704 95.8304C70.7804 95.6404 67.2504 93.9004 64.7304 90.9404C64.3004 90.4304 63.5404 90.3704 63.0404 90.8104C62.5404 91.2404 62.4804 92.0004 62.9104 92.5004C65.8204 95.9204 70.0703 98.0105 74.5603 98.2305C74.5803 98.2305 74.6004 98.2305 74.6204 98.2305H74.6104Z" fill="#121212"/>
</g>
<g style="mix-blend-mode:screen">
<path d="M86.3818 82.4059C86.3907 76.0215 81.2268 70.8387 74.8479 70.8297C68.469 70.8208 63.2907 75.9893 63.2818 82.3737C63.2729 88.7581 68.4367 93.9408 74.8156 93.9497C81.1945 93.9586 86.3729 88.7903 86.3818 82.4059Z" fill="#171717"/>
<path d="M74.9606 94.2615C68.4406 94.2615 63.1406 88.9515 63.1406 82.4315C63.1406 75.9115 68.4406 70.6016 74.9606 70.6016C81.4806 70.6016 86.7806 75.9115 86.7806 82.4315C86.7806 88.9515 81.4806 94.2615 74.9606 94.2615ZM74.9606 71.1415C68.7406 71.1415 63.6805 76.2015 63.6805 82.4315C63.6805 88.6615 68.7406 93.7216 74.9606 93.7216C81.1806 93.7216 86.2406 88.6615 86.2406 82.4315C86.2406 76.2015 81.1806 71.1415 74.9606 71.1415Z" fill="#231F20"/>
</g>
<path d="M74.9394 91.1522C79.6835 91.1431 83.5221 87.2854 83.5129 82.5357C83.5038 77.7861 79.6505 73.9432 74.9064 73.9523C70.1622 73.9614 66.3238 77.8191 66.3329 82.5687C66.342 87.3183 70.1953 91.1613 74.9394 91.1522Z" fill="#D1CECE"/>
<path d="M74.9612 89.36C78.7885 89.36 81.8912 86.2573 81.8912 82.43C81.8912 78.6027 78.7885 75.5 74.9612 75.5C71.1338 75.5 68.0312 78.6027 68.0312 82.43C68.0312 86.2573 71.1338 89.36 74.9612 89.36Z" fill="#E2DFDF"/>
<g style="mix-blend-mode:multiply">
<path d="M70.4297 82.4284C70.4297 84.9284 72.4597 86.9584 74.9597 86.9584C77.4597 86.9584 79.4897 84.9284 79.4897 82.4284C79.4897 79.9284 77.4597 77.8984 74.9597 77.8984C72.4597 77.8984 70.4297 79.9284 70.4297 82.4284Z" fill="#E2DFDF"/>
</g>
<path d="M239.941 55.9118C239.061 55.9118 238.301 55.2918 238.121 54.4218C237.641 52.0118 236.001 47.5018 230.531 47.2718C223.411 47.0418 202.921 46.7517 192.921 46.6117C189.321 46.5617 185.891 45.0517 183.421 42.4317L161.511 19.1817C161.511 19.1817 159.331 15.2818 150.601 15.5918C141.871 15.9018 69.6807 16.5318 69.6807 16.5318C69.6807 16.5318 64.2207 15.4417 61.1007 22.3017C58.8007 27.3717 54.2007 37.2017 51.9507 42.0017C51.1607 43.6917 49.4607 44.7718 47.5907 44.7718H45.8707C40.8507 44.7718 36.7808 48.8417 36.7808 53.8717C36.7808 54.9917 35.8707 55.9018 34.7507 55.9018C32.0207 55.9018 29.8107 58.1118 29.8107 60.8418V73.5017C29.8107 74.4617 29.0307 75.2417 28.0707 75.2417H26.9307C25.7107 75.2417 24.7207 76.2318 24.7207 77.4518V84.9917C24.7207 86.2117 25.7107 87.2018 26.9307 87.2018H51.7407C53.5807 87.2018 55.2407 86.1217 55.9907 84.4417C58.8407 78.0817 65.1607 73.9917 72.1307 73.9917H75.9008C83.8508 73.9917 91.2107 78.2218 95.2107 85.1018L95.4507 85.5218C96.0607 86.5618 97.1707 87.2118 98.3807 87.2118H188.371C189.081 87.2118 189.641 86.6118 189.601 85.9018C189.251 80.6918 190.501 61.2718 211.081 61.6718C232.681 62.0918 233.501 82.3518 232.171 89.7918C231.991 90.8018 232.751 91.7418 233.781 91.7918C238.631 92.0218 241.401 91.9217 242.861 91.9417C243.841 91.9517 244.641 91.1617 244.641 90.1817V85.7617C244.641 84.7917 243.851 84.0017 242.881 84.0017H242.101C241.131 84.0017 240.351 83.2217 240.351 82.2517V71.4317C240.351 70.4617 241.131 69.6817 242.101 69.6817H243.201C244.811 69.6817 246.121 68.3717 246.121 66.7617V58.8017C246.121 57.1917 244.811 55.8817 243.201 55.8817H239.921L239.941 55.9118Z" fill="#F8D780"/>
<path d="M99.5292 46.0312H124.659C126.2 46.0312 127.449 44.7821 127.449 43.2412V22.9213C127.449 21.3804 126.2 20.1312 124.659 20.1312L99.5292 20.1312C97.9883 20.1312 96.7393 21.3804 96.7393 22.9213V43.2412C96.7393 44.7821 97.9883 46.0313 99.5292 46.0312Z" fill="#74B7BB"/>
<path d="M90.6304 46.0291H67.2103C65.7203 46.0291 64.5104 44.819 64.5104 43.329V41.639C64.5104 29.769 74.1504 20.139 86.0104 20.139H90.6204C92.1104 20.139 93.3203 21.3491 93.3203 22.8391V43.3391C93.3203 44.8291 92.1104 46.0391 90.6204 46.0391L90.6304 46.0291Z" fill="#74B7BB"/>
<path d="M233.341 91.9688H244.461C245.295 91.9688 245.971 91.2927 245.971 90.4587V85.3488C245.971 84.5148 245.295 83.8387 244.461 83.8387H233.341C232.507 83.8387 231.831 84.5148 231.831 85.3488V90.4587C231.831 91.2927 232.507 91.9688 233.341 91.9688Z" fill="#E2DFDF"/>
<path d="M24.1808 91.9688H54.9407C55.5095 91.9688 55.9707 91.5076 55.9707 90.9388V84.8688C55.9707 84.2999 55.5095 83.8387 54.9407 83.8387H24.1808C23.6119 83.8387 23.1508 84.2999 23.1508 84.8688V90.9388C23.1508 91.5076 23.6119 91.9688 24.1808 91.9688Z" fill="#E2DFDF"/>
<path d="M95.0999 91.9688L190.21 91.9688C190.696 91.9688 191.09 91.5748 191.09 91.0887V84.7188C191.09 84.2327 190.696 83.8387 190.21 83.8387L95.0999 83.8387C94.6138 83.8387 94.2198 84.2327 94.2198 84.7188V91.0887C94.2198 91.5748 94.6138 91.9688 95.0999 91.9688Z" fill="#E2DFDF"/>
<path d="M210.531 100.43C220.461 100.43 228.511 92.3708 228.511 82.4297C228.511 72.4886 220.461 64.4297 210.531 64.4297C200.601 64.4297 192.551 72.4886 192.551 82.4297C192.551 92.3708 200.601 100.43 210.531 100.43Z" fill="#616161"/>
<g style="mix-blend-mode:screen">
<path d="M216.701 97.3814C216.861 97.3814 217.031 97.3514 217.191 97.2714C223.061 94.6314 226.861 88.7714 226.861 82.3214C226.861 73.2914 219.521 65.9414 210.501 65.9414C209.841 65.9414 209.301 66.4814 209.301 67.1414C209.301 67.8014 209.841 68.3414 210.501 68.3414C218.201 68.3414 224.461 74.6114 224.461 82.3114C224.461 87.8114 221.221 92.8114 216.211 95.0614C215.601 95.3314 215.331 96.0414 215.611 96.6514C215.811 97.1014 216.251 97.3614 216.711 97.3614L216.701 97.3814Z" fill="#121212"/>
</g>
<g style="mix-blend-mode:screen">
<path d="M210.171 98.2305C210.811 98.2305 211.341 97.7305 211.371 97.0905C211.401 96.4305 210.891 95.8604 210.231 95.8304C206.341 95.6404 202.811 93.9004 200.291 90.9404C199.861 90.4304 199.101 90.3704 198.601 90.8104C198.101 91.2404 198.041 92.0004 198.471 92.5004C201.381 95.9204 205.631 98.0105 210.121 98.2305C210.141 98.2305 210.161 98.2305 210.181 98.2305H210.171Z" fill="#121212"/>
</g>
<g style="mix-blend-mode:screen">
<path d="M221.933 82.4058C221.941 76.0214 216.778 70.8387 210.399 70.8297C204.02 70.8208 198.841 75.9891 198.833 82.3735C198.824 88.758 203.988 93.9408 210.366 93.9497C216.745 93.9586 221.924 88.7902 221.933 82.4058Z" fill="#171717"/>
<path d="M210.531 94.2615C204.011 94.2615 198.711 88.9515 198.711 82.4315C198.711 75.9115 204.011 70.6016 210.531 70.6016C217.051 70.6016 222.351 75.9115 222.351 82.4315C222.351 88.9515 217.051 94.2615 210.531 94.2615ZM210.531 71.1415C204.311 71.1415 199.251 76.2015 199.251 82.4315C199.251 88.6615 204.311 93.7216 210.531 93.7216C216.751 93.7216 221.811 88.6615 221.811 82.4315C221.811 76.2015 216.751 71.1415 210.531 71.1415Z" fill="#231F20"/>
</g>
<path d="M210.52 91.1132C215.264 91.1041 219.102 87.2463 219.093 82.4967C219.084 77.747 215.231 73.9041 210.487 73.9132C205.742 73.9223 201.904 77.78 201.913 82.5296C201.922 87.2793 205.775 91.1223 210.52 91.1132Z" fill="#D1CECE"/>
<path d="M210.532 89.36C214.359 89.36 217.462 86.2573 217.462 82.43C217.462 78.6027 214.359 75.5 210.532 75.5C206.704 75.5 203.602 78.6027 203.602 82.43C203.602 86.2573 206.704 89.36 210.532 89.36Z" fill="#E2DFDF"/>
<g style="mix-blend-mode:multiply">
<path d="M206 82.4284C206 84.9284 208.03 86.9584 210.53 86.9584C213.03 86.9584 215.06 84.9284 215.06 82.4284C215.06 79.9284 213.03 77.8984 210.53 77.8984C208.03 77.8984 206 79.9284 206 82.4284Z" fill="#E2DFDF"/>
</g>
<path d="M133.321 20.1289H149.661C153.221 20.1289 156.591 21.8089 158.911 24.7289L172.641 42.0089C173.901 43.5889 172.861 46.0389 170.941 46.0389H133.331C131.941 46.0389 130.811 44.8189 130.811 43.3089V22.8589C130.811 21.3489 131.941 20.1289 133.331 20.1289H133.321Z" fill="#74B7BB"/>
<path d="M102.701 49.1992C103.931 49.1992 105.011 49.7892 105.691 50.7092H109.861C111.091 50.7092 112.091 51.7092 112.091 52.9392C112.091 54.1692 111.091 55.1693 109.861 55.1693H105.691C105.011 56.0793 103.921 56.6792 102.701 56.6792C100.641 56.6792 98.9609 55.0092 98.9609 52.9392C98.9609 50.8692 100.631 49.1992 102.701 49.1992Z" fill="#EDC768"/>
<path d="M101.311 52.8787C101.311 53.6587 101.941 54.2888 102.721 54.2888C103.501 54.2888 104.131 53.6587 104.131 52.8787C104.131 52.0987 103.501 51.4688 102.721 51.4688C101.941 51.4688 101.311 52.0987 101.311 52.8787Z" fill="#D9B760"/>
<path d="M233.27 86.3683H244.63C245.15 86.3683 245.57 85.9483 245.57 85.4283C245.57 84.9083 245.15 84.4883 244.63 84.4883H233.27C232.75 84.4883 232.33 84.9083 232.33 85.4283C232.33 85.9483 232.75 86.3683 233.27 86.3683Z" fill="#EDEDED"/>
<path d="M24.5299 86.3683H54.7198C55.2398 86.3683 55.6599 85.9483 55.6599 85.4283C55.6599 84.9083 55.2398 84.4883 54.7198 84.4883H24.5299C24.0099 84.4883 23.5898 84.9083 23.5898 85.4283C23.5898 85.9483 24.0099 86.3683 24.5299 86.3683Z" fill="#EDEDED"/>
<path d="M95.8306 86.3683H189.681C190.201 86.3683 190.621 85.9483 190.621 85.4283C190.621 84.9083 190.201 84.4883 189.681 84.4883H95.8306C95.3106 84.4883 94.8906 84.9083 94.8906 85.4283C94.8906 85.9483 95.3106 86.3683 95.8306 86.3683Z" fill="#EDEDED"/>
<g style="mix-blend-mode:screen">
<path d="M235.181 83.2794C236.031 83.2794 236.721 82.5994 236.741 81.7494C236.741 81.3394 236.861 71.5794 229.911 64.3994C225.331 59.6594 218.811 57.2094 210.551 57.1094H210.511C190.641 57.1094 185.171 72.5194 185.061 81.6394C185.051 82.4994 185.741 83.2094 186.601 83.2194H186.621C187.471 83.2194 188.171 82.5294 188.181 81.6794C188.271 73.7094 193.081 60.2294 210.491 60.2294H210.521C217.891 60.3194 223.661 62.4494 227.641 66.5494C233.691 72.7794 233.621 81.6094 233.621 81.6994C233.611 82.5594 234.291 83.2694 235.151 83.2894C235.151 83.2894 235.171 83.2894 235.181 83.2894V83.2794Z" fill="#333333"/>
</g>
<g style="mix-blend-mode:screen">
<path d="M132.4 83.6815H175.96C178.6 83.6815 180.75 81.5315 180.75 78.8815V51.4615C180.75 50.7715 180.19 50.2115 179.5 50.2115C178.81 50.2115 178.25 50.7715 178.25 51.4615V78.8815C178.25 80.1515 177.22 81.1815 175.95 81.1815H132.39C131.12 81.1815 130.09 80.1515 130.09 78.8815V50.6016C130.09 49.9116 129.53 49.3516 128.84 49.3516C128.15 49.3516 127.59 49.9116 127.59 50.6016V78.8815C127.59 81.5215 129.74 83.6815 132.38 83.6815H132.4Z" fill="#333333"/>
</g>
<g style="mix-blend-mode:screen">
<path d="M26.5 83.2112H55.14L55.47 82.4712C55.64 82.0912 59.93 73.0812 74.55 72.7812C74.7701 72.7812 74.9799 72.7812 75.2 72.7812C89.38 72.7812 94.65 82.1511 94.87 82.5611L95.22 83.2112H95.96H126.33C127.02 83.2112 127.58 82.6512 127.58 81.9612C127.58 81.2712 127.02 80.7112 126.33 80.7112H96.66C95.07 78.2712 88.63 70.0312 74.5 70.2912C60.55 70.5712 55.01 78.2512 53.58 80.7112H26.5C25.81 80.7112 25.25 81.2712 25.25 81.9612C25.25 82.6512 25.81 83.2112 26.5 83.2112Z" fill="#333333"/>
</g>
<path d="M188.079 45.6292L184.509 45.6392C182.119 45.6392 179.859 44.5792 178.329 42.7392L160.529 21.2992C159.839 20.4692 160.429 19.1992 161.509 19.1992L183.419 42.4492C184.739 43.8492 186.329 44.9192 188.079 45.6292Z" fill="#74B7BB"/>
<path d="M136.41 49.1992C137.64 49.1992 138.72 49.7892 139.4 50.7092H143.57C144.8 50.7092 145.8 51.7092 145.8 52.9392C145.8 54.1692 144.8 55.1693 143.57 55.1693H139.4C138.72 56.0793 137.63 56.6792 136.41 56.6792C134.35 56.6792 132.67 55.0092 132.67 52.9392C132.67 50.8692 134.34 49.1992 136.41 49.1992Z" fill="#EDC768"/>
<path d="M135.02 52.8787C135.02 53.6587 135.649 54.2888 136.429 54.2888C137.209 54.2888 137.839 53.6587 137.839 52.8787C137.839 52.0987 137.209 51.4688 136.429 51.4688C135.649 51.4688 135.02 52.0987 135.02 52.8787Z" fill="#D9B760"/>
<path d="M184.52 46.8914H187.04C187.73 46.8914 188.29 46.3314 188.29 45.6414C188.29 44.9514 187.73 44.3914 187.04 44.3914H184.52C182.5 44.3914 180.59 43.5014 179.3 41.9414L161.5 20.5014C162.19 20.5014 162.76 19.9114 162.76 19.2214C162.76 18.5314 162.21 17.9414 161.53 17.9414C160.54 17.9414 159.66 18.5014 159.24 19.3914C158.82 20.2914 158.949 21.3214 159.579 22.0814L177.38 43.5214C179.15 45.6514 181.75 46.8714 184.52 46.8714V46.8914Z" fill="#EDC768"/>
<path d="M61.1101 22.3186C63.5601 22.8886 64.9101 25.5286 63.9501 27.8486L60.2201 36.8886C58.7801 40.3886 55.3601 42.6686 51.5801 42.6686L61.1101 22.3086V22.3186Z" fill="#74B7BB"/>
<path d="M51.5803 43.9282C55.8903 43.9282 59.7304 41.3582 61.3704 37.3682L65.1003 28.3283C65.7003 26.8783 65.6304 25.2482 64.9104 23.8582C64.1904 22.4682 62.9104 21.4582 61.3804 21.1082C60.7104 20.9482 60.0404 21.3683 59.8804 22.0383C59.7204 22.7083 60.1403 23.3783 60.8103 23.5383C61.6203 23.7283 62.3003 24.2583 62.6903 24.9983C63.0703 25.7383 63.1104 26.6083 62.7904 27.3783L59.0603 36.4183C57.8003 39.4583 54.8703 41.4282 51.5703 41.4282C50.8803 41.4282 50.3203 41.9882 50.3203 42.6782C50.3203 43.3682 50.8803 43.9282 51.5703 43.9282H51.5803Z" fill="#EDC768"/>
<mask id="mask0_3920_47316" style="mask-type:luminance" maskUnits="userSpaceOnUse" x="130" y="20" width="44" height="27">
<path d="M133.321 20.1289H149.661C153.221 20.1289 156.591 21.8089 158.911 24.7289L172.641 42.0089C173.901 43.5889 172.861 46.0389 170.941 46.0389H133.331C131.941 46.0389 130.811 44.8189 130.811 43.3089V22.8589C130.811 21.3489 131.941 20.1289 133.331 20.1289H133.321Z" fill="white"/>
</mask>
<g mask="url(#mask0_3920_47316)">
<g style="mix-blend-mode:screen">
<path d="M141.953 13.8074L141.999 13.7694C143.198 12.787 144.964 12.9694 145.94 14.1606L158.698 29.7313C159.68 30.9303 159.498 32.6957 158.307 33.6718L158.26 33.7098C157.061 34.6921 155.296 34.5098 154.32 33.3186L141.562 17.7478C140.579 16.5489 140.762 14.7834 141.953 13.8074Z" fill="#3D3D3D"/>
<path d="M147.14 50.0688L147.18 50.0388C148.4 49.0888 148.48 47.1488 147.36 45.6988L132.76 26.9488C131.64 25.5088 129.74 25.1087 128.52 26.0587L128.48 26.0888C127.26 27.0388 127.18 28.9787 128.3 30.4287L142.9 49.1787C144.02 50.6187 145.92 51.0188 147.14 50.0688Z" fill="#3D3D3D"/>
</g>
</g>
<path d="M129.551 43.3106V22.8606C129.551 20.6706 131.241 18.8906 133.311 18.8906H149.651C153.591 18.8906 157.321 20.7406 159.881 23.9606L173.611 41.2406C174.521 42.3906 174.691 43.9406 174.041 45.2806C173.441 46.5206 172.251 47.2906 170.921 47.2906H133.311C131.231 47.2906 129.551 45.5106 129.551 43.3206V43.3106ZM133.311 21.3806C132.611 21.3806 132.041 22.0406 132.041 22.8606V43.3106C132.041 44.1206 132.611 44.7906 133.311 44.7906H170.921C171.441 44.7906 171.701 44.3706 171.791 44.1906C171.971 43.8206 172.021 43.2606 171.651 42.7906L157.921 25.5106C155.841 22.8906 152.821 21.3806 149.641 21.3806H133.301H133.311Z" fill="#EDC768"/>
<mask id="mask1_3920_47316" style="mask-type:luminance" maskUnits="userSpaceOnUse" x="96" y="20" width="32" height="27">
<path d="M99.5292 46.0273H124.659C126.2 46.0273 127.449 44.7782 127.449 43.2373V22.9174C127.449 21.3765 126.2 20.1273 124.659 20.1273L99.5292 20.1273C97.9883 20.1273 96.7393 21.3765 96.7393 22.9174V43.2373C96.7393 44.7782 97.9883 46.0273 99.5292 46.0273Z" fill="white"/>
</mask>
<g mask="url(#mask1_3920_47316)">
<g style="mix-blend-mode:screen">
<path d="M138.011 60.3695L138.051 60.3396C139.271 59.3896 139.351 57.4495 138.231 55.9995L123.631 37.2495C122.511 35.8095 120.611 35.4095 119.391 36.3595L119.351 36.3896C118.131 37.3396 118.051 39.2796 119.171 40.7296L133.771 59.4796C134.891 60.9196 136.791 61.3195 138.011 60.3695Z" fill="#3D3D3D"/>
</g>
<g style="mix-blend-mode:screen">
<path d="M112.031 53.2602L112.071 53.2302C113.291 52.2802 113.371 50.3402 112.251 48.8902L97.6507 30.1402C96.5307 28.7002 94.6307 28.3002 93.4107 29.2502L93.3706 29.2802C92.1506 30.2302 92.0706 32.1701 93.1906 33.6201L107.791 52.3701C108.911 53.8102 110.811 54.2102 112.031 53.2602Z" fill="#3D3D3D"/>
</g>
</g>
<path d="M95.4902 43.2389V22.9189C95.4902 20.6889 97.3003 18.8789 99.5203 18.8789H124.66C126.88 18.8789 128.69 20.6889 128.69 22.9189V43.2389C128.69 45.4689 126.88 47.2789 124.66 47.2789H99.5203C97.3003 47.2789 95.4902 45.4689 95.4902 43.2389ZM99.5203 21.3789C98.6703 21.3789 97.9802 22.0689 97.9802 22.9189V43.2389C97.9802 44.0889 98.6703 44.7789 99.5203 44.7789H124.66C125.51 44.7789 126.2 44.0889 126.2 43.2389V22.9189C126.2 22.0689 125.51 21.3789 124.66 21.3789H99.5203Z" fill="#EDC768"/>
<mask id="mask2_3920_47316" style="mask-type:luminance" maskUnits="userSpaceOnUse" x="64" y="20" width="30" height="27">
<path d="M90.6304 46.0291H67.2103C65.7203 46.0291 64.5104 44.819 64.5104 43.329V41.639C64.5104 29.769 74.1504 20.139 86.0104 20.139H90.6204C92.1104 20.139 93.3203 21.3491 93.3203 22.8391V43.3391C93.3203 44.8291 92.1104 46.0391 90.6204 46.0391L90.6304 46.0291Z" fill="white"/>
</mask>
<g mask="url(#mask2_3920_47316)">
<g style="mix-blend-mode:screen">
<path d="M86.929 40.7406L86.969 40.7106C88.189 39.7606 88.2691 37.8206 87.1491 36.3706L72.5491 17.6206C71.4291 16.1806 69.529 15.7806 68.309 16.7306L68.2691 16.7606C67.0491 17.7106 66.969 19.6506 68.089 21.1006L82.689 39.8506C83.809 41.2906 85.709 41.6906 86.929 40.7406Z" fill="#3D3D3D"/>
</g>
</g>
<path d="M63.2698 43.3289V41.6389C63.2698 29.0889 73.4698 18.8789 86.0098 18.8789H90.6298C92.8098 18.8789 94.5797 20.6489 94.5797 22.8289V43.3289C94.5797 45.5089 92.8098 47.2789 90.6298 47.2789H67.2097C65.0297 47.2789 63.2598 45.5089 63.2598 43.3289H63.2698ZM86.0098 21.3789C74.8398 21.3789 65.7598 30.4689 65.7598 41.6389V43.3289C65.7598 44.1289 66.4097 44.7789 67.2097 44.7789H90.6298C91.4298 44.7789 92.0797 44.1289 92.0797 43.3289V22.8289C92.0797 22.0289 91.4298 21.3789 90.6298 21.3789H86.0098Z" fill="#EDC768"/>
<path d="M238.949 72.24H241.799C242.409 72.24 242.899 71.61 242.899 70.84V55.65C242.899 54.87 242.409 54.25 241.799 54.25H238.949V72.24Z" fill="#D1B56B"/>
<path d="M36.4592 54.9912C36.6692 54.6712 36.7893 54.2912 36.7893 53.8812C36.7893 48.8512 40.8593 44.7812 45.8793 44.7812H47.5992C47.5992 44.7812 47.6393 44.7812 47.6593 44.7812C47.9093 47.3912 47.6892 55.1012 36.4492 54.9912H36.4592Z" fill="#E72C2C"/>
<path d="M37.5194 56.2912C39.2094 56.2912 41.8993 55.9811 44.5593 54.3711C49.8493 51.1511 48.9394 44.8512 48.8994 44.5912C48.7994 43.9112 48.1593 43.4411 47.4793 43.5511C46.7993 43.6511 46.3293 44.2912 46.4393 44.9712C46.4693 45.1712 47.1194 49.9011 43.2694 52.2411C40.4894 53.9211 37.6593 53.8611 36.5793 53.7511C35.8993 53.6811 35.2893 54.1911 35.2193 54.8711C35.1493 55.5611 35.6593 56.1712 36.3393 56.2312C36.6393 56.2612 37.0394 56.2812 37.5194 56.2812V56.2912Z" fill="#EDC768"/>
<g style="mix-blend-mode:screen">
<path d="M39.1895 48.9203C39.5495 49.6203 41.2696 49.4503 43.0396 48.5303C44.7996 47.6203 45.9395 46.3103 45.5795 45.6103C45.2195 44.9103 43.4995 45.0803 41.7295 46.0003C39.9695 46.9103 38.8295 48.2203 39.1895 48.9203Z" fill="#141414"/>
</g>
<path d="M238.94 73.0617H240.74C241.18 73.0617 241.53 72.6817 241.53 72.2017V54.3717C241.53 53.9017 241.18 53.5117 240.74 53.5117H238.94C238.5 53.5117 238.15 53.8917 238.15 54.3717V72.2017C238.15 72.6717 238.5 73.0617 238.94 73.0617Z" fill="#E3C575"/>
<path d="M234.409 53.0703H228.509C227.598 53.0703 226.859 53.8091 226.859 54.7203V54.7503C226.859 55.6616 227.598 56.4003 228.509 56.4003H234.409C235.321 56.4003 236.059 55.6616 236.059 54.7503V54.7203C236.059 53.8091 235.321 53.0703 234.409 53.0703Z" fill="#E72C2C"/>
<g style="mix-blend-mode:screen">
<path d="M228.75 54.3513C228.75 54.8013 229.12 55.1713 229.57 55.1713H234.46C234.91 55.1713 235.28 54.8013 235.28 54.3513C235.28 53.9013 234.91 53.5312 234.46 53.5312H229.57C229.12 53.5312 228.75 53.9013 228.75 54.3513Z" fill="#141414"/>
</g>
<path d="M100.35 4.72125V3.03125H105.84V4.72125H104.04V10.4213H102.17V4.72125H100.35Z" fill="white"/>
<path d="M110.77 9.49139H107.86L107.43 10.4214H105.58V10.1514L108.9 2.94141H109.71L113.05 10.1514V10.4214H111.2L110.77 9.49139ZM109.3 5.9314L108.47 7.8714H110.16L109.31 5.9314H109.3Z" fill="white"/>
<path d="M116.919 8.10126L115.509 10.4213H113.539V10.1312L115.929 6.50122L113.799 3.31122V3.03125H115.729L116.929 4.95123H116.979L118.209 3.03125H120.109V3.31122L117.979 6.50122L120.379 10.1312V10.4213H118.399L116.999 8.10126H116.939H116.919Z" fill="white"/>
<path d="M124.59 8.77124V10.4312H120.84V8.77124H121.78V4.68121H120.91V3.03125H124.51V4.68121H123.64V8.77124H124.58H124.59Z" fill="white"/>
<path d="M154.19 63.0625H150.73V66.5225H154.19V63.0625Z" fill="#525252"/>
<path d="M157.651 59.6016H154.191V63.0615H157.651V59.6016Z" fill="#525252"/>
<path d="M161.11 63.0625H157.65V66.5225H161.11V63.0625Z" fill="#525252"/>
<path d="M168.03 63.0625H164.57V66.5225H168.03V63.0625Z" fill="#525252"/>
<path d="M174.95 63.0625H171.49V66.5225H174.95V63.0625Z" fill="#525252"/>
<path d="M164.571 59.6016H161.111V63.0615H164.571V59.6016Z" fill="#525252"/>
<path d="M171.491 59.6016H168.031V63.0615H171.491V59.6016Z" fill="#525252"/>
<path d="M100.671 63.0625H97.2109V66.5225H100.671V63.0625Z" fill="#525252"/>
<path d="M104.132 59.6016H100.672V63.0615H104.132V59.6016Z" fill="#525252"/>
<path d="M107.591 63.0625H104.131V66.5225H107.591V63.0625Z" fill="#525252"/>
<path d="M114.511 63.0625H111.051V66.5225H114.511V63.0625Z" fill="#525252"/>
<path d="M121.421 63.0625H117.961V66.5225H121.421V63.0625Z" fill="#525252"/>
<path d="M111.052 59.6016H107.592V63.0615H111.052V59.6016Z" fill="#525252"/>
<path d="M117.96 59.6016H114.5V63.0615H117.96V59.6016Z" fill="#525252"/>
<path d="M94.3701 56.2183H57.8201C57.2701 56.2183 56.8301 55.7783 56.8301 55.2283C56.8301 54.6783 57.2701 54.2383 57.8201 54.2383H94.3701C94.9201 54.2383 95.3601 54.6783 95.3601 55.2283C95.3601 55.7783 94.9201 56.2183 94.3701 56.2183Z" fill="#525252"/>
<path d="M220.21 56.2183H183.66C183.11 56.2183 182.67 55.7783 182.67 55.2283C182.67 54.6783 183.11 54.2383 183.66 54.2383H220.21C220.76 54.2383 221.2 54.6783 221.2 55.2283C221.2 55.7783 220.76 56.2183 220.21 56.2183Z" fill="#525252"/>
</svg>
