<svg width="36" height="24" viewBox="0 0 36 24" fill="none" xmlns="http://www.w3.org/2000/svg">
<mask id="mask0_3917_5842" style="mask-type:luminance" maskUnits="userSpaceOnUse" x="0" y="0" width="36" height="24">
<rect width="36" height="24" fill="white"/>
</mask>
<g mask="url(#mask0_3917_5842)">
<path fill-rule="evenodd" clip-rule="evenodd" d="M0 0V24H36V0H0Z" fill="#EA1A1A"/>
<mask id="mask1_3917_5842" style="mask-type:luminance" maskUnits="userSpaceOnUse" x="0" y="0" width="36" height="24">
<path fill-rule="evenodd" clip-rule="evenodd" d="M0 0V24H36V0H0Z" fill="white"/>
</mask>
<g mask="url(#mask1_3917_5842)">
<path fill-rule="evenodd" clip-rule="evenodd" d="M17.8533 11.5747C17.8533 11.5747 11.3399 6.41145 19.1123 3.40308C19.1123 3.40308 21.3727 5.61969 19.677 8.10816C19.1206 8.92432 18.6514 9.50713 18.2988 9.94512C17.5764 10.8425 17.3434 11.1319 17.8533 11.5747ZM8.24039 7.86746C7.79305 15.3923 15.9009 12.522 15.9009 12.522C15.2276 12.7293 15.0405 12.4147 14.4606 11.4395L14.4606 11.4395C14.1775 10.9633 13.8007 10.3296 13.2279 9.52226C11.482 7.0613 8.24039 7.86746 8.24039 7.86746ZM20.518 11.827C20.518 11.827 28.8789 14.0519 23.2718 19.7036C23.2718 19.7036 20.1676 18.5464 20.518 15.6539C20.6329 14.7055 20.7801 14.0011 20.8908 13.4716L20.8908 13.4716C21.1176 12.3864 21.1907 12.0363 20.518 11.827ZM18.3204 13.5617C18.3204 13.5617 19.8193 21.204 11.6254 19.2726C11.6254 19.2726 11.4024 16.2873 14.4696 15.2728C15.4758 14.9399 16.2506 14.742 16.8329 14.5932L16.833 14.5932C18.0259 14.2884 18.4107 14.1901 18.3204 13.5617ZM28.6636 10.2753C23.5386 4.27308 19.4331 11.1184 19.4331 11.1184C19.7967 10.5736 20.1681 10.7064 21.3191 11.1182C21.8813 11.3193 22.6295 11.5869 23.6537 11.8746C26.7743 12.7513 28.6636 10.2753 28.6636 10.2753Z" fill="white"/>
<path d="M11.1941 10.3421L11.6689 10.074C12.711 11.5319 14.0635 12.2492 15.7514 12.2492V12.7492C13.8631 12.7492 12.3357 11.9391 11.1941 10.3421Z" fill="#EA1A1A"/>
<path fill-rule="evenodd" clip-rule="evenodd" d="M24.4688 10.75C24.9347 10.75 25.3125 10.4142 25.3125 10C25.3125 9.58579 24.9347 9.25 24.4688 9.25C24.0028 9.25 23.625 9.58579 23.625 10C23.625 10.4142 24.0028 10.75 24.4688 10.75Z" fill="#EA1A1A"/>
<path fill-rule="evenodd" clip-rule="evenodd" d="M22.4534 15.728C22.9194 15.728 23.2971 15.3922 23.2971 14.978C23.2971 14.5638 22.9194 14.228 22.4534 14.228C21.9874 14.228 21.6096 14.5638 21.6096 14.978C21.6096 15.3922 21.9874 15.728 22.4534 15.728Z" fill="#EA1A1A"/>
<path fill-rule="evenodd" clip-rule="evenodd" d="M15.7034 17.728C16.1694 17.728 16.5471 17.3922 16.5471 16.978C16.5471 16.5638 16.1694 16.228 15.7034 16.228C15.2374 16.228 14.8596 16.5638 14.8596 16.978C14.8596 17.3922 15.2374 17.728 15.7034 17.728Z" fill="#EA1A1A"/>
<path fill-rule="evenodd" clip-rule="evenodd" d="M11.2034 10.728C11.6694 10.728 12.0471 10.3922 12.0471 9.97803C12.0471 9.56381 11.6694 9.22803 11.2034 9.22803C10.7374 9.22803 10.3596 9.56381 10.3596 9.97803C10.3596 10.3922 10.7374 10.728 11.2034 10.728Z" fill="#EA1A1A"/>
<path fill-rule="evenodd" clip-rule="evenodd" d="M17.9534 7.72803C18.4194 7.72803 18.7971 7.39224 18.7971 6.97803C18.7971 6.56381 18.4194 6.22803 17.9534 6.22803C17.4874 6.22803 17.1096 6.56381 17.1096 6.97803C17.1096 7.39224 17.4874 7.72803 17.9534 7.72803Z" fill="#EA1A1A"/>
<path d="M17.5889 7.05279L18.0834 7.29106C17.1467 8.82705 17.0806 10.2438 17.8738 11.5698L17.3772 11.8046C16.4915 10.3239 16.5658 8.73045 17.5889 7.05279Z" fill="#EA1A1A"/>
<path d="M24.7668 9.6858L24.6825 10.1802C22.4823 9.88365 20.8353 10.2963 19.7076 11.4096L19.2895 11.075C20.5547 9.82601 22.3918 9.36576 24.7668 9.6858Z" fill="#EA1A1A"/>
<path d="M22.8951 15.3648L22.3437 15.4635C21.9046 13.5242 20.9051 12.2896 19.3424 11.7284L19.5531 11.2649C21.3063 11.8945 22.4211 13.2715 22.8951 15.3648Z" fill="#EA1A1A"/>
<path d="M15.6449 17.15L15.352 16.7231C17.2519 15.6931 18.2152 14.436 18.274 12.9388L18.8361 12.9562C18.7701 14.6359 17.6957 16.0381 15.6449 17.15Z" fill="#EA1A1A"/>
</g>
</g>
</svg>
