<svg width="36" height="24" viewBox="0 0 36 24" fill="none" xmlns="http://www.w3.org/2000/svg">
<mask id="mask0_3917_3940" style="mask-type:luminance" maskUnits="userSpaceOnUse" x="0" y="0" width="36" height="24">
<rect width="36" height="24" fill="white"/>
</mask>
<g mask="url(#mask0_3917_3940)">
<path fill-rule="evenodd" clip-rule="evenodd" d="M0 0V24H36V0H0Z" fill="#BF2714"/>
<mask id="mask1_3917_3940" style="mask-type:luminance" maskUnits="userSpaceOnUse" x="0" y="0" width="36" height="24">
<path fill-rule="evenodd" clip-rule="evenodd" d="M0 0V24H36V0H0Z" fill="white"/>
</mask>
<g mask="url(#mask1_3917_3940)">
<path fill-rule="evenodd" clip-rule="evenodd" d="M0 -2V12H36V-2H0Z" fill="#3D58DB"/>
</g>
<path fill-rule="evenodd" clip-rule="evenodd" d="M0 0V24L20.25 12L0 0Z" fill="#F7FCFF"/>
<mask id="mask2_3917_3940" style="mask-type:luminance" maskUnits="userSpaceOnUse" x="0" y="0" width="21" height="24">
<path fill-rule="evenodd" clip-rule="evenodd" d="M0 0V24L20.25 12L0 0Z" fill="white"/>
</mask>
<g mask="url(#mask2_3917_3940)">
<path fill-rule="evenodd" clip-rule="evenodd" d="M15.3056 10.92L16.741 11.412L17.595 10.5187L17.6176 11.7135L18.9387 12.0954L17.5482 12.515L17.6398 13.6129L16.724 12.7718L15.2844 13.0152L16.1343 12.0466L15.3056 10.92Z" fill="#FECA00"/>
<path fill-rule="evenodd" clip-rule="evenodd" d="M1.8056 16.92L3.12497 17.4385L4.09497 16.5187L4.00162 17.74L5.43866 18.0954L3.93216 18.5414L4.1398 19.6129L3.09089 18.8473L1.78438 19.0152L2.51831 18.0731L1.8056 16.92Z" fill="#FECA00"/>
<path fill-rule="evenodd" clip-rule="evenodd" d="M1.8056 4.92001L3.26558 5.39823L4.09497 4.51871L4.14223 5.69967L5.43866 6.09541L4.07277 6.50116L4.1398 7.61286L3.2315 6.80699L1.78438 7.01524L2.65892 6.03278L1.8056 4.92001Z" fill="#FECA00"/>
<path fill-rule="evenodd" clip-rule="evenodd" d="M9.1366 14.5327C10.6899 14.5327 11.9491 13.4134 11.9491 12.0327C11.9491 10.652 10.6899 9.53271 9.1366 9.53271C7.5833 9.53271 6.3241 10.652 6.3241 12.0327C6.3241 13.4134 7.5833 14.5327 9.1366 14.5327Z" fill="#FECA00"/>
<path fill-rule="evenodd" clip-rule="evenodd" d="M8.80418 8.23965L8.95531 9.84565C8.96976 9.94317 9.05417 10.0209 9.16331 10.0371C9.30042 10.0575 9.43018 9.97525 9.45313 9.85337L9.6526 8.25281C9.6561 8.2342 9.65805 8.21538 9.65842 8.19651C9.66255 7.98594 9.47387 7.81227 9.23698 7.80859C9.21575 7.80826 9.19453 7.80933 9.17348 7.8118C8.93858 7.8393 8.77324 8.03085 8.80418 8.23965ZM8.33387 9.01579L8.56744 9.71443C8.58912 9.77928 8.66198 9.81944 8.74438 9.80652C8.81193 9.79233 8.85375 9.73215 8.83779 9.67211L8.65139 8.97096C8.62995 8.89032 8.54206 8.83811 8.45005 8.85135C8.4439 8.85224 8.43782 8.85347 8.43185 8.85505C8.35486 8.87539 8.31099 8.94735 8.33387 9.01579ZM9.59704 9.74355C9.57873 9.80306 9.61816 9.8645 9.69246 9.88235C9.76695 9.89624 9.84134 9.85837 9.86556 9.79422L10.1264 9.10326C10.152 9.03558 10.111 8.96229 10.0348 8.93957C10.0289 8.93781 10.0229 8.93639 10.0168 8.93532C9.92533 8.91923 9.83544 8.96868 9.81085 9.04861L9.59704 9.74355ZM11.9338 9.0414L10.6764 10.2756C10.609 10.3536 10.6069 10.4616 10.6712 10.5417C10.7519 10.6423 10.9091 10.6657 11.0223 10.594L12.5233 9.58397C12.5406 9.57301 12.5569 9.56093 12.5722 9.54782C12.7426 9.40153 12.7473 9.16012 12.5828 9.00863C12.568 8.99506 12.5522 8.98247 12.5353 8.97098C12.3473 8.84279 12.078 8.87431 11.9338 9.0414ZM11.5512 11.6613L13.4288 11.5322C13.6637 11.5047 13.8792 11.6516 13.9102 11.8604C13.9129 11.8792 13.9141 11.898 13.9138 11.9169C13.9096 12.1275 13.7142 12.2952 13.4773 12.2915C13.4561 12.2912 13.4349 12.2894 13.414 12.2863L11.5426 12.1038C11.4054 12.0834 11.3129 11.9681 11.3359 11.8462C11.3541 11.7492 11.4415 11.6742 11.5512 11.6613ZM12.5258 14.3195L11.0676 13.1911C10.9798 13.1312 10.8583 13.1293 10.7682 13.1865C10.6551 13.2582 10.6288 13.3979 10.7095 13.4985L11.9154 14.8435C11.9277 14.8588 11.9413 14.8734 11.956 14.8869C12.1206 15.0384 12.3922 15.0427 12.5626 14.8964C12.5779 14.8832 12.5921 14.8691 12.605 14.8542C12.7492 14.6871 12.7137 14.4477 12.5258 14.3195ZM9.50867 13.9688L9.62 15.6538C9.65093 15.8626 9.48559 16.0542 9.2507 16.0817C9.22965 16.0842 9.20842 16.0852 9.18719 16.0849C8.95031 16.0812 8.76162 15.9075 8.76576 15.697C8.76613 15.6781 8.76807 15.6593 8.77158 15.6407L9.01086 13.9611C9.03381 13.8392 9.16356 13.757 9.30067 13.7774C9.40981 13.7936 9.49422 13.8713 9.50867 13.9688ZM6.54871 14.8791L7.78767 13.5389C7.85503 13.4608 7.85715 13.3528 7.79289 13.2727C7.71217 13.1721 7.55498 13.1488 7.4418 13.2205L5.95926 14.3366C5.94198 14.3475 5.92563 14.3596 5.91036 14.3727C5.73993 14.519 5.73519 14.7604 5.89977 14.9119C5.91452 14.9255 5.93038 14.9381 5.94722 14.9496C6.13519 15.0778 6.40449 15.0462 6.54871 14.8791ZM6.91275 12.1531L5.02364 12.2915C4.78875 12.319 4.57325 12.172 4.54231 11.9632C4.53954 11.9445 4.53833 11.9257 4.5387 11.9068C4.54284 11.6962 4.73823 11.5285 4.97511 11.5322C4.99634 11.5325 5.01751 11.5342 5.03845 11.5374L6.92144 11.7106C7.05855 11.731 7.15109 11.8464 7.12814 11.9682C7.10987 12.0653 7.02246 12.1403 6.91275 12.1531ZM5.79417 9.52204L7.39643 10.6233C7.48422 10.6832 7.60572 10.6851 7.69581 10.628C7.80899 10.5562 7.8353 10.4165 7.75458 10.3159L6.40456 8.99808C6.39224 8.98272 6.37864 8.96819 6.36389 8.95461C6.19931 8.80312 5.92773 8.79891 5.7573 8.9452C5.74203 8.95831 5.72787 8.97241 5.71495 8.98738C5.57073 9.15447 5.6062 9.39384 5.79417 9.52204ZM10.5065 9.939L10.8971 9.29819C10.9353 9.23541 11.0236 9.21209 11.0942 9.2461C11.0997 9.24874 11.105 9.25169 11.11 9.25493C11.1856 9.3034 11.2062 9.39556 11.1573 9.46605L10.7313 10.079C10.6948 10.1315 10.6174 10.1478 10.5583 10.1153C10.4898 10.0727 10.4702 9.99848 10.5065 9.939ZM12.4849 11.1089L11.6989 11.3165C11.6259 11.3358 11.5808 11.4005 11.5953 11.4738C11.6113 11.5338 11.679 11.571 11.7465 11.5568L12.5353 11.3911C12.626 11.3721 12.6848 11.2939 12.6699 11.2121C12.6689 11.2067 12.6675 11.2013 12.6657 11.196C12.6428 11.1275 12.5619 11.0885 12.4849 11.1089ZM11.4462 13.0401L12.1672 13.3873C12.2378 13.4213 12.264 13.4997 12.2257 13.5625C12.2228 13.5674 12.2195 13.5721 12.2158 13.5766C12.1613 13.6438 12.0576 13.6621 11.9783 13.6185L11.2887 13.2399C11.2297 13.2075 11.2114 13.1386 11.2479 13.0862C11.2959 13.0252 11.3793 13.0078 11.4462 13.0401ZM10.1301 14.7986L9.89656 14.1C9.87488 14.0352 9.80202 13.995 9.71961 14.0079C9.65207 14.0221 9.61025 14.0823 9.62621 14.1423L9.81261 14.8435C9.83405 14.9241 9.92194 14.9763 10.014 14.9631C10.0201 14.9622 10.0262 14.961 10.0321 14.9594C10.1091 14.9391 10.153 14.8671 10.1301 14.7986ZM7.95752 13.8755L7.56692 14.5163C7.52866 14.5791 7.44038 14.6024 7.36976 14.5684C7.36429 14.5657 7.35901 14.5628 7.35396 14.5595C7.27836 14.5111 7.25775 14.4189 7.30674 14.3484L7.73269 13.7355C7.76917 13.683 7.84661 13.6667 7.90566 13.6991C7.97421 13.7418 7.99378 13.816 7.95752 13.8755ZM5.97914 12.7056L6.7651 12.4979C6.83806 12.4787 6.88324 12.4139 6.8687 12.3407C6.85274 12.2806 6.78504 12.2434 6.71749 12.2576L5.9287 12.4233C5.83798 12.4424 5.77924 12.5205 5.79414 12.6023C5.79513 12.6078 5.79652 12.6132 5.79829 12.6185C5.82118 12.6869 5.90214 12.7259 5.97914 12.7056ZM7.01776 10.7744L6.29684 10.4272C6.22622 10.3932 6.19998 10.3147 6.23825 10.252C6.24122 10.2471 6.24453 10.2424 6.24817 10.2379C6.30271 10.1707 6.40639 10.1524 6.48569 10.1959L7.17526 10.5746C7.23431 10.607 7.25261 10.6758 7.21613 10.7283C7.16814 10.7892 7.08468 10.8066 7.01776 10.7744ZM11.2113 10.6067C11.151 10.6373 11.1301 10.7055 11.1684 10.7648C11.21 10.8215 11.2927 10.8415 11.3609 10.8113L12.095 10.4867C12.1669 10.4549 12.1962 10.3773 12.1604 10.3134C12.1577 10.3084 12.1545 10.3036 12.1511 10.299C12.0992 10.2302 11.9963 10.2087 11.9153 10.2497L11.2113 10.6067ZM11.51 12.3165C11.5301 12.2505 11.5992 12.2154 11.6662 12.2317L12.448 12.4217C12.5379 12.4436 12.5935 12.5235 12.5754 12.6048C12.5742 12.6102 12.5726 12.6156 12.5706 12.6208C12.5451 12.6885 12.4626 12.725 12.3865 12.7022L11.6092 12.4704C11.537 12.4489 11.4944 12.3827 11.51 12.3165ZM10.6951 13.6666C10.6607 13.613 10.5839 13.5944 10.5172 13.6285C10.4534 13.6655 10.431 13.739 10.4649 13.7996L10.8301 14.4521C10.8658 14.516 10.9531 14.5421 11.0251 14.5103C11.0306 14.5078 11.036 14.505 11.0412 14.5019C11.1187 14.4558 11.1429 14.3644 11.0967 14.2924L10.6951 13.6666ZM8.77154 13.9321C8.84584 13.9499 8.88527 14.0114 8.86696 14.0709L8.65315 14.7658C8.62856 14.8458 8.53867 14.8952 8.44723 14.8791C8.44113 14.8781 8.4351 14.8766 8.4292 14.8749C8.35305 14.8522 8.31203 14.7789 8.33759 14.7112L8.59844 14.0202C8.62266 13.9561 8.69705 13.9182 8.77154 13.9321ZM7.25266 13.2077C7.31295 13.1772 7.33394 13.1089 7.2956 13.0496C7.25398 12.993 7.17125 12.973 7.1031 13.0031L6.36899 13.3278C6.29708 13.3596 6.26778 13.4372 6.30356 13.5011C6.30633 13.506 6.30946 13.5108 6.31292 13.5154C6.36479 13.5843 6.46768 13.6058 6.54865 13.5647L7.25266 13.2077ZM6.95398 11.4979C6.93389 11.564 6.86478 11.599 6.79783 11.5827L6.01601 11.3927C5.9261 11.3708 5.87047 11.2909 5.88856 11.2096C5.88977 11.2042 5.89137 11.1989 5.89335 11.1936C5.91891 11.1259 6.00136 11.0895 6.0775 11.1122L6.85484 11.3441C6.92699 11.3656 6.9696 11.4317 6.95398 11.4979ZM7.76895 10.1478C7.80334 10.2014 7.88009 10.2201 7.94684 10.186C8.01056 10.149 8.03303 10.0755 7.99913 10.0149L7.63393 9.36235C7.59815 9.29843 7.51085 9.27239 7.43894 9.30419C7.43336 9.30665 7.42797 9.30943 7.42279 9.31251C7.34534 9.35861 7.32112 9.45008 7.36731 9.52205L7.76895 10.1478Z" fill="#FECA00"/>
</g>
</g>
</svg>
