<svg width="36" height="24" viewBox="0 0 36 24" fill="none" xmlns="http://www.w3.org/2000/svg">
<mask id="mask0_3917_3300" style="mask-type:luminance" maskUnits="userSpaceOnUse" x="0" y="0" width="36" height="24">
<rect width="36" height="24" fill="white"/>
</mask>
<g mask="url(#mask0_3917_3300)">
<path fill-rule="evenodd" clip-rule="evenodd" d="M0 0V24H36V0H0Z" fill="#F7FCFF"/>
<mask id="mask1_3917_3300" style="mask-type:luminance" maskUnits="userSpaceOnUse" x="0" y="0" width="36" height="24">
<path fill-rule="evenodd" clip-rule="evenodd" d="M0 0V24H36V0H0Z" fill="white"/>
</mask>
<g mask="url(#mask1_3917_3300)">
<path fill-rule="evenodd" clip-rule="evenodd" d="M0 0V12H36V0H0Z" fill="#E31D1C"/>
<path fill-rule="evenodd" clip-rule="evenodd" d="M9.9769 10.5896C9.9769 10.5896 6.798 9.45307 6.798 6.37399C6.798 3.29492 9.9769 2.19514 9.9769 2.19514C8.4319 1.84747 4.33228 2.15843 4.33228 6.37399C4.33228 10.5896 8.36995 11.3846 9.9769 10.5896ZM10.7914 10.0806L11.7033 9.59125L12.6354 10.0806L12.4073 9.12566L13.1649 8.37232H12.1384L11.7033 7.48062L11.2683 8.37232L10.2399 8.41096L10.9994 9.12566L10.7914 10.0806ZM15.0179 9.53659L14.1059 10.026L14.314 9.071L13.5545 8.35631L14.5828 8.31766L15.0179 7.42596L15.453 8.31766H16.4795L15.7218 9.071L15.9499 10.026L15.0179 9.53659ZM12.698 5.76986L13.61 5.28049L14.542 5.76986L14.3139 4.8149L15.0716 4.06156H14.0451L13.61 3.16986L13.1749 4.06156L12.1466 4.1002L12.9061 4.8149L12.698 5.76986ZM10.541 7.22263L9.62901 7.712L9.83702 6.75704L9.07759 6.04234L10.1059 6.0037L10.541 5.112L10.976 6.0037H12.0026L11.2449 6.75704L11.473 7.712L10.541 7.22263ZM15.6572 7.66815L16.5692 7.17877L17.5012 7.66815L17.2731 6.71318L18.0308 5.95984H17.0042L16.5692 5.06815L16.1341 5.95984L15.1058 5.99849L15.8652 6.71318L15.6572 7.66815Z" fill="#F1F9FF"/>
</g>
</g>
</svg>
