<svg width="36" height="24" viewBox="0 0 36 24" fill="none" xmlns="http://www.w3.org/2000/svg">
<mask id="mask0_3917_5056" style="mask-type:luminance" maskUnits="userSpaceOnUse" x="0" y="0" width="36" height="24">
<rect width="36" height="24" fill="white"/>
</mask>
<g mask="url(#mask0_3917_5056)">
<path fill-rule="evenodd" clip-rule="evenodd" d="M0 0V24H36V0H0Z" fill="#F7FCFF"/>
<mask id="mask1_3917_5056" style="mask-type:luminance" maskUnits="userSpaceOnUse" x="0" y="0" width="36" height="24">
<path fill-rule="evenodd" clip-rule="evenodd" d="M0 0V24H36V0H0Z" fill="white"/>
</mask>
<g mask="url(#mask1_3917_5056)">
<path fill-rule="evenodd" clip-rule="evenodd" d="M18 18.2194C21.6031 18.2194 24.5239 15.4621 24.5239 12.0609C24.5239 8.65961 21.6031 5.90234 18 5.90234C14.3969 5.90234 11.4761 8.65961 11.4761 12.0609C11.4761 15.4621 14.3969 18.2194 18 18.2194Z" fill="#3D58DB"/>
<mask id="mask2_3917_5056" style="mask-type:luminance" maskUnits="userSpaceOnUse" x="11" y="5" width="14" height="14">
<path fill-rule="evenodd" clip-rule="evenodd" d="M18 18.2194C21.6031 18.2194 24.5239 15.4621 24.5239 12.0609C24.5239 8.65961 21.6031 5.90234 18 5.90234C14.3969 5.90234 11.4761 8.65961 11.4761 12.0609C11.4761 15.4621 14.3969 18.2194 18 18.2194Z" fill="white"/>
</mask>
<g mask="url(#mask2_3917_5056)">
<path fill-rule="evenodd" clip-rule="evenodd" d="M24.7522 12.5328C24.7522 12.5328 24.386 9.6288 21.674 9.47116C18.962 9.31351 18.2307 11.6007 18.0742 12.2067C17.9177 12.8127 17.5216 14.4292 14.6662 14.4292C11.8108 14.4292 11.5532 10.3188 11.5532 10.3188V5.47192H24.7522V12.5328Z" fill="#E31D1C"/>
</g>
<path fill-rule="evenodd" clip-rule="evenodd" d="M8.21169 2.052L9.24103 2.87953L4.47074 7.83143L3.44141 7.00391L8.21169 2.052ZM9.9094 3.39116L10.9387 4.21869L6.33944 9.09885L5.3101 8.27133L9.9094 3.39116ZM12.6286 5.57434L11.5992 4.74682L6.98717 9.66402L8.0165 10.4915L12.6286 5.57434Z" fill="#272727"/>
<path fill-rule="evenodd" clip-rule="evenodd" d="M28.5341 1.70508L27.5045 2.52951L29.2904 4.39234L30.3199 3.56791L28.5341 1.70508ZM31.7084 5.13172L30.6789 5.95615L32.4647 7.81898L33.4943 6.99455L31.7084 5.13172ZM24.1065 5.2127L25.136 4.38827L26.9219 6.2511L25.8923 7.07553L24.1065 5.2127ZM28.3102 7.8149L27.2807 8.63933L29.0665 10.5022L30.0961 9.67774L28.3102 7.8149ZM25.8699 3.83109L26.8995 3.00666L31.8704 8.38752L30.8408 9.21195L25.8699 3.83109Z" fill="#272727"/>
<path fill-rule="evenodd" clip-rule="evenodd" d="M29.3118 14.2429L28.2735 13.4153L26.4727 15.2854L27.5109 16.113L29.3118 14.2429ZM26.284 17.5339L25.2458 16.7063L23.4449 18.5764L24.4832 19.404L26.284 17.5339ZM31.5523 16.0327L32.5905 16.8603L30.7896 18.7304L29.7514 17.9028L31.5523 16.0327ZM29.7108 20.2276L28.6726 19.4L26.8717 21.2701L27.91 22.0977L29.7108 20.2276ZM26.9623 17.9779L28.0005 18.8055L26.1207 20.8025L25.0825 19.9748L26.9623 17.9779ZM31.0846 15.478L30.0464 14.6504L28.1666 16.6473L29.2048 17.475L31.0846 15.478Z" fill="#272727"/>
<path fill-rule="evenodd" clip-rule="evenodd" d="M7.20738 14.8898L8.23698 14.0645L12.8322 18.7449L11.8025 19.5702L7.20738 14.8898ZM8.27929 18.9835L9.30889 18.1581L11.2499 20.0537L10.2203 20.879L8.27929 18.9835ZM4.84817 16.6907L3.81856 17.516L8.43759 22.2594L9.46719 21.4341L4.84817 16.6907ZM5.58066 16.1521L6.61026 15.3268L8.29289 17.0806L7.26329 17.906L5.58066 16.1521Z" fill="#272727"/>
</g>
</g>
</svg>
