<svg width="36" height="24" viewBox="0 0 36 24" fill="none" xmlns="http://www.w3.org/2000/svg">
<mask id="mask0_3917_2354" style="mask-type:luminance" maskUnits="userSpaceOnUse" x="0" y="0" width="36" height="24">
<rect width="36" height="24" fill="white"/>
</mask>
<g mask="url(#mask0_3917_2354)">
<path fill-rule="evenodd" clip-rule="evenodd" d="M0 0H36V24H0V0Z" fill="#F7FCFF"/>
<path fill-rule="evenodd" clip-rule="evenodd" d="M0 14.6667V16.6667H36V14.6667H0Z" fill="#E31D1C"/>
<path fill-rule="evenodd" clip-rule="evenodd" d="M0 18.3333V20.3333H36V18.3333H0Z" fill="#E31D1C"/>
<path fill-rule="evenodd" clip-rule="evenodd" d="M0 7.33325V9.33325H36V7.33325H0Z" fill="#E31D1C"/>
<path fill-rule="evenodd" clip-rule="evenodd" d="M0 22V24H36V22H0Z" fill="#E31D1C"/>
<path fill-rule="evenodd" clip-rule="evenodd" d="M0 11V13H36V11H0Z" fill="#E31D1C"/>
<path fill-rule="evenodd" clip-rule="evenodd" d="M0 0V2H36V0H0Z" fill="#E31D1C"/>
<path fill-rule="evenodd" clip-rule="evenodd" d="M0 3.66675V5.66675H36V3.66675H0Z" fill="#E31D1C"/>
<rect width="22.5" height="13" fill="#2E42A5"/>
<path fill-rule="evenodd" clip-rule="evenodd" d="M1.93724 2.93871L1.12063 3.44759L1.39633 2.54198L0.671021 1.96807H1.61837L1.9361 1.229L2.30867 1.96807H3.11626L2.48172 2.54198L2.72737 3.44759L1.93724 2.93871ZM6.43722 2.93871L5.62061 3.44759L5.8963 2.54198L5.171 1.96807H6.11835L6.43608 1.229L6.80865 1.96807H7.61623L6.98169 2.54198L7.22735 3.44759L6.43722 2.93871ZM10.1206 3.44759L10.9372 2.93871L11.7274 3.44759L11.4817 2.54198L12.1162 1.96807H11.3086L10.9361 1.229L10.6183 1.96807H9.671L10.3963 2.54198L10.1206 3.44759ZM15.4372 2.93871L14.6206 3.44759L14.8963 2.54198L14.171 1.96807H15.1183L15.4361 1.229L15.8086 1.96807H16.6162L15.9817 2.54198L16.2274 3.44759L15.4372 2.93871ZM1.12063 7.44759L1.93724 6.93871L2.72737 7.44759L2.48172 6.54198L3.11626 5.96807H2.30867L1.9361 5.229L1.61837 5.96807H0.671021L1.39633 6.54198L1.12063 7.44759ZM6.43722 6.93871L5.62061 7.44759L5.8963 6.54198L5.171 5.96807H6.11835L6.43608 5.229L6.80865 5.96807H7.61623L6.98169 6.54198L7.22735 7.44759L6.43722 6.93871ZM10.1206 7.44759L10.9372 6.93871L11.7274 7.44759L11.4817 6.54198L12.1162 5.96807H11.3086L10.9361 5.229L10.6183 5.96807H9.671L10.3963 6.54198L10.1206 7.44759ZM15.4372 6.93871L14.6206 7.44759L14.8963 6.54198L14.171 5.96807H15.1183L15.4361 5.229L15.8086 5.96807H16.6162L15.9817 6.54198L16.2274 7.44759L15.4372 6.93871ZM1.12063 11.4476L1.93724 10.9387L2.72737 11.4476L2.48172 10.542L3.11626 9.96807H2.30867L1.9361 9.229L1.61837 9.96807H0.671021L1.39633 10.542L1.12063 11.4476ZM6.43722 10.9387L5.62061 11.4476L5.8963 10.542L5.171 9.96807H6.11835L6.43608 9.229L6.80865 9.96807H7.61623L6.98169 10.542L7.22735 11.4476L6.43722 10.9387ZM10.1206 11.4476L10.9372 10.9387L11.7274 11.4476L11.4817 10.542L12.1162 9.96807H11.3086L10.9361 9.229L10.6183 9.96807H9.671L10.3963 10.542L10.1206 11.4476ZM15.4372 10.9387L14.6206 11.4476L14.8963 10.542L14.171 9.96807H15.1183L15.4361 9.229L15.8086 9.96807H16.6162L15.9817 10.542L16.2274 11.4476L15.4372 10.9387ZM19.1206 3.44759L19.9372 2.93871L20.7274 3.44759L20.4817 2.54198L21.1162 1.96807H20.3086L19.9361 1.229L19.6183 1.96807H18.671L19.3963 2.54198L19.1206 3.44759ZM19.9372 6.93871L19.1206 7.44759L19.3963 6.54198L18.671 5.96807H19.6183L19.9361 5.229L20.3086 5.96807H21.1162L20.4817 6.54198L20.7274 7.44759L19.9372 6.93871ZM19.1206 11.4476L19.9372 10.9387L20.7274 11.4476L20.4817 10.542L21.1162 9.96807H20.3086L19.9361 9.229L19.6183 9.96807H18.671L19.3963 10.542L19.1206 11.4476ZM4.18722 4.93871L3.37061 5.44759L3.6463 4.54198L2.921 3.96807H3.86835L4.18608 3.229L4.55865 3.96807H5.36623L4.73169 4.54198L4.97735 5.44759L4.18722 4.93871ZM7.87061 5.44759L8.68722 4.93871L9.47735 5.44759L9.23169 4.54198L9.86623 3.96807H9.05865L8.68608 3.229L8.36835 3.96807H7.421L8.1463 4.54198L7.87061 5.44759ZM13.1872 4.93871L12.3706 5.44759L12.6463 4.54198L11.921 3.96807H12.8683L13.1861 3.229L13.5586 3.96807H14.3662L13.7317 4.54198L13.9774 5.44759L13.1872 4.93871ZM3.37061 9.44759L4.18722 8.93871L4.97735 9.44759L4.73169 8.54198L5.36623 7.96807H4.55865L4.18608 7.229L3.86835 7.96807H2.921L3.6463 8.54198L3.37061 9.44759ZM8.68722 8.93871L7.87061 9.44759L8.1463 8.54198L7.421 7.96807H8.36835L8.68608 7.229L9.05865 7.96807H9.86623L9.23169 8.54198L9.47735 9.44759L8.68722 8.93871ZM12.3706 9.44759L13.1872 8.93871L13.9774 9.44759L13.7317 8.54198L14.3662 7.96807H13.5586L13.1861 7.229L12.8683 7.96807H11.921L12.6463 8.54198L12.3706 9.44759ZM17.6872 4.93871L16.8706 5.44759L17.1463 4.54198L16.421 3.96807H17.3683L17.6861 3.229L18.0586 3.96807H18.8662L18.2317 4.54198L18.4774 5.44759L17.6872 4.93871ZM16.8706 9.44759L17.6872 8.93871L18.4774 9.44759L18.2317 8.54198L18.8662 7.96807H18.0586L17.6861 7.229L17.3683 7.96807H16.421L17.1463 8.54198L16.8706 9.44759Z" fill="#F7FCFF"/>
</g>
</svg>
