<svg width="20" height="20" viewBox="0 0 20 20" fill="none" xmlns="http://www.w3.org/2000/svg">
<g id="Frame" clip-path="url(#clip0_5150_20390)">
<g id="Group">
<g id="OBJECTS">
<g id="Group_2">
<path id="Vector" d="M9.99375 10.001C9.99375 10.001 5.58694 12.0933 2.20651 10.9963C-1.17392 9.89924 -0.332449 5.9516 2.44544 6.06172C2.44544 6.06172 1.15103 3.9009 3.54663 2.82049C6.01079 1.70892 9.06917 5.77499 9.99167 10.001H9.99375Z" fill="url(#paint0_linear_5150_20390)"/>
<path id="Vector_2" d="M9.99597 9.99277C9.99597 9.99277 7.90372 5.58596 9.00075 2.20553C10.0978 -1.1749 14.0454 -0.333426 13.9353 2.44447C13.9353 2.44447 16.0961 1.15006 17.1765 3.54565C18.2881 6.00981 14.222 9.06819 9.99597 9.9907V9.99277Z" fill="url(#paint1_linear_5150_20390)"/>
<path id="Vector_3" d="M10.0068 9.99499C10.0068 9.99499 14.4137 7.90274 17.7941 8.99977C21.1745 10.0968 20.333 14.0444 17.5551 13.9343C17.5551 13.9343 18.8496 16.0951 16.454 17.1755C13.9898 18.2871 10.9314 14.221 10.0089 9.99499H10.0068Z" fill="url(#paint2_linear_5150_20390)"/>
<path id="Vector_4" d="M10.002 10.0059C10.002 10.0059 12.0943 14.4127 10.9972 17.7931C9.90022 21.1735 5.95257 20.3321 6.06269 17.5542C6.06269 17.5542 3.90188 18.8486 2.82147 16.453C1.7099 13.9888 5.77597 10.9304 10.002 10.0079V10.0059Z" fill="url(#paint3_linear_5150_20390)"/>
<path id="Vector_5" opacity="0.46" d="M8.87392 9.45616C8.23607 6.5349 6.12304 3.72584 4.41932 4.49252C2.76339 5.24049 3.6568 6.73229 3.6568 6.73229C1.737 6.65541 1.15524 9.38344 3.49059 10.1418C5.82593 10.9002 8.87184 9.45408 8.87184 9.45408L8.87392 9.45616ZM15.4997 4.42811C14.7518 2.77218 13.26 3.66559 13.26 3.66559C13.3368 1.74579 10.6088 1.16403 9.85044 3.49937C9.09208 5.83472 10.5382 8.88063 10.5382 8.88063C13.4594 8.24278 16.2685 6.12975 15.5018 4.42603L15.4997 4.42811ZM16.4929 9.85923C14.1575 9.10087 11.1116 10.547 11.1116 10.547C11.7495 13.4682 13.8625 16.2773 15.5662 15.5106C17.2221 14.7626 16.3287 13.2708 16.3287 13.2708C18.2485 13.3477 18.8303 10.6197 16.4949 9.86131L16.4929 9.85923ZM4.48581 15.575C5.23378 17.2309 6.72557 16.3375 6.72557 16.3375C6.6487 18.2573 9.37673 18.8391 10.1351 16.5037C10.8935 14.1684 9.44737 11.1225 9.44737 11.1225C6.52611 11.7603 3.71706 13.8734 4.48373 15.5771L4.48581 15.575Z" fill="url(#paint4_linear_5150_20390)"/>
<g id="Vector_6" style="mix-blend-mode:multiply" opacity="0.3">
<path d="M5.13803 2.75683C4.5999 2.58438 4.06177 2.59062 3.54858 2.82124C1.15091 3.90165 2.4474 6.06246 2.4474 6.06246C-0.330496 5.95234 -1.17197 9.89791 2.20846 10.997C3.81245 11.5185 5.64706 11.3211 7.13262 10.9679C4.1615 12.3267 1.9716 14.5624 2.82346 16.4489C3.90387 18.8466 6.06468 17.5501 6.06468 17.5501C5.95457 20.328 9.90013 21.1695 10.9992 17.789C11.5166 16.1954 11.3254 14.3733 10.9764 12.894C7.4422 10.6729 5.48708 6.85822 5.13803 2.75475V2.75683Z" fill="#9DCF1F"/>
</g>
<g id="Vector_7" style="mix-blend-mode:multiply" opacity="0.3">
<path d="M12.9113 13.8851C12.2235 13.6088 11.5836 13.2763 10.9873 12.9023C12.3461 15.8548 14.5734 18.026 16.4537 17.1762C18.0785 16.4428 18.0079 15.2148 17.7918 14.5001C16.2356 14.7286 14.5838 14.5583 12.9133 13.8851H12.9113Z" fill="#9DCF1F"/>
</g>
<g id="Group_3">
<path id="Vector_8" d="M14.4903 2.96506C14.4903 2.96506 15.7265 2.2254 16.7986 2.90273C16.0361 1.90751 15.0139 2.0384 14.4197 2.23579C14.2597 2.29396 14.054 2.37084 13.9355 2.44564C13.9771 2.68873 14.2804 2.96506 14.4903 2.96506Z" fill="#00FC00"/>
<path id="Vector_9" d="M9.58496 7.64994C9.23383 6.16438 9.03645 4.32976 9.55588 2.72577C10.2831 0.486005 12.261 0.101629 13.4807 0.903624C12.4273 -0.49675 9.85506 -0.419875 9.00113 2.20635C8.57728 3.51114 8.62922 4.96762 8.85153 6.26618C8.93464 6.70873 8.99282 6.97676 9.02606 7.1222C9.15072 7.31542 9.42498 7.53566 9.58289 7.64994H9.58496Z" fill="#00FC00"/>
<path id="Vector_10" d="M14.9905 8.70296C14.4566 8.74867 13.3325 8.88372 12.917 9.0167C12.9689 9.28888 13.3076 9.36991 13.5839 9.36991C15.0695 9.01877 16.74 8.998 18.344 9.5195C18.7699 9.65871 19.1273 9.84155 19.4244 10.0555C19.0649 9.61508 18.5289 9.23901 17.7892 9.00007C16.8937 8.7092 15.9276 8.64271 14.9885 8.70089L14.9905 8.70296Z" fill="#00FC00"/>
<path id="Vector_11" d="M3.37671 16.9683C2.52485 15.0818 5.10952 12.5304 8.08064 11.1736C7.82716 11.0926 7.41369 10.9783 7.16853 10.9492C6.69689 11.1736 6.08604 11.4707 5.56246 11.8135C3.44943 13.1495 2.13009 14.9156 2.82196 16.4489C3.08583 17.0327 3.41203 17.3963 3.75693 17.6124C3.6198 17.4337 3.49306 17.2218 3.37671 16.9663V16.9683Z" fill="#00FC00"/>
<path id="Vector_12" d="M3.00053 6.58231C3.00053 6.58231 1.70611 4.4215 4.10171 3.34109C5.0346 2.91932 6.05475 3.24344 7.0105 4.03713C5.90308 2.87984 4.66477 2.31886 3.54696 2.82167C1.14929 3.90207 2.44578 6.06289 2.44578 6.06289C0.0190172 5.96524 -0.930494 8.9696 1.12643 10.4593C-0.157588 8.88649 0.829323 6.49505 3.00053 6.58024V6.58231Z" fill="#00FC00"/>
</g>
</g>
</g>
</g>
</g>
<defs>
<linearGradient id="paint0_linear_5150_20390" x1="0.126723" y1="7.05901" x2="17.7872" y2="6.71412" gradientUnits="userSpaceOnUse">
<stop stop-color="#159107"/>
<stop offset="1" stop-color="#18C908"/>
</linearGradient>
<linearGradient id="paint1_linear_5150_20390" x1="0.0894677" y1="5.20574" x2="17.75" y2="4.85876" gradientUnits="userSpaceOnUse">
<stop stop-color="#159107"/>
<stop offset="1" stop-color="#18C908"/>
</linearGradient>
<linearGradient id="paint2_linear_5150_20390" x1="0.249928" y1="13.3235" x2="17.9104" y2="12.9765" gradientUnits="userSpaceOnUse">
<stop stop-color="#159107"/>
<stop offset="1" stop-color="#18C908"/>
</linearGradient>
<linearGradient id="paint3_linear_5150_20390" x1="0.286669" y1="15.1773" x2="17.9451" y2="14.8303" gradientUnits="userSpaceOnUse">
<stop stop-color="#159107"/>
<stop offset="1" stop-color="#18C908"/>
</linearGradient>
<linearGradient id="paint4_linear_5150_20390" x1="0.0374384" y1="10.0005" x2="21.0202" y2="10.0005" gradientUnits="userSpaceOnUse">
<stop stop-color="#106B05"/>
<stop offset="0.07" stop-color="#106F05"/>
<stop offset="1" stop-color="#13A306"/>
</linearGradient>
<clipPath id="clip0_5150_20390">
<rect width="20" height="20" fill="white"/>
</clipPath>
</defs>
</svg>
