<svg width="180" height="194" viewBox="0 0 180 194" fill="none" xmlns="http://www.w3.org/2000/svg">
<mask id="mask0_5161_18956" style="mask-type:alpha" maskUnits="userSpaceOnUse" x="0" y="0" width="180" height="194">
<path fill-rule="evenodd" clip-rule="evenodd" d="M0 0H180V194H0V0ZM166 20C170.418 20 174 23.5817 174 28V180C174 184.418 170.418 188 166 188H133.016C130.175 188 127.548 186.494 126.113 184.043L124.223 180.817C123.072 178.852 120.966 177.645 118.688 177.645H112.274L112.274 177.645L112.274 177.644H62.0416C59.2014 177.644 56.5741 179.15 55.1386 181.601L53.7082 184.043C52.2727 186.494 49.6454 188 46.8052 188H14C9.58173 188 6 184.418 6 180V28C6 23.5817 9.58172 20 14 20H166Z" fill="#D9D9D9"/>
</mask>
<g mask="url(#mask0_5161_18956)">
<rect width="180" height="194" fill="#191919"/>
<rect x="66" y="169" width="9.88235" height="14" rx="2" fill="#E8B716"/>
<rect x="78.7061" y="169" width="9.88235" height="14" rx="2" fill="#E8B716"/>
<rect x="91.4121" y="169" width="9.88235" height="14" rx="2" fill="#E8B716"/>
<rect x="104.117" y="169" width="9.88235" height="14" rx="2" fill="#E8B716"/>
<path d="M17 10.5C17 13.5376 14.5376 16 11.5 16C8.46243 16 6 13.5376 6 10.5C6 7.46243 8.46243 5 11.5 5C14.5376 5 17 7.46243 17 10.5Z" fill="#3D3B3E"/>
<path fill-rule="evenodd" clip-rule="evenodd" d="M11.5 15.1538C14.0702 15.1538 16.1538 13.0702 16.1538 10.5C16.1538 7.92975 14.0702 5.84615 11.5 5.84615C8.92975 5.84615 6.84615 7.92975 6.84615 10.5C6.84615 13.0702 8.92975 15.1538 11.5 15.1538ZM11.5 16C14.5376 16 17 13.5376 17 10.5C17 7.46243 14.5376 5 11.5 5C8.46243 5 6 7.46243 6 10.5C6 13.5376 8.46243 16 11.5 16Z" fill="black"/>
<path d="M9.13738 9.3327C8.80694 9.00225 8.80694 8.4665 9.13738 8.13605V8.13605C9.46783 7.80561 10.0036 7.80561 10.334 8.13605L13.924 11.726C14.2544 12.0564 14.2544 12.5922 13.924 12.9226V12.9226C13.5935 13.2531 13.0578 13.2531 12.7273 12.9226L9.13738 9.3327Z" fill="#181818"/>
<path d="M12.7259 8.13348C13.0563 7.80303 13.5921 7.80303 13.9225 8.13348V8.13348C14.253 8.46392 14.253 8.99968 13.9225 9.33012L10.3326 12.92C10.0022 13.2505 9.46641 13.2505 9.13597 12.92V12.92C8.80553 12.5896 8.80553 12.0538 9.13597 11.7234L12.7259 8.13348Z" fill="#181818"/>
<path d="M174 10.5C174 13.5376 171.538 16 168.5 16C165.462 16 163 13.5376 163 10.5C163 7.46243 165.462 5 168.5 5C171.538 5 174 7.46243 174 10.5Z" fill="#3D3B3E"/>
<path fill-rule="evenodd" clip-rule="evenodd" d="M168.5 15.1538C171.07 15.1538 173.154 13.0702 173.154 10.5C173.154 7.92975 171.07 5.84615 168.5 5.84615C165.93 5.84615 163.846 7.92975 163.846 10.5C163.846 13.0702 165.93 15.1538 168.5 15.1538ZM168.5 16C171.538 16 174 13.5376 174 10.5C174 7.46243 171.538 5 168.5 5C165.462 5 163 7.46243 163 10.5C163 13.5376 165.462 16 168.5 16Z" fill="black"/>
<path d="M166.137 9.3327C165.807 9.00225 165.807 8.4665 166.137 8.13605V8.13605C166.468 7.80561 167.004 7.80561 167.334 8.13605L170.924 11.726C171.254 12.0564 171.254 12.5922 170.924 12.9226V12.9226C170.594 13.2531 170.058 13.2531 169.727 12.9226L166.137 9.3327Z" fill="#181818"/>
<path d="M169.726 8.13348C170.056 7.80303 170.592 7.80303 170.923 8.13348V8.13348C171.253 8.46392 171.253 8.99968 170.923 9.33012L167.333 12.92C167.002 13.2505 166.466 13.2505 166.136 12.92V12.92C165.806 12.5896 165.806 12.0538 166.136 11.7234L169.726 8.13348Z" fill="#181818"/>
<path fill-rule="evenodd" clip-rule="evenodd" d="M135.135 6.22824C135.869 6.68285 136.107 7.66561 135.667 8.42329L132.878 13.223C132.438 13.9807 131.486 14.2264 130.752 13.7718C130.019 13.3172 129.781 12.3344 130.221 11.5767L133.01 6.777C133.45 6.01932 134.402 5.77363 135.135 6.22824ZM140.403 6.22824C141.136 6.68285 141.374 7.66561 140.934 8.42329L138.145 13.223C137.705 13.9807 136.754 14.2264 136.02 13.7718C135.286 13.3172 135.048 12.3344 135.489 11.5767L138.277 6.777C138.717 6.01932 139.669 5.77363 140.403 6.22824ZM145.67 6.22824C146.404 6.68285 146.642 7.66561 146.202 8.42329L143.413 13.223C142.973 13.9807 142.021 14.2264 141.287 13.7718C140.554 13.3172 140.316 12.3344 140.756 11.5767L143.545 6.777C143.985 6.01932 144.937 5.77363 145.67 6.22824ZM151.248 6.22824C151.981 6.68285 152.219 7.66561 151.779 8.42329L148.99 13.223C148.55 13.9807 147.598 14.2264 146.865 13.7718C146.131 13.3172 145.893 12.3344 146.333 11.5767L149.122 6.777C149.562 6.01932 150.514 5.77363 151.248 6.22824Z" fill="black"/>
</g>
</svg>
