<svg width="804" height="182" viewBox="0 0 804 182" fill="none" xmlns="http://www.w3.org/2000/svg">
<path fill-rule="evenodd" clip-rule="evenodd" d="M2.31422 8.70909L12.3691 2H101.609H102.235H661.671H661.672L666.694 4.31442H686.472L691.181 2H790.698L802 9.78487V172.215L789.757 180H710.017L703.331 176.649H661.672H661.671H101.66L93.7511 179.581H12.3691L2 172.662V90.8954L4.82795 87.5409V32.1909L2.31422 29.2557V8.70909Z" fill="#6D6D6D"/>
<path d="M12.3691 2V0.5H11.9146L11.5366 0.752257L12.3691 2ZM2.31422 8.70909L1.48167 7.46135L0.814216 7.9067V8.70909H2.31422ZM661.672 2L662.3 0.637697L662.001 0.5H661.672V2ZM666.694 4.31442L666.066 5.67672L666.365 5.81442H666.694V4.31442ZM686.472 4.31442V5.81442H686.821L687.134 5.66062L686.472 4.31442ZM691.181 2V0.5H690.832L690.519 0.653805L691.181 2ZM790.698 2L791.549 0.764703L791.165 0.5H790.698V2ZM802 9.78487H803.5V8.99669L802.851 8.54957L802 9.78487ZM802 172.215L802.805 173.481L803.5 173.039V172.215H802ZM789.757 180V181.5H790.193L790.562 181.266L789.757 180ZM710.017 180L709.345 181.341L709.662 181.5H710.017V180ZM703.331 176.649L704.003 175.308L703.686 175.149H703.331V176.649ZM101.66 176.649V175.149H101.391L101.139 175.243L101.66 176.649ZM93.7511 179.581V181.081H94.0202L94.2725 180.988L93.7511 179.581ZM12.3691 179.581L11.5366 180.829L11.9146 181.081H12.3691V179.581ZM2 172.662H0.5V173.465L1.16745 173.91L2 172.662ZM2 90.8954L0.853149 89.9286L0.5 90.3475V90.8954H2ZM4.82795 87.5409L5.9748 88.5077L6.32795 88.0888V87.5409H4.82795ZM4.82795 32.1909H6.32795V31.6364L5.96725 31.2152L4.82795 32.1909ZM2.31422 29.2557H0.814216V29.8102L1.17491 30.2314L2.31422 29.2557ZM11.5366 0.752257L1.48167 7.46135L3.14677 9.95683L13.2017 3.24774L11.5366 0.752257ZM101.609 0.5H12.3691V3.5H101.609V0.5ZM102.235 0.5H101.609V3.5H102.235V0.5ZM661.671 0.5H102.235V3.5H661.671V0.5ZM661.672 0.5H661.671V3.5H661.672V0.5ZM667.322 2.95212L662.3 0.637697L661.044 3.3623L666.066 5.67672L667.322 2.95212ZM686.472 2.81442H666.694V5.81442H686.472V2.81442ZM690.519 0.653805L685.81 2.96823L687.134 5.66062L691.843 3.3462L690.519 0.653805ZM790.698 0.5H691.181V3.5H790.698V0.5ZM802.851 8.54957L791.549 0.764703L789.848 3.2353L801.149 11.0202L802.851 8.54957ZM803.5 172.215V9.78487H800.5V172.215H803.5ZM790.562 181.266L802.805 173.481L801.195 170.949L788.952 178.734L790.562 181.266ZM710.017 181.5H789.757V178.5H710.017V181.5ZM702.659 177.99L709.345 181.341L710.689 178.659L704.003 175.308L702.659 177.99ZM661.672 178.149H703.331V175.149H661.672V178.149ZM661.671 178.149H661.672V175.149H661.671V178.149ZM101.66 178.149H661.671V175.149H101.66V178.149ZM94.2725 180.988L102.181 178.056L101.139 175.243L93.2298 178.175L94.2725 180.988ZM12.3691 181.081H93.7511V178.081H12.3691V181.081ZM1.16745 173.91L11.5366 180.829L13.2017 178.333L2.83255 171.415L1.16745 173.91ZM0.5 90.8954V172.662H3.5V90.8954H0.5ZM3.68109 86.5741L0.853149 89.9286L3.14685 91.8622L5.9748 88.5077L3.68109 86.5741ZM3.32795 32.1909V87.5409H6.32795V32.1909H3.32795ZM1.17491 30.2314L3.68864 33.1666L5.96725 31.2152L3.45352 28.28L1.17491 30.2314ZM0.814216 8.70909V29.2557H3.81422V8.70909H0.814216Z" fill="#0B0B0B"/>
</svg>
